G75*
%MOIN*%
%OFA0B0*%
%FSLAX24Y24*%
%IPPOS*%
%LPD*%
%AMOC8*
5,1,8,0,0,1.08239X$1,22.5*
%
%ADD10C,0.1520*%
%ADD11C,0.0671*%
%ADD12OC8,0.0710*%
%ADD13C,0.1143*%
%ADD14C,0.1261*%
D10*
X002100Y002100D03*
X002100Y014600D03*
X038100Y014600D03*
X038100Y002100D03*
D11*
X023100Y002693D03*
X022017Y002693D03*
X022017Y003429D03*
X023100Y003429D03*
X023100Y004165D03*
X022017Y004165D03*
X022017Y004901D03*
X023100Y004901D03*
X023100Y005842D03*
X022017Y005842D03*
X022017Y006578D03*
X023100Y006578D03*
X023100Y007315D03*
X022017Y007315D03*
X022017Y008051D03*
X023100Y008051D03*
X023100Y008992D03*
X022017Y008992D03*
X022017Y009728D03*
X023100Y009728D03*
X023100Y010464D03*
X022017Y010464D03*
X022017Y011200D03*
X023100Y011200D03*
X023100Y012141D03*
X022017Y012141D03*
X022017Y012878D03*
X023100Y012878D03*
X023100Y013614D03*
X022017Y013614D03*
X022017Y014350D03*
X023100Y014350D03*
X015620Y014350D03*
X014537Y014350D03*
X014537Y013645D03*
X015620Y013645D03*
X015620Y012941D03*
X014537Y012941D03*
X014537Y012236D03*
X015620Y012236D03*
X015620Y011531D03*
X014537Y011531D03*
X014537Y009291D03*
X015620Y009291D03*
X015620Y008504D03*
X014537Y008504D03*
X014537Y007716D03*
X015620Y007716D03*
X015620Y006460D03*
X014537Y006460D03*
X014537Y005704D03*
X015620Y005704D03*
X015620Y004948D03*
X014537Y004948D03*
X014537Y004193D03*
X015620Y004193D03*
X015620Y003437D03*
X014537Y003437D03*
X014537Y002681D03*
X015620Y002681D03*
D12*
X010850Y007850D03*
X010850Y008850D03*
X026600Y008850D03*
X026600Y007850D03*
D13*
X035100Y007356D03*
X035100Y009600D03*
X005350Y009600D03*
X005350Y007356D03*
D14*
X002917Y009730D03*
X007783Y009730D03*
X032667Y009730D03*
X037533Y009730D03*
M02*
