%
M48
M72
T01C0.0320
T02C0.0390
T03C0.0709
T04C0.1181
T05C0.1440
%
T01
X10850Y7850
X10850Y8850
X26600Y8850
X26600Y7850
T02
X23100Y8051
X22017Y8051
X22017Y7315
X23100Y7315
X23100Y6578
X22017Y6578
X22017Y5842
X23100Y5842
X23100Y4901
X22017Y4901
X22017Y4165
X23100Y4165
X23100Y3429
X22017Y3429
X22017Y2693
X23100Y2693
X15620Y2681
X14537Y2681
X14537Y3437
X15620Y3437
X15620Y4193
X14537Y4193
X14537Y4948
X15620Y4948
X15620Y5704
X14537Y5704
X14537Y6460
X15620Y6460
X15620Y7716
X14537Y7716
X14537Y8504
X15620Y8504
X15620Y9291
X14537Y9291
X14537Y11531
X15620Y11531
X15620Y12236
X14537Y12236
X14537Y12941
X15620Y12941
X15620Y13645
X14537Y13645
X14537Y14350
X15620Y14350
X22017Y14350
X23100Y14350
X23100Y13614
X22017Y13614
X22017Y12878
X23100Y12878
X23100Y12141
X22017Y12141
X22017Y11200
X23100Y11200
X23100Y10464
X22017Y10464
X22017Y9728
X23100Y9728
X23100Y8992
X22017Y8992
T03
X35100Y9600
X35100Y7356
X5350Y7356
X5350Y9600
T04
X2917Y9730
X7783Y9730
X32667Y9730
X37533Y9730
T05
X2100Y2100
X2100Y14600
X38100Y14600
X38100Y2100
M30
