G75*
%MOIN*%
%OFA0B0*%
%FSLAX25Y25*%
%IPPOS*%
%LPD*%
%AMOC8*
5,1,8,0,0,1.08239X$1,22.5*
%
%ADD10C,0.00600*%
%ADD11C,0.01200*%
%ADD12C,0.01600*%
%ADD13C,0.01000*%
%ADD14C,0.00500*%
D10*
X0031500Y0023500D02*
X0031500Y0033500D01*
X0031502Y0033560D01*
X0031507Y0033621D01*
X0031516Y0033680D01*
X0031529Y0033739D01*
X0031545Y0033798D01*
X0031565Y0033855D01*
X0031588Y0033910D01*
X0031615Y0033965D01*
X0031644Y0034017D01*
X0031677Y0034068D01*
X0031713Y0034117D01*
X0031751Y0034163D01*
X0031793Y0034207D01*
X0031837Y0034249D01*
X0031883Y0034287D01*
X0031932Y0034323D01*
X0031983Y0034356D01*
X0032035Y0034385D01*
X0032090Y0034412D01*
X0032145Y0034435D01*
X0032202Y0034455D01*
X0032261Y0034471D01*
X0032320Y0034484D01*
X0032379Y0034493D01*
X0032440Y0034498D01*
X0032500Y0034500D01*
X0049500Y0034500D01*
X0049560Y0034498D01*
X0049621Y0034493D01*
X0049680Y0034484D01*
X0049739Y0034471D01*
X0049798Y0034455D01*
X0049855Y0034435D01*
X0049910Y0034412D01*
X0049965Y0034385D01*
X0050017Y0034356D01*
X0050068Y0034323D01*
X0050117Y0034287D01*
X0050163Y0034249D01*
X0050207Y0034207D01*
X0050249Y0034163D01*
X0050287Y0034117D01*
X0050323Y0034068D01*
X0050356Y0034017D01*
X0050385Y0033965D01*
X0050412Y0033910D01*
X0050435Y0033855D01*
X0050455Y0033798D01*
X0050471Y0033739D01*
X0050484Y0033680D01*
X0050493Y0033621D01*
X0050498Y0033560D01*
X0050500Y0033500D01*
X0050500Y0023500D01*
X0050498Y0023440D01*
X0050493Y0023379D01*
X0050484Y0023320D01*
X0050471Y0023261D01*
X0050455Y0023202D01*
X0050435Y0023145D01*
X0050412Y0023090D01*
X0050385Y0023035D01*
X0050356Y0022983D01*
X0050323Y0022932D01*
X0050287Y0022883D01*
X0050249Y0022837D01*
X0050207Y0022793D01*
X0050163Y0022751D01*
X0050117Y0022713D01*
X0050068Y0022677D01*
X0050017Y0022644D01*
X0049965Y0022615D01*
X0049910Y0022588D01*
X0049855Y0022565D01*
X0049798Y0022545D01*
X0049739Y0022529D01*
X0049680Y0022516D01*
X0049621Y0022507D01*
X0049560Y0022502D01*
X0049500Y0022500D01*
X0032500Y0022500D01*
X0032440Y0022502D01*
X0032379Y0022507D01*
X0032320Y0022516D01*
X0032261Y0022529D01*
X0032202Y0022545D01*
X0032145Y0022565D01*
X0032090Y0022588D01*
X0032035Y0022615D01*
X0031983Y0022644D01*
X0031932Y0022677D01*
X0031883Y0022713D01*
X0031837Y0022751D01*
X0031793Y0022793D01*
X0031751Y0022837D01*
X0031713Y0022883D01*
X0031677Y0022932D01*
X0031644Y0022983D01*
X0031615Y0023035D01*
X0031588Y0023090D01*
X0031565Y0023145D01*
X0031545Y0023202D01*
X0031529Y0023261D01*
X0031516Y0023320D01*
X0031507Y0023379D01*
X0031502Y0023440D01*
X0031500Y0023500D01*
X0039500Y0028500D02*
X0040000Y0028500D01*
X0042000Y0028500D02*
X0042500Y0028500D01*
X0043500Y0063500D02*
X0038500Y0063500D01*
X0036000Y0066000D01*
X0036000Y0071000D01*
X0038500Y0073500D01*
X0036000Y0076000D01*
X0036000Y0081000D01*
X0038500Y0083500D01*
X0036000Y0086000D01*
X0036000Y0091000D01*
X0038500Y0093500D01*
X0036000Y0096000D01*
X0036000Y0101000D01*
X0038500Y0103500D01*
X0043500Y0103500D01*
X0046000Y0101000D01*
X0046000Y0096000D01*
X0043500Y0093500D01*
X0046000Y0091000D01*
X0046000Y0086000D01*
X0043500Y0083500D01*
X0046000Y0081000D01*
X0046000Y0076000D01*
X0043500Y0073500D01*
X0046000Y0071000D01*
X0046000Y0066000D01*
X0043500Y0063500D01*
X0017000Y0077500D02*
X0017000Y0094500D01*
X0016998Y0094560D01*
X0016993Y0094621D01*
X0016984Y0094680D01*
X0016971Y0094739D01*
X0016955Y0094798D01*
X0016935Y0094855D01*
X0016912Y0094910D01*
X0016885Y0094965D01*
X0016856Y0095017D01*
X0016823Y0095068D01*
X0016787Y0095117D01*
X0016749Y0095163D01*
X0016707Y0095207D01*
X0016663Y0095249D01*
X0016617Y0095287D01*
X0016568Y0095323D01*
X0016517Y0095356D01*
X0016465Y0095385D01*
X0016410Y0095412D01*
X0016355Y0095435D01*
X0016298Y0095455D01*
X0016239Y0095471D01*
X0016180Y0095484D01*
X0016121Y0095493D01*
X0016060Y0095498D01*
X0016000Y0095500D01*
X0006000Y0095500D01*
X0005940Y0095498D01*
X0005879Y0095493D01*
X0005820Y0095484D01*
X0005761Y0095471D01*
X0005702Y0095455D01*
X0005645Y0095435D01*
X0005590Y0095412D01*
X0005535Y0095385D01*
X0005483Y0095356D01*
X0005432Y0095323D01*
X0005383Y0095287D01*
X0005337Y0095249D01*
X0005293Y0095207D01*
X0005251Y0095163D01*
X0005213Y0095117D01*
X0005177Y0095068D01*
X0005144Y0095017D01*
X0005115Y0094965D01*
X0005088Y0094910D01*
X0005065Y0094855D01*
X0005045Y0094798D01*
X0005029Y0094739D01*
X0005016Y0094680D01*
X0005007Y0094621D01*
X0005002Y0094560D01*
X0005000Y0094500D01*
X0005000Y0077500D01*
X0005002Y0077440D01*
X0005007Y0077379D01*
X0005016Y0077320D01*
X0005029Y0077261D01*
X0005045Y0077202D01*
X0005065Y0077145D01*
X0005088Y0077090D01*
X0005115Y0077035D01*
X0005144Y0076983D01*
X0005177Y0076932D01*
X0005213Y0076883D01*
X0005251Y0076837D01*
X0005293Y0076793D01*
X0005337Y0076751D01*
X0005383Y0076713D01*
X0005432Y0076677D01*
X0005483Y0076644D01*
X0005535Y0076615D01*
X0005590Y0076588D01*
X0005645Y0076565D01*
X0005702Y0076545D01*
X0005761Y0076529D01*
X0005820Y0076516D01*
X0005879Y0076507D01*
X0005940Y0076502D01*
X0006000Y0076500D01*
X0016000Y0076500D01*
X0016060Y0076502D01*
X0016121Y0076507D01*
X0016180Y0076516D01*
X0016239Y0076529D01*
X0016298Y0076545D01*
X0016355Y0076565D01*
X0016410Y0076588D01*
X0016465Y0076615D01*
X0016517Y0076644D01*
X0016568Y0076677D01*
X0016617Y0076713D01*
X0016663Y0076751D01*
X0016707Y0076793D01*
X0016749Y0076837D01*
X0016787Y0076883D01*
X0016823Y0076932D01*
X0016856Y0076983D01*
X0016885Y0077035D01*
X0016912Y0077090D01*
X0016935Y0077145D01*
X0016955Y0077202D01*
X0016971Y0077261D01*
X0016984Y0077320D01*
X0016993Y0077379D01*
X0016998Y0077440D01*
X0017000Y0077500D01*
X0011000Y0084500D02*
X0011000Y0085000D01*
X0011000Y0087000D02*
X0011000Y0087500D01*
X0038500Y0206000D02*
X0036000Y0208500D01*
X0036000Y0213500D01*
X0038500Y0216000D01*
X0036000Y0218500D01*
X0036000Y0223500D01*
X0038500Y0226000D01*
X0036000Y0228500D01*
X0036000Y0233500D01*
X0038500Y0236000D01*
X0036000Y0238500D01*
X0036000Y0243500D01*
X0038500Y0246000D01*
X0043500Y0246000D01*
X0046000Y0243500D01*
X0046000Y0238500D01*
X0043500Y0236000D01*
X0046000Y0233500D01*
X0046000Y0228500D01*
X0043500Y0226000D01*
X0046000Y0223500D01*
X0046000Y0218500D01*
X0043500Y0216000D01*
X0046000Y0213500D01*
X0046000Y0208500D01*
X0043500Y0206000D01*
X0038500Y0206000D01*
X0158799Y0213157D02*
X0158799Y0173858D01*
X0159598Y0173858D01*
X0159598Y0213157D01*
X0185598Y0213157D01*
X0195000Y0213157D01*
X0195000Y0173858D01*
X0185598Y0173858D01*
X0159598Y0173858D01*
X0159598Y0173157D02*
X0185598Y0173157D01*
X0195000Y0173157D01*
X0195000Y0133858D01*
X0185598Y0133858D01*
X0159598Y0133858D01*
X0158799Y0133858D01*
X0158799Y0173157D01*
X0159598Y0173157D01*
X0159598Y0133858D01*
X0159598Y0133157D02*
X0185598Y0133157D01*
X0195000Y0133157D01*
X0195000Y0093858D01*
X0185598Y0093858D01*
X0159598Y0093858D01*
X0158799Y0093858D01*
X0158799Y0133157D01*
X0159598Y0133157D01*
X0159598Y0093858D01*
X0159598Y0093157D02*
X0185598Y0093157D01*
X0195000Y0093157D01*
X0195000Y0053858D01*
X0185598Y0053858D01*
X0159598Y0053858D01*
X0158799Y0053858D01*
X0158799Y0093157D01*
X0159598Y0093157D01*
X0159598Y0053858D01*
X0162800Y0063657D02*
X0162802Y0063746D01*
X0162808Y0063835D01*
X0162818Y0063924D01*
X0162832Y0064012D01*
X0162849Y0064099D01*
X0162871Y0064185D01*
X0162897Y0064271D01*
X0162926Y0064355D01*
X0162959Y0064438D01*
X0162995Y0064519D01*
X0163036Y0064599D01*
X0163079Y0064676D01*
X0163126Y0064752D01*
X0163177Y0064825D01*
X0163230Y0064896D01*
X0163287Y0064965D01*
X0163347Y0065031D01*
X0163410Y0065095D01*
X0163475Y0065155D01*
X0163543Y0065213D01*
X0163614Y0065267D01*
X0163687Y0065318D01*
X0163762Y0065366D01*
X0163839Y0065411D01*
X0163918Y0065452D01*
X0163999Y0065489D01*
X0164081Y0065523D01*
X0164165Y0065554D01*
X0164250Y0065580D01*
X0164336Y0065603D01*
X0164423Y0065621D01*
X0164511Y0065636D01*
X0164600Y0065647D01*
X0164689Y0065654D01*
X0164778Y0065657D01*
X0164867Y0065656D01*
X0164956Y0065651D01*
X0165044Y0065642D01*
X0165133Y0065629D01*
X0165220Y0065612D01*
X0165307Y0065592D01*
X0165393Y0065567D01*
X0165477Y0065539D01*
X0165560Y0065507D01*
X0165642Y0065471D01*
X0165722Y0065432D01*
X0165800Y0065389D01*
X0165876Y0065343D01*
X0165950Y0065293D01*
X0166022Y0065240D01*
X0166091Y0065184D01*
X0166158Y0065125D01*
X0166222Y0065063D01*
X0166283Y0064999D01*
X0166342Y0064931D01*
X0166397Y0064861D01*
X0166449Y0064789D01*
X0166498Y0064714D01*
X0166543Y0064638D01*
X0166585Y0064559D01*
X0166623Y0064479D01*
X0166658Y0064397D01*
X0166689Y0064313D01*
X0166717Y0064228D01*
X0166740Y0064142D01*
X0166760Y0064055D01*
X0166776Y0063968D01*
X0166788Y0063879D01*
X0166796Y0063791D01*
X0166800Y0063702D01*
X0166800Y0063612D01*
X0166796Y0063523D01*
X0166788Y0063435D01*
X0166776Y0063346D01*
X0166760Y0063259D01*
X0166740Y0063172D01*
X0166717Y0063086D01*
X0166689Y0063001D01*
X0166658Y0062917D01*
X0166623Y0062835D01*
X0166585Y0062755D01*
X0166543Y0062676D01*
X0166498Y0062600D01*
X0166449Y0062525D01*
X0166397Y0062453D01*
X0166342Y0062383D01*
X0166283Y0062315D01*
X0166222Y0062251D01*
X0166158Y0062189D01*
X0166091Y0062130D01*
X0166022Y0062074D01*
X0165950Y0062021D01*
X0165876Y0061971D01*
X0165800Y0061925D01*
X0165722Y0061882D01*
X0165642Y0061843D01*
X0165560Y0061807D01*
X0165477Y0061775D01*
X0165393Y0061747D01*
X0165307Y0061722D01*
X0165220Y0061702D01*
X0165133Y0061685D01*
X0165044Y0061672D01*
X0164956Y0061663D01*
X0164867Y0061658D01*
X0164778Y0061657D01*
X0164689Y0061660D01*
X0164600Y0061667D01*
X0164511Y0061678D01*
X0164423Y0061693D01*
X0164336Y0061711D01*
X0164250Y0061734D01*
X0164165Y0061760D01*
X0164081Y0061791D01*
X0163999Y0061825D01*
X0163918Y0061862D01*
X0163839Y0061903D01*
X0163762Y0061948D01*
X0163687Y0061996D01*
X0163614Y0062047D01*
X0163543Y0062101D01*
X0163475Y0062159D01*
X0163410Y0062219D01*
X0163347Y0062283D01*
X0163287Y0062349D01*
X0163230Y0062418D01*
X0163177Y0062489D01*
X0163126Y0062562D01*
X0163079Y0062638D01*
X0163036Y0062715D01*
X0162995Y0062795D01*
X0162959Y0062876D01*
X0162926Y0062959D01*
X0162897Y0063043D01*
X0162871Y0063129D01*
X0162849Y0063215D01*
X0162832Y0063302D01*
X0162818Y0063390D01*
X0162808Y0063479D01*
X0162802Y0063568D01*
X0162800Y0063657D01*
X0162800Y0083357D02*
X0162802Y0083446D01*
X0162808Y0083535D01*
X0162818Y0083624D01*
X0162832Y0083712D01*
X0162849Y0083799D01*
X0162871Y0083885D01*
X0162897Y0083971D01*
X0162926Y0084055D01*
X0162959Y0084138D01*
X0162995Y0084219D01*
X0163036Y0084299D01*
X0163079Y0084376D01*
X0163126Y0084452D01*
X0163177Y0084525D01*
X0163230Y0084596D01*
X0163287Y0084665D01*
X0163347Y0084731D01*
X0163410Y0084795D01*
X0163475Y0084855D01*
X0163543Y0084913D01*
X0163614Y0084967D01*
X0163687Y0085018D01*
X0163762Y0085066D01*
X0163839Y0085111D01*
X0163918Y0085152D01*
X0163999Y0085189D01*
X0164081Y0085223D01*
X0164165Y0085254D01*
X0164250Y0085280D01*
X0164336Y0085303D01*
X0164423Y0085321D01*
X0164511Y0085336D01*
X0164600Y0085347D01*
X0164689Y0085354D01*
X0164778Y0085357D01*
X0164867Y0085356D01*
X0164956Y0085351D01*
X0165044Y0085342D01*
X0165133Y0085329D01*
X0165220Y0085312D01*
X0165307Y0085292D01*
X0165393Y0085267D01*
X0165477Y0085239D01*
X0165560Y0085207D01*
X0165642Y0085171D01*
X0165722Y0085132D01*
X0165800Y0085089D01*
X0165876Y0085043D01*
X0165950Y0084993D01*
X0166022Y0084940D01*
X0166091Y0084884D01*
X0166158Y0084825D01*
X0166222Y0084763D01*
X0166283Y0084699D01*
X0166342Y0084631D01*
X0166397Y0084561D01*
X0166449Y0084489D01*
X0166498Y0084414D01*
X0166543Y0084338D01*
X0166585Y0084259D01*
X0166623Y0084179D01*
X0166658Y0084097D01*
X0166689Y0084013D01*
X0166717Y0083928D01*
X0166740Y0083842D01*
X0166760Y0083755D01*
X0166776Y0083668D01*
X0166788Y0083579D01*
X0166796Y0083491D01*
X0166800Y0083402D01*
X0166800Y0083312D01*
X0166796Y0083223D01*
X0166788Y0083135D01*
X0166776Y0083046D01*
X0166760Y0082959D01*
X0166740Y0082872D01*
X0166717Y0082786D01*
X0166689Y0082701D01*
X0166658Y0082617D01*
X0166623Y0082535D01*
X0166585Y0082455D01*
X0166543Y0082376D01*
X0166498Y0082300D01*
X0166449Y0082225D01*
X0166397Y0082153D01*
X0166342Y0082083D01*
X0166283Y0082015D01*
X0166222Y0081951D01*
X0166158Y0081889D01*
X0166091Y0081830D01*
X0166022Y0081774D01*
X0165950Y0081721D01*
X0165876Y0081671D01*
X0165800Y0081625D01*
X0165722Y0081582D01*
X0165642Y0081543D01*
X0165560Y0081507D01*
X0165477Y0081475D01*
X0165393Y0081447D01*
X0165307Y0081422D01*
X0165220Y0081402D01*
X0165133Y0081385D01*
X0165044Y0081372D01*
X0164956Y0081363D01*
X0164867Y0081358D01*
X0164778Y0081357D01*
X0164689Y0081360D01*
X0164600Y0081367D01*
X0164511Y0081378D01*
X0164423Y0081393D01*
X0164336Y0081411D01*
X0164250Y0081434D01*
X0164165Y0081460D01*
X0164081Y0081491D01*
X0163999Y0081525D01*
X0163918Y0081562D01*
X0163839Y0081603D01*
X0163762Y0081648D01*
X0163687Y0081696D01*
X0163614Y0081747D01*
X0163543Y0081801D01*
X0163475Y0081859D01*
X0163410Y0081919D01*
X0163347Y0081983D01*
X0163287Y0082049D01*
X0163230Y0082118D01*
X0163177Y0082189D01*
X0163126Y0082262D01*
X0163079Y0082338D01*
X0163036Y0082415D01*
X0162995Y0082495D01*
X0162959Y0082576D01*
X0162926Y0082659D01*
X0162897Y0082743D01*
X0162871Y0082829D01*
X0162849Y0082915D01*
X0162832Y0083002D01*
X0162818Y0083090D01*
X0162808Y0083179D01*
X0162802Y0083268D01*
X0162800Y0083357D01*
X0162800Y0103657D02*
X0162802Y0103746D01*
X0162808Y0103835D01*
X0162818Y0103924D01*
X0162832Y0104012D01*
X0162849Y0104099D01*
X0162871Y0104185D01*
X0162897Y0104271D01*
X0162926Y0104355D01*
X0162959Y0104438D01*
X0162995Y0104519D01*
X0163036Y0104599D01*
X0163079Y0104676D01*
X0163126Y0104752D01*
X0163177Y0104825D01*
X0163230Y0104896D01*
X0163287Y0104965D01*
X0163347Y0105031D01*
X0163410Y0105095D01*
X0163475Y0105155D01*
X0163543Y0105213D01*
X0163614Y0105267D01*
X0163687Y0105318D01*
X0163762Y0105366D01*
X0163839Y0105411D01*
X0163918Y0105452D01*
X0163999Y0105489D01*
X0164081Y0105523D01*
X0164165Y0105554D01*
X0164250Y0105580D01*
X0164336Y0105603D01*
X0164423Y0105621D01*
X0164511Y0105636D01*
X0164600Y0105647D01*
X0164689Y0105654D01*
X0164778Y0105657D01*
X0164867Y0105656D01*
X0164956Y0105651D01*
X0165044Y0105642D01*
X0165133Y0105629D01*
X0165220Y0105612D01*
X0165307Y0105592D01*
X0165393Y0105567D01*
X0165477Y0105539D01*
X0165560Y0105507D01*
X0165642Y0105471D01*
X0165722Y0105432D01*
X0165800Y0105389D01*
X0165876Y0105343D01*
X0165950Y0105293D01*
X0166022Y0105240D01*
X0166091Y0105184D01*
X0166158Y0105125D01*
X0166222Y0105063D01*
X0166283Y0104999D01*
X0166342Y0104931D01*
X0166397Y0104861D01*
X0166449Y0104789D01*
X0166498Y0104714D01*
X0166543Y0104638D01*
X0166585Y0104559D01*
X0166623Y0104479D01*
X0166658Y0104397D01*
X0166689Y0104313D01*
X0166717Y0104228D01*
X0166740Y0104142D01*
X0166760Y0104055D01*
X0166776Y0103968D01*
X0166788Y0103879D01*
X0166796Y0103791D01*
X0166800Y0103702D01*
X0166800Y0103612D01*
X0166796Y0103523D01*
X0166788Y0103435D01*
X0166776Y0103346D01*
X0166760Y0103259D01*
X0166740Y0103172D01*
X0166717Y0103086D01*
X0166689Y0103001D01*
X0166658Y0102917D01*
X0166623Y0102835D01*
X0166585Y0102755D01*
X0166543Y0102676D01*
X0166498Y0102600D01*
X0166449Y0102525D01*
X0166397Y0102453D01*
X0166342Y0102383D01*
X0166283Y0102315D01*
X0166222Y0102251D01*
X0166158Y0102189D01*
X0166091Y0102130D01*
X0166022Y0102074D01*
X0165950Y0102021D01*
X0165876Y0101971D01*
X0165800Y0101925D01*
X0165722Y0101882D01*
X0165642Y0101843D01*
X0165560Y0101807D01*
X0165477Y0101775D01*
X0165393Y0101747D01*
X0165307Y0101722D01*
X0165220Y0101702D01*
X0165133Y0101685D01*
X0165044Y0101672D01*
X0164956Y0101663D01*
X0164867Y0101658D01*
X0164778Y0101657D01*
X0164689Y0101660D01*
X0164600Y0101667D01*
X0164511Y0101678D01*
X0164423Y0101693D01*
X0164336Y0101711D01*
X0164250Y0101734D01*
X0164165Y0101760D01*
X0164081Y0101791D01*
X0163999Y0101825D01*
X0163918Y0101862D01*
X0163839Y0101903D01*
X0163762Y0101948D01*
X0163687Y0101996D01*
X0163614Y0102047D01*
X0163543Y0102101D01*
X0163475Y0102159D01*
X0163410Y0102219D01*
X0163347Y0102283D01*
X0163287Y0102349D01*
X0163230Y0102418D01*
X0163177Y0102489D01*
X0163126Y0102562D01*
X0163079Y0102638D01*
X0163036Y0102715D01*
X0162995Y0102795D01*
X0162959Y0102876D01*
X0162926Y0102959D01*
X0162897Y0103043D01*
X0162871Y0103129D01*
X0162849Y0103215D01*
X0162832Y0103302D01*
X0162818Y0103390D01*
X0162808Y0103479D01*
X0162802Y0103568D01*
X0162800Y0103657D01*
X0185598Y0100157D02*
X0185598Y0093858D01*
X0185598Y0093157D02*
X0185598Y0086858D01*
X0185598Y0079858D02*
X0185598Y0067157D01*
X0185598Y0060157D02*
X0185598Y0053858D01*
X0196299Y0053858D02*
X0197098Y0053858D01*
X0197098Y0093157D01*
X0223098Y0093157D01*
X0232500Y0093157D01*
X0232500Y0053858D01*
X0223098Y0053858D01*
X0197098Y0053858D01*
X0196299Y0053858D02*
X0196299Y0093157D01*
X0197098Y0093157D01*
X0197098Y0093858D02*
X0196299Y0093858D01*
X0196299Y0133157D01*
X0197098Y0133157D01*
X0223098Y0133157D01*
X0232500Y0133157D01*
X0232500Y0093858D01*
X0223098Y0093858D01*
X0197098Y0093858D01*
X0197098Y0133157D01*
X0197098Y0133858D02*
X0196299Y0133858D01*
X0196299Y0173157D01*
X0197098Y0173157D01*
X0223098Y0173157D01*
X0232500Y0173157D01*
X0232500Y0133858D01*
X0223098Y0133858D01*
X0197098Y0133858D01*
X0197098Y0173157D01*
X0197098Y0173858D02*
X0196299Y0173858D01*
X0196299Y0213157D01*
X0197098Y0213157D01*
X0223098Y0213157D01*
X0232500Y0213157D01*
X0232500Y0173858D01*
X0223098Y0173858D01*
X0197098Y0173858D01*
X0197098Y0213157D01*
X0195000Y0213858D02*
X0185598Y0213858D01*
X0159598Y0213858D01*
X0158799Y0213858D01*
X0158799Y0253157D01*
X0159598Y0253157D01*
X0185598Y0253157D01*
X0195000Y0253157D01*
X0195000Y0213858D01*
X0185598Y0213858D02*
X0185598Y0220157D01*
X0185598Y0213157D02*
X0185598Y0206858D01*
X0185598Y0199858D02*
X0185598Y0187157D01*
X0185598Y0180157D02*
X0185598Y0173858D01*
X0185598Y0173157D02*
X0185598Y0166858D01*
X0185598Y0159858D02*
X0185598Y0147157D01*
X0185598Y0140157D02*
X0185598Y0133858D01*
X0185598Y0133157D02*
X0185598Y0126858D01*
X0185598Y0119858D02*
X0185598Y0107157D01*
X0200300Y0103657D02*
X0200302Y0103746D01*
X0200308Y0103835D01*
X0200318Y0103924D01*
X0200332Y0104012D01*
X0200349Y0104099D01*
X0200371Y0104185D01*
X0200397Y0104271D01*
X0200426Y0104355D01*
X0200459Y0104438D01*
X0200495Y0104519D01*
X0200536Y0104599D01*
X0200579Y0104676D01*
X0200626Y0104752D01*
X0200677Y0104825D01*
X0200730Y0104896D01*
X0200787Y0104965D01*
X0200847Y0105031D01*
X0200910Y0105095D01*
X0200975Y0105155D01*
X0201043Y0105213D01*
X0201114Y0105267D01*
X0201187Y0105318D01*
X0201262Y0105366D01*
X0201339Y0105411D01*
X0201418Y0105452D01*
X0201499Y0105489D01*
X0201581Y0105523D01*
X0201665Y0105554D01*
X0201750Y0105580D01*
X0201836Y0105603D01*
X0201923Y0105621D01*
X0202011Y0105636D01*
X0202100Y0105647D01*
X0202189Y0105654D01*
X0202278Y0105657D01*
X0202367Y0105656D01*
X0202456Y0105651D01*
X0202544Y0105642D01*
X0202633Y0105629D01*
X0202720Y0105612D01*
X0202807Y0105592D01*
X0202893Y0105567D01*
X0202977Y0105539D01*
X0203060Y0105507D01*
X0203142Y0105471D01*
X0203222Y0105432D01*
X0203300Y0105389D01*
X0203376Y0105343D01*
X0203450Y0105293D01*
X0203522Y0105240D01*
X0203591Y0105184D01*
X0203658Y0105125D01*
X0203722Y0105063D01*
X0203783Y0104999D01*
X0203842Y0104931D01*
X0203897Y0104861D01*
X0203949Y0104789D01*
X0203998Y0104714D01*
X0204043Y0104638D01*
X0204085Y0104559D01*
X0204123Y0104479D01*
X0204158Y0104397D01*
X0204189Y0104313D01*
X0204217Y0104228D01*
X0204240Y0104142D01*
X0204260Y0104055D01*
X0204276Y0103968D01*
X0204288Y0103879D01*
X0204296Y0103791D01*
X0204300Y0103702D01*
X0204300Y0103612D01*
X0204296Y0103523D01*
X0204288Y0103435D01*
X0204276Y0103346D01*
X0204260Y0103259D01*
X0204240Y0103172D01*
X0204217Y0103086D01*
X0204189Y0103001D01*
X0204158Y0102917D01*
X0204123Y0102835D01*
X0204085Y0102755D01*
X0204043Y0102676D01*
X0203998Y0102600D01*
X0203949Y0102525D01*
X0203897Y0102453D01*
X0203842Y0102383D01*
X0203783Y0102315D01*
X0203722Y0102251D01*
X0203658Y0102189D01*
X0203591Y0102130D01*
X0203522Y0102074D01*
X0203450Y0102021D01*
X0203376Y0101971D01*
X0203300Y0101925D01*
X0203222Y0101882D01*
X0203142Y0101843D01*
X0203060Y0101807D01*
X0202977Y0101775D01*
X0202893Y0101747D01*
X0202807Y0101722D01*
X0202720Y0101702D01*
X0202633Y0101685D01*
X0202544Y0101672D01*
X0202456Y0101663D01*
X0202367Y0101658D01*
X0202278Y0101657D01*
X0202189Y0101660D01*
X0202100Y0101667D01*
X0202011Y0101678D01*
X0201923Y0101693D01*
X0201836Y0101711D01*
X0201750Y0101734D01*
X0201665Y0101760D01*
X0201581Y0101791D01*
X0201499Y0101825D01*
X0201418Y0101862D01*
X0201339Y0101903D01*
X0201262Y0101948D01*
X0201187Y0101996D01*
X0201114Y0102047D01*
X0201043Y0102101D01*
X0200975Y0102159D01*
X0200910Y0102219D01*
X0200847Y0102283D01*
X0200787Y0102349D01*
X0200730Y0102418D01*
X0200677Y0102489D01*
X0200626Y0102562D01*
X0200579Y0102638D01*
X0200536Y0102715D01*
X0200495Y0102795D01*
X0200459Y0102876D01*
X0200426Y0102959D01*
X0200397Y0103043D01*
X0200371Y0103129D01*
X0200349Y0103215D01*
X0200332Y0103302D01*
X0200318Y0103390D01*
X0200308Y0103479D01*
X0200302Y0103568D01*
X0200300Y0103657D01*
X0200300Y0083357D02*
X0200302Y0083446D01*
X0200308Y0083535D01*
X0200318Y0083624D01*
X0200332Y0083712D01*
X0200349Y0083799D01*
X0200371Y0083885D01*
X0200397Y0083971D01*
X0200426Y0084055D01*
X0200459Y0084138D01*
X0200495Y0084219D01*
X0200536Y0084299D01*
X0200579Y0084376D01*
X0200626Y0084452D01*
X0200677Y0084525D01*
X0200730Y0084596D01*
X0200787Y0084665D01*
X0200847Y0084731D01*
X0200910Y0084795D01*
X0200975Y0084855D01*
X0201043Y0084913D01*
X0201114Y0084967D01*
X0201187Y0085018D01*
X0201262Y0085066D01*
X0201339Y0085111D01*
X0201418Y0085152D01*
X0201499Y0085189D01*
X0201581Y0085223D01*
X0201665Y0085254D01*
X0201750Y0085280D01*
X0201836Y0085303D01*
X0201923Y0085321D01*
X0202011Y0085336D01*
X0202100Y0085347D01*
X0202189Y0085354D01*
X0202278Y0085357D01*
X0202367Y0085356D01*
X0202456Y0085351D01*
X0202544Y0085342D01*
X0202633Y0085329D01*
X0202720Y0085312D01*
X0202807Y0085292D01*
X0202893Y0085267D01*
X0202977Y0085239D01*
X0203060Y0085207D01*
X0203142Y0085171D01*
X0203222Y0085132D01*
X0203300Y0085089D01*
X0203376Y0085043D01*
X0203450Y0084993D01*
X0203522Y0084940D01*
X0203591Y0084884D01*
X0203658Y0084825D01*
X0203722Y0084763D01*
X0203783Y0084699D01*
X0203842Y0084631D01*
X0203897Y0084561D01*
X0203949Y0084489D01*
X0203998Y0084414D01*
X0204043Y0084338D01*
X0204085Y0084259D01*
X0204123Y0084179D01*
X0204158Y0084097D01*
X0204189Y0084013D01*
X0204217Y0083928D01*
X0204240Y0083842D01*
X0204260Y0083755D01*
X0204276Y0083668D01*
X0204288Y0083579D01*
X0204296Y0083491D01*
X0204300Y0083402D01*
X0204300Y0083312D01*
X0204296Y0083223D01*
X0204288Y0083135D01*
X0204276Y0083046D01*
X0204260Y0082959D01*
X0204240Y0082872D01*
X0204217Y0082786D01*
X0204189Y0082701D01*
X0204158Y0082617D01*
X0204123Y0082535D01*
X0204085Y0082455D01*
X0204043Y0082376D01*
X0203998Y0082300D01*
X0203949Y0082225D01*
X0203897Y0082153D01*
X0203842Y0082083D01*
X0203783Y0082015D01*
X0203722Y0081951D01*
X0203658Y0081889D01*
X0203591Y0081830D01*
X0203522Y0081774D01*
X0203450Y0081721D01*
X0203376Y0081671D01*
X0203300Y0081625D01*
X0203222Y0081582D01*
X0203142Y0081543D01*
X0203060Y0081507D01*
X0202977Y0081475D01*
X0202893Y0081447D01*
X0202807Y0081422D01*
X0202720Y0081402D01*
X0202633Y0081385D01*
X0202544Y0081372D01*
X0202456Y0081363D01*
X0202367Y0081358D01*
X0202278Y0081357D01*
X0202189Y0081360D01*
X0202100Y0081367D01*
X0202011Y0081378D01*
X0201923Y0081393D01*
X0201836Y0081411D01*
X0201750Y0081434D01*
X0201665Y0081460D01*
X0201581Y0081491D01*
X0201499Y0081525D01*
X0201418Y0081562D01*
X0201339Y0081603D01*
X0201262Y0081648D01*
X0201187Y0081696D01*
X0201114Y0081747D01*
X0201043Y0081801D01*
X0200975Y0081859D01*
X0200910Y0081919D01*
X0200847Y0081983D01*
X0200787Y0082049D01*
X0200730Y0082118D01*
X0200677Y0082189D01*
X0200626Y0082262D01*
X0200579Y0082338D01*
X0200536Y0082415D01*
X0200495Y0082495D01*
X0200459Y0082576D01*
X0200426Y0082659D01*
X0200397Y0082743D01*
X0200371Y0082829D01*
X0200349Y0082915D01*
X0200332Y0083002D01*
X0200318Y0083090D01*
X0200308Y0083179D01*
X0200302Y0083268D01*
X0200300Y0083357D01*
X0200300Y0063657D02*
X0200302Y0063746D01*
X0200308Y0063835D01*
X0200318Y0063924D01*
X0200332Y0064012D01*
X0200349Y0064099D01*
X0200371Y0064185D01*
X0200397Y0064271D01*
X0200426Y0064355D01*
X0200459Y0064438D01*
X0200495Y0064519D01*
X0200536Y0064599D01*
X0200579Y0064676D01*
X0200626Y0064752D01*
X0200677Y0064825D01*
X0200730Y0064896D01*
X0200787Y0064965D01*
X0200847Y0065031D01*
X0200910Y0065095D01*
X0200975Y0065155D01*
X0201043Y0065213D01*
X0201114Y0065267D01*
X0201187Y0065318D01*
X0201262Y0065366D01*
X0201339Y0065411D01*
X0201418Y0065452D01*
X0201499Y0065489D01*
X0201581Y0065523D01*
X0201665Y0065554D01*
X0201750Y0065580D01*
X0201836Y0065603D01*
X0201923Y0065621D01*
X0202011Y0065636D01*
X0202100Y0065647D01*
X0202189Y0065654D01*
X0202278Y0065657D01*
X0202367Y0065656D01*
X0202456Y0065651D01*
X0202544Y0065642D01*
X0202633Y0065629D01*
X0202720Y0065612D01*
X0202807Y0065592D01*
X0202893Y0065567D01*
X0202977Y0065539D01*
X0203060Y0065507D01*
X0203142Y0065471D01*
X0203222Y0065432D01*
X0203300Y0065389D01*
X0203376Y0065343D01*
X0203450Y0065293D01*
X0203522Y0065240D01*
X0203591Y0065184D01*
X0203658Y0065125D01*
X0203722Y0065063D01*
X0203783Y0064999D01*
X0203842Y0064931D01*
X0203897Y0064861D01*
X0203949Y0064789D01*
X0203998Y0064714D01*
X0204043Y0064638D01*
X0204085Y0064559D01*
X0204123Y0064479D01*
X0204158Y0064397D01*
X0204189Y0064313D01*
X0204217Y0064228D01*
X0204240Y0064142D01*
X0204260Y0064055D01*
X0204276Y0063968D01*
X0204288Y0063879D01*
X0204296Y0063791D01*
X0204300Y0063702D01*
X0204300Y0063612D01*
X0204296Y0063523D01*
X0204288Y0063435D01*
X0204276Y0063346D01*
X0204260Y0063259D01*
X0204240Y0063172D01*
X0204217Y0063086D01*
X0204189Y0063001D01*
X0204158Y0062917D01*
X0204123Y0062835D01*
X0204085Y0062755D01*
X0204043Y0062676D01*
X0203998Y0062600D01*
X0203949Y0062525D01*
X0203897Y0062453D01*
X0203842Y0062383D01*
X0203783Y0062315D01*
X0203722Y0062251D01*
X0203658Y0062189D01*
X0203591Y0062130D01*
X0203522Y0062074D01*
X0203450Y0062021D01*
X0203376Y0061971D01*
X0203300Y0061925D01*
X0203222Y0061882D01*
X0203142Y0061843D01*
X0203060Y0061807D01*
X0202977Y0061775D01*
X0202893Y0061747D01*
X0202807Y0061722D01*
X0202720Y0061702D01*
X0202633Y0061685D01*
X0202544Y0061672D01*
X0202456Y0061663D01*
X0202367Y0061658D01*
X0202278Y0061657D01*
X0202189Y0061660D01*
X0202100Y0061667D01*
X0202011Y0061678D01*
X0201923Y0061693D01*
X0201836Y0061711D01*
X0201750Y0061734D01*
X0201665Y0061760D01*
X0201581Y0061791D01*
X0201499Y0061825D01*
X0201418Y0061862D01*
X0201339Y0061903D01*
X0201262Y0061948D01*
X0201187Y0061996D01*
X0201114Y0062047D01*
X0201043Y0062101D01*
X0200975Y0062159D01*
X0200910Y0062219D01*
X0200847Y0062283D01*
X0200787Y0062349D01*
X0200730Y0062418D01*
X0200677Y0062489D01*
X0200626Y0062562D01*
X0200579Y0062638D01*
X0200536Y0062715D01*
X0200495Y0062795D01*
X0200459Y0062876D01*
X0200426Y0062959D01*
X0200397Y0063043D01*
X0200371Y0063129D01*
X0200349Y0063215D01*
X0200332Y0063302D01*
X0200318Y0063390D01*
X0200308Y0063479D01*
X0200302Y0063568D01*
X0200300Y0063657D01*
X0223098Y0060157D02*
X0223098Y0053858D01*
X0223098Y0067157D02*
X0223098Y0079858D01*
X0223098Y0086858D02*
X0223098Y0093157D01*
X0223098Y0093858D02*
X0223098Y0100157D01*
X0223098Y0107157D02*
X0223098Y0119858D01*
X0223098Y0126858D02*
X0223098Y0133157D01*
X0223098Y0133858D02*
X0223098Y0140157D01*
X0223098Y0147157D02*
X0223098Y0159858D01*
X0223098Y0166858D02*
X0223098Y0173157D01*
X0223098Y0173858D02*
X0223098Y0180157D01*
X0223098Y0187157D02*
X0223098Y0199858D01*
X0223098Y0206858D02*
X0223098Y0213157D01*
X0224500Y0222500D02*
X0207500Y0222500D01*
X0207440Y0222502D01*
X0207379Y0222507D01*
X0207320Y0222516D01*
X0207261Y0222529D01*
X0207202Y0222545D01*
X0207145Y0222565D01*
X0207090Y0222588D01*
X0207035Y0222615D01*
X0206983Y0222644D01*
X0206932Y0222677D01*
X0206883Y0222713D01*
X0206837Y0222751D01*
X0206793Y0222793D01*
X0206751Y0222837D01*
X0206713Y0222883D01*
X0206677Y0222932D01*
X0206644Y0222983D01*
X0206615Y0223035D01*
X0206588Y0223090D01*
X0206565Y0223145D01*
X0206545Y0223202D01*
X0206529Y0223261D01*
X0206516Y0223320D01*
X0206507Y0223379D01*
X0206502Y0223440D01*
X0206500Y0223500D01*
X0206500Y0233500D01*
X0206502Y0233560D01*
X0206507Y0233621D01*
X0206516Y0233680D01*
X0206529Y0233739D01*
X0206545Y0233798D01*
X0206565Y0233855D01*
X0206588Y0233910D01*
X0206615Y0233965D01*
X0206644Y0234017D01*
X0206677Y0234068D01*
X0206713Y0234117D01*
X0206751Y0234163D01*
X0206793Y0234207D01*
X0206837Y0234249D01*
X0206883Y0234287D01*
X0206932Y0234323D01*
X0206983Y0234356D01*
X0207035Y0234385D01*
X0207090Y0234412D01*
X0207145Y0234435D01*
X0207202Y0234455D01*
X0207261Y0234471D01*
X0207320Y0234484D01*
X0207379Y0234493D01*
X0207440Y0234498D01*
X0207500Y0234500D01*
X0224500Y0234500D01*
X0224560Y0234498D01*
X0224621Y0234493D01*
X0224680Y0234484D01*
X0224739Y0234471D01*
X0224798Y0234455D01*
X0224855Y0234435D01*
X0224910Y0234412D01*
X0224965Y0234385D01*
X0225017Y0234356D01*
X0225068Y0234323D01*
X0225117Y0234287D01*
X0225163Y0234249D01*
X0225207Y0234207D01*
X0225249Y0234163D01*
X0225287Y0234117D01*
X0225323Y0234068D01*
X0225356Y0234017D01*
X0225385Y0233965D01*
X0225412Y0233910D01*
X0225435Y0233855D01*
X0225455Y0233798D01*
X0225471Y0233739D01*
X0225484Y0233680D01*
X0225493Y0233621D01*
X0225498Y0233560D01*
X0225500Y0233500D01*
X0225500Y0223500D01*
X0225498Y0223440D01*
X0225493Y0223379D01*
X0225484Y0223320D01*
X0225471Y0223261D01*
X0225455Y0223202D01*
X0225435Y0223145D01*
X0225412Y0223090D01*
X0225385Y0223035D01*
X0225356Y0222983D01*
X0225323Y0222932D01*
X0225287Y0222883D01*
X0225249Y0222837D01*
X0225207Y0222793D01*
X0225163Y0222751D01*
X0225117Y0222713D01*
X0225068Y0222677D01*
X0225017Y0222644D01*
X0224965Y0222615D01*
X0224910Y0222588D01*
X0224855Y0222565D01*
X0224798Y0222545D01*
X0224739Y0222529D01*
X0224680Y0222516D01*
X0224621Y0222507D01*
X0224560Y0222502D01*
X0224500Y0222500D01*
X0217500Y0228500D02*
X0217000Y0228500D01*
X0215000Y0228500D02*
X0214500Y0228500D01*
X0207500Y0252500D02*
X0224500Y0252500D01*
X0224560Y0252502D01*
X0224621Y0252507D01*
X0224680Y0252516D01*
X0224739Y0252529D01*
X0224798Y0252545D01*
X0224855Y0252565D01*
X0224910Y0252588D01*
X0224965Y0252615D01*
X0225017Y0252644D01*
X0225068Y0252677D01*
X0225117Y0252713D01*
X0225163Y0252751D01*
X0225207Y0252793D01*
X0225249Y0252837D01*
X0225287Y0252883D01*
X0225323Y0252932D01*
X0225356Y0252983D01*
X0225385Y0253035D01*
X0225412Y0253090D01*
X0225435Y0253145D01*
X0225455Y0253202D01*
X0225471Y0253261D01*
X0225484Y0253320D01*
X0225493Y0253379D01*
X0225498Y0253440D01*
X0225500Y0253500D01*
X0225500Y0263500D01*
X0225498Y0263560D01*
X0225493Y0263621D01*
X0225484Y0263680D01*
X0225471Y0263739D01*
X0225455Y0263798D01*
X0225435Y0263855D01*
X0225412Y0263910D01*
X0225385Y0263965D01*
X0225356Y0264017D01*
X0225323Y0264068D01*
X0225287Y0264117D01*
X0225249Y0264163D01*
X0225207Y0264207D01*
X0225163Y0264249D01*
X0225117Y0264287D01*
X0225068Y0264323D01*
X0225017Y0264356D01*
X0224965Y0264385D01*
X0224910Y0264412D01*
X0224855Y0264435D01*
X0224798Y0264455D01*
X0224739Y0264471D01*
X0224680Y0264484D01*
X0224621Y0264493D01*
X0224560Y0264498D01*
X0224500Y0264500D01*
X0207500Y0264500D01*
X0207440Y0264498D01*
X0207379Y0264493D01*
X0207320Y0264484D01*
X0207261Y0264471D01*
X0207202Y0264455D01*
X0207145Y0264435D01*
X0207090Y0264412D01*
X0207035Y0264385D01*
X0206983Y0264356D01*
X0206932Y0264323D01*
X0206883Y0264287D01*
X0206837Y0264249D01*
X0206793Y0264207D01*
X0206751Y0264163D01*
X0206713Y0264117D01*
X0206677Y0264068D01*
X0206644Y0264017D01*
X0206615Y0263965D01*
X0206588Y0263910D01*
X0206565Y0263855D01*
X0206545Y0263798D01*
X0206529Y0263739D01*
X0206516Y0263680D01*
X0206507Y0263621D01*
X0206502Y0263560D01*
X0206500Y0263500D01*
X0206500Y0253500D01*
X0206502Y0253440D01*
X0206507Y0253379D01*
X0206516Y0253320D01*
X0206529Y0253261D01*
X0206545Y0253202D01*
X0206565Y0253145D01*
X0206588Y0253090D01*
X0206615Y0253035D01*
X0206644Y0252983D01*
X0206677Y0252932D01*
X0206713Y0252883D01*
X0206751Y0252837D01*
X0206793Y0252793D01*
X0206837Y0252751D01*
X0206883Y0252713D01*
X0206932Y0252677D01*
X0206983Y0252644D01*
X0207035Y0252615D01*
X0207090Y0252588D01*
X0207145Y0252565D01*
X0207202Y0252545D01*
X0207261Y0252529D01*
X0207320Y0252516D01*
X0207379Y0252507D01*
X0207440Y0252502D01*
X0207500Y0252500D01*
X0214500Y0258500D02*
X0215000Y0258500D01*
X0217000Y0258500D02*
X0217500Y0258500D01*
X0195000Y0253858D02*
X0185598Y0253858D01*
X0159598Y0253858D01*
X0158799Y0253858D01*
X0158799Y0293157D01*
X0159598Y0293157D01*
X0185598Y0293157D01*
X0195000Y0293157D01*
X0195000Y0253858D01*
X0185598Y0253858D02*
X0185598Y0260157D01*
X0185598Y0253157D02*
X0185598Y0246858D01*
X0185598Y0239858D02*
X0185598Y0227157D01*
X0162800Y0223657D02*
X0162802Y0223746D01*
X0162808Y0223835D01*
X0162818Y0223924D01*
X0162832Y0224012D01*
X0162849Y0224099D01*
X0162871Y0224185D01*
X0162897Y0224271D01*
X0162926Y0224355D01*
X0162959Y0224438D01*
X0162995Y0224519D01*
X0163036Y0224599D01*
X0163079Y0224676D01*
X0163126Y0224752D01*
X0163177Y0224825D01*
X0163230Y0224896D01*
X0163287Y0224965D01*
X0163347Y0225031D01*
X0163410Y0225095D01*
X0163475Y0225155D01*
X0163543Y0225213D01*
X0163614Y0225267D01*
X0163687Y0225318D01*
X0163762Y0225366D01*
X0163839Y0225411D01*
X0163918Y0225452D01*
X0163999Y0225489D01*
X0164081Y0225523D01*
X0164165Y0225554D01*
X0164250Y0225580D01*
X0164336Y0225603D01*
X0164423Y0225621D01*
X0164511Y0225636D01*
X0164600Y0225647D01*
X0164689Y0225654D01*
X0164778Y0225657D01*
X0164867Y0225656D01*
X0164956Y0225651D01*
X0165044Y0225642D01*
X0165133Y0225629D01*
X0165220Y0225612D01*
X0165307Y0225592D01*
X0165393Y0225567D01*
X0165477Y0225539D01*
X0165560Y0225507D01*
X0165642Y0225471D01*
X0165722Y0225432D01*
X0165800Y0225389D01*
X0165876Y0225343D01*
X0165950Y0225293D01*
X0166022Y0225240D01*
X0166091Y0225184D01*
X0166158Y0225125D01*
X0166222Y0225063D01*
X0166283Y0224999D01*
X0166342Y0224931D01*
X0166397Y0224861D01*
X0166449Y0224789D01*
X0166498Y0224714D01*
X0166543Y0224638D01*
X0166585Y0224559D01*
X0166623Y0224479D01*
X0166658Y0224397D01*
X0166689Y0224313D01*
X0166717Y0224228D01*
X0166740Y0224142D01*
X0166760Y0224055D01*
X0166776Y0223968D01*
X0166788Y0223879D01*
X0166796Y0223791D01*
X0166800Y0223702D01*
X0166800Y0223612D01*
X0166796Y0223523D01*
X0166788Y0223435D01*
X0166776Y0223346D01*
X0166760Y0223259D01*
X0166740Y0223172D01*
X0166717Y0223086D01*
X0166689Y0223001D01*
X0166658Y0222917D01*
X0166623Y0222835D01*
X0166585Y0222755D01*
X0166543Y0222676D01*
X0166498Y0222600D01*
X0166449Y0222525D01*
X0166397Y0222453D01*
X0166342Y0222383D01*
X0166283Y0222315D01*
X0166222Y0222251D01*
X0166158Y0222189D01*
X0166091Y0222130D01*
X0166022Y0222074D01*
X0165950Y0222021D01*
X0165876Y0221971D01*
X0165800Y0221925D01*
X0165722Y0221882D01*
X0165642Y0221843D01*
X0165560Y0221807D01*
X0165477Y0221775D01*
X0165393Y0221747D01*
X0165307Y0221722D01*
X0165220Y0221702D01*
X0165133Y0221685D01*
X0165044Y0221672D01*
X0164956Y0221663D01*
X0164867Y0221658D01*
X0164778Y0221657D01*
X0164689Y0221660D01*
X0164600Y0221667D01*
X0164511Y0221678D01*
X0164423Y0221693D01*
X0164336Y0221711D01*
X0164250Y0221734D01*
X0164165Y0221760D01*
X0164081Y0221791D01*
X0163999Y0221825D01*
X0163918Y0221862D01*
X0163839Y0221903D01*
X0163762Y0221948D01*
X0163687Y0221996D01*
X0163614Y0222047D01*
X0163543Y0222101D01*
X0163475Y0222159D01*
X0163410Y0222219D01*
X0163347Y0222283D01*
X0163287Y0222349D01*
X0163230Y0222418D01*
X0163177Y0222489D01*
X0163126Y0222562D01*
X0163079Y0222638D01*
X0163036Y0222715D01*
X0162995Y0222795D01*
X0162959Y0222876D01*
X0162926Y0222959D01*
X0162897Y0223043D01*
X0162871Y0223129D01*
X0162849Y0223215D01*
X0162832Y0223302D01*
X0162818Y0223390D01*
X0162808Y0223479D01*
X0162802Y0223568D01*
X0162800Y0223657D01*
X0159598Y0213858D02*
X0159598Y0253157D01*
X0159598Y0253858D02*
X0159598Y0293157D01*
X0163800Y0293800D02*
X0163800Y0298070D01*
X0165935Y0300205D01*
X0168070Y0298070D01*
X0168070Y0293800D01*
X0170245Y0293800D02*
X0170245Y0298070D01*
X0173448Y0298070D01*
X0174516Y0297003D01*
X0174516Y0293800D01*
X0176691Y0294868D02*
X0176691Y0297003D01*
X0177759Y0298070D01*
X0180961Y0298070D01*
X0180961Y0300205D02*
X0180961Y0293800D01*
X0177759Y0293800D01*
X0176691Y0294868D01*
X0183136Y0295935D02*
X0185272Y0298070D01*
X0186339Y0298070D01*
X0188508Y0297003D02*
X0189575Y0298070D01*
X0191710Y0298070D01*
X0192778Y0297003D01*
X0192778Y0295935D01*
X0188508Y0295935D01*
X0188508Y0294868D02*
X0188508Y0297003D01*
X0188508Y0294868D02*
X0189575Y0293800D01*
X0191710Y0293800D01*
X0194953Y0294868D02*
X0196021Y0293800D01*
X0197088Y0294868D01*
X0198156Y0293800D01*
X0199224Y0294868D01*
X0199224Y0298070D01*
X0194953Y0298070D02*
X0194953Y0294868D01*
X0185598Y0293157D02*
X0185598Y0286858D01*
X0185598Y0279858D02*
X0185598Y0267157D01*
X0162800Y0263657D02*
X0162802Y0263746D01*
X0162808Y0263835D01*
X0162818Y0263924D01*
X0162832Y0264012D01*
X0162849Y0264099D01*
X0162871Y0264185D01*
X0162897Y0264271D01*
X0162926Y0264355D01*
X0162959Y0264438D01*
X0162995Y0264519D01*
X0163036Y0264599D01*
X0163079Y0264676D01*
X0163126Y0264752D01*
X0163177Y0264825D01*
X0163230Y0264896D01*
X0163287Y0264965D01*
X0163347Y0265031D01*
X0163410Y0265095D01*
X0163475Y0265155D01*
X0163543Y0265213D01*
X0163614Y0265267D01*
X0163687Y0265318D01*
X0163762Y0265366D01*
X0163839Y0265411D01*
X0163918Y0265452D01*
X0163999Y0265489D01*
X0164081Y0265523D01*
X0164165Y0265554D01*
X0164250Y0265580D01*
X0164336Y0265603D01*
X0164423Y0265621D01*
X0164511Y0265636D01*
X0164600Y0265647D01*
X0164689Y0265654D01*
X0164778Y0265657D01*
X0164867Y0265656D01*
X0164956Y0265651D01*
X0165044Y0265642D01*
X0165133Y0265629D01*
X0165220Y0265612D01*
X0165307Y0265592D01*
X0165393Y0265567D01*
X0165477Y0265539D01*
X0165560Y0265507D01*
X0165642Y0265471D01*
X0165722Y0265432D01*
X0165800Y0265389D01*
X0165876Y0265343D01*
X0165950Y0265293D01*
X0166022Y0265240D01*
X0166091Y0265184D01*
X0166158Y0265125D01*
X0166222Y0265063D01*
X0166283Y0264999D01*
X0166342Y0264931D01*
X0166397Y0264861D01*
X0166449Y0264789D01*
X0166498Y0264714D01*
X0166543Y0264638D01*
X0166585Y0264559D01*
X0166623Y0264479D01*
X0166658Y0264397D01*
X0166689Y0264313D01*
X0166717Y0264228D01*
X0166740Y0264142D01*
X0166760Y0264055D01*
X0166776Y0263968D01*
X0166788Y0263879D01*
X0166796Y0263791D01*
X0166800Y0263702D01*
X0166800Y0263612D01*
X0166796Y0263523D01*
X0166788Y0263435D01*
X0166776Y0263346D01*
X0166760Y0263259D01*
X0166740Y0263172D01*
X0166717Y0263086D01*
X0166689Y0263001D01*
X0166658Y0262917D01*
X0166623Y0262835D01*
X0166585Y0262755D01*
X0166543Y0262676D01*
X0166498Y0262600D01*
X0166449Y0262525D01*
X0166397Y0262453D01*
X0166342Y0262383D01*
X0166283Y0262315D01*
X0166222Y0262251D01*
X0166158Y0262189D01*
X0166091Y0262130D01*
X0166022Y0262074D01*
X0165950Y0262021D01*
X0165876Y0261971D01*
X0165800Y0261925D01*
X0165722Y0261882D01*
X0165642Y0261843D01*
X0165560Y0261807D01*
X0165477Y0261775D01*
X0165393Y0261747D01*
X0165307Y0261722D01*
X0165220Y0261702D01*
X0165133Y0261685D01*
X0165044Y0261672D01*
X0164956Y0261663D01*
X0164867Y0261658D01*
X0164778Y0261657D01*
X0164689Y0261660D01*
X0164600Y0261667D01*
X0164511Y0261678D01*
X0164423Y0261693D01*
X0164336Y0261711D01*
X0164250Y0261734D01*
X0164165Y0261760D01*
X0164081Y0261791D01*
X0163999Y0261825D01*
X0163918Y0261862D01*
X0163839Y0261903D01*
X0163762Y0261948D01*
X0163687Y0261996D01*
X0163614Y0262047D01*
X0163543Y0262101D01*
X0163475Y0262159D01*
X0163410Y0262219D01*
X0163347Y0262283D01*
X0163287Y0262349D01*
X0163230Y0262418D01*
X0163177Y0262489D01*
X0163126Y0262562D01*
X0163079Y0262638D01*
X0163036Y0262715D01*
X0162995Y0262795D01*
X0162959Y0262876D01*
X0162926Y0262959D01*
X0162897Y0263043D01*
X0162871Y0263129D01*
X0162849Y0263215D01*
X0162832Y0263302D01*
X0162818Y0263390D01*
X0162808Y0263479D01*
X0162802Y0263568D01*
X0162800Y0263657D01*
X0162800Y0283357D02*
X0162802Y0283446D01*
X0162808Y0283535D01*
X0162818Y0283624D01*
X0162832Y0283712D01*
X0162849Y0283799D01*
X0162871Y0283885D01*
X0162897Y0283971D01*
X0162926Y0284055D01*
X0162959Y0284138D01*
X0162995Y0284219D01*
X0163036Y0284299D01*
X0163079Y0284376D01*
X0163126Y0284452D01*
X0163177Y0284525D01*
X0163230Y0284596D01*
X0163287Y0284665D01*
X0163347Y0284731D01*
X0163410Y0284795D01*
X0163475Y0284855D01*
X0163543Y0284913D01*
X0163614Y0284967D01*
X0163687Y0285018D01*
X0163762Y0285066D01*
X0163839Y0285111D01*
X0163918Y0285152D01*
X0163999Y0285189D01*
X0164081Y0285223D01*
X0164165Y0285254D01*
X0164250Y0285280D01*
X0164336Y0285303D01*
X0164423Y0285321D01*
X0164511Y0285336D01*
X0164600Y0285347D01*
X0164689Y0285354D01*
X0164778Y0285357D01*
X0164867Y0285356D01*
X0164956Y0285351D01*
X0165044Y0285342D01*
X0165133Y0285329D01*
X0165220Y0285312D01*
X0165307Y0285292D01*
X0165393Y0285267D01*
X0165477Y0285239D01*
X0165560Y0285207D01*
X0165642Y0285171D01*
X0165722Y0285132D01*
X0165800Y0285089D01*
X0165876Y0285043D01*
X0165950Y0284993D01*
X0166022Y0284940D01*
X0166091Y0284884D01*
X0166158Y0284825D01*
X0166222Y0284763D01*
X0166283Y0284699D01*
X0166342Y0284631D01*
X0166397Y0284561D01*
X0166449Y0284489D01*
X0166498Y0284414D01*
X0166543Y0284338D01*
X0166585Y0284259D01*
X0166623Y0284179D01*
X0166658Y0284097D01*
X0166689Y0284013D01*
X0166717Y0283928D01*
X0166740Y0283842D01*
X0166760Y0283755D01*
X0166776Y0283668D01*
X0166788Y0283579D01*
X0166796Y0283491D01*
X0166800Y0283402D01*
X0166800Y0283312D01*
X0166796Y0283223D01*
X0166788Y0283135D01*
X0166776Y0283046D01*
X0166760Y0282959D01*
X0166740Y0282872D01*
X0166717Y0282786D01*
X0166689Y0282701D01*
X0166658Y0282617D01*
X0166623Y0282535D01*
X0166585Y0282455D01*
X0166543Y0282376D01*
X0166498Y0282300D01*
X0166449Y0282225D01*
X0166397Y0282153D01*
X0166342Y0282083D01*
X0166283Y0282015D01*
X0166222Y0281951D01*
X0166158Y0281889D01*
X0166091Y0281830D01*
X0166022Y0281774D01*
X0165950Y0281721D01*
X0165876Y0281671D01*
X0165800Y0281625D01*
X0165722Y0281582D01*
X0165642Y0281543D01*
X0165560Y0281507D01*
X0165477Y0281475D01*
X0165393Y0281447D01*
X0165307Y0281422D01*
X0165220Y0281402D01*
X0165133Y0281385D01*
X0165044Y0281372D01*
X0164956Y0281363D01*
X0164867Y0281358D01*
X0164778Y0281357D01*
X0164689Y0281360D01*
X0164600Y0281367D01*
X0164511Y0281378D01*
X0164423Y0281393D01*
X0164336Y0281411D01*
X0164250Y0281434D01*
X0164165Y0281460D01*
X0164081Y0281491D01*
X0163999Y0281525D01*
X0163918Y0281562D01*
X0163839Y0281603D01*
X0163762Y0281648D01*
X0163687Y0281696D01*
X0163614Y0281747D01*
X0163543Y0281801D01*
X0163475Y0281859D01*
X0163410Y0281919D01*
X0163347Y0281983D01*
X0163287Y0282049D01*
X0163230Y0282118D01*
X0163177Y0282189D01*
X0163126Y0282262D01*
X0163079Y0282338D01*
X0163036Y0282415D01*
X0162995Y0282495D01*
X0162959Y0282576D01*
X0162926Y0282659D01*
X0162897Y0282743D01*
X0162871Y0282829D01*
X0162849Y0282915D01*
X0162832Y0283002D01*
X0162818Y0283090D01*
X0162808Y0283179D01*
X0162802Y0283268D01*
X0162800Y0283357D01*
X0163800Y0297003D02*
X0168070Y0297003D01*
X0169257Y0301665D02*
X0170324Y0301665D01*
X0171392Y0302732D01*
X0171392Y0308070D01*
X0171392Y0303800D02*
X0168189Y0303800D01*
X0167121Y0304868D01*
X0167121Y0308070D01*
X0163892Y0310205D02*
X0163892Y0303800D01*
X0162824Y0303800D02*
X0164960Y0303800D01*
X0160649Y0304868D02*
X0160649Y0307003D01*
X0159582Y0308070D01*
X0157447Y0308070D01*
X0156379Y0307003D01*
X0156379Y0304868D01*
X0157447Y0303800D01*
X0159582Y0303800D01*
X0160649Y0304868D01*
X0154204Y0307003D02*
X0153136Y0305935D01*
X0149933Y0305935D01*
X0149933Y0303800D02*
X0149933Y0310205D01*
X0153136Y0310205D01*
X0154204Y0309138D01*
X0154204Y0307003D01*
X0162824Y0310205D02*
X0163892Y0310205D01*
X0180012Y0310205D02*
X0180012Y0304868D01*
X0181080Y0303800D01*
X0183215Y0303800D01*
X0184283Y0304868D01*
X0184283Y0310205D01*
X0186458Y0310205D02*
X0189661Y0310205D01*
X0190728Y0309138D01*
X0190728Y0307003D01*
X0189661Y0305935D01*
X0186458Y0305935D01*
X0186458Y0303800D02*
X0186458Y0310205D01*
X0192903Y0309138D02*
X0192903Y0304868D01*
X0193971Y0303800D01*
X0196106Y0303800D01*
X0197174Y0304868D01*
X0197174Y0309138D01*
X0196106Y0310205D01*
X0193971Y0310205D01*
X0192903Y0309138D01*
X0188593Y0305935D02*
X0190728Y0303800D01*
X0199349Y0305935D02*
X0199349Y0310205D01*
X0203619Y0310205D02*
X0203619Y0305935D01*
X0201484Y0303800D01*
X0199349Y0305935D01*
X0207844Y0300205D02*
X0207844Y0293800D01*
X0207844Y0297003D02*
X0212115Y0297003D01*
X0214290Y0297003D02*
X0215357Y0298070D01*
X0217492Y0298070D01*
X0218560Y0297003D01*
X0218560Y0294868D01*
X0217492Y0293800D01*
X0215357Y0293800D01*
X0214290Y0294868D01*
X0214290Y0297003D01*
X0212115Y0300205D02*
X0212115Y0293800D01*
X0220735Y0293800D02*
X0223938Y0293800D01*
X0225006Y0294868D01*
X0223938Y0295935D01*
X0221803Y0295935D01*
X0220735Y0297003D01*
X0221803Y0298070D01*
X0225006Y0298070D01*
X0227181Y0298070D02*
X0229316Y0298070D01*
X0228248Y0299138D02*
X0228248Y0294868D01*
X0229316Y0293800D01*
X0231478Y0293800D02*
X0233613Y0293800D01*
X0232545Y0293800D02*
X0232545Y0300205D01*
X0231478Y0300205D01*
X0232644Y0303800D02*
X0231576Y0304868D01*
X0231576Y0307003D01*
X0232644Y0308070D01*
X0234779Y0308070D01*
X0235847Y0307003D01*
X0235847Y0305935D01*
X0231576Y0305935D01*
X0232644Y0303800D02*
X0234779Y0303800D01*
X0238022Y0303800D02*
X0238022Y0308070D01*
X0238022Y0305935D02*
X0240157Y0308070D01*
X0241225Y0308070D01*
X0249839Y0307003D02*
X0253041Y0307003D01*
X0254109Y0305935D01*
X0254109Y0304868D01*
X0253041Y0303800D01*
X0249839Y0303800D01*
X0249839Y0310205D01*
X0253041Y0310205D01*
X0254109Y0309138D01*
X0254109Y0308070D01*
X0253041Y0307003D01*
X0256284Y0307003D02*
X0256284Y0304868D01*
X0257352Y0303800D01*
X0259487Y0303800D01*
X0260555Y0304868D01*
X0260555Y0307003D01*
X0259487Y0308070D01*
X0257352Y0308070D01*
X0256284Y0307003D01*
X0262730Y0304868D02*
X0263797Y0305935D01*
X0267000Y0305935D01*
X0267000Y0307003D02*
X0267000Y0303800D01*
X0263797Y0303800D01*
X0262730Y0304868D01*
X0263797Y0308070D02*
X0265932Y0308070D01*
X0267000Y0307003D01*
X0269175Y0308070D02*
X0269175Y0303800D01*
X0269175Y0305935D02*
X0271310Y0308070D01*
X0272378Y0308070D01*
X0274546Y0307003D02*
X0275614Y0308070D01*
X0278817Y0308070D01*
X0278817Y0310205D02*
X0278817Y0303800D01*
X0275614Y0303800D01*
X0274546Y0304868D01*
X0274546Y0307003D01*
X0287437Y0305935D02*
X0289573Y0303800D01*
X0291708Y0305935D01*
X0291708Y0310205D01*
X0293883Y0308070D02*
X0296018Y0310205D01*
X0296018Y0303800D01*
X0293883Y0303800D02*
X0298153Y0303800D01*
X0300328Y0303800D02*
X0301396Y0303800D01*
X0301396Y0304868D01*
X0300328Y0304868D01*
X0300328Y0303800D01*
X0303551Y0303800D02*
X0307821Y0308070D01*
X0307821Y0309138D01*
X0306754Y0310205D01*
X0304619Y0310205D01*
X0303551Y0309138D01*
X0303551Y0303800D02*
X0307821Y0303800D01*
X0287437Y0305935D02*
X0287437Y0310205D01*
X0245423Y0298070D02*
X0244355Y0298070D01*
X0242220Y0295935D01*
X0242220Y0293800D02*
X0242220Y0298070D01*
X0240045Y0297003D02*
X0240045Y0295935D01*
X0235775Y0295935D01*
X0235775Y0294868D02*
X0235775Y0297003D01*
X0236842Y0298070D01*
X0238977Y0298070D01*
X0240045Y0297003D01*
X0238977Y0293800D02*
X0236842Y0293800D01*
X0235775Y0294868D01*
X0228334Y0303800D02*
X0229401Y0304868D01*
X0229401Y0308070D01*
X0227266Y0304868D02*
X0228334Y0303800D01*
X0227266Y0304868D02*
X0226199Y0303800D01*
X0225131Y0304868D01*
X0225131Y0308070D01*
X0222956Y0307003D02*
X0222956Y0304868D01*
X0221888Y0303800D01*
X0219753Y0303800D01*
X0218685Y0304868D01*
X0218685Y0307003D01*
X0219753Y0308070D01*
X0221888Y0308070D01*
X0222956Y0307003D01*
X0216510Y0307003D02*
X0215443Y0305935D01*
X0212240Y0305935D01*
X0212240Y0303800D02*
X0212240Y0310205D01*
X0215443Y0310205D01*
X0216510Y0309138D01*
X0216510Y0307003D01*
X0183136Y0298070D02*
X0183136Y0293800D01*
X0141326Y0303800D02*
X0139191Y0303800D01*
X0140259Y0303800D02*
X0140259Y0310205D01*
X0139191Y0310205D01*
X0137016Y0307003D02*
X0137016Y0303800D01*
X0133813Y0303800D01*
X0132745Y0304868D01*
X0133813Y0305935D01*
X0137016Y0305935D01*
X0137016Y0307003D02*
X0135948Y0308070D01*
X0133813Y0308070D01*
X0130570Y0309138D02*
X0129503Y0310205D01*
X0127368Y0310205D01*
X0126300Y0309138D01*
X0126300Y0304868D01*
X0127368Y0303800D01*
X0129503Y0303800D01*
X0130570Y0304868D01*
X0162800Y0243357D02*
X0162802Y0243446D01*
X0162808Y0243535D01*
X0162818Y0243624D01*
X0162832Y0243712D01*
X0162849Y0243799D01*
X0162871Y0243885D01*
X0162897Y0243971D01*
X0162926Y0244055D01*
X0162959Y0244138D01*
X0162995Y0244219D01*
X0163036Y0244299D01*
X0163079Y0244376D01*
X0163126Y0244452D01*
X0163177Y0244525D01*
X0163230Y0244596D01*
X0163287Y0244665D01*
X0163347Y0244731D01*
X0163410Y0244795D01*
X0163475Y0244855D01*
X0163543Y0244913D01*
X0163614Y0244967D01*
X0163687Y0245018D01*
X0163762Y0245066D01*
X0163839Y0245111D01*
X0163918Y0245152D01*
X0163999Y0245189D01*
X0164081Y0245223D01*
X0164165Y0245254D01*
X0164250Y0245280D01*
X0164336Y0245303D01*
X0164423Y0245321D01*
X0164511Y0245336D01*
X0164600Y0245347D01*
X0164689Y0245354D01*
X0164778Y0245357D01*
X0164867Y0245356D01*
X0164956Y0245351D01*
X0165044Y0245342D01*
X0165133Y0245329D01*
X0165220Y0245312D01*
X0165307Y0245292D01*
X0165393Y0245267D01*
X0165477Y0245239D01*
X0165560Y0245207D01*
X0165642Y0245171D01*
X0165722Y0245132D01*
X0165800Y0245089D01*
X0165876Y0245043D01*
X0165950Y0244993D01*
X0166022Y0244940D01*
X0166091Y0244884D01*
X0166158Y0244825D01*
X0166222Y0244763D01*
X0166283Y0244699D01*
X0166342Y0244631D01*
X0166397Y0244561D01*
X0166449Y0244489D01*
X0166498Y0244414D01*
X0166543Y0244338D01*
X0166585Y0244259D01*
X0166623Y0244179D01*
X0166658Y0244097D01*
X0166689Y0244013D01*
X0166717Y0243928D01*
X0166740Y0243842D01*
X0166760Y0243755D01*
X0166776Y0243668D01*
X0166788Y0243579D01*
X0166796Y0243491D01*
X0166800Y0243402D01*
X0166800Y0243312D01*
X0166796Y0243223D01*
X0166788Y0243135D01*
X0166776Y0243046D01*
X0166760Y0242959D01*
X0166740Y0242872D01*
X0166717Y0242786D01*
X0166689Y0242701D01*
X0166658Y0242617D01*
X0166623Y0242535D01*
X0166585Y0242455D01*
X0166543Y0242376D01*
X0166498Y0242300D01*
X0166449Y0242225D01*
X0166397Y0242153D01*
X0166342Y0242083D01*
X0166283Y0242015D01*
X0166222Y0241951D01*
X0166158Y0241889D01*
X0166091Y0241830D01*
X0166022Y0241774D01*
X0165950Y0241721D01*
X0165876Y0241671D01*
X0165800Y0241625D01*
X0165722Y0241582D01*
X0165642Y0241543D01*
X0165560Y0241507D01*
X0165477Y0241475D01*
X0165393Y0241447D01*
X0165307Y0241422D01*
X0165220Y0241402D01*
X0165133Y0241385D01*
X0165044Y0241372D01*
X0164956Y0241363D01*
X0164867Y0241358D01*
X0164778Y0241357D01*
X0164689Y0241360D01*
X0164600Y0241367D01*
X0164511Y0241378D01*
X0164423Y0241393D01*
X0164336Y0241411D01*
X0164250Y0241434D01*
X0164165Y0241460D01*
X0164081Y0241491D01*
X0163999Y0241525D01*
X0163918Y0241562D01*
X0163839Y0241603D01*
X0163762Y0241648D01*
X0163687Y0241696D01*
X0163614Y0241747D01*
X0163543Y0241801D01*
X0163475Y0241859D01*
X0163410Y0241919D01*
X0163347Y0241983D01*
X0163287Y0242049D01*
X0163230Y0242118D01*
X0163177Y0242189D01*
X0163126Y0242262D01*
X0163079Y0242338D01*
X0163036Y0242415D01*
X0162995Y0242495D01*
X0162959Y0242576D01*
X0162926Y0242659D01*
X0162897Y0242743D01*
X0162871Y0242829D01*
X0162849Y0242915D01*
X0162832Y0243002D01*
X0162818Y0243090D01*
X0162808Y0243179D01*
X0162802Y0243268D01*
X0162800Y0243357D01*
X0159598Y0213157D02*
X0158799Y0213157D01*
X0162800Y0203357D02*
X0162802Y0203446D01*
X0162808Y0203535D01*
X0162818Y0203624D01*
X0162832Y0203712D01*
X0162849Y0203799D01*
X0162871Y0203885D01*
X0162897Y0203971D01*
X0162926Y0204055D01*
X0162959Y0204138D01*
X0162995Y0204219D01*
X0163036Y0204299D01*
X0163079Y0204376D01*
X0163126Y0204452D01*
X0163177Y0204525D01*
X0163230Y0204596D01*
X0163287Y0204665D01*
X0163347Y0204731D01*
X0163410Y0204795D01*
X0163475Y0204855D01*
X0163543Y0204913D01*
X0163614Y0204967D01*
X0163687Y0205018D01*
X0163762Y0205066D01*
X0163839Y0205111D01*
X0163918Y0205152D01*
X0163999Y0205189D01*
X0164081Y0205223D01*
X0164165Y0205254D01*
X0164250Y0205280D01*
X0164336Y0205303D01*
X0164423Y0205321D01*
X0164511Y0205336D01*
X0164600Y0205347D01*
X0164689Y0205354D01*
X0164778Y0205357D01*
X0164867Y0205356D01*
X0164956Y0205351D01*
X0165044Y0205342D01*
X0165133Y0205329D01*
X0165220Y0205312D01*
X0165307Y0205292D01*
X0165393Y0205267D01*
X0165477Y0205239D01*
X0165560Y0205207D01*
X0165642Y0205171D01*
X0165722Y0205132D01*
X0165800Y0205089D01*
X0165876Y0205043D01*
X0165950Y0204993D01*
X0166022Y0204940D01*
X0166091Y0204884D01*
X0166158Y0204825D01*
X0166222Y0204763D01*
X0166283Y0204699D01*
X0166342Y0204631D01*
X0166397Y0204561D01*
X0166449Y0204489D01*
X0166498Y0204414D01*
X0166543Y0204338D01*
X0166585Y0204259D01*
X0166623Y0204179D01*
X0166658Y0204097D01*
X0166689Y0204013D01*
X0166717Y0203928D01*
X0166740Y0203842D01*
X0166760Y0203755D01*
X0166776Y0203668D01*
X0166788Y0203579D01*
X0166796Y0203491D01*
X0166800Y0203402D01*
X0166800Y0203312D01*
X0166796Y0203223D01*
X0166788Y0203135D01*
X0166776Y0203046D01*
X0166760Y0202959D01*
X0166740Y0202872D01*
X0166717Y0202786D01*
X0166689Y0202701D01*
X0166658Y0202617D01*
X0166623Y0202535D01*
X0166585Y0202455D01*
X0166543Y0202376D01*
X0166498Y0202300D01*
X0166449Y0202225D01*
X0166397Y0202153D01*
X0166342Y0202083D01*
X0166283Y0202015D01*
X0166222Y0201951D01*
X0166158Y0201889D01*
X0166091Y0201830D01*
X0166022Y0201774D01*
X0165950Y0201721D01*
X0165876Y0201671D01*
X0165800Y0201625D01*
X0165722Y0201582D01*
X0165642Y0201543D01*
X0165560Y0201507D01*
X0165477Y0201475D01*
X0165393Y0201447D01*
X0165307Y0201422D01*
X0165220Y0201402D01*
X0165133Y0201385D01*
X0165044Y0201372D01*
X0164956Y0201363D01*
X0164867Y0201358D01*
X0164778Y0201357D01*
X0164689Y0201360D01*
X0164600Y0201367D01*
X0164511Y0201378D01*
X0164423Y0201393D01*
X0164336Y0201411D01*
X0164250Y0201434D01*
X0164165Y0201460D01*
X0164081Y0201491D01*
X0163999Y0201525D01*
X0163918Y0201562D01*
X0163839Y0201603D01*
X0163762Y0201648D01*
X0163687Y0201696D01*
X0163614Y0201747D01*
X0163543Y0201801D01*
X0163475Y0201859D01*
X0163410Y0201919D01*
X0163347Y0201983D01*
X0163287Y0202049D01*
X0163230Y0202118D01*
X0163177Y0202189D01*
X0163126Y0202262D01*
X0163079Y0202338D01*
X0163036Y0202415D01*
X0162995Y0202495D01*
X0162959Y0202576D01*
X0162926Y0202659D01*
X0162897Y0202743D01*
X0162871Y0202829D01*
X0162849Y0202915D01*
X0162832Y0203002D01*
X0162818Y0203090D01*
X0162808Y0203179D01*
X0162802Y0203268D01*
X0162800Y0203357D01*
X0162800Y0183657D02*
X0162802Y0183746D01*
X0162808Y0183835D01*
X0162818Y0183924D01*
X0162832Y0184012D01*
X0162849Y0184099D01*
X0162871Y0184185D01*
X0162897Y0184271D01*
X0162926Y0184355D01*
X0162959Y0184438D01*
X0162995Y0184519D01*
X0163036Y0184599D01*
X0163079Y0184676D01*
X0163126Y0184752D01*
X0163177Y0184825D01*
X0163230Y0184896D01*
X0163287Y0184965D01*
X0163347Y0185031D01*
X0163410Y0185095D01*
X0163475Y0185155D01*
X0163543Y0185213D01*
X0163614Y0185267D01*
X0163687Y0185318D01*
X0163762Y0185366D01*
X0163839Y0185411D01*
X0163918Y0185452D01*
X0163999Y0185489D01*
X0164081Y0185523D01*
X0164165Y0185554D01*
X0164250Y0185580D01*
X0164336Y0185603D01*
X0164423Y0185621D01*
X0164511Y0185636D01*
X0164600Y0185647D01*
X0164689Y0185654D01*
X0164778Y0185657D01*
X0164867Y0185656D01*
X0164956Y0185651D01*
X0165044Y0185642D01*
X0165133Y0185629D01*
X0165220Y0185612D01*
X0165307Y0185592D01*
X0165393Y0185567D01*
X0165477Y0185539D01*
X0165560Y0185507D01*
X0165642Y0185471D01*
X0165722Y0185432D01*
X0165800Y0185389D01*
X0165876Y0185343D01*
X0165950Y0185293D01*
X0166022Y0185240D01*
X0166091Y0185184D01*
X0166158Y0185125D01*
X0166222Y0185063D01*
X0166283Y0184999D01*
X0166342Y0184931D01*
X0166397Y0184861D01*
X0166449Y0184789D01*
X0166498Y0184714D01*
X0166543Y0184638D01*
X0166585Y0184559D01*
X0166623Y0184479D01*
X0166658Y0184397D01*
X0166689Y0184313D01*
X0166717Y0184228D01*
X0166740Y0184142D01*
X0166760Y0184055D01*
X0166776Y0183968D01*
X0166788Y0183879D01*
X0166796Y0183791D01*
X0166800Y0183702D01*
X0166800Y0183612D01*
X0166796Y0183523D01*
X0166788Y0183435D01*
X0166776Y0183346D01*
X0166760Y0183259D01*
X0166740Y0183172D01*
X0166717Y0183086D01*
X0166689Y0183001D01*
X0166658Y0182917D01*
X0166623Y0182835D01*
X0166585Y0182755D01*
X0166543Y0182676D01*
X0166498Y0182600D01*
X0166449Y0182525D01*
X0166397Y0182453D01*
X0166342Y0182383D01*
X0166283Y0182315D01*
X0166222Y0182251D01*
X0166158Y0182189D01*
X0166091Y0182130D01*
X0166022Y0182074D01*
X0165950Y0182021D01*
X0165876Y0181971D01*
X0165800Y0181925D01*
X0165722Y0181882D01*
X0165642Y0181843D01*
X0165560Y0181807D01*
X0165477Y0181775D01*
X0165393Y0181747D01*
X0165307Y0181722D01*
X0165220Y0181702D01*
X0165133Y0181685D01*
X0165044Y0181672D01*
X0164956Y0181663D01*
X0164867Y0181658D01*
X0164778Y0181657D01*
X0164689Y0181660D01*
X0164600Y0181667D01*
X0164511Y0181678D01*
X0164423Y0181693D01*
X0164336Y0181711D01*
X0164250Y0181734D01*
X0164165Y0181760D01*
X0164081Y0181791D01*
X0163999Y0181825D01*
X0163918Y0181862D01*
X0163839Y0181903D01*
X0163762Y0181948D01*
X0163687Y0181996D01*
X0163614Y0182047D01*
X0163543Y0182101D01*
X0163475Y0182159D01*
X0163410Y0182219D01*
X0163347Y0182283D01*
X0163287Y0182349D01*
X0163230Y0182418D01*
X0163177Y0182489D01*
X0163126Y0182562D01*
X0163079Y0182638D01*
X0163036Y0182715D01*
X0162995Y0182795D01*
X0162959Y0182876D01*
X0162926Y0182959D01*
X0162897Y0183043D01*
X0162871Y0183129D01*
X0162849Y0183215D01*
X0162832Y0183302D01*
X0162818Y0183390D01*
X0162808Y0183479D01*
X0162802Y0183568D01*
X0162800Y0183657D01*
X0162800Y0163357D02*
X0162802Y0163446D01*
X0162808Y0163535D01*
X0162818Y0163624D01*
X0162832Y0163712D01*
X0162849Y0163799D01*
X0162871Y0163885D01*
X0162897Y0163971D01*
X0162926Y0164055D01*
X0162959Y0164138D01*
X0162995Y0164219D01*
X0163036Y0164299D01*
X0163079Y0164376D01*
X0163126Y0164452D01*
X0163177Y0164525D01*
X0163230Y0164596D01*
X0163287Y0164665D01*
X0163347Y0164731D01*
X0163410Y0164795D01*
X0163475Y0164855D01*
X0163543Y0164913D01*
X0163614Y0164967D01*
X0163687Y0165018D01*
X0163762Y0165066D01*
X0163839Y0165111D01*
X0163918Y0165152D01*
X0163999Y0165189D01*
X0164081Y0165223D01*
X0164165Y0165254D01*
X0164250Y0165280D01*
X0164336Y0165303D01*
X0164423Y0165321D01*
X0164511Y0165336D01*
X0164600Y0165347D01*
X0164689Y0165354D01*
X0164778Y0165357D01*
X0164867Y0165356D01*
X0164956Y0165351D01*
X0165044Y0165342D01*
X0165133Y0165329D01*
X0165220Y0165312D01*
X0165307Y0165292D01*
X0165393Y0165267D01*
X0165477Y0165239D01*
X0165560Y0165207D01*
X0165642Y0165171D01*
X0165722Y0165132D01*
X0165800Y0165089D01*
X0165876Y0165043D01*
X0165950Y0164993D01*
X0166022Y0164940D01*
X0166091Y0164884D01*
X0166158Y0164825D01*
X0166222Y0164763D01*
X0166283Y0164699D01*
X0166342Y0164631D01*
X0166397Y0164561D01*
X0166449Y0164489D01*
X0166498Y0164414D01*
X0166543Y0164338D01*
X0166585Y0164259D01*
X0166623Y0164179D01*
X0166658Y0164097D01*
X0166689Y0164013D01*
X0166717Y0163928D01*
X0166740Y0163842D01*
X0166760Y0163755D01*
X0166776Y0163668D01*
X0166788Y0163579D01*
X0166796Y0163491D01*
X0166800Y0163402D01*
X0166800Y0163312D01*
X0166796Y0163223D01*
X0166788Y0163135D01*
X0166776Y0163046D01*
X0166760Y0162959D01*
X0166740Y0162872D01*
X0166717Y0162786D01*
X0166689Y0162701D01*
X0166658Y0162617D01*
X0166623Y0162535D01*
X0166585Y0162455D01*
X0166543Y0162376D01*
X0166498Y0162300D01*
X0166449Y0162225D01*
X0166397Y0162153D01*
X0166342Y0162083D01*
X0166283Y0162015D01*
X0166222Y0161951D01*
X0166158Y0161889D01*
X0166091Y0161830D01*
X0166022Y0161774D01*
X0165950Y0161721D01*
X0165876Y0161671D01*
X0165800Y0161625D01*
X0165722Y0161582D01*
X0165642Y0161543D01*
X0165560Y0161507D01*
X0165477Y0161475D01*
X0165393Y0161447D01*
X0165307Y0161422D01*
X0165220Y0161402D01*
X0165133Y0161385D01*
X0165044Y0161372D01*
X0164956Y0161363D01*
X0164867Y0161358D01*
X0164778Y0161357D01*
X0164689Y0161360D01*
X0164600Y0161367D01*
X0164511Y0161378D01*
X0164423Y0161393D01*
X0164336Y0161411D01*
X0164250Y0161434D01*
X0164165Y0161460D01*
X0164081Y0161491D01*
X0163999Y0161525D01*
X0163918Y0161562D01*
X0163839Y0161603D01*
X0163762Y0161648D01*
X0163687Y0161696D01*
X0163614Y0161747D01*
X0163543Y0161801D01*
X0163475Y0161859D01*
X0163410Y0161919D01*
X0163347Y0161983D01*
X0163287Y0162049D01*
X0163230Y0162118D01*
X0163177Y0162189D01*
X0163126Y0162262D01*
X0163079Y0162338D01*
X0163036Y0162415D01*
X0162995Y0162495D01*
X0162959Y0162576D01*
X0162926Y0162659D01*
X0162897Y0162743D01*
X0162871Y0162829D01*
X0162849Y0162915D01*
X0162832Y0163002D01*
X0162818Y0163090D01*
X0162808Y0163179D01*
X0162802Y0163268D01*
X0162800Y0163357D01*
X0162800Y0143657D02*
X0162802Y0143746D01*
X0162808Y0143835D01*
X0162818Y0143924D01*
X0162832Y0144012D01*
X0162849Y0144099D01*
X0162871Y0144185D01*
X0162897Y0144271D01*
X0162926Y0144355D01*
X0162959Y0144438D01*
X0162995Y0144519D01*
X0163036Y0144599D01*
X0163079Y0144676D01*
X0163126Y0144752D01*
X0163177Y0144825D01*
X0163230Y0144896D01*
X0163287Y0144965D01*
X0163347Y0145031D01*
X0163410Y0145095D01*
X0163475Y0145155D01*
X0163543Y0145213D01*
X0163614Y0145267D01*
X0163687Y0145318D01*
X0163762Y0145366D01*
X0163839Y0145411D01*
X0163918Y0145452D01*
X0163999Y0145489D01*
X0164081Y0145523D01*
X0164165Y0145554D01*
X0164250Y0145580D01*
X0164336Y0145603D01*
X0164423Y0145621D01*
X0164511Y0145636D01*
X0164600Y0145647D01*
X0164689Y0145654D01*
X0164778Y0145657D01*
X0164867Y0145656D01*
X0164956Y0145651D01*
X0165044Y0145642D01*
X0165133Y0145629D01*
X0165220Y0145612D01*
X0165307Y0145592D01*
X0165393Y0145567D01*
X0165477Y0145539D01*
X0165560Y0145507D01*
X0165642Y0145471D01*
X0165722Y0145432D01*
X0165800Y0145389D01*
X0165876Y0145343D01*
X0165950Y0145293D01*
X0166022Y0145240D01*
X0166091Y0145184D01*
X0166158Y0145125D01*
X0166222Y0145063D01*
X0166283Y0144999D01*
X0166342Y0144931D01*
X0166397Y0144861D01*
X0166449Y0144789D01*
X0166498Y0144714D01*
X0166543Y0144638D01*
X0166585Y0144559D01*
X0166623Y0144479D01*
X0166658Y0144397D01*
X0166689Y0144313D01*
X0166717Y0144228D01*
X0166740Y0144142D01*
X0166760Y0144055D01*
X0166776Y0143968D01*
X0166788Y0143879D01*
X0166796Y0143791D01*
X0166800Y0143702D01*
X0166800Y0143612D01*
X0166796Y0143523D01*
X0166788Y0143435D01*
X0166776Y0143346D01*
X0166760Y0143259D01*
X0166740Y0143172D01*
X0166717Y0143086D01*
X0166689Y0143001D01*
X0166658Y0142917D01*
X0166623Y0142835D01*
X0166585Y0142755D01*
X0166543Y0142676D01*
X0166498Y0142600D01*
X0166449Y0142525D01*
X0166397Y0142453D01*
X0166342Y0142383D01*
X0166283Y0142315D01*
X0166222Y0142251D01*
X0166158Y0142189D01*
X0166091Y0142130D01*
X0166022Y0142074D01*
X0165950Y0142021D01*
X0165876Y0141971D01*
X0165800Y0141925D01*
X0165722Y0141882D01*
X0165642Y0141843D01*
X0165560Y0141807D01*
X0165477Y0141775D01*
X0165393Y0141747D01*
X0165307Y0141722D01*
X0165220Y0141702D01*
X0165133Y0141685D01*
X0165044Y0141672D01*
X0164956Y0141663D01*
X0164867Y0141658D01*
X0164778Y0141657D01*
X0164689Y0141660D01*
X0164600Y0141667D01*
X0164511Y0141678D01*
X0164423Y0141693D01*
X0164336Y0141711D01*
X0164250Y0141734D01*
X0164165Y0141760D01*
X0164081Y0141791D01*
X0163999Y0141825D01*
X0163918Y0141862D01*
X0163839Y0141903D01*
X0163762Y0141948D01*
X0163687Y0141996D01*
X0163614Y0142047D01*
X0163543Y0142101D01*
X0163475Y0142159D01*
X0163410Y0142219D01*
X0163347Y0142283D01*
X0163287Y0142349D01*
X0163230Y0142418D01*
X0163177Y0142489D01*
X0163126Y0142562D01*
X0163079Y0142638D01*
X0163036Y0142715D01*
X0162995Y0142795D01*
X0162959Y0142876D01*
X0162926Y0142959D01*
X0162897Y0143043D01*
X0162871Y0143129D01*
X0162849Y0143215D01*
X0162832Y0143302D01*
X0162818Y0143390D01*
X0162808Y0143479D01*
X0162802Y0143568D01*
X0162800Y0143657D01*
X0162800Y0123357D02*
X0162802Y0123446D01*
X0162808Y0123535D01*
X0162818Y0123624D01*
X0162832Y0123712D01*
X0162849Y0123799D01*
X0162871Y0123885D01*
X0162897Y0123971D01*
X0162926Y0124055D01*
X0162959Y0124138D01*
X0162995Y0124219D01*
X0163036Y0124299D01*
X0163079Y0124376D01*
X0163126Y0124452D01*
X0163177Y0124525D01*
X0163230Y0124596D01*
X0163287Y0124665D01*
X0163347Y0124731D01*
X0163410Y0124795D01*
X0163475Y0124855D01*
X0163543Y0124913D01*
X0163614Y0124967D01*
X0163687Y0125018D01*
X0163762Y0125066D01*
X0163839Y0125111D01*
X0163918Y0125152D01*
X0163999Y0125189D01*
X0164081Y0125223D01*
X0164165Y0125254D01*
X0164250Y0125280D01*
X0164336Y0125303D01*
X0164423Y0125321D01*
X0164511Y0125336D01*
X0164600Y0125347D01*
X0164689Y0125354D01*
X0164778Y0125357D01*
X0164867Y0125356D01*
X0164956Y0125351D01*
X0165044Y0125342D01*
X0165133Y0125329D01*
X0165220Y0125312D01*
X0165307Y0125292D01*
X0165393Y0125267D01*
X0165477Y0125239D01*
X0165560Y0125207D01*
X0165642Y0125171D01*
X0165722Y0125132D01*
X0165800Y0125089D01*
X0165876Y0125043D01*
X0165950Y0124993D01*
X0166022Y0124940D01*
X0166091Y0124884D01*
X0166158Y0124825D01*
X0166222Y0124763D01*
X0166283Y0124699D01*
X0166342Y0124631D01*
X0166397Y0124561D01*
X0166449Y0124489D01*
X0166498Y0124414D01*
X0166543Y0124338D01*
X0166585Y0124259D01*
X0166623Y0124179D01*
X0166658Y0124097D01*
X0166689Y0124013D01*
X0166717Y0123928D01*
X0166740Y0123842D01*
X0166760Y0123755D01*
X0166776Y0123668D01*
X0166788Y0123579D01*
X0166796Y0123491D01*
X0166800Y0123402D01*
X0166800Y0123312D01*
X0166796Y0123223D01*
X0166788Y0123135D01*
X0166776Y0123046D01*
X0166760Y0122959D01*
X0166740Y0122872D01*
X0166717Y0122786D01*
X0166689Y0122701D01*
X0166658Y0122617D01*
X0166623Y0122535D01*
X0166585Y0122455D01*
X0166543Y0122376D01*
X0166498Y0122300D01*
X0166449Y0122225D01*
X0166397Y0122153D01*
X0166342Y0122083D01*
X0166283Y0122015D01*
X0166222Y0121951D01*
X0166158Y0121889D01*
X0166091Y0121830D01*
X0166022Y0121774D01*
X0165950Y0121721D01*
X0165876Y0121671D01*
X0165800Y0121625D01*
X0165722Y0121582D01*
X0165642Y0121543D01*
X0165560Y0121507D01*
X0165477Y0121475D01*
X0165393Y0121447D01*
X0165307Y0121422D01*
X0165220Y0121402D01*
X0165133Y0121385D01*
X0165044Y0121372D01*
X0164956Y0121363D01*
X0164867Y0121358D01*
X0164778Y0121357D01*
X0164689Y0121360D01*
X0164600Y0121367D01*
X0164511Y0121378D01*
X0164423Y0121393D01*
X0164336Y0121411D01*
X0164250Y0121434D01*
X0164165Y0121460D01*
X0164081Y0121491D01*
X0163999Y0121525D01*
X0163918Y0121562D01*
X0163839Y0121603D01*
X0163762Y0121648D01*
X0163687Y0121696D01*
X0163614Y0121747D01*
X0163543Y0121801D01*
X0163475Y0121859D01*
X0163410Y0121919D01*
X0163347Y0121983D01*
X0163287Y0122049D01*
X0163230Y0122118D01*
X0163177Y0122189D01*
X0163126Y0122262D01*
X0163079Y0122338D01*
X0163036Y0122415D01*
X0162995Y0122495D01*
X0162959Y0122576D01*
X0162926Y0122659D01*
X0162897Y0122743D01*
X0162871Y0122829D01*
X0162849Y0122915D01*
X0162832Y0123002D01*
X0162818Y0123090D01*
X0162808Y0123179D01*
X0162802Y0123268D01*
X0162800Y0123357D01*
X0200300Y0123357D02*
X0200302Y0123446D01*
X0200308Y0123535D01*
X0200318Y0123624D01*
X0200332Y0123712D01*
X0200349Y0123799D01*
X0200371Y0123885D01*
X0200397Y0123971D01*
X0200426Y0124055D01*
X0200459Y0124138D01*
X0200495Y0124219D01*
X0200536Y0124299D01*
X0200579Y0124376D01*
X0200626Y0124452D01*
X0200677Y0124525D01*
X0200730Y0124596D01*
X0200787Y0124665D01*
X0200847Y0124731D01*
X0200910Y0124795D01*
X0200975Y0124855D01*
X0201043Y0124913D01*
X0201114Y0124967D01*
X0201187Y0125018D01*
X0201262Y0125066D01*
X0201339Y0125111D01*
X0201418Y0125152D01*
X0201499Y0125189D01*
X0201581Y0125223D01*
X0201665Y0125254D01*
X0201750Y0125280D01*
X0201836Y0125303D01*
X0201923Y0125321D01*
X0202011Y0125336D01*
X0202100Y0125347D01*
X0202189Y0125354D01*
X0202278Y0125357D01*
X0202367Y0125356D01*
X0202456Y0125351D01*
X0202544Y0125342D01*
X0202633Y0125329D01*
X0202720Y0125312D01*
X0202807Y0125292D01*
X0202893Y0125267D01*
X0202977Y0125239D01*
X0203060Y0125207D01*
X0203142Y0125171D01*
X0203222Y0125132D01*
X0203300Y0125089D01*
X0203376Y0125043D01*
X0203450Y0124993D01*
X0203522Y0124940D01*
X0203591Y0124884D01*
X0203658Y0124825D01*
X0203722Y0124763D01*
X0203783Y0124699D01*
X0203842Y0124631D01*
X0203897Y0124561D01*
X0203949Y0124489D01*
X0203998Y0124414D01*
X0204043Y0124338D01*
X0204085Y0124259D01*
X0204123Y0124179D01*
X0204158Y0124097D01*
X0204189Y0124013D01*
X0204217Y0123928D01*
X0204240Y0123842D01*
X0204260Y0123755D01*
X0204276Y0123668D01*
X0204288Y0123579D01*
X0204296Y0123491D01*
X0204300Y0123402D01*
X0204300Y0123312D01*
X0204296Y0123223D01*
X0204288Y0123135D01*
X0204276Y0123046D01*
X0204260Y0122959D01*
X0204240Y0122872D01*
X0204217Y0122786D01*
X0204189Y0122701D01*
X0204158Y0122617D01*
X0204123Y0122535D01*
X0204085Y0122455D01*
X0204043Y0122376D01*
X0203998Y0122300D01*
X0203949Y0122225D01*
X0203897Y0122153D01*
X0203842Y0122083D01*
X0203783Y0122015D01*
X0203722Y0121951D01*
X0203658Y0121889D01*
X0203591Y0121830D01*
X0203522Y0121774D01*
X0203450Y0121721D01*
X0203376Y0121671D01*
X0203300Y0121625D01*
X0203222Y0121582D01*
X0203142Y0121543D01*
X0203060Y0121507D01*
X0202977Y0121475D01*
X0202893Y0121447D01*
X0202807Y0121422D01*
X0202720Y0121402D01*
X0202633Y0121385D01*
X0202544Y0121372D01*
X0202456Y0121363D01*
X0202367Y0121358D01*
X0202278Y0121357D01*
X0202189Y0121360D01*
X0202100Y0121367D01*
X0202011Y0121378D01*
X0201923Y0121393D01*
X0201836Y0121411D01*
X0201750Y0121434D01*
X0201665Y0121460D01*
X0201581Y0121491D01*
X0201499Y0121525D01*
X0201418Y0121562D01*
X0201339Y0121603D01*
X0201262Y0121648D01*
X0201187Y0121696D01*
X0201114Y0121747D01*
X0201043Y0121801D01*
X0200975Y0121859D01*
X0200910Y0121919D01*
X0200847Y0121983D01*
X0200787Y0122049D01*
X0200730Y0122118D01*
X0200677Y0122189D01*
X0200626Y0122262D01*
X0200579Y0122338D01*
X0200536Y0122415D01*
X0200495Y0122495D01*
X0200459Y0122576D01*
X0200426Y0122659D01*
X0200397Y0122743D01*
X0200371Y0122829D01*
X0200349Y0122915D01*
X0200332Y0123002D01*
X0200318Y0123090D01*
X0200308Y0123179D01*
X0200302Y0123268D01*
X0200300Y0123357D01*
X0200300Y0143657D02*
X0200302Y0143746D01*
X0200308Y0143835D01*
X0200318Y0143924D01*
X0200332Y0144012D01*
X0200349Y0144099D01*
X0200371Y0144185D01*
X0200397Y0144271D01*
X0200426Y0144355D01*
X0200459Y0144438D01*
X0200495Y0144519D01*
X0200536Y0144599D01*
X0200579Y0144676D01*
X0200626Y0144752D01*
X0200677Y0144825D01*
X0200730Y0144896D01*
X0200787Y0144965D01*
X0200847Y0145031D01*
X0200910Y0145095D01*
X0200975Y0145155D01*
X0201043Y0145213D01*
X0201114Y0145267D01*
X0201187Y0145318D01*
X0201262Y0145366D01*
X0201339Y0145411D01*
X0201418Y0145452D01*
X0201499Y0145489D01*
X0201581Y0145523D01*
X0201665Y0145554D01*
X0201750Y0145580D01*
X0201836Y0145603D01*
X0201923Y0145621D01*
X0202011Y0145636D01*
X0202100Y0145647D01*
X0202189Y0145654D01*
X0202278Y0145657D01*
X0202367Y0145656D01*
X0202456Y0145651D01*
X0202544Y0145642D01*
X0202633Y0145629D01*
X0202720Y0145612D01*
X0202807Y0145592D01*
X0202893Y0145567D01*
X0202977Y0145539D01*
X0203060Y0145507D01*
X0203142Y0145471D01*
X0203222Y0145432D01*
X0203300Y0145389D01*
X0203376Y0145343D01*
X0203450Y0145293D01*
X0203522Y0145240D01*
X0203591Y0145184D01*
X0203658Y0145125D01*
X0203722Y0145063D01*
X0203783Y0144999D01*
X0203842Y0144931D01*
X0203897Y0144861D01*
X0203949Y0144789D01*
X0203998Y0144714D01*
X0204043Y0144638D01*
X0204085Y0144559D01*
X0204123Y0144479D01*
X0204158Y0144397D01*
X0204189Y0144313D01*
X0204217Y0144228D01*
X0204240Y0144142D01*
X0204260Y0144055D01*
X0204276Y0143968D01*
X0204288Y0143879D01*
X0204296Y0143791D01*
X0204300Y0143702D01*
X0204300Y0143612D01*
X0204296Y0143523D01*
X0204288Y0143435D01*
X0204276Y0143346D01*
X0204260Y0143259D01*
X0204240Y0143172D01*
X0204217Y0143086D01*
X0204189Y0143001D01*
X0204158Y0142917D01*
X0204123Y0142835D01*
X0204085Y0142755D01*
X0204043Y0142676D01*
X0203998Y0142600D01*
X0203949Y0142525D01*
X0203897Y0142453D01*
X0203842Y0142383D01*
X0203783Y0142315D01*
X0203722Y0142251D01*
X0203658Y0142189D01*
X0203591Y0142130D01*
X0203522Y0142074D01*
X0203450Y0142021D01*
X0203376Y0141971D01*
X0203300Y0141925D01*
X0203222Y0141882D01*
X0203142Y0141843D01*
X0203060Y0141807D01*
X0202977Y0141775D01*
X0202893Y0141747D01*
X0202807Y0141722D01*
X0202720Y0141702D01*
X0202633Y0141685D01*
X0202544Y0141672D01*
X0202456Y0141663D01*
X0202367Y0141658D01*
X0202278Y0141657D01*
X0202189Y0141660D01*
X0202100Y0141667D01*
X0202011Y0141678D01*
X0201923Y0141693D01*
X0201836Y0141711D01*
X0201750Y0141734D01*
X0201665Y0141760D01*
X0201581Y0141791D01*
X0201499Y0141825D01*
X0201418Y0141862D01*
X0201339Y0141903D01*
X0201262Y0141948D01*
X0201187Y0141996D01*
X0201114Y0142047D01*
X0201043Y0142101D01*
X0200975Y0142159D01*
X0200910Y0142219D01*
X0200847Y0142283D01*
X0200787Y0142349D01*
X0200730Y0142418D01*
X0200677Y0142489D01*
X0200626Y0142562D01*
X0200579Y0142638D01*
X0200536Y0142715D01*
X0200495Y0142795D01*
X0200459Y0142876D01*
X0200426Y0142959D01*
X0200397Y0143043D01*
X0200371Y0143129D01*
X0200349Y0143215D01*
X0200332Y0143302D01*
X0200318Y0143390D01*
X0200308Y0143479D01*
X0200302Y0143568D01*
X0200300Y0143657D01*
X0200300Y0163357D02*
X0200302Y0163446D01*
X0200308Y0163535D01*
X0200318Y0163624D01*
X0200332Y0163712D01*
X0200349Y0163799D01*
X0200371Y0163885D01*
X0200397Y0163971D01*
X0200426Y0164055D01*
X0200459Y0164138D01*
X0200495Y0164219D01*
X0200536Y0164299D01*
X0200579Y0164376D01*
X0200626Y0164452D01*
X0200677Y0164525D01*
X0200730Y0164596D01*
X0200787Y0164665D01*
X0200847Y0164731D01*
X0200910Y0164795D01*
X0200975Y0164855D01*
X0201043Y0164913D01*
X0201114Y0164967D01*
X0201187Y0165018D01*
X0201262Y0165066D01*
X0201339Y0165111D01*
X0201418Y0165152D01*
X0201499Y0165189D01*
X0201581Y0165223D01*
X0201665Y0165254D01*
X0201750Y0165280D01*
X0201836Y0165303D01*
X0201923Y0165321D01*
X0202011Y0165336D01*
X0202100Y0165347D01*
X0202189Y0165354D01*
X0202278Y0165357D01*
X0202367Y0165356D01*
X0202456Y0165351D01*
X0202544Y0165342D01*
X0202633Y0165329D01*
X0202720Y0165312D01*
X0202807Y0165292D01*
X0202893Y0165267D01*
X0202977Y0165239D01*
X0203060Y0165207D01*
X0203142Y0165171D01*
X0203222Y0165132D01*
X0203300Y0165089D01*
X0203376Y0165043D01*
X0203450Y0164993D01*
X0203522Y0164940D01*
X0203591Y0164884D01*
X0203658Y0164825D01*
X0203722Y0164763D01*
X0203783Y0164699D01*
X0203842Y0164631D01*
X0203897Y0164561D01*
X0203949Y0164489D01*
X0203998Y0164414D01*
X0204043Y0164338D01*
X0204085Y0164259D01*
X0204123Y0164179D01*
X0204158Y0164097D01*
X0204189Y0164013D01*
X0204217Y0163928D01*
X0204240Y0163842D01*
X0204260Y0163755D01*
X0204276Y0163668D01*
X0204288Y0163579D01*
X0204296Y0163491D01*
X0204300Y0163402D01*
X0204300Y0163312D01*
X0204296Y0163223D01*
X0204288Y0163135D01*
X0204276Y0163046D01*
X0204260Y0162959D01*
X0204240Y0162872D01*
X0204217Y0162786D01*
X0204189Y0162701D01*
X0204158Y0162617D01*
X0204123Y0162535D01*
X0204085Y0162455D01*
X0204043Y0162376D01*
X0203998Y0162300D01*
X0203949Y0162225D01*
X0203897Y0162153D01*
X0203842Y0162083D01*
X0203783Y0162015D01*
X0203722Y0161951D01*
X0203658Y0161889D01*
X0203591Y0161830D01*
X0203522Y0161774D01*
X0203450Y0161721D01*
X0203376Y0161671D01*
X0203300Y0161625D01*
X0203222Y0161582D01*
X0203142Y0161543D01*
X0203060Y0161507D01*
X0202977Y0161475D01*
X0202893Y0161447D01*
X0202807Y0161422D01*
X0202720Y0161402D01*
X0202633Y0161385D01*
X0202544Y0161372D01*
X0202456Y0161363D01*
X0202367Y0161358D01*
X0202278Y0161357D01*
X0202189Y0161360D01*
X0202100Y0161367D01*
X0202011Y0161378D01*
X0201923Y0161393D01*
X0201836Y0161411D01*
X0201750Y0161434D01*
X0201665Y0161460D01*
X0201581Y0161491D01*
X0201499Y0161525D01*
X0201418Y0161562D01*
X0201339Y0161603D01*
X0201262Y0161648D01*
X0201187Y0161696D01*
X0201114Y0161747D01*
X0201043Y0161801D01*
X0200975Y0161859D01*
X0200910Y0161919D01*
X0200847Y0161983D01*
X0200787Y0162049D01*
X0200730Y0162118D01*
X0200677Y0162189D01*
X0200626Y0162262D01*
X0200579Y0162338D01*
X0200536Y0162415D01*
X0200495Y0162495D01*
X0200459Y0162576D01*
X0200426Y0162659D01*
X0200397Y0162743D01*
X0200371Y0162829D01*
X0200349Y0162915D01*
X0200332Y0163002D01*
X0200318Y0163090D01*
X0200308Y0163179D01*
X0200302Y0163268D01*
X0200300Y0163357D01*
X0200300Y0183657D02*
X0200302Y0183746D01*
X0200308Y0183835D01*
X0200318Y0183924D01*
X0200332Y0184012D01*
X0200349Y0184099D01*
X0200371Y0184185D01*
X0200397Y0184271D01*
X0200426Y0184355D01*
X0200459Y0184438D01*
X0200495Y0184519D01*
X0200536Y0184599D01*
X0200579Y0184676D01*
X0200626Y0184752D01*
X0200677Y0184825D01*
X0200730Y0184896D01*
X0200787Y0184965D01*
X0200847Y0185031D01*
X0200910Y0185095D01*
X0200975Y0185155D01*
X0201043Y0185213D01*
X0201114Y0185267D01*
X0201187Y0185318D01*
X0201262Y0185366D01*
X0201339Y0185411D01*
X0201418Y0185452D01*
X0201499Y0185489D01*
X0201581Y0185523D01*
X0201665Y0185554D01*
X0201750Y0185580D01*
X0201836Y0185603D01*
X0201923Y0185621D01*
X0202011Y0185636D01*
X0202100Y0185647D01*
X0202189Y0185654D01*
X0202278Y0185657D01*
X0202367Y0185656D01*
X0202456Y0185651D01*
X0202544Y0185642D01*
X0202633Y0185629D01*
X0202720Y0185612D01*
X0202807Y0185592D01*
X0202893Y0185567D01*
X0202977Y0185539D01*
X0203060Y0185507D01*
X0203142Y0185471D01*
X0203222Y0185432D01*
X0203300Y0185389D01*
X0203376Y0185343D01*
X0203450Y0185293D01*
X0203522Y0185240D01*
X0203591Y0185184D01*
X0203658Y0185125D01*
X0203722Y0185063D01*
X0203783Y0184999D01*
X0203842Y0184931D01*
X0203897Y0184861D01*
X0203949Y0184789D01*
X0203998Y0184714D01*
X0204043Y0184638D01*
X0204085Y0184559D01*
X0204123Y0184479D01*
X0204158Y0184397D01*
X0204189Y0184313D01*
X0204217Y0184228D01*
X0204240Y0184142D01*
X0204260Y0184055D01*
X0204276Y0183968D01*
X0204288Y0183879D01*
X0204296Y0183791D01*
X0204300Y0183702D01*
X0204300Y0183612D01*
X0204296Y0183523D01*
X0204288Y0183435D01*
X0204276Y0183346D01*
X0204260Y0183259D01*
X0204240Y0183172D01*
X0204217Y0183086D01*
X0204189Y0183001D01*
X0204158Y0182917D01*
X0204123Y0182835D01*
X0204085Y0182755D01*
X0204043Y0182676D01*
X0203998Y0182600D01*
X0203949Y0182525D01*
X0203897Y0182453D01*
X0203842Y0182383D01*
X0203783Y0182315D01*
X0203722Y0182251D01*
X0203658Y0182189D01*
X0203591Y0182130D01*
X0203522Y0182074D01*
X0203450Y0182021D01*
X0203376Y0181971D01*
X0203300Y0181925D01*
X0203222Y0181882D01*
X0203142Y0181843D01*
X0203060Y0181807D01*
X0202977Y0181775D01*
X0202893Y0181747D01*
X0202807Y0181722D01*
X0202720Y0181702D01*
X0202633Y0181685D01*
X0202544Y0181672D01*
X0202456Y0181663D01*
X0202367Y0181658D01*
X0202278Y0181657D01*
X0202189Y0181660D01*
X0202100Y0181667D01*
X0202011Y0181678D01*
X0201923Y0181693D01*
X0201836Y0181711D01*
X0201750Y0181734D01*
X0201665Y0181760D01*
X0201581Y0181791D01*
X0201499Y0181825D01*
X0201418Y0181862D01*
X0201339Y0181903D01*
X0201262Y0181948D01*
X0201187Y0181996D01*
X0201114Y0182047D01*
X0201043Y0182101D01*
X0200975Y0182159D01*
X0200910Y0182219D01*
X0200847Y0182283D01*
X0200787Y0182349D01*
X0200730Y0182418D01*
X0200677Y0182489D01*
X0200626Y0182562D01*
X0200579Y0182638D01*
X0200536Y0182715D01*
X0200495Y0182795D01*
X0200459Y0182876D01*
X0200426Y0182959D01*
X0200397Y0183043D01*
X0200371Y0183129D01*
X0200349Y0183215D01*
X0200332Y0183302D01*
X0200318Y0183390D01*
X0200308Y0183479D01*
X0200302Y0183568D01*
X0200300Y0183657D01*
X0200300Y0203357D02*
X0200302Y0203446D01*
X0200308Y0203535D01*
X0200318Y0203624D01*
X0200332Y0203712D01*
X0200349Y0203799D01*
X0200371Y0203885D01*
X0200397Y0203971D01*
X0200426Y0204055D01*
X0200459Y0204138D01*
X0200495Y0204219D01*
X0200536Y0204299D01*
X0200579Y0204376D01*
X0200626Y0204452D01*
X0200677Y0204525D01*
X0200730Y0204596D01*
X0200787Y0204665D01*
X0200847Y0204731D01*
X0200910Y0204795D01*
X0200975Y0204855D01*
X0201043Y0204913D01*
X0201114Y0204967D01*
X0201187Y0205018D01*
X0201262Y0205066D01*
X0201339Y0205111D01*
X0201418Y0205152D01*
X0201499Y0205189D01*
X0201581Y0205223D01*
X0201665Y0205254D01*
X0201750Y0205280D01*
X0201836Y0205303D01*
X0201923Y0205321D01*
X0202011Y0205336D01*
X0202100Y0205347D01*
X0202189Y0205354D01*
X0202278Y0205357D01*
X0202367Y0205356D01*
X0202456Y0205351D01*
X0202544Y0205342D01*
X0202633Y0205329D01*
X0202720Y0205312D01*
X0202807Y0205292D01*
X0202893Y0205267D01*
X0202977Y0205239D01*
X0203060Y0205207D01*
X0203142Y0205171D01*
X0203222Y0205132D01*
X0203300Y0205089D01*
X0203376Y0205043D01*
X0203450Y0204993D01*
X0203522Y0204940D01*
X0203591Y0204884D01*
X0203658Y0204825D01*
X0203722Y0204763D01*
X0203783Y0204699D01*
X0203842Y0204631D01*
X0203897Y0204561D01*
X0203949Y0204489D01*
X0203998Y0204414D01*
X0204043Y0204338D01*
X0204085Y0204259D01*
X0204123Y0204179D01*
X0204158Y0204097D01*
X0204189Y0204013D01*
X0204217Y0203928D01*
X0204240Y0203842D01*
X0204260Y0203755D01*
X0204276Y0203668D01*
X0204288Y0203579D01*
X0204296Y0203491D01*
X0204300Y0203402D01*
X0204300Y0203312D01*
X0204296Y0203223D01*
X0204288Y0203135D01*
X0204276Y0203046D01*
X0204260Y0202959D01*
X0204240Y0202872D01*
X0204217Y0202786D01*
X0204189Y0202701D01*
X0204158Y0202617D01*
X0204123Y0202535D01*
X0204085Y0202455D01*
X0204043Y0202376D01*
X0203998Y0202300D01*
X0203949Y0202225D01*
X0203897Y0202153D01*
X0203842Y0202083D01*
X0203783Y0202015D01*
X0203722Y0201951D01*
X0203658Y0201889D01*
X0203591Y0201830D01*
X0203522Y0201774D01*
X0203450Y0201721D01*
X0203376Y0201671D01*
X0203300Y0201625D01*
X0203222Y0201582D01*
X0203142Y0201543D01*
X0203060Y0201507D01*
X0202977Y0201475D01*
X0202893Y0201447D01*
X0202807Y0201422D01*
X0202720Y0201402D01*
X0202633Y0201385D01*
X0202544Y0201372D01*
X0202456Y0201363D01*
X0202367Y0201358D01*
X0202278Y0201357D01*
X0202189Y0201360D01*
X0202100Y0201367D01*
X0202011Y0201378D01*
X0201923Y0201393D01*
X0201836Y0201411D01*
X0201750Y0201434D01*
X0201665Y0201460D01*
X0201581Y0201491D01*
X0201499Y0201525D01*
X0201418Y0201562D01*
X0201339Y0201603D01*
X0201262Y0201648D01*
X0201187Y0201696D01*
X0201114Y0201747D01*
X0201043Y0201801D01*
X0200975Y0201859D01*
X0200910Y0201919D01*
X0200847Y0201983D01*
X0200787Y0202049D01*
X0200730Y0202118D01*
X0200677Y0202189D01*
X0200626Y0202262D01*
X0200579Y0202338D01*
X0200536Y0202415D01*
X0200495Y0202495D01*
X0200459Y0202576D01*
X0200426Y0202659D01*
X0200397Y0202743D01*
X0200371Y0202829D01*
X0200349Y0202915D01*
X0200332Y0203002D01*
X0200318Y0203090D01*
X0200308Y0203179D01*
X0200302Y0203268D01*
X0200300Y0203357D01*
X0351000Y0211000D02*
X0351000Y0216000D01*
X0353500Y0218500D01*
X0351000Y0221000D01*
X0351000Y0226000D01*
X0353500Y0228500D01*
X0351000Y0231000D01*
X0351000Y0236000D01*
X0353500Y0238500D01*
X0351000Y0241000D01*
X0351000Y0246000D01*
X0353500Y0248500D01*
X0358500Y0248500D01*
X0361000Y0246000D01*
X0361000Y0241000D01*
X0358500Y0238500D01*
X0361000Y0236000D01*
X0361000Y0231000D01*
X0358500Y0228500D01*
X0361000Y0226000D01*
X0361000Y0221000D01*
X0358500Y0218500D01*
X0361000Y0216000D01*
X0361000Y0211000D01*
X0358500Y0208500D01*
X0353500Y0208500D01*
X0351000Y0211000D01*
X0351000Y0113500D02*
X0348500Y0111000D01*
X0348500Y0106000D01*
X0351000Y0103500D01*
X0348500Y0101000D01*
X0348500Y0096000D01*
X0351000Y0093500D01*
X0348500Y0091000D01*
X0348500Y0086000D01*
X0351000Y0083500D01*
X0348500Y0081000D01*
X0348500Y0076000D01*
X0351000Y0073500D01*
X0356000Y0073500D01*
X0358500Y0076000D01*
X0358500Y0081000D01*
X0356000Y0083500D01*
X0358500Y0086000D01*
X0358500Y0091000D01*
X0356000Y0093500D01*
X0358500Y0096000D01*
X0358500Y0101000D01*
X0356000Y0103500D01*
X0358500Y0106000D01*
X0358500Y0111000D01*
X0356000Y0113500D01*
X0351000Y0113500D01*
X0375000Y0099500D02*
X0375000Y0082500D01*
X0375002Y0082440D01*
X0375007Y0082379D01*
X0375016Y0082320D01*
X0375029Y0082261D01*
X0375045Y0082202D01*
X0375065Y0082145D01*
X0375088Y0082090D01*
X0375115Y0082035D01*
X0375144Y0081983D01*
X0375177Y0081932D01*
X0375213Y0081883D01*
X0375251Y0081837D01*
X0375293Y0081793D01*
X0375337Y0081751D01*
X0375383Y0081713D01*
X0375432Y0081677D01*
X0375483Y0081644D01*
X0375535Y0081615D01*
X0375590Y0081588D01*
X0375645Y0081565D01*
X0375702Y0081545D01*
X0375761Y0081529D01*
X0375820Y0081516D01*
X0375879Y0081507D01*
X0375940Y0081502D01*
X0376000Y0081500D01*
X0386000Y0081500D01*
X0386060Y0081502D01*
X0386121Y0081507D01*
X0386180Y0081516D01*
X0386239Y0081529D01*
X0386298Y0081545D01*
X0386355Y0081565D01*
X0386410Y0081588D01*
X0386465Y0081615D01*
X0386517Y0081644D01*
X0386568Y0081677D01*
X0386617Y0081713D01*
X0386663Y0081751D01*
X0386707Y0081793D01*
X0386749Y0081837D01*
X0386787Y0081883D01*
X0386823Y0081932D01*
X0386856Y0081983D01*
X0386885Y0082035D01*
X0386912Y0082090D01*
X0386935Y0082145D01*
X0386955Y0082202D01*
X0386971Y0082261D01*
X0386984Y0082320D01*
X0386993Y0082379D01*
X0386998Y0082440D01*
X0387000Y0082500D01*
X0387000Y0099500D01*
X0386998Y0099560D01*
X0386993Y0099621D01*
X0386984Y0099680D01*
X0386971Y0099739D01*
X0386955Y0099798D01*
X0386935Y0099855D01*
X0386912Y0099910D01*
X0386885Y0099965D01*
X0386856Y0100017D01*
X0386823Y0100068D01*
X0386787Y0100117D01*
X0386749Y0100163D01*
X0386707Y0100207D01*
X0386663Y0100249D01*
X0386617Y0100287D01*
X0386568Y0100323D01*
X0386517Y0100356D01*
X0386465Y0100385D01*
X0386410Y0100412D01*
X0386355Y0100435D01*
X0386298Y0100455D01*
X0386239Y0100471D01*
X0386180Y0100484D01*
X0386121Y0100493D01*
X0386060Y0100498D01*
X0386000Y0100500D01*
X0376000Y0100500D01*
X0375940Y0100498D01*
X0375879Y0100493D01*
X0375820Y0100484D01*
X0375761Y0100471D01*
X0375702Y0100455D01*
X0375645Y0100435D01*
X0375590Y0100412D01*
X0375535Y0100385D01*
X0375483Y0100356D01*
X0375432Y0100323D01*
X0375383Y0100287D01*
X0375337Y0100249D01*
X0375293Y0100207D01*
X0375251Y0100163D01*
X0375213Y0100117D01*
X0375177Y0100068D01*
X0375144Y0100017D01*
X0375115Y0099965D01*
X0375088Y0099910D01*
X0375065Y0099855D01*
X0375045Y0099798D01*
X0375029Y0099739D01*
X0375016Y0099680D01*
X0375007Y0099621D01*
X0375002Y0099560D01*
X0375000Y0099500D01*
X0381000Y0092500D02*
X0381000Y0092000D01*
X0381000Y0090000D02*
X0381000Y0089500D01*
X0362000Y0037000D02*
X0345000Y0037000D01*
X0344940Y0036998D01*
X0344879Y0036993D01*
X0344820Y0036984D01*
X0344761Y0036971D01*
X0344702Y0036955D01*
X0344645Y0036935D01*
X0344590Y0036912D01*
X0344535Y0036885D01*
X0344483Y0036856D01*
X0344432Y0036823D01*
X0344383Y0036787D01*
X0344337Y0036749D01*
X0344293Y0036707D01*
X0344251Y0036663D01*
X0344213Y0036617D01*
X0344177Y0036568D01*
X0344144Y0036517D01*
X0344115Y0036465D01*
X0344088Y0036410D01*
X0344065Y0036355D01*
X0344045Y0036298D01*
X0344029Y0036239D01*
X0344016Y0036180D01*
X0344007Y0036121D01*
X0344002Y0036060D01*
X0344000Y0036000D01*
X0344000Y0026000D01*
X0344002Y0025940D01*
X0344007Y0025879D01*
X0344016Y0025820D01*
X0344029Y0025761D01*
X0344045Y0025702D01*
X0344065Y0025645D01*
X0344088Y0025590D01*
X0344115Y0025535D01*
X0344144Y0025483D01*
X0344177Y0025432D01*
X0344213Y0025383D01*
X0344251Y0025337D01*
X0344293Y0025293D01*
X0344337Y0025251D01*
X0344383Y0025213D01*
X0344432Y0025177D01*
X0344483Y0025144D01*
X0344535Y0025115D01*
X0344590Y0025088D01*
X0344645Y0025065D01*
X0344702Y0025045D01*
X0344761Y0025029D01*
X0344820Y0025016D01*
X0344879Y0025007D01*
X0344940Y0025002D01*
X0345000Y0025000D01*
X0362000Y0025000D01*
X0362060Y0025002D01*
X0362121Y0025007D01*
X0362180Y0025016D01*
X0362239Y0025029D01*
X0362298Y0025045D01*
X0362355Y0025065D01*
X0362410Y0025088D01*
X0362465Y0025115D01*
X0362517Y0025144D01*
X0362568Y0025177D01*
X0362617Y0025213D01*
X0362663Y0025251D01*
X0362707Y0025293D01*
X0362749Y0025337D01*
X0362787Y0025383D01*
X0362823Y0025432D01*
X0362856Y0025483D01*
X0362885Y0025535D01*
X0362912Y0025590D01*
X0362935Y0025645D01*
X0362955Y0025702D01*
X0362971Y0025761D01*
X0362984Y0025820D01*
X0362993Y0025879D01*
X0362998Y0025940D01*
X0363000Y0026000D01*
X0363000Y0036000D01*
X0362998Y0036060D01*
X0362993Y0036121D01*
X0362984Y0036180D01*
X0362971Y0036239D01*
X0362955Y0036298D01*
X0362935Y0036355D01*
X0362912Y0036410D01*
X0362885Y0036465D01*
X0362856Y0036517D01*
X0362823Y0036568D01*
X0362787Y0036617D01*
X0362749Y0036663D01*
X0362707Y0036707D01*
X0362663Y0036749D01*
X0362617Y0036787D01*
X0362568Y0036823D01*
X0362517Y0036856D01*
X0362465Y0036885D01*
X0362410Y0036912D01*
X0362355Y0036935D01*
X0362298Y0036955D01*
X0362239Y0036971D01*
X0362180Y0036984D01*
X0362121Y0036993D01*
X0362060Y0036998D01*
X0362000Y0037000D01*
X0355000Y0031000D02*
X0354500Y0031000D01*
X0352500Y0031000D02*
X0352000Y0031000D01*
D11*
X0035808Y0018506D02*
X0026600Y0018506D01*
X0031204Y0023110D02*
X0031204Y0013902D01*
X0149100Y0066006D02*
X0158308Y0066006D01*
X0153704Y0070610D02*
X0153704Y0061402D01*
X0179100Y0041006D02*
X0188308Y0041006D01*
X0192912Y0043308D02*
X0197516Y0047912D01*
X0197516Y0034100D01*
X0192912Y0034100D02*
X0202120Y0034100D01*
X0206724Y0034100D02*
X0215931Y0043308D01*
X0215931Y0045610D01*
X0213629Y0047912D01*
X0209026Y0047912D01*
X0206724Y0045610D01*
X0206724Y0034100D02*
X0215931Y0034100D01*
X0183704Y0036402D02*
X0183704Y0045610D01*
X0231600Y0066006D02*
X0240808Y0066006D01*
X0236204Y0070610D02*
X0236204Y0061402D01*
X0236204Y0101402D02*
X0236204Y0110610D01*
X0231600Y0106006D02*
X0240808Y0106006D01*
X0236204Y0141402D02*
X0236204Y0150610D01*
X0231600Y0146006D02*
X0240808Y0146006D01*
X0236204Y0181402D02*
X0236204Y0190610D01*
X0231600Y0186006D02*
X0240808Y0186006D01*
X0231204Y0228902D02*
X0231204Y0238110D01*
X0226600Y0233506D02*
X0235808Y0233506D01*
X0201204Y0261402D02*
X0201204Y0270610D01*
X0196600Y0266006D02*
X0205808Y0266006D01*
X0158308Y0226006D02*
X0149100Y0226006D01*
X0153704Y0230610D02*
X0153704Y0221402D01*
X0153704Y0190610D02*
X0153704Y0181402D01*
X0149100Y0186006D02*
X0158308Y0186006D01*
X0153704Y0150610D02*
X0153704Y0141402D01*
X0149100Y0146006D02*
X0158308Y0146006D01*
X0153704Y0110610D02*
X0153704Y0101402D01*
X0149100Y0106006D02*
X0158308Y0106006D01*
X0040598Y0121204D02*
X0031390Y0121204D01*
X0035994Y0116600D02*
X0035994Y0125808D01*
X0035994Y0130412D02*
X0035994Y0139620D01*
X0033692Y0144224D02*
X0031390Y0144224D01*
X0029088Y0146526D01*
X0029088Y0151129D01*
X0031390Y0153431D01*
X0033692Y0153431D01*
X0035994Y0151129D01*
X0035994Y0146526D01*
X0033692Y0144224D01*
X0035994Y0146526D02*
X0038296Y0144224D01*
X0040598Y0144224D01*
X0042900Y0146526D01*
X0042900Y0151129D01*
X0040598Y0153431D01*
X0038296Y0153431D01*
X0035994Y0151129D01*
X0029088Y0137318D02*
X0035994Y0130412D01*
X0042900Y0137318D02*
X0029088Y0137318D01*
X0339100Y0021006D02*
X0348308Y0021006D01*
X0343704Y0025610D02*
X0343704Y0016402D01*
X0360994Y0124100D02*
X0360994Y0133308D01*
X0360994Y0137912D02*
X0360994Y0147120D01*
X0358692Y0151724D02*
X0356390Y0151724D01*
X0354088Y0154026D01*
X0354088Y0158629D01*
X0356390Y0160931D01*
X0358692Y0160931D01*
X0360994Y0158629D01*
X0360994Y0154026D01*
X0358692Y0151724D01*
X0360994Y0154026D02*
X0363296Y0151724D01*
X0365598Y0151724D01*
X0367900Y0154026D01*
X0367900Y0158629D01*
X0365598Y0160931D01*
X0363296Y0160931D01*
X0360994Y0158629D01*
X0354088Y0144818D02*
X0360994Y0137912D01*
X0367900Y0144818D02*
X0354088Y0144818D01*
X0356390Y0128704D02*
X0365598Y0128704D01*
D12*
X0369300Y0103508D02*
X0381577Y0103508D01*
X0370439Y0087146D02*
X0370439Y0074869D01*
X0364300Y0081008D02*
X0376577Y0081008D01*
X0347939Y0172369D02*
X0347939Y0184646D01*
X0354077Y0178508D02*
X0341800Y0178508D01*
X0369300Y0178508D02*
X0381577Y0178508D01*
X0246577Y0126008D02*
X0234300Y0126008D01*
X0231800Y0086008D02*
X0244077Y0086008D01*
X0164077Y0086008D02*
X0151800Y0086008D01*
X0151800Y0126008D02*
X0164077Y0126008D01*
X0164077Y0166008D02*
X0151800Y0166008D01*
X0151800Y0206008D02*
X0164077Y0206008D01*
X0164077Y0246008D02*
X0151800Y0246008D01*
X0151800Y0286008D02*
X0164077Y0286008D01*
X0221800Y0268508D02*
X0234077Y0268508D01*
X0231800Y0206008D02*
X0244077Y0206008D01*
X0244077Y0166008D02*
X0231800Y0166008D01*
X0051577Y0178508D02*
X0039300Y0178508D01*
X0031577Y0181008D02*
X0019300Y0181008D01*
X0025439Y0187146D02*
X0025439Y0174869D01*
X0017939Y0109646D02*
X0017939Y0097369D01*
X0011800Y0103508D02*
X0024077Y0103508D01*
X0026577Y0076008D02*
X0014300Y0076008D01*
D13*
X0014000Y0085000D02*
X0011000Y0085000D01*
X0008000Y0085000D01*
X0008000Y0087000D02*
X0011000Y0087000D01*
X0014000Y0087000D01*
X0040000Y0031500D02*
X0040000Y0028500D01*
X0040000Y0025500D01*
X0042000Y0025500D02*
X0042000Y0028500D01*
X0042000Y0031500D01*
X0215000Y0225500D02*
X0215000Y0228500D01*
X0215000Y0231500D01*
X0217000Y0231500D02*
X0217000Y0228500D01*
X0217000Y0225500D01*
X0217000Y0255500D02*
X0217000Y0258500D01*
X0217000Y0261500D01*
X0215000Y0261500D02*
X0215000Y0258500D01*
X0215000Y0255500D01*
X0378000Y0092000D02*
X0381000Y0092000D01*
X0384000Y0092000D01*
X0384000Y0090000D02*
X0381000Y0090000D01*
X0378000Y0090000D01*
X0354500Y0034000D02*
X0354500Y0031000D01*
X0354500Y0028000D01*
X0352500Y0028000D02*
X0352500Y0031000D01*
X0352500Y0034000D01*
D14*
X0352605Y0038250D02*
X0351854Y0039001D01*
X0352605Y0038250D02*
X0354106Y0038250D01*
X0354856Y0039001D01*
X0354856Y0040502D01*
X0354106Y0041253D01*
X0353355Y0041253D01*
X0351854Y0040502D01*
X0351854Y0042754D01*
X0354856Y0042754D01*
X0350253Y0042003D02*
X0349502Y0042754D01*
X0348001Y0042754D01*
X0347250Y0042003D01*
X0347250Y0039001D01*
X0348001Y0038250D01*
X0349502Y0038250D01*
X0350253Y0039001D01*
X0353498Y0068146D02*
X0353498Y0071149D01*
X0351246Y0070398D02*
X0353498Y0068146D01*
X0355750Y0070398D02*
X0351246Y0070398D01*
X0369246Y0085501D02*
X0369997Y0084750D01*
X0372999Y0084750D01*
X0373750Y0085501D01*
X0373750Y0087002D01*
X0372999Y0087753D01*
X0371498Y0089354D02*
X0369246Y0091606D01*
X0373750Y0091606D01*
X0371498Y0092356D02*
X0371498Y0089354D01*
X0369997Y0087753D02*
X0369246Y0087002D01*
X0369246Y0085501D01*
X0363999Y0099938D02*
X0364750Y0100689D01*
X0364750Y0102190D01*
X0363999Y0102941D01*
X0363249Y0102941D01*
X0362498Y0102190D01*
X0362498Y0100689D01*
X0361747Y0099938D01*
X0360997Y0099938D01*
X0360246Y0100689D01*
X0360246Y0102190D01*
X0360997Y0102941D01*
X0360246Y0104542D02*
X0363249Y0104542D01*
X0364750Y0106043D01*
X0363249Y0107545D01*
X0360246Y0107545D01*
X0362498Y0109146D02*
X0362498Y0112149D01*
X0360246Y0111398D02*
X0362498Y0109146D01*
X0364750Y0111398D02*
X0360246Y0111398D01*
X0355750Y0113646D02*
X0355750Y0116649D01*
X0355750Y0115147D02*
X0351246Y0115147D01*
X0352747Y0113646D01*
X0355998Y0203146D02*
X0353746Y0205398D01*
X0358250Y0205398D01*
X0355998Y0206149D02*
X0355998Y0203146D01*
X0363497Y0234938D02*
X0362746Y0235689D01*
X0362746Y0237190D01*
X0363497Y0237941D01*
X0364998Y0237190D02*
X0365749Y0237941D01*
X0366499Y0237941D01*
X0367250Y0237190D01*
X0367250Y0235689D01*
X0366499Y0234938D01*
X0364998Y0235689D02*
X0364998Y0237190D01*
X0364998Y0235689D02*
X0364247Y0234938D01*
X0363497Y0234938D01*
X0362746Y0239542D02*
X0365749Y0239542D01*
X0367250Y0241043D01*
X0365749Y0242545D01*
X0362746Y0242545D01*
X0363497Y0244146D02*
X0362746Y0244897D01*
X0362746Y0246398D01*
X0363497Y0247149D01*
X0364247Y0247149D01*
X0364998Y0246398D01*
X0365749Y0247149D01*
X0366499Y0247149D01*
X0367250Y0246398D01*
X0367250Y0244897D01*
X0366499Y0244146D01*
X0364998Y0245647D02*
X0364998Y0246398D01*
X0358250Y0248646D02*
X0358250Y0251649D01*
X0358250Y0250147D02*
X0353746Y0250147D01*
X0355247Y0248646D01*
X0230450Y0190067D02*
X0230450Y0188566D01*
X0229699Y0187815D01*
X0226697Y0190818D01*
X0229699Y0190818D01*
X0230450Y0190067D01*
X0229699Y0187815D02*
X0226697Y0187815D01*
X0225946Y0188566D01*
X0225946Y0190067D01*
X0226697Y0190818D01*
X0230450Y0186214D02*
X0230450Y0183211D01*
X0230450Y0184713D02*
X0225946Y0184713D01*
X0227447Y0183211D01*
X0225946Y0181610D02*
X0230450Y0178607D01*
X0230450Y0181610D02*
X0225946Y0178607D01*
X0208250Y0178910D02*
X0208250Y0175907D01*
X0208250Y0177409D02*
X0203746Y0177409D01*
X0205247Y0175907D01*
X0192950Y0178607D02*
X0188446Y0181610D01*
X0188446Y0183211D02*
X0188446Y0186214D01*
X0189197Y0186214D01*
X0192199Y0183211D01*
X0192950Y0183211D01*
X0192950Y0181610D02*
X0188446Y0178607D01*
X0170750Y0178910D02*
X0170750Y0175907D01*
X0170750Y0177409D02*
X0166246Y0177409D01*
X0167747Y0175907D01*
X0167747Y0158410D02*
X0166997Y0158410D01*
X0166246Y0157659D01*
X0166246Y0156158D01*
X0166997Y0155407D01*
X0167747Y0158410D02*
X0170750Y0155407D01*
X0170750Y0158410D01*
X0188446Y0144713D02*
X0192950Y0144713D01*
X0192950Y0146214D02*
X0192950Y0143211D01*
X0192950Y0141610D02*
X0188446Y0138607D01*
X0188446Y0141610D02*
X0192950Y0138607D01*
X0189947Y0143211D02*
X0188446Y0144713D01*
X0203746Y0137409D02*
X0208250Y0137409D01*
X0208250Y0138910D02*
X0208250Y0135907D01*
X0205247Y0135907D02*
X0203746Y0137409D01*
X0204497Y0155407D02*
X0203746Y0156158D01*
X0203746Y0157659D01*
X0204497Y0158410D01*
X0205247Y0158410D01*
X0208250Y0155407D01*
X0208250Y0158410D01*
X0225946Y0145463D02*
X0228198Y0143211D01*
X0228198Y0146214D01*
X0230450Y0145463D02*
X0225946Y0145463D01*
X0225946Y0141610D02*
X0230450Y0138607D01*
X0230450Y0141610D02*
X0225946Y0138607D01*
X0208250Y0118410D02*
X0208250Y0115407D01*
X0205247Y0118410D01*
X0204497Y0118410D01*
X0203746Y0117659D01*
X0203746Y0116158D01*
X0204497Y0115407D01*
X0192950Y0106214D02*
X0192950Y0103211D01*
X0189947Y0106214D01*
X0189197Y0106214D01*
X0188446Y0105463D01*
X0188446Y0103962D01*
X0189197Y0103211D01*
X0188446Y0101610D02*
X0192950Y0098607D01*
X0192950Y0101610D02*
X0188446Y0098607D01*
X0203746Y0097409D02*
X0208250Y0097409D01*
X0208250Y0098910D02*
X0208250Y0095907D01*
X0205247Y0095907D02*
X0203746Y0097409D01*
X0204497Y0078410D02*
X0203746Y0077659D01*
X0203746Y0076158D01*
X0204497Y0075407D01*
X0204497Y0078410D02*
X0205247Y0078410D01*
X0208250Y0075407D01*
X0208250Y0078410D01*
X0192950Y0065463D02*
X0192950Y0063962D01*
X0192199Y0063211D01*
X0192950Y0061610D02*
X0188446Y0058607D01*
X0188446Y0061610D02*
X0192950Y0058607D01*
X0189197Y0063211D02*
X0188446Y0063962D01*
X0188446Y0065463D01*
X0189197Y0066214D01*
X0189947Y0066214D01*
X0190698Y0065463D01*
X0191449Y0066214D01*
X0192199Y0066214D01*
X0192950Y0065463D01*
X0190698Y0065463D02*
X0190698Y0064713D01*
X0203746Y0057409D02*
X0208250Y0057409D01*
X0208250Y0058910D02*
X0208250Y0055907D01*
X0205247Y0055907D02*
X0203746Y0057409D01*
X0225946Y0058607D02*
X0230450Y0061610D01*
X0229699Y0063211D02*
X0228198Y0063211D01*
X0228198Y0065463D01*
X0228949Y0066214D01*
X0229699Y0066214D01*
X0230450Y0065463D01*
X0230450Y0063962D01*
X0229699Y0063211D01*
X0228198Y0063211D02*
X0226697Y0064713D01*
X0225946Y0066214D01*
X0225946Y0061610D02*
X0230450Y0058607D01*
X0230450Y0098607D02*
X0225946Y0101610D01*
X0225946Y0103211D02*
X0228198Y0103211D01*
X0227447Y0104713D01*
X0227447Y0105463D01*
X0228198Y0106214D01*
X0229699Y0106214D01*
X0230450Y0105463D01*
X0230450Y0103962D01*
X0229699Y0103211D01*
X0230450Y0101610D02*
X0225946Y0098607D01*
X0225946Y0103211D02*
X0225946Y0106214D01*
X0170750Y0098910D02*
X0170750Y0095907D01*
X0170750Y0097409D02*
X0166246Y0097409D01*
X0167747Y0095907D01*
X0167747Y0078410D02*
X0166997Y0078410D01*
X0166246Y0077659D01*
X0166246Y0076158D01*
X0166997Y0075407D01*
X0167747Y0078410D02*
X0170750Y0075407D01*
X0170750Y0078410D01*
X0170750Y0058910D02*
X0170750Y0055907D01*
X0170750Y0057409D02*
X0166246Y0057409D01*
X0167747Y0055907D01*
X0166997Y0115407D02*
X0166246Y0116158D01*
X0166246Y0117659D01*
X0166997Y0118410D01*
X0167747Y0118410D01*
X0170750Y0115407D01*
X0170750Y0118410D01*
X0170750Y0135907D02*
X0170750Y0138910D01*
X0170750Y0137409D02*
X0166246Y0137409D01*
X0167747Y0135907D01*
X0166997Y0195407D02*
X0166246Y0196158D01*
X0166246Y0197659D01*
X0166997Y0198410D01*
X0167747Y0198410D01*
X0170750Y0195407D01*
X0170750Y0198410D01*
X0170750Y0215907D02*
X0170750Y0218910D01*
X0170750Y0217409D02*
X0166246Y0217409D01*
X0167747Y0215907D01*
X0188446Y0218607D02*
X0192950Y0221610D01*
X0192199Y0223211D02*
X0191449Y0223211D01*
X0190698Y0223962D01*
X0190698Y0225463D01*
X0191449Y0226214D01*
X0192199Y0226214D01*
X0192950Y0225463D01*
X0192950Y0223962D01*
X0192199Y0223211D01*
X0190698Y0223962D02*
X0189947Y0223211D01*
X0189197Y0223211D01*
X0188446Y0223962D01*
X0188446Y0225463D01*
X0189197Y0226214D01*
X0189947Y0226214D01*
X0190698Y0225463D01*
X0188446Y0221610D02*
X0192950Y0218607D01*
X0210501Y0235750D02*
X0212002Y0235750D01*
X0212753Y0236501D01*
X0214354Y0236501D02*
X0214354Y0238002D01*
X0216606Y0238002D01*
X0217356Y0237251D01*
X0217356Y0236501D01*
X0216606Y0235750D01*
X0215105Y0235750D01*
X0214354Y0236501D01*
X0214354Y0238002D02*
X0215855Y0239503D01*
X0217356Y0240254D01*
X0212753Y0239503D02*
X0212002Y0240254D01*
X0210501Y0240254D01*
X0209750Y0239503D01*
X0209750Y0236501D01*
X0210501Y0235750D01*
X0214293Y0246750D02*
X0215794Y0246750D01*
X0216545Y0247501D01*
X0218146Y0246750D02*
X0221149Y0249753D01*
X0221149Y0250503D01*
X0220398Y0251254D01*
X0218897Y0251254D01*
X0218146Y0250503D01*
X0216545Y0250503D02*
X0215794Y0251254D01*
X0214293Y0251254D01*
X0213542Y0250503D01*
X0213542Y0247501D01*
X0214293Y0246750D01*
X0218146Y0246750D02*
X0221149Y0246750D01*
X0192950Y0258607D02*
X0188446Y0261610D01*
X0189197Y0263211D02*
X0189947Y0263211D01*
X0190698Y0263962D01*
X0190698Y0266214D01*
X0192199Y0266214D02*
X0189197Y0266214D01*
X0188446Y0265463D01*
X0188446Y0263962D01*
X0189197Y0263211D01*
X0192199Y0263211D02*
X0192950Y0263962D01*
X0192950Y0265463D01*
X0192199Y0266214D01*
X0192950Y0261610D02*
X0188446Y0258607D01*
X0170750Y0258910D02*
X0170750Y0255907D01*
X0170750Y0257409D02*
X0166246Y0257409D01*
X0167747Y0255907D01*
X0167747Y0238410D02*
X0166997Y0238410D01*
X0166246Y0237659D01*
X0166246Y0236158D01*
X0166997Y0235407D01*
X0167747Y0238410D02*
X0170750Y0235407D01*
X0170750Y0238410D01*
X0170750Y0275407D02*
X0167747Y0278410D01*
X0166997Y0278410D01*
X0166246Y0277659D01*
X0166246Y0276158D01*
X0166997Y0275407D01*
X0170750Y0275407D02*
X0170750Y0278410D01*
X0204497Y0198410D02*
X0203746Y0197659D01*
X0203746Y0196158D01*
X0204497Y0195407D01*
X0204497Y0198410D02*
X0205247Y0198410D01*
X0208250Y0195407D01*
X0208250Y0198410D01*
X0043250Y0201750D02*
X0043250Y0204753D01*
X0043250Y0203251D02*
X0038746Y0203251D01*
X0040247Y0201750D01*
X0034250Y0207001D02*
X0033499Y0206250D01*
X0034250Y0207001D02*
X0034250Y0208502D01*
X0033499Y0209253D01*
X0032749Y0209253D01*
X0031998Y0208502D01*
X0031998Y0207001D01*
X0031247Y0206250D01*
X0030497Y0206250D01*
X0029746Y0207001D01*
X0029746Y0208502D01*
X0030497Y0209253D01*
X0029746Y0210854D02*
X0032749Y0210854D01*
X0034250Y0212355D01*
X0032749Y0213856D01*
X0029746Y0213856D01*
X0031247Y0215458D02*
X0029746Y0216959D01*
X0034250Y0216959D01*
X0034250Y0215458D02*
X0034250Y0218460D01*
X0040998Y0247250D02*
X0038746Y0249502D01*
X0043250Y0249502D01*
X0040998Y0250253D02*
X0040998Y0247250D01*
X0040998Y0107753D02*
X0040998Y0104750D01*
X0038746Y0107002D01*
X0043250Y0107002D01*
X0022750Y0090398D02*
X0022750Y0088897D01*
X0021999Y0088146D01*
X0021999Y0086545D02*
X0022750Y0085794D01*
X0022750Y0084293D01*
X0021999Y0083542D01*
X0018997Y0083542D01*
X0018246Y0084293D01*
X0018246Y0085794D01*
X0018997Y0086545D01*
X0018997Y0088146D02*
X0018246Y0088897D01*
X0018246Y0090398D01*
X0018997Y0091149D01*
X0019747Y0091149D01*
X0020498Y0090398D01*
X0021249Y0091149D01*
X0021999Y0091149D01*
X0022750Y0090398D01*
X0020498Y0090398D02*
X0020498Y0089647D01*
X0030497Y0075960D02*
X0029746Y0075210D01*
X0029746Y0073708D01*
X0030497Y0072958D01*
X0029746Y0071356D02*
X0032749Y0071356D01*
X0034250Y0069855D01*
X0032749Y0068354D01*
X0029746Y0068354D01*
X0030497Y0066753D02*
X0029746Y0066002D01*
X0029746Y0064501D01*
X0030497Y0063750D01*
X0031247Y0063750D01*
X0031998Y0064501D01*
X0031998Y0066002D01*
X0032749Y0066753D01*
X0033499Y0066753D01*
X0034250Y0066002D01*
X0034250Y0064501D01*
X0033499Y0063750D01*
X0038746Y0060751D02*
X0043250Y0060751D01*
X0043250Y0059250D02*
X0043250Y0062253D01*
X0040247Y0059250D02*
X0038746Y0060751D01*
X0034250Y0072958D02*
X0031247Y0075960D01*
X0030497Y0075960D01*
X0034250Y0075960D02*
X0034250Y0072958D01*
X0035501Y0040254D02*
X0034750Y0039503D01*
X0034750Y0036501D01*
X0035501Y0035750D01*
X0037002Y0035750D01*
X0037753Y0036501D01*
X0039354Y0035750D02*
X0042356Y0035750D01*
X0040855Y0035750D02*
X0040855Y0040254D01*
X0039354Y0038753D01*
X0037753Y0039503D02*
X0037002Y0040254D01*
X0035501Y0040254D01*
M02*
