G75*
%MOIN*%
%OFA0B0*%
%FSLAX25Y25*%
%IPPOS*%
%LPD*%
%AMOC8*
5,1,8,0,0,1.08239X$1,22.5*
%
%ADD10C,0.15200*%
%ADD11C,0.17800*%
%ADD12C,0.06706*%
%ADD13OC8,0.07100*%
%ADD14C,0.11430*%
%ADD15C,0.12611*%
%ADD16C,0.07850*%
%ADD17C,0.06800*%
D10*
X0021000Y0021000D03*
X0021000Y0296000D03*
X0371000Y0296000D03*
X0371000Y0021000D03*
D11*
X0293500Y0013500D03*
X0101000Y0013500D03*
X0101000Y0303500D03*
X0296000Y0303500D03*
D12*
X0325803Y0282693D03*
X0325803Y0275134D03*
X0325803Y0267575D03*
X0325803Y0260016D03*
X0325803Y0252457D03*
X0325803Y0244898D03*
X0336630Y0244898D03*
X0336630Y0252457D03*
X0336630Y0260016D03*
X0336630Y0267575D03*
X0336630Y0275134D03*
X0336630Y0282693D03*
X0336630Y0232339D03*
X0336630Y0224465D03*
X0336630Y0216591D03*
X0325803Y0216591D03*
X0325803Y0224465D03*
X0325803Y0232339D03*
X0325803Y0194189D03*
X0325803Y0187142D03*
X0325803Y0180094D03*
X0325803Y0173047D03*
X0325803Y0166000D03*
X0336630Y0166000D03*
X0336630Y0173047D03*
X0336630Y0180094D03*
X0336630Y0187142D03*
X0336630Y0194189D03*
X0336630Y0147693D03*
X0336630Y0140134D03*
X0336630Y0132575D03*
X0336630Y0125016D03*
X0336630Y0117457D03*
X0336630Y0109898D03*
X0325803Y0109898D03*
X0325803Y0117457D03*
X0325803Y0125016D03*
X0325803Y0132575D03*
X0325803Y0140134D03*
X0325803Y0147693D03*
X0325803Y0097339D03*
X0325803Y0089465D03*
X0325803Y0081591D03*
X0336630Y0081591D03*
X0336630Y0089465D03*
X0336630Y0097339D03*
X0336630Y0059189D03*
X0336630Y0052142D03*
X0336630Y0045094D03*
X0336630Y0038047D03*
X0336630Y0031000D03*
X0325803Y0031000D03*
X0325803Y0038047D03*
X0325803Y0045094D03*
X0325803Y0052142D03*
X0325803Y0059189D03*
X0261827Y0062496D03*
X0261827Y0069858D03*
X0261827Y0077220D03*
X0261827Y0084583D03*
X0261827Y0093992D03*
X0261827Y0101354D03*
X0261827Y0108717D03*
X0261827Y0116079D03*
X0261827Y0125488D03*
X0261827Y0132850D03*
X0261827Y0140213D03*
X0261827Y0147575D03*
X0251000Y0147575D03*
X0251000Y0140213D03*
X0251000Y0132850D03*
X0251000Y0125488D03*
X0251000Y0116079D03*
X0251000Y0108717D03*
X0251000Y0101354D03*
X0251000Y0093992D03*
X0251000Y0084583D03*
X0251000Y0077220D03*
X0251000Y0069858D03*
X0251000Y0062496D03*
X0251000Y0053087D03*
X0251000Y0045724D03*
X0251000Y0038362D03*
X0251000Y0031000D03*
X0261827Y0031000D03*
X0261827Y0038362D03*
X0261827Y0045724D03*
X0261827Y0053087D03*
X0146000Y0054012D03*
X0146000Y0046650D03*
X0146000Y0039287D03*
X0146000Y0031925D03*
X0135173Y0031925D03*
X0135173Y0039287D03*
X0135173Y0046650D03*
X0135173Y0054012D03*
X0135173Y0063421D03*
X0135173Y0070783D03*
X0135173Y0078146D03*
X0135173Y0085508D03*
X0135173Y0094917D03*
X0135173Y0102280D03*
X0135173Y0109642D03*
X0135173Y0117004D03*
X0135173Y0126413D03*
X0135173Y0133776D03*
X0135173Y0141138D03*
X0135173Y0148500D03*
X0146000Y0148500D03*
X0146000Y0141138D03*
X0146000Y0133776D03*
X0146000Y0126413D03*
X0146000Y0117004D03*
X0146000Y0109642D03*
X0146000Y0102280D03*
X0146000Y0094917D03*
X0146000Y0085508D03*
X0146000Y0078146D03*
X0146000Y0070783D03*
X0146000Y0063421D03*
X0071197Y0062043D03*
X0071197Y0054484D03*
X0071197Y0046925D03*
X0071197Y0039366D03*
X0071197Y0031807D03*
X0060370Y0031807D03*
X0060370Y0039366D03*
X0060370Y0046925D03*
X0060370Y0054484D03*
X0060370Y0062043D03*
X0060370Y0069602D03*
X0071197Y0069602D03*
X0071197Y0082161D03*
X0071197Y0090035D03*
X0071197Y0097909D03*
X0060370Y0097909D03*
X0060370Y0090035D03*
X0060370Y0082161D03*
X0060370Y0120311D03*
X0060370Y0127358D03*
X0060370Y0134406D03*
X0060370Y0141453D03*
X0060370Y0148500D03*
X0071197Y0148500D03*
X0071197Y0141453D03*
X0071197Y0134406D03*
X0071197Y0127358D03*
X0071197Y0120311D03*
X0071197Y0169307D03*
X0071197Y0176866D03*
X0071197Y0184425D03*
X0071197Y0191984D03*
X0071197Y0199543D03*
X0071197Y0207102D03*
X0060370Y0207102D03*
X0060370Y0199543D03*
X0060370Y0191984D03*
X0060370Y0184425D03*
X0060370Y0176866D03*
X0060370Y0169307D03*
X0060370Y0219661D03*
X0060370Y0227535D03*
X0060370Y0235409D03*
X0071197Y0235409D03*
X0071197Y0227535D03*
X0071197Y0219661D03*
X0071197Y0257811D03*
X0071197Y0264858D03*
X0071197Y0271906D03*
X0071197Y0278953D03*
X0071197Y0286000D03*
X0060370Y0286000D03*
X0060370Y0278953D03*
X0060370Y0271906D03*
X0060370Y0264858D03*
X0060370Y0257811D03*
X0135173Y0254504D03*
X0135173Y0247142D03*
X0135173Y0239780D03*
X0135173Y0232417D03*
X0135173Y0223008D03*
X0135173Y0215646D03*
X0135173Y0208283D03*
X0135173Y0200921D03*
X0135173Y0191512D03*
X0135173Y0184150D03*
X0135173Y0176787D03*
X0135173Y0169425D03*
X0146000Y0169425D03*
X0146000Y0176787D03*
X0146000Y0184150D03*
X0146000Y0191512D03*
X0146000Y0200921D03*
X0146000Y0208283D03*
X0146000Y0215646D03*
X0146000Y0223008D03*
X0146000Y0232417D03*
X0146000Y0239780D03*
X0146000Y0247142D03*
X0146000Y0254504D03*
X0146000Y0263913D03*
X0146000Y0271276D03*
X0146000Y0278638D03*
X0146000Y0286000D03*
X0135173Y0286000D03*
X0135173Y0278638D03*
X0135173Y0271276D03*
X0135173Y0263913D03*
X0251000Y0260488D03*
X0251000Y0267850D03*
X0251000Y0275213D03*
X0251000Y0282575D03*
X0261827Y0282575D03*
X0261827Y0275213D03*
X0261827Y0267850D03*
X0261827Y0260488D03*
X0261827Y0251079D03*
X0261827Y0243717D03*
X0261827Y0236354D03*
X0261827Y0228992D03*
X0261827Y0219583D03*
X0261827Y0212220D03*
X0261827Y0204858D03*
X0261827Y0197496D03*
X0261827Y0188087D03*
X0261827Y0180724D03*
X0261827Y0173362D03*
X0261827Y0166000D03*
X0251000Y0166000D03*
X0251000Y0173362D03*
X0251000Y0180724D03*
X0251000Y0188087D03*
X0251000Y0197496D03*
X0251000Y0204858D03*
X0251000Y0212220D03*
X0251000Y0219583D03*
X0251000Y0228992D03*
X0251000Y0236354D03*
X0251000Y0243717D03*
X0251000Y0251079D03*
D13*
X0221000Y0258500D03*
X0211000Y0258500D03*
X0211000Y0228500D03*
X0221000Y0228500D03*
X0381000Y0096000D03*
X0381000Y0086000D03*
X0358500Y0031000D03*
X0348500Y0031000D03*
X0046000Y0028500D03*
X0036000Y0028500D03*
X0011000Y0081000D03*
X0011000Y0091000D03*
D14*
X0018500Y0188500D03*
X0040941Y0188500D03*
X0356059Y0188500D03*
X0378500Y0188500D03*
D15*
X0379799Y0164169D03*
X0379799Y0212831D03*
X0017201Y0212831D03*
X0017201Y0164169D03*
D16*
X0174975Y0163343D02*
X0182025Y0163343D01*
X0182025Y0143657D02*
X0174975Y0143657D01*
X0174975Y0123343D02*
X0182025Y0123343D01*
X0182025Y0103657D02*
X0174975Y0103657D01*
X0174975Y0083343D02*
X0182025Y0083343D01*
X0182025Y0063657D02*
X0174975Y0063657D01*
X0212475Y0063657D02*
X0219525Y0063657D01*
X0219525Y0083343D02*
X0212475Y0083343D01*
X0212475Y0103657D02*
X0219525Y0103657D01*
X0219525Y0123343D02*
X0212475Y0123343D01*
X0212475Y0143657D02*
X0219525Y0143657D01*
X0219525Y0163343D02*
X0212475Y0163343D01*
X0212475Y0183657D02*
X0219525Y0183657D01*
X0219525Y0203343D02*
X0212475Y0203343D01*
X0182025Y0203343D02*
X0174975Y0203343D01*
X0174975Y0183657D02*
X0182025Y0183657D01*
X0182025Y0223657D02*
X0174975Y0223657D01*
X0174975Y0243343D02*
X0182025Y0243343D01*
X0182025Y0263657D02*
X0174975Y0263657D01*
X0174975Y0283343D02*
X0182025Y0283343D01*
D17*
X0044000Y0241000D02*
X0038000Y0241000D01*
X0038000Y0231000D02*
X0044000Y0231000D01*
X0044000Y0221000D02*
X0038000Y0221000D01*
X0038000Y0211000D02*
X0044000Y0211000D01*
X0044000Y0098500D02*
X0038000Y0098500D01*
X0038000Y0088500D02*
X0044000Y0088500D01*
X0044000Y0078500D02*
X0038000Y0078500D01*
X0038000Y0068500D02*
X0044000Y0068500D01*
X0350500Y0078500D02*
X0356500Y0078500D01*
X0356500Y0088500D02*
X0350500Y0088500D01*
X0350500Y0098500D02*
X0356500Y0098500D01*
X0356500Y0108500D02*
X0350500Y0108500D01*
X0353000Y0213500D02*
X0359000Y0213500D01*
X0359000Y0223500D02*
X0353000Y0223500D01*
X0353000Y0233500D02*
X0359000Y0233500D01*
X0359000Y0243500D02*
X0353000Y0243500D01*
M02*
