G75*
%MOIN*%
%OFA0B0*%
%FSLAX25Y25*%
%IPPOS*%
%LPD*%
%AMOC8*
5,1,8,0,0,1.08239X$1,22.5*
%
%ADD10C,0.00000*%
%ADD11C,0.05906*%
%ADD12OC8,0.06300*%
%ADD13C,0.10630*%
%ADD14C,0.07050*%
%ADD15C,0.06000*%
%ADD16C,0.01600*%
D10*
X0001000Y0001000D02*
X0001000Y0315000D01*
X0391000Y0315000D01*
X0391000Y0001000D01*
X0001000Y0001000D01*
X0013800Y0021000D02*
X0013802Y0021177D01*
X0013809Y0021353D01*
X0013820Y0021530D01*
X0013835Y0021706D01*
X0013854Y0021881D01*
X0013878Y0022056D01*
X0013906Y0022231D01*
X0013938Y0022405D01*
X0013975Y0022578D01*
X0014016Y0022749D01*
X0014061Y0022920D01*
X0014110Y0023090D01*
X0014163Y0023259D01*
X0014221Y0023426D01*
X0014282Y0023591D01*
X0014348Y0023755D01*
X0014418Y0023918D01*
X0014491Y0024078D01*
X0014569Y0024237D01*
X0014650Y0024394D01*
X0014735Y0024549D01*
X0014824Y0024702D01*
X0014917Y0024852D01*
X0015013Y0025000D01*
X0015113Y0025146D01*
X0015217Y0025289D01*
X0015324Y0025430D01*
X0015434Y0025568D01*
X0015548Y0025703D01*
X0015665Y0025835D01*
X0015785Y0025965D01*
X0015909Y0026091D01*
X0016035Y0026215D01*
X0016165Y0026335D01*
X0016297Y0026452D01*
X0016432Y0026566D01*
X0016570Y0026676D01*
X0016711Y0026783D01*
X0016854Y0026887D01*
X0017000Y0026987D01*
X0017148Y0027083D01*
X0017298Y0027176D01*
X0017451Y0027265D01*
X0017606Y0027350D01*
X0017763Y0027431D01*
X0017922Y0027509D01*
X0018082Y0027582D01*
X0018245Y0027652D01*
X0018409Y0027718D01*
X0018574Y0027779D01*
X0018741Y0027837D01*
X0018910Y0027890D01*
X0019080Y0027939D01*
X0019251Y0027984D01*
X0019422Y0028025D01*
X0019595Y0028062D01*
X0019769Y0028094D01*
X0019944Y0028122D01*
X0020119Y0028146D01*
X0020294Y0028165D01*
X0020470Y0028180D01*
X0020647Y0028191D01*
X0020823Y0028198D01*
X0021000Y0028200D01*
X0021177Y0028198D01*
X0021353Y0028191D01*
X0021530Y0028180D01*
X0021706Y0028165D01*
X0021881Y0028146D01*
X0022056Y0028122D01*
X0022231Y0028094D01*
X0022405Y0028062D01*
X0022578Y0028025D01*
X0022749Y0027984D01*
X0022920Y0027939D01*
X0023090Y0027890D01*
X0023259Y0027837D01*
X0023426Y0027779D01*
X0023591Y0027718D01*
X0023755Y0027652D01*
X0023918Y0027582D01*
X0024078Y0027509D01*
X0024237Y0027431D01*
X0024394Y0027350D01*
X0024549Y0027265D01*
X0024702Y0027176D01*
X0024852Y0027083D01*
X0025000Y0026987D01*
X0025146Y0026887D01*
X0025289Y0026783D01*
X0025430Y0026676D01*
X0025568Y0026566D01*
X0025703Y0026452D01*
X0025835Y0026335D01*
X0025965Y0026215D01*
X0026091Y0026091D01*
X0026215Y0025965D01*
X0026335Y0025835D01*
X0026452Y0025703D01*
X0026566Y0025568D01*
X0026676Y0025430D01*
X0026783Y0025289D01*
X0026887Y0025146D01*
X0026987Y0025000D01*
X0027083Y0024852D01*
X0027176Y0024702D01*
X0027265Y0024549D01*
X0027350Y0024394D01*
X0027431Y0024237D01*
X0027509Y0024078D01*
X0027582Y0023918D01*
X0027652Y0023755D01*
X0027718Y0023591D01*
X0027779Y0023426D01*
X0027837Y0023259D01*
X0027890Y0023090D01*
X0027939Y0022920D01*
X0027984Y0022749D01*
X0028025Y0022578D01*
X0028062Y0022405D01*
X0028094Y0022231D01*
X0028122Y0022056D01*
X0028146Y0021881D01*
X0028165Y0021706D01*
X0028180Y0021530D01*
X0028191Y0021353D01*
X0028198Y0021177D01*
X0028200Y0021000D01*
X0028198Y0020823D01*
X0028191Y0020647D01*
X0028180Y0020470D01*
X0028165Y0020294D01*
X0028146Y0020119D01*
X0028122Y0019944D01*
X0028094Y0019769D01*
X0028062Y0019595D01*
X0028025Y0019422D01*
X0027984Y0019251D01*
X0027939Y0019080D01*
X0027890Y0018910D01*
X0027837Y0018741D01*
X0027779Y0018574D01*
X0027718Y0018409D01*
X0027652Y0018245D01*
X0027582Y0018082D01*
X0027509Y0017922D01*
X0027431Y0017763D01*
X0027350Y0017606D01*
X0027265Y0017451D01*
X0027176Y0017298D01*
X0027083Y0017148D01*
X0026987Y0017000D01*
X0026887Y0016854D01*
X0026783Y0016711D01*
X0026676Y0016570D01*
X0026566Y0016432D01*
X0026452Y0016297D01*
X0026335Y0016165D01*
X0026215Y0016035D01*
X0026091Y0015909D01*
X0025965Y0015785D01*
X0025835Y0015665D01*
X0025703Y0015548D01*
X0025568Y0015434D01*
X0025430Y0015324D01*
X0025289Y0015217D01*
X0025146Y0015113D01*
X0025000Y0015013D01*
X0024852Y0014917D01*
X0024702Y0014824D01*
X0024549Y0014735D01*
X0024394Y0014650D01*
X0024237Y0014569D01*
X0024078Y0014491D01*
X0023918Y0014418D01*
X0023755Y0014348D01*
X0023591Y0014282D01*
X0023426Y0014221D01*
X0023259Y0014163D01*
X0023090Y0014110D01*
X0022920Y0014061D01*
X0022749Y0014016D01*
X0022578Y0013975D01*
X0022405Y0013938D01*
X0022231Y0013906D01*
X0022056Y0013878D01*
X0021881Y0013854D01*
X0021706Y0013835D01*
X0021530Y0013820D01*
X0021353Y0013809D01*
X0021177Y0013802D01*
X0021000Y0013800D01*
X0020823Y0013802D01*
X0020647Y0013809D01*
X0020470Y0013820D01*
X0020294Y0013835D01*
X0020119Y0013854D01*
X0019944Y0013878D01*
X0019769Y0013906D01*
X0019595Y0013938D01*
X0019422Y0013975D01*
X0019251Y0014016D01*
X0019080Y0014061D01*
X0018910Y0014110D01*
X0018741Y0014163D01*
X0018574Y0014221D01*
X0018409Y0014282D01*
X0018245Y0014348D01*
X0018082Y0014418D01*
X0017922Y0014491D01*
X0017763Y0014569D01*
X0017606Y0014650D01*
X0017451Y0014735D01*
X0017298Y0014824D01*
X0017148Y0014917D01*
X0017000Y0015013D01*
X0016854Y0015113D01*
X0016711Y0015217D01*
X0016570Y0015324D01*
X0016432Y0015434D01*
X0016297Y0015548D01*
X0016165Y0015665D01*
X0016035Y0015785D01*
X0015909Y0015909D01*
X0015785Y0016035D01*
X0015665Y0016165D01*
X0015548Y0016297D01*
X0015434Y0016432D01*
X0015324Y0016570D01*
X0015217Y0016711D01*
X0015113Y0016854D01*
X0015013Y0017000D01*
X0014917Y0017148D01*
X0014824Y0017298D01*
X0014735Y0017451D01*
X0014650Y0017606D01*
X0014569Y0017763D01*
X0014491Y0017922D01*
X0014418Y0018082D01*
X0014348Y0018245D01*
X0014282Y0018409D01*
X0014221Y0018574D01*
X0014163Y0018741D01*
X0014110Y0018910D01*
X0014061Y0019080D01*
X0014016Y0019251D01*
X0013975Y0019422D01*
X0013938Y0019595D01*
X0013906Y0019769D01*
X0013878Y0019944D01*
X0013854Y0020119D01*
X0013835Y0020294D01*
X0013820Y0020470D01*
X0013809Y0020647D01*
X0013802Y0020823D01*
X0013800Y0021000D01*
X0092500Y0013500D02*
X0092503Y0013709D01*
X0092510Y0013917D01*
X0092523Y0014125D01*
X0092541Y0014333D01*
X0092564Y0014540D01*
X0092592Y0014747D01*
X0092625Y0014953D01*
X0092663Y0015158D01*
X0092707Y0015362D01*
X0092755Y0015565D01*
X0092808Y0015767D01*
X0092866Y0015967D01*
X0092929Y0016166D01*
X0092997Y0016364D01*
X0093070Y0016559D01*
X0093147Y0016753D01*
X0093229Y0016945D01*
X0093316Y0017134D01*
X0093408Y0017322D01*
X0093504Y0017507D01*
X0093604Y0017690D01*
X0093709Y0017870D01*
X0093819Y0018047D01*
X0093933Y0018222D01*
X0094051Y0018394D01*
X0094173Y0018563D01*
X0094299Y0018729D01*
X0094429Y0018892D01*
X0094564Y0019052D01*
X0094702Y0019208D01*
X0094844Y0019361D01*
X0094990Y0019510D01*
X0095139Y0019656D01*
X0095292Y0019798D01*
X0095448Y0019936D01*
X0095608Y0020071D01*
X0095771Y0020201D01*
X0095937Y0020327D01*
X0096106Y0020449D01*
X0096278Y0020567D01*
X0096453Y0020681D01*
X0096630Y0020791D01*
X0096810Y0020896D01*
X0096993Y0020996D01*
X0097178Y0021092D01*
X0097366Y0021184D01*
X0097555Y0021271D01*
X0097747Y0021353D01*
X0097941Y0021430D01*
X0098136Y0021503D01*
X0098334Y0021571D01*
X0098533Y0021634D01*
X0098733Y0021692D01*
X0098935Y0021745D01*
X0099138Y0021793D01*
X0099342Y0021837D01*
X0099547Y0021875D01*
X0099753Y0021908D01*
X0099960Y0021936D01*
X0100167Y0021959D01*
X0100375Y0021977D01*
X0100583Y0021990D01*
X0100791Y0021997D01*
X0101000Y0022000D01*
X0101209Y0021997D01*
X0101417Y0021990D01*
X0101625Y0021977D01*
X0101833Y0021959D01*
X0102040Y0021936D01*
X0102247Y0021908D01*
X0102453Y0021875D01*
X0102658Y0021837D01*
X0102862Y0021793D01*
X0103065Y0021745D01*
X0103267Y0021692D01*
X0103467Y0021634D01*
X0103666Y0021571D01*
X0103864Y0021503D01*
X0104059Y0021430D01*
X0104253Y0021353D01*
X0104445Y0021271D01*
X0104634Y0021184D01*
X0104822Y0021092D01*
X0105007Y0020996D01*
X0105190Y0020896D01*
X0105370Y0020791D01*
X0105547Y0020681D01*
X0105722Y0020567D01*
X0105894Y0020449D01*
X0106063Y0020327D01*
X0106229Y0020201D01*
X0106392Y0020071D01*
X0106552Y0019936D01*
X0106708Y0019798D01*
X0106861Y0019656D01*
X0107010Y0019510D01*
X0107156Y0019361D01*
X0107298Y0019208D01*
X0107436Y0019052D01*
X0107571Y0018892D01*
X0107701Y0018729D01*
X0107827Y0018563D01*
X0107949Y0018394D01*
X0108067Y0018222D01*
X0108181Y0018047D01*
X0108291Y0017870D01*
X0108396Y0017690D01*
X0108496Y0017507D01*
X0108592Y0017322D01*
X0108684Y0017134D01*
X0108771Y0016945D01*
X0108853Y0016753D01*
X0108930Y0016559D01*
X0109003Y0016364D01*
X0109071Y0016166D01*
X0109134Y0015967D01*
X0109192Y0015767D01*
X0109245Y0015565D01*
X0109293Y0015362D01*
X0109337Y0015158D01*
X0109375Y0014953D01*
X0109408Y0014747D01*
X0109436Y0014540D01*
X0109459Y0014333D01*
X0109477Y0014125D01*
X0109490Y0013917D01*
X0109497Y0013709D01*
X0109500Y0013500D01*
X0109497Y0013291D01*
X0109490Y0013083D01*
X0109477Y0012875D01*
X0109459Y0012667D01*
X0109436Y0012460D01*
X0109408Y0012253D01*
X0109375Y0012047D01*
X0109337Y0011842D01*
X0109293Y0011638D01*
X0109245Y0011435D01*
X0109192Y0011233D01*
X0109134Y0011033D01*
X0109071Y0010834D01*
X0109003Y0010636D01*
X0108930Y0010441D01*
X0108853Y0010247D01*
X0108771Y0010055D01*
X0108684Y0009866D01*
X0108592Y0009678D01*
X0108496Y0009493D01*
X0108396Y0009310D01*
X0108291Y0009130D01*
X0108181Y0008953D01*
X0108067Y0008778D01*
X0107949Y0008606D01*
X0107827Y0008437D01*
X0107701Y0008271D01*
X0107571Y0008108D01*
X0107436Y0007948D01*
X0107298Y0007792D01*
X0107156Y0007639D01*
X0107010Y0007490D01*
X0106861Y0007344D01*
X0106708Y0007202D01*
X0106552Y0007064D01*
X0106392Y0006929D01*
X0106229Y0006799D01*
X0106063Y0006673D01*
X0105894Y0006551D01*
X0105722Y0006433D01*
X0105547Y0006319D01*
X0105370Y0006209D01*
X0105190Y0006104D01*
X0105007Y0006004D01*
X0104822Y0005908D01*
X0104634Y0005816D01*
X0104445Y0005729D01*
X0104253Y0005647D01*
X0104059Y0005570D01*
X0103864Y0005497D01*
X0103666Y0005429D01*
X0103467Y0005366D01*
X0103267Y0005308D01*
X0103065Y0005255D01*
X0102862Y0005207D01*
X0102658Y0005163D01*
X0102453Y0005125D01*
X0102247Y0005092D01*
X0102040Y0005064D01*
X0101833Y0005041D01*
X0101625Y0005023D01*
X0101417Y0005010D01*
X0101209Y0005003D01*
X0101000Y0005000D01*
X0100791Y0005003D01*
X0100583Y0005010D01*
X0100375Y0005023D01*
X0100167Y0005041D01*
X0099960Y0005064D01*
X0099753Y0005092D01*
X0099547Y0005125D01*
X0099342Y0005163D01*
X0099138Y0005207D01*
X0098935Y0005255D01*
X0098733Y0005308D01*
X0098533Y0005366D01*
X0098334Y0005429D01*
X0098136Y0005497D01*
X0097941Y0005570D01*
X0097747Y0005647D01*
X0097555Y0005729D01*
X0097366Y0005816D01*
X0097178Y0005908D01*
X0096993Y0006004D01*
X0096810Y0006104D01*
X0096630Y0006209D01*
X0096453Y0006319D01*
X0096278Y0006433D01*
X0096106Y0006551D01*
X0095937Y0006673D01*
X0095771Y0006799D01*
X0095608Y0006929D01*
X0095448Y0007064D01*
X0095292Y0007202D01*
X0095139Y0007344D01*
X0094990Y0007490D01*
X0094844Y0007639D01*
X0094702Y0007792D01*
X0094564Y0007948D01*
X0094429Y0008108D01*
X0094299Y0008271D01*
X0094173Y0008437D01*
X0094051Y0008606D01*
X0093933Y0008778D01*
X0093819Y0008953D01*
X0093709Y0009130D01*
X0093604Y0009310D01*
X0093504Y0009493D01*
X0093408Y0009678D01*
X0093316Y0009866D01*
X0093229Y0010055D01*
X0093147Y0010247D01*
X0093070Y0010441D01*
X0092997Y0010636D01*
X0092929Y0010834D01*
X0092866Y0011033D01*
X0092808Y0011233D01*
X0092755Y0011435D01*
X0092707Y0011638D01*
X0092663Y0011842D01*
X0092625Y0012047D01*
X0092592Y0012253D01*
X0092564Y0012460D01*
X0092541Y0012667D01*
X0092523Y0012875D01*
X0092510Y0013083D01*
X0092503Y0013291D01*
X0092500Y0013500D01*
X0011295Y0164169D02*
X0011297Y0164322D01*
X0011303Y0164476D01*
X0011313Y0164629D01*
X0011327Y0164781D01*
X0011345Y0164934D01*
X0011367Y0165085D01*
X0011392Y0165236D01*
X0011422Y0165387D01*
X0011456Y0165537D01*
X0011493Y0165685D01*
X0011534Y0165833D01*
X0011579Y0165979D01*
X0011628Y0166125D01*
X0011681Y0166269D01*
X0011737Y0166411D01*
X0011797Y0166552D01*
X0011861Y0166692D01*
X0011928Y0166830D01*
X0011999Y0166966D01*
X0012074Y0167100D01*
X0012151Y0167232D01*
X0012233Y0167362D01*
X0012317Y0167490D01*
X0012405Y0167616D01*
X0012496Y0167739D01*
X0012590Y0167860D01*
X0012688Y0167978D01*
X0012788Y0168094D01*
X0012892Y0168207D01*
X0012998Y0168318D01*
X0013107Y0168426D01*
X0013219Y0168531D01*
X0013333Y0168632D01*
X0013451Y0168731D01*
X0013570Y0168827D01*
X0013692Y0168920D01*
X0013817Y0169009D01*
X0013944Y0169096D01*
X0014073Y0169178D01*
X0014204Y0169258D01*
X0014337Y0169334D01*
X0014472Y0169407D01*
X0014609Y0169476D01*
X0014748Y0169541D01*
X0014888Y0169603D01*
X0015030Y0169661D01*
X0015173Y0169716D01*
X0015318Y0169767D01*
X0015464Y0169814D01*
X0015611Y0169857D01*
X0015759Y0169896D01*
X0015908Y0169932D01*
X0016058Y0169963D01*
X0016209Y0169991D01*
X0016360Y0170015D01*
X0016513Y0170035D01*
X0016665Y0170051D01*
X0016818Y0170063D01*
X0016971Y0170071D01*
X0017124Y0170075D01*
X0017278Y0170075D01*
X0017431Y0170071D01*
X0017584Y0170063D01*
X0017737Y0170051D01*
X0017889Y0170035D01*
X0018042Y0170015D01*
X0018193Y0169991D01*
X0018344Y0169963D01*
X0018494Y0169932D01*
X0018643Y0169896D01*
X0018791Y0169857D01*
X0018938Y0169814D01*
X0019084Y0169767D01*
X0019229Y0169716D01*
X0019372Y0169661D01*
X0019514Y0169603D01*
X0019654Y0169541D01*
X0019793Y0169476D01*
X0019930Y0169407D01*
X0020065Y0169334D01*
X0020198Y0169258D01*
X0020329Y0169178D01*
X0020458Y0169096D01*
X0020585Y0169009D01*
X0020710Y0168920D01*
X0020832Y0168827D01*
X0020951Y0168731D01*
X0021069Y0168632D01*
X0021183Y0168531D01*
X0021295Y0168426D01*
X0021404Y0168318D01*
X0021510Y0168207D01*
X0021614Y0168094D01*
X0021714Y0167978D01*
X0021812Y0167860D01*
X0021906Y0167739D01*
X0021997Y0167616D01*
X0022085Y0167490D01*
X0022169Y0167362D01*
X0022251Y0167232D01*
X0022328Y0167100D01*
X0022403Y0166966D01*
X0022474Y0166830D01*
X0022541Y0166692D01*
X0022605Y0166552D01*
X0022665Y0166411D01*
X0022721Y0166269D01*
X0022774Y0166125D01*
X0022823Y0165979D01*
X0022868Y0165833D01*
X0022909Y0165685D01*
X0022946Y0165537D01*
X0022980Y0165387D01*
X0023010Y0165236D01*
X0023035Y0165085D01*
X0023057Y0164934D01*
X0023075Y0164781D01*
X0023089Y0164629D01*
X0023099Y0164476D01*
X0023105Y0164322D01*
X0023107Y0164169D01*
X0023105Y0164016D01*
X0023099Y0163862D01*
X0023089Y0163709D01*
X0023075Y0163557D01*
X0023057Y0163404D01*
X0023035Y0163253D01*
X0023010Y0163102D01*
X0022980Y0162951D01*
X0022946Y0162801D01*
X0022909Y0162653D01*
X0022868Y0162505D01*
X0022823Y0162359D01*
X0022774Y0162213D01*
X0022721Y0162069D01*
X0022665Y0161927D01*
X0022605Y0161786D01*
X0022541Y0161646D01*
X0022474Y0161508D01*
X0022403Y0161372D01*
X0022328Y0161238D01*
X0022251Y0161106D01*
X0022169Y0160976D01*
X0022085Y0160848D01*
X0021997Y0160722D01*
X0021906Y0160599D01*
X0021812Y0160478D01*
X0021714Y0160360D01*
X0021614Y0160244D01*
X0021510Y0160131D01*
X0021404Y0160020D01*
X0021295Y0159912D01*
X0021183Y0159807D01*
X0021069Y0159706D01*
X0020951Y0159607D01*
X0020832Y0159511D01*
X0020710Y0159418D01*
X0020585Y0159329D01*
X0020458Y0159242D01*
X0020329Y0159160D01*
X0020198Y0159080D01*
X0020065Y0159004D01*
X0019930Y0158931D01*
X0019793Y0158862D01*
X0019654Y0158797D01*
X0019514Y0158735D01*
X0019372Y0158677D01*
X0019229Y0158622D01*
X0019084Y0158571D01*
X0018938Y0158524D01*
X0018791Y0158481D01*
X0018643Y0158442D01*
X0018494Y0158406D01*
X0018344Y0158375D01*
X0018193Y0158347D01*
X0018042Y0158323D01*
X0017889Y0158303D01*
X0017737Y0158287D01*
X0017584Y0158275D01*
X0017431Y0158267D01*
X0017278Y0158263D01*
X0017124Y0158263D01*
X0016971Y0158267D01*
X0016818Y0158275D01*
X0016665Y0158287D01*
X0016513Y0158303D01*
X0016360Y0158323D01*
X0016209Y0158347D01*
X0016058Y0158375D01*
X0015908Y0158406D01*
X0015759Y0158442D01*
X0015611Y0158481D01*
X0015464Y0158524D01*
X0015318Y0158571D01*
X0015173Y0158622D01*
X0015030Y0158677D01*
X0014888Y0158735D01*
X0014748Y0158797D01*
X0014609Y0158862D01*
X0014472Y0158931D01*
X0014337Y0159004D01*
X0014204Y0159080D01*
X0014073Y0159160D01*
X0013944Y0159242D01*
X0013817Y0159329D01*
X0013692Y0159418D01*
X0013570Y0159511D01*
X0013451Y0159607D01*
X0013333Y0159706D01*
X0013219Y0159807D01*
X0013107Y0159912D01*
X0012998Y0160020D01*
X0012892Y0160131D01*
X0012788Y0160244D01*
X0012688Y0160360D01*
X0012590Y0160478D01*
X0012496Y0160599D01*
X0012405Y0160722D01*
X0012317Y0160848D01*
X0012233Y0160976D01*
X0012151Y0161106D01*
X0012074Y0161238D01*
X0011999Y0161372D01*
X0011928Y0161508D01*
X0011861Y0161646D01*
X0011797Y0161786D01*
X0011737Y0161927D01*
X0011681Y0162069D01*
X0011628Y0162213D01*
X0011579Y0162359D01*
X0011534Y0162505D01*
X0011493Y0162653D01*
X0011456Y0162801D01*
X0011422Y0162951D01*
X0011392Y0163102D01*
X0011367Y0163253D01*
X0011345Y0163404D01*
X0011327Y0163557D01*
X0011313Y0163709D01*
X0011303Y0163862D01*
X0011297Y0164016D01*
X0011295Y0164169D01*
X0011295Y0212831D02*
X0011297Y0212984D01*
X0011303Y0213138D01*
X0011313Y0213291D01*
X0011327Y0213443D01*
X0011345Y0213596D01*
X0011367Y0213747D01*
X0011392Y0213898D01*
X0011422Y0214049D01*
X0011456Y0214199D01*
X0011493Y0214347D01*
X0011534Y0214495D01*
X0011579Y0214641D01*
X0011628Y0214787D01*
X0011681Y0214931D01*
X0011737Y0215073D01*
X0011797Y0215214D01*
X0011861Y0215354D01*
X0011928Y0215492D01*
X0011999Y0215628D01*
X0012074Y0215762D01*
X0012151Y0215894D01*
X0012233Y0216024D01*
X0012317Y0216152D01*
X0012405Y0216278D01*
X0012496Y0216401D01*
X0012590Y0216522D01*
X0012688Y0216640D01*
X0012788Y0216756D01*
X0012892Y0216869D01*
X0012998Y0216980D01*
X0013107Y0217088D01*
X0013219Y0217193D01*
X0013333Y0217294D01*
X0013451Y0217393D01*
X0013570Y0217489D01*
X0013692Y0217582D01*
X0013817Y0217671D01*
X0013944Y0217758D01*
X0014073Y0217840D01*
X0014204Y0217920D01*
X0014337Y0217996D01*
X0014472Y0218069D01*
X0014609Y0218138D01*
X0014748Y0218203D01*
X0014888Y0218265D01*
X0015030Y0218323D01*
X0015173Y0218378D01*
X0015318Y0218429D01*
X0015464Y0218476D01*
X0015611Y0218519D01*
X0015759Y0218558D01*
X0015908Y0218594D01*
X0016058Y0218625D01*
X0016209Y0218653D01*
X0016360Y0218677D01*
X0016513Y0218697D01*
X0016665Y0218713D01*
X0016818Y0218725D01*
X0016971Y0218733D01*
X0017124Y0218737D01*
X0017278Y0218737D01*
X0017431Y0218733D01*
X0017584Y0218725D01*
X0017737Y0218713D01*
X0017889Y0218697D01*
X0018042Y0218677D01*
X0018193Y0218653D01*
X0018344Y0218625D01*
X0018494Y0218594D01*
X0018643Y0218558D01*
X0018791Y0218519D01*
X0018938Y0218476D01*
X0019084Y0218429D01*
X0019229Y0218378D01*
X0019372Y0218323D01*
X0019514Y0218265D01*
X0019654Y0218203D01*
X0019793Y0218138D01*
X0019930Y0218069D01*
X0020065Y0217996D01*
X0020198Y0217920D01*
X0020329Y0217840D01*
X0020458Y0217758D01*
X0020585Y0217671D01*
X0020710Y0217582D01*
X0020832Y0217489D01*
X0020951Y0217393D01*
X0021069Y0217294D01*
X0021183Y0217193D01*
X0021295Y0217088D01*
X0021404Y0216980D01*
X0021510Y0216869D01*
X0021614Y0216756D01*
X0021714Y0216640D01*
X0021812Y0216522D01*
X0021906Y0216401D01*
X0021997Y0216278D01*
X0022085Y0216152D01*
X0022169Y0216024D01*
X0022251Y0215894D01*
X0022328Y0215762D01*
X0022403Y0215628D01*
X0022474Y0215492D01*
X0022541Y0215354D01*
X0022605Y0215214D01*
X0022665Y0215073D01*
X0022721Y0214931D01*
X0022774Y0214787D01*
X0022823Y0214641D01*
X0022868Y0214495D01*
X0022909Y0214347D01*
X0022946Y0214199D01*
X0022980Y0214049D01*
X0023010Y0213898D01*
X0023035Y0213747D01*
X0023057Y0213596D01*
X0023075Y0213443D01*
X0023089Y0213291D01*
X0023099Y0213138D01*
X0023105Y0212984D01*
X0023107Y0212831D01*
X0023105Y0212678D01*
X0023099Y0212524D01*
X0023089Y0212371D01*
X0023075Y0212219D01*
X0023057Y0212066D01*
X0023035Y0211915D01*
X0023010Y0211764D01*
X0022980Y0211613D01*
X0022946Y0211463D01*
X0022909Y0211315D01*
X0022868Y0211167D01*
X0022823Y0211021D01*
X0022774Y0210875D01*
X0022721Y0210731D01*
X0022665Y0210589D01*
X0022605Y0210448D01*
X0022541Y0210308D01*
X0022474Y0210170D01*
X0022403Y0210034D01*
X0022328Y0209900D01*
X0022251Y0209768D01*
X0022169Y0209638D01*
X0022085Y0209510D01*
X0021997Y0209384D01*
X0021906Y0209261D01*
X0021812Y0209140D01*
X0021714Y0209022D01*
X0021614Y0208906D01*
X0021510Y0208793D01*
X0021404Y0208682D01*
X0021295Y0208574D01*
X0021183Y0208469D01*
X0021069Y0208368D01*
X0020951Y0208269D01*
X0020832Y0208173D01*
X0020710Y0208080D01*
X0020585Y0207991D01*
X0020458Y0207904D01*
X0020329Y0207822D01*
X0020198Y0207742D01*
X0020065Y0207666D01*
X0019930Y0207593D01*
X0019793Y0207524D01*
X0019654Y0207459D01*
X0019514Y0207397D01*
X0019372Y0207339D01*
X0019229Y0207284D01*
X0019084Y0207233D01*
X0018938Y0207186D01*
X0018791Y0207143D01*
X0018643Y0207104D01*
X0018494Y0207068D01*
X0018344Y0207037D01*
X0018193Y0207009D01*
X0018042Y0206985D01*
X0017889Y0206965D01*
X0017737Y0206949D01*
X0017584Y0206937D01*
X0017431Y0206929D01*
X0017278Y0206925D01*
X0017124Y0206925D01*
X0016971Y0206929D01*
X0016818Y0206937D01*
X0016665Y0206949D01*
X0016513Y0206965D01*
X0016360Y0206985D01*
X0016209Y0207009D01*
X0016058Y0207037D01*
X0015908Y0207068D01*
X0015759Y0207104D01*
X0015611Y0207143D01*
X0015464Y0207186D01*
X0015318Y0207233D01*
X0015173Y0207284D01*
X0015030Y0207339D01*
X0014888Y0207397D01*
X0014748Y0207459D01*
X0014609Y0207524D01*
X0014472Y0207593D01*
X0014337Y0207666D01*
X0014204Y0207742D01*
X0014073Y0207822D01*
X0013944Y0207904D01*
X0013817Y0207991D01*
X0013692Y0208080D01*
X0013570Y0208173D01*
X0013451Y0208269D01*
X0013333Y0208368D01*
X0013219Y0208469D01*
X0013107Y0208574D01*
X0012998Y0208682D01*
X0012892Y0208793D01*
X0012788Y0208906D01*
X0012688Y0209022D01*
X0012590Y0209140D01*
X0012496Y0209261D01*
X0012405Y0209384D01*
X0012317Y0209510D01*
X0012233Y0209638D01*
X0012151Y0209768D01*
X0012074Y0209900D01*
X0011999Y0210034D01*
X0011928Y0210170D01*
X0011861Y0210308D01*
X0011797Y0210448D01*
X0011737Y0210589D01*
X0011681Y0210731D01*
X0011628Y0210875D01*
X0011579Y0211021D01*
X0011534Y0211167D01*
X0011493Y0211315D01*
X0011456Y0211463D01*
X0011422Y0211613D01*
X0011392Y0211764D01*
X0011367Y0211915D01*
X0011345Y0212066D01*
X0011327Y0212219D01*
X0011313Y0212371D01*
X0011303Y0212524D01*
X0011297Y0212678D01*
X0011295Y0212831D01*
X0013800Y0296000D02*
X0013802Y0296177D01*
X0013809Y0296353D01*
X0013820Y0296530D01*
X0013835Y0296706D01*
X0013854Y0296881D01*
X0013878Y0297056D01*
X0013906Y0297231D01*
X0013938Y0297405D01*
X0013975Y0297578D01*
X0014016Y0297749D01*
X0014061Y0297920D01*
X0014110Y0298090D01*
X0014163Y0298259D01*
X0014221Y0298426D01*
X0014282Y0298591D01*
X0014348Y0298755D01*
X0014418Y0298918D01*
X0014491Y0299078D01*
X0014569Y0299237D01*
X0014650Y0299394D01*
X0014735Y0299549D01*
X0014824Y0299702D01*
X0014917Y0299852D01*
X0015013Y0300000D01*
X0015113Y0300146D01*
X0015217Y0300289D01*
X0015324Y0300430D01*
X0015434Y0300568D01*
X0015548Y0300703D01*
X0015665Y0300835D01*
X0015785Y0300965D01*
X0015909Y0301091D01*
X0016035Y0301215D01*
X0016165Y0301335D01*
X0016297Y0301452D01*
X0016432Y0301566D01*
X0016570Y0301676D01*
X0016711Y0301783D01*
X0016854Y0301887D01*
X0017000Y0301987D01*
X0017148Y0302083D01*
X0017298Y0302176D01*
X0017451Y0302265D01*
X0017606Y0302350D01*
X0017763Y0302431D01*
X0017922Y0302509D01*
X0018082Y0302582D01*
X0018245Y0302652D01*
X0018409Y0302718D01*
X0018574Y0302779D01*
X0018741Y0302837D01*
X0018910Y0302890D01*
X0019080Y0302939D01*
X0019251Y0302984D01*
X0019422Y0303025D01*
X0019595Y0303062D01*
X0019769Y0303094D01*
X0019944Y0303122D01*
X0020119Y0303146D01*
X0020294Y0303165D01*
X0020470Y0303180D01*
X0020647Y0303191D01*
X0020823Y0303198D01*
X0021000Y0303200D01*
X0021177Y0303198D01*
X0021353Y0303191D01*
X0021530Y0303180D01*
X0021706Y0303165D01*
X0021881Y0303146D01*
X0022056Y0303122D01*
X0022231Y0303094D01*
X0022405Y0303062D01*
X0022578Y0303025D01*
X0022749Y0302984D01*
X0022920Y0302939D01*
X0023090Y0302890D01*
X0023259Y0302837D01*
X0023426Y0302779D01*
X0023591Y0302718D01*
X0023755Y0302652D01*
X0023918Y0302582D01*
X0024078Y0302509D01*
X0024237Y0302431D01*
X0024394Y0302350D01*
X0024549Y0302265D01*
X0024702Y0302176D01*
X0024852Y0302083D01*
X0025000Y0301987D01*
X0025146Y0301887D01*
X0025289Y0301783D01*
X0025430Y0301676D01*
X0025568Y0301566D01*
X0025703Y0301452D01*
X0025835Y0301335D01*
X0025965Y0301215D01*
X0026091Y0301091D01*
X0026215Y0300965D01*
X0026335Y0300835D01*
X0026452Y0300703D01*
X0026566Y0300568D01*
X0026676Y0300430D01*
X0026783Y0300289D01*
X0026887Y0300146D01*
X0026987Y0300000D01*
X0027083Y0299852D01*
X0027176Y0299702D01*
X0027265Y0299549D01*
X0027350Y0299394D01*
X0027431Y0299237D01*
X0027509Y0299078D01*
X0027582Y0298918D01*
X0027652Y0298755D01*
X0027718Y0298591D01*
X0027779Y0298426D01*
X0027837Y0298259D01*
X0027890Y0298090D01*
X0027939Y0297920D01*
X0027984Y0297749D01*
X0028025Y0297578D01*
X0028062Y0297405D01*
X0028094Y0297231D01*
X0028122Y0297056D01*
X0028146Y0296881D01*
X0028165Y0296706D01*
X0028180Y0296530D01*
X0028191Y0296353D01*
X0028198Y0296177D01*
X0028200Y0296000D01*
X0028198Y0295823D01*
X0028191Y0295647D01*
X0028180Y0295470D01*
X0028165Y0295294D01*
X0028146Y0295119D01*
X0028122Y0294944D01*
X0028094Y0294769D01*
X0028062Y0294595D01*
X0028025Y0294422D01*
X0027984Y0294251D01*
X0027939Y0294080D01*
X0027890Y0293910D01*
X0027837Y0293741D01*
X0027779Y0293574D01*
X0027718Y0293409D01*
X0027652Y0293245D01*
X0027582Y0293082D01*
X0027509Y0292922D01*
X0027431Y0292763D01*
X0027350Y0292606D01*
X0027265Y0292451D01*
X0027176Y0292298D01*
X0027083Y0292148D01*
X0026987Y0292000D01*
X0026887Y0291854D01*
X0026783Y0291711D01*
X0026676Y0291570D01*
X0026566Y0291432D01*
X0026452Y0291297D01*
X0026335Y0291165D01*
X0026215Y0291035D01*
X0026091Y0290909D01*
X0025965Y0290785D01*
X0025835Y0290665D01*
X0025703Y0290548D01*
X0025568Y0290434D01*
X0025430Y0290324D01*
X0025289Y0290217D01*
X0025146Y0290113D01*
X0025000Y0290013D01*
X0024852Y0289917D01*
X0024702Y0289824D01*
X0024549Y0289735D01*
X0024394Y0289650D01*
X0024237Y0289569D01*
X0024078Y0289491D01*
X0023918Y0289418D01*
X0023755Y0289348D01*
X0023591Y0289282D01*
X0023426Y0289221D01*
X0023259Y0289163D01*
X0023090Y0289110D01*
X0022920Y0289061D01*
X0022749Y0289016D01*
X0022578Y0288975D01*
X0022405Y0288938D01*
X0022231Y0288906D01*
X0022056Y0288878D01*
X0021881Y0288854D01*
X0021706Y0288835D01*
X0021530Y0288820D01*
X0021353Y0288809D01*
X0021177Y0288802D01*
X0021000Y0288800D01*
X0020823Y0288802D01*
X0020647Y0288809D01*
X0020470Y0288820D01*
X0020294Y0288835D01*
X0020119Y0288854D01*
X0019944Y0288878D01*
X0019769Y0288906D01*
X0019595Y0288938D01*
X0019422Y0288975D01*
X0019251Y0289016D01*
X0019080Y0289061D01*
X0018910Y0289110D01*
X0018741Y0289163D01*
X0018574Y0289221D01*
X0018409Y0289282D01*
X0018245Y0289348D01*
X0018082Y0289418D01*
X0017922Y0289491D01*
X0017763Y0289569D01*
X0017606Y0289650D01*
X0017451Y0289735D01*
X0017298Y0289824D01*
X0017148Y0289917D01*
X0017000Y0290013D01*
X0016854Y0290113D01*
X0016711Y0290217D01*
X0016570Y0290324D01*
X0016432Y0290434D01*
X0016297Y0290548D01*
X0016165Y0290665D01*
X0016035Y0290785D01*
X0015909Y0290909D01*
X0015785Y0291035D01*
X0015665Y0291165D01*
X0015548Y0291297D01*
X0015434Y0291432D01*
X0015324Y0291570D01*
X0015217Y0291711D01*
X0015113Y0291854D01*
X0015013Y0292000D01*
X0014917Y0292148D01*
X0014824Y0292298D01*
X0014735Y0292451D01*
X0014650Y0292606D01*
X0014569Y0292763D01*
X0014491Y0292922D01*
X0014418Y0293082D01*
X0014348Y0293245D01*
X0014282Y0293409D01*
X0014221Y0293574D01*
X0014163Y0293741D01*
X0014110Y0293910D01*
X0014061Y0294080D01*
X0014016Y0294251D01*
X0013975Y0294422D01*
X0013938Y0294595D01*
X0013906Y0294769D01*
X0013878Y0294944D01*
X0013854Y0295119D01*
X0013835Y0295294D01*
X0013820Y0295470D01*
X0013809Y0295647D01*
X0013802Y0295823D01*
X0013800Y0296000D01*
X0092500Y0303500D02*
X0092503Y0303709D01*
X0092510Y0303917D01*
X0092523Y0304125D01*
X0092541Y0304333D01*
X0092564Y0304540D01*
X0092592Y0304747D01*
X0092625Y0304953D01*
X0092663Y0305158D01*
X0092707Y0305362D01*
X0092755Y0305565D01*
X0092808Y0305767D01*
X0092866Y0305967D01*
X0092929Y0306166D01*
X0092997Y0306364D01*
X0093070Y0306559D01*
X0093147Y0306753D01*
X0093229Y0306945D01*
X0093316Y0307134D01*
X0093408Y0307322D01*
X0093504Y0307507D01*
X0093604Y0307690D01*
X0093709Y0307870D01*
X0093819Y0308047D01*
X0093933Y0308222D01*
X0094051Y0308394D01*
X0094173Y0308563D01*
X0094299Y0308729D01*
X0094429Y0308892D01*
X0094564Y0309052D01*
X0094702Y0309208D01*
X0094844Y0309361D01*
X0094990Y0309510D01*
X0095139Y0309656D01*
X0095292Y0309798D01*
X0095448Y0309936D01*
X0095608Y0310071D01*
X0095771Y0310201D01*
X0095937Y0310327D01*
X0096106Y0310449D01*
X0096278Y0310567D01*
X0096453Y0310681D01*
X0096630Y0310791D01*
X0096810Y0310896D01*
X0096993Y0310996D01*
X0097178Y0311092D01*
X0097366Y0311184D01*
X0097555Y0311271D01*
X0097747Y0311353D01*
X0097941Y0311430D01*
X0098136Y0311503D01*
X0098334Y0311571D01*
X0098533Y0311634D01*
X0098733Y0311692D01*
X0098935Y0311745D01*
X0099138Y0311793D01*
X0099342Y0311837D01*
X0099547Y0311875D01*
X0099753Y0311908D01*
X0099960Y0311936D01*
X0100167Y0311959D01*
X0100375Y0311977D01*
X0100583Y0311990D01*
X0100791Y0311997D01*
X0101000Y0312000D01*
X0101209Y0311997D01*
X0101417Y0311990D01*
X0101625Y0311977D01*
X0101833Y0311959D01*
X0102040Y0311936D01*
X0102247Y0311908D01*
X0102453Y0311875D01*
X0102658Y0311837D01*
X0102862Y0311793D01*
X0103065Y0311745D01*
X0103267Y0311692D01*
X0103467Y0311634D01*
X0103666Y0311571D01*
X0103864Y0311503D01*
X0104059Y0311430D01*
X0104253Y0311353D01*
X0104445Y0311271D01*
X0104634Y0311184D01*
X0104822Y0311092D01*
X0105007Y0310996D01*
X0105190Y0310896D01*
X0105370Y0310791D01*
X0105547Y0310681D01*
X0105722Y0310567D01*
X0105894Y0310449D01*
X0106063Y0310327D01*
X0106229Y0310201D01*
X0106392Y0310071D01*
X0106552Y0309936D01*
X0106708Y0309798D01*
X0106861Y0309656D01*
X0107010Y0309510D01*
X0107156Y0309361D01*
X0107298Y0309208D01*
X0107436Y0309052D01*
X0107571Y0308892D01*
X0107701Y0308729D01*
X0107827Y0308563D01*
X0107949Y0308394D01*
X0108067Y0308222D01*
X0108181Y0308047D01*
X0108291Y0307870D01*
X0108396Y0307690D01*
X0108496Y0307507D01*
X0108592Y0307322D01*
X0108684Y0307134D01*
X0108771Y0306945D01*
X0108853Y0306753D01*
X0108930Y0306559D01*
X0109003Y0306364D01*
X0109071Y0306166D01*
X0109134Y0305967D01*
X0109192Y0305767D01*
X0109245Y0305565D01*
X0109293Y0305362D01*
X0109337Y0305158D01*
X0109375Y0304953D01*
X0109408Y0304747D01*
X0109436Y0304540D01*
X0109459Y0304333D01*
X0109477Y0304125D01*
X0109490Y0303917D01*
X0109497Y0303709D01*
X0109500Y0303500D01*
X0109497Y0303291D01*
X0109490Y0303083D01*
X0109477Y0302875D01*
X0109459Y0302667D01*
X0109436Y0302460D01*
X0109408Y0302253D01*
X0109375Y0302047D01*
X0109337Y0301842D01*
X0109293Y0301638D01*
X0109245Y0301435D01*
X0109192Y0301233D01*
X0109134Y0301033D01*
X0109071Y0300834D01*
X0109003Y0300636D01*
X0108930Y0300441D01*
X0108853Y0300247D01*
X0108771Y0300055D01*
X0108684Y0299866D01*
X0108592Y0299678D01*
X0108496Y0299493D01*
X0108396Y0299310D01*
X0108291Y0299130D01*
X0108181Y0298953D01*
X0108067Y0298778D01*
X0107949Y0298606D01*
X0107827Y0298437D01*
X0107701Y0298271D01*
X0107571Y0298108D01*
X0107436Y0297948D01*
X0107298Y0297792D01*
X0107156Y0297639D01*
X0107010Y0297490D01*
X0106861Y0297344D01*
X0106708Y0297202D01*
X0106552Y0297064D01*
X0106392Y0296929D01*
X0106229Y0296799D01*
X0106063Y0296673D01*
X0105894Y0296551D01*
X0105722Y0296433D01*
X0105547Y0296319D01*
X0105370Y0296209D01*
X0105190Y0296104D01*
X0105007Y0296004D01*
X0104822Y0295908D01*
X0104634Y0295816D01*
X0104445Y0295729D01*
X0104253Y0295647D01*
X0104059Y0295570D01*
X0103864Y0295497D01*
X0103666Y0295429D01*
X0103467Y0295366D01*
X0103267Y0295308D01*
X0103065Y0295255D01*
X0102862Y0295207D01*
X0102658Y0295163D01*
X0102453Y0295125D01*
X0102247Y0295092D01*
X0102040Y0295064D01*
X0101833Y0295041D01*
X0101625Y0295023D01*
X0101417Y0295010D01*
X0101209Y0295003D01*
X0101000Y0295000D01*
X0100791Y0295003D01*
X0100583Y0295010D01*
X0100375Y0295023D01*
X0100167Y0295041D01*
X0099960Y0295064D01*
X0099753Y0295092D01*
X0099547Y0295125D01*
X0099342Y0295163D01*
X0099138Y0295207D01*
X0098935Y0295255D01*
X0098733Y0295308D01*
X0098533Y0295366D01*
X0098334Y0295429D01*
X0098136Y0295497D01*
X0097941Y0295570D01*
X0097747Y0295647D01*
X0097555Y0295729D01*
X0097366Y0295816D01*
X0097178Y0295908D01*
X0096993Y0296004D01*
X0096810Y0296104D01*
X0096630Y0296209D01*
X0096453Y0296319D01*
X0096278Y0296433D01*
X0096106Y0296551D01*
X0095937Y0296673D01*
X0095771Y0296799D01*
X0095608Y0296929D01*
X0095448Y0297064D01*
X0095292Y0297202D01*
X0095139Y0297344D01*
X0094990Y0297490D01*
X0094844Y0297639D01*
X0094702Y0297792D01*
X0094564Y0297948D01*
X0094429Y0298108D01*
X0094299Y0298271D01*
X0094173Y0298437D01*
X0094051Y0298606D01*
X0093933Y0298778D01*
X0093819Y0298953D01*
X0093709Y0299130D01*
X0093604Y0299310D01*
X0093504Y0299493D01*
X0093408Y0299678D01*
X0093316Y0299866D01*
X0093229Y0300055D01*
X0093147Y0300247D01*
X0093070Y0300441D01*
X0092997Y0300636D01*
X0092929Y0300834D01*
X0092866Y0301033D01*
X0092808Y0301233D01*
X0092755Y0301435D01*
X0092707Y0301638D01*
X0092663Y0301842D01*
X0092625Y0302047D01*
X0092592Y0302253D01*
X0092564Y0302460D01*
X0092541Y0302667D01*
X0092523Y0302875D01*
X0092510Y0303083D01*
X0092503Y0303291D01*
X0092500Y0303500D01*
X0287500Y0303500D02*
X0287503Y0303709D01*
X0287510Y0303917D01*
X0287523Y0304125D01*
X0287541Y0304333D01*
X0287564Y0304540D01*
X0287592Y0304747D01*
X0287625Y0304953D01*
X0287663Y0305158D01*
X0287707Y0305362D01*
X0287755Y0305565D01*
X0287808Y0305767D01*
X0287866Y0305967D01*
X0287929Y0306166D01*
X0287997Y0306364D01*
X0288070Y0306559D01*
X0288147Y0306753D01*
X0288229Y0306945D01*
X0288316Y0307134D01*
X0288408Y0307322D01*
X0288504Y0307507D01*
X0288604Y0307690D01*
X0288709Y0307870D01*
X0288819Y0308047D01*
X0288933Y0308222D01*
X0289051Y0308394D01*
X0289173Y0308563D01*
X0289299Y0308729D01*
X0289429Y0308892D01*
X0289564Y0309052D01*
X0289702Y0309208D01*
X0289844Y0309361D01*
X0289990Y0309510D01*
X0290139Y0309656D01*
X0290292Y0309798D01*
X0290448Y0309936D01*
X0290608Y0310071D01*
X0290771Y0310201D01*
X0290937Y0310327D01*
X0291106Y0310449D01*
X0291278Y0310567D01*
X0291453Y0310681D01*
X0291630Y0310791D01*
X0291810Y0310896D01*
X0291993Y0310996D01*
X0292178Y0311092D01*
X0292366Y0311184D01*
X0292555Y0311271D01*
X0292747Y0311353D01*
X0292941Y0311430D01*
X0293136Y0311503D01*
X0293334Y0311571D01*
X0293533Y0311634D01*
X0293733Y0311692D01*
X0293935Y0311745D01*
X0294138Y0311793D01*
X0294342Y0311837D01*
X0294547Y0311875D01*
X0294753Y0311908D01*
X0294960Y0311936D01*
X0295167Y0311959D01*
X0295375Y0311977D01*
X0295583Y0311990D01*
X0295791Y0311997D01*
X0296000Y0312000D01*
X0296209Y0311997D01*
X0296417Y0311990D01*
X0296625Y0311977D01*
X0296833Y0311959D01*
X0297040Y0311936D01*
X0297247Y0311908D01*
X0297453Y0311875D01*
X0297658Y0311837D01*
X0297862Y0311793D01*
X0298065Y0311745D01*
X0298267Y0311692D01*
X0298467Y0311634D01*
X0298666Y0311571D01*
X0298864Y0311503D01*
X0299059Y0311430D01*
X0299253Y0311353D01*
X0299445Y0311271D01*
X0299634Y0311184D01*
X0299822Y0311092D01*
X0300007Y0310996D01*
X0300190Y0310896D01*
X0300370Y0310791D01*
X0300547Y0310681D01*
X0300722Y0310567D01*
X0300894Y0310449D01*
X0301063Y0310327D01*
X0301229Y0310201D01*
X0301392Y0310071D01*
X0301552Y0309936D01*
X0301708Y0309798D01*
X0301861Y0309656D01*
X0302010Y0309510D01*
X0302156Y0309361D01*
X0302298Y0309208D01*
X0302436Y0309052D01*
X0302571Y0308892D01*
X0302701Y0308729D01*
X0302827Y0308563D01*
X0302949Y0308394D01*
X0303067Y0308222D01*
X0303181Y0308047D01*
X0303291Y0307870D01*
X0303396Y0307690D01*
X0303496Y0307507D01*
X0303592Y0307322D01*
X0303684Y0307134D01*
X0303771Y0306945D01*
X0303853Y0306753D01*
X0303930Y0306559D01*
X0304003Y0306364D01*
X0304071Y0306166D01*
X0304134Y0305967D01*
X0304192Y0305767D01*
X0304245Y0305565D01*
X0304293Y0305362D01*
X0304337Y0305158D01*
X0304375Y0304953D01*
X0304408Y0304747D01*
X0304436Y0304540D01*
X0304459Y0304333D01*
X0304477Y0304125D01*
X0304490Y0303917D01*
X0304497Y0303709D01*
X0304500Y0303500D01*
X0304497Y0303291D01*
X0304490Y0303083D01*
X0304477Y0302875D01*
X0304459Y0302667D01*
X0304436Y0302460D01*
X0304408Y0302253D01*
X0304375Y0302047D01*
X0304337Y0301842D01*
X0304293Y0301638D01*
X0304245Y0301435D01*
X0304192Y0301233D01*
X0304134Y0301033D01*
X0304071Y0300834D01*
X0304003Y0300636D01*
X0303930Y0300441D01*
X0303853Y0300247D01*
X0303771Y0300055D01*
X0303684Y0299866D01*
X0303592Y0299678D01*
X0303496Y0299493D01*
X0303396Y0299310D01*
X0303291Y0299130D01*
X0303181Y0298953D01*
X0303067Y0298778D01*
X0302949Y0298606D01*
X0302827Y0298437D01*
X0302701Y0298271D01*
X0302571Y0298108D01*
X0302436Y0297948D01*
X0302298Y0297792D01*
X0302156Y0297639D01*
X0302010Y0297490D01*
X0301861Y0297344D01*
X0301708Y0297202D01*
X0301552Y0297064D01*
X0301392Y0296929D01*
X0301229Y0296799D01*
X0301063Y0296673D01*
X0300894Y0296551D01*
X0300722Y0296433D01*
X0300547Y0296319D01*
X0300370Y0296209D01*
X0300190Y0296104D01*
X0300007Y0296004D01*
X0299822Y0295908D01*
X0299634Y0295816D01*
X0299445Y0295729D01*
X0299253Y0295647D01*
X0299059Y0295570D01*
X0298864Y0295497D01*
X0298666Y0295429D01*
X0298467Y0295366D01*
X0298267Y0295308D01*
X0298065Y0295255D01*
X0297862Y0295207D01*
X0297658Y0295163D01*
X0297453Y0295125D01*
X0297247Y0295092D01*
X0297040Y0295064D01*
X0296833Y0295041D01*
X0296625Y0295023D01*
X0296417Y0295010D01*
X0296209Y0295003D01*
X0296000Y0295000D01*
X0295791Y0295003D01*
X0295583Y0295010D01*
X0295375Y0295023D01*
X0295167Y0295041D01*
X0294960Y0295064D01*
X0294753Y0295092D01*
X0294547Y0295125D01*
X0294342Y0295163D01*
X0294138Y0295207D01*
X0293935Y0295255D01*
X0293733Y0295308D01*
X0293533Y0295366D01*
X0293334Y0295429D01*
X0293136Y0295497D01*
X0292941Y0295570D01*
X0292747Y0295647D01*
X0292555Y0295729D01*
X0292366Y0295816D01*
X0292178Y0295908D01*
X0291993Y0296004D01*
X0291810Y0296104D01*
X0291630Y0296209D01*
X0291453Y0296319D01*
X0291278Y0296433D01*
X0291106Y0296551D01*
X0290937Y0296673D01*
X0290771Y0296799D01*
X0290608Y0296929D01*
X0290448Y0297064D01*
X0290292Y0297202D01*
X0290139Y0297344D01*
X0289990Y0297490D01*
X0289844Y0297639D01*
X0289702Y0297792D01*
X0289564Y0297948D01*
X0289429Y0298108D01*
X0289299Y0298271D01*
X0289173Y0298437D01*
X0289051Y0298606D01*
X0288933Y0298778D01*
X0288819Y0298953D01*
X0288709Y0299130D01*
X0288604Y0299310D01*
X0288504Y0299493D01*
X0288408Y0299678D01*
X0288316Y0299866D01*
X0288229Y0300055D01*
X0288147Y0300247D01*
X0288070Y0300441D01*
X0287997Y0300636D01*
X0287929Y0300834D01*
X0287866Y0301033D01*
X0287808Y0301233D01*
X0287755Y0301435D01*
X0287707Y0301638D01*
X0287663Y0301842D01*
X0287625Y0302047D01*
X0287592Y0302253D01*
X0287564Y0302460D01*
X0287541Y0302667D01*
X0287523Y0302875D01*
X0287510Y0303083D01*
X0287503Y0303291D01*
X0287500Y0303500D01*
X0363800Y0296000D02*
X0363802Y0296177D01*
X0363809Y0296353D01*
X0363820Y0296530D01*
X0363835Y0296706D01*
X0363854Y0296881D01*
X0363878Y0297056D01*
X0363906Y0297231D01*
X0363938Y0297405D01*
X0363975Y0297578D01*
X0364016Y0297749D01*
X0364061Y0297920D01*
X0364110Y0298090D01*
X0364163Y0298259D01*
X0364221Y0298426D01*
X0364282Y0298591D01*
X0364348Y0298755D01*
X0364418Y0298918D01*
X0364491Y0299078D01*
X0364569Y0299237D01*
X0364650Y0299394D01*
X0364735Y0299549D01*
X0364824Y0299702D01*
X0364917Y0299852D01*
X0365013Y0300000D01*
X0365113Y0300146D01*
X0365217Y0300289D01*
X0365324Y0300430D01*
X0365434Y0300568D01*
X0365548Y0300703D01*
X0365665Y0300835D01*
X0365785Y0300965D01*
X0365909Y0301091D01*
X0366035Y0301215D01*
X0366165Y0301335D01*
X0366297Y0301452D01*
X0366432Y0301566D01*
X0366570Y0301676D01*
X0366711Y0301783D01*
X0366854Y0301887D01*
X0367000Y0301987D01*
X0367148Y0302083D01*
X0367298Y0302176D01*
X0367451Y0302265D01*
X0367606Y0302350D01*
X0367763Y0302431D01*
X0367922Y0302509D01*
X0368082Y0302582D01*
X0368245Y0302652D01*
X0368409Y0302718D01*
X0368574Y0302779D01*
X0368741Y0302837D01*
X0368910Y0302890D01*
X0369080Y0302939D01*
X0369251Y0302984D01*
X0369422Y0303025D01*
X0369595Y0303062D01*
X0369769Y0303094D01*
X0369944Y0303122D01*
X0370119Y0303146D01*
X0370294Y0303165D01*
X0370470Y0303180D01*
X0370647Y0303191D01*
X0370823Y0303198D01*
X0371000Y0303200D01*
X0371177Y0303198D01*
X0371353Y0303191D01*
X0371530Y0303180D01*
X0371706Y0303165D01*
X0371881Y0303146D01*
X0372056Y0303122D01*
X0372231Y0303094D01*
X0372405Y0303062D01*
X0372578Y0303025D01*
X0372749Y0302984D01*
X0372920Y0302939D01*
X0373090Y0302890D01*
X0373259Y0302837D01*
X0373426Y0302779D01*
X0373591Y0302718D01*
X0373755Y0302652D01*
X0373918Y0302582D01*
X0374078Y0302509D01*
X0374237Y0302431D01*
X0374394Y0302350D01*
X0374549Y0302265D01*
X0374702Y0302176D01*
X0374852Y0302083D01*
X0375000Y0301987D01*
X0375146Y0301887D01*
X0375289Y0301783D01*
X0375430Y0301676D01*
X0375568Y0301566D01*
X0375703Y0301452D01*
X0375835Y0301335D01*
X0375965Y0301215D01*
X0376091Y0301091D01*
X0376215Y0300965D01*
X0376335Y0300835D01*
X0376452Y0300703D01*
X0376566Y0300568D01*
X0376676Y0300430D01*
X0376783Y0300289D01*
X0376887Y0300146D01*
X0376987Y0300000D01*
X0377083Y0299852D01*
X0377176Y0299702D01*
X0377265Y0299549D01*
X0377350Y0299394D01*
X0377431Y0299237D01*
X0377509Y0299078D01*
X0377582Y0298918D01*
X0377652Y0298755D01*
X0377718Y0298591D01*
X0377779Y0298426D01*
X0377837Y0298259D01*
X0377890Y0298090D01*
X0377939Y0297920D01*
X0377984Y0297749D01*
X0378025Y0297578D01*
X0378062Y0297405D01*
X0378094Y0297231D01*
X0378122Y0297056D01*
X0378146Y0296881D01*
X0378165Y0296706D01*
X0378180Y0296530D01*
X0378191Y0296353D01*
X0378198Y0296177D01*
X0378200Y0296000D01*
X0378198Y0295823D01*
X0378191Y0295647D01*
X0378180Y0295470D01*
X0378165Y0295294D01*
X0378146Y0295119D01*
X0378122Y0294944D01*
X0378094Y0294769D01*
X0378062Y0294595D01*
X0378025Y0294422D01*
X0377984Y0294251D01*
X0377939Y0294080D01*
X0377890Y0293910D01*
X0377837Y0293741D01*
X0377779Y0293574D01*
X0377718Y0293409D01*
X0377652Y0293245D01*
X0377582Y0293082D01*
X0377509Y0292922D01*
X0377431Y0292763D01*
X0377350Y0292606D01*
X0377265Y0292451D01*
X0377176Y0292298D01*
X0377083Y0292148D01*
X0376987Y0292000D01*
X0376887Y0291854D01*
X0376783Y0291711D01*
X0376676Y0291570D01*
X0376566Y0291432D01*
X0376452Y0291297D01*
X0376335Y0291165D01*
X0376215Y0291035D01*
X0376091Y0290909D01*
X0375965Y0290785D01*
X0375835Y0290665D01*
X0375703Y0290548D01*
X0375568Y0290434D01*
X0375430Y0290324D01*
X0375289Y0290217D01*
X0375146Y0290113D01*
X0375000Y0290013D01*
X0374852Y0289917D01*
X0374702Y0289824D01*
X0374549Y0289735D01*
X0374394Y0289650D01*
X0374237Y0289569D01*
X0374078Y0289491D01*
X0373918Y0289418D01*
X0373755Y0289348D01*
X0373591Y0289282D01*
X0373426Y0289221D01*
X0373259Y0289163D01*
X0373090Y0289110D01*
X0372920Y0289061D01*
X0372749Y0289016D01*
X0372578Y0288975D01*
X0372405Y0288938D01*
X0372231Y0288906D01*
X0372056Y0288878D01*
X0371881Y0288854D01*
X0371706Y0288835D01*
X0371530Y0288820D01*
X0371353Y0288809D01*
X0371177Y0288802D01*
X0371000Y0288800D01*
X0370823Y0288802D01*
X0370647Y0288809D01*
X0370470Y0288820D01*
X0370294Y0288835D01*
X0370119Y0288854D01*
X0369944Y0288878D01*
X0369769Y0288906D01*
X0369595Y0288938D01*
X0369422Y0288975D01*
X0369251Y0289016D01*
X0369080Y0289061D01*
X0368910Y0289110D01*
X0368741Y0289163D01*
X0368574Y0289221D01*
X0368409Y0289282D01*
X0368245Y0289348D01*
X0368082Y0289418D01*
X0367922Y0289491D01*
X0367763Y0289569D01*
X0367606Y0289650D01*
X0367451Y0289735D01*
X0367298Y0289824D01*
X0367148Y0289917D01*
X0367000Y0290013D01*
X0366854Y0290113D01*
X0366711Y0290217D01*
X0366570Y0290324D01*
X0366432Y0290434D01*
X0366297Y0290548D01*
X0366165Y0290665D01*
X0366035Y0290785D01*
X0365909Y0290909D01*
X0365785Y0291035D01*
X0365665Y0291165D01*
X0365548Y0291297D01*
X0365434Y0291432D01*
X0365324Y0291570D01*
X0365217Y0291711D01*
X0365113Y0291854D01*
X0365013Y0292000D01*
X0364917Y0292148D01*
X0364824Y0292298D01*
X0364735Y0292451D01*
X0364650Y0292606D01*
X0364569Y0292763D01*
X0364491Y0292922D01*
X0364418Y0293082D01*
X0364348Y0293245D01*
X0364282Y0293409D01*
X0364221Y0293574D01*
X0364163Y0293741D01*
X0364110Y0293910D01*
X0364061Y0294080D01*
X0364016Y0294251D01*
X0363975Y0294422D01*
X0363938Y0294595D01*
X0363906Y0294769D01*
X0363878Y0294944D01*
X0363854Y0295119D01*
X0363835Y0295294D01*
X0363820Y0295470D01*
X0363809Y0295647D01*
X0363802Y0295823D01*
X0363800Y0296000D01*
X0373893Y0212831D02*
X0373895Y0212984D01*
X0373901Y0213138D01*
X0373911Y0213291D01*
X0373925Y0213443D01*
X0373943Y0213596D01*
X0373965Y0213747D01*
X0373990Y0213898D01*
X0374020Y0214049D01*
X0374054Y0214199D01*
X0374091Y0214347D01*
X0374132Y0214495D01*
X0374177Y0214641D01*
X0374226Y0214787D01*
X0374279Y0214931D01*
X0374335Y0215073D01*
X0374395Y0215214D01*
X0374459Y0215354D01*
X0374526Y0215492D01*
X0374597Y0215628D01*
X0374672Y0215762D01*
X0374749Y0215894D01*
X0374831Y0216024D01*
X0374915Y0216152D01*
X0375003Y0216278D01*
X0375094Y0216401D01*
X0375188Y0216522D01*
X0375286Y0216640D01*
X0375386Y0216756D01*
X0375490Y0216869D01*
X0375596Y0216980D01*
X0375705Y0217088D01*
X0375817Y0217193D01*
X0375931Y0217294D01*
X0376049Y0217393D01*
X0376168Y0217489D01*
X0376290Y0217582D01*
X0376415Y0217671D01*
X0376542Y0217758D01*
X0376671Y0217840D01*
X0376802Y0217920D01*
X0376935Y0217996D01*
X0377070Y0218069D01*
X0377207Y0218138D01*
X0377346Y0218203D01*
X0377486Y0218265D01*
X0377628Y0218323D01*
X0377771Y0218378D01*
X0377916Y0218429D01*
X0378062Y0218476D01*
X0378209Y0218519D01*
X0378357Y0218558D01*
X0378506Y0218594D01*
X0378656Y0218625D01*
X0378807Y0218653D01*
X0378958Y0218677D01*
X0379111Y0218697D01*
X0379263Y0218713D01*
X0379416Y0218725D01*
X0379569Y0218733D01*
X0379722Y0218737D01*
X0379876Y0218737D01*
X0380029Y0218733D01*
X0380182Y0218725D01*
X0380335Y0218713D01*
X0380487Y0218697D01*
X0380640Y0218677D01*
X0380791Y0218653D01*
X0380942Y0218625D01*
X0381092Y0218594D01*
X0381241Y0218558D01*
X0381389Y0218519D01*
X0381536Y0218476D01*
X0381682Y0218429D01*
X0381827Y0218378D01*
X0381970Y0218323D01*
X0382112Y0218265D01*
X0382252Y0218203D01*
X0382391Y0218138D01*
X0382528Y0218069D01*
X0382663Y0217996D01*
X0382796Y0217920D01*
X0382927Y0217840D01*
X0383056Y0217758D01*
X0383183Y0217671D01*
X0383308Y0217582D01*
X0383430Y0217489D01*
X0383549Y0217393D01*
X0383667Y0217294D01*
X0383781Y0217193D01*
X0383893Y0217088D01*
X0384002Y0216980D01*
X0384108Y0216869D01*
X0384212Y0216756D01*
X0384312Y0216640D01*
X0384410Y0216522D01*
X0384504Y0216401D01*
X0384595Y0216278D01*
X0384683Y0216152D01*
X0384767Y0216024D01*
X0384849Y0215894D01*
X0384926Y0215762D01*
X0385001Y0215628D01*
X0385072Y0215492D01*
X0385139Y0215354D01*
X0385203Y0215214D01*
X0385263Y0215073D01*
X0385319Y0214931D01*
X0385372Y0214787D01*
X0385421Y0214641D01*
X0385466Y0214495D01*
X0385507Y0214347D01*
X0385544Y0214199D01*
X0385578Y0214049D01*
X0385608Y0213898D01*
X0385633Y0213747D01*
X0385655Y0213596D01*
X0385673Y0213443D01*
X0385687Y0213291D01*
X0385697Y0213138D01*
X0385703Y0212984D01*
X0385705Y0212831D01*
X0385703Y0212678D01*
X0385697Y0212524D01*
X0385687Y0212371D01*
X0385673Y0212219D01*
X0385655Y0212066D01*
X0385633Y0211915D01*
X0385608Y0211764D01*
X0385578Y0211613D01*
X0385544Y0211463D01*
X0385507Y0211315D01*
X0385466Y0211167D01*
X0385421Y0211021D01*
X0385372Y0210875D01*
X0385319Y0210731D01*
X0385263Y0210589D01*
X0385203Y0210448D01*
X0385139Y0210308D01*
X0385072Y0210170D01*
X0385001Y0210034D01*
X0384926Y0209900D01*
X0384849Y0209768D01*
X0384767Y0209638D01*
X0384683Y0209510D01*
X0384595Y0209384D01*
X0384504Y0209261D01*
X0384410Y0209140D01*
X0384312Y0209022D01*
X0384212Y0208906D01*
X0384108Y0208793D01*
X0384002Y0208682D01*
X0383893Y0208574D01*
X0383781Y0208469D01*
X0383667Y0208368D01*
X0383549Y0208269D01*
X0383430Y0208173D01*
X0383308Y0208080D01*
X0383183Y0207991D01*
X0383056Y0207904D01*
X0382927Y0207822D01*
X0382796Y0207742D01*
X0382663Y0207666D01*
X0382528Y0207593D01*
X0382391Y0207524D01*
X0382252Y0207459D01*
X0382112Y0207397D01*
X0381970Y0207339D01*
X0381827Y0207284D01*
X0381682Y0207233D01*
X0381536Y0207186D01*
X0381389Y0207143D01*
X0381241Y0207104D01*
X0381092Y0207068D01*
X0380942Y0207037D01*
X0380791Y0207009D01*
X0380640Y0206985D01*
X0380487Y0206965D01*
X0380335Y0206949D01*
X0380182Y0206937D01*
X0380029Y0206929D01*
X0379876Y0206925D01*
X0379722Y0206925D01*
X0379569Y0206929D01*
X0379416Y0206937D01*
X0379263Y0206949D01*
X0379111Y0206965D01*
X0378958Y0206985D01*
X0378807Y0207009D01*
X0378656Y0207037D01*
X0378506Y0207068D01*
X0378357Y0207104D01*
X0378209Y0207143D01*
X0378062Y0207186D01*
X0377916Y0207233D01*
X0377771Y0207284D01*
X0377628Y0207339D01*
X0377486Y0207397D01*
X0377346Y0207459D01*
X0377207Y0207524D01*
X0377070Y0207593D01*
X0376935Y0207666D01*
X0376802Y0207742D01*
X0376671Y0207822D01*
X0376542Y0207904D01*
X0376415Y0207991D01*
X0376290Y0208080D01*
X0376168Y0208173D01*
X0376049Y0208269D01*
X0375931Y0208368D01*
X0375817Y0208469D01*
X0375705Y0208574D01*
X0375596Y0208682D01*
X0375490Y0208793D01*
X0375386Y0208906D01*
X0375286Y0209022D01*
X0375188Y0209140D01*
X0375094Y0209261D01*
X0375003Y0209384D01*
X0374915Y0209510D01*
X0374831Y0209638D01*
X0374749Y0209768D01*
X0374672Y0209900D01*
X0374597Y0210034D01*
X0374526Y0210170D01*
X0374459Y0210308D01*
X0374395Y0210448D01*
X0374335Y0210589D01*
X0374279Y0210731D01*
X0374226Y0210875D01*
X0374177Y0211021D01*
X0374132Y0211167D01*
X0374091Y0211315D01*
X0374054Y0211463D01*
X0374020Y0211613D01*
X0373990Y0211764D01*
X0373965Y0211915D01*
X0373943Y0212066D01*
X0373925Y0212219D01*
X0373911Y0212371D01*
X0373901Y0212524D01*
X0373895Y0212678D01*
X0373893Y0212831D01*
X0373893Y0164169D02*
X0373895Y0164322D01*
X0373901Y0164476D01*
X0373911Y0164629D01*
X0373925Y0164781D01*
X0373943Y0164934D01*
X0373965Y0165085D01*
X0373990Y0165236D01*
X0374020Y0165387D01*
X0374054Y0165537D01*
X0374091Y0165685D01*
X0374132Y0165833D01*
X0374177Y0165979D01*
X0374226Y0166125D01*
X0374279Y0166269D01*
X0374335Y0166411D01*
X0374395Y0166552D01*
X0374459Y0166692D01*
X0374526Y0166830D01*
X0374597Y0166966D01*
X0374672Y0167100D01*
X0374749Y0167232D01*
X0374831Y0167362D01*
X0374915Y0167490D01*
X0375003Y0167616D01*
X0375094Y0167739D01*
X0375188Y0167860D01*
X0375286Y0167978D01*
X0375386Y0168094D01*
X0375490Y0168207D01*
X0375596Y0168318D01*
X0375705Y0168426D01*
X0375817Y0168531D01*
X0375931Y0168632D01*
X0376049Y0168731D01*
X0376168Y0168827D01*
X0376290Y0168920D01*
X0376415Y0169009D01*
X0376542Y0169096D01*
X0376671Y0169178D01*
X0376802Y0169258D01*
X0376935Y0169334D01*
X0377070Y0169407D01*
X0377207Y0169476D01*
X0377346Y0169541D01*
X0377486Y0169603D01*
X0377628Y0169661D01*
X0377771Y0169716D01*
X0377916Y0169767D01*
X0378062Y0169814D01*
X0378209Y0169857D01*
X0378357Y0169896D01*
X0378506Y0169932D01*
X0378656Y0169963D01*
X0378807Y0169991D01*
X0378958Y0170015D01*
X0379111Y0170035D01*
X0379263Y0170051D01*
X0379416Y0170063D01*
X0379569Y0170071D01*
X0379722Y0170075D01*
X0379876Y0170075D01*
X0380029Y0170071D01*
X0380182Y0170063D01*
X0380335Y0170051D01*
X0380487Y0170035D01*
X0380640Y0170015D01*
X0380791Y0169991D01*
X0380942Y0169963D01*
X0381092Y0169932D01*
X0381241Y0169896D01*
X0381389Y0169857D01*
X0381536Y0169814D01*
X0381682Y0169767D01*
X0381827Y0169716D01*
X0381970Y0169661D01*
X0382112Y0169603D01*
X0382252Y0169541D01*
X0382391Y0169476D01*
X0382528Y0169407D01*
X0382663Y0169334D01*
X0382796Y0169258D01*
X0382927Y0169178D01*
X0383056Y0169096D01*
X0383183Y0169009D01*
X0383308Y0168920D01*
X0383430Y0168827D01*
X0383549Y0168731D01*
X0383667Y0168632D01*
X0383781Y0168531D01*
X0383893Y0168426D01*
X0384002Y0168318D01*
X0384108Y0168207D01*
X0384212Y0168094D01*
X0384312Y0167978D01*
X0384410Y0167860D01*
X0384504Y0167739D01*
X0384595Y0167616D01*
X0384683Y0167490D01*
X0384767Y0167362D01*
X0384849Y0167232D01*
X0384926Y0167100D01*
X0385001Y0166966D01*
X0385072Y0166830D01*
X0385139Y0166692D01*
X0385203Y0166552D01*
X0385263Y0166411D01*
X0385319Y0166269D01*
X0385372Y0166125D01*
X0385421Y0165979D01*
X0385466Y0165833D01*
X0385507Y0165685D01*
X0385544Y0165537D01*
X0385578Y0165387D01*
X0385608Y0165236D01*
X0385633Y0165085D01*
X0385655Y0164934D01*
X0385673Y0164781D01*
X0385687Y0164629D01*
X0385697Y0164476D01*
X0385703Y0164322D01*
X0385705Y0164169D01*
X0385703Y0164016D01*
X0385697Y0163862D01*
X0385687Y0163709D01*
X0385673Y0163557D01*
X0385655Y0163404D01*
X0385633Y0163253D01*
X0385608Y0163102D01*
X0385578Y0162951D01*
X0385544Y0162801D01*
X0385507Y0162653D01*
X0385466Y0162505D01*
X0385421Y0162359D01*
X0385372Y0162213D01*
X0385319Y0162069D01*
X0385263Y0161927D01*
X0385203Y0161786D01*
X0385139Y0161646D01*
X0385072Y0161508D01*
X0385001Y0161372D01*
X0384926Y0161238D01*
X0384849Y0161106D01*
X0384767Y0160976D01*
X0384683Y0160848D01*
X0384595Y0160722D01*
X0384504Y0160599D01*
X0384410Y0160478D01*
X0384312Y0160360D01*
X0384212Y0160244D01*
X0384108Y0160131D01*
X0384002Y0160020D01*
X0383893Y0159912D01*
X0383781Y0159807D01*
X0383667Y0159706D01*
X0383549Y0159607D01*
X0383430Y0159511D01*
X0383308Y0159418D01*
X0383183Y0159329D01*
X0383056Y0159242D01*
X0382927Y0159160D01*
X0382796Y0159080D01*
X0382663Y0159004D01*
X0382528Y0158931D01*
X0382391Y0158862D01*
X0382252Y0158797D01*
X0382112Y0158735D01*
X0381970Y0158677D01*
X0381827Y0158622D01*
X0381682Y0158571D01*
X0381536Y0158524D01*
X0381389Y0158481D01*
X0381241Y0158442D01*
X0381092Y0158406D01*
X0380942Y0158375D01*
X0380791Y0158347D01*
X0380640Y0158323D01*
X0380487Y0158303D01*
X0380335Y0158287D01*
X0380182Y0158275D01*
X0380029Y0158267D01*
X0379876Y0158263D01*
X0379722Y0158263D01*
X0379569Y0158267D01*
X0379416Y0158275D01*
X0379263Y0158287D01*
X0379111Y0158303D01*
X0378958Y0158323D01*
X0378807Y0158347D01*
X0378656Y0158375D01*
X0378506Y0158406D01*
X0378357Y0158442D01*
X0378209Y0158481D01*
X0378062Y0158524D01*
X0377916Y0158571D01*
X0377771Y0158622D01*
X0377628Y0158677D01*
X0377486Y0158735D01*
X0377346Y0158797D01*
X0377207Y0158862D01*
X0377070Y0158931D01*
X0376935Y0159004D01*
X0376802Y0159080D01*
X0376671Y0159160D01*
X0376542Y0159242D01*
X0376415Y0159329D01*
X0376290Y0159418D01*
X0376168Y0159511D01*
X0376049Y0159607D01*
X0375931Y0159706D01*
X0375817Y0159807D01*
X0375705Y0159912D01*
X0375596Y0160020D01*
X0375490Y0160131D01*
X0375386Y0160244D01*
X0375286Y0160360D01*
X0375188Y0160478D01*
X0375094Y0160599D01*
X0375003Y0160722D01*
X0374915Y0160848D01*
X0374831Y0160976D01*
X0374749Y0161106D01*
X0374672Y0161238D01*
X0374597Y0161372D01*
X0374526Y0161508D01*
X0374459Y0161646D01*
X0374395Y0161786D01*
X0374335Y0161927D01*
X0374279Y0162069D01*
X0374226Y0162213D01*
X0374177Y0162359D01*
X0374132Y0162505D01*
X0374091Y0162653D01*
X0374054Y0162801D01*
X0374020Y0162951D01*
X0373990Y0163102D01*
X0373965Y0163253D01*
X0373943Y0163404D01*
X0373925Y0163557D01*
X0373911Y0163709D01*
X0373901Y0163862D01*
X0373895Y0164016D01*
X0373893Y0164169D01*
X0363800Y0021000D02*
X0363802Y0021177D01*
X0363809Y0021353D01*
X0363820Y0021530D01*
X0363835Y0021706D01*
X0363854Y0021881D01*
X0363878Y0022056D01*
X0363906Y0022231D01*
X0363938Y0022405D01*
X0363975Y0022578D01*
X0364016Y0022749D01*
X0364061Y0022920D01*
X0364110Y0023090D01*
X0364163Y0023259D01*
X0364221Y0023426D01*
X0364282Y0023591D01*
X0364348Y0023755D01*
X0364418Y0023918D01*
X0364491Y0024078D01*
X0364569Y0024237D01*
X0364650Y0024394D01*
X0364735Y0024549D01*
X0364824Y0024702D01*
X0364917Y0024852D01*
X0365013Y0025000D01*
X0365113Y0025146D01*
X0365217Y0025289D01*
X0365324Y0025430D01*
X0365434Y0025568D01*
X0365548Y0025703D01*
X0365665Y0025835D01*
X0365785Y0025965D01*
X0365909Y0026091D01*
X0366035Y0026215D01*
X0366165Y0026335D01*
X0366297Y0026452D01*
X0366432Y0026566D01*
X0366570Y0026676D01*
X0366711Y0026783D01*
X0366854Y0026887D01*
X0367000Y0026987D01*
X0367148Y0027083D01*
X0367298Y0027176D01*
X0367451Y0027265D01*
X0367606Y0027350D01*
X0367763Y0027431D01*
X0367922Y0027509D01*
X0368082Y0027582D01*
X0368245Y0027652D01*
X0368409Y0027718D01*
X0368574Y0027779D01*
X0368741Y0027837D01*
X0368910Y0027890D01*
X0369080Y0027939D01*
X0369251Y0027984D01*
X0369422Y0028025D01*
X0369595Y0028062D01*
X0369769Y0028094D01*
X0369944Y0028122D01*
X0370119Y0028146D01*
X0370294Y0028165D01*
X0370470Y0028180D01*
X0370647Y0028191D01*
X0370823Y0028198D01*
X0371000Y0028200D01*
X0371177Y0028198D01*
X0371353Y0028191D01*
X0371530Y0028180D01*
X0371706Y0028165D01*
X0371881Y0028146D01*
X0372056Y0028122D01*
X0372231Y0028094D01*
X0372405Y0028062D01*
X0372578Y0028025D01*
X0372749Y0027984D01*
X0372920Y0027939D01*
X0373090Y0027890D01*
X0373259Y0027837D01*
X0373426Y0027779D01*
X0373591Y0027718D01*
X0373755Y0027652D01*
X0373918Y0027582D01*
X0374078Y0027509D01*
X0374237Y0027431D01*
X0374394Y0027350D01*
X0374549Y0027265D01*
X0374702Y0027176D01*
X0374852Y0027083D01*
X0375000Y0026987D01*
X0375146Y0026887D01*
X0375289Y0026783D01*
X0375430Y0026676D01*
X0375568Y0026566D01*
X0375703Y0026452D01*
X0375835Y0026335D01*
X0375965Y0026215D01*
X0376091Y0026091D01*
X0376215Y0025965D01*
X0376335Y0025835D01*
X0376452Y0025703D01*
X0376566Y0025568D01*
X0376676Y0025430D01*
X0376783Y0025289D01*
X0376887Y0025146D01*
X0376987Y0025000D01*
X0377083Y0024852D01*
X0377176Y0024702D01*
X0377265Y0024549D01*
X0377350Y0024394D01*
X0377431Y0024237D01*
X0377509Y0024078D01*
X0377582Y0023918D01*
X0377652Y0023755D01*
X0377718Y0023591D01*
X0377779Y0023426D01*
X0377837Y0023259D01*
X0377890Y0023090D01*
X0377939Y0022920D01*
X0377984Y0022749D01*
X0378025Y0022578D01*
X0378062Y0022405D01*
X0378094Y0022231D01*
X0378122Y0022056D01*
X0378146Y0021881D01*
X0378165Y0021706D01*
X0378180Y0021530D01*
X0378191Y0021353D01*
X0378198Y0021177D01*
X0378200Y0021000D01*
X0378198Y0020823D01*
X0378191Y0020647D01*
X0378180Y0020470D01*
X0378165Y0020294D01*
X0378146Y0020119D01*
X0378122Y0019944D01*
X0378094Y0019769D01*
X0378062Y0019595D01*
X0378025Y0019422D01*
X0377984Y0019251D01*
X0377939Y0019080D01*
X0377890Y0018910D01*
X0377837Y0018741D01*
X0377779Y0018574D01*
X0377718Y0018409D01*
X0377652Y0018245D01*
X0377582Y0018082D01*
X0377509Y0017922D01*
X0377431Y0017763D01*
X0377350Y0017606D01*
X0377265Y0017451D01*
X0377176Y0017298D01*
X0377083Y0017148D01*
X0376987Y0017000D01*
X0376887Y0016854D01*
X0376783Y0016711D01*
X0376676Y0016570D01*
X0376566Y0016432D01*
X0376452Y0016297D01*
X0376335Y0016165D01*
X0376215Y0016035D01*
X0376091Y0015909D01*
X0375965Y0015785D01*
X0375835Y0015665D01*
X0375703Y0015548D01*
X0375568Y0015434D01*
X0375430Y0015324D01*
X0375289Y0015217D01*
X0375146Y0015113D01*
X0375000Y0015013D01*
X0374852Y0014917D01*
X0374702Y0014824D01*
X0374549Y0014735D01*
X0374394Y0014650D01*
X0374237Y0014569D01*
X0374078Y0014491D01*
X0373918Y0014418D01*
X0373755Y0014348D01*
X0373591Y0014282D01*
X0373426Y0014221D01*
X0373259Y0014163D01*
X0373090Y0014110D01*
X0372920Y0014061D01*
X0372749Y0014016D01*
X0372578Y0013975D01*
X0372405Y0013938D01*
X0372231Y0013906D01*
X0372056Y0013878D01*
X0371881Y0013854D01*
X0371706Y0013835D01*
X0371530Y0013820D01*
X0371353Y0013809D01*
X0371177Y0013802D01*
X0371000Y0013800D01*
X0370823Y0013802D01*
X0370647Y0013809D01*
X0370470Y0013820D01*
X0370294Y0013835D01*
X0370119Y0013854D01*
X0369944Y0013878D01*
X0369769Y0013906D01*
X0369595Y0013938D01*
X0369422Y0013975D01*
X0369251Y0014016D01*
X0369080Y0014061D01*
X0368910Y0014110D01*
X0368741Y0014163D01*
X0368574Y0014221D01*
X0368409Y0014282D01*
X0368245Y0014348D01*
X0368082Y0014418D01*
X0367922Y0014491D01*
X0367763Y0014569D01*
X0367606Y0014650D01*
X0367451Y0014735D01*
X0367298Y0014824D01*
X0367148Y0014917D01*
X0367000Y0015013D01*
X0366854Y0015113D01*
X0366711Y0015217D01*
X0366570Y0015324D01*
X0366432Y0015434D01*
X0366297Y0015548D01*
X0366165Y0015665D01*
X0366035Y0015785D01*
X0365909Y0015909D01*
X0365785Y0016035D01*
X0365665Y0016165D01*
X0365548Y0016297D01*
X0365434Y0016432D01*
X0365324Y0016570D01*
X0365217Y0016711D01*
X0365113Y0016854D01*
X0365013Y0017000D01*
X0364917Y0017148D01*
X0364824Y0017298D01*
X0364735Y0017451D01*
X0364650Y0017606D01*
X0364569Y0017763D01*
X0364491Y0017922D01*
X0364418Y0018082D01*
X0364348Y0018245D01*
X0364282Y0018409D01*
X0364221Y0018574D01*
X0364163Y0018741D01*
X0364110Y0018910D01*
X0364061Y0019080D01*
X0364016Y0019251D01*
X0363975Y0019422D01*
X0363938Y0019595D01*
X0363906Y0019769D01*
X0363878Y0019944D01*
X0363854Y0020119D01*
X0363835Y0020294D01*
X0363820Y0020470D01*
X0363809Y0020647D01*
X0363802Y0020823D01*
X0363800Y0021000D01*
X0285000Y0013500D02*
X0285003Y0013709D01*
X0285010Y0013917D01*
X0285023Y0014125D01*
X0285041Y0014333D01*
X0285064Y0014540D01*
X0285092Y0014747D01*
X0285125Y0014953D01*
X0285163Y0015158D01*
X0285207Y0015362D01*
X0285255Y0015565D01*
X0285308Y0015767D01*
X0285366Y0015967D01*
X0285429Y0016166D01*
X0285497Y0016364D01*
X0285570Y0016559D01*
X0285647Y0016753D01*
X0285729Y0016945D01*
X0285816Y0017134D01*
X0285908Y0017322D01*
X0286004Y0017507D01*
X0286104Y0017690D01*
X0286209Y0017870D01*
X0286319Y0018047D01*
X0286433Y0018222D01*
X0286551Y0018394D01*
X0286673Y0018563D01*
X0286799Y0018729D01*
X0286929Y0018892D01*
X0287064Y0019052D01*
X0287202Y0019208D01*
X0287344Y0019361D01*
X0287490Y0019510D01*
X0287639Y0019656D01*
X0287792Y0019798D01*
X0287948Y0019936D01*
X0288108Y0020071D01*
X0288271Y0020201D01*
X0288437Y0020327D01*
X0288606Y0020449D01*
X0288778Y0020567D01*
X0288953Y0020681D01*
X0289130Y0020791D01*
X0289310Y0020896D01*
X0289493Y0020996D01*
X0289678Y0021092D01*
X0289866Y0021184D01*
X0290055Y0021271D01*
X0290247Y0021353D01*
X0290441Y0021430D01*
X0290636Y0021503D01*
X0290834Y0021571D01*
X0291033Y0021634D01*
X0291233Y0021692D01*
X0291435Y0021745D01*
X0291638Y0021793D01*
X0291842Y0021837D01*
X0292047Y0021875D01*
X0292253Y0021908D01*
X0292460Y0021936D01*
X0292667Y0021959D01*
X0292875Y0021977D01*
X0293083Y0021990D01*
X0293291Y0021997D01*
X0293500Y0022000D01*
X0293709Y0021997D01*
X0293917Y0021990D01*
X0294125Y0021977D01*
X0294333Y0021959D01*
X0294540Y0021936D01*
X0294747Y0021908D01*
X0294953Y0021875D01*
X0295158Y0021837D01*
X0295362Y0021793D01*
X0295565Y0021745D01*
X0295767Y0021692D01*
X0295967Y0021634D01*
X0296166Y0021571D01*
X0296364Y0021503D01*
X0296559Y0021430D01*
X0296753Y0021353D01*
X0296945Y0021271D01*
X0297134Y0021184D01*
X0297322Y0021092D01*
X0297507Y0020996D01*
X0297690Y0020896D01*
X0297870Y0020791D01*
X0298047Y0020681D01*
X0298222Y0020567D01*
X0298394Y0020449D01*
X0298563Y0020327D01*
X0298729Y0020201D01*
X0298892Y0020071D01*
X0299052Y0019936D01*
X0299208Y0019798D01*
X0299361Y0019656D01*
X0299510Y0019510D01*
X0299656Y0019361D01*
X0299798Y0019208D01*
X0299936Y0019052D01*
X0300071Y0018892D01*
X0300201Y0018729D01*
X0300327Y0018563D01*
X0300449Y0018394D01*
X0300567Y0018222D01*
X0300681Y0018047D01*
X0300791Y0017870D01*
X0300896Y0017690D01*
X0300996Y0017507D01*
X0301092Y0017322D01*
X0301184Y0017134D01*
X0301271Y0016945D01*
X0301353Y0016753D01*
X0301430Y0016559D01*
X0301503Y0016364D01*
X0301571Y0016166D01*
X0301634Y0015967D01*
X0301692Y0015767D01*
X0301745Y0015565D01*
X0301793Y0015362D01*
X0301837Y0015158D01*
X0301875Y0014953D01*
X0301908Y0014747D01*
X0301936Y0014540D01*
X0301959Y0014333D01*
X0301977Y0014125D01*
X0301990Y0013917D01*
X0301997Y0013709D01*
X0302000Y0013500D01*
X0301997Y0013291D01*
X0301990Y0013083D01*
X0301977Y0012875D01*
X0301959Y0012667D01*
X0301936Y0012460D01*
X0301908Y0012253D01*
X0301875Y0012047D01*
X0301837Y0011842D01*
X0301793Y0011638D01*
X0301745Y0011435D01*
X0301692Y0011233D01*
X0301634Y0011033D01*
X0301571Y0010834D01*
X0301503Y0010636D01*
X0301430Y0010441D01*
X0301353Y0010247D01*
X0301271Y0010055D01*
X0301184Y0009866D01*
X0301092Y0009678D01*
X0300996Y0009493D01*
X0300896Y0009310D01*
X0300791Y0009130D01*
X0300681Y0008953D01*
X0300567Y0008778D01*
X0300449Y0008606D01*
X0300327Y0008437D01*
X0300201Y0008271D01*
X0300071Y0008108D01*
X0299936Y0007948D01*
X0299798Y0007792D01*
X0299656Y0007639D01*
X0299510Y0007490D01*
X0299361Y0007344D01*
X0299208Y0007202D01*
X0299052Y0007064D01*
X0298892Y0006929D01*
X0298729Y0006799D01*
X0298563Y0006673D01*
X0298394Y0006551D01*
X0298222Y0006433D01*
X0298047Y0006319D01*
X0297870Y0006209D01*
X0297690Y0006104D01*
X0297507Y0006004D01*
X0297322Y0005908D01*
X0297134Y0005816D01*
X0296945Y0005729D01*
X0296753Y0005647D01*
X0296559Y0005570D01*
X0296364Y0005497D01*
X0296166Y0005429D01*
X0295967Y0005366D01*
X0295767Y0005308D01*
X0295565Y0005255D01*
X0295362Y0005207D01*
X0295158Y0005163D01*
X0294953Y0005125D01*
X0294747Y0005092D01*
X0294540Y0005064D01*
X0294333Y0005041D01*
X0294125Y0005023D01*
X0293917Y0005010D01*
X0293709Y0005003D01*
X0293500Y0005000D01*
X0293291Y0005003D01*
X0293083Y0005010D01*
X0292875Y0005023D01*
X0292667Y0005041D01*
X0292460Y0005064D01*
X0292253Y0005092D01*
X0292047Y0005125D01*
X0291842Y0005163D01*
X0291638Y0005207D01*
X0291435Y0005255D01*
X0291233Y0005308D01*
X0291033Y0005366D01*
X0290834Y0005429D01*
X0290636Y0005497D01*
X0290441Y0005570D01*
X0290247Y0005647D01*
X0290055Y0005729D01*
X0289866Y0005816D01*
X0289678Y0005908D01*
X0289493Y0006004D01*
X0289310Y0006104D01*
X0289130Y0006209D01*
X0288953Y0006319D01*
X0288778Y0006433D01*
X0288606Y0006551D01*
X0288437Y0006673D01*
X0288271Y0006799D01*
X0288108Y0006929D01*
X0287948Y0007064D01*
X0287792Y0007202D01*
X0287639Y0007344D01*
X0287490Y0007490D01*
X0287344Y0007639D01*
X0287202Y0007792D01*
X0287064Y0007948D01*
X0286929Y0008108D01*
X0286799Y0008271D01*
X0286673Y0008437D01*
X0286551Y0008606D01*
X0286433Y0008778D01*
X0286319Y0008953D01*
X0286209Y0009130D01*
X0286104Y0009310D01*
X0286004Y0009493D01*
X0285908Y0009678D01*
X0285816Y0009866D01*
X0285729Y0010055D01*
X0285647Y0010247D01*
X0285570Y0010441D01*
X0285497Y0010636D01*
X0285429Y0010834D01*
X0285366Y0011033D01*
X0285308Y0011233D01*
X0285255Y0011435D01*
X0285207Y0011638D01*
X0285163Y0011842D01*
X0285125Y0012047D01*
X0285092Y0012253D01*
X0285064Y0012460D01*
X0285041Y0012667D01*
X0285023Y0012875D01*
X0285010Y0013083D01*
X0285003Y0013291D01*
X0285000Y0013500D01*
D11*
X0261827Y0031000D03*
X0261827Y0038362D03*
X0261827Y0045724D03*
X0261827Y0053087D03*
X0261827Y0062496D03*
X0261827Y0069858D03*
X0261827Y0077220D03*
X0261827Y0084583D03*
X0261827Y0093992D03*
X0261827Y0101354D03*
X0261827Y0108717D03*
X0261827Y0116079D03*
X0261827Y0125488D03*
X0261827Y0132850D03*
X0261827Y0140213D03*
X0261827Y0147575D03*
X0251000Y0147575D03*
X0251000Y0140213D03*
X0251000Y0132850D03*
X0251000Y0125488D03*
X0251000Y0116079D03*
X0251000Y0108717D03*
X0251000Y0101354D03*
X0251000Y0093992D03*
X0251000Y0084583D03*
X0251000Y0077220D03*
X0251000Y0069858D03*
X0251000Y0062496D03*
X0251000Y0053087D03*
X0251000Y0045724D03*
X0251000Y0038362D03*
X0251000Y0031000D03*
X0325803Y0031000D03*
X0325803Y0038047D03*
X0325803Y0045094D03*
X0325803Y0052142D03*
X0325803Y0059189D03*
X0336630Y0059189D03*
X0336630Y0052142D03*
X0336630Y0045094D03*
X0336630Y0038047D03*
X0336630Y0031000D03*
X0336630Y0081591D03*
X0336630Y0089465D03*
X0336630Y0097339D03*
X0325803Y0097339D03*
X0325803Y0089465D03*
X0325803Y0081591D03*
X0325803Y0109898D03*
X0325803Y0117457D03*
X0325803Y0125016D03*
X0325803Y0132575D03*
X0325803Y0140134D03*
X0325803Y0147693D03*
X0336630Y0147693D03*
X0336630Y0140134D03*
X0336630Y0132575D03*
X0336630Y0125016D03*
X0336630Y0117457D03*
X0336630Y0109898D03*
X0336630Y0166000D03*
X0336630Y0173047D03*
X0336630Y0180094D03*
X0336630Y0187142D03*
X0336630Y0194189D03*
X0325803Y0194189D03*
X0325803Y0187142D03*
X0325803Y0180094D03*
X0325803Y0173047D03*
X0325803Y0166000D03*
X0325803Y0216591D03*
X0325803Y0224465D03*
X0325803Y0232339D03*
X0336630Y0232339D03*
X0336630Y0224465D03*
X0336630Y0216591D03*
X0336630Y0244898D03*
X0336630Y0252457D03*
X0336630Y0260016D03*
X0336630Y0267575D03*
X0336630Y0275134D03*
X0336630Y0282693D03*
X0325803Y0282693D03*
X0325803Y0275134D03*
X0325803Y0267575D03*
X0325803Y0260016D03*
X0325803Y0252457D03*
X0325803Y0244898D03*
X0261827Y0243717D03*
X0261827Y0251079D03*
X0261827Y0260488D03*
X0261827Y0267850D03*
X0261827Y0275213D03*
X0261827Y0282575D03*
X0251000Y0282575D03*
X0251000Y0275213D03*
X0251000Y0267850D03*
X0251000Y0260488D03*
X0251000Y0251079D03*
X0251000Y0243717D03*
X0251000Y0236354D03*
X0251000Y0228992D03*
X0251000Y0219583D03*
X0251000Y0212220D03*
X0251000Y0204858D03*
X0251000Y0197496D03*
X0251000Y0188087D03*
X0251000Y0180724D03*
X0251000Y0173362D03*
X0251000Y0166000D03*
X0261827Y0166000D03*
X0261827Y0173362D03*
X0261827Y0180724D03*
X0261827Y0188087D03*
X0261827Y0197496D03*
X0261827Y0204858D03*
X0261827Y0212220D03*
X0261827Y0219583D03*
X0261827Y0228992D03*
X0261827Y0236354D03*
X0146000Y0239780D03*
X0146000Y0232417D03*
X0146000Y0223008D03*
X0146000Y0215646D03*
X0146000Y0208283D03*
X0146000Y0200921D03*
X0146000Y0191512D03*
X0146000Y0184150D03*
X0146000Y0176787D03*
X0146000Y0169425D03*
X0135173Y0169425D03*
X0135173Y0176787D03*
X0135173Y0184150D03*
X0135173Y0191512D03*
X0135173Y0200921D03*
X0135173Y0208283D03*
X0135173Y0215646D03*
X0135173Y0223008D03*
X0135173Y0232417D03*
X0135173Y0239780D03*
X0135173Y0247142D03*
X0135173Y0254504D03*
X0135173Y0263913D03*
X0135173Y0271276D03*
X0135173Y0278638D03*
X0135173Y0286000D03*
X0146000Y0286000D03*
X0146000Y0278638D03*
X0146000Y0271276D03*
X0146000Y0263913D03*
X0146000Y0254504D03*
X0146000Y0247142D03*
X0071197Y0257811D03*
X0071197Y0264858D03*
X0071197Y0271906D03*
X0071197Y0278953D03*
X0071197Y0286000D03*
X0060370Y0286000D03*
X0060370Y0278953D03*
X0060370Y0271906D03*
X0060370Y0264858D03*
X0060370Y0257811D03*
X0060370Y0235409D03*
X0060370Y0227535D03*
X0060370Y0219661D03*
X0071197Y0219661D03*
X0071197Y0227535D03*
X0071197Y0235409D03*
X0071197Y0207102D03*
X0071197Y0199543D03*
X0071197Y0191984D03*
X0071197Y0184425D03*
X0071197Y0176866D03*
X0071197Y0169307D03*
X0060370Y0169307D03*
X0060370Y0176866D03*
X0060370Y0184425D03*
X0060370Y0191984D03*
X0060370Y0199543D03*
X0060370Y0207102D03*
X0060370Y0148500D03*
X0060370Y0141453D03*
X0060370Y0134406D03*
X0060370Y0127358D03*
X0060370Y0120311D03*
X0071197Y0120311D03*
X0071197Y0127358D03*
X0071197Y0134406D03*
X0071197Y0141453D03*
X0071197Y0148500D03*
X0071197Y0097909D03*
X0071197Y0090035D03*
X0071197Y0082161D03*
X0060370Y0082161D03*
X0060370Y0090035D03*
X0060370Y0097909D03*
X0060370Y0069602D03*
X0060370Y0062043D03*
X0060370Y0054484D03*
X0060370Y0046925D03*
X0060370Y0039366D03*
X0060370Y0031807D03*
X0071197Y0031807D03*
X0071197Y0039366D03*
X0071197Y0046925D03*
X0071197Y0054484D03*
X0071197Y0062043D03*
X0071197Y0069602D03*
X0135173Y0070783D03*
X0135173Y0063421D03*
X0135173Y0054012D03*
X0135173Y0046650D03*
X0135173Y0039287D03*
X0135173Y0031925D03*
X0146000Y0031925D03*
X0146000Y0039287D03*
X0146000Y0046650D03*
X0146000Y0054012D03*
X0146000Y0063421D03*
X0146000Y0070783D03*
X0146000Y0078146D03*
X0146000Y0085508D03*
X0146000Y0094917D03*
X0146000Y0102280D03*
X0146000Y0109642D03*
X0146000Y0117004D03*
X0146000Y0126413D03*
X0146000Y0133776D03*
X0146000Y0141138D03*
X0146000Y0148500D03*
X0135173Y0148500D03*
X0135173Y0141138D03*
X0135173Y0133776D03*
X0135173Y0126413D03*
X0135173Y0117004D03*
X0135173Y0109642D03*
X0135173Y0102280D03*
X0135173Y0094917D03*
X0135173Y0085508D03*
X0135173Y0078146D03*
D12*
X0046000Y0028500D03*
X0036000Y0028500D03*
X0011000Y0081000D03*
X0011000Y0091000D03*
X0211000Y0228500D03*
X0221000Y0228500D03*
X0221000Y0258500D03*
X0211000Y0258500D03*
X0381000Y0096000D03*
X0381000Y0086000D03*
X0358500Y0031000D03*
X0348500Y0031000D03*
D13*
X0356059Y0188500D03*
X0378500Y0188500D03*
X0040941Y0188500D03*
X0018500Y0188500D03*
D14*
X0174975Y0183657D02*
X0182025Y0183657D01*
X0182025Y0203343D02*
X0174975Y0203343D01*
X0174975Y0223657D02*
X0182025Y0223657D01*
X0182025Y0243343D02*
X0174975Y0243343D01*
X0174975Y0263657D02*
X0182025Y0263657D01*
X0182025Y0283343D02*
X0174975Y0283343D01*
X0212475Y0203343D02*
X0219525Y0203343D01*
X0219525Y0183657D02*
X0212475Y0183657D01*
X0212475Y0163343D02*
X0219525Y0163343D01*
X0219525Y0143657D02*
X0212475Y0143657D01*
X0212475Y0123343D02*
X0219525Y0123343D01*
X0219525Y0103657D02*
X0212475Y0103657D01*
X0212475Y0083343D02*
X0219525Y0083343D01*
X0219525Y0063657D02*
X0212475Y0063657D01*
X0182025Y0063657D02*
X0174975Y0063657D01*
X0174975Y0083343D02*
X0182025Y0083343D01*
X0182025Y0103657D02*
X0174975Y0103657D01*
X0174975Y0123343D02*
X0182025Y0123343D01*
X0182025Y0143657D02*
X0174975Y0143657D01*
X0174975Y0163343D02*
X0182025Y0163343D01*
D15*
X0044000Y0211000D02*
X0038000Y0211000D01*
X0038000Y0221000D02*
X0044000Y0221000D01*
X0044000Y0231000D02*
X0038000Y0231000D01*
X0038000Y0241000D02*
X0044000Y0241000D01*
X0044000Y0098500D02*
X0038000Y0098500D01*
X0038000Y0088500D02*
X0044000Y0088500D01*
X0044000Y0078500D02*
X0038000Y0078500D01*
X0038000Y0068500D02*
X0044000Y0068500D01*
X0350500Y0078500D02*
X0356500Y0078500D01*
X0356500Y0088500D02*
X0350500Y0088500D01*
X0350500Y0098500D02*
X0356500Y0098500D01*
X0356500Y0108500D02*
X0350500Y0108500D01*
X0353000Y0213500D02*
X0359000Y0213500D01*
X0359000Y0223500D02*
X0353000Y0223500D01*
X0353000Y0233500D02*
X0359000Y0233500D01*
X0359000Y0243500D02*
X0353000Y0243500D01*
D16*
X0356000Y0243500D02*
X0356000Y0233500D01*
X0337791Y0233500D01*
X0336630Y0232339D01*
X0325803Y0232339D01*
X0320423Y0234383D02*
X0291000Y0234383D01*
X0291000Y0235981D02*
X0321310Y0235981D01*
X0320926Y0235597D02*
X0320050Y0233483D01*
X0320050Y0231194D01*
X0320926Y0229080D01*
X0321605Y0228402D01*
X0320926Y0227723D01*
X0320050Y0225609D01*
X0320050Y0223320D01*
X0320926Y0221206D01*
X0321605Y0220528D01*
X0320926Y0219849D01*
X0320050Y0217735D01*
X0320050Y0215446D01*
X0320926Y0213332D01*
X0322544Y0211714D01*
X0324659Y0210838D01*
X0326947Y0210838D01*
X0329062Y0211714D01*
X0330680Y0213332D01*
X0330953Y0213991D01*
X0331480Y0213991D01*
X0331753Y0213332D01*
X0333371Y0211714D01*
X0335486Y0210838D01*
X0337774Y0210838D01*
X0338564Y0211165D01*
X0339203Y0210900D01*
X0347799Y0210900D01*
X0348083Y0210215D01*
X0349715Y0208583D01*
X0351846Y0207700D01*
X0360154Y0207700D01*
X0362285Y0208583D01*
X0363917Y0210215D01*
X0364800Y0212346D01*
X0364800Y0214654D01*
X0363917Y0216785D01*
X0362285Y0218417D01*
X0362085Y0218500D01*
X0362285Y0218583D01*
X0363917Y0220215D01*
X0364800Y0222346D01*
X0364800Y0224654D01*
X0363917Y0226785D01*
X0362285Y0228417D01*
X0362085Y0228500D01*
X0362285Y0228583D01*
X0363917Y0230215D01*
X0364800Y0232346D01*
X0364800Y0234654D01*
X0363917Y0236785D01*
X0362285Y0238417D01*
X0362085Y0238500D01*
X0362285Y0238583D01*
X0363917Y0240215D01*
X0364800Y0242346D01*
X0364800Y0244654D01*
X0363917Y0246785D01*
X0362285Y0248417D01*
X0360154Y0249300D01*
X0351846Y0249300D01*
X0349715Y0248417D01*
X0348083Y0246785D01*
X0347200Y0244654D01*
X0347200Y0242346D01*
X0348083Y0240215D01*
X0349715Y0238583D01*
X0349915Y0238500D01*
X0349715Y0238417D01*
X0348083Y0236785D01*
X0347799Y0236100D01*
X0341004Y0236100D01*
X0339889Y0237216D01*
X0337774Y0238091D01*
X0335486Y0238091D01*
X0333371Y0237216D01*
X0331753Y0235597D01*
X0331480Y0234939D01*
X0330953Y0234939D01*
X0330680Y0235597D01*
X0329062Y0237216D01*
X0326947Y0238091D01*
X0324659Y0238091D01*
X0322544Y0237216D01*
X0320926Y0235597D01*
X0320050Y0232784D02*
X0291000Y0232784D01*
X0291000Y0231186D02*
X0320054Y0231186D01*
X0320716Y0229587D02*
X0291000Y0229587D01*
X0291000Y0227989D02*
X0321192Y0227989D01*
X0320374Y0226390D02*
X0291000Y0226390D01*
X0291000Y0224792D02*
X0320050Y0224792D01*
X0320103Y0223193D02*
X0291000Y0223193D01*
X0291000Y0221595D02*
X0320765Y0221595D01*
X0321073Y0219996D02*
X0291000Y0219996D01*
X0291000Y0218398D02*
X0320325Y0218398D01*
X0320050Y0216799D02*
X0291000Y0216799D01*
X0291000Y0215201D02*
X0320152Y0215201D01*
X0320814Y0213602D02*
X0291000Y0213602D01*
X0291000Y0212003D02*
X0322255Y0212003D01*
X0325803Y0216591D02*
X0336630Y0216591D01*
X0339720Y0213500D01*
X0356000Y0213500D01*
X0362509Y0208806D02*
X0369794Y0208806D01*
X0369823Y0208699D02*
X0371233Y0206257D01*
X0373226Y0204264D01*
X0375667Y0202855D01*
X0378390Y0202125D01*
X0381209Y0202125D01*
X0383931Y0202855D01*
X0386200Y0204165D01*
X0386200Y0172835D01*
X0383931Y0174145D01*
X0381209Y0174875D01*
X0378390Y0174875D01*
X0375667Y0174145D01*
X0373226Y0172736D01*
X0371233Y0170743D01*
X0369823Y0168301D01*
X0369094Y0165579D01*
X0369094Y0162760D01*
X0369823Y0160037D01*
X0371233Y0157596D01*
X0373226Y0155603D01*
X0375667Y0154193D01*
X0378390Y0153464D01*
X0381209Y0153464D01*
X0383931Y0154193D01*
X0386200Y0155503D01*
X0386200Y0099215D01*
X0383465Y0101950D01*
X0378535Y0101950D01*
X0375050Y0098465D01*
X0375050Y0093535D01*
X0378535Y0090050D01*
X0383465Y0090050D01*
X0386200Y0092785D01*
X0386200Y0026000D01*
X0381970Y0026000D01*
X0380602Y0028368D01*
X0378368Y0030602D01*
X0375632Y0032182D01*
X0372580Y0033000D01*
X0369420Y0033000D01*
X0366368Y0032182D01*
X0364450Y0031075D01*
X0364450Y0033465D01*
X0360965Y0036950D01*
X0356035Y0036950D01*
X0352550Y0033465D01*
X0352550Y0028535D01*
X0355085Y0026000D01*
X0298237Y0026000D01*
X0295251Y0026800D01*
X0291749Y0026800D01*
X0291000Y0026599D01*
X0291000Y0291071D01*
X0294249Y0290200D01*
X0297751Y0290200D01*
X0301134Y0291106D01*
X0304166Y0292857D01*
X0306643Y0295334D01*
X0308394Y0298366D01*
X0309300Y0301749D01*
X0309300Y0305251D01*
X0308429Y0308500D01*
X0386200Y0308500D01*
X0386200Y0221497D01*
X0383931Y0222807D01*
X0381209Y0223536D01*
X0378390Y0223536D01*
X0375667Y0222807D01*
X0373226Y0221397D01*
X0371233Y0219404D01*
X0369823Y0216963D01*
X0369094Y0214240D01*
X0369094Y0211421D01*
X0369823Y0208699D01*
X0370684Y0207208D02*
X0291000Y0207208D01*
X0291000Y0208806D02*
X0349491Y0208806D01*
X0348004Y0210405D02*
X0291000Y0210405D01*
X0291000Y0205609D02*
X0371881Y0205609D01*
X0373664Y0204011D02*
X0291000Y0204011D01*
X0291000Y0202412D02*
X0377318Y0202412D01*
X0382281Y0202412D02*
X0386200Y0202412D01*
X0386200Y0200814D02*
X0291000Y0200814D01*
X0291000Y0199215D02*
X0386200Y0199215D01*
X0386200Y0197617D02*
X0291000Y0197617D01*
X0291000Y0196018D02*
X0353005Y0196018D01*
X0354445Y0196615D02*
X0351462Y0195380D01*
X0349180Y0193097D01*
X0347944Y0190114D01*
X0347944Y0186886D01*
X0349180Y0183903D01*
X0351462Y0181620D01*
X0354445Y0180385D01*
X0357673Y0180385D01*
X0360656Y0181620D01*
X0362939Y0183903D01*
X0364174Y0186886D01*
X0364174Y0190114D01*
X0362939Y0193097D01*
X0360656Y0195380D01*
X0357673Y0196615D01*
X0354445Y0196615D01*
X0350503Y0194420D02*
X0291000Y0194420D01*
X0291000Y0192821D02*
X0349065Y0192821D01*
X0348403Y0191223D02*
X0291000Y0191223D01*
X0291000Y0189624D02*
X0347944Y0189624D01*
X0347944Y0188026D02*
X0291000Y0188026D01*
X0291000Y0186427D02*
X0348134Y0186427D01*
X0348796Y0184829D02*
X0291000Y0184829D01*
X0291000Y0183230D02*
X0349852Y0183230D01*
X0351451Y0181632D02*
X0291000Y0181632D01*
X0291000Y0180033D02*
X0386200Y0180033D01*
X0386200Y0178435D02*
X0291000Y0178435D01*
X0291000Y0176836D02*
X0386200Y0176836D01*
X0386200Y0175238D02*
X0291000Y0175238D01*
X0291000Y0173639D02*
X0374791Y0173639D01*
X0372531Y0172041D02*
X0291000Y0172041D01*
X0291000Y0170442D02*
X0371059Y0170442D01*
X0370136Y0168844D02*
X0291000Y0168844D01*
X0291000Y0167245D02*
X0369540Y0167245D01*
X0369112Y0165647D02*
X0291000Y0165647D01*
X0291000Y0164048D02*
X0369094Y0164048D01*
X0369177Y0162450D02*
X0291000Y0162450D01*
X0291000Y0160851D02*
X0369605Y0160851D01*
X0370276Y0159253D02*
X0291000Y0159253D01*
X0291000Y0157654D02*
X0371199Y0157654D01*
X0372773Y0156056D02*
X0291000Y0156056D01*
X0291000Y0154457D02*
X0375210Y0154457D01*
X0384388Y0154457D02*
X0386200Y0154457D01*
X0386200Y0152859D02*
X0339192Y0152859D01*
X0339889Y0152570D02*
X0337774Y0153446D01*
X0335486Y0153446D01*
X0333371Y0152570D01*
X0331753Y0150952D01*
X0331217Y0149656D01*
X0330680Y0150952D01*
X0329062Y0152570D01*
X0326947Y0153446D01*
X0324659Y0153446D01*
X0322544Y0152570D01*
X0320926Y0150952D01*
X0320050Y0148837D01*
X0320050Y0146549D01*
X0320926Y0144434D01*
X0321447Y0143913D01*
X0320926Y0143393D01*
X0320050Y0141278D01*
X0320050Y0138990D01*
X0320926Y0136875D01*
X0321447Y0136354D01*
X0320926Y0135833D01*
X0320050Y0133719D01*
X0320050Y0131430D01*
X0320926Y0129316D01*
X0321447Y0128795D01*
X0320926Y0128274D01*
X0320050Y0126160D01*
X0320050Y0123871D01*
X0320926Y0121757D01*
X0321447Y0121236D01*
X0320926Y0120715D01*
X0320050Y0118601D01*
X0320050Y0116312D01*
X0320926Y0114198D01*
X0321447Y0113677D01*
X0320926Y0113156D01*
X0320050Y0111042D01*
X0320050Y0108753D01*
X0320926Y0106639D01*
X0322544Y0105021D01*
X0324659Y0104145D01*
X0326947Y0104145D01*
X0329062Y0105021D01*
X0330680Y0106639D01*
X0331217Y0107934D01*
X0331753Y0106639D01*
X0333371Y0105021D01*
X0335486Y0104145D01*
X0337774Y0104145D01*
X0339889Y0105021D01*
X0341507Y0106639D01*
X0342383Y0108753D01*
X0342383Y0111042D01*
X0341507Y0113156D01*
X0340986Y0113677D01*
X0341507Y0114198D01*
X0342383Y0116312D01*
X0342383Y0118601D01*
X0341507Y0120715D01*
X0340986Y0121236D01*
X0341507Y0121757D01*
X0342383Y0123871D01*
X0342383Y0126160D01*
X0341507Y0128274D01*
X0340986Y0128795D01*
X0341507Y0129316D01*
X0342383Y0131430D01*
X0342383Y0133719D01*
X0341507Y0135833D01*
X0340986Y0136354D01*
X0341507Y0136875D01*
X0342383Y0138990D01*
X0342383Y0141278D01*
X0341507Y0143393D01*
X0340986Y0143913D01*
X0341507Y0144434D01*
X0342383Y0146549D01*
X0342383Y0148837D01*
X0341507Y0150952D01*
X0339889Y0152570D01*
X0341198Y0151260D02*
X0386200Y0151260D01*
X0386200Y0149662D02*
X0342041Y0149662D01*
X0342383Y0148063D02*
X0386200Y0148063D01*
X0386200Y0146465D02*
X0342348Y0146465D01*
X0341686Y0144866D02*
X0386200Y0144866D01*
X0386200Y0143268D02*
X0341559Y0143268D01*
X0342221Y0141669D02*
X0386200Y0141669D01*
X0386200Y0140070D02*
X0342383Y0140070D01*
X0342168Y0138472D02*
X0386200Y0138472D01*
X0386200Y0136873D02*
X0341505Y0136873D01*
X0341738Y0135275D02*
X0386200Y0135275D01*
X0386200Y0133676D02*
X0342383Y0133676D01*
X0342383Y0132078D02*
X0386200Y0132078D01*
X0386200Y0130479D02*
X0341989Y0130479D01*
X0341072Y0128881D02*
X0386200Y0128881D01*
X0386200Y0127282D02*
X0341918Y0127282D01*
X0342383Y0125684D02*
X0386200Y0125684D01*
X0386200Y0124085D02*
X0342383Y0124085D01*
X0341809Y0122487D02*
X0386200Y0122487D01*
X0386200Y0120888D02*
X0341334Y0120888D01*
X0342097Y0119290D02*
X0386200Y0119290D01*
X0386200Y0117691D02*
X0342383Y0117691D01*
X0342292Y0116093D02*
X0386200Y0116093D01*
X0386200Y0114494D02*
X0341630Y0114494D01*
X0341615Y0112896D02*
X0346693Y0112896D01*
X0347215Y0113417D02*
X0345583Y0111785D01*
X0344700Y0109654D01*
X0344700Y0107346D01*
X0345583Y0105215D01*
X0347215Y0103583D01*
X0347415Y0103500D01*
X0347215Y0103417D01*
X0345583Y0101785D01*
X0344700Y0099654D01*
X0344700Y0097346D01*
X0345583Y0095215D01*
X0347215Y0093583D01*
X0347415Y0093500D01*
X0347215Y0093417D01*
X0345583Y0091785D01*
X0344700Y0089654D01*
X0344700Y0087346D01*
X0345583Y0085215D01*
X0347215Y0083583D01*
X0347415Y0083500D01*
X0347215Y0083417D01*
X0345583Y0081785D01*
X0344700Y0079654D01*
X0344700Y0077346D01*
X0345583Y0075215D01*
X0347215Y0073583D01*
X0349346Y0072700D01*
X0357654Y0072700D01*
X0359785Y0073583D01*
X0361417Y0075215D01*
X0362300Y0077346D01*
X0362300Y0079654D01*
X0361417Y0081785D01*
X0359785Y0083417D01*
X0359585Y0083500D01*
X0359785Y0083583D01*
X0361417Y0085215D01*
X0362300Y0087346D01*
X0362300Y0089654D01*
X0361417Y0091785D01*
X0359785Y0093417D01*
X0359585Y0093500D01*
X0359785Y0093583D01*
X0361417Y0095215D01*
X0362300Y0097346D01*
X0362300Y0099654D01*
X0361417Y0101785D01*
X0359785Y0103417D01*
X0359585Y0103500D01*
X0359785Y0103583D01*
X0361417Y0105215D01*
X0362300Y0107346D01*
X0362300Y0109654D01*
X0361417Y0111785D01*
X0359785Y0113417D01*
X0357654Y0114300D01*
X0349346Y0114300D01*
X0347215Y0113417D01*
X0345381Y0111297D02*
X0342277Y0111297D01*
X0342383Y0109699D02*
X0344719Y0109699D01*
X0344700Y0108100D02*
X0342112Y0108100D01*
X0341370Y0106502D02*
X0345050Y0106502D01*
X0345894Y0104903D02*
X0339605Y0104903D01*
X0337774Y0103091D02*
X0335486Y0103091D01*
X0333371Y0102216D01*
X0331753Y0100597D01*
X0331217Y0099302D01*
X0330680Y0100597D01*
X0329062Y0102216D01*
X0326947Y0103091D01*
X0324659Y0103091D01*
X0322544Y0102216D01*
X0320926Y0100597D01*
X0320050Y0098483D01*
X0320050Y0096194D01*
X0320926Y0094080D01*
X0321605Y0093402D01*
X0320926Y0092723D01*
X0320050Y0090609D01*
X0320050Y0088320D01*
X0320926Y0086206D01*
X0321605Y0085528D01*
X0320926Y0084849D01*
X0320050Y0082735D01*
X0320050Y0080446D01*
X0320926Y0078332D01*
X0322544Y0076714D01*
X0324659Y0075838D01*
X0326947Y0075838D01*
X0329062Y0076714D01*
X0330680Y0078332D01*
X0331217Y0079627D01*
X0331753Y0078332D01*
X0333371Y0076714D01*
X0335486Y0075838D01*
X0337774Y0075838D01*
X0339889Y0076714D01*
X0341507Y0078332D01*
X0342383Y0080446D01*
X0342383Y0082735D01*
X0341507Y0084849D01*
X0340829Y0085528D01*
X0341507Y0086206D01*
X0342383Y0088320D01*
X0342383Y0090609D01*
X0341507Y0092723D01*
X0340829Y0093402D01*
X0341507Y0094080D01*
X0342383Y0096194D01*
X0342383Y0098483D01*
X0341507Y0100597D01*
X0339889Y0102216D01*
X0337774Y0103091D01*
X0340398Y0101706D02*
X0345550Y0101706D01*
X0344888Y0100108D02*
X0341710Y0100108D01*
X0342372Y0098509D02*
X0344700Y0098509D01*
X0344880Y0096911D02*
X0342383Y0096911D01*
X0342017Y0095312D02*
X0345543Y0095312D01*
X0347084Y0093714D02*
X0341141Y0093714D01*
X0341759Y0092115D02*
X0345913Y0092115D01*
X0345057Y0090517D02*
X0342383Y0090517D01*
X0342383Y0088918D02*
X0344700Y0088918D01*
X0344711Y0087320D02*
X0341968Y0087320D01*
X0341022Y0085721D02*
X0345373Y0085721D01*
X0346675Y0084123D02*
X0341808Y0084123D01*
X0342383Y0082524D02*
X0346322Y0082524D01*
X0345227Y0080926D02*
X0342383Y0080926D01*
X0341919Y0079327D02*
X0344700Y0079327D01*
X0344700Y0077729D02*
X0340904Y0077729D01*
X0338480Y0076130D02*
X0345204Y0076130D01*
X0346266Y0074532D02*
X0291000Y0074532D01*
X0291000Y0076130D02*
X0323953Y0076130D01*
X0321530Y0077729D02*
X0291000Y0077729D01*
X0291000Y0079327D02*
X0320514Y0079327D01*
X0320050Y0080926D02*
X0291000Y0080926D01*
X0291000Y0082524D02*
X0320050Y0082524D01*
X0320625Y0084123D02*
X0291000Y0084123D01*
X0291000Y0085721D02*
X0321411Y0085721D01*
X0320465Y0087320D02*
X0291000Y0087320D01*
X0291000Y0088918D02*
X0320050Y0088918D01*
X0320050Y0090517D02*
X0291000Y0090517D01*
X0291000Y0092115D02*
X0320674Y0092115D01*
X0321292Y0093714D02*
X0291000Y0093714D01*
X0291000Y0095312D02*
X0320416Y0095312D01*
X0320050Y0096911D02*
X0291000Y0096911D01*
X0291000Y0098509D02*
X0320061Y0098509D01*
X0320723Y0100108D02*
X0291000Y0100108D01*
X0291000Y0101706D02*
X0322035Y0101706D01*
X0322828Y0104903D02*
X0291000Y0104903D01*
X0291000Y0103305D02*
X0347102Y0103305D01*
X0333655Y0104903D02*
X0328778Y0104903D01*
X0330543Y0106502D02*
X0331890Y0106502D01*
X0332862Y0101706D02*
X0329571Y0101706D01*
X0330883Y0100108D02*
X0331550Y0100108D01*
X0321063Y0106502D02*
X0291000Y0106502D01*
X0291000Y0108100D02*
X0320321Y0108100D01*
X0320050Y0109699D02*
X0291000Y0109699D01*
X0291000Y0111297D02*
X0320156Y0111297D01*
X0320818Y0112896D02*
X0291000Y0112896D01*
X0291000Y0114494D02*
X0320803Y0114494D01*
X0320141Y0116093D02*
X0291000Y0116093D01*
X0291000Y0117691D02*
X0320050Y0117691D01*
X0320336Y0119290D02*
X0291000Y0119290D01*
X0291000Y0120888D02*
X0321099Y0120888D01*
X0320624Y0122487D02*
X0291000Y0122487D01*
X0291000Y0124085D02*
X0320050Y0124085D01*
X0320050Y0125684D02*
X0291000Y0125684D01*
X0291000Y0127282D02*
X0320515Y0127282D01*
X0321361Y0128881D02*
X0291000Y0128881D01*
X0291000Y0130479D02*
X0320444Y0130479D01*
X0320050Y0132078D02*
X0291000Y0132078D01*
X0291000Y0133676D02*
X0320050Y0133676D01*
X0320695Y0135275D02*
X0291000Y0135275D01*
X0291000Y0136873D02*
X0320928Y0136873D01*
X0320265Y0138472D02*
X0291000Y0138472D01*
X0291000Y0140070D02*
X0320050Y0140070D01*
X0320212Y0141669D02*
X0291000Y0141669D01*
X0291000Y0143268D02*
X0320874Y0143268D01*
X0320747Y0144866D02*
X0291000Y0144866D01*
X0291000Y0146465D02*
X0320085Y0146465D01*
X0320050Y0148063D02*
X0291000Y0148063D01*
X0291000Y0149662D02*
X0320392Y0149662D01*
X0321235Y0151260D02*
X0291000Y0151260D01*
X0291000Y0152859D02*
X0323242Y0152859D01*
X0328365Y0152859D02*
X0334068Y0152859D01*
X0332061Y0151260D02*
X0330372Y0151260D01*
X0331214Y0149662D02*
X0331219Y0149662D01*
X0360667Y0181632D02*
X0386200Y0181632D01*
X0386200Y0183230D02*
X0362266Y0183230D01*
X0363322Y0184829D02*
X0386200Y0184829D01*
X0386200Y0186427D02*
X0363984Y0186427D01*
X0364174Y0188026D02*
X0386200Y0188026D01*
X0386200Y0189624D02*
X0364174Y0189624D01*
X0363715Y0191223D02*
X0386200Y0191223D01*
X0386200Y0192821D02*
X0363053Y0192821D01*
X0361615Y0194420D02*
X0386200Y0194420D01*
X0386200Y0196018D02*
X0359113Y0196018D01*
X0363996Y0210405D02*
X0369366Y0210405D01*
X0369094Y0212003D02*
X0364658Y0212003D01*
X0364800Y0213602D02*
X0369094Y0213602D01*
X0369351Y0215201D02*
X0364573Y0215201D01*
X0363903Y0216799D02*
X0369779Y0216799D01*
X0370652Y0218398D02*
X0362305Y0218398D01*
X0363698Y0219996D02*
X0371825Y0219996D01*
X0373568Y0221595D02*
X0364489Y0221595D01*
X0364800Y0223193D02*
X0377109Y0223193D01*
X0382489Y0223193D02*
X0386200Y0223193D01*
X0386200Y0221595D02*
X0386031Y0221595D01*
X0386200Y0224792D02*
X0364743Y0224792D01*
X0364081Y0226390D02*
X0386200Y0226390D01*
X0386200Y0227989D02*
X0362714Y0227989D01*
X0363290Y0229587D02*
X0386200Y0229587D01*
X0386200Y0231186D02*
X0364319Y0231186D01*
X0364800Y0232784D02*
X0386200Y0232784D01*
X0386200Y0234383D02*
X0364800Y0234383D01*
X0364250Y0235981D02*
X0386200Y0235981D01*
X0386200Y0237580D02*
X0363123Y0237580D01*
X0362881Y0239178D02*
X0386200Y0239178D01*
X0386200Y0240777D02*
X0364150Y0240777D01*
X0364800Y0242375D02*
X0386200Y0242375D01*
X0386200Y0243974D02*
X0364800Y0243974D01*
X0364420Y0245572D02*
X0386200Y0245572D01*
X0386200Y0247171D02*
X0363532Y0247171D01*
X0361435Y0248769D02*
X0386200Y0248769D01*
X0386200Y0250368D02*
X0341991Y0250368D01*
X0342383Y0251312D02*
X0342383Y0253601D01*
X0341507Y0255715D01*
X0340986Y0256236D01*
X0341507Y0256757D01*
X0342383Y0258871D01*
X0342383Y0261160D01*
X0341507Y0263274D01*
X0340986Y0263795D01*
X0341507Y0264316D01*
X0342383Y0266430D01*
X0342383Y0268719D01*
X0341507Y0270833D01*
X0340986Y0271354D01*
X0341507Y0271875D01*
X0342383Y0273990D01*
X0342383Y0276278D01*
X0341507Y0278393D01*
X0340986Y0278913D01*
X0341507Y0279434D01*
X0342383Y0281549D01*
X0342383Y0283837D01*
X0341507Y0285952D01*
X0339889Y0287570D01*
X0337774Y0288446D01*
X0335486Y0288446D01*
X0333371Y0287570D01*
X0331753Y0285952D01*
X0331217Y0284656D01*
X0330680Y0285952D01*
X0329062Y0287570D01*
X0326947Y0288446D01*
X0324659Y0288446D01*
X0322544Y0287570D01*
X0320926Y0285952D01*
X0320050Y0283837D01*
X0320050Y0281549D01*
X0320926Y0279434D01*
X0321447Y0278913D01*
X0320926Y0278393D01*
X0320050Y0276278D01*
X0320050Y0273990D01*
X0320926Y0271875D01*
X0321447Y0271354D01*
X0320926Y0270833D01*
X0320050Y0268719D01*
X0320050Y0266430D01*
X0320926Y0264316D01*
X0321447Y0263795D01*
X0320926Y0263274D01*
X0320050Y0261160D01*
X0320050Y0258871D01*
X0320926Y0256757D01*
X0321447Y0256236D01*
X0320926Y0255715D01*
X0320050Y0253601D01*
X0320050Y0251312D01*
X0320926Y0249198D01*
X0321447Y0248677D01*
X0320926Y0248156D01*
X0320050Y0246042D01*
X0320050Y0243753D01*
X0320926Y0241639D01*
X0322544Y0240021D01*
X0324659Y0239145D01*
X0326947Y0239145D01*
X0329062Y0240021D01*
X0330680Y0241639D01*
X0331217Y0242934D01*
X0331753Y0241639D01*
X0333371Y0240021D01*
X0335486Y0239145D01*
X0337774Y0239145D01*
X0339889Y0240021D01*
X0341507Y0241639D01*
X0342383Y0243753D01*
X0342383Y0246042D01*
X0341507Y0248156D01*
X0340986Y0248677D01*
X0341507Y0249198D01*
X0342383Y0251312D01*
X0342383Y0251966D02*
X0386200Y0251966D01*
X0386200Y0253565D02*
X0342383Y0253565D01*
X0341736Y0255163D02*
X0386200Y0255163D01*
X0386200Y0256762D02*
X0341509Y0256762D01*
X0342171Y0258360D02*
X0386200Y0258360D01*
X0386200Y0259959D02*
X0342383Y0259959D01*
X0342218Y0261557D02*
X0386200Y0261557D01*
X0386200Y0263156D02*
X0341556Y0263156D01*
X0341688Y0264754D02*
X0386200Y0264754D01*
X0386200Y0266353D02*
X0342351Y0266353D01*
X0342383Y0267951D02*
X0386200Y0267951D01*
X0386200Y0269550D02*
X0342039Y0269550D01*
X0341192Y0271148D02*
X0386200Y0271148D01*
X0386200Y0272747D02*
X0341868Y0272747D01*
X0342383Y0274345D02*
X0386200Y0274345D01*
X0386200Y0275944D02*
X0342383Y0275944D01*
X0341859Y0277542D02*
X0386200Y0277542D01*
X0386200Y0279141D02*
X0341214Y0279141D01*
X0342048Y0280739D02*
X0386200Y0280739D01*
X0386200Y0282338D02*
X0342383Y0282338D01*
X0342342Y0283937D02*
X0386200Y0283937D01*
X0386200Y0285535D02*
X0376874Y0285535D01*
X0375632Y0284818D02*
X0378368Y0286398D01*
X0380602Y0288632D01*
X0382182Y0291368D01*
X0383000Y0294420D01*
X0383000Y0297580D01*
X0382182Y0300632D01*
X0380602Y0303368D01*
X0378368Y0305602D01*
X0375632Y0307182D01*
X0372580Y0308000D01*
X0369420Y0308000D01*
X0366368Y0307182D01*
X0363632Y0305602D01*
X0361398Y0303368D01*
X0359818Y0300632D01*
X0359000Y0297580D01*
X0359000Y0294420D01*
X0359818Y0291368D01*
X0361398Y0288632D01*
X0363632Y0286398D01*
X0366368Y0284818D01*
X0369420Y0284000D01*
X0372580Y0284000D01*
X0375632Y0284818D01*
X0379104Y0287134D02*
X0386200Y0287134D01*
X0386200Y0288732D02*
X0380660Y0288732D01*
X0381583Y0290331D02*
X0386200Y0290331D01*
X0386200Y0291929D02*
X0382332Y0291929D01*
X0382761Y0293528D02*
X0386200Y0293528D01*
X0386200Y0295126D02*
X0383000Y0295126D01*
X0383000Y0296725D02*
X0386200Y0296725D01*
X0386200Y0298323D02*
X0382801Y0298323D01*
X0382373Y0299922D02*
X0386200Y0299922D01*
X0386200Y0301520D02*
X0381669Y0301520D01*
X0380746Y0303119D02*
X0386200Y0303119D01*
X0386200Y0304717D02*
X0379253Y0304717D01*
X0377133Y0306316D02*
X0386200Y0306316D01*
X0386200Y0307914D02*
X0372900Y0307914D01*
X0369100Y0307914D02*
X0308586Y0307914D01*
X0309015Y0306316D02*
X0364867Y0306316D01*
X0362747Y0304717D02*
X0309300Y0304717D01*
X0309300Y0303119D02*
X0361254Y0303119D01*
X0360331Y0301520D02*
X0309239Y0301520D01*
X0308810Y0299922D02*
X0359627Y0299922D01*
X0359199Y0298323D02*
X0308369Y0298323D01*
X0307446Y0296725D02*
X0359000Y0296725D01*
X0359000Y0295126D02*
X0306435Y0295126D01*
X0304837Y0293528D02*
X0359239Y0293528D01*
X0359667Y0291929D02*
X0302559Y0291929D01*
X0298238Y0290331D02*
X0360417Y0290331D01*
X0361340Y0288732D02*
X0291000Y0288732D01*
X0291000Y0287134D02*
X0322108Y0287134D01*
X0320754Y0285535D02*
X0291000Y0285535D01*
X0291000Y0283937D02*
X0320092Y0283937D01*
X0320050Y0282338D02*
X0291000Y0282338D01*
X0291000Y0280739D02*
X0320386Y0280739D01*
X0321219Y0279141D02*
X0291000Y0279141D01*
X0291000Y0277542D02*
X0320574Y0277542D01*
X0320050Y0275944D02*
X0291000Y0275944D01*
X0291000Y0274345D02*
X0320050Y0274345D01*
X0320565Y0272747D02*
X0291000Y0272747D01*
X0291000Y0271148D02*
X0321241Y0271148D01*
X0320395Y0269550D02*
X0291000Y0269550D01*
X0291000Y0267951D02*
X0320050Y0267951D01*
X0320083Y0266353D02*
X0291000Y0266353D01*
X0291000Y0264754D02*
X0320745Y0264754D01*
X0320877Y0263156D02*
X0291000Y0263156D01*
X0291000Y0261557D02*
X0320215Y0261557D01*
X0320050Y0259959D02*
X0291000Y0259959D01*
X0291000Y0258360D02*
X0320262Y0258360D01*
X0320924Y0256762D02*
X0291000Y0256762D01*
X0291000Y0255163D02*
X0320698Y0255163D01*
X0320050Y0253565D02*
X0291000Y0253565D01*
X0291000Y0251966D02*
X0320050Y0251966D01*
X0320442Y0250368D02*
X0291000Y0250368D01*
X0291000Y0248769D02*
X0321355Y0248769D01*
X0320518Y0247171D02*
X0291000Y0247171D01*
X0291000Y0245572D02*
X0320050Y0245572D01*
X0320050Y0243974D02*
X0291000Y0243974D01*
X0291000Y0242375D02*
X0320621Y0242375D01*
X0321788Y0240777D02*
X0291000Y0240777D01*
X0291000Y0239178D02*
X0324578Y0239178D01*
X0323424Y0237580D02*
X0291000Y0237580D01*
X0273500Y0237580D02*
X0184640Y0237580D01*
X0188500Y0237580D01*
X0188500Y0239178D02*
X0186806Y0239178D01*
X0273500Y0239178D01*
X0273500Y0240777D02*
X0187808Y0240777D01*
X0188500Y0240777D01*
X0188350Y0242084D02*
X0188350Y0244601D01*
X0187387Y0246925D01*
X0185608Y0248705D01*
X0183283Y0249668D01*
X0173717Y0249668D01*
X0171392Y0248705D01*
X0169613Y0246925D01*
X0168650Y0244601D01*
X0168650Y0242084D01*
X0169613Y0239760D01*
X0171392Y0237980D01*
X0173717Y0237018D01*
X0183283Y0237018D01*
X0185608Y0237980D01*
X0187387Y0239760D01*
X0188350Y0242084D01*
X0188350Y0244601D01*
X0187387Y0246925D01*
X0185608Y0248705D01*
X0183283Y0249668D01*
X0173717Y0249668D01*
X0171392Y0248705D01*
X0169613Y0246925D01*
X0168650Y0244601D01*
X0168650Y0242084D01*
X0169613Y0239760D01*
X0171392Y0237980D01*
X0173717Y0237018D01*
X0183283Y0237018D01*
X0185608Y0237980D01*
X0187387Y0239760D01*
X0188350Y0242084D01*
X0188350Y0242375D02*
X0273500Y0242375D01*
X0273500Y0243974D02*
X0188350Y0243974D01*
X0188500Y0243974D01*
X0188500Y0245572D02*
X0187948Y0245572D01*
X0273500Y0245572D01*
X0273500Y0247171D02*
X0187142Y0247171D01*
X0188500Y0247171D01*
X0188500Y0248769D02*
X0185452Y0248769D01*
X0273500Y0248769D01*
X0273500Y0250368D02*
X0156000Y0250368D01*
X0188500Y0250368D01*
X0188500Y0251966D02*
X0156000Y0251966D01*
X0273500Y0251966D01*
X0273500Y0253565D02*
X0224479Y0253565D01*
X0224415Y0253500D02*
X0268500Y0253500D01*
X0271000Y0251000D01*
X0271000Y0228500D01*
X0268500Y0226000D01*
X0246000Y0226000D01*
X0241000Y0218500D01*
X0241000Y0196000D01*
X0246000Y0191000D01*
X0266000Y0191000D01*
X0268500Y0188500D01*
X0268500Y0163500D01*
X0263500Y0158500D01*
X0243500Y0158500D01*
X0238500Y0153500D01*
X0208500Y0153500D01*
X0208500Y0158373D01*
X0208892Y0157980D01*
X0211217Y0157018D01*
X0220783Y0157018D01*
X0223108Y0157980D01*
X0224887Y0159760D01*
X0225850Y0162084D01*
X0225850Y0164601D01*
X0224887Y0166925D01*
X0223108Y0168705D01*
X0220783Y0169668D01*
X0211217Y0169668D01*
X0208892Y0168705D01*
X0208500Y0168312D01*
X0208500Y0181000D01*
X0201000Y0181000D01*
X0201000Y0223500D01*
X0207585Y0223500D01*
X0208535Y0222550D01*
X0213465Y0222550D01*
X0216950Y0226035D01*
X0216950Y0226950D01*
X0218500Y0228500D01*
X0218500Y0248500D01*
X0222550Y0252550D01*
X0223465Y0252550D01*
X0224415Y0253500D01*
X0223465Y0252550D02*
X0218535Y0252550D01*
X0215050Y0256035D01*
X0215050Y0260965D01*
X0218535Y0264450D01*
X0223465Y0264450D01*
X0226950Y0260965D01*
X0226950Y0256035D01*
X0223465Y0252550D01*
X0221966Y0251966D02*
X0270034Y0251966D01*
X0271000Y0250368D02*
X0220368Y0250368D01*
X0218769Y0248769D02*
X0271000Y0248769D01*
X0271000Y0247171D02*
X0218500Y0247171D01*
X0218500Y0245572D02*
X0271000Y0245572D01*
X0271000Y0243974D02*
X0218500Y0243974D01*
X0218500Y0242375D02*
X0271000Y0242375D01*
X0271000Y0240777D02*
X0218500Y0240777D01*
X0218500Y0239178D02*
X0271000Y0239178D01*
X0271000Y0237580D02*
X0218500Y0237580D01*
X0218500Y0235981D02*
X0271000Y0235981D01*
X0271000Y0234383D02*
X0218500Y0234383D01*
X0218500Y0232784D02*
X0271000Y0232784D01*
X0271000Y0231186D02*
X0218500Y0231186D01*
X0216950Y0230965D02*
X0213465Y0234450D01*
X0208535Y0234450D01*
X0205050Y0230965D01*
X0205050Y0226035D01*
X0208535Y0222550D01*
X0213465Y0222550D01*
X0216950Y0226035D01*
X0216950Y0230965D01*
X0216729Y0231186D02*
X0273500Y0231186D01*
X0273500Y0232784D02*
X0215130Y0232784D01*
X0213532Y0234383D02*
X0273500Y0234383D01*
X0273500Y0235981D02*
X0156000Y0235981D01*
X0188500Y0235981D01*
X0188500Y0234383D02*
X0156000Y0234383D01*
X0208468Y0234383D01*
X0206870Y0232784D02*
X0156000Y0232784D01*
X0188500Y0232784D01*
X0188500Y0231186D02*
X0156000Y0231186D01*
X0205271Y0231186D01*
X0205050Y0229587D02*
X0156000Y0229587D01*
X0154587Y0229587D02*
X0188500Y0229587D01*
X0188500Y0228500D02*
X0178500Y0228500D01*
X0178500Y0209668D01*
X0173717Y0209668D01*
X0171392Y0208705D01*
X0169613Y0206925D01*
X0168650Y0204601D01*
X0168650Y0202084D01*
X0169613Y0199760D01*
X0171392Y0197980D01*
X0173717Y0197018D01*
X0183283Y0197018D01*
X0185608Y0197980D01*
X0187387Y0199760D01*
X0188350Y0202084D01*
X0188350Y0204601D01*
X0187387Y0206925D01*
X0185608Y0208705D01*
X0183283Y0209668D01*
X0173717Y0209668D01*
X0171392Y0208705D01*
X0169613Y0206925D01*
X0168650Y0204601D01*
X0168650Y0202084D01*
X0169613Y0199760D01*
X0171392Y0197980D01*
X0173717Y0197018D01*
X0178500Y0197018D01*
X0178500Y0191000D01*
X0156000Y0191000D01*
X0148500Y0198500D01*
X0128500Y0198500D01*
X0126000Y0201000D01*
X0126000Y0223500D01*
X0128500Y0226000D01*
X0151000Y0226000D01*
X0156000Y0231000D01*
X0156000Y0256000D01*
X0151000Y0261000D01*
X0131000Y0261000D01*
X0128500Y0263500D01*
X0128500Y0288500D01*
X0133500Y0293500D01*
X0153500Y0293500D01*
X0161000Y0288500D01*
X0168650Y0282125D01*
X0168650Y0282084D01*
X0169613Y0279760D01*
X0171392Y0277980D01*
X0173717Y0277018D01*
X0183283Y0277018D01*
X0185608Y0277980D01*
X0187387Y0279760D01*
X0188350Y0282084D01*
X0188350Y0284601D01*
X0187387Y0286925D01*
X0185812Y0288500D01*
X0258500Y0288500D01*
X0259261Y0287739D01*
X0258568Y0287452D01*
X0256950Y0285833D01*
X0256413Y0284538D01*
X0255877Y0285833D01*
X0254259Y0287452D01*
X0252144Y0288328D01*
X0249856Y0288328D01*
X0247741Y0287452D01*
X0246123Y0285833D01*
X0245247Y0283719D01*
X0245247Y0281430D01*
X0246123Y0279316D01*
X0246545Y0278894D01*
X0246123Y0278471D01*
X0245247Y0276357D01*
X0245247Y0274068D01*
X0246123Y0271954D01*
X0246545Y0271531D01*
X0246123Y0271109D01*
X0245247Y0268995D01*
X0245247Y0266706D01*
X0246123Y0264592D01*
X0246545Y0264169D01*
X0246123Y0263747D01*
X0245247Y0261632D01*
X0245247Y0259344D01*
X0246123Y0257230D01*
X0247741Y0255611D01*
X0249856Y0254735D01*
X0252144Y0254735D01*
X0254259Y0255611D01*
X0255877Y0257230D01*
X0256413Y0258525D01*
X0256950Y0257230D01*
X0258568Y0255611D01*
X0260682Y0254735D01*
X0262971Y0254735D01*
X0265085Y0255611D01*
X0266704Y0257230D01*
X0267580Y0259344D01*
X0267580Y0261632D01*
X0266704Y0263747D01*
X0266281Y0264169D01*
X0266704Y0264592D01*
X0267580Y0266706D01*
X0267580Y0268995D01*
X0266704Y0271109D01*
X0266281Y0271531D01*
X0266704Y0271954D01*
X0267580Y0274068D01*
X0267580Y0276357D01*
X0266704Y0278471D01*
X0266281Y0278894D01*
X0266704Y0279316D01*
X0266991Y0280009D01*
X0273500Y0273500D01*
X0273500Y0023500D01*
X0176000Y0023500D01*
X0156000Y0048500D01*
X0156000Y0288500D01*
X0171188Y0288500D01*
X0169613Y0286925D01*
X0168650Y0284601D01*
X0168650Y0282084D01*
X0169613Y0279760D01*
X0171392Y0277980D01*
X0173717Y0277018D01*
X0174779Y0277018D01*
X0176000Y0276000D01*
X0181000Y0271000D01*
X0188500Y0271000D01*
X0188500Y0228500D01*
X0178500Y0227989D02*
X0152989Y0227989D01*
X0151390Y0226390D02*
X0178500Y0226390D01*
X0178500Y0224792D02*
X0127292Y0224792D01*
X0126000Y0223193D02*
X0178500Y0223193D01*
X0178500Y0221595D02*
X0126000Y0221595D01*
X0126000Y0219996D02*
X0178500Y0219996D01*
X0178500Y0218398D02*
X0126000Y0218398D01*
X0126000Y0216799D02*
X0178500Y0216799D01*
X0178500Y0215201D02*
X0126000Y0215201D01*
X0126000Y0213602D02*
X0178500Y0213602D01*
X0178500Y0212003D02*
X0126000Y0212003D01*
X0126000Y0210405D02*
X0178500Y0210405D01*
X0185362Y0208806D02*
X0209138Y0208806D01*
X0201000Y0208806D01*
X0201000Y0207208D02*
X0207396Y0207208D01*
X0187104Y0207208D01*
X0187932Y0205609D02*
X0206568Y0205609D01*
X0201000Y0205609D01*
X0201000Y0204011D02*
X0206150Y0204011D01*
X0188350Y0204011D01*
X0188350Y0202412D02*
X0206150Y0202412D01*
X0201000Y0202412D01*
X0201000Y0200814D02*
X0206676Y0200814D01*
X0187824Y0200814D01*
X0186843Y0199215D02*
X0207657Y0199215D01*
X0201000Y0199215D01*
X0201000Y0197617D02*
X0209770Y0197617D01*
X0184730Y0197617D01*
X0178500Y0196018D02*
X0150982Y0196018D01*
X0152580Y0194420D02*
X0178500Y0194420D01*
X0178500Y0192821D02*
X0154179Y0192821D01*
X0156000Y0192821D02*
X0247539Y0192821D01*
X0247741Y0192619D02*
X0246123Y0194237D01*
X0245247Y0196352D01*
X0245247Y0198640D01*
X0246123Y0200755D01*
X0246545Y0201177D01*
X0246123Y0201600D01*
X0245247Y0203714D01*
X0245247Y0206003D01*
X0246123Y0208117D01*
X0246545Y0208539D01*
X0246123Y0208962D01*
X0245247Y0211076D01*
X0245247Y0213365D01*
X0246123Y0215479D01*
X0246545Y0215902D01*
X0246123Y0216324D01*
X0245247Y0218438D01*
X0245247Y0220727D01*
X0246123Y0222841D01*
X0247741Y0224460D01*
X0249856Y0225335D01*
X0252144Y0225335D01*
X0254259Y0224460D01*
X0255877Y0222841D01*
X0256413Y0221546D01*
X0256950Y0222841D01*
X0258568Y0224460D01*
X0260682Y0225335D01*
X0262971Y0225335D01*
X0265085Y0224460D01*
X0266704Y0222841D01*
X0267580Y0220727D01*
X0267580Y0218438D01*
X0266704Y0216324D01*
X0266281Y0215902D01*
X0266704Y0215479D01*
X0267580Y0213365D01*
X0267580Y0211076D01*
X0266704Y0208962D01*
X0266281Y0208539D01*
X0266704Y0208117D01*
X0267580Y0206003D01*
X0267580Y0203714D01*
X0266704Y0201600D01*
X0266281Y0201177D01*
X0266704Y0200755D01*
X0267580Y0198640D01*
X0267580Y0196352D01*
X0266704Y0194237D01*
X0265085Y0192619D01*
X0262971Y0191743D01*
X0260682Y0191743D01*
X0258568Y0192619D01*
X0256950Y0194237D01*
X0256413Y0195532D01*
X0255877Y0194237D01*
X0254259Y0192619D01*
X0252144Y0191743D01*
X0249856Y0191743D01*
X0247741Y0192619D01*
X0245777Y0191223D02*
X0201000Y0191223D01*
X0201000Y0192821D02*
X0244179Y0192821D01*
X0242580Y0194420D02*
X0201000Y0194420D01*
X0201000Y0196018D02*
X0241000Y0196018D01*
X0241000Y0197617D02*
X0222230Y0197617D01*
X0245247Y0197617D01*
X0245385Y0196018D02*
X0156000Y0196018D01*
X0156000Y0194420D02*
X0246047Y0194420D01*
X0245485Y0199215D02*
X0224343Y0199215D01*
X0241000Y0199215D01*
X0241000Y0200814D02*
X0225324Y0200814D01*
X0246182Y0200814D01*
X0245786Y0202412D02*
X0225850Y0202412D01*
X0241000Y0202412D01*
X0241000Y0204011D02*
X0225850Y0204011D01*
X0245247Y0204011D01*
X0245247Y0205609D02*
X0225432Y0205609D01*
X0241000Y0205609D01*
X0241000Y0207208D02*
X0224604Y0207208D01*
X0245747Y0207208D01*
X0246278Y0208806D02*
X0222862Y0208806D01*
X0241000Y0208806D01*
X0241000Y0210405D02*
X0201000Y0210405D01*
X0201000Y0212003D02*
X0241000Y0212003D01*
X0241000Y0213602D02*
X0201000Y0213602D01*
X0201000Y0215201D02*
X0241000Y0215201D01*
X0241000Y0216799D02*
X0201000Y0216799D01*
X0201000Y0218398D02*
X0241000Y0218398D01*
X0241997Y0219996D02*
X0201000Y0219996D01*
X0201000Y0221595D02*
X0243063Y0221595D01*
X0244129Y0223193D02*
X0214108Y0223193D01*
X0246475Y0223193D01*
X0245607Y0221595D02*
X0156000Y0221595D01*
X0156000Y0223193D02*
X0207892Y0223193D01*
X0201000Y0223193D01*
X0205050Y0226390D02*
X0156000Y0226390D01*
X0156000Y0224792D02*
X0206294Y0224792D01*
X0205050Y0227989D02*
X0156000Y0227989D01*
X0156000Y0219996D02*
X0245247Y0219996D01*
X0245264Y0218398D02*
X0156000Y0218398D01*
X0156000Y0216799D02*
X0245926Y0216799D01*
X0246008Y0215201D02*
X0156000Y0215201D01*
X0156000Y0213602D02*
X0245346Y0213602D01*
X0245247Y0212003D02*
X0156000Y0212003D01*
X0156000Y0210405D02*
X0245525Y0210405D01*
X0256393Y0221595D02*
X0256433Y0221595D01*
X0257302Y0223193D02*
X0255525Y0223193D01*
X0253457Y0224792D02*
X0259370Y0224792D01*
X0264284Y0224792D02*
X0273500Y0224792D01*
X0273500Y0226390D02*
X0216950Y0226390D01*
X0268890Y0226390D01*
X0270489Y0227989D02*
X0217989Y0227989D01*
X0216950Y0227989D02*
X0273500Y0227989D01*
X0273500Y0229587D02*
X0216950Y0229587D01*
X0218500Y0229587D02*
X0271000Y0229587D01*
X0273500Y0223193D02*
X0266352Y0223193D01*
X0267220Y0221595D02*
X0273500Y0221595D01*
X0273500Y0219996D02*
X0267580Y0219996D01*
X0267563Y0218398D02*
X0273500Y0218398D01*
X0273500Y0216799D02*
X0266900Y0216799D01*
X0266819Y0215201D02*
X0273500Y0215201D01*
X0273500Y0213602D02*
X0267481Y0213602D01*
X0267580Y0212003D02*
X0273500Y0212003D01*
X0273500Y0210405D02*
X0267302Y0210405D01*
X0266548Y0208806D02*
X0273500Y0208806D01*
X0273500Y0207208D02*
X0267080Y0207208D01*
X0267580Y0205609D02*
X0273500Y0205609D01*
X0273500Y0204011D02*
X0267580Y0204011D01*
X0267040Y0202412D02*
X0273500Y0202412D01*
X0273500Y0200814D02*
X0266645Y0200814D01*
X0267341Y0199215D02*
X0273500Y0199215D01*
X0273500Y0197617D02*
X0267580Y0197617D01*
X0267441Y0196018D02*
X0273500Y0196018D01*
X0273500Y0194420D02*
X0266779Y0194420D01*
X0265288Y0192821D02*
X0273500Y0192821D01*
X0273500Y0191223D02*
X0156000Y0191223D01*
X0155777Y0191223D02*
X0178500Y0191223D01*
X0172270Y0197617D02*
X0156000Y0197617D01*
X0156000Y0199215D02*
X0170157Y0199215D01*
X0127785Y0199215D01*
X0126186Y0200814D02*
X0169176Y0200814D01*
X0156000Y0200814D01*
X0156000Y0202412D02*
X0168650Y0202412D01*
X0126000Y0202412D01*
X0126000Y0204011D02*
X0168650Y0204011D01*
X0156000Y0204011D01*
X0156000Y0205609D02*
X0169068Y0205609D01*
X0126000Y0205609D01*
X0126000Y0207208D02*
X0169896Y0207208D01*
X0156000Y0207208D01*
X0156000Y0208806D02*
X0171638Y0208806D01*
X0126000Y0208806D01*
X0106000Y0208806D02*
X0076718Y0208806D01*
X0076950Y0208247D02*
X0076074Y0210361D01*
X0074456Y0211979D01*
X0072341Y0212855D01*
X0070053Y0212855D01*
X0067938Y0211979D01*
X0066320Y0210361D01*
X0065783Y0209066D01*
X0065247Y0210361D01*
X0063629Y0211979D01*
X0061514Y0212855D01*
X0059226Y0212855D01*
X0057111Y0211979D01*
X0055493Y0210361D01*
X0054617Y0208247D01*
X0054617Y0205958D01*
X0055493Y0203844D01*
X0056014Y0203323D01*
X0055493Y0202802D01*
X0054617Y0200688D01*
X0054617Y0198399D01*
X0055493Y0196285D01*
X0056014Y0195764D01*
X0055493Y0195243D01*
X0054617Y0193129D01*
X0054617Y0190840D01*
X0055493Y0188726D01*
X0056014Y0188205D01*
X0055493Y0187684D01*
X0054617Y0185569D01*
X0054617Y0183281D01*
X0055493Y0181167D01*
X0056014Y0180646D01*
X0055493Y0180125D01*
X0054617Y0178010D01*
X0054617Y0175722D01*
X0055493Y0173607D01*
X0056014Y0173087D01*
X0055493Y0172566D01*
X0054617Y0170451D01*
X0054617Y0168163D01*
X0055493Y0166048D01*
X0057111Y0164430D01*
X0059226Y0163554D01*
X0061514Y0163554D01*
X0063629Y0164430D01*
X0065247Y0166048D01*
X0065783Y0167344D01*
X0066320Y0166048D01*
X0067938Y0164430D01*
X0070053Y0163554D01*
X0072341Y0163554D01*
X0074456Y0164430D01*
X0076074Y0166048D01*
X0076950Y0168163D01*
X0076950Y0170451D01*
X0076074Y0172566D01*
X0075553Y0173087D01*
X0076074Y0173607D01*
X0076950Y0175722D01*
X0076950Y0178010D01*
X0076074Y0180125D01*
X0075553Y0180646D01*
X0076074Y0181167D01*
X0076950Y0183281D01*
X0076950Y0185569D01*
X0076074Y0187684D01*
X0075553Y0188205D01*
X0076074Y0188726D01*
X0076950Y0190840D01*
X0076950Y0193129D01*
X0076074Y0195243D01*
X0075553Y0195764D01*
X0076074Y0196285D01*
X0076950Y0198399D01*
X0076950Y0200688D01*
X0076074Y0202802D01*
X0075553Y0203323D01*
X0076074Y0203844D01*
X0076950Y0205958D01*
X0076950Y0208247D01*
X0076950Y0207208D02*
X0106000Y0207208D01*
X0106000Y0205609D02*
X0076805Y0205609D01*
X0076143Y0204011D02*
X0106000Y0204011D01*
X0106000Y0202412D02*
X0076235Y0202412D01*
X0076897Y0200814D02*
X0106000Y0200814D01*
X0106000Y0199215D02*
X0076950Y0199215D01*
X0076626Y0197617D02*
X0106000Y0197617D01*
X0106000Y0196018D02*
X0075808Y0196018D01*
X0076415Y0194420D02*
X0106000Y0194420D01*
X0106000Y0192821D02*
X0076950Y0192821D01*
X0076950Y0191223D02*
X0106000Y0191223D01*
X0106000Y0189624D02*
X0076446Y0189624D01*
X0075732Y0188026D02*
X0106000Y0188026D01*
X0106000Y0186427D02*
X0076594Y0186427D01*
X0076950Y0184829D02*
X0106000Y0184829D01*
X0106000Y0183230D02*
X0076929Y0183230D01*
X0076266Y0181632D02*
X0106000Y0181632D01*
X0106000Y0180033D02*
X0076112Y0180033D01*
X0076774Y0178435D02*
X0106000Y0178435D01*
X0106000Y0176836D02*
X0076950Y0176836D01*
X0076749Y0175238D02*
X0106000Y0175238D01*
X0106000Y0173639D02*
X0076087Y0173639D01*
X0076291Y0172041D02*
X0106000Y0172041D01*
X0106000Y0170442D02*
X0076950Y0170442D01*
X0076950Y0168844D02*
X0106000Y0168844D01*
X0106000Y0167245D02*
X0076570Y0167245D01*
X0075672Y0165647D02*
X0106000Y0165647D01*
X0106000Y0164048D02*
X0073533Y0164048D01*
X0068860Y0164048D02*
X0062707Y0164048D01*
X0064845Y0165647D02*
X0066722Y0165647D01*
X0065824Y0167245D02*
X0065743Y0167245D01*
X0058034Y0164048D02*
X0027906Y0164048D01*
X0027906Y0162760D02*
X0027906Y0165579D01*
X0027177Y0168301D01*
X0025767Y0170743D01*
X0023774Y0172736D01*
X0021333Y0174145D01*
X0018610Y0174875D01*
X0015791Y0174875D01*
X0013069Y0174145D01*
X0010627Y0172736D01*
X0008634Y0170743D01*
X0008500Y0170510D01*
X0008500Y0206490D01*
X0008634Y0206257D01*
X0010627Y0204264D01*
X0013069Y0202855D01*
X0015791Y0202125D01*
X0018610Y0202125D01*
X0021333Y0202855D01*
X0023774Y0204264D01*
X0025767Y0206257D01*
X0027177Y0208699D01*
X0027906Y0211421D01*
X0027906Y0214240D01*
X0027177Y0216963D01*
X0025767Y0219404D01*
X0023774Y0221397D01*
X0021333Y0222807D01*
X0018610Y0223536D01*
X0015791Y0223536D01*
X0013069Y0222807D01*
X0010627Y0221397D01*
X0008634Y0219404D01*
X0008500Y0219172D01*
X0008500Y0308500D01*
X0088571Y0308500D01*
X0087700Y0305251D01*
X0087700Y0301749D01*
X0088606Y0298366D01*
X0090357Y0295334D01*
X0092834Y0292857D01*
X0095866Y0291106D01*
X0099249Y0290200D01*
X0102751Y0290200D01*
X0106000Y0291071D01*
X0106000Y0026000D01*
X0105737Y0026000D01*
X0102751Y0026800D01*
X0099249Y0026800D01*
X0096263Y0026000D01*
X0051915Y0026000D01*
X0051950Y0026035D01*
X0051950Y0030965D01*
X0048465Y0034450D01*
X0043535Y0034450D01*
X0040050Y0030965D01*
X0040050Y0026035D01*
X0040085Y0026000D01*
X0031970Y0026000D01*
X0030602Y0028368D01*
X0028368Y0030602D01*
X0025632Y0032182D01*
X0022580Y0033000D01*
X0019420Y0033000D01*
X0016368Y0032182D01*
X0013632Y0030602D01*
X0011398Y0028368D01*
X0010030Y0026000D01*
X0008500Y0026000D01*
X0008500Y0075085D01*
X0008535Y0075050D01*
X0013465Y0075050D01*
X0016950Y0078535D01*
X0016950Y0083465D01*
X0013465Y0086950D01*
X0008535Y0086950D01*
X0008500Y0086915D01*
X0008500Y0157828D01*
X0008634Y0157596D01*
X0010627Y0155603D01*
X0013069Y0154193D01*
X0015791Y0153464D01*
X0018610Y0153464D01*
X0021333Y0154193D01*
X0023774Y0155603D01*
X0025767Y0157596D01*
X0027177Y0160037D01*
X0027906Y0162760D01*
X0027823Y0162450D02*
X0106000Y0162450D01*
X0106000Y0160851D02*
X0027395Y0160851D01*
X0026724Y0159253D02*
X0106000Y0159253D01*
X0106000Y0157654D02*
X0025801Y0157654D01*
X0024227Y0156056D02*
X0106000Y0156056D01*
X0106000Y0154457D02*
X0021790Y0154457D01*
X0012612Y0154457D02*
X0008500Y0154457D01*
X0008500Y0152859D02*
X0106000Y0152859D01*
X0106000Y0151260D02*
X0008500Y0151260D01*
X0008500Y0149662D02*
X0106000Y0149662D01*
X0106000Y0148063D02*
X0008500Y0148063D01*
X0008500Y0146465D02*
X0106000Y0146465D01*
X0106000Y0144866D02*
X0008500Y0144866D01*
X0008500Y0143268D02*
X0106000Y0143268D01*
X0106000Y0141669D02*
X0008500Y0141669D01*
X0008500Y0140070D02*
X0106000Y0140070D01*
X0106000Y0138472D02*
X0008500Y0138472D01*
X0008500Y0136873D02*
X0106000Y0136873D01*
X0106000Y0135275D02*
X0008500Y0135275D01*
X0008500Y0133676D02*
X0106000Y0133676D01*
X0106000Y0132078D02*
X0008500Y0132078D01*
X0008500Y0130479D02*
X0106000Y0130479D01*
X0106000Y0128881D02*
X0008500Y0128881D01*
X0008500Y0127282D02*
X0106000Y0127282D01*
X0106000Y0125684D02*
X0008500Y0125684D01*
X0008500Y0124085D02*
X0106000Y0124085D01*
X0106000Y0122487D02*
X0008500Y0122487D01*
X0008500Y0120888D02*
X0106000Y0120888D01*
X0106000Y0119290D02*
X0008500Y0119290D01*
X0008500Y0117691D02*
X0106000Y0117691D01*
X0106000Y0116093D02*
X0008500Y0116093D01*
X0008500Y0114494D02*
X0106000Y0114494D01*
X0106000Y0112896D02*
X0008500Y0112896D01*
X0008500Y0111297D02*
X0106000Y0111297D01*
X0106000Y0109699D02*
X0008500Y0109699D01*
X0008500Y0108100D02*
X0106000Y0108100D01*
X0106000Y0106502D02*
X0008500Y0106502D01*
X0008500Y0104903D02*
X0106000Y0104903D01*
X0106000Y0103305D02*
X0073204Y0103305D01*
X0072341Y0103662D02*
X0070053Y0103662D01*
X0067938Y0102786D01*
X0066320Y0101168D01*
X0066047Y0100509D01*
X0065520Y0100509D01*
X0065247Y0101168D01*
X0063629Y0102786D01*
X0061514Y0103662D01*
X0059226Y0103662D01*
X0057111Y0102786D01*
X0055493Y0101168D01*
X0055465Y0101100D01*
X0049201Y0101100D01*
X0048917Y0101785D01*
X0047285Y0103417D01*
X0045154Y0104300D01*
X0036846Y0104300D01*
X0034715Y0103417D01*
X0033083Y0101785D01*
X0032200Y0099654D01*
X0032200Y0097346D01*
X0033083Y0095215D01*
X0034715Y0093583D01*
X0034915Y0093500D01*
X0034715Y0093417D01*
X0033083Y0091785D01*
X0032200Y0089654D01*
X0032200Y0087346D01*
X0033083Y0085215D01*
X0034715Y0083583D01*
X0034915Y0083500D01*
X0034715Y0083417D01*
X0033083Y0081785D01*
X0032200Y0079654D01*
X0032200Y0077346D01*
X0033083Y0075215D01*
X0034715Y0073583D01*
X0034915Y0073500D01*
X0034715Y0073417D01*
X0033083Y0071785D01*
X0032200Y0069654D01*
X0032200Y0067346D01*
X0033083Y0065215D01*
X0034715Y0063583D01*
X0036846Y0062700D01*
X0045154Y0062700D01*
X0047285Y0063583D01*
X0048917Y0065215D01*
X0049800Y0067346D01*
X0049800Y0069654D01*
X0048917Y0071785D01*
X0047285Y0073417D01*
X0047085Y0073500D01*
X0047285Y0073583D01*
X0048917Y0075215D01*
X0049201Y0075900D01*
X0057226Y0075900D01*
X0058181Y0076296D01*
X0058567Y0076681D01*
X0059226Y0076409D01*
X0061514Y0076409D01*
X0063629Y0077284D01*
X0065247Y0078903D01*
X0065520Y0079561D01*
X0066047Y0079561D01*
X0066320Y0078903D01*
X0067938Y0077284D01*
X0070053Y0076409D01*
X0072341Y0076409D01*
X0074456Y0077284D01*
X0076074Y0078903D01*
X0076950Y0081017D01*
X0076950Y0083306D01*
X0076074Y0085420D01*
X0075395Y0086098D01*
X0076074Y0086777D01*
X0076950Y0088891D01*
X0076950Y0091180D01*
X0076074Y0093294D01*
X0075395Y0093972D01*
X0076074Y0094651D01*
X0076950Y0096765D01*
X0076950Y0099054D01*
X0076074Y0101168D01*
X0074456Y0102786D01*
X0072341Y0103662D01*
X0069190Y0103305D02*
X0062377Y0103305D01*
X0064709Y0101706D02*
X0066858Y0101706D01*
X0060370Y0097909D02*
X0059780Y0098500D01*
X0041000Y0098500D01*
X0047398Y0103305D02*
X0058363Y0103305D01*
X0056031Y0101706D02*
X0048950Y0101706D01*
X0060370Y0097909D02*
X0071197Y0097909D01*
X0076513Y0100108D02*
X0106000Y0100108D01*
X0106000Y0101706D02*
X0075536Y0101706D01*
X0076950Y0098509D02*
X0106000Y0098509D01*
X0106000Y0096911D02*
X0076950Y0096911D01*
X0076348Y0095312D02*
X0106000Y0095312D01*
X0106000Y0093714D02*
X0075654Y0093714D01*
X0076562Y0092115D02*
X0106000Y0092115D01*
X0106000Y0090517D02*
X0076950Y0090517D01*
X0076950Y0088918D02*
X0106000Y0088918D01*
X0106000Y0087320D02*
X0076299Y0087320D01*
X0075773Y0085721D02*
X0106000Y0085721D01*
X0106000Y0084123D02*
X0076611Y0084123D01*
X0076950Y0082524D02*
X0106000Y0082524D01*
X0106000Y0080926D02*
X0076912Y0080926D01*
X0076250Y0079327D02*
X0106000Y0079327D01*
X0106000Y0077729D02*
X0074900Y0077729D01*
X0074329Y0074532D02*
X0106000Y0074532D01*
X0106000Y0076130D02*
X0057781Y0076130D01*
X0059226Y0075355D02*
X0057111Y0074479D01*
X0055493Y0072861D01*
X0054617Y0070747D01*
X0054617Y0068458D01*
X0055493Y0066344D01*
X0056014Y0065823D01*
X0055493Y0065302D01*
X0054617Y0063188D01*
X0054617Y0060899D01*
X0055493Y0058785D01*
X0056014Y0058264D01*
X0055493Y0057743D01*
X0054617Y0055629D01*
X0054617Y0053340D01*
X0055493Y0051226D01*
X0056014Y0050705D01*
X0055493Y0050184D01*
X0054617Y0048069D01*
X0054617Y0045781D01*
X0055493Y0043667D01*
X0056014Y0043146D01*
X0055493Y0042625D01*
X0054617Y0040510D01*
X0054617Y0038222D01*
X0055493Y0036107D01*
X0056014Y0035587D01*
X0055493Y0035066D01*
X0054617Y0032951D01*
X0054617Y0030663D01*
X0055493Y0028548D01*
X0057111Y0026930D01*
X0059226Y0026054D01*
X0061514Y0026054D01*
X0063629Y0026930D01*
X0065247Y0028548D01*
X0065783Y0029843D01*
X0066320Y0028548D01*
X0067938Y0026930D01*
X0070053Y0026054D01*
X0072341Y0026054D01*
X0074456Y0026930D01*
X0076074Y0028548D01*
X0076950Y0030663D01*
X0076950Y0032951D01*
X0076074Y0035066D01*
X0075553Y0035587D01*
X0076074Y0036107D01*
X0076950Y0038222D01*
X0076950Y0040510D01*
X0076074Y0042625D01*
X0075553Y0043146D01*
X0076074Y0043667D01*
X0076950Y0045781D01*
X0076950Y0048069D01*
X0076074Y0050184D01*
X0075553Y0050705D01*
X0076074Y0051226D01*
X0076950Y0053340D01*
X0076950Y0055629D01*
X0076074Y0057743D01*
X0075553Y0058264D01*
X0076074Y0058785D01*
X0076950Y0060899D01*
X0076950Y0063188D01*
X0076074Y0065302D01*
X0075553Y0065823D01*
X0076074Y0066344D01*
X0076950Y0068458D01*
X0076950Y0070747D01*
X0076074Y0072861D01*
X0074456Y0074479D01*
X0072341Y0075355D01*
X0070053Y0075355D01*
X0067938Y0074479D01*
X0066320Y0072861D01*
X0065783Y0071566D01*
X0065247Y0072861D01*
X0063629Y0074479D01*
X0061514Y0075355D01*
X0059226Y0075355D01*
X0057237Y0074532D02*
X0048234Y0074532D01*
X0047769Y0072933D02*
X0055565Y0072933D01*
X0054861Y0071334D02*
X0049104Y0071334D01*
X0049766Y0069736D02*
X0054617Y0069736D01*
X0054750Y0068137D02*
X0049800Y0068137D01*
X0049466Y0066539D02*
X0055412Y0066539D01*
X0055343Y0064940D02*
X0048643Y0064940D01*
X0046703Y0063342D02*
X0054681Y0063342D01*
X0054617Y0061743D02*
X0008500Y0061743D01*
X0008500Y0060145D02*
X0054930Y0060145D01*
X0055731Y0058546D02*
X0008500Y0058546D01*
X0008500Y0056948D02*
X0055164Y0056948D01*
X0054617Y0055349D02*
X0008500Y0055349D01*
X0008500Y0053751D02*
X0054617Y0053751D01*
X0055109Y0052152D02*
X0008500Y0052152D01*
X0008500Y0050554D02*
X0055863Y0050554D01*
X0054984Y0048955D02*
X0008500Y0048955D01*
X0008500Y0047357D02*
X0054617Y0047357D01*
X0054627Y0045758D02*
X0008500Y0045758D01*
X0008500Y0044160D02*
X0055289Y0044160D01*
X0055467Y0042561D02*
X0008500Y0042561D01*
X0008500Y0040963D02*
X0054805Y0040963D01*
X0054617Y0039364D02*
X0008500Y0039364D01*
X0008500Y0037766D02*
X0054806Y0037766D01*
X0055468Y0036167D02*
X0008500Y0036167D01*
X0008500Y0034569D02*
X0055287Y0034569D01*
X0054625Y0032970D02*
X0049944Y0032970D01*
X0051543Y0031372D02*
X0054617Y0031372D01*
X0054986Y0029773D02*
X0051950Y0029773D01*
X0051950Y0028175D02*
X0055867Y0028175D01*
X0057966Y0026576D02*
X0051950Y0026576D01*
X0062774Y0026576D02*
X0068793Y0026576D01*
X0066694Y0028175D02*
X0064873Y0028175D01*
X0065754Y0029773D02*
X0065813Y0029773D01*
X0073601Y0026576D02*
X0098414Y0026576D01*
X0103586Y0026576D02*
X0106000Y0026576D01*
X0106000Y0028175D02*
X0075700Y0028175D01*
X0076581Y0029773D02*
X0106000Y0029773D01*
X0106000Y0031372D02*
X0076950Y0031372D01*
X0076942Y0032970D02*
X0106000Y0032970D01*
X0106000Y0034569D02*
X0076280Y0034569D01*
X0076099Y0036167D02*
X0106000Y0036167D01*
X0106000Y0037766D02*
X0076761Y0037766D01*
X0076950Y0039364D02*
X0106000Y0039364D01*
X0106000Y0040963D02*
X0076762Y0040963D01*
X0076100Y0042561D02*
X0106000Y0042561D01*
X0106000Y0044160D02*
X0076278Y0044160D01*
X0076940Y0045758D02*
X0106000Y0045758D01*
X0106000Y0047357D02*
X0076950Y0047357D01*
X0076583Y0048955D02*
X0106000Y0048955D01*
X0106000Y0050554D02*
X0075704Y0050554D01*
X0076458Y0052152D02*
X0106000Y0052152D01*
X0106000Y0053751D02*
X0076950Y0053751D01*
X0076950Y0055349D02*
X0106000Y0055349D01*
X0106000Y0056948D02*
X0076403Y0056948D01*
X0075836Y0058546D02*
X0106000Y0058546D01*
X0106000Y0060145D02*
X0076637Y0060145D01*
X0076950Y0061743D02*
X0106000Y0061743D01*
X0106000Y0063342D02*
X0076886Y0063342D01*
X0076224Y0064940D02*
X0106000Y0064940D01*
X0106000Y0066539D02*
X0076155Y0066539D01*
X0076817Y0068137D02*
X0106000Y0068137D01*
X0106000Y0069736D02*
X0076950Y0069736D01*
X0076706Y0071334D02*
X0106000Y0071334D01*
X0106000Y0072933D02*
X0076002Y0072933D01*
X0068064Y0074532D02*
X0063503Y0074532D01*
X0065175Y0072933D02*
X0066392Y0072933D01*
X0067494Y0077729D02*
X0064073Y0077729D01*
X0065423Y0079327D02*
X0066144Y0079327D01*
X0071197Y0082161D02*
X0060370Y0082161D01*
X0056709Y0078500D01*
X0041000Y0078500D01*
X0041000Y0068500D01*
X0035297Y0063342D02*
X0008500Y0063342D01*
X0008500Y0064940D02*
X0033357Y0064940D01*
X0032534Y0066539D02*
X0008500Y0066539D01*
X0008500Y0068137D02*
X0032200Y0068137D01*
X0032234Y0069736D02*
X0008500Y0069736D01*
X0008500Y0071334D02*
X0032896Y0071334D01*
X0034231Y0072933D02*
X0008500Y0072933D01*
X0008500Y0074532D02*
X0033766Y0074532D01*
X0032704Y0076130D02*
X0014545Y0076130D01*
X0016143Y0077729D02*
X0032200Y0077729D01*
X0032200Y0079327D02*
X0016950Y0079327D01*
X0016950Y0080926D02*
X0032727Y0080926D01*
X0033822Y0082524D02*
X0016950Y0082524D01*
X0016292Y0084123D02*
X0034175Y0084123D01*
X0032873Y0085721D02*
X0014693Y0085721D01*
X0008500Y0087320D02*
X0032211Y0087320D01*
X0032200Y0088918D02*
X0008500Y0088918D01*
X0008500Y0090517D02*
X0032557Y0090517D01*
X0033413Y0092115D02*
X0008500Y0092115D01*
X0008500Y0093714D02*
X0034584Y0093714D01*
X0033043Y0095312D02*
X0008500Y0095312D01*
X0008500Y0096911D02*
X0032380Y0096911D01*
X0032200Y0098509D02*
X0008500Y0098509D01*
X0008500Y0100108D02*
X0032388Y0100108D01*
X0033050Y0101706D02*
X0008500Y0101706D01*
X0008500Y0103305D02*
X0034602Y0103305D01*
X0041000Y0088500D02*
X0058835Y0088500D01*
X0060370Y0090035D01*
X0071197Y0090035D01*
X0126000Y0086000D02*
X0126000Y0063500D01*
X0128500Y0061000D01*
X0153500Y0061000D01*
X0158500Y0056000D01*
X0178500Y0071000D01*
X0178500Y0077018D01*
X0173717Y0077018D01*
X0171392Y0077980D01*
X0169613Y0079760D01*
X0168650Y0082084D01*
X0168650Y0084601D01*
X0169613Y0086925D01*
X0171392Y0088705D01*
X0173717Y0089668D01*
X0178500Y0089668D01*
X0178500Y0091000D01*
X0188500Y0091000D01*
X0188500Y0158500D01*
X0186127Y0158500D01*
X0185608Y0157980D01*
X0183283Y0157018D01*
X0173717Y0157018D01*
X0171392Y0157980D01*
X0170873Y0158500D01*
X0156000Y0158500D01*
X0153500Y0156000D01*
X0133500Y0156000D01*
X0128500Y0151000D01*
X0128500Y0126000D01*
X0131000Y0123500D01*
X0151000Y0123500D01*
X0156000Y0118500D01*
X0156000Y0093500D01*
X0151000Y0088500D01*
X0128500Y0088500D01*
X0126000Y0086000D01*
X0126000Y0085721D02*
X0169114Y0085721D01*
X0156000Y0085721D01*
X0156000Y0084123D02*
X0168650Y0084123D01*
X0126000Y0084123D01*
X0126000Y0082524D02*
X0168650Y0082524D01*
X0156000Y0082524D01*
X0156000Y0080926D02*
X0169130Y0080926D01*
X0126000Y0080926D01*
X0126000Y0079327D02*
X0170046Y0079327D01*
X0156000Y0079327D01*
X0156000Y0077729D02*
X0172000Y0077729D01*
X0126000Y0077729D01*
X0126000Y0076130D02*
X0178500Y0076130D01*
X0178500Y0074532D02*
X0126000Y0074532D01*
X0126000Y0072933D02*
X0178500Y0072933D01*
X0178500Y0071334D02*
X0126000Y0071334D01*
X0126000Y0069736D02*
X0176815Y0069736D01*
X0174683Y0068137D02*
X0126000Y0068137D01*
X0126000Y0066539D02*
X0172552Y0066539D01*
X0170421Y0064940D02*
X0126000Y0064940D01*
X0126158Y0063342D02*
X0168289Y0063342D01*
X0166158Y0061743D02*
X0127757Y0061743D01*
X0154355Y0060145D02*
X0164027Y0060145D01*
X0161895Y0058546D02*
X0155954Y0058546D01*
X0156000Y0058546D02*
X0246814Y0058546D01*
X0246123Y0059237D02*
X0247741Y0057619D01*
X0249856Y0056743D01*
X0252144Y0056743D01*
X0254259Y0057619D01*
X0255877Y0059237D01*
X0256413Y0060532D01*
X0256950Y0059237D01*
X0258568Y0057619D01*
X0260682Y0056743D01*
X0262971Y0056743D01*
X0265085Y0057619D01*
X0266704Y0059237D01*
X0267580Y0061352D01*
X0267580Y0063640D01*
X0266704Y0065755D01*
X0266281Y0066177D01*
X0266704Y0066600D01*
X0267580Y0068714D01*
X0267580Y0071003D01*
X0266704Y0073117D01*
X0266281Y0073539D01*
X0266704Y0073962D01*
X0267580Y0076076D01*
X0267580Y0078365D01*
X0266704Y0080479D01*
X0266281Y0080902D01*
X0266704Y0081324D01*
X0267580Y0083438D01*
X0267580Y0085727D01*
X0266704Y0087841D01*
X0265085Y0089460D01*
X0262971Y0090335D01*
X0260682Y0090335D01*
X0258568Y0089460D01*
X0256950Y0087841D01*
X0256413Y0086546D01*
X0255877Y0087841D01*
X0254259Y0089460D01*
X0252144Y0090335D01*
X0249856Y0090335D01*
X0247741Y0089460D01*
X0246123Y0087841D01*
X0245247Y0085727D01*
X0245247Y0083438D01*
X0246123Y0081324D01*
X0246545Y0080902D01*
X0246123Y0080479D01*
X0245247Y0078365D01*
X0245247Y0076076D01*
X0246123Y0073962D01*
X0246545Y0073539D01*
X0246123Y0073117D01*
X0245247Y0071003D01*
X0245247Y0068714D01*
X0246123Y0066600D01*
X0246545Y0066177D01*
X0246123Y0065755D01*
X0245247Y0063640D01*
X0245247Y0061352D01*
X0246123Y0059237D01*
X0245747Y0060145D02*
X0156000Y0060145D01*
X0156000Y0061743D02*
X0245247Y0061743D01*
X0245247Y0063342D02*
X0156000Y0063342D01*
X0156000Y0064940D02*
X0245786Y0064940D01*
X0246184Y0066539D02*
X0156000Y0066539D01*
X0156000Y0068137D02*
X0245486Y0068137D01*
X0245247Y0069736D02*
X0156000Y0069736D01*
X0156000Y0071334D02*
X0245385Y0071334D01*
X0246047Y0072933D02*
X0156000Y0072933D01*
X0156000Y0074532D02*
X0245887Y0074532D01*
X0245247Y0076130D02*
X0156000Y0076130D01*
X0156000Y0087320D02*
X0170007Y0087320D01*
X0127320Y0087320D01*
X0151418Y0088918D02*
X0171908Y0088918D01*
X0156000Y0088918D01*
X0156000Y0090517D02*
X0273500Y0090517D01*
X0273500Y0092115D02*
X0156000Y0092115D01*
X0154615Y0092115D02*
X0188500Y0092115D01*
X0188500Y0093714D02*
X0156000Y0093714D01*
X0273500Y0093714D01*
X0273500Y0095312D02*
X0156000Y0095312D01*
X0188500Y0095312D01*
X0188500Y0096911D02*
X0156000Y0096911D01*
X0273500Y0096911D01*
X0273500Y0098509D02*
X0156000Y0098509D01*
X0188500Y0098509D01*
X0188500Y0100108D02*
X0156000Y0100108D01*
X0273500Y0100108D01*
X0273500Y0101706D02*
X0156000Y0101706D01*
X0188500Y0101706D01*
X0188500Y0103305D02*
X0156000Y0103305D01*
X0273500Y0103305D01*
X0273500Y0104903D02*
X0156000Y0104903D01*
X0188500Y0104903D01*
X0188500Y0106502D02*
X0156000Y0106502D01*
X0273500Y0106502D01*
X0273500Y0108100D02*
X0156000Y0108100D01*
X0188500Y0108100D01*
X0188500Y0109699D02*
X0156000Y0109699D01*
X0273500Y0109699D01*
X0273500Y0111297D02*
X0156000Y0111297D01*
X0188500Y0111297D01*
X0188500Y0112896D02*
X0156000Y0112896D01*
X0273500Y0112896D01*
X0273500Y0114494D02*
X0156000Y0114494D01*
X0188500Y0114494D01*
X0188500Y0116093D02*
X0156000Y0116093D01*
X0273500Y0116093D01*
X0273500Y0117691D02*
X0222410Y0117691D01*
X0269309Y0117691D01*
X0268500Y0118500D02*
X0271000Y0116000D01*
X0271000Y0093500D01*
X0268500Y0091000D01*
X0246000Y0091000D01*
X0241000Y0083500D01*
X0241000Y0061000D01*
X0246000Y0056000D01*
X0266000Y0056000D01*
X0268500Y0053500D01*
X0268500Y0028500D01*
X0263500Y0023500D01*
X0211000Y0023500D01*
X0221000Y0031000D01*
X0216000Y0046000D01*
X0208500Y0046000D01*
X0208500Y0078373D01*
X0208892Y0077980D01*
X0211217Y0077018D01*
X0220783Y0077018D01*
X0223108Y0077980D01*
X0224887Y0079760D01*
X0225850Y0082084D01*
X0225850Y0084601D01*
X0224887Y0086925D01*
X0223108Y0088705D01*
X0220783Y0089668D01*
X0218500Y0089668D01*
X0218500Y0117018D01*
X0220783Y0117018D01*
X0223108Y0117980D01*
X0224887Y0119760D01*
X0225401Y0121000D01*
X0241000Y0121000D01*
X0243500Y0118500D01*
X0268500Y0118500D01*
X0270907Y0116093D02*
X0218500Y0116093D01*
X0218500Y0114494D02*
X0271000Y0114494D01*
X0271000Y0112896D02*
X0218500Y0112896D01*
X0218500Y0111297D02*
X0271000Y0111297D01*
X0271000Y0109699D02*
X0218500Y0109699D01*
X0218500Y0108100D02*
X0271000Y0108100D01*
X0271000Y0106502D02*
X0218500Y0106502D01*
X0218500Y0104903D02*
X0271000Y0104903D01*
X0271000Y0103305D02*
X0218500Y0103305D01*
X0218500Y0101706D02*
X0271000Y0101706D01*
X0271000Y0100108D02*
X0218500Y0100108D01*
X0218500Y0098509D02*
X0271000Y0098509D01*
X0271000Y0096911D02*
X0218500Y0096911D01*
X0218500Y0095312D02*
X0271000Y0095312D01*
X0271000Y0093714D02*
X0218500Y0093714D01*
X0218500Y0092115D02*
X0269615Y0092115D01*
X0273500Y0088918D02*
X0265627Y0088918D01*
X0266920Y0087320D02*
X0273500Y0087320D01*
X0273500Y0085721D02*
X0267580Y0085721D01*
X0267580Y0084123D02*
X0273500Y0084123D01*
X0273500Y0082524D02*
X0267201Y0082524D01*
X0266305Y0080926D02*
X0273500Y0080926D01*
X0273500Y0079327D02*
X0267181Y0079327D01*
X0267580Y0077729D02*
X0273500Y0077729D01*
X0273500Y0076130D02*
X0267580Y0076130D01*
X0266940Y0074532D02*
X0273500Y0074532D01*
X0273500Y0072933D02*
X0266780Y0072933D01*
X0267442Y0071334D02*
X0273500Y0071334D01*
X0273500Y0069736D02*
X0267580Y0069736D01*
X0267341Y0068137D02*
X0273500Y0068137D01*
X0273500Y0066539D02*
X0266643Y0066539D01*
X0267041Y0064940D02*
X0273500Y0064940D01*
X0273500Y0063342D02*
X0267580Y0063342D01*
X0267580Y0061743D02*
X0273500Y0061743D01*
X0273500Y0060145D02*
X0267080Y0060145D01*
X0266013Y0058546D02*
X0273500Y0058546D01*
X0273500Y0056948D02*
X0263465Y0056948D01*
X0260189Y0056948D02*
X0252638Y0056948D01*
X0255186Y0058546D02*
X0257641Y0058546D01*
X0256574Y0060145D02*
X0256253Y0060145D01*
X0249362Y0056948D02*
X0156000Y0056948D01*
X0157552Y0056948D02*
X0159764Y0056948D01*
X0156000Y0055349D02*
X0273500Y0055349D01*
X0273500Y0053751D02*
X0156000Y0053751D01*
X0156000Y0052152D02*
X0273500Y0052152D01*
X0273500Y0050554D02*
X0156000Y0050554D01*
X0156000Y0048955D02*
X0273500Y0048955D01*
X0273500Y0047357D02*
X0156915Y0047357D01*
X0158193Y0045758D02*
X0273500Y0045758D01*
X0273500Y0044160D02*
X0159472Y0044160D01*
X0160751Y0042561D02*
X0273500Y0042561D01*
X0273500Y0040963D02*
X0162030Y0040963D01*
X0163309Y0039364D02*
X0273500Y0039364D01*
X0273500Y0037766D02*
X0164587Y0037766D01*
X0165866Y0036167D02*
X0273500Y0036167D01*
X0273500Y0034569D02*
X0167145Y0034569D01*
X0168424Y0032970D02*
X0273500Y0032970D01*
X0273500Y0031372D02*
X0169703Y0031372D01*
X0170981Y0029773D02*
X0273500Y0029773D01*
X0273500Y0028175D02*
X0172260Y0028175D01*
X0173539Y0026576D02*
X0273500Y0026576D01*
X0273500Y0024978D02*
X0174818Y0024978D01*
X0208500Y0047357D02*
X0268500Y0047357D01*
X0268500Y0048955D02*
X0208500Y0048955D01*
X0208500Y0050554D02*
X0268500Y0050554D01*
X0268500Y0052152D02*
X0208500Y0052152D01*
X0208500Y0053751D02*
X0268249Y0053751D01*
X0266651Y0055349D02*
X0208500Y0055349D01*
X0208500Y0056948D02*
X0245052Y0056948D01*
X0243454Y0058546D02*
X0208500Y0058546D01*
X0208500Y0060145D02*
X0241855Y0060145D01*
X0241000Y0061743D02*
X0208500Y0061743D01*
X0208500Y0063342D02*
X0241000Y0063342D01*
X0241000Y0064940D02*
X0208500Y0064940D01*
X0208500Y0066539D02*
X0241000Y0066539D01*
X0241000Y0068137D02*
X0208500Y0068137D01*
X0208500Y0069736D02*
X0241000Y0069736D01*
X0241000Y0071334D02*
X0208500Y0071334D01*
X0208500Y0072933D02*
X0241000Y0072933D01*
X0241000Y0074532D02*
X0208500Y0074532D01*
X0208500Y0076130D02*
X0241000Y0076130D01*
X0241000Y0077729D02*
X0222500Y0077729D01*
X0245247Y0077729D01*
X0245646Y0079327D02*
X0224454Y0079327D01*
X0241000Y0079327D01*
X0241000Y0080926D02*
X0225370Y0080926D01*
X0246521Y0080926D01*
X0245626Y0082524D02*
X0225850Y0082524D01*
X0241000Y0082524D01*
X0241415Y0084123D02*
X0225850Y0084123D01*
X0245247Y0084123D01*
X0245247Y0085721D02*
X0225386Y0085721D01*
X0242481Y0085721D01*
X0243546Y0087320D02*
X0224493Y0087320D01*
X0245907Y0087320D01*
X0247200Y0088918D02*
X0222592Y0088918D01*
X0244612Y0088918D01*
X0245678Y0090517D02*
X0218500Y0090517D01*
X0220783Y0089668D02*
X0211217Y0089668D01*
X0208892Y0088705D01*
X0207113Y0086925D01*
X0206150Y0084601D01*
X0206150Y0082084D01*
X0207113Y0079760D01*
X0208892Y0077980D01*
X0211217Y0077018D01*
X0220783Y0077018D01*
X0223108Y0077980D01*
X0224887Y0079760D01*
X0225850Y0082084D01*
X0225850Y0084601D01*
X0224887Y0086925D01*
X0223108Y0088705D01*
X0220783Y0089668D01*
X0209408Y0088918D02*
X0185092Y0088918D01*
X0185608Y0088705D02*
X0183283Y0089668D01*
X0173717Y0089668D01*
X0171392Y0088705D01*
X0169613Y0086925D01*
X0168650Y0084601D01*
X0168650Y0082084D01*
X0169613Y0079760D01*
X0171392Y0077980D01*
X0173717Y0077018D01*
X0183283Y0077018D01*
X0185608Y0077980D01*
X0187387Y0079760D01*
X0188350Y0082084D01*
X0188350Y0084601D01*
X0187387Y0086925D01*
X0185608Y0088705D01*
X0186993Y0087320D02*
X0207507Y0087320D01*
X0206614Y0085721D02*
X0187886Y0085721D01*
X0188350Y0084123D02*
X0206150Y0084123D01*
X0206150Y0082524D02*
X0188350Y0082524D01*
X0187870Y0080926D02*
X0206630Y0080926D01*
X0207546Y0079327D02*
X0186954Y0079327D01*
X0185000Y0077729D02*
X0209500Y0077729D01*
X0208500Y0077729D01*
X0178500Y0090517D02*
X0153017Y0090517D01*
X0156000Y0117691D02*
X0172090Y0117691D01*
X0156000Y0117691D01*
X0156000Y0119290D02*
X0170083Y0119290D01*
X0155210Y0119290D01*
X0156000Y0120888D02*
X0169145Y0120888D01*
X0153612Y0120888D01*
X0152013Y0122487D02*
X0168650Y0122487D01*
X0156000Y0122487D01*
X0156000Y0124085D02*
X0168650Y0124085D01*
X0130415Y0124085D01*
X0128816Y0125684D02*
X0169099Y0125684D01*
X0156000Y0125684D01*
X0156000Y0127282D02*
X0169970Y0127282D01*
X0128500Y0127282D01*
X0128500Y0128881D02*
X0171818Y0128881D01*
X0156000Y0128881D01*
X0156000Y0130479D02*
X0245755Y0130479D01*
X0246123Y0129592D02*
X0246545Y0129169D01*
X0246123Y0128747D01*
X0245247Y0126632D01*
X0245247Y0124344D01*
X0246123Y0122230D01*
X0247741Y0120611D01*
X0249856Y0119735D01*
X0252144Y0119735D01*
X0254259Y0120611D01*
X0255877Y0122230D01*
X0256413Y0123525D01*
X0256950Y0122230D01*
X0258568Y0120611D01*
X0260682Y0119735D01*
X0262971Y0119735D01*
X0265085Y0120611D01*
X0266704Y0122230D01*
X0267580Y0124344D01*
X0267580Y0126632D01*
X0266704Y0128747D01*
X0266281Y0129169D01*
X0266704Y0129592D01*
X0267580Y0131706D01*
X0267580Y0133995D01*
X0266704Y0136109D01*
X0266281Y0136531D01*
X0266704Y0136954D01*
X0267580Y0139068D01*
X0267580Y0141357D01*
X0266704Y0143471D01*
X0266281Y0143894D01*
X0266704Y0144316D01*
X0267580Y0146430D01*
X0267580Y0148719D01*
X0266704Y0150833D01*
X0265085Y0152452D01*
X0262971Y0153328D01*
X0260682Y0153328D01*
X0258568Y0152452D01*
X0256950Y0150833D01*
X0256413Y0149538D01*
X0255877Y0150833D01*
X0254259Y0152452D01*
X0252144Y0153328D01*
X0249856Y0153328D01*
X0247741Y0152452D01*
X0246123Y0150833D01*
X0245247Y0148719D01*
X0245247Y0146430D01*
X0246123Y0144316D01*
X0246545Y0143894D01*
X0246123Y0143471D01*
X0245247Y0141357D01*
X0245247Y0139068D01*
X0246123Y0136954D01*
X0246545Y0136531D01*
X0246123Y0136109D01*
X0245247Y0133995D01*
X0245247Y0131706D01*
X0246123Y0129592D01*
X0246257Y0128881D02*
X0222682Y0128881D01*
X0223108Y0128705D02*
X0220783Y0129668D01*
X0211217Y0129668D01*
X0208892Y0128705D01*
X0207113Y0126925D01*
X0206150Y0124601D01*
X0206150Y0122084D01*
X0207113Y0119760D01*
X0208892Y0117980D01*
X0211217Y0117018D01*
X0220783Y0117018D01*
X0223108Y0117980D01*
X0224887Y0119760D01*
X0225850Y0122084D01*
X0225850Y0124601D01*
X0224887Y0126925D01*
X0223108Y0128705D01*
X0224530Y0127282D02*
X0245516Y0127282D01*
X0245247Y0125684D02*
X0225401Y0125684D01*
X0225850Y0124085D02*
X0245354Y0124085D01*
X0246016Y0122487D02*
X0225850Y0122487D01*
X0225355Y0120888D02*
X0241112Y0120888D01*
X0242710Y0119290D02*
X0224417Y0119290D01*
X0273500Y0119290D01*
X0273500Y0120888D02*
X0265363Y0120888D01*
X0266810Y0122487D02*
X0273500Y0122487D01*
X0273500Y0124085D02*
X0267472Y0124085D01*
X0267580Y0125684D02*
X0273500Y0125684D01*
X0273500Y0127282D02*
X0267310Y0127282D01*
X0266570Y0128881D02*
X0273500Y0128881D01*
X0273500Y0130479D02*
X0267071Y0130479D01*
X0267580Y0132078D02*
X0273500Y0132078D01*
X0273500Y0133676D02*
X0267580Y0133676D01*
X0267049Y0135275D02*
X0273500Y0135275D01*
X0273500Y0136873D02*
X0266623Y0136873D01*
X0267333Y0138472D02*
X0273500Y0138472D01*
X0273500Y0140070D02*
X0267580Y0140070D01*
X0267450Y0141669D02*
X0273500Y0141669D01*
X0273500Y0143268D02*
X0266788Y0143268D01*
X0266931Y0144866D02*
X0273500Y0144866D01*
X0273500Y0146465D02*
X0267580Y0146465D01*
X0267580Y0148063D02*
X0273500Y0148063D01*
X0273500Y0149662D02*
X0267189Y0149662D01*
X0266277Y0151260D02*
X0273500Y0151260D01*
X0273500Y0152859D02*
X0264103Y0152859D01*
X0259550Y0152859D02*
X0253277Y0152859D01*
X0255450Y0151260D02*
X0257376Y0151260D01*
X0256464Y0149662D02*
X0256362Y0149662D01*
X0248723Y0152859D02*
X0156000Y0152859D01*
X0156000Y0154457D02*
X0273500Y0154457D01*
X0273500Y0156056D02*
X0156000Y0156056D01*
X0156000Y0157654D02*
X0172180Y0157654D01*
X0155154Y0157654D01*
X0156000Y0159253D02*
X0170120Y0159253D01*
X0169613Y0159760D02*
X0168650Y0162084D01*
X0168650Y0164601D01*
X0169613Y0166925D01*
X0171392Y0168705D01*
X0173717Y0169668D01*
X0183283Y0169668D01*
X0185608Y0168705D01*
X0187387Y0166925D01*
X0188350Y0164601D01*
X0188350Y0162084D01*
X0187387Y0159760D01*
X0185608Y0157980D01*
X0183283Y0157018D01*
X0173717Y0157018D01*
X0171392Y0157980D01*
X0169613Y0159760D01*
X0169161Y0160851D02*
X0156000Y0160851D01*
X0156000Y0162450D02*
X0168650Y0162450D01*
X0168650Y0164048D02*
X0156000Y0164048D01*
X0156000Y0165647D02*
X0169083Y0165647D01*
X0169933Y0167245D02*
X0156000Y0167245D01*
X0156000Y0168844D02*
X0171728Y0168844D01*
X0185272Y0168844D02*
X0209228Y0168844D01*
X0208500Y0168844D01*
X0208892Y0168705D02*
X0207113Y0166925D01*
X0206150Y0164601D01*
X0206150Y0162084D01*
X0207113Y0159760D01*
X0208892Y0157980D01*
X0211217Y0157018D01*
X0220783Y0157018D01*
X0223108Y0157980D01*
X0224887Y0159760D01*
X0225850Y0162084D01*
X0225850Y0164601D01*
X0224887Y0166925D01*
X0223108Y0168705D01*
X0220783Y0169668D01*
X0211217Y0169668D01*
X0208892Y0168705D01*
X0208500Y0170442D02*
X0268500Y0170442D01*
X0268500Y0168844D02*
X0222772Y0168844D01*
X0273500Y0168844D01*
X0273500Y0170442D02*
X0156000Y0170442D01*
X0156000Y0172041D02*
X0273500Y0172041D01*
X0273500Y0173639D02*
X0156000Y0173639D01*
X0156000Y0175238D02*
X0273500Y0175238D01*
X0273500Y0176836D02*
X0156000Y0176836D01*
X0156000Y0178435D02*
X0273500Y0178435D01*
X0273500Y0180033D02*
X0156000Y0180033D01*
X0156000Y0181632D02*
X0273500Y0181632D01*
X0273500Y0183230D02*
X0156000Y0183230D01*
X0156000Y0184829D02*
X0273500Y0184829D01*
X0273500Y0186427D02*
X0156000Y0186427D01*
X0156000Y0188026D02*
X0273500Y0188026D01*
X0273500Y0189624D02*
X0156000Y0189624D01*
X0149383Y0197617D02*
X0172270Y0197617D01*
X0201000Y0189624D02*
X0267376Y0189624D01*
X0268500Y0188026D02*
X0201000Y0188026D01*
X0201000Y0186427D02*
X0268500Y0186427D01*
X0268500Y0184829D02*
X0201000Y0184829D01*
X0201000Y0183230D02*
X0268500Y0183230D01*
X0268500Y0181632D02*
X0201000Y0181632D01*
X0208500Y0180033D02*
X0268500Y0180033D01*
X0268500Y0178435D02*
X0208500Y0178435D01*
X0208500Y0176836D02*
X0268500Y0176836D01*
X0268500Y0175238D02*
X0208500Y0175238D01*
X0208500Y0173639D02*
X0268500Y0173639D01*
X0268500Y0172041D02*
X0208500Y0172041D01*
X0207433Y0167245D02*
X0187067Y0167245D01*
X0187917Y0165647D02*
X0206583Y0165647D01*
X0206150Y0164048D02*
X0188350Y0164048D01*
X0188350Y0162450D02*
X0206150Y0162450D01*
X0206661Y0160851D02*
X0187839Y0160851D01*
X0186880Y0159253D02*
X0207620Y0159253D01*
X0208500Y0157654D02*
X0209680Y0157654D01*
X0184820Y0157654D01*
X0188500Y0157654D01*
X0188500Y0156056D02*
X0153556Y0156056D01*
X0156000Y0151260D02*
X0246550Y0151260D01*
X0245638Y0149662D02*
X0156000Y0149662D01*
X0156000Y0148063D02*
X0245247Y0148063D01*
X0245247Y0146465D02*
X0156000Y0146465D01*
X0156000Y0144866D02*
X0245895Y0144866D01*
X0246039Y0143268D02*
X0156000Y0143268D01*
X0156000Y0141669D02*
X0245377Y0141669D01*
X0245247Y0140070D02*
X0156000Y0140070D01*
X0156000Y0138472D02*
X0245494Y0138472D01*
X0246204Y0136873D02*
X0156000Y0136873D01*
X0156000Y0135275D02*
X0245778Y0135275D01*
X0245247Y0133676D02*
X0156000Y0133676D01*
X0156000Y0132078D02*
X0245247Y0132078D01*
X0247464Y0120888D02*
X0225355Y0120888D01*
X0209590Y0117691D02*
X0184910Y0117691D01*
X0188500Y0117691D01*
X0188500Y0119290D02*
X0186917Y0119290D01*
X0207583Y0119290D01*
X0206645Y0120888D02*
X0187855Y0120888D01*
X0188500Y0120888D01*
X0188350Y0122084D02*
X0188350Y0124601D01*
X0187387Y0126925D01*
X0185608Y0128705D01*
X0183283Y0129668D01*
X0173717Y0129668D01*
X0171392Y0128705D01*
X0169613Y0126925D01*
X0168650Y0124601D01*
X0168650Y0122084D01*
X0169613Y0119760D01*
X0171392Y0117980D01*
X0173717Y0117018D01*
X0183283Y0117018D01*
X0185608Y0117980D01*
X0187387Y0119760D01*
X0188350Y0122084D01*
X0188350Y0124601D01*
X0187387Y0126925D01*
X0185608Y0128705D01*
X0183283Y0129668D01*
X0173717Y0129668D01*
X0171392Y0128705D01*
X0169613Y0126925D01*
X0168650Y0124601D01*
X0168650Y0122084D01*
X0169613Y0119760D01*
X0171392Y0117980D01*
X0173717Y0117018D01*
X0183283Y0117018D01*
X0185608Y0117980D01*
X0187387Y0119760D01*
X0188350Y0122084D01*
X0188350Y0122487D02*
X0188500Y0122487D01*
X0188350Y0122487D02*
X0206150Y0122487D01*
X0206150Y0124085D02*
X0188350Y0124085D01*
X0188500Y0124085D01*
X0188500Y0125684D02*
X0187901Y0125684D01*
X0206599Y0125684D01*
X0207470Y0127282D02*
X0187030Y0127282D01*
X0188500Y0127282D01*
X0188500Y0128881D02*
X0185182Y0128881D01*
X0209318Y0128881D01*
X0188500Y0130479D02*
X0128500Y0130479D01*
X0128500Y0132078D02*
X0188500Y0132078D01*
X0188500Y0133676D02*
X0128500Y0133676D01*
X0128500Y0135275D02*
X0188500Y0135275D01*
X0188500Y0136873D02*
X0128500Y0136873D01*
X0128500Y0138472D02*
X0188500Y0138472D01*
X0188500Y0140070D02*
X0128500Y0140070D01*
X0128500Y0141669D02*
X0188500Y0141669D01*
X0188500Y0143268D02*
X0128500Y0143268D01*
X0128500Y0144866D02*
X0188500Y0144866D01*
X0188500Y0146465D02*
X0128500Y0146465D01*
X0128500Y0148063D02*
X0188500Y0148063D01*
X0188500Y0149662D02*
X0128500Y0149662D01*
X0128760Y0151260D02*
X0188500Y0151260D01*
X0188500Y0152859D02*
X0130359Y0152859D01*
X0131957Y0154457D02*
X0188500Y0154457D01*
X0208500Y0154457D02*
X0239457Y0154457D01*
X0241056Y0156056D02*
X0208500Y0156056D01*
X0222320Y0157654D02*
X0242654Y0157654D01*
X0225850Y0162450D02*
X0267450Y0162450D01*
X0268500Y0164048D02*
X0225850Y0164048D01*
X0273500Y0164048D01*
X0273500Y0162450D02*
X0225850Y0162450D01*
X0225339Y0160851D02*
X0265851Y0160851D01*
X0264253Y0159253D02*
X0224380Y0159253D01*
X0273500Y0159253D01*
X0273500Y0160851D02*
X0225339Y0160851D01*
X0222320Y0157654D02*
X0273500Y0157654D01*
X0273500Y0165647D02*
X0225417Y0165647D01*
X0268500Y0165647D01*
X0268500Y0167245D02*
X0224567Y0167245D01*
X0273500Y0167245D01*
X0258366Y0192821D02*
X0254461Y0192821D01*
X0255953Y0194420D02*
X0256874Y0194420D01*
X0225850Y0202084D02*
X0225850Y0204601D01*
X0224887Y0206925D01*
X0223108Y0208705D01*
X0220783Y0209668D01*
X0211217Y0209668D01*
X0208892Y0208705D01*
X0207113Y0206925D01*
X0206150Y0204601D01*
X0206150Y0202084D01*
X0207113Y0199760D01*
X0208892Y0197980D01*
X0211217Y0197018D01*
X0220783Y0197018D01*
X0223108Y0197980D01*
X0224887Y0199760D01*
X0225850Y0202084D01*
X0225850Y0204601D01*
X0224887Y0206925D01*
X0223108Y0208705D01*
X0220783Y0209668D01*
X0211217Y0209668D01*
X0208892Y0208705D01*
X0207113Y0206925D01*
X0206150Y0204601D01*
X0206150Y0202084D01*
X0207113Y0199760D01*
X0208892Y0197980D01*
X0211217Y0197018D01*
X0220783Y0197018D01*
X0223108Y0197980D01*
X0224887Y0199760D01*
X0225850Y0202084D01*
X0215706Y0224792D02*
X0245194Y0224792D01*
X0248543Y0224792D02*
X0215706Y0224792D01*
X0188500Y0242375D02*
X0188350Y0242375D01*
X0188500Y0253565D02*
X0156000Y0253565D01*
X0217521Y0253565D01*
X0215922Y0255163D02*
X0156000Y0255163D01*
X0188500Y0255163D01*
X0188500Y0256762D02*
X0155238Y0256762D01*
X0156000Y0256762D02*
X0215050Y0256762D01*
X0215050Y0258360D02*
X0156000Y0258360D01*
X0156000Y0259959D02*
X0215050Y0259959D01*
X0215643Y0261557D02*
X0156000Y0261557D01*
X0156000Y0263156D02*
X0217241Y0263156D01*
X0224759Y0263156D02*
X0245878Y0263156D01*
X0246056Y0264754D02*
X0156000Y0264754D01*
X0156000Y0266353D02*
X0245394Y0266353D01*
X0245247Y0267951D02*
X0156000Y0267951D01*
X0156000Y0269550D02*
X0245477Y0269550D01*
X0246162Y0271148D02*
X0156000Y0271148D01*
X0156000Y0272747D02*
X0245795Y0272747D01*
X0245247Y0274345D02*
X0156000Y0274345D01*
X0156000Y0275944D02*
X0245247Y0275944D01*
X0245738Y0277542D02*
X0184550Y0277542D01*
X0186768Y0279141D02*
X0246298Y0279141D01*
X0245533Y0280739D02*
X0187793Y0280739D01*
X0188350Y0282338D02*
X0245247Y0282338D01*
X0245337Y0283937D02*
X0188350Y0283937D01*
X0187963Y0285535D02*
X0245999Y0285535D01*
X0247423Y0287134D02*
X0187179Y0287134D01*
X0176056Y0275944D02*
X0128500Y0275944D01*
X0128500Y0277542D02*
X0172450Y0277542D01*
X0156000Y0277542D01*
X0156000Y0279141D02*
X0170232Y0279141D01*
X0128500Y0279141D01*
X0128500Y0280739D02*
X0169207Y0280739D01*
X0156000Y0280739D01*
X0156000Y0282338D02*
X0168650Y0282338D01*
X0168394Y0282338D02*
X0128500Y0282338D01*
X0128500Y0283937D02*
X0166476Y0283937D01*
X0168650Y0283937D02*
X0156000Y0283937D01*
X0156000Y0285535D02*
X0169037Y0285535D01*
X0169821Y0287134D02*
X0156000Y0287134D01*
X0158254Y0290331D02*
X0130331Y0290331D01*
X0131929Y0291929D02*
X0155856Y0291929D01*
X0160652Y0288732D02*
X0128732Y0288732D01*
X0128500Y0287134D02*
X0162640Y0287134D01*
X0164558Y0285535D02*
X0128500Y0285535D01*
X0128500Y0274345D02*
X0177655Y0274345D01*
X0179253Y0272747D02*
X0128500Y0272747D01*
X0128500Y0271148D02*
X0180852Y0271148D01*
X0188500Y0269550D02*
X0128500Y0269550D01*
X0128500Y0267951D02*
X0188500Y0267951D01*
X0188500Y0266353D02*
X0128500Y0266353D01*
X0128500Y0264754D02*
X0188500Y0264754D01*
X0188500Y0263156D02*
X0128844Y0263156D01*
X0130443Y0261557D02*
X0188500Y0261557D01*
X0188500Y0259959D02*
X0152041Y0259959D01*
X0153640Y0258360D02*
X0188500Y0258360D01*
X0171548Y0248769D02*
X0156000Y0248769D01*
X0171548Y0248769D01*
X0169858Y0247171D02*
X0156000Y0247171D01*
X0169858Y0247171D01*
X0169052Y0245572D02*
X0156000Y0245572D01*
X0169052Y0245572D01*
X0168650Y0243974D02*
X0156000Y0243974D01*
X0168650Y0243974D01*
X0168650Y0242375D02*
X0156000Y0242375D01*
X0168650Y0242375D01*
X0169192Y0240777D02*
X0156000Y0240777D01*
X0169192Y0240777D01*
X0170194Y0239178D02*
X0156000Y0239178D01*
X0170194Y0239178D01*
X0172360Y0237580D02*
X0156000Y0237580D01*
X0172360Y0237580D01*
X0226078Y0255163D02*
X0248823Y0255163D01*
X0246591Y0256762D02*
X0226950Y0256762D01*
X0226950Y0258360D02*
X0245655Y0258360D01*
X0245247Y0259959D02*
X0226950Y0259959D01*
X0226357Y0261557D02*
X0245247Y0261557D01*
X0253177Y0255163D02*
X0259649Y0255163D01*
X0257418Y0256762D02*
X0255409Y0256762D01*
X0256345Y0258360D02*
X0256481Y0258360D01*
X0264004Y0255163D02*
X0273500Y0255163D01*
X0273500Y0256762D02*
X0266236Y0256762D01*
X0267172Y0258360D02*
X0273500Y0258360D01*
X0273500Y0259959D02*
X0267580Y0259959D01*
X0267580Y0261557D02*
X0273500Y0261557D01*
X0273500Y0263156D02*
X0266949Y0263156D01*
X0266771Y0264754D02*
X0273500Y0264754D01*
X0273500Y0266353D02*
X0267433Y0266353D01*
X0267580Y0267951D02*
X0273500Y0267951D01*
X0273500Y0269550D02*
X0267350Y0269550D01*
X0266664Y0271148D02*
X0273500Y0271148D01*
X0273500Y0272747D02*
X0267032Y0272747D01*
X0267580Y0274345D02*
X0272655Y0274345D01*
X0271056Y0275944D02*
X0267580Y0275944D01*
X0267088Y0277542D02*
X0269458Y0277542D01*
X0267859Y0279141D02*
X0266529Y0279141D01*
X0258250Y0287134D02*
X0254577Y0287134D01*
X0256001Y0285535D02*
X0256826Y0285535D01*
X0291000Y0290331D02*
X0293762Y0290331D01*
X0329498Y0287134D02*
X0332935Y0287134D01*
X0331580Y0285535D02*
X0330853Y0285535D01*
X0340325Y0287134D02*
X0362896Y0287134D01*
X0365126Y0285535D02*
X0341679Y0285535D01*
X0341078Y0248769D02*
X0350565Y0248769D01*
X0348468Y0247171D02*
X0341915Y0247171D01*
X0342383Y0245572D02*
X0347580Y0245572D01*
X0347200Y0243974D02*
X0342383Y0243974D01*
X0341812Y0242375D02*
X0347200Y0242375D01*
X0347850Y0240777D02*
X0340645Y0240777D01*
X0337855Y0239178D02*
X0349119Y0239178D01*
X0348877Y0237580D02*
X0339009Y0237580D01*
X0335405Y0239178D02*
X0327028Y0239178D01*
X0328183Y0237580D02*
X0334250Y0237580D01*
X0332137Y0235981D02*
X0330296Y0235981D01*
X0329818Y0240777D02*
X0332615Y0240777D01*
X0331448Y0242375D02*
X0330985Y0242375D01*
X0325803Y0224465D02*
X0336630Y0224465D01*
X0337594Y0223500D01*
X0356000Y0223500D01*
X0333081Y0212003D02*
X0329352Y0212003D01*
X0330792Y0213602D02*
X0331641Y0213602D01*
X0385934Y0204011D02*
X0386200Y0204011D01*
X0386200Y0173639D02*
X0384808Y0173639D01*
X0386200Y0112896D02*
X0360307Y0112896D01*
X0361619Y0111297D02*
X0386200Y0111297D01*
X0386200Y0109699D02*
X0362281Y0109699D01*
X0362300Y0108100D02*
X0386200Y0108100D01*
X0386200Y0106502D02*
X0361950Y0106502D01*
X0361106Y0104903D02*
X0386200Y0104903D01*
X0386200Y0103305D02*
X0359898Y0103305D01*
X0361450Y0101706D02*
X0378292Y0101706D01*
X0376693Y0100108D02*
X0362112Y0100108D01*
X0362300Y0098509D02*
X0375095Y0098509D01*
X0375050Y0096911D02*
X0362120Y0096911D01*
X0361457Y0095312D02*
X0375050Y0095312D01*
X0375050Y0093714D02*
X0359916Y0093714D01*
X0361087Y0092115D02*
X0376470Y0092115D01*
X0378069Y0090517D02*
X0361943Y0090517D01*
X0362300Y0088918D02*
X0386200Y0088918D01*
X0386200Y0087320D02*
X0362289Y0087320D01*
X0361627Y0085721D02*
X0386200Y0085721D01*
X0386200Y0084123D02*
X0360325Y0084123D01*
X0360678Y0082524D02*
X0386200Y0082524D01*
X0386200Y0080926D02*
X0361773Y0080926D01*
X0362300Y0079327D02*
X0386200Y0079327D01*
X0386200Y0077729D02*
X0362300Y0077729D01*
X0361796Y0076130D02*
X0386200Y0076130D01*
X0386200Y0074532D02*
X0360734Y0074532D01*
X0358216Y0072933D02*
X0386200Y0072933D01*
X0386200Y0071334D02*
X0291000Y0071334D01*
X0291000Y0069736D02*
X0386200Y0069736D01*
X0386200Y0068137D02*
X0291000Y0068137D01*
X0291000Y0066539D02*
X0386200Y0066539D01*
X0386200Y0064940D02*
X0291000Y0064940D01*
X0291000Y0063342D02*
X0386200Y0063342D01*
X0386200Y0061743D02*
X0291000Y0061743D01*
X0291000Y0060145D02*
X0386200Y0060145D01*
X0386200Y0058546D02*
X0291000Y0058546D01*
X0291000Y0056948D02*
X0386200Y0056948D01*
X0386200Y0055349D02*
X0291000Y0055349D01*
X0291000Y0053751D02*
X0386200Y0053751D01*
X0386200Y0052152D02*
X0291000Y0052152D01*
X0291000Y0050554D02*
X0386200Y0050554D01*
X0386200Y0048955D02*
X0291000Y0048955D01*
X0291000Y0047357D02*
X0386200Y0047357D01*
X0386200Y0045758D02*
X0291000Y0045758D01*
X0291000Y0044160D02*
X0386200Y0044160D01*
X0386200Y0042561D02*
X0291000Y0042561D01*
X0291000Y0040963D02*
X0386200Y0040963D01*
X0386200Y0039364D02*
X0291000Y0039364D01*
X0291000Y0037766D02*
X0386200Y0037766D01*
X0386200Y0036167D02*
X0361747Y0036167D01*
X0363346Y0034569D02*
X0386200Y0034569D01*
X0386200Y0032970D02*
X0372691Y0032970D01*
X0369309Y0032970D02*
X0364450Y0032970D01*
X0364450Y0031372D02*
X0364964Y0031372D01*
X0355253Y0036167D02*
X0291000Y0036167D01*
X0291000Y0034569D02*
X0353654Y0034569D01*
X0352550Y0032970D02*
X0291000Y0032970D01*
X0291000Y0031372D02*
X0352550Y0031372D01*
X0352550Y0029773D02*
X0291000Y0029773D01*
X0291000Y0028175D02*
X0352911Y0028175D01*
X0354509Y0026576D02*
X0296086Y0026576D01*
X0268500Y0029773D02*
X0219364Y0029773D01*
X0220876Y0031372D02*
X0268500Y0031372D01*
X0268500Y0032970D02*
X0220343Y0032970D01*
X0219810Y0034569D02*
X0268500Y0034569D01*
X0268500Y0036167D02*
X0219278Y0036167D01*
X0218745Y0037766D02*
X0268500Y0037766D01*
X0268500Y0039364D02*
X0218212Y0039364D01*
X0217679Y0040963D02*
X0268500Y0040963D01*
X0268500Y0042561D02*
X0217146Y0042561D01*
X0216613Y0044160D02*
X0268500Y0044160D01*
X0268500Y0045758D02*
X0216081Y0045758D01*
X0217233Y0028175D02*
X0268175Y0028175D01*
X0266576Y0026576D02*
X0215102Y0026576D01*
X0212970Y0024978D02*
X0264978Y0024978D01*
X0291000Y0072933D02*
X0348784Y0072933D01*
X0334780Y0076130D02*
X0327653Y0076130D01*
X0330077Y0077729D02*
X0332356Y0077729D01*
X0331341Y0079327D02*
X0331092Y0079327D01*
X0383931Y0090517D02*
X0386200Y0090517D01*
X0386200Y0092115D02*
X0385530Y0092115D01*
X0385307Y0100108D02*
X0386200Y0100108D01*
X0386200Y0101706D02*
X0383708Y0101706D01*
X0386200Y0031372D02*
X0377036Y0031372D01*
X0379197Y0029773D02*
X0386200Y0029773D01*
X0386200Y0028175D02*
X0380714Y0028175D01*
X0381637Y0026576D02*
X0386200Y0026576D01*
X0258027Y0088918D02*
X0254800Y0088918D01*
X0256093Y0087320D02*
X0256734Y0087320D01*
X0258291Y0120888D02*
X0254536Y0120888D01*
X0255984Y0122487D02*
X0256843Y0122487D01*
X0106000Y0210405D02*
X0076030Y0210405D01*
X0074397Y0212003D02*
X0106000Y0212003D01*
X0106000Y0213602D02*
X0049200Y0213602D01*
X0048917Y0214285D02*
X0047285Y0215917D01*
X0047085Y0216000D01*
X0047285Y0216083D01*
X0048917Y0217715D01*
X0049800Y0219846D01*
X0049800Y0222154D01*
X0048917Y0224285D01*
X0047285Y0225917D01*
X0047085Y0226000D01*
X0047285Y0226083D01*
X0048917Y0227715D01*
X0049800Y0229846D01*
X0049800Y0232154D01*
X0048917Y0234285D01*
X0047285Y0235917D01*
X0047085Y0236000D01*
X0047285Y0236083D01*
X0048917Y0237715D01*
X0049800Y0239846D01*
X0049800Y0242154D01*
X0048917Y0244285D01*
X0047285Y0245917D01*
X0045154Y0246800D01*
X0036846Y0246800D01*
X0034715Y0245917D01*
X0033083Y0244285D01*
X0032200Y0242154D01*
X0032200Y0239846D01*
X0033083Y0237715D01*
X0034715Y0236083D01*
X0034915Y0236000D01*
X0034715Y0235917D01*
X0033083Y0234285D01*
X0032200Y0232154D01*
X0032200Y0229846D01*
X0033083Y0227715D01*
X0034715Y0226083D01*
X0034915Y0226000D01*
X0034715Y0225917D01*
X0033083Y0224285D01*
X0032200Y0222154D01*
X0032200Y0219846D01*
X0033083Y0217715D01*
X0034715Y0216083D01*
X0034915Y0216000D01*
X0034715Y0215917D01*
X0033083Y0214285D01*
X0032200Y0212154D01*
X0032200Y0209846D01*
X0033083Y0207715D01*
X0034715Y0206083D01*
X0036846Y0205200D01*
X0045154Y0205200D01*
X0047285Y0206083D01*
X0048917Y0207715D01*
X0049800Y0209846D01*
X0049800Y0212154D01*
X0048917Y0214285D01*
X0048002Y0215201D02*
X0056695Y0215201D01*
X0057111Y0214784D02*
X0055493Y0216403D01*
X0054617Y0218517D01*
X0054617Y0220806D01*
X0055493Y0222920D01*
X0056171Y0223598D01*
X0055493Y0224277D01*
X0054617Y0226391D01*
X0054617Y0228680D01*
X0055493Y0230794D01*
X0056171Y0231472D01*
X0055493Y0232151D01*
X0054617Y0234265D01*
X0054617Y0236554D01*
X0055493Y0238668D01*
X0057111Y0240286D01*
X0059226Y0241162D01*
X0061514Y0241162D01*
X0063629Y0240286D01*
X0065247Y0238668D01*
X0065783Y0237373D01*
X0066320Y0238668D01*
X0067938Y0240286D01*
X0070053Y0241162D01*
X0072341Y0241162D01*
X0074456Y0240286D01*
X0076074Y0238668D01*
X0076950Y0236554D01*
X0076950Y0234265D01*
X0076074Y0232151D01*
X0075395Y0231472D01*
X0076074Y0230794D01*
X0076950Y0228680D01*
X0076950Y0226391D01*
X0076074Y0224277D01*
X0075395Y0223598D01*
X0076074Y0222920D01*
X0076950Y0220806D01*
X0076950Y0218517D01*
X0076074Y0216403D01*
X0074456Y0214784D01*
X0072341Y0213909D01*
X0070053Y0213909D01*
X0067938Y0214784D01*
X0066320Y0216403D01*
X0065783Y0217698D01*
X0065247Y0216403D01*
X0063629Y0214784D01*
X0061514Y0213909D01*
X0059226Y0213909D01*
X0057111Y0214784D01*
X0055329Y0216799D02*
X0048001Y0216799D01*
X0049200Y0218398D02*
X0054667Y0218398D01*
X0054617Y0219996D02*
X0049800Y0219996D01*
X0049800Y0221595D02*
X0054944Y0221595D01*
X0055766Y0223193D02*
X0049369Y0223193D01*
X0048411Y0224792D02*
X0055280Y0224792D01*
X0054618Y0226390D02*
X0047593Y0226390D01*
X0049030Y0227989D02*
X0054617Y0227989D01*
X0054993Y0229587D02*
X0049693Y0229587D01*
X0049800Y0231186D02*
X0055885Y0231186D01*
X0055231Y0232784D02*
X0049539Y0232784D01*
X0048820Y0234383D02*
X0054617Y0234383D01*
X0054617Y0235981D02*
X0047130Y0235981D01*
X0048782Y0237580D02*
X0055042Y0237580D01*
X0056003Y0239178D02*
X0049523Y0239178D01*
X0049800Y0240777D02*
X0058295Y0240777D01*
X0062445Y0240777D02*
X0069122Y0240777D01*
X0066830Y0239178D02*
X0064737Y0239178D01*
X0065698Y0237580D02*
X0065869Y0237580D01*
X0073272Y0240777D02*
X0106000Y0240777D01*
X0106000Y0242375D02*
X0049708Y0242375D01*
X0049046Y0243974D02*
X0106000Y0243974D01*
X0106000Y0245572D02*
X0047630Y0245572D01*
X0034370Y0245572D02*
X0008500Y0245572D01*
X0008500Y0243974D02*
X0032954Y0243974D01*
X0032292Y0242375D02*
X0008500Y0242375D01*
X0008500Y0240777D02*
X0032200Y0240777D01*
X0032477Y0239178D02*
X0008500Y0239178D01*
X0008500Y0237580D02*
X0033218Y0237580D01*
X0034870Y0235981D02*
X0008500Y0235981D01*
X0008500Y0234383D02*
X0033180Y0234383D01*
X0032461Y0232784D02*
X0008500Y0232784D01*
X0008500Y0231186D02*
X0032200Y0231186D01*
X0032307Y0229587D02*
X0008500Y0229587D01*
X0008500Y0227989D02*
X0032969Y0227989D01*
X0034407Y0226390D02*
X0008500Y0226390D01*
X0008500Y0224792D02*
X0033589Y0224792D01*
X0032631Y0223193D02*
X0019891Y0223193D01*
X0023432Y0221595D02*
X0032200Y0221595D01*
X0032200Y0219996D02*
X0025175Y0219996D01*
X0026348Y0218398D02*
X0032800Y0218398D01*
X0033999Y0216799D02*
X0027221Y0216799D01*
X0027649Y0215201D02*
X0033998Y0215201D01*
X0032800Y0213602D02*
X0027906Y0213602D01*
X0027906Y0212003D02*
X0032200Y0212003D01*
X0032200Y0210405D02*
X0027634Y0210405D01*
X0027206Y0208806D02*
X0032631Y0208806D01*
X0033590Y0207208D02*
X0026316Y0207208D01*
X0025119Y0205609D02*
X0035858Y0205609D01*
X0046142Y0205609D02*
X0054762Y0205609D01*
X0054617Y0207208D02*
X0048410Y0207208D01*
X0049369Y0208806D02*
X0054849Y0208806D01*
X0055537Y0210405D02*
X0049800Y0210405D01*
X0049800Y0212003D02*
X0057170Y0212003D01*
X0063570Y0212003D02*
X0067997Y0212003D01*
X0066364Y0210405D02*
X0065203Y0210405D01*
X0064045Y0215201D02*
X0067522Y0215201D01*
X0066156Y0216799D02*
X0065411Y0216799D01*
X0074872Y0215201D02*
X0106000Y0215201D01*
X0106000Y0216799D02*
X0076238Y0216799D01*
X0076900Y0218398D02*
X0106000Y0218398D01*
X0106000Y0219996D02*
X0076950Y0219996D01*
X0076623Y0221595D02*
X0106000Y0221595D01*
X0106000Y0223193D02*
X0075801Y0223193D01*
X0076287Y0224792D02*
X0106000Y0224792D01*
X0106000Y0226390D02*
X0076949Y0226390D01*
X0076950Y0227989D02*
X0106000Y0227989D01*
X0106000Y0229587D02*
X0076574Y0229587D01*
X0075682Y0231186D02*
X0106000Y0231186D01*
X0106000Y0232784D02*
X0076336Y0232784D01*
X0076950Y0234383D02*
X0106000Y0234383D01*
X0106000Y0235981D02*
X0076950Y0235981D01*
X0076525Y0237580D02*
X0106000Y0237580D01*
X0106000Y0239178D02*
X0075564Y0239178D01*
X0106000Y0247171D02*
X0008500Y0247171D01*
X0008500Y0248769D02*
X0106000Y0248769D01*
X0106000Y0250368D02*
X0008500Y0250368D01*
X0008500Y0251966D02*
X0106000Y0251966D01*
X0106000Y0253565D02*
X0008500Y0253565D01*
X0008500Y0255163D02*
X0106000Y0255163D01*
X0106000Y0256762D02*
X0008500Y0256762D01*
X0008500Y0258360D02*
X0106000Y0258360D01*
X0106000Y0259959D02*
X0008500Y0259959D01*
X0008500Y0261557D02*
X0106000Y0261557D01*
X0106000Y0263156D02*
X0008500Y0263156D01*
X0008500Y0264754D02*
X0106000Y0264754D01*
X0106000Y0266353D02*
X0008500Y0266353D01*
X0008500Y0267951D02*
X0106000Y0267951D01*
X0106000Y0269550D02*
X0008500Y0269550D01*
X0008500Y0271148D02*
X0106000Y0271148D01*
X0106000Y0272747D02*
X0008500Y0272747D01*
X0008500Y0274345D02*
X0106000Y0274345D01*
X0106000Y0275944D02*
X0008500Y0275944D01*
X0008500Y0277542D02*
X0106000Y0277542D01*
X0106000Y0279141D02*
X0008500Y0279141D01*
X0008500Y0280739D02*
X0106000Y0280739D01*
X0106000Y0282338D02*
X0008500Y0282338D01*
X0008500Y0283937D02*
X0106000Y0283937D01*
X0106000Y0285535D02*
X0026874Y0285535D01*
X0025632Y0284818D02*
X0028368Y0286398D01*
X0030602Y0288632D01*
X0032182Y0291368D01*
X0033000Y0294420D01*
X0033000Y0297580D01*
X0032182Y0300632D01*
X0030602Y0303368D01*
X0028368Y0305602D01*
X0025632Y0307182D01*
X0022580Y0308000D01*
X0019420Y0308000D01*
X0016368Y0307182D01*
X0013632Y0305602D01*
X0011398Y0303368D01*
X0009818Y0300632D01*
X0009000Y0297580D01*
X0009000Y0294420D01*
X0009818Y0291368D01*
X0011398Y0288632D01*
X0013632Y0286398D01*
X0016368Y0284818D01*
X0019420Y0284000D01*
X0022580Y0284000D01*
X0025632Y0284818D01*
X0029104Y0287134D02*
X0106000Y0287134D01*
X0106000Y0288732D02*
X0030660Y0288732D01*
X0031583Y0290331D02*
X0098762Y0290331D01*
X0103238Y0290331D02*
X0106000Y0290331D01*
X0094441Y0291929D02*
X0032332Y0291929D01*
X0032761Y0293528D02*
X0092163Y0293528D01*
X0090565Y0295126D02*
X0033000Y0295126D01*
X0033000Y0296725D02*
X0089554Y0296725D01*
X0088631Y0298323D02*
X0032801Y0298323D01*
X0032373Y0299922D02*
X0088190Y0299922D01*
X0087761Y0301520D02*
X0031669Y0301520D01*
X0030746Y0303119D02*
X0087700Y0303119D01*
X0087700Y0304717D02*
X0029253Y0304717D01*
X0027133Y0306316D02*
X0087985Y0306316D01*
X0088414Y0307914D02*
X0022900Y0307914D01*
X0019100Y0307914D02*
X0008500Y0307914D01*
X0008500Y0306316D02*
X0014867Y0306316D01*
X0012747Y0304717D02*
X0008500Y0304717D01*
X0008500Y0303119D02*
X0011254Y0303119D01*
X0010331Y0301520D02*
X0008500Y0301520D01*
X0008500Y0299922D02*
X0009627Y0299922D01*
X0009199Y0298323D02*
X0008500Y0298323D01*
X0008500Y0296725D02*
X0009000Y0296725D01*
X0009000Y0295126D02*
X0008500Y0295126D01*
X0008500Y0293528D02*
X0009239Y0293528D01*
X0009667Y0291929D02*
X0008500Y0291929D01*
X0008500Y0290331D02*
X0010417Y0290331D01*
X0011340Y0288732D02*
X0008500Y0288732D01*
X0008500Y0287134D02*
X0012896Y0287134D01*
X0015126Y0285535D02*
X0008500Y0285535D01*
X0008500Y0223193D02*
X0014511Y0223193D01*
X0010969Y0221595D02*
X0008500Y0221595D01*
X0008500Y0219996D02*
X0009226Y0219996D01*
X0009282Y0205609D02*
X0008500Y0205609D01*
X0008500Y0204011D02*
X0011066Y0204011D01*
X0008500Y0202412D02*
X0014719Y0202412D01*
X0019682Y0202412D02*
X0055332Y0202412D01*
X0055424Y0204011D02*
X0023336Y0204011D01*
X0008500Y0200814D02*
X0054670Y0200814D01*
X0054617Y0199215D02*
X0008500Y0199215D01*
X0008500Y0197617D02*
X0054941Y0197617D01*
X0055759Y0196018D02*
X0043995Y0196018D01*
X0042555Y0196615D02*
X0045538Y0195380D01*
X0047820Y0193097D01*
X0049056Y0190114D01*
X0049056Y0186886D01*
X0047820Y0183903D01*
X0045538Y0181620D01*
X0042555Y0180385D01*
X0039327Y0180385D01*
X0036344Y0181620D01*
X0034061Y0183903D01*
X0032826Y0186886D01*
X0032826Y0190114D01*
X0034061Y0193097D01*
X0036344Y0195380D01*
X0039327Y0196615D01*
X0042555Y0196615D01*
X0046497Y0194420D02*
X0055152Y0194420D01*
X0054617Y0192821D02*
X0047935Y0192821D01*
X0048597Y0191223D02*
X0054617Y0191223D01*
X0055121Y0189624D02*
X0049056Y0189624D01*
X0049056Y0188026D02*
X0055835Y0188026D01*
X0054973Y0186427D02*
X0048866Y0186427D01*
X0048204Y0184829D02*
X0054617Y0184829D01*
X0054638Y0183230D02*
X0047148Y0183230D01*
X0045549Y0181632D02*
X0055300Y0181632D01*
X0055455Y0180033D02*
X0008500Y0180033D01*
X0008500Y0178435D02*
X0054793Y0178435D01*
X0054617Y0176836D02*
X0008500Y0176836D01*
X0008500Y0175238D02*
X0054818Y0175238D01*
X0055480Y0173639D02*
X0022209Y0173639D01*
X0024469Y0172041D02*
X0055276Y0172041D01*
X0054617Y0170442D02*
X0025941Y0170442D01*
X0026864Y0168844D02*
X0054617Y0168844D01*
X0054997Y0167245D02*
X0027460Y0167245D01*
X0027888Y0165647D02*
X0055895Y0165647D01*
X0036333Y0181632D02*
X0008500Y0181632D01*
X0008500Y0183230D02*
X0034734Y0183230D01*
X0033678Y0184829D02*
X0008500Y0184829D01*
X0008500Y0186427D02*
X0033016Y0186427D01*
X0032826Y0188026D02*
X0008500Y0188026D01*
X0008500Y0189624D02*
X0032826Y0189624D01*
X0033285Y0191223D02*
X0008500Y0191223D01*
X0008500Y0192821D02*
X0033947Y0192821D01*
X0035385Y0194420D02*
X0008500Y0194420D01*
X0008500Y0196018D02*
X0037887Y0196018D01*
X0012192Y0173639D02*
X0008500Y0173639D01*
X0008500Y0172041D02*
X0009932Y0172041D01*
X0008601Y0157654D02*
X0008500Y0157654D01*
X0008500Y0156056D02*
X0010175Y0156056D01*
X0008500Y0032970D02*
X0019309Y0032970D01*
X0022691Y0032970D02*
X0042056Y0032970D01*
X0040457Y0031372D02*
X0027036Y0031372D01*
X0029197Y0029773D02*
X0040050Y0029773D01*
X0040050Y0028175D02*
X0030714Y0028175D01*
X0031637Y0026576D02*
X0040050Y0026576D01*
X0014964Y0031372D02*
X0008500Y0031372D01*
X0008500Y0029773D02*
X0012803Y0029773D01*
X0011286Y0028175D02*
X0008500Y0028175D01*
X0008500Y0026576D02*
X0010363Y0026576D01*
M02*
