G75*
%MOIN*%
%OFA0B0*%
%FSLAX24Y24*%
%IPPOS*%
%LPD*%
%AMOC8*
5,1,8,0,0,1.08239X$1,22.5*
%
%ADD10C,0.0591*%
%ADD11OC8,0.0630*%
%ADD12C,0.1063*%
%ADD13C,0.0160*%
D10*
X014537Y002681D03*
X015620Y002681D03*
X015620Y003437D03*
X014537Y003437D03*
X014537Y004193D03*
X015620Y004193D03*
X015620Y004948D03*
X014537Y004948D03*
X014537Y005704D03*
X015620Y005704D03*
X015620Y006460D03*
X014537Y006460D03*
X014537Y007716D03*
X015620Y007716D03*
X015620Y008504D03*
X014537Y008504D03*
X014537Y009291D03*
X015620Y009291D03*
X015620Y011531D03*
X014537Y011531D03*
X014537Y012236D03*
X015620Y012236D03*
X015620Y012941D03*
X014537Y012941D03*
X014537Y013645D03*
X015620Y013645D03*
X015620Y014350D03*
X014537Y014350D03*
X022017Y014350D03*
X023100Y014350D03*
X023100Y013614D03*
X022017Y013614D03*
X022017Y012878D03*
X023100Y012878D03*
X023100Y012141D03*
X022017Y012141D03*
X022017Y011200D03*
X023100Y011200D03*
X023100Y010464D03*
X022017Y010464D03*
X022017Y009728D03*
X023100Y009728D03*
X023100Y008992D03*
X022017Y008992D03*
X022017Y008051D03*
X023100Y008051D03*
X023100Y007315D03*
X022017Y007315D03*
X022017Y006578D03*
X023100Y006578D03*
X023100Y005842D03*
X022017Y005842D03*
X022017Y004901D03*
X023100Y004901D03*
X023100Y004165D03*
X022017Y004165D03*
X022017Y003429D03*
X023100Y003429D03*
X023100Y002693D03*
X022017Y002693D03*
D11*
X026600Y007850D03*
X026600Y008850D03*
X010850Y008850D03*
X010850Y007850D03*
D12*
X005350Y007356D03*
X005350Y009600D03*
X035100Y009600D03*
X035100Y007356D03*
D13*
X014133Y004697D02*
X009705Y004697D01*
X012600Y004600D02*
X005100Y004850D01*
X004100Y005850D01*
X004100Y008100D01*
X010400Y008100D01*
X010355Y008055D01*
X010355Y007850D01*
X010850Y007850D01*
X011345Y007850D01*
X011345Y008055D01*
X011300Y008100D01*
X012850Y008100D01*
X014100Y007100D01*
X015850Y007100D01*
X016350Y006600D01*
X016350Y002350D01*
X015850Y001850D01*
X014100Y001850D01*
X013600Y002350D01*
X012600Y004600D01*
X012628Y004538D02*
X014210Y004538D01*
X014227Y004555D02*
X014174Y004502D01*
X014131Y004442D01*
X014097Y004375D01*
X014073Y004304D01*
X014062Y004230D01*
X014062Y004210D01*
X014520Y004210D01*
X014520Y004668D01*
X014520Y004931D01*
X014554Y004931D01*
X014554Y004210D01*
X014520Y004210D01*
X014520Y004175D01*
X014554Y004175D01*
X014554Y003717D01*
X014554Y003454D01*
X014520Y003454D01*
X014520Y004175D01*
X014062Y004175D01*
X014062Y004155D01*
X014073Y004081D01*
X014097Y004010D01*
X014131Y003943D01*
X014174Y003883D01*
X014227Y003830D01*
X014249Y003815D01*
X014227Y003799D01*
X014174Y003746D01*
X012980Y003746D01*
X012909Y003904D02*
X014159Y003904D01*
X014174Y003746D02*
X014131Y003686D01*
X014097Y003619D01*
X014073Y003548D01*
X014062Y003474D01*
X014062Y003454D01*
X014520Y003454D01*
X014520Y003419D01*
X014554Y003419D01*
X014554Y003156D01*
X014554Y002698D01*
X014520Y002698D01*
X014520Y003419D01*
X014062Y003419D01*
X014062Y003399D01*
X014073Y003325D01*
X014097Y003254D01*
X014131Y003188D01*
X014174Y003127D01*
X014227Y003074D01*
X014249Y003059D01*
X014227Y003043D01*
X014174Y002990D01*
X014131Y002930D01*
X014097Y002863D01*
X014073Y002792D01*
X014062Y002718D01*
X014062Y002698D01*
X014520Y002698D01*
X014520Y002663D01*
X014554Y002663D01*
X014554Y002205D01*
X014574Y002205D01*
X014648Y002217D01*
X014719Y002240D01*
X014786Y002274D01*
X014847Y002318D01*
X014900Y002371D01*
X014943Y002432D01*
X014977Y002498D01*
X015001Y002569D01*
X015012Y002643D01*
X015012Y002663D01*
X014554Y002663D01*
X014554Y002698D01*
X015012Y002698D01*
X015012Y002718D01*
X015001Y002792D01*
X014977Y002863D01*
X014943Y002930D01*
X014900Y002990D01*
X014847Y003043D01*
X014825Y003059D01*
X014847Y003074D01*
X014900Y003127D01*
X014943Y003188D01*
X014977Y003254D01*
X015001Y003325D01*
X015012Y003399D01*
X015012Y003419D01*
X014554Y003419D01*
X014554Y003454D01*
X015012Y003454D01*
X015012Y003474D01*
X015001Y003548D01*
X014977Y003619D01*
X014943Y003686D01*
X014900Y003746D01*
X015257Y003746D01*
X015213Y003686D01*
X015179Y003619D01*
X015156Y003548D01*
X015144Y003474D01*
X015144Y003454D01*
X015602Y003454D01*
X015602Y003419D01*
X015144Y003419D01*
X015144Y003399D01*
X015156Y003325D01*
X015179Y003254D01*
X015213Y003188D01*
X015257Y003127D01*
X015310Y003074D01*
X015331Y003059D01*
X015310Y003043D01*
X015257Y002990D01*
X015213Y002930D01*
X015179Y002863D01*
X015156Y002792D01*
X015144Y002718D01*
X015144Y002698D01*
X015602Y002698D01*
X015602Y002663D01*
X015637Y002663D01*
X015637Y002205D01*
X015657Y002205D01*
X015731Y002217D01*
X015802Y002240D01*
X015869Y002274D01*
X015929Y002318D01*
X015982Y002371D01*
X016026Y002432D01*
X016060Y002498D01*
X016083Y002569D01*
X016095Y002643D01*
X016095Y002663D01*
X015637Y002663D01*
X015637Y002698D01*
X016095Y002698D01*
X016095Y002718D01*
X016083Y002792D01*
X016060Y002863D01*
X016026Y002930D01*
X015982Y002990D01*
X015929Y003043D01*
X015908Y003059D01*
X015929Y003074D01*
X015982Y003127D01*
X016026Y003188D01*
X016060Y003254D01*
X016083Y003325D01*
X016095Y003399D01*
X016095Y003419D01*
X015637Y003419D01*
X015637Y003156D01*
X015637Y002698D01*
X015602Y002698D01*
X015602Y003419D01*
X015637Y003419D01*
X015637Y003454D01*
X015602Y003454D01*
X015602Y003912D01*
X015602Y004175D01*
X015144Y004175D01*
X015144Y004155D01*
X015156Y004081D01*
X015179Y004010D01*
X015213Y003943D01*
X015257Y003883D01*
X015310Y003830D01*
X015331Y003815D01*
X015310Y003799D01*
X015257Y003746D01*
X015242Y003904D02*
X014915Y003904D01*
X014900Y003883D02*
X014943Y003943D01*
X014977Y004010D01*
X015001Y004081D01*
X015012Y004155D01*
X015012Y004175D01*
X014554Y004175D01*
X014554Y004210D01*
X015012Y004210D01*
X015012Y004230D01*
X015001Y004304D01*
X014977Y004375D01*
X014943Y004442D01*
X014900Y004502D01*
X014847Y004555D01*
X014825Y004570D01*
X014847Y004586D01*
X014900Y004639D01*
X014943Y004699D01*
X014977Y004766D01*
X015001Y004837D01*
X015012Y004911D01*
X015012Y004931D01*
X014554Y004931D01*
X014554Y004966D01*
X014520Y004966D01*
X014520Y005687D01*
X014554Y005687D01*
X014554Y005229D01*
X014554Y004966D01*
X015012Y004966D01*
X015012Y004986D01*
X015001Y005060D01*
X014977Y005131D01*
X014943Y005198D01*
X014900Y005258D01*
X014847Y005311D01*
X014825Y005326D01*
X014847Y005342D01*
X014900Y005395D01*
X014943Y005455D01*
X014977Y005522D01*
X015001Y005593D01*
X015012Y005667D01*
X015012Y005687D01*
X014554Y005687D01*
X014554Y005722D01*
X014520Y005722D01*
X014520Y006443D01*
X014554Y006443D01*
X014554Y005985D01*
X014554Y005722D01*
X015012Y005722D01*
X015012Y005742D01*
X015001Y005816D01*
X014977Y005887D01*
X014943Y005953D01*
X014900Y006014D01*
X014847Y006067D01*
X014825Y006082D01*
X014847Y006098D01*
X014900Y006151D01*
X014943Y006211D01*
X014977Y006278D01*
X015001Y006349D01*
X015012Y006423D01*
X015012Y006443D01*
X014554Y006443D01*
X014554Y006478D01*
X014520Y006478D01*
X014520Y006936D01*
X014500Y006936D01*
X014426Y006924D01*
X014355Y006901D01*
X014288Y006867D01*
X014227Y006823D01*
X014174Y006770D01*
X014131Y006709D01*
X014097Y006643D01*
X014073Y006572D01*
X014062Y006498D01*
X014062Y006478D01*
X014520Y006478D01*
X014520Y006443D01*
X014062Y006443D01*
X014062Y006423D01*
X014073Y006349D01*
X014097Y006278D01*
X014131Y006211D01*
X014174Y006151D01*
X014227Y006098D01*
X014249Y006082D01*
X014227Y006067D01*
X014174Y006014D01*
X014131Y005953D01*
X014097Y005887D01*
X014073Y005816D01*
X014062Y005742D01*
X014062Y005722D01*
X014520Y005722D01*
X014520Y005687D01*
X014062Y005687D01*
X014062Y005667D01*
X014073Y005593D01*
X014097Y005522D01*
X014131Y005455D01*
X014174Y005395D01*
X014227Y005342D01*
X014249Y005326D01*
X014227Y005311D01*
X014174Y005258D01*
X014131Y005198D01*
X014097Y005131D01*
X014073Y005060D01*
X014062Y004986D01*
X014062Y004966D01*
X014520Y004966D01*
X014520Y004931D01*
X014062Y004931D01*
X014062Y004911D01*
X014073Y004837D01*
X014097Y004766D01*
X014131Y004699D01*
X014174Y004639D01*
X014227Y004586D01*
X014249Y004570D01*
X014227Y004555D01*
X014099Y004380D02*
X012698Y004380D01*
X012768Y004221D02*
X014062Y004221D01*
X014080Y004063D02*
X012839Y004063D01*
X013050Y003587D02*
X014086Y003587D01*
X014520Y003587D02*
X014554Y003587D01*
X014554Y003429D02*
X015602Y003429D01*
X015637Y003429D02*
X016350Y003429D01*
X016350Y003587D02*
X016071Y003587D01*
X016060Y003619D02*
X016026Y003686D01*
X015982Y003746D01*
X015929Y003799D01*
X015908Y003815D01*
X015929Y003830D01*
X015982Y003883D01*
X016026Y003943D01*
X016060Y004010D01*
X016083Y004081D01*
X016095Y004155D01*
X016095Y004175D01*
X015637Y004175D01*
X015637Y003454D01*
X016095Y003454D01*
X016095Y003474D01*
X016083Y003548D01*
X016060Y003619D01*
X015983Y003746D02*
X016350Y003746D01*
X016350Y003904D02*
X015998Y003904D01*
X016077Y004063D02*
X016350Y004063D01*
X016350Y004221D02*
X016095Y004221D01*
X016095Y004230D02*
X016083Y004304D01*
X016060Y004375D01*
X016026Y004442D01*
X015982Y004502D01*
X015929Y004555D01*
X015908Y004570D01*
X015929Y004586D01*
X015982Y004639D01*
X016026Y004699D01*
X016060Y004766D01*
X016083Y004837D01*
X016095Y004911D01*
X016095Y004931D01*
X015637Y004931D01*
X015637Y004210D01*
X015602Y004210D01*
X015602Y004175D01*
X015637Y004175D01*
X015637Y004210D01*
X016095Y004210D01*
X016095Y004230D01*
X016058Y004380D02*
X016350Y004380D01*
X016350Y004538D02*
X015946Y004538D01*
X016024Y004697D02*
X016350Y004697D01*
X016350Y004855D02*
X016086Y004855D01*
X016095Y004966D02*
X016095Y004986D01*
X016083Y005060D01*
X016060Y005131D01*
X016026Y005198D01*
X015982Y005258D01*
X015929Y005311D01*
X015908Y005326D01*
X015929Y005342D01*
X015982Y005395D01*
X016026Y005455D01*
X016060Y005522D01*
X016083Y005593D01*
X016095Y005667D01*
X016095Y005687D01*
X015637Y005687D01*
X015637Y004966D01*
X015602Y004966D01*
X015602Y004931D01*
X015144Y004931D01*
X015144Y004911D01*
X015156Y004837D01*
X015179Y004766D01*
X015213Y004699D01*
X015257Y004639D01*
X015310Y004586D01*
X015331Y004570D01*
X015310Y004555D01*
X015257Y004502D01*
X015213Y004442D01*
X015179Y004375D01*
X015156Y004304D01*
X015144Y004230D01*
X015144Y004210D01*
X015602Y004210D01*
X015602Y004668D01*
X015602Y004931D01*
X015637Y004931D01*
X015637Y004966D01*
X016095Y004966D01*
X016091Y005014D02*
X016350Y005014D01*
X016350Y005172D02*
X016039Y005172D01*
X015914Y005331D02*
X016350Y005331D01*
X016350Y005489D02*
X016043Y005489D01*
X016092Y005648D02*
X016350Y005648D01*
X016350Y005806D02*
X016085Y005806D01*
X016083Y005816D02*
X016060Y005887D01*
X016026Y005953D01*
X015982Y006014D01*
X015929Y006067D01*
X015908Y006082D01*
X015929Y006098D01*
X015982Y006151D01*
X016026Y006211D01*
X016060Y006278D01*
X016083Y006349D01*
X016095Y006423D01*
X016095Y006443D01*
X015637Y006443D01*
X015637Y006478D01*
X015602Y006478D01*
X015602Y006936D01*
X015582Y006936D01*
X015508Y006924D01*
X015437Y006901D01*
X015371Y006867D01*
X015310Y006823D01*
X015257Y006770D01*
X015213Y006709D01*
X015179Y006643D01*
X015156Y006572D01*
X015144Y006498D01*
X015144Y006478D01*
X015602Y006478D01*
X015602Y006443D01*
X015144Y006443D01*
X015144Y006423D01*
X015156Y006349D01*
X015179Y006278D01*
X015213Y006211D01*
X015257Y006151D01*
X015310Y006098D01*
X015331Y006082D01*
X015310Y006067D01*
X015257Y006014D01*
X015213Y005953D01*
X015179Y005887D01*
X015156Y005816D01*
X015144Y005742D01*
X015144Y005722D01*
X015602Y005722D01*
X015602Y005687D01*
X015144Y005687D01*
X015144Y005667D01*
X015156Y005593D01*
X015179Y005522D01*
X015213Y005455D01*
X015257Y005395D01*
X015310Y005342D01*
X015331Y005326D01*
X015310Y005311D01*
X015257Y005258D01*
X015213Y005198D01*
X015179Y005131D01*
X015156Y005060D01*
X015144Y004986D01*
X015144Y004966D01*
X015602Y004966D01*
X015602Y005229D01*
X015602Y005687D01*
X015637Y005687D01*
X015637Y005722D01*
X015602Y005722D01*
X015602Y006180D01*
X015602Y006443D01*
X015637Y006443D01*
X015637Y005722D01*
X016095Y005722D01*
X016095Y005742D01*
X016083Y005816D01*
X016018Y005965D02*
X016350Y005965D01*
X016350Y006123D02*
X015955Y006123D01*
X016061Y006282D02*
X016350Y006282D01*
X016350Y006440D02*
X016095Y006440D01*
X016095Y006478D02*
X016095Y006498D01*
X016083Y006572D01*
X016060Y006643D01*
X016026Y006709D01*
X015982Y006770D01*
X015929Y006823D01*
X015869Y006867D01*
X015802Y006901D01*
X015731Y006924D01*
X015657Y006936D01*
X015637Y006936D01*
X015637Y006478D01*
X016095Y006478D01*
X016074Y006599D02*
X016350Y006599D01*
X016193Y006757D02*
X015992Y006757D01*
X016034Y006916D02*
X015757Y006916D01*
X015637Y006916D02*
X015602Y006916D01*
X015483Y006916D02*
X014674Y006916D01*
X014648Y006924D02*
X014574Y006936D01*
X014554Y006936D01*
X014554Y006478D01*
X015012Y006478D01*
X015012Y006498D01*
X015001Y006572D01*
X014977Y006643D01*
X014943Y006709D01*
X014900Y006770D01*
X014847Y006823D01*
X014786Y006867D01*
X014719Y006901D01*
X014648Y006924D01*
X014554Y006916D02*
X014520Y006916D01*
X014400Y006916D02*
X005909Y006916D01*
X005886Y006886D02*
X005943Y006960D01*
X005989Y007041D01*
X006025Y007127D01*
X006049Y007217D01*
X006057Y007276D01*
X005430Y007276D01*
X005430Y007436D01*
X005270Y007436D01*
X005270Y008063D01*
X005211Y008055D01*
X005121Y008031D01*
X005035Y007995D01*
X004954Y007949D01*
X004880Y007892D01*
X004814Y007826D01*
X004757Y007752D01*
X004711Y007671D01*
X004675Y007585D01*
X004651Y007495D01*
X004643Y007436D01*
X005270Y007436D01*
X005270Y007276D01*
X004643Y007276D01*
X004651Y007217D01*
X004675Y007127D01*
X004711Y007041D01*
X004757Y006960D01*
X004814Y006886D01*
X004880Y006820D01*
X004954Y006763D01*
X005035Y006716D01*
X005121Y006681D01*
X005211Y006657D01*
X005270Y006649D01*
X005270Y007276D01*
X005430Y007276D01*
X005430Y006649D01*
X005489Y006657D01*
X005579Y006681D01*
X005665Y006716D01*
X005746Y006763D01*
X005820Y006820D01*
X005886Y006886D01*
X005736Y006757D02*
X014165Y006757D01*
X014082Y006599D02*
X004100Y006599D01*
X004100Y006757D02*
X004964Y006757D01*
X004791Y006916D02*
X004100Y006916D01*
X004100Y007074D02*
X004697Y007074D01*
X004649Y007233D02*
X004100Y007233D01*
X004100Y007391D02*
X005270Y007391D01*
X005270Y007233D02*
X005430Y007233D01*
X005430Y007391D02*
X010609Y007391D01*
X010645Y007355D02*
X010355Y007645D01*
X010355Y007850D01*
X010850Y007850D01*
X010850Y007850D01*
X010850Y007850D01*
X011345Y007850D01*
X011345Y007645D01*
X011055Y007355D01*
X010850Y007355D01*
X010850Y007850D01*
X010850Y007850D01*
X010850Y007355D01*
X010645Y007355D01*
X010850Y007391D02*
X010850Y007391D01*
X010850Y007550D02*
X010850Y007550D01*
X010850Y007708D02*
X010850Y007708D01*
X011250Y007550D02*
X013538Y007550D01*
X013340Y007708D02*
X011345Y007708D01*
X011345Y007867D02*
X013142Y007867D01*
X012944Y008025D02*
X011345Y008025D01*
X011300Y008600D02*
X011345Y008645D01*
X011345Y008850D01*
X011345Y009055D01*
X011055Y009345D01*
X010850Y009345D01*
X010850Y008850D01*
X011345Y008850D01*
X010850Y008850D01*
X010850Y008850D01*
X010850Y008850D01*
X010850Y008850D01*
X010355Y008850D01*
X010355Y009055D01*
X010645Y009345D01*
X010850Y009345D01*
X010850Y008850D01*
X010355Y008850D01*
X010355Y008645D01*
X010400Y008600D01*
X004100Y008600D01*
X004100Y010100D01*
X005600Y011600D01*
X011100Y011600D01*
X013350Y014100D01*
X013350Y014350D01*
X014100Y015100D01*
X016100Y015100D01*
X016600Y014600D01*
X016600Y011350D01*
X015850Y010600D01*
X013850Y010600D01*
X011850Y008600D01*
X011300Y008600D01*
X011345Y008659D02*
X011909Y008659D01*
X012068Y008818D02*
X011345Y008818D01*
X011345Y008976D02*
X012226Y008976D01*
X012385Y009135D02*
X011266Y009135D01*
X011107Y009293D02*
X012543Y009293D01*
X012702Y009452D02*
X008817Y009452D01*
X008781Y009317D02*
X008854Y009589D01*
X008854Y009871D01*
X008781Y010143D01*
X008640Y010387D01*
X008440Y010587D01*
X008196Y010728D01*
X007924Y010800D01*
X007642Y010800D01*
X007370Y010728D01*
X007126Y010587D01*
X006926Y010387D01*
X006785Y010143D01*
X006713Y009871D01*
X006713Y009589D01*
X006785Y009317D01*
X006926Y009073D01*
X007126Y008873D01*
X007370Y008732D01*
X007642Y008659D01*
X007924Y008659D01*
X008196Y008732D01*
X008440Y008873D01*
X008640Y009073D01*
X008781Y009317D01*
X008767Y009293D02*
X010593Y009293D01*
X010434Y009135D02*
X008675Y009135D01*
X008543Y008976D02*
X010355Y008976D01*
X010355Y008818D02*
X008344Y008818D01*
X007222Y008818D02*
X004100Y008818D01*
X004100Y008976D02*
X005008Y008976D01*
X005035Y008961D02*
X005121Y008925D01*
X005211Y008901D01*
X005270Y008893D01*
X005270Y009520D01*
X005430Y009520D01*
X005430Y009680D01*
X006057Y009680D01*
X006049Y009739D01*
X006025Y009829D01*
X005989Y009915D01*
X005943Y009996D01*
X005886Y010070D01*
X005820Y010136D01*
X005746Y010193D01*
X005665Y010239D01*
X005579Y010275D01*
X005489Y010299D01*
X005430Y010307D01*
X005430Y009680D01*
X005270Y009680D01*
X005270Y010307D01*
X005211Y010299D01*
X005121Y010275D01*
X005035Y010239D01*
X004954Y010193D01*
X004880Y010136D01*
X004814Y010070D01*
X004757Y009996D01*
X004711Y009915D01*
X004675Y009829D01*
X004651Y009739D01*
X004643Y009680D01*
X005270Y009680D01*
X005270Y009520D01*
X004643Y009520D01*
X004651Y009461D01*
X004675Y009371D01*
X004711Y009285D01*
X004757Y009204D01*
X004814Y009130D01*
X004880Y009064D01*
X004954Y009007D01*
X005035Y008961D01*
X005270Y008976D02*
X005430Y008976D01*
X005430Y008893D02*
X005489Y008901D01*
X005579Y008925D01*
X005665Y008961D01*
X005746Y009007D01*
X005820Y009064D01*
X005886Y009130D01*
X005943Y009204D01*
X005989Y009285D01*
X006025Y009371D01*
X006049Y009461D01*
X006057Y009520D01*
X005430Y009520D01*
X005430Y008893D01*
X005430Y009135D02*
X005270Y009135D01*
X005270Y009293D02*
X005430Y009293D01*
X005430Y009452D02*
X005270Y009452D01*
X005270Y009610D02*
X004100Y009610D01*
X004100Y009452D02*
X004653Y009452D01*
X004707Y009293D02*
X004100Y009293D01*
X004100Y009135D02*
X004810Y009135D01*
X005430Y009610D02*
X006713Y009610D01*
X006713Y009769D02*
X006041Y009769D01*
X005983Y009927D02*
X006728Y009927D01*
X006770Y010086D02*
X005871Y010086D01*
X005654Y010244D02*
X006844Y010244D01*
X006942Y010403D02*
X004403Y010403D01*
X004561Y010561D02*
X007100Y010561D01*
X007356Y010720D02*
X004720Y010720D01*
X004878Y010878D02*
X016128Y010878D01*
X015970Y010720D02*
X008210Y010720D01*
X008466Y010561D02*
X013811Y010561D01*
X013653Y010403D02*
X008624Y010403D01*
X008722Y010244D02*
X013494Y010244D01*
X013336Y010086D02*
X008796Y010086D01*
X008839Y009927D02*
X013177Y009927D01*
X013019Y009769D02*
X008854Y009769D01*
X008854Y009610D02*
X012860Y009610D01*
X010850Y009293D02*
X010850Y009293D01*
X010850Y009135D02*
X010850Y009135D01*
X010850Y008976D02*
X010850Y008976D01*
X010355Y008659D02*
X004100Y008659D01*
X004100Y008025D02*
X005106Y008025D01*
X005270Y008025D02*
X005430Y008025D01*
X005430Y008063D02*
X005489Y008055D01*
X005579Y008031D01*
X005665Y007995D01*
X005746Y007949D01*
X005820Y007892D01*
X005886Y007826D01*
X005943Y007752D01*
X005989Y007671D01*
X006025Y007585D01*
X006049Y007495D01*
X006057Y007436D01*
X005430Y007436D01*
X005430Y008063D01*
X005594Y008025D02*
X010355Y008025D01*
X010355Y007867D02*
X005846Y007867D01*
X005968Y007708D02*
X010355Y007708D01*
X010450Y007550D02*
X006035Y007550D01*
X006051Y007233D02*
X013934Y007233D01*
X013736Y007391D02*
X011091Y007391D01*
X014062Y006440D02*
X004100Y006440D01*
X004100Y006282D02*
X014095Y006282D01*
X014202Y006123D02*
X004100Y006123D01*
X004100Y005965D02*
X014139Y005965D01*
X014072Y005806D02*
X004144Y005806D01*
X004302Y005648D02*
X014065Y005648D01*
X014113Y005489D02*
X004461Y005489D01*
X004619Y005331D02*
X014243Y005331D01*
X014118Y005172D02*
X004778Y005172D01*
X004936Y005014D02*
X014066Y005014D01*
X014071Y004855D02*
X005095Y004855D01*
X005270Y006757D02*
X005430Y006757D01*
X005430Y006916D02*
X005270Y006916D01*
X005270Y007074D02*
X005430Y007074D01*
X006003Y007074D02*
X015876Y007074D01*
X015637Y006757D02*
X015602Y006757D01*
X015602Y006599D02*
X015637Y006599D01*
X015637Y006440D02*
X015602Y006440D01*
X015602Y006282D02*
X015637Y006282D01*
X015637Y006123D02*
X015602Y006123D01*
X015602Y005965D02*
X015637Y005965D01*
X015637Y005806D02*
X015602Y005806D01*
X015602Y005648D02*
X015637Y005648D01*
X015637Y005489D02*
X015602Y005489D01*
X015602Y005331D02*
X015637Y005331D01*
X015637Y005172D02*
X015602Y005172D01*
X015602Y005014D02*
X015637Y005014D01*
X015637Y004855D02*
X015602Y004855D01*
X015602Y004697D02*
X015637Y004697D01*
X015637Y004538D02*
X015602Y004538D01*
X015602Y004380D02*
X015637Y004380D01*
X015637Y004221D02*
X015602Y004221D01*
X015602Y004063D02*
X015637Y004063D01*
X015637Y003904D02*
X015602Y003904D01*
X015602Y003746D02*
X015637Y003746D01*
X015637Y003587D02*
X015602Y003587D01*
X015169Y003587D02*
X014988Y003587D01*
X014900Y003746D02*
X014847Y003799D01*
X014825Y003815D01*
X014847Y003830D01*
X014900Y003883D01*
X014994Y004063D02*
X015162Y004063D01*
X015144Y004221D02*
X015012Y004221D01*
X014975Y004380D02*
X015182Y004380D01*
X015293Y004538D02*
X014864Y004538D01*
X014941Y004697D02*
X015215Y004697D01*
X015153Y004855D02*
X015003Y004855D01*
X015008Y005014D02*
X015149Y005014D01*
X015200Y005172D02*
X014957Y005172D01*
X014831Y005331D02*
X015326Y005331D01*
X015196Y005489D02*
X014961Y005489D01*
X015009Y005648D02*
X015147Y005648D01*
X015155Y005806D02*
X015002Y005806D01*
X014935Y005965D02*
X015221Y005965D01*
X015285Y006123D02*
X014872Y006123D01*
X014979Y006282D02*
X015178Y006282D01*
X015144Y006440D02*
X015012Y006440D01*
X014992Y006599D02*
X015165Y006599D01*
X015248Y006757D02*
X014909Y006757D01*
X014554Y006757D02*
X014520Y006757D01*
X014520Y006599D02*
X014554Y006599D01*
X014554Y006440D02*
X014520Y006440D01*
X014520Y006282D02*
X014554Y006282D01*
X014554Y006123D02*
X014520Y006123D01*
X014520Y005965D02*
X014554Y005965D01*
X014554Y005806D02*
X014520Y005806D01*
X014520Y005648D02*
X014554Y005648D01*
X014554Y005489D02*
X014520Y005489D01*
X014520Y005331D02*
X014554Y005331D01*
X014554Y005172D02*
X014520Y005172D01*
X014520Y005014D02*
X014554Y005014D01*
X014554Y004855D02*
X014520Y004855D01*
X014520Y004697D02*
X014554Y004697D01*
X014554Y004538D02*
X014520Y004538D01*
X014520Y004380D02*
X014554Y004380D01*
X014554Y004221D02*
X014520Y004221D01*
X014520Y004063D02*
X014554Y004063D01*
X014554Y003904D02*
X014520Y003904D01*
X014520Y003746D02*
X014554Y003746D01*
X014520Y003429D02*
X013121Y003429D01*
X013191Y003270D02*
X014091Y003270D01*
X014190Y003112D02*
X013262Y003112D01*
X013332Y002953D02*
X014147Y002953D01*
X014074Y002795D02*
X013402Y002795D01*
X013473Y002636D02*
X014063Y002636D01*
X014062Y002643D02*
X014073Y002569D01*
X014097Y002498D01*
X014131Y002432D01*
X014174Y002371D01*
X014227Y002318D01*
X014288Y002274D01*
X014355Y002240D01*
X014426Y002217D01*
X014500Y002205D01*
X014520Y002205D01*
X014520Y002663D01*
X014062Y002663D01*
X014062Y002643D01*
X014107Y002478D02*
X013543Y002478D01*
X013631Y002319D02*
X014227Y002319D01*
X014520Y002319D02*
X014554Y002319D01*
X014554Y002478D02*
X014520Y002478D01*
X014520Y002636D02*
X014554Y002636D01*
X014554Y002795D02*
X014520Y002795D01*
X014520Y002953D02*
X014554Y002953D01*
X014554Y003112D02*
X014520Y003112D01*
X014520Y003270D02*
X014554Y003270D01*
X014884Y003112D02*
X015273Y003112D01*
X015230Y002953D02*
X014927Y002953D01*
X015000Y002795D02*
X015157Y002795D01*
X015144Y002663D02*
X015144Y002643D01*
X015156Y002569D01*
X015179Y002498D01*
X015213Y002432D01*
X015257Y002371D01*
X015310Y002318D01*
X015371Y002274D01*
X015437Y002240D01*
X015508Y002217D01*
X015582Y002205D01*
X015602Y002205D01*
X015602Y002663D01*
X015144Y002663D01*
X015146Y002636D02*
X015011Y002636D01*
X014967Y002478D02*
X015190Y002478D01*
X015309Y002319D02*
X014847Y002319D01*
X015602Y002319D02*
X015637Y002319D01*
X015637Y002478D02*
X015602Y002478D01*
X015602Y002636D02*
X015637Y002636D01*
X015637Y002795D02*
X015602Y002795D01*
X015602Y002953D02*
X015637Y002953D01*
X015637Y003112D02*
X015602Y003112D01*
X015602Y003270D02*
X015637Y003270D01*
X015967Y003112D02*
X016350Y003112D01*
X016350Y003270D02*
X016065Y003270D01*
X016009Y002953D02*
X016350Y002953D01*
X016350Y002795D02*
X016082Y002795D01*
X016094Y002636D02*
X016350Y002636D01*
X016350Y002478D02*
X016050Y002478D01*
X015930Y002319D02*
X016319Y002319D01*
X016161Y002161D02*
X013789Y002161D01*
X013948Y002002D02*
X016002Y002002D01*
X015174Y003270D02*
X014983Y003270D01*
X021350Y003270D02*
X021569Y003270D01*
X021577Y003246D02*
X021611Y003180D01*
X021655Y003119D01*
X021708Y003066D01*
X021715Y003061D01*
X021708Y003055D01*
X021655Y003002D01*
X021611Y002942D01*
X021577Y002875D01*
X021554Y002804D01*
X021542Y002730D01*
X021542Y002710D01*
X022000Y002710D01*
X022000Y003168D01*
X022000Y003411D01*
X022035Y003411D01*
X022035Y002710D01*
X022493Y002710D01*
X022493Y002730D01*
X022481Y002804D01*
X022458Y002875D01*
X022424Y002942D01*
X022380Y003002D01*
X022327Y003055D01*
X022319Y003061D01*
X022327Y003066D01*
X022380Y003119D01*
X022424Y003180D01*
X022458Y003246D01*
X022481Y003317D01*
X022493Y003391D01*
X022493Y003411D01*
X022035Y003411D01*
X022035Y003446D01*
X022493Y003446D01*
X022493Y003466D01*
X022481Y003540D01*
X022458Y003611D01*
X022424Y003678D01*
X022380Y003738D01*
X022327Y003791D01*
X022319Y003797D01*
X022327Y003802D01*
X022380Y003855D01*
X022424Y003916D01*
X022458Y003983D01*
X022481Y004054D01*
X022493Y004128D01*
X022493Y004148D01*
X022035Y004148D01*
X022035Y004182D01*
X022493Y004182D01*
X022493Y004202D01*
X022481Y004276D01*
X022458Y004347D01*
X022424Y004414D01*
X022380Y004475D01*
X022327Y004527D01*
X022319Y004533D01*
X022327Y004539D01*
X022380Y004592D01*
X022424Y004652D01*
X022458Y004719D01*
X022481Y004790D01*
X022493Y004864D01*
X022493Y004884D01*
X022035Y004884D01*
X022035Y004919D01*
X022493Y004919D01*
X022493Y004939D01*
X022481Y005012D01*
X022458Y005084D01*
X022424Y005150D01*
X022380Y005211D01*
X022327Y005264D01*
X022266Y005308D01*
X022200Y005342D01*
X022174Y005350D01*
X022943Y005350D01*
X022918Y005342D01*
X022851Y005308D01*
X022790Y005264D01*
X022737Y005211D01*
X022694Y005150D01*
X022660Y005084D01*
X022636Y005012D01*
X022625Y004939D01*
X022625Y004919D01*
X023083Y004919D01*
X023083Y004884D01*
X023117Y004884D01*
X023117Y004182D01*
X023083Y004182D01*
X023083Y004640D01*
X023083Y004884D01*
X022625Y004884D01*
X022625Y004864D01*
X022636Y004790D01*
X022660Y004719D01*
X022694Y004652D01*
X022737Y004592D01*
X022790Y004539D01*
X022798Y004533D01*
X022790Y004527D01*
X022737Y004475D01*
X022694Y004414D01*
X022660Y004347D01*
X022636Y004276D01*
X022625Y004202D01*
X022625Y004182D01*
X023083Y004182D01*
X023083Y004148D01*
X023117Y004148D01*
X023117Y003446D01*
X023083Y003446D01*
X023083Y003690D01*
X023083Y004148D01*
X022625Y004148D01*
X022625Y004128D01*
X022636Y004054D01*
X022660Y003983D01*
X022694Y003916D01*
X022737Y003855D01*
X022790Y003802D01*
X022798Y003797D01*
X022790Y003791D01*
X022737Y003738D01*
X022694Y003678D01*
X022660Y003611D01*
X022636Y003540D01*
X022625Y003466D01*
X022625Y003446D01*
X023083Y003446D01*
X023083Y003411D01*
X023117Y003411D01*
X023117Y002710D01*
X023083Y002710D01*
X023083Y003168D01*
X023083Y003411D01*
X022625Y003411D01*
X022625Y003391D01*
X022636Y003317D01*
X022660Y003246D01*
X022694Y003180D01*
X022737Y003119D01*
X022790Y003066D01*
X022798Y003061D01*
X022790Y003055D01*
X022737Y003002D01*
X022694Y002942D01*
X022660Y002875D01*
X022636Y002804D01*
X022625Y002730D01*
X022625Y002710D01*
X023083Y002710D01*
X023083Y002675D01*
X023117Y002675D01*
X023117Y002217D01*
X023137Y002217D01*
X023211Y002229D01*
X023282Y002252D01*
X023349Y002286D01*
X023410Y002330D01*
X023463Y002383D01*
X023506Y002443D01*
X023540Y002510D01*
X023564Y002581D01*
X023575Y002655D01*
X023575Y002675D01*
X023117Y002675D01*
X023117Y002710D01*
X023575Y002710D01*
X023575Y002730D01*
X023564Y002804D01*
X023540Y002875D01*
X023506Y002942D01*
X023463Y003002D01*
X023410Y003055D01*
X023402Y003061D01*
X023410Y003066D01*
X023463Y003119D01*
X023506Y003180D01*
X023540Y003246D01*
X023564Y003317D01*
X023575Y003391D01*
X023575Y003411D01*
X023117Y003411D01*
X023117Y003446D01*
X023575Y003446D01*
X023575Y003466D01*
X023564Y003540D01*
X023540Y003611D01*
X023506Y003678D01*
X023463Y003738D01*
X023410Y003791D01*
X023402Y003797D01*
X023410Y003802D01*
X023463Y003855D01*
X023506Y003916D01*
X023540Y003983D01*
X023564Y004054D01*
X023575Y004128D01*
X023575Y004148D01*
X023117Y004148D01*
X023117Y004182D01*
X023575Y004182D01*
X023575Y004202D01*
X023564Y004276D01*
X023540Y004347D01*
X023506Y004414D01*
X023463Y004475D01*
X023410Y004527D01*
X023402Y004533D01*
X023410Y004539D01*
X023463Y004592D01*
X023506Y004652D01*
X023540Y004719D01*
X023564Y004790D01*
X023575Y004864D01*
X023575Y004884D01*
X023117Y004884D01*
X023117Y004919D01*
X023575Y004919D01*
X023575Y004939D01*
X023564Y005012D01*
X023540Y005084D01*
X023506Y005150D01*
X023463Y005211D01*
X023410Y005264D01*
X023349Y005308D01*
X023282Y005342D01*
X023257Y005350D01*
X023350Y005350D01*
X024100Y006100D01*
X024100Y008100D01*
X023600Y008600D01*
X023369Y008600D01*
X023410Y008629D01*
X023463Y008682D01*
X023506Y008743D01*
X023540Y008809D01*
X023564Y008880D01*
X023575Y008954D01*
X023575Y008974D01*
X023117Y008974D01*
X023117Y009009D01*
X023083Y009009D01*
X023083Y009467D01*
X023083Y009711D01*
X022625Y009711D01*
X022625Y009691D01*
X022636Y009617D01*
X022660Y009546D01*
X022694Y009479D01*
X022737Y009418D01*
X022790Y009365D01*
X022798Y009360D01*
X022790Y009354D01*
X022737Y009301D01*
X022694Y009241D01*
X022660Y009174D01*
X022636Y009103D01*
X022625Y009029D01*
X022625Y009009D01*
X023083Y009009D01*
X023083Y008974D01*
X022625Y008974D01*
X022625Y008954D01*
X022636Y008880D01*
X022660Y008809D01*
X022694Y008743D01*
X022737Y008682D01*
X022790Y008629D01*
X022831Y008600D01*
X022287Y008600D01*
X022327Y008629D01*
X022380Y008682D01*
X022424Y008743D01*
X022458Y008809D01*
X022481Y008880D01*
X022493Y008954D01*
X022493Y008974D01*
X022035Y008974D01*
X022035Y009009D01*
X022493Y009009D01*
X022493Y009029D01*
X022481Y009103D01*
X022458Y009174D01*
X022424Y009241D01*
X022380Y009301D01*
X022327Y009354D01*
X022319Y009360D01*
X022327Y009365D01*
X022380Y009418D01*
X022424Y009479D01*
X022458Y009546D01*
X022481Y009617D01*
X022493Y009691D01*
X022493Y009711D01*
X022035Y009711D01*
X022035Y009745D01*
X022493Y009745D01*
X022493Y009765D01*
X022481Y009839D01*
X022458Y009910D01*
X022424Y009977D01*
X022380Y010038D01*
X022327Y010090D01*
X022319Y010096D01*
X022327Y010102D01*
X022380Y010155D01*
X022424Y010215D01*
X022458Y010282D01*
X022481Y010353D01*
X022493Y010427D01*
X022493Y010447D01*
X022035Y010447D01*
X022035Y010482D01*
X022000Y010482D01*
X022000Y010725D01*
X022000Y011183D01*
X022035Y011183D01*
X022035Y011218D01*
X022493Y011218D01*
X022493Y011238D01*
X022481Y011312D01*
X022458Y011383D01*
X022424Y011449D01*
X022380Y011510D01*
X022327Y011563D01*
X022276Y011600D01*
X022841Y011600D01*
X022790Y011563D01*
X022737Y011510D01*
X022694Y011449D01*
X022660Y011383D01*
X022636Y011312D01*
X022625Y011238D01*
X022625Y011218D01*
X023083Y011218D01*
X023083Y011183D01*
X023117Y011183D01*
X023117Y010482D01*
X023083Y010482D01*
X023083Y010939D01*
X023083Y011183D01*
X022625Y011183D01*
X022625Y011163D01*
X022636Y011089D01*
X022660Y011018D01*
X022694Y010951D01*
X022737Y010891D01*
X022790Y010838D01*
X022798Y010832D01*
X022790Y010827D01*
X022737Y010774D01*
X022694Y010713D01*
X022660Y010647D01*
X022636Y010575D01*
X022625Y010502D01*
X022625Y010482D01*
X023083Y010482D01*
X023083Y010447D01*
X023117Y010447D01*
X023117Y009745D01*
X023083Y009745D01*
X023083Y010203D01*
X023083Y010447D01*
X022625Y010447D01*
X022625Y010427D01*
X022636Y010353D01*
X022660Y010282D01*
X022694Y010215D01*
X022737Y010155D01*
X022790Y010102D01*
X022798Y010096D01*
X022790Y010090D01*
X022737Y010038D01*
X022694Y009977D01*
X022660Y009910D01*
X022636Y009839D01*
X022625Y009765D01*
X022625Y009745D01*
X023083Y009745D01*
X023083Y009711D01*
X023117Y009711D01*
X023117Y009009D01*
X023575Y009009D01*
X023575Y009029D01*
X023564Y009103D01*
X023540Y009174D01*
X023506Y009241D01*
X023463Y009301D01*
X023410Y009354D01*
X023402Y009360D01*
X023410Y009365D01*
X023463Y009418D01*
X023506Y009479D01*
X023540Y009546D01*
X023564Y009617D01*
X023575Y009691D01*
X023575Y009711D01*
X023117Y009711D01*
X023117Y009745D01*
X023575Y009745D01*
X023575Y009765D01*
X023564Y009839D01*
X023540Y009910D01*
X023506Y009977D01*
X023463Y010038D01*
X023410Y010090D01*
X023402Y010096D01*
X023410Y010102D01*
X023463Y010155D01*
X023506Y010215D01*
X023540Y010282D01*
X023564Y010353D01*
X023575Y010427D01*
X023575Y010447D01*
X023117Y010447D01*
X023117Y010482D01*
X023575Y010482D01*
X023575Y010502D01*
X023564Y010575D01*
X023540Y010647D01*
X023506Y010713D01*
X023463Y010774D01*
X023410Y010827D01*
X023402Y010832D01*
X023410Y010838D01*
X023463Y010891D01*
X023506Y010951D01*
X023540Y011018D01*
X023564Y011089D01*
X023575Y011163D01*
X023575Y011183D01*
X023117Y011183D01*
X023117Y011218D01*
X023575Y011218D01*
X023575Y011238D01*
X023564Y011312D01*
X023540Y011383D01*
X023506Y011449D01*
X023463Y011510D01*
X023410Y011563D01*
X023359Y011600D01*
X024100Y011600D01*
X025600Y010350D01*
X026125Y008775D01*
X026125Y008653D01*
X026186Y008592D01*
X026300Y008250D01*
X026105Y008055D01*
X026105Y007850D01*
X026600Y007850D01*
X027095Y007850D01*
X027095Y008055D01*
X027050Y008100D01*
X035600Y008100D01*
X036100Y007600D01*
X036100Y004850D01*
X035600Y004100D01*
X027350Y004100D01*
X026600Y003600D01*
X026100Y003350D01*
X025100Y002350D01*
X024100Y001850D01*
X021850Y001850D01*
X021350Y002350D01*
X021350Y005100D01*
X021600Y005350D01*
X021861Y005350D01*
X021835Y005342D01*
X021768Y005308D01*
X021708Y005264D01*
X021655Y005211D01*
X021611Y005150D01*
X021577Y005084D01*
X021554Y005012D01*
X021542Y004939D01*
X021542Y004919D01*
X022000Y004919D01*
X022000Y004884D01*
X021542Y004884D01*
X021542Y004864D01*
X021554Y004790D01*
X021577Y004719D01*
X021611Y004652D01*
X021655Y004592D01*
X021708Y004539D01*
X021715Y004533D01*
X021708Y004527D01*
X021655Y004475D01*
X021611Y004414D01*
X021577Y004347D01*
X021554Y004276D01*
X021542Y004202D01*
X021542Y004182D01*
X022000Y004182D01*
X022000Y004148D01*
X021542Y004148D01*
X021542Y004128D01*
X021554Y004054D01*
X021577Y003983D01*
X021611Y003916D01*
X021655Y003855D01*
X021708Y003802D01*
X021715Y003797D01*
X021708Y003791D01*
X021655Y003738D01*
X021611Y003678D01*
X021577Y003611D01*
X021554Y003540D01*
X021542Y003466D01*
X021542Y003446D01*
X022000Y003446D01*
X022000Y003411D01*
X021542Y003411D01*
X021542Y003391D01*
X021554Y003317D01*
X021577Y003246D01*
X021662Y003112D02*
X021350Y003112D01*
X021350Y002953D02*
X021619Y002953D01*
X021552Y002795D02*
X021350Y002795D01*
X021350Y002636D02*
X021545Y002636D01*
X021542Y002655D02*
X021554Y002581D01*
X021577Y002510D01*
X021611Y002443D01*
X021655Y002383D01*
X021708Y002330D01*
X021768Y002286D01*
X021835Y002252D01*
X021906Y002229D01*
X021980Y002217D01*
X022000Y002217D01*
X022000Y002675D01*
X022035Y002675D01*
X022035Y002710D01*
X022000Y002710D01*
X022000Y002675D01*
X021542Y002675D01*
X021542Y002655D01*
X021593Y002478D02*
X021350Y002478D01*
X021381Y002319D02*
X021723Y002319D01*
X021539Y002161D02*
X024721Y002161D01*
X025038Y002319D02*
X023394Y002319D01*
X023524Y002478D02*
X025228Y002478D01*
X025386Y002636D02*
X023572Y002636D01*
X023565Y002795D02*
X025545Y002795D01*
X025703Y002953D02*
X023498Y002953D01*
X023455Y003112D02*
X025862Y003112D01*
X026020Y003270D02*
X023548Y003270D01*
X023117Y003270D02*
X023083Y003270D01*
X023083Y003112D02*
X023117Y003112D01*
X023117Y002953D02*
X023083Y002953D01*
X023083Y002795D02*
X023117Y002795D01*
X023083Y002675D02*
X022625Y002675D01*
X022625Y002655D01*
X022636Y002581D01*
X022660Y002510D01*
X022694Y002443D01*
X022737Y002383D01*
X022790Y002330D01*
X022851Y002286D01*
X022918Y002252D01*
X022989Y002229D01*
X023063Y002217D01*
X023083Y002217D01*
X023083Y002675D01*
X023083Y002636D02*
X023117Y002636D01*
X023117Y002478D02*
X023083Y002478D01*
X023083Y002319D02*
X023117Y002319D01*
X022806Y002319D02*
X022312Y002319D01*
X022327Y002330D02*
X022380Y002383D01*
X022424Y002443D01*
X022458Y002510D01*
X022481Y002581D01*
X022493Y002655D01*
X022493Y002675D01*
X022035Y002675D01*
X022035Y002217D01*
X022055Y002217D01*
X022129Y002229D01*
X022200Y002252D01*
X022266Y002286D01*
X022327Y002330D01*
X022441Y002478D02*
X022676Y002478D01*
X022628Y002636D02*
X022490Y002636D01*
X022482Y002795D02*
X022635Y002795D01*
X022702Y002953D02*
X022416Y002953D01*
X022372Y003112D02*
X022745Y003112D01*
X022652Y003270D02*
X022465Y003270D01*
X022035Y003270D02*
X022000Y003270D01*
X022000Y003112D02*
X022035Y003112D01*
X022035Y002953D02*
X022000Y002953D01*
X022000Y002795D02*
X022035Y002795D01*
X022035Y002636D02*
X022000Y002636D01*
X022000Y002478D02*
X022035Y002478D01*
X022035Y002319D02*
X022000Y002319D01*
X021698Y002002D02*
X024404Y002002D01*
X023117Y003429D02*
X026257Y003429D01*
X026574Y003587D02*
X023548Y003587D01*
X023455Y003746D02*
X026818Y003746D01*
X027056Y003904D02*
X023498Y003904D01*
X023565Y004063D02*
X027294Y004063D01*
X023572Y004221D02*
X035681Y004221D01*
X035786Y004380D02*
X023524Y004380D01*
X023409Y004538D02*
X035892Y004538D01*
X035998Y004697D02*
X023529Y004697D01*
X023574Y004855D02*
X036100Y004855D01*
X036100Y005014D02*
X023563Y005014D01*
X023491Y005172D02*
X036100Y005172D01*
X036100Y005331D02*
X023304Y005331D01*
X023489Y005489D02*
X036100Y005489D01*
X036100Y005648D02*
X023648Y005648D01*
X023806Y005806D02*
X036100Y005806D01*
X036100Y005965D02*
X023965Y005965D01*
X024100Y006123D02*
X036100Y006123D01*
X036100Y006282D02*
X024100Y006282D01*
X024100Y006440D02*
X036100Y006440D01*
X036100Y006599D02*
X024100Y006599D01*
X024100Y006757D02*
X034714Y006757D01*
X034704Y006763D02*
X034785Y006716D01*
X034871Y006681D01*
X034961Y006657D01*
X035020Y006649D01*
X035020Y007276D01*
X034393Y007276D01*
X034401Y007217D01*
X034425Y007127D01*
X034461Y007041D01*
X034507Y006960D01*
X034564Y006886D01*
X034630Y006820D01*
X034704Y006763D01*
X034541Y006916D02*
X024100Y006916D01*
X024100Y007074D02*
X034447Y007074D01*
X034399Y007233D02*
X024100Y007233D01*
X024100Y007391D02*
X026359Y007391D01*
X026395Y007355D02*
X026105Y007645D01*
X026105Y007850D01*
X026600Y007850D01*
X026600Y007850D01*
X026600Y007850D01*
X027095Y007850D01*
X027095Y007645D01*
X026805Y007355D01*
X026600Y007355D01*
X026600Y007850D01*
X026600Y007850D01*
X026600Y007355D01*
X026395Y007355D01*
X026600Y007391D02*
X026600Y007391D01*
X026600Y007550D02*
X026600Y007550D01*
X026600Y007708D02*
X026600Y007708D01*
X027000Y007550D02*
X034415Y007550D01*
X034425Y007585D02*
X034401Y007495D01*
X034393Y007436D01*
X035020Y007436D01*
X035020Y008063D01*
X034961Y008055D01*
X034871Y008031D01*
X034785Y007995D01*
X034704Y007949D01*
X034630Y007892D01*
X034564Y007826D01*
X034507Y007752D01*
X034461Y007671D01*
X034425Y007585D01*
X034482Y007708D02*
X027095Y007708D01*
X027095Y007867D02*
X034604Y007867D01*
X034856Y008025D02*
X027095Y008025D01*
X026233Y008184D02*
X024016Y008184D01*
X024100Y008025D02*
X026105Y008025D01*
X026105Y007867D02*
X024100Y007867D01*
X024100Y007708D02*
X026105Y007708D01*
X026200Y007550D02*
X024100Y007550D01*
X023858Y008342D02*
X026269Y008342D01*
X026216Y008501D02*
X023699Y008501D01*
X023439Y008659D02*
X026125Y008659D01*
X026111Y008818D02*
X023543Y008818D01*
X023117Y008976D02*
X026058Y008976D01*
X026005Y009135D02*
X023553Y009135D01*
X023469Y009293D02*
X025952Y009293D01*
X025899Y009452D02*
X023487Y009452D01*
X023561Y009610D02*
X025847Y009610D01*
X025794Y009769D02*
X023575Y009769D01*
X023532Y009927D02*
X025741Y009927D01*
X025688Y010086D02*
X023415Y010086D01*
X023521Y010244D02*
X025635Y010244D01*
X025537Y010403D02*
X023571Y010403D01*
X023566Y010561D02*
X025347Y010561D01*
X025157Y010720D02*
X023502Y010720D01*
X023450Y010878D02*
X024966Y010878D01*
X024776Y011037D02*
X023546Y011037D01*
X023550Y011354D02*
X024396Y011354D01*
X024206Y011512D02*
X023461Y011512D01*
X023117Y011195D02*
X024586Y011195D01*
X023117Y011037D02*
X023083Y011037D01*
X023083Y011195D02*
X022035Y011195D01*
X022035Y011183D02*
X022493Y011183D01*
X022493Y011163D01*
X022481Y011089D01*
X022458Y011018D01*
X022424Y010951D01*
X022380Y010891D01*
X022327Y010838D01*
X022319Y010832D01*
X022327Y010827D01*
X022380Y010774D01*
X022424Y010713D01*
X022458Y010647D01*
X022481Y010575D01*
X022493Y010502D01*
X022493Y010482D01*
X022035Y010482D01*
X022035Y011183D01*
X022000Y011183D02*
X021542Y011183D01*
X021542Y011163D01*
X021554Y011089D01*
X021577Y011018D01*
X021611Y010951D01*
X021655Y010891D01*
X021708Y010838D01*
X021715Y010832D01*
X021708Y010827D01*
X021655Y010774D01*
X021611Y010713D01*
X021577Y010647D01*
X021554Y010575D01*
X021542Y010502D01*
X021542Y010482D01*
X022000Y010482D01*
X022000Y010447D01*
X021542Y010447D01*
X021542Y010427D01*
X021554Y010353D01*
X021577Y010282D01*
X021611Y010215D01*
X021655Y010155D01*
X021708Y010102D01*
X021715Y010096D01*
X021708Y010090D01*
X021655Y010038D01*
X021611Y009977D01*
X021577Y009910D01*
X021554Y009839D01*
X021542Y009765D01*
X021542Y009745D01*
X022000Y009745D01*
X022000Y009711D01*
X021542Y009711D01*
X021542Y009691D01*
X021554Y009617D01*
X021577Y009546D01*
X021611Y009479D01*
X021655Y009418D01*
X021708Y009365D01*
X021715Y009360D01*
X021708Y009354D01*
X021655Y009301D01*
X021611Y009241D01*
X021577Y009174D01*
X021554Y009103D01*
X021542Y009029D01*
X021542Y009009D01*
X022000Y009009D01*
X022000Y008974D01*
X021542Y008974D01*
X021542Y008954D01*
X021554Y008880D01*
X021577Y008809D01*
X021611Y008743D01*
X021655Y008682D01*
X021708Y008629D01*
X021748Y008600D01*
X021350Y008600D01*
X021100Y008850D01*
X021100Y011350D01*
X021350Y011600D01*
X021759Y011600D01*
X021708Y011563D01*
X021655Y011510D01*
X021611Y011449D01*
X021577Y011383D01*
X021554Y011312D01*
X021542Y011238D01*
X021542Y011218D01*
X022000Y011218D01*
X022000Y011183D01*
X022000Y011195D02*
X021100Y011195D01*
X021100Y011037D02*
X021571Y011037D01*
X021668Y010878D02*
X021100Y010878D01*
X021100Y010720D02*
X021615Y010720D01*
X021551Y010561D02*
X021100Y010561D01*
X021100Y010403D02*
X021546Y010403D01*
X021596Y010244D02*
X021100Y010244D01*
X021100Y010086D02*
X021703Y010086D01*
X021585Y009927D02*
X021100Y009927D01*
X021100Y009769D02*
X021543Y009769D01*
X021556Y009610D02*
X021100Y009610D01*
X021100Y009452D02*
X021631Y009452D01*
X021649Y009293D02*
X021100Y009293D01*
X021100Y009135D02*
X021564Y009135D01*
X022000Y009135D02*
X022035Y009135D01*
X022035Y009009D02*
X022000Y009009D01*
X022000Y009467D01*
X022000Y009711D01*
X022035Y009711D01*
X022035Y009009D01*
X022035Y008976D02*
X023083Y008976D01*
X023083Y009135D02*
X023117Y009135D01*
X023117Y009293D02*
X023083Y009293D01*
X023083Y009452D02*
X023117Y009452D01*
X023117Y009610D02*
X023083Y009610D01*
X023083Y009769D02*
X023117Y009769D01*
X023117Y009927D02*
X023083Y009927D01*
X023083Y010086D02*
X023117Y010086D01*
X023117Y010244D02*
X023083Y010244D01*
X023083Y010403D02*
X023117Y010403D01*
X023117Y010561D02*
X023083Y010561D01*
X023083Y010720D02*
X023117Y010720D01*
X023117Y010878D02*
X023083Y010878D01*
X022750Y010878D02*
X022367Y010878D01*
X022419Y010720D02*
X022698Y010720D01*
X022634Y010561D02*
X022483Y010561D01*
X022489Y010403D02*
X022629Y010403D01*
X022679Y010244D02*
X022439Y010244D01*
X022332Y010086D02*
X022785Y010086D01*
X022668Y009927D02*
X022449Y009927D01*
X022492Y009769D02*
X022625Y009769D01*
X022639Y009610D02*
X022479Y009610D01*
X022404Y009452D02*
X022713Y009452D01*
X022731Y009293D02*
X022386Y009293D01*
X022471Y009135D02*
X022647Y009135D01*
X022657Y008818D02*
X022460Y008818D01*
X022357Y008659D02*
X022761Y008659D01*
X022000Y008976D02*
X021100Y008976D01*
X021132Y008818D02*
X021574Y008818D01*
X021678Y008659D02*
X021291Y008659D01*
X022000Y009293D02*
X022035Y009293D01*
X022035Y009452D02*
X022000Y009452D01*
X022000Y009610D02*
X022035Y009610D01*
X022035Y009745D02*
X022000Y009745D01*
X022000Y010203D01*
X022000Y010447D01*
X022035Y010447D01*
X022035Y009745D01*
X022035Y009769D02*
X022000Y009769D01*
X022000Y009927D02*
X022035Y009927D01*
X022035Y010086D02*
X022000Y010086D01*
X022000Y010244D02*
X022035Y010244D01*
X022035Y010403D02*
X022000Y010403D01*
X022000Y010561D02*
X022035Y010561D01*
X022035Y010720D02*
X022000Y010720D01*
X022000Y010878D02*
X022035Y010878D01*
X022035Y011037D02*
X022000Y011037D01*
X022464Y011037D02*
X022654Y011037D01*
X022650Y011354D02*
X022467Y011354D01*
X022378Y011512D02*
X022739Y011512D01*
X021657Y011512D02*
X021262Y011512D01*
X021104Y011354D02*
X021567Y011354D01*
X016600Y011354D02*
X016062Y011354D01*
X016060Y011349D02*
X016083Y011420D01*
X016095Y011494D01*
X016095Y011514D01*
X015637Y011514D01*
X015637Y011549D01*
X015602Y011549D01*
X015602Y012006D01*
X015602Y012218D01*
X015637Y012218D01*
X015637Y011549D01*
X016095Y011549D01*
X016095Y011569D01*
X016083Y011642D01*
X016060Y011714D01*
X016026Y011780D01*
X015982Y011841D01*
X015939Y011883D01*
X015982Y011926D01*
X016026Y011987D01*
X016060Y012053D01*
X016083Y012125D01*
X016095Y012198D01*
X016095Y012218D01*
X015637Y012218D01*
X015637Y012253D01*
X016095Y012253D01*
X016095Y012273D01*
X016083Y012347D01*
X016060Y012418D01*
X016026Y012485D01*
X015982Y012545D01*
X015939Y012588D01*
X015982Y012631D01*
X016026Y012691D01*
X016060Y012758D01*
X016083Y012829D01*
X016095Y012903D01*
X016095Y012923D01*
X015637Y012923D01*
X015637Y012253D01*
X015602Y012253D01*
X015602Y012218D01*
X015144Y012218D01*
X015144Y012198D01*
X015156Y012125D01*
X015179Y012053D01*
X015213Y011987D01*
X015257Y011926D01*
X015300Y011883D01*
X015257Y011841D01*
X015213Y011780D01*
X015179Y011714D01*
X015156Y011642D01*
X015144Y011569D01*
X015144Y011549D01*
X015602Y011549D01*
X015602Y011514D01*
X015144Y011514D01*
X015144Y011494D01*
X015156Y011420D01*
X015179Y011349D01*
X015213Y011282D01*
X015257Y011221D01*
X015310Y011169D01*
X015371Y011125D01*
X015437Y011091D01*
X015508Y011068D01*
X015582Y011056D01*
X015602Y011056D01*
X015602Y011514D01*
X015637Y011514D01*
X015637Y011056D01*
X015657Y011056D01*
X015731Y011068D01*
X015802Y011091D01*
X015869Y011125D01*
X015929Y011169D01*
X015982Y011221D01*
X016026Y011282D01*
X016060Y011349D01*
X016095Y011512D02*
X016600Y011512D01*
X016600Y011671D02*
X016074Y011671D01*
X015991Y011829D02*
X016600Y011829D01*
X016600Y011988D02*
X016027Y011988D01*
X016087Y012146D02*
X016600Y012146D01*
X016600Y012305D02*
X016090Y012305D01*
X016037Y012463D02*
X016600Y012463D01*
X016600Y012622D02*
X015973Y012622D01*
X016067Y012780D02*
X016600Y012780D01*
X016600Y012939D02*
X015637Y012939D01*
X015637Y012923D02*
X015637Y012958D01*
X015602Y012958D01*
X015602Y012923D01*
X015144Y012923D01*
X015144Y012903D01*
X015156Y012829D01*
X015179Y012758D01*
X015213Y012691D01*
X015257Y012631D01*
X015300Y012588D01*
X015257Y012545D01*
X015213Y012485D01*
X015179Y012418D01*
X015156Y012347D01*
X015144Y012273D01*
X015144Y012253D01*
X015602Y012253D01*
X015602Y012465D01*
X015602Y012923D01*
X015637Y012923D01*
X015637Y012958D02*
X016095Y012958D01*
X016095Y012978D01*
X016083Y013052D01*
X016060Y013123D01*
X016026Y013190D01*
X015982Y013250D01*
X015939Y013293D01*
X015982Y013336D01*
X016026Y013396D01*
X016060Y013463D01*
X016083Y013534D01*
X016095Y013608D01*
X016095Y013628D01*
X015637Y013628D01*
X015637Y013663D01*
X015602Y013663D01*
X015602Y014333D01*
X015144Y014333D01*
X015144Y014313D01*
X015156Y014239D01*
X015179Y014168D01*
X015213Y014101D01*
X015257Y014040D01*
X015300Y013998D01*
X015257Y013955D01*
X015213Y013894D01*
X015179Y013828D01*
X015156Y013757D01*
X015144Y013683D01*
X015144Y013663D01*
X015602Y013663D01*
X015602Y013628D01*
X015144Y013628D01*
X015144Y013608D01*
X015156Y013534D01*
X015179Y013463D01*
X015213Y013396D01*
X015257Y013336D01*
X015300Y013293D01*
X015257Y013250D01*
X015213Y013190D01*
X015179Y013123D01*
X015156Y013052D01*
X015144Y012978D01*
X015144Y012958D01*
X015602Y012958D01*
X015602Y013416D01*
X015602Y013628D01*
X015637Y013628D01*
X015637Y012958D01*
X015602Y012939D02*
X014554Y012939D01*
X014554Y012923D02*
X014554Y012958D01*
X014520Y012958D01*
X014520Y013416D01*
X014520Y013628D01*
X014554Y013628D01*
X014554Y012958D01*
X015012Y012958D01*
X015012Y012978D01*
X015001Y013052D01*
X014977Y013123D01*
X014943Y013190D01*
X014900Y013250D01*
X014857Y013293D01*
X014900Y013336D01*
X014943Y013396D01*
X014977Y013463D01*
X015001Y013534D01*
X015012Y013608D01*
X015012Y013628D01*
X014554Y013628D01*
X014554Y013663D01*
X014520Y013663D01*
X014520Y014121D01*
X014520Y014333D01*
X014062Y014333D01*
X014062Y014313D01*
X014073Y014239D01*
X014097Y014168D01*
X014131Y014101D01*
X014174Y014040D01*
X014217Y013998D01*
X014174Y013955D01*
X014131Y013894D01*
X014097Y013828D01*
X014073Y013757D01*
X014062Y013683D01*
X014062Y013663D01*
X014520Y013663D01*
X014520Y013628D01*
X014062Y013628D01*
X014062Y013608D01*
X014073Y013534D01*
X014097Y013463D01*
X014131Y013396D01*
X014174Y013336D01*
X014217Y013293D01*
X014174Y013250D01*
X014131Y013190D01*
X014097Y013123D01*
X014073Y013052D01*
X014062Y012978D01*
X014062Y012958D01*
X014520Y012958D01*
X014520Y012923D01*
X014554Y012923D01*
X014554Y012253D01*
X014520Y012253D01*
X014520Y012711D01*
X014520Y012923D01*
X014062Y012923D01*
X014062Y012903D01*
X014073Y012829D01*
X014097Y012758D01*
X014131Y012691D01*
X014174Y012631D01*
X014217Y012588D01*
X014174Y012545D01*
X014131Y012485D01*
X014097Y012418D01*
X014073Y012347D01*
X014062Y012273D01*
X014062Y012253D01*
X014520Y012253D01*
X014520Y012218D01*
X014554Y012218D01*
X014554Y011549D01*
X014520Y011549D01*
X014520Y012006D01*
X014520Y012218D01*
X014062Y012218D01*
X014062Y012198D01*
X014073Y012125D01*
X014097Y012053D01*
X014131Y011987D01*
X014174Y011926D01*
X014217Y011883D01*
X014174Y011841D01*
X014131Y011780D01*
X014097Y011714D01*
X014073Y011642D01*
X014062Y011569D01*
X014062Y011549D01*
X014520Y011549D01*
X014520Y011514D01*
X014554Y011514D01*
X014554Y011056D01*
X014574Y011056D01*
X014648Y011068D01*
X014719Y011091D01*
X014786Y011125D01*
X014847Y011169D01*
X014900Y011221D01*
X014943Y011282D01*
X014977Y011349D01*
X015001Y011420D01*
X015012Y011494D01*
X015012Y011514D01*
X014554Y011514D01*
X014554Y011549D01*
X015012Y011549D01*
X015012Y011569D01*
X015001Y011642D01*
X014977Y011714D01*
X014943Y011780D01*
X014900Y011841D01*
X014857Y011883D01*
X014900Y011926D01*
X014943Y011987D01*
X014977Y012053D01*
X015001Y012125D01*
X015012Y012198D01*
X015012Y012218D01*
X014554Y012218D01*
X014554Y012253D01*
X015012Y012253D01*
X015012Y012273D01*
X015001Y012347D01*
X014977Y012418D01*
X014943Y012485D01*
X014900Y012545D01*
X014857Y012588D01*
X014900Y012631D01*
X014943Y012691D01*
X014977Y012758D01*
X015001Y012829D01*
X015012Y012903D01*
X015012Y012923D01*
X014554Y012923D01*
X014520Y012939D02*
X012305Y012939D01*
X012447Y013097D02*
X014088Y013097D01*
X014180Y013256D02*
X012590Y013256D01*
X012733Y013414D02*
X014121Y013414D01*
X014067Y013573D02*
X012875Y013573D01*
X013018Y013731D02*
X014069Y013731D01*
X014128Y013890D02*
X013161Y013890D01*
X013303Y014048D02*
X014169Y014048D01*
X014084Y014207D02*
X013350Y014207D01*
X013365Y014365D02*
X014520Y014365D01*
X014520Y014367D02*
X014520Y014333D01*
X014554Y014333D01*
X014554Y014367D01*
X014520Y014367D01*
X014062Y014367D01*
X014062Y014387D01*
X014073Y014461D01*
X014097Y014532D01*
X014131Y014599D01*
X014174Y014660D01*
X014227Y014713D01*
X014288Y014756D01*
X014355Y014790D01*
X014426Y014814D01*
X014500Y014825D01*
X014520Y014825D01*
X014520Y014367D01*
X014554Y014367D02*
X014554Y014825D01*
X014574Y014825D01*
X014648Y014814D01*
X014719Y014790D01*
X014786Y014756D01*
X014847Y014713D01*
X014900Y014660D01*
X014943Y014599D01*
X014977Y014532D01*
X015001Y014461D01*
X015012Y014387D01*
X015012Y014367D01*
X014554Y014367D01*
X014554Y014365D02*
X015602Y014365D01*
X015602Y014367D02*
X015602Y014333D01*
X015637Y014333D01*
X015637Y014367D01*
X016095Y014367D01*
X016095Y014387D01*
X016083Y014461D01*
X016060Y014532D01*
X016026Y014599D01*
X015982Y014660D01*
X015929Y014713D01*
X015869Y014756D01*
X015802Y014790D01*
X015731Y014814D01*
X015657Y014825D01*
X015637Y014825D01*
X015637Y014367D01*
X015602Y014367D01*
X015144Y014367D01*
X015144Y014387D01*
X015156Y014461D01*
X015179Y014532D01*
X015213Y014599D01*
X015257Y014660D01*
X015310Y014713D01*
X015371Y014756D01*
X015437Y014790D01*
X015508Y014814D01*
X015582Y014825D01*
X015602Y014825D01*
X015602Y014367D01*
X015637Y014365D02*
X016600Y014365D01*
X016600Y014207D02*
X016073Y014207D01*
X016083Y014239D02*
X016060Y014168D01*
X016026Y014101D01*
X015982Y014040D01*
X015939Y013998D01*
X015982Y013955D01*
X016026Y013894D01*
X016060Y013828D01*
X016083Y013757D01*
X016095Y013683D01*
X016095Y013663D01*
X015637Y013663D01*
X015637Y014121D01*
X015637Y014333D01*
X016095Y014333D01*
X016095Y014313D01*
X016083Y014239D01*
X015988Y014048D02*
X016600Y014048D01*
X016600Y013890D02*
X016029Y013890D01*
X016087Y013731D02*
X016600Y013731D01*
X016600Y013573D02*
X016089Y013573D01*
X016035Y013414D02*
X016600Y013414D01*
X016600Y013256D02*
X015977Y013256D01*
X016069Y013097D02*
X016600Y013097D01*
X015637Y013097D02*
X015602Y013097D01*
X015602Y013256D02*
X015637Y013256D01*
X015637Y013414D02*
X015602Y013414D01*
X015602Y013573D02*
X015637Y013573D01*
X015637Y013731D02*
X015602Y013731D01*
X015602Y013890D02*
X015637Y013890D01*
X015637Y014048D02*
X015602Y014048D01*
X015602Y014207D02*
X015637Y014207D01*
X015637Y014524D02*
X015602Y014524D01*
X015602Y014682D02*
X015637Y014682D01*
X015960Y014682D02*
X016518Y014682D01*
X016600Y014524D02*
X016063Y014524D01*
X015280Y014682D02*
X014877Y014682D01*
X014980Y014524D02*
X015176Y014524D01*
X015012Y014333D02*
X014554Y014333D01*
X014554Y013663D01*
X015012Y013663D01*
X015012Y013683D01*
X015001Y013757D01*
X014977Y013828D01*
X014943Y013894D01*
X014900Y013955D01*
X014857Y013998D01*
X014900Y014040D01*
X014943Y014101D01*
X014977Y014168D01*
X015001Y014239D01*
X015012Y014313D01*
X015012Y014333D01*
X014990Y014207D02*
X015167Y014207D01*
X015252Y014048D02*
X014905Y014048D01*
X014946Y013890D02*
X015211Y013890D01*
X015152Y013731D02*
X015005Y013731D01*
X015007Y013573D02*
X015150Y013573D01*
X015204Y013414D02*
X014953Y013414D01*
X014894Y013256D02*
X015263Y013256D01*
X015171Y013097D02*
X014986Y013097D01*
X014554Y013097D02*
X014520Y013097D01*
X014520Y013256D02*
X014554Y013256D01*
X014554Y013414D02*
X014520Y013414D01*
X014520Y013573D02*
X014554Y013573D01*
X014554Y013731D02*
X014520Y013731D01*
X014520Y013890D02*
X014554Y013890D01*
X014554Y014048D02*
X014520Y014048D01*
X014520Y014207D02*
X014554Y014207D01*
X014554Y014524D02*
X014520Y014524D01*
X014520Y014682D02*
X014554Y014682D01*
X014197Y014682D02*
X013682Y014682D01*
X013524Y014524D02*
X014094Y014524D01*
X013841Y014841D02*
X016359Y014841D01*
X016201Y014999D02*
X013999Y014999D01*
X014089Y012780D02*
X012162Y012780D01*
X012019Y012622D02*
X014184Y012622D01*
X014119Y012463D02*
X011877Y012463D01*
X011734Y012305D02*
X014067Y012305D01*
X014070Y012146D02*
X011591Y012146D01*
X011449Y011988D02*
X014130Y011988D01*
X014166Y011829D02*
X011306Y011829D01*
X011163Y011671D02*
X014083Y011671D01*
X014062Y011514D02*
X014062Y011494D01*
X014073Y011420D01*
X014097Y011349D01*
X014131Y011282D01*
X014174Y011221D01*
X014227Y011169D01*
X014288Y011125D01*
X014355Y011091D01*
X014426Y011068D01*
X014500Y011056D01*
X014520Y011056D01*
X014520Y011514D01*
X014062Y011514D01*
X014062Y011512D02*
X005512Y011512D01*
X005354Y011354D02*
X014095Y011354D01*
X014201Y011195D02*
X005195Y011195D01*
X005037Y011037D02*
X016287Y011037D01*
X016445Y011195D02*
X015956Y011195D01*
X015637Y011195D02*
X015602Y011195D01*
X015602Y011354D02*
X015637Y011354D01*
X015637Y011512D02*
X015602Y011512D01*
X015602Y011671D02*
X015637Y011671D01*
X015637Y011829D02*
X015602Y011829D01*
X015602Y011988D02*
X015637Y011988D01*
X015637Y012146D02*
X015602Y012146D01*
X015602Y012305D02*
X015637Y012305D01*
X015637Y012463D02*
X015602Y012463D01*
X015602Y012622D02*
X015637Y012622D01*
X015637Y012780D02*
X015602Y012780D01*
X015267Y012622D02*
X014890Y012622D01*
X014955Y012463D02*
X015202Y012463D01*
X015149Y012305D02*
X015007Y012305D01*
X015004Y012146D02*
X015153Y012146D01*
X015213Y011988D02*
X014944Y011988D01*
X014908Y011829D02*
X015249Y011829D01*
X015165Y011671D02*
X014991Y011671D01*
X015012Y011512D02*
X015144Y011512D01*
X015178Y011354D02*
X014979Y011354D01*
X014873Y011195D02*
X015284Y011195D01*
X014554Y011195D02*
X014520Y011195D01*
X014520Y011354D02*
X014554Y011354D01*
X014554Y011512D02*
X014520Y011512D01*
X014520Y011671D02*
X014554Y011671D01*
X014554Y011829D02*
X014520Y011829D01*
X014520Y011988D02*
X014554Y011988D01*
X014554Y012146D02*
X014520Y012146D01*
X014520Y012305D02*
X014554Y012305D01*
X014554Y012463D02*
X014520Y012463D01*
X014520Y012622D02*
X014554Y012622D01*
X014554Y012780D02*
X014520Y012780D01*
X014985Y012780D02*
X015172Y012780D01*
X006749Y009452D02*
X006047Y009452D01*
X005993Y009293D02*
X006799Y009293D01*
X006891Y009135D02*
X005890Y009135D01*
X005692Y008976D02*
X007023Y008976D01*
X005430Y009769D02*
X005270Y009769D01*
X005270Y009927D02*
X005430Y009927D01*
X005430Y010086D02*
X005270Y010086D01*
X005270Y010244D02*
X005430Y010244D01*
X005046Y010244D02*
X004244Y010244D01*
X004100Y010086D02*
X004829Y010086D01*
X004717Y009927D02*
X004100Y009927D01*
X004100Y009769D02*
X004659Y009769D01*
X004854Y007867D02*
X004100Y007867D01*
X004100Y007708D02*
X004732Y007708D01*
X004665Y007550D02*
X004100Y007550D01*
X005270Y007550D02*
X005430Y007550D01*
X005430Y007708D02*
X005270Y007708D01*
X005270Y007867D02*
X005430Y007867D01*
X021350Y005014D02*
X021554Y005014D01*
X021543Y004855D02*
X021350Y004855D01*
X021350Y004697D02*
X021588Y004697D01*
X021709Y004538D02*
X021350Y004538D01*
X021350Y004380D02*
X021593Y004380D01*
X021545Y004221D02*
X021350Y004221D01*
X021350Y004063D02*
X021552Y004063D01*
X021619Y003904D02*
X021350Y003904D01*
X021350Y003746D02*
X021662Y003746D01*
X021569Y003587D02*
X021350Y003587D01*
X021350Y003429D02*
X022000Y003429D01*
X022000Y003446D02*
X022000Y003904D01*
X022035Y003904D01*
X022000Y003904D02*
X022000Y004148D01*
X022035Y004148D01*
X022035Y003446D01*
X022000Y003446D01*
X022035Y003429D02*
X023083Y003429D01*
X023083Y003587D02*
X023117Y003587D01*
X023117Y003746D02*
X023083Y003746D01*
X023083Y003904D02*
X023117Y003904D01*
X023117Y004063D02*
X023083Y004063D01*
X023083Y004221D02*
X023117Y004221D01*
X023117Y004380D02*
X023083Y004380D01*
X023083Y004538D02*
X023117Y004538D01*
X023117Y004697D02*
X023083Y004697D01*
X023083Y004855D02*
X023117Y004855D01*
X022671Y004697D02*
X022446Y004697D01*
X022491Y004855D02*
X022626Y004855D01*
X022637Y005014D02*
X022481Y005014D01*
X022408Y005172D02*
X022709Y005172D01*
X022896Y005331D02*
X022222Y005331D01*
X021813Y005331D02*
X021581Y005331D01*
X021627Y005172D02*
X021422Y005172D01*
X022000Y004884D02*
X022035Y004884D01*
X022035Y004182D01*
X022000Y004182D01*
X022000Y004640D01*
X022000Y004884D01*
X022000Y004855D02*
X022035Y004855D01*
X022035Y004697D02*
X022000Y004697D01*
X022000Y004538D02*
X022035Y004538D01*
X022035Y004380D02*
X022000Y004380D01*
X022000Y004221D02*
X022035Y004221D01*
X022035Y004063D02*
X022000Y004063D01*
X022415Y003904D02*
X022702Y003904D01*
X022745Y003746D02*
X022373Y003746D01*
X022466Y003587D02*
X022652Y003587D01*
X022035Y003587D02*
X022000Y003587D01*
X022000Y003746D02*
X022035Y003746D01*
X022482Y004063D02*
X022635Y004063D01*
X022628Y004221D02*
X022490Y004221D01*
X022441Y004380D02*
X022676Y004380D01*
X022791Y004538D02*
X022326Y004538D01*
X026841Y007391D02*
X035020Y007391D01*
X035020Y007436D02*
X035020Y007276D01*
X035180Y007276D01*
X035180Y007436D01*
X035020Y007436D01*
X035020Y007550D02*
X035180Y007550D01*
X035180Y007436D02*
X035180Y008063D01*
X035239Y008055D01*
X035329Y008031D01*
X035415Y007995D01*
X035496Y007949D01*
X035570Y007892D01*
X035636Y007826D01*
X035693Y007752D01*
X035739Y007671D01*
X035775Y007585D01*
X035799Y007495D01*
X035807Y007436D01*
X035180Y007436D01*
X035180Y007391D02*
X036100Y007391D01*
X036100Y007233D02*
X035801Y007233D01*
X035799Y007217D02*
X035807Y007276D01*
X035180Y007276D01*
X035180Y006649D01*
X035239Y006657D01*
X035329Y006681D01*
X035415Y006716D01*
X035496Y006763D01*
X035570Y006820D01*
X035636Y006886D01*
X035693Y006960D01*
X035739Y007041D01*
X035775Y007127D01*
X035799Y007217D01*
X035753Y007074D02*
X036100Y007074D01*
X036100Y006916D02*
X035659Y006916D01*
X035486Y006757D02*
X036100Y006757D01*
X035180Y006757D02*
X035020Y006757D01*
X035020Y006916D02*
X035180Y006916D01*
X035180Y007074D02*
X035020Y007074D01*
X035020Y007233D02*
X035180Y007233D01*
X035785Y007550D02*
X036100Y007550D01*
X035992Y007708D02*
X035718Y007708D01*
X035833Y007867D02*
X035596Y007867D01*
X035675Y008025D02*
X035344Y008025D01*
X035180Y008025D02*
X035020Y008025D01*
X035020Y007867D02*
X035180Y007867D01*
X035180Y007708D02*
X035020Y007708D01*
M02*
