G75*
%MOIN*%
%OFA0B0*%
%FSLAX25Y25*%
%IPPOS*%
%LPD*%
%AMOC8*
5,1,8,0,0,1.08239X$1,22.5*
%
%ADD10C,0.05906*%
%ADD11OC8,0.06300*%
%ADD12C,0.10630*%
%ADD13C,0.07050*%
%ADD14C,0.06000*%
%ADD15C,0.01600*%
D10*
X0060370Y0031807D03*
X0060370Y0039366D03*
X0060370Y0046925D03*
X0060370Y0054484D03*
X0060370Y0062043D03*
X0060370Y0069602D03*
X0071197Y0069602D03*
X0071197Y0062043D03*
X0071197Y0054484D03*
X0071197Y0046925D03*
X0071197Y0039366D03*
X0071197Y0031807D03*
X0071197Y0082161D03*
X0071197Y0090035D03*
X0071197Y0097909D03*
X0060370Y0097909D03*
X0060370Y0090035D03*
X0060370Y0082161D03*
X0060370Y0120311D03*
X0060370Y0127358D03*
X0060370Y0134406D03*
X0060370Y0141453D03*
X0060370Y0148500D03*
X0071197Y0148500D03*
X0071197Y0141453D03*
X0071197Y0134406D03*
X0071197Y0127358D03*
X0071197Y0120311D03*
X0071197Y0169307D03*
X0071197Y0176866D03*
X0071197Y0184425D03*
X0071197Y0191984D03*
X0071197Y0199543D03*
X0071197Y0207102D03*
X0060370Y0207102D03*
X0060370Y0199543D03*
X0060370Y0191984D03*
X0060370Y0184425D03*
X0060370Y0176866D03*
X0060370Y0169307D03*
X0060370Y0219661D03*
X0060370Y0227535D03*
X0060370Y0235409D03*
X0071197Y0235409D03*
X0071197Y0227535D03*
X0071197Y0219661D03*
X0071197Y0257811D03*
X0071197Y0264858D03*
X0071197Y0271906D03*
X0071197Y0278953D03*
X0071197Y0286000D03*
X0060370Y0286000D03*
X0060370Y0278953D03*
X0060370Y0271906D03*
X0060370Y0264858D03*
X0060370Y0257811D03*
X0135173Y0254504D03*
X0135173Y0247142D03*
X0135173Y0239780D03*
X0135173Y0232417D03*
X0135173Y0223008D03*
X0135173Y0215646D03*
X0135173Y0208283D03*
X0135173Y0200921D03*
X0135173Y0191512D03*
X0135173Y0184150D03*
X0135173Y0176787D03*
X0135173Y0169425D03*
X0146000Y0169425D03*
X0146000Y0176787D03*
X0146000Y0184150D03*
X0146000Y0191512D03*
X0146000Y0200921D03*
X0146000Y0208283D03*
X0146000Y0215646D03*
X0146000Y0223008D03*
X0146000Y0232417D03*
X0146000Y0239780D03*
X0146000Y0247142D03*
X0146000Y0254504D03*
X0146000Y0263913D03*
X0146000Y0271276D03*
X0146000Y0278638D03*
X0146000Y0286000D03*
X0135173Y0286000D03*
X0135173Y0278638D03*
X0135173Y0271276D03*
X0135173Y0263913D03*
X0251000Y0260488D03*
X0251000Y0267850D03*
X0261827Y0267850D03*
X0261827Y0260488D03*
X0261827Y0251079D03*
X0261827Y0243717D03*
X0251000Y0243717D03*
X0251000Y0251079D03*
X0251000Y0236354D03*
X0251000Y0228992D03*
X0261827Y0228992D03*
X0261827Y0236354D03*
X0261827Y0219583D03*
X0261827Y0212220D03*
X0251000Y0212220D03*
X0251000Y0219583D03*
X0251000Y0204858D03*
X0251000Y0197496D03*
X0261827Y0197496D03*
X0261827Y0204858D03*
X0261827Y0188087D03*
X0261827Y0180724D03*
X0251000Y0180724D03*
X0251000Y0188087D03*
X0251000Y0173362D03*
X0251000Y0166000D03*
X0261827Y0166000D03*
X0261827Y0173362D03*
X0261827Y0147575D03*
X0261827Y0140213D03*
X0261827Y0132850D03*
X0251000Y0132850D03*
X0251000Y0140213D03*
X0251000Y0147575D03*
X0251000Y0125488D03*
X0261827Y0125488D03*
X0261827Y0116079D03*
X0261827Y0108717D03*
X0261827Y0101354D03*
X0251000Y0101354D03*
X0251000Y0108717D03*
X0251000Y0116079D03*
X0251000Y0093992D03*
X0261827Y0093992D03*
X0261827Y0084583D03*
X0261827Y0077220D03*
X0261827Y0069858D03*
X0251000Y0069858D03*
X0251000Y0077220D03*
X0251000Y0084583D03*
X0251000Y0062496D03*
X0261827Y0062496D03*
X0261827Y0053087D03*
X0261827Y0045724D03*
X0261827Y0038362D03*
X0251000Y0038362D03*
X0251000Y0045724D03*
X0251000Y0053087D03*
X0251000Y0031000D03*
X0261827Y0031000D03*
X0325803Y0031000D03*
X0336630Y0031000D03*
X0336630Y0038047D03*
X0336630Y0045094D03*
X0336630Y0052142D03*
X0336630Y0059189D03*
X0325803Y0059189D03*
X0325803Y0052142D03*
X0325803Y0045094D03*
X0325803Y0038047D03*
X0325803Y0081591D03*
X0336630Y0081591D03*
X0336630Y0089465D03*
X0336630Y0097339D03*
X0325803Y0097339D03*
X0325803Y0089465D03*
X0325803Y0109898D03*
X0336630Y0109898D03*
X0336630Y0117457D03*
X0336630Y0125016D03*
X0336630Y0132575D03*
X0325803Y0132575D03*
X0325803Y0125016D03*
X0325803Y0117457D03*
X0325803Y0140134D03*
X0325803Y0147693D03*
X0336630Y0147693D03*
X0336630Y0140134D03*
X0336630Y0166000D03*
X0336630Y0173047D03*
X0336630Y0180094D03*
X0325803Y0180094D03*
X0325803Y0173047D03*
X0325803Y0166000D03*
X0325803Y0187142D03*
X0325803Y0194189D03*
X0336630Y0194189D03*
X0336630Y0187142D03*
X0336630Y0216591D03*
X0325803Y0216591D03*
X0325803Y0224465D03*
X0325803Y0232339D03*
X0336630Y0232339D03*
X0336630Y0224465D03*
X0336630Y0244898D03*
X0336630Y0252457D03*
X0325803Y0252457D03*
X0325803Y0244898D03*
X0325803Y0260016D03*
X0325803Y0267575D03*
X0336630Y0267575D03*
X0336630Y0260016D03*
X0336630Y0275134D03*
X0336630Y0282693D03*
X0325803Y0282693D03*
X0325803Y0275134D03*
X0261827Y0275213D03*
X0261827Y0282575D03*
X0251000Y0282575D03*
X0251000Y0275213D03*
X0146000Y0148500D03*
X0146000Y0141138D03*
X0146000Y0133776D03*
X0146000Y0126413D03*
X0146000Y0117004D03*
X0146000Y0109642D03*
X0146000Y0102280D03*
X0146000Y0094917D03*
X0146000Y0085508D03*
X0146000Y0078146D03*
X0146000Y0070783D03*
X0146000Y0063421D03*
X0146000Y0054012D03*
X0146000Y0046650D03*
X0146000Y0039287D03*
X0146000Y0031925D03*
X0135173Y0031925D03*
X0135173Y0039287D03*
X0135173Y0046650D03*
X0135173Y0054012D03*
X0135173Y0063421D03*
X0135173Y0070783D03*
X0135173Y0078146D03*
X0135173Y0085508D03*
X0135173Y0094917D03*
X0135173Y0102280D03*
X0135173Y0109642D03*
X0135173Y0117004D03*
X0135173Y0126413D03*
X0135173Y0133776D03*
X0135173Y0141138D03*
X0135173Y0148500D03*
D11*
X0216000Y0186000D03*
X0226000Y0186000D03*
X0226000Y0203500D03*
X0216000Y0203500D03*
X0381000Y0096000D03*
X0381000Y0086000D03*
X0358500Y0031000D03*
X0348500Y0031000D03*
X0046000Y0028500D03*
X0036000Y0028500D03*
X0011000Y0081000D03*
X0011000Y0091000D03*
D12*
X0018500Y0191000D03*
X0040941Y0191000D03*
X0188500Y0261000D03*
X0210941Y0261000D03*
X0356059Y0191000D03*
X0378500Y0191000D03*
D13*
X0219525Y0163343D02*
X0212475Y0163343D01*
X0212475Y0143657D02*
X0219525Y0143657D01*
X0219525Y0123343D02*
X0212475Y0123343D01*
X0212475Y0103657D02*
X0219525Y0103657D01*
X0219525Y0083343D02*
X0212475Y0083343D01*
X0212475Y0063657D02*
X0219525Y0063657D01*
X0182025Y0063657D02*
X0174975Y0063657D01*
X0174975Y0083343D02*
X0182025Y0083343D01*
X0182025Y0103657D02*
X0174975Y0103657D01*
X0174975Y0123343D02*
X0182025Y0123343D01*
X0182025Y0143657D02*
X0174975Y0143657D01*
X0174975Y0163343D02*
X0182025Y0163343D01*
X0173657Y0189975D02*
X0173657Y0197025D01*
X0193343Y0197025D02*
X0193343Y0189975D01*
D14*
X0044000Y0216000D02*
X0038000Y0216000D01*
X0038000Y0226000D02*
X0044000Y0226000D01*
X0044000Y0236000D02*
X0038000Y0236000D01*
X0038000Y0098500D02*
X0044000Y0098500D01*
X0044000Y0088500D02*
X0038000Y0088500D01*
X0038000Y0078500D02*
X0044000Y0078500D01*
X0350500Y0078500D02*
X0356500Y0078500D01*
X0356500Y0088500D02*
X0350500Y0088500D01*
X0350500Y0098500D02*
X0356500Y0098500D01*
X0359000Y0213500D02*
X0353000Y0213500D01*
X0353000Y0223500D02*
X0359000Y0223500D01*
X0359000Y0233500D02*
X0353000Y0233500D01*
D15*
X0008500Y0085085D02*
X0008500Y0026000D01*
X0010030Y0026000D01*
X0011398Y0028368D01*
X0013632Y0030602D01*
X0016368Y0032182D01*
X0019420Y0033000D01*
X0022580Y0033000D01*
X0025632Y0032182D01*
X0028368Y0030602D01*
X0030050Y0028921D01*
X0030050Y0030965D01*
X0033535Y0034450D01*
X0038465Y0034450D01*
X0041950Y0030965D01*
X0041950Y0026035D01*
X0041915Y0026000D01*
X0096263Y0026000D01*
X0099249Y0026800D01*
X0102751Y0026800D01*
X0105737Y0026000D01*
X0106000Y0026000D01*
X0106000Y0291071D01*
X0102751Y0290200D01*
X0099249Y0290200D01*
X0095866Y0291106D01*
X0092834Y0292857D01*
X0090357Y0295334D01*
X0088606Y0298366D01*
X0087700Y0301749D01*
X0087700Y0305251D01*
X0088571Y0308500D01*
X0008500Y0308500D01*
X0008500Y0221672D01*
X0008634Y0221904D01*
X0010627Y0223897D01*
X0013069Y0225307D01*
X0015791Y0226036D01*
X0018610Y0226036D01*
X0021333Y0225307D01*
X0023774Y0223897D01*
X0025767Y0221904D01*
X0027177Y0219463D01*
X0027906Y0216740D01*
X0027906Y0213921D01*
X0027177Y0211199D01*
X0025767Y0208757D01*
X0023774Y0206764D01*
X0021333Y0205355D01*
X0018610Y0204625D01*
X0015791Y0204625D01*
X0013069Y0205355D01*
X0010627Y0206764D01*
X0008634Y0208757D01*
X0008500Y0208990D01*
X0008500Y0173010D01*
X0008634Y0173243D01*
X0010627Y0175236D01*
X0013069Y0176645D01*
X0015791Y0177375D01*
X0018610Y0177375D01*
X0021333Y0176645D01*
X0023774Y0175236D01*
X0025767Y0173243D01*
X0027177Y0170801D01*
X0027906Y0168079D01*
X0027906Y0165260D01*
X0027177Y0162537D01*
X0025767Y0160096D01*
X0023774Y0158103D01*
X0021333Y0156693D01*
X0018610Y0155964D01*
X0015791Y0155964D01*
X0013069Y0156693D01*
X0010627Y0158103D01*
X0008634Y0160096D01*
X0008500Y0160328D01*
X0008500Y0096915D01*
X0008535Y0096950D01*
X0013465Y0096950D01*
X0016950Y0093465D01*
X0016950Y0088535D01*
X0013465Y0085050D01*
X0008535Y0085050D01*
X0008500Y0085085D01*
X0008500Y0084123D02*
X0034175Y0084123D01*
X0034715Y0083583D02*
X0034915Y0083500D01*
X0034715Y0083417D01*
X0033083Y0081785D01*
X0032200Y0079654D01*
X0032200Y0077346D01*
X0033083Y0075215D01*
X0034715Y0073583D01*
X0036846Y0072700D01*
X0045154Y0072700D01*
X0047285Y0073583D01*
X0048917Y0075215D01*
X0049800Y0077346D01*
X0049800Y0079654D01*
X0048917Y0081785D01*
X0047285Y0083417D01*
X0047085Y0083500D01*
X0047285Y0083583D01*
X0048917Y0085215D01*
X0049800Y0087346D01*
X0049800Y0089654D01*
X0048917Y0091785D01*
X0047285Y0093417D01*
X0047085Y0093500D01*
X0047285Y0093583D01*
X0048917Y0095215D01*
X0049800Y0097346D01*
X0049800Y0099654D01*
X0048917Y0101785D01*
X0047285Y0103417D01*
X0045154Y0104300D01*
X0036846Y0104300D01*
X0034715Y0103417D01*
X0033083Y0101785D01*
X0032200Y0099654D01*
X0032200Y0097346D01*
X0033083Y0095215D01*
X0034715Y0093583D01*
X0034915Y0093500D01*
X0034715Y0093417D01*
X0033083Y0091785D01*
X0032200Y0089654D01*
X0032200Y0087346D01*
X0033083Y0085215D01*
X0034715Y0083583D01*
X0033822Y0082524D02*
X0008500Y0082524D01*
X0008500Y0080926D02*
X0032727Y0080926D01*
X0032200Y0079327D02*
X0008500Y0079327D01*
X0008500Y0077729D02*
X0032200Y0077729D01*
X0032704Y0076130D02*
X0008500Y0076130D01*
X0008500Y0074532D02*
X0033766Y0074532D01*
X0036284Y0072933D02*
X0008500Y0072933D01*
X0008500Y0071334D02*
X0106000Y0071334D01*
X0106000Y0069736D02*
X0008500Y0069736D01*
X0008500Y0068137D02*
X0106000Y0068137D01*
X0106000Y0066539D02*
X0008500Y0066539D01*
X0008500Y0064940D02*
X0106000Y0064940D01*
X0106000Y0063342D02*
X0008500Y0063342D01*
X0008500Y0061743D02*
X0106000Y0061743D01*
X0106000Y0060145D02*
X0008500Y0060145D01*
X0008500Y0058546D02*
X0106000Y0058546D01*
X0106000Y0056948D02*
X0008500Y0056948D01*
X0008500Y0055349D02*
X0106000Y0055349D01*
X0106000Y0053751D02*
X0008500Y0053751D01*
X0008500Y0052152D02*
X0106000Y0052152D01*
X0106000Y0050554D02*
X0008500Y0050554D01*
X0008500Y0048955D02*
X0106000Y0048955D01*
X0106000Y0047357D02*
X0008500Y0047357D01*
X0008500Y0045758D02*
X0106000Y0045758D01*
X0106000Y0044160D02*
X0008500Y0044160D01*
X0008500Y0042561D02*
X0106000Y0042561D01*
X0106000Y0040963D02*
X0008500Y0040963D01*
X0008500Y0039364D02*
X0106000Y0039364D01*
X0106000Y0037766D02*
X0008500Y0037766D01*
X0008500Y0036167D02*
X0106000Y0036167D01*
X0106000Y0034569D02*
X0008500Y0034569D01*
X0008500Y0032970D02*
X0019309Y0032970D01*
X0022691Y0032970D02*
X0032056Y0032970D01*
X0030457Y0031372D02*
X0027036Y0031372D01*
X0029197Y0029773D02*
X0030050Y0029773D01*
X0039944Y0032970D02*
X0106000Y0032970D01*
X0106000Y0031372D02*
X0041543Y0031372D01*
X0041950Y0029773D02*
X0106000Y0029773D01*
X0106000Y0028175D02*
X0041950Y0028175D01*
X0041950Y0026576D02*
X0098414Y0026576D01*
X0103586Y0026576D02*
X0106000Y0026576D01*
X0128500Y0028500D02*
X0128500Y0056000D01*
X0131000Y0058500D01*
X0132022Y0058500D01*
X0134029Y0057669D01*
X0136318Y0057669D01*
X0138325Y0058500D01*
X0142848Y0058500D01*
X0144856Y0057669D01*
X0147144Y0057669D01*
X0149259Y0058544D01*
X0150877Y0060163D01*
X0151382Y0061382D01*
X0156000Y0066000D01*
X0156000Y0086000D01*
X0151000Y0091000D01*
X0147773Y0091000D01*
X0147144Y0091261D01*
X0144856Y0091261D01*
X0144227Y0091000D01*
X0136947Y0091000D01*
X0136318Y0091261D01*
X0134029Y0091261D01*
X0133400Y0091000D01*
X0128500Y0091000D01*
X0126000Y0093500D01*
X0126000Y0118500D01*
X0128500Y0121000D01*
X0133210Y0121000D01*
X0134029Y0120661D01*
X0136318Y0120661D01*
X0137137Y0121000D01*
X0144036Y0121000D01*
X0144856Y0120661D01*
X0147144Y0120661D01*
X0147964Y0121000D01*
X0156000Y0121000D01*
X0170931Y0108558D01*
X0169613Y0107240D01*
X0168650Y0104916D01*
X0168650Y0102399D01*
X0169613Y0100075D01*
X0171392Y0098295D01*
X0173717Y0097332D01*
X0174723Y0097332D01*
X0178500Y0086000D01*
X0191000Y0086000D01*
X0196000Y0081000D01*
X0196000Y0053500D01*
X0191000Y0046000D01*
X0188500Y0046000D01*
X0181000Y0041000D01*
X0188500Y0038500D01*
X0178500Y0023500D01*
X0133500Y0023500D01*
X0128500Y0028500D01*
X0128825Y0028175D02*
X0181616Y0028175D01*
X0180551Y0026576D02*
X0130424Y0026576D01*
X0132022Y0024978D02*
X0179485Y0024978D01*
X0178500Y0026000D02*
X0156000Y0048500D01*
X0156000Y0213500D01*
X0171000Y0223500D01*
X0198500Y0223500D01*
X0198500Y0273500D01*
X0213500Y0288500D01*
X0241000Y0288500D01*
X0241000Y0051000D01*
X0208500Y0026000D01*
X0178500Y0026000D01*
X0177924Y0026576D02*
X0209249Y0026576D01*
X0211327Y0028175D02*
X0176325Y0028175D01*
X0174727Y0029773D02*
X0213405Y0029773D01*
X0215483Y0031372D02*
X0173128Y0031372D01*
X0171530Y0032970D02*
X0217561Y0032970D01*
X0219639Y0034569D02*
X0169931Y0034569D01*
X0168333Y0036167D02*
X0221717Y0036167D01*
X0223795Y0037766D02*
X0166734Y0037766D01*
X0165136Y0039364D02*
X0225874Y0039364D01*
X0227952Y0040963D02*
X0163537Y0040963D01*
X0161939Y0042561D02*
X0230030Y0042561D01*
X0232108Y0044160D02*
X0160340Y0044160D01*
X0158742Y0045758D02*
X0234186Y0045758D01*
X0236264Y0047357D02*
X0157143Y0047357D01*
X0156000Y0048955D02*
X0238342Y0048955D01*
X0240420Y0050554D02*
X0156000Y0050554D01*
X0156000Y0052152D02*
X0241000Y0052152D01*
X0241000Y0053751D02*
X0156000Y0053751D01*
X0156000Y0055349D02*
X0241000Y0055349D01*
X0241000Y0056948D02*
X0156000Y0056948D01*
X0156000Y0058546D02*
X0171141Y0058546D01*
X0149261Y0058546D01*
X0150859Y0060145D02*
X0169584Y0060145D01*
X0156000Y0060145D01*
X0156000Y0061743D02*
X0168922Y0061743D01*
X0151743Y0061743D01*
X0153342Y0063342D02*
X0168650Y0063342D01*
X0156000Y0063342D01*
X0156000Y0064940D02*
X0168660Y0064940D01*
X0154940Y0064940D01*
X0156000Y0066539D02*
X0169322Y0066539D01*
X0156000Y0066539D01*
X0156000Y0068137D02*
X0170510Y0068137D01*
X0156000Y0068137D01*
X0156000Y0069736D02*
X0173122Y0069736D01*
X0156000Y0069736D01*
X0156000Y0071334D02*
X0196000Y0071334D01*
X0196000Y0069736D02*
X0183878Y0069736D01*
X0210622Y0069736D01*
X0211217Y0069982D02*
X0208892Y0069020D01*
X0207113Y0067240D01*
X0206150Y0064916D01*
X0206150Y0062399D01*
X0207113Y0060075D01*
X0208892Y0058295D01*
X0211217Y0057332D01*
X0220783Y0057332D01*
X0223108Y0058295D01*
X0224887Y0060075D01*
X0225850Y0062399D01*
X0225850Y0064916D01*
X0224887Y0067240D01*
X0223108Y0069020D01*
X0220783Y0069982D01*
X0211217Y0069982D01*
X0208010Y0068137D02*
X0186490Y0068137D01*
X0196000Y0068137D01*
X0196000Y0066539D02*
X0187678Y0066539D01*
X0206822Y0066539D01*
X0206160Y0064940D02*
X0188340Y0064940D01*
X0196000Y0064940D01*
X0196000Y0063342D02*
X0188350Y0063342D01*
X0206150Y0063342D01*
X0206422Y0061743D02*
X0188078Y0061743D01*
X0196000Y0061743D01*
X0196000Y0060145D02*
X0187416Y0060145D01*
X0207084Y0060145D01*
X0208641Y0058546D02*
X0185859Y0058546D01*
X0196000Y0058546D01*
X0196000Y0056948D02*
X0129448Y0056948D01*
X0128500Y0055349D02*
X0196000Y0055349D01*
X0196000Y0053751D02*
X0128500Y0053751D01*
X0128500Y0052152D02*
X0195102Y0052152D01*
X0194036Y0050554D02*
X0128500Y0050554D01*
X0128500Y0048955D02*
X0192970Y0048955D01*
X0191905Y0047357D02*
X0128500Y0047357D01*
X0128500Y0045758D02*
X0188137Y0045758D01*
X0185740Y0044160D02*
X0128500Y0044160D01*
X0128500Y0042561D02*
X0183342Y0042561D01*
X0181112Y0040963D02*
X0128500Y0040963D01*
X0128500Y0039364D02*
X0185907Y0039364D01*
X0188011Y0037766D02*
X0128500Y0037766D01*
X0128500Y0036167D02*
X0186945Y0036167D01*
X0185879Y0034569D02*
X0128500Y0034569D01*
X0128500Y0032970D02*
X0184813Y0032970D01*
X0183748Y0031372D02*
X0128500Y0031372D01*
X0128500Y0029773D02*
X0182682Y0029773D01*
X0183283Y0057332D02*
X0173717Y0057332D01*
X0171392Y0058295D01*
X0169613Y0060075D01*
X0168650Y0062399D01*
X0168650Y0064916D01*
X0169613Y0067240D01*
X0171392Y0069020D01*
X0173717Y0069982D01*
X0183283Y0069982D01*
X0185608Y0069020D01*
X0187387Y0067240D01*
X0188350Y0064916D01*
X0188350Y0062399D01*
X0187387Y0060075D01*
X0185608Y0058295D01*
X0183283Y0057332D01*
X0185608Y0058295D01*
X0187387Y0060075D01*
X0188350Y0062399D01*
X0188350Y0064916D01*
X0187387Y0067240D01*
X0185608Y0069020D01*
X0183283Y0069982D01*
X0173717Y0069982D01*
X0171392Y0069020D01*
X0169613Y0067240D01*
X0168650Y0064916D01*
X0168650Y0062399D01*
X0169613Y0060075D01*
X0171392Y0058295D01*
X0173717Y0057332D01*
X0183283Y0057332D01*
X0196000Y0072933D02*
X0156000Y0072933D01*
X0241000Y0072933D01*
X0241000Y0071334D02*
X0156000Y0071334D01*
X0156000Y0074532D02*
X0196000Y0074532D01*
X0196000Y0076130D02*
X0156000Y0076130D01*
X0241000Y0076130D01*
X0241000Y0074532D02*
X0156000Y0074532D01*
X0156000Y0077729D02*
X0196000Y0077729D01*
X0196000Y0079327D02*
X0156000Y0079327D01*
X0241000Y0079327D01*
X0241000Y0077729D02*
X0156000Y0077729D01*
X0156000Y0080926D02*
X0196000Y0080926D01*
X0194476Y0082524D02*
X0156000Y0082524D01*
X0241000Y0082524D01*
X0241000Y0080926D02*
X0156000Y0080926D01*
X0156000Y0084123D02*
X0192877Y0084123D01*
X0191279Y0085721D02*
X0156000Y0085721D01*
X0241000Y0085721D01*
X0241000Y0084123D02*
X0156000Y0084123D01*
X0156000Y0087320D02*
X0241000Y0087320D01*
X0241000Y0088918D02*
X0156000Y0088918D01*
X0156000Y0090517D02*
X0241000Y0090517D01*
X0241000Y0092115D02*
X0156000Y0092115D01*
X0156000Y0093714D02*
X0241000Y0093714D01*
X0213286Y0093714D01*
X0213500Y0093500D02*
X0208500Y0098500D01*
X0208500Y0098688D01*
X0208892Y0098295D01*
X0211217Y0097332D01*
X0220783Y0097332D01*
X0223108Y0098295D01*
X0224887Y0100075D01*
X0225850Y0102399D01*
X0225850Y0104916D01*
X0224887Y0107240D01*
X0223108Y0109020D01*
X0220783Y0109982D01*
X0211217Y0109982D01*
X0208892Y0109020D01*
X0208500Y0108627D01*
X0208500Y0126000D01*
X0213500Y0133500D01*
X0216000Y0133500D01*
X0223500Y0138500D01*
X0223406Y0138594D01*
X0224887Y0140075D01*
X0225850Y0142399D01*
X0225850Y0144916D01*
X0225576Y0145576D01*
X0231000Y0151000D01*
X0241000Y0156000D01*
X0263500Y0156000D01*
X0268500Y0151000D01*
X0268500Y0123500D01*
X0266000Y0121000D01*
X0264978Y0121000D01*
X0262971Y0121831D01*
X0260682Y0121831D01*
X0258675Y0121000D01*
X0254152Y0121000D01*
X0252144Y0121831D01*
X0249856Y0121831D01*
X0247741Y0120956D01*
X0246123Y0119337D01*
X0245618Y0118118D01*
X0241000Y0113500D01*
X0241000Y0093500D01*
X0246000Y0088500D01*
X0249227Y0088500D01*
X0249856Y0088239D01*
X0252144Y0088239D01*
X0252773Y0088500D01*
X0260053Y0088500D01*
X0260682Y0088239D01*
X0262971Y0088239D01*
X0263600Y0088500D01*
X0268500Y0088500D01*
X0271000Y0086000D01*
X0271000Y0061000D01*
X0268500Y0058500D01*
X0263790Y0058500D01*
X0262971Y0058839D01*
X0260682Y0058839D01*
X0259863Y0058500D01*
X0252964Y0058500D01*
X0252144Y0058839D01*
X0249856Y0058839D01*
X0249036Y0058500D01*
X0241000Y0058500D01*
X0226000Y0071000D01*
X0218500Y0093500D01*
X0213500Y0093500D01*
X0211688Y0095312D02*
X0241000Y0095312D01*
X0156000Y0095312D01*
X0156000Y0096911D02*
X0241000Y0096911D01*
X0210089Y0096911D01*
X0211217Y0097332D02*
X0208892Y0098295D01*
X0207113Y0100075D01*
X0206150Y0102399D01*
X0206150Y0104916D01*
X0207113Y0107240D01*
X0208892Y0109020D01*
X0211217Y0109982D01*
X0220783Y0109982D01*
X0223108Y0109020D01*
X0224887Y0107240D01*
X0225850Y0104916D01*
X0225850Y0102399D01*
X0224887Y0100075D01*
X0223108Y0098295D01*
X0220783Y0097332D01*
X0211217Y0097332D01*
X0208678Y0098509D02*
X0208500Y0098509D01*
X0208678Y0098509D02*
X0185822Y0098509D01*
X0185608Y0098295D02*
X0187387Y0100075D01*
X0188350Y0102399D01*
X0188350Y0104916D01*
X0187387Y0107240D01*
X0185608Y0109020D01*
X0183283Y0109982D01*
X0173717Y0109982D01*
X0171392Y0109020D01*
X0169613Y0107240D01*
X0168650Y0104916D01*
X0168650Y0102399D01*
X0169613Y0100075D01*
X0171392Y0098295D01*
X0173717Y0097332D01*
X0183283Y0097332D01*
X0185608Y0098295D01*
X0187401Y0100108D02*
X0207099Y0100108D01*
X0206437Y0101706D02*
X0188063Y0101706D01*
X0188350Y0103305D02*
X0206150Y0103305D01*
X0206150Y0104903D02*
X0188350Y0104903D01*
X0187693Y0106502D02*
X0206807Y0106502D01*
X0207973Y0108100D02*
X0186527Y0108100D01*
X0183968Y0109699D02*
X0210532Y0109699D01*
X0208500Y0109699D01*
X0208500Y0111297D02*
X0241000Y0111297D01*
X0156000Y0111297D01*
X0156000Y0109699D02*
X0173032Y0109699D01*
X0170473Y0108100D02*
X0126000Y0108100D01*
X0126000Y0106502D02*
X0169307Y0106502D01*
X0156000Y0106502D01*
X0156000Y0108100D02*
X0170473Y0108100D01*
X0169561Y0109699D02*
X0126000Y0109699D01*
X0126000Y0111297D02*
X0167643Y0111297D01*
X0165725Y0112896D02*
X0126000Y0112896D01*
X0126000Y0114494D02*
X0163807Y0114494D01*
X0161889Y0116093D02*
X0126000Y0116093D01*
X0126000Y0117691D02*
X0159970Y0117691D01*
X0158052Y0119290D02*
X0126790Y0119290D01*
X0128388Y0120888D02*
X0133479Y0120888D01*
X0136867Y0120888D02*
X0144306Y0120888D01*
X0147694Y0120888D02*
X0156134Y0120888D01*
X0156000Y0120888D02*
X0241000Y0120888D01*
X0241000Y0119290D02*
X0156000Y0119290D01*
X0156000Y0117691D02*
X0241000Y0117691D01*
X0241000Y0116093D02*
X0156000Y0116093D01*
X0156000Y0114494D02*
X0241000Y0114494D01*
X0241994Y0114494D02*
X0208500Y0114494D01*
X0208500Y0112896D02*
X0241000Y0112896D01*
X0156000Y0112896D01*
X0156000Y0104903D02*
X0168650Y0104903D01*
X0126000Y0104903D01*
X0126000Y0103305D02*
X0168650Y0103305D01*
X0156000Y0103305D01*
X0156000Y0101706D02*
X0168937Y0101706D01*
X0126000Y0101706D01*
X0126000Y0100108D02*
X0169599Y0100108D01*
X0156000Y0100108D01*
X0156000Y0098509D02*
X0171178Y0098509D01*
X0126000Y0098509D01*
X0126000Y0096911D02*
X0174863Y0096911D01*
X0175396Y0095312D02*
X0126000Y0095312D01*
X0126000Y0093714D02*
X0175929Y0093714D01*
X0176462Y0092115D02*
X0127385Y0092115D01*
X0106000Y0092115D02*
X0076562Y0092115D01*
X0076950Y0091180D02*
X0076074Y0093294D01*
X0075395Y0093972D01*
X0076074Y0094651D01*
X0076950Y0096765D01*
X0076950Y0099054D01*
X0076074Y0101168D01*
X0074456Y0102786D01*
X0072341Y0103662D01*
X0070053Y0103662D01*
X0067938Y0102786D01*
X0066320Y0101168D01*
X0065783Y0099873D01*
X0065247Y0101168D01*
X0063629Y0102786D01*
X0061514Y0103662D01*
X0059226Y0103662D01*
X0057111Y0102786D01*
X0055493Y0101168D01*
X0054617Y0099054D01*
X0054617Y0096765D01*
X0055493Y0094651D01*
X0056171Y0093972D01*
X0055493Y0093294D01*
X0054617Y0091180D01*
X0054617Y0088891D01*
X0055493Y0086777D01*
X0056171Y0086098D01*
X0055493Y0085420D01*
X0054617Y0083306D01*
X0054617Y0081017D01*
X0055493Y0078903D01*
X0057111Y0077284D01*
X0059226Y0076409D01*
X0061514Y0076409D01*
X0063629Y0077284D01*
X0065247Y0078903D01*
X0065783Y0080198D01*
X0066320Y0078903D01*
X0067938Y0077284D01*
X0070053Y0076409D01*
X0072341Y0076409D01*
X0074456Y0077284D01*
X0076074Y0078903D01*
X0076950Y0081017D01*
X0076950Y0083306D01*
X0076074Y0085420D01*
X0075395Y0086098D01*
X0076074Y0086777D01*
X0076950Y0088891D01*
X0076950Y0091180D01*
X0076950Y0090517D02*
X0106000Y0090517D01*
X0106000Y0088918D02*
X0076950Y0088918D01*
X0076299Y0087320D02*
X0106000Y0087320D01*
X0106000Y0085721D02*
X0075773Y0085721D01*
X0076611Y0084123D02*
X0106000Y0084123D01*
X0106000Y0082524D02*
X0076950Y0082524D01*
X0076912Y0080926D02*
X0106000Y0080926D01*
X0106000Y0079327D02*
X0076250Y0079327D01*
X0074900Y0077729D02*
X0106000Y0077729D01*
X0106000Y0076130D02*
X0049296Y0076130D01*
X0049800Y0077729D02*
X0056667Y0077729D01*
X0055317Y0079327D02*
X0049800Y0079327D01*
X0049273Y0080926D02*
X0054655Y0080926D01*
X0054617Y0082524D02*
X0048178Y0082524D01*
X0047825Y0084123D02*
X0054956Y0084123D01*
X0055794Y0085721D02*
X0049127Y0085721D01*
X0049789Y0087320D02*
X0055268Y0087320D01*
X0054617Y0088918D02*
X0049800Y0088918D01*
X0049443Y0090517D02*
X0054617Y0090517D01*
X0055005Y0092115D02*
X0048587Y0092115D01*
X0047416Y0093714D02*
X0055913Y0093714D01*
X0055219Y0095312D02*
X0048957Y0095312D01*
X0049620Y0096911D02*
X0054617Y0096911D01*
X0054617Y0098509D02*
X0049800Y0098509D01*
X0049612Y0100108D02*
X0055054Y0100108D01*
X0056031Y0101706D02*
X0048950Y0101706D01*
X0047398Y0103305D02*
X0058363Y0103305D01*
X0062377Y0103305D02*
X0069190Y0103305D01*
X0066858Y0101706D02*
X0064709Y0101706D01*
X0065686Y0100108D02*
X0065881Y0100108D01*
X0073204Y0103305D02*
X0106000Y0103305D01*
X0106000Y0104903D02*
X0008500Y0104903D01*
X0008500Y0103305D02*
X0034602Y0103305D01*
X0033050Y0101706D02*
X0008500Y0101706D01*
X0008500Y0100108D02*
X0032388Y0100108D01*
X0032200Y0098509D02*
X0008500Y0098509D01*
X0013504Y0096911D02*
X0032380Y0096911D01*
X0033043Y0095312D02*
X0015102Y0095312D01*
X0016701Y0093714D02*
X0034584Y0093714D01*
X0033413Y0092115D02*
X0016950Y0092115D01*
X0016950Y0090517D02*
X0032557Y0090517D01*
X0032200Y0088918D02*
X0016950Y0088918D01*
X0015734Y0087320D02*
X0032211Y0087320D01*
X0032873Y0085721D02*
X0014136Y0085721D01*
X0008500Y0106502D02*
X0106000Y0106502D01*
X0106000Y0108100D02*
X0008500Y0108100D01*
X0008500Y0109699D02*
X0106000Y0109699D01*
X0106000Y0111297D02*
X0008500Y0111297D01*
X0008500Y0112896D02*
X0106000Y0112896D01*
X0106000Y0114494D02*
X0008500Y0114494D01*
X0008500Y0116093D02*
X0056453Y0116093D01*
X0057111Y0115434D02*
X0059226Y0114558D01*
X0061514Y0114558D01*
X0063629Y0115434D01*
X0065247Y0117052D01*
X0065783Y0118347D01*
X0066320Y0117052D01*
X0067938Y0115434D01*
X0070053Y0114558D01*
X0072341Y0114558D01*
X0074456Y0115434D01*
X0076074Y0117052D01*
X0076950Y0119167D01*
X0076950Y0121455D01*
X0076074Y0123570D01*
X0075809Y0123835D01*
X0076074Y0124100D01*
X0076950Y0126214D01*
X0076950Y0128503D01*
X0076074Y0130617D01*
X0075809Y0130882D01*
X0076074Y0131147D01*
X0076950Y0133261D01*
X0076950Y0135550D01*
X0076074Y0137664D01*
X0075809Y0137929D01*
X0076074Y0138194D01*
X0076950Y0140308D01*
X0076950Y0142597D01*
X0076074Y0144711D01*
X0075809Y0144976D01*
X0076074Y0145241D01*
X0076950Y0147356D01*
X0076950Y0149644D01*
X0076074Y0151759D01*
X0074456Y0153377D01*
X0072341Y0154253D01*
X0070053Y0154253D01*
X0067938Y0153377D01*
X0066320Y0151759D01*
X0065783Y0150464D01*
X0065247Y0151759D01*
X0063629Y0153377D01*
X0061514Y0154253D01*
X0059226Y0154253D01*
X0057111Y0153377D01*
X0055493Y0151759D01*
X0054617Y0149644D01*
X0054617Y0147356D01*
X0055493Y0145241D01*
X0055758Y0144976D01*
X0055493Y0144711D01*
X0054617Y0142597D01*
X0054617Y0140308D01*
X0055493Y0138194D01*
X0055758Y0137929D01*
X0055493Y0137664D01*
X0054617Y0135550D01*
X0054617Y0133261D01*
X0055493Y0131147D01*
X0055758Y0130882D01*
X0055493Y0130617D01*
X0054617Y0128503D01*
X0054617Y0126214D01*
X0055493Y0124100D01*
X0055758Y0123835D01*
X0055493Y0123570D01*
X0054617Y0121455D01*
X0054617Y0119167D01*
X0055493Y0117052D01*
X0057111Y0115434D01*
X0055228Y0117691D02*
X0008500Y0117691D01*
X0008500Y0119290D02*
X0054617Y0119290D01*
X0054617Y0120888D02*
X0008500Y0120888D01*
X0008500Y0122487D02*
X0055045Y0122487D01*
X0055507Y0124085D02*
X0008500Y0124085D01*
X0008500Y0125684D02*
X0054837Y0125684D01*
X0054617Y0127282D02*
X0008500Y0127282D01*
X0008500Y0128881D02*
X0054774Y0128881D01*
X0055436Y0130479D02*
X0008500Y0130479D01*
X0008500Y0132078D02*
X0055107Y0132078D01*
X0054617Y0133676D02*
X0008500Y0133676D01*
X0008500Y0135275D02*
X0054617Y0135275D01*
X0055166Y0136873D02*
X0008500Y0136873D01*
X0008500Y0138472D02*
X0055378Y0138472D01*
X0054716Y0140070D02*
X0008500Y0140070D01*
X0008500Y0141669D02*
X0054617Y0141669D01*
X0054895Y0143268D02*
X0008500Y0143268D01*
X0008500Y0144866D02*
X0055648Y0144866D01*
X0054986Y0146465D02*
X0008500Y0146465D01*
X0008500Y0148063D02*
X0054617Y0148063D01*
X0054624Y0149662D02*
X0008500Y0149662D01*
X0008500Y0151260D02*
X0055287Y0151260D01*
X0056593Y0152859D02*
X0008500Y0152859D01*
X0008500Y0154457D02*
X0106000Y0154457D01*
X0106000Y0152859D02*
X0074974Y0152859D01*
X0076280Y0151260D02*
X0106000Y0151260D01*
X0106000Y0149662D02*
X0076942Y0149662D01*
X0076950Y0148063D02*
X0106000Y0148063D01*
X0106000Y0146465D02*
X0076580Y0146465D01*
X0075919Y0144866D02*
X0106000Y0144866D01*
X0106000Y0143268D02*
X0076672Y0143268D01*
X0076950Y0141669D02*
X0106000Y0141669D01*
X0106000Y0140070D02*
X0076851Y0140070D01*
X0076189Y0138472D02*
X0106000Y0138472D01*
X0106000Y0136873D02*
X0076401Y0136873D01*
X0076950Y0135275D02*
X0106000Y0135275D01*
X0106000Y0133676D02*
X0076950Y0133676D01*
X0076459Y0132078D02*
X0106000Y0132078D01*
X0106000Y0130479D02*
X0076131Y0130479D01*
X0076793Y0128881D02*
X0106000Y0128881D01*
X0106000Y0127282D02*
X0076950Y0127282D01*
X0076730Y0125684D02*
X0106000Y0125684D01*
X0106000Y0124085D02*
X0076060Y0124085D01*
X0076522Y0122487D02*
X0106000Y0122487D01*
X0106000Y0120888D02*
X0076950Y0120888D01*
X0076950Y0119290D02*
X0106000Y0119290D01*
X0106000Y0117691D02*
X0076338Y0117691D01*
X0075114Y0116093D02*
X0106000Y0116093D01*
X0106000Y0101706D02*
X0075536Y0101706D01*
X0076513Y0100108D02*
X0106000Y0100108D01*
X0106000Y0098509D02*
X0076950Y0098509D01*
X0076950Y0096911D02*
X0106000Y0096911D01*
X0106000Y0095312D02*
X0076348Y0095312D01*
X0075654Y0093714D02*
X0106000Y0093714D01*
X0106000Y0074532D02*
X0048234Y0074532D01*
X0045716Y0072933D02*
X0106000Y0072933D01*
X0067494Y0077729D02*
X0064073Y0077729D01*
X0065423Y0079327D02*
X0066144Y0079327D01*
X0067279Y0116093D02*
X0064287Y0116093D01*
X0065512Y0117691D02*
X0066055Y0117691D01*
X0066113Y0151260D02*
X0065454Y0151260D01*
X0064147Y0152859D02*
X0067420Y0152859D01*
X0106000Y0156056D02*
X0018953Y0156056D01*
X0015449Y0156056D02*
X0008500Y0156056D01*
X0008500Y0157654D02*
X0011405Y0157654D01*
X0009478Y0159253D02*
X0008500Y0159253D01*
X0022997Y0157654D02*
X0106000Y0157654D01*
X0106000Y0159253D02*
X0024924Y0159253D01*
X0026203Y0160851D02*
X0106000Y0160851D01*
X0106000Y0162450D02*
X0027126Y0162450D01*
X0027582Y0164048D02*
X0106000Y0164048D01*
X0106000Y0165647D02*
X0027906Y0165647D01*
X0027906Y0167245D02*
X0106000Y0167245D01*
X0106000Y0168844D02*
X0027701Y0168844D01*
X0027273Y0170442D02*
X0106000Y0170442D01*
X0106000Y0172041D02*
X0026461Y0172041D01*
X0025371Y0173639D02*
X0106000Y0173639D01*
X0106000Y0175238D02*
X0023771Y0175238D01*
X0020620Y0176836D02*
X0106000Y0176836D01*
X0106000Y0178435D02*
X0008500Y0178435D01*
X0008500Y0180033D02*
X0106000Y0180033D01*
X0106000Y0181632D02*
X0008500Y0181632D01*
X0008500Y0183230D02*
X0016052Y0183230D01*
X0016886Y0182885D02*
X0020114Y0182885D01*
X0023097Y0184120D01*
X0025380Y0186403D01*
X0026615Y0189386D01*
X0026615Y0192614D01*
X0025380Y0195597D01*
X0023097Y0197880D01*
X0020114Y0199115D01*
X0016886Y0199115D01*
X0013903Y0197880D01*
X0011620Y0195597D01*
X0010385Y0192614D01*
X0010385Y0189386D01*
X0011620Y0186403D01*
X0013903Y0184120D01*
X0016886Y0182885D01*
X0020948Y0183230D02*
X0106000Y0183230D01*
X0106000Y0184829D02*
X0023805Y0184829D01*
X0025389Y0186427D02*
X0106000Y0186427D01*
X0106000Y0188026D02*
X0026052Y0188026D01*
X0026615Y0189624D02*
X0106000Y0189624D01*
X0106000Y0191223D02*
X0026615Y0191223D01*
X0026529Y0192821D02*
X0106000Y0192821D01*
X0106000Y0194420D02*
X0025867Y0194420D01*
X0024958Y0196018D02*
X0106000Y0196018D01*
X0106000Y0197617D02*
X0023359Y0197617D01*
X0013641Y0197617D02*
X0008500Y0197617D01*
X0008500Y0199215D02*
X0106000Y0199215D01*
X0106000Y0200814D02*
X0008500Y0200814D01*
X0008500Y0202412D02*
X0106000Y0202412D01*
X0106000Y0204011D02*
X0008500Y0204011D01*
X0008500Y0205609D02*
X0012627Y0205609D01*
X0010184Y0207208D02*
X0008500Y0207208D01*
X0008500Y0208806D02*
X0008606Y0208806D01*
X0021774Y0205609D02*
X0106000Y0205609D01*
X0106000Y0207208D02*
X0024218Y0207208D01*
X0025796Y0208806D02*
X0106000Y0208806D01*
X0106000Y0210405D02*
X0045649Y0210405D01*
X0045154Y0210200D02*
X0047285Y0211083D01*
X0048917Y0212715D01*
X0049201Y0213400D01*
X0057226Y0213400D01*
X0058181Y0213796D01*
X0058567Y0214181D01*
X0059226Y0213909D01*
X0061514Y0213909D01*
X0063629Y0214784D01*
X0065247Y0216403D01*
X0065520Y0217061D01*
X0066047Y0217061D01*
X0066320Y0216403D01*
X0067938Y0214784D01*
X0070053Y0213909D01*
X0072341Y0213909D01*
X0074456Y0214784D01*
X0076074Y0216403D01*
X0076950Y0218517D01*
X0076950Y0220806D01*
X0076074Y0222920D01*
X0075395Y0223598D01*
X0076074Y0224277D01*
X0076950Y0226391D01*
X0076950Y0228680D01*
X0076074Y0230794D01*
X0075395Y0231472D01*
X0076074Y0232151D01*
X0076950Y0234265D01*
X0076950Y0236554D01*
X0076074Y0238668D01*
X0074456Y0240286D01*
X0072341Y0241162D01*
X0070053Y0241162D01*
X0067938Y0240286D01*
X0066320Y0238668D01*
X0066047Y0238009D01*
X0065520Y0238009D01*
X0065247Y0238668D01*
X0063629Y0240286D01*
X0061514Y0241162D01*
X0059226Y0241162D01*
X0057111Y0240286D01*
X0055493Y0238668D01*
X0055465Y0238600D01*
X0049201Y0238600D01*
X0048917Y0239285D01*
X0047285Y0240917D01*
X0045154Y0241800D01*
X0036846Y0241800D01*
X0034715Y0240917D01*
X0033083Y0239285D01*
X0032200Y0237154D01*
X0032200Y0234846D01*
X0033083Y0232715D01*
X0034715Y0231083D01*
X0034915Y0231000D01*
X0034715Y0230917D01*
X0033083Y0229285D01*
X0032200Y0227154D01*
X0032200Y0224846D01*
X0033083Y0222715D01*
X0034715Y0221083D01*
X0034915Y0221000D01*
X0034715Y0220917D01*
X0033083Y0219285D01*
X0032200Y0217154D01*
X0032200Y0214846D01*
X0033083Y0212715D01*
X0034715Y0211083D01*
X0036846Y0210200D01*
X0045154Y0210200D01*
X0048206Y0212003D02*
X0106000Y0212003D01*
X0106000Y0213602D02*
X0057714Y0213602D01*
X0056709Y0216000D02*
X0060370Y0219661D01*
X0071197Y0219661D01*
X0076623Y0221595D02*
X0106000Y0221595D01*
X0106000Y0223193D02*
X0075801Y0223193D01*
X0076287Y0224792D02*
X0106000Y0224792D01*
X0106000Y0226390D02*
X0076949Y0226390D01*
X0076950Y0227989D02*
X0106000Y0227989D01*
X0106000Y0229587D02*
X0076574Y0229587D01*
X0075682Y0231186D02*
X0106000Y0231186D01*
X0106000Y0232784D02*
X0076336Y0232784D01*
X0076950Y0234383D02*
X0106000Y0234383D01*
X0106000Y0235981D02*
X0076950Y0235981D01*
X0076525Y0237580D02*
X0106000Y0237580D01*
X0106000Y0239178D02*
X0075564Y0239178D01*
X0073272Y0240777D02*
X0106000Y0240777D01*
X0106000Y0242375D02*
X0008500Y0242375D01*
X0008500Y0240777D02*
X0034574Y0240777D01*
X0033039Y0239178D02*
X0008500Y0239178D01*
X0008500Y0237580D02*
X0032376Y0237580D01*
X0032200Y0235981D02*
X0008500Y0235981D01*
X0008500Y0234383D02*
X0032392Y0234383D01*
X0033054Y0232784D02*
X0008500Y0232784D01*
X0008500Y0231186D02*
X0034612Y0231186D01*
X0033385Y0229587D02*
X0008500Y0229587D01*
X0008500Y0227989D02*
X0032546Y0227989D01*
X0032200Y0226390D02*
X0008500Y0226390D01*
X0008500Y0224792D02*
X0012177Y0224792D01*
X0009923Y0223193D02*
X0008500Y0223193D01*
X0022225Y0224792D02*
X0032223Y0224792D01*
X0032885Y0223193D02*
X0024478Y0223193D01*
X0025946Y0221595D02*
X0034203Y0221595D01*
X0033794Y0219996D02*
X0026869Y0219996D01*
X0027462Y0218398D02*
X0032715Y0218398D01*
X0032200Y0216799D02*
X0027891Y0216799D01*
X0027906Y0215201D02*
X0032200Y0215201D01*
X0032715Y0213602D02*
X0027821Y0213602D01*
X0027392Y0212003D02*
X0033794Y0212003D01*
X0036351Y0210405D02*
X0026719Y0210405D01*
X0041000Y0216000D02*
X0056709Y0216000D01*
X0064045Y0215201D02*
X0067522Y0215201D01*
X0066156Y0216799D02*
X0065411Y0216799D01*
X0074872Y0215201D02*
X0106000Y0215201D01*
X0106000Y0216799D02*
X0076238Y0216799D01*
X0076900Y0218398D02*
X0106000Y0218398D01*
X0106000Y0219996D02*
X0076950Y0219996D01*
X0071197Y0227535D02*
X0060370Y0227535D01*
X0058835Y0226000D01*
X0041000Y0226000D01*
X0041000Y0236000D02*
X0059780Y0236000D01*
X0060370Y0235409D01*
X0071197Y0235409D01*
X0066830Y0239178D02*
X0064737Y0239178D01*
X0062445Y0240777D02*
X0069122Y0240777D01*
X0058295Y0240777D02*
X0047426Y0240777D01*
X0048961Y0239178D02*
X0056003Y0239178D01*
X0059226Y0252058D02*
X0061514Y0252058D01*
X0063629Y0252934D01*
X0065247Y0254552D01*
X0065783Y0255847D01*
X0066320Y0254552D01*
X0067938Y0252934D01*
X0070053Y0252058D01*
X0072341Y0252058D01*
X0074456Y0252934D01*
X0076074Y0254552D01*
X0076950Y0256667D01*
X0076950Y0258955D01*
X0076074Y0261070D01*
X0075809Y0261335D01*
X0076074Y0261600D01*
X0076950Y0263714D01*
X0076950Y0266003D01*
X0076074Y0268117D01*
X0075809Y0268382D01*
X0076074Y0268647D01*
X0076950Y0270761D01*
X0076950Y0273050D01*
X0076074Y0275164D01*
X0075809Y0275429D01*
X0076074Y0275694D01*
X0076950Y0277808D01*
X0076950Y0280097D01*
X0076074Y0282211D01*
X0075809Y0282476D01*
X0076074Y0282741D01*
X0076950Y0284856D01*
X0076950Y0287144D01*
X0076074Y0289259D01*
X0074456Y0290877D01*
X0072341Y0291753D01*
X0070053Y0291753D01*
X0067938Y0290877D01*
X0066320Y0289259D01*
X0065783Y0287964D01*
X0065247Y0289259D01*
X0063629Y0290877D01*
X0061514Y0291753D01*
X0059226Y0291753D01*
X0057111Y0290877D01*
X0055493Y0289259D01*
X0054617Y0287144D01*
X0054617Y0284856D01*
X0055493Y0282741D01*
X0055758Y0282476D01*
X0055493Y0282211D01*
X0054617Y0280097D01*
X0054617Y0277808D01*
X0055493Y0275694D01*
X0055758Y0275429D01*
X0055493Y0275164D01*
X0054617Y0273050D01*
X0054617Y0270761D01*
X0055493Y0268647D01*
X0055758Y0268382D01*
X0055493Y0268117D01*
X0054617Y0266003D01*
X0054617Y0263714D01*
X0055493Y0261600D01*
X0055758Y0261335D01*
X0055493Y0261070D01*
X0054617Y0258955D01*
X0054617Y0256667D01*
X0055493Y0254552D01*
X0057111Y0252934D01*
X0059226Y0252058D01*
X0056481Y0253565D02*
X0008500Y0253565D01*
X0008500Y0255163D02*
X0055240Y0255163D01*
X0054617Y0256762D02*
X0008500Y0256762D01*
X0008500Y0258360D02*
X0054617Y0258360D01*
X0055033Y0259959D02*
X0008500Y0259959D01*
X0008500Y0261557D02*
X0055535Y0261557D01*
X0054848Y0263156D02*
X0008500Y0263156D01*
X0008500Y0264754D02*
X0054617Y0264754D01*
X0054762Y0266353D02*
X0008500Y0266353D01*
X0008500Y0267951D02*
X0055425Y0267951D01*
X0055119Y0269550D02*
X0008500Y0269550D01*
X0008500Y0271148D02*
X0054617Y0271148D01*
X0054617Y0272747D02*
X0008500Y0272747D01*
X0008500Y0274345D02*
X0055154Y0274345D01*
X0055390Y0275944D02*
X0008500Y0275944D01*
X0008500Y0277542D02*
X0054727Y0277542D01*
X0054617Y0279141D02*
X0008500Y0279141D01*
X0008500Y0280739D02*
X0054883Y0280739D01*
X0055620Y0282338D02*
X0008500Y0282338D01*
X0008500Y0283937D02*
X0054998Y0283937D01*
X0054617Y0285535D02*
X0026874Y0285535D01*
X0025632Y0284818D02*
X0028368Y0286398D01*
X0030602Y0288632D01*
X0032182Y0291368D01*
X0033000Y0294420D01*
X0033000Y0297580D01*
X0032182Y0300632D01*
X0030602Y0303368D01*
X0028368Y0305602D01*
X0025632Y0307182D01*
X0022580Y0308000D01*
X0019420Y0308000D01*
X0016368Y0307182D01*
X0013632Y0305602D01*
X0011398Y0303368D01*
X0009818Y0300632D01*
X0009000Y0297580D01*
X0009000Y0294420D01*
X0009818Y0291368D01*
X0011398Y0288632D01*
X0013632Y0286398D01*
X0016368Y0284818D01*
X0019420Y0284000D01*
X0022580Y0284000D01*
X0025632Y0284818D01*
X0029104Y0287134D02*
X0054617Y0287134D01*
X0055275Y0288732D02*
X0030660Y0288732D01*
X0031583Y0290331D02*
X0056565Y0290331D01*
X0064175Y0290331D02*
X0067392Y0290331D01*
X0066102Y0288732D02*
X0065465Y0288732D01*
X0075002Y0290331D02*
X0098762Y0290331D01*
X0103238Y0290331D02*
X0106000Y0290331D01*
X0106000Y0288732D02*
X0076292Y0288732D01*
X0076950Y0287134D02*
X0106000Y0287134D01*
X0106000Y0285535D02*
X0076950Y0285535D01*
X0076569Y0283937D02*
X0106000Y0283937D01*
X0106000Y0282338D02*
X0075947Y0282338D01*
X0076684Y0280739D02*
X0106000Y0280739D01*
X0106000Y0279141D02*
X0076950Y0279141D01*
X0076839Y0277542D02*
X0106000Y0277542D01*
X0106000Y0275944D02*
X0076177Y0275944D01*
X0076413Y0274345D02*
X0106000Y0274345D01*
X0106000Y0272747D02*
X0076950Y0272747D01*
X0076950Y0271148D02*
X0106000Y0271148D01*
X0106000Y0269550D02*
X0076448Y0269550D01*
X0076142Y0267951D02*
X0106000Y0267951D01*
X0106000Y0266353D02*
X0076804Y0266353D01*
X0076950Y0264754D02*
X0106000Y0264754D01*
X0106000Y0263156D02*
X0076718Y0263156D01*
X0076032Y0261557D02*
X0106000Y0261557D01*
X0106000Y0259959D02*
X0076534Y0259959D01*
X0076950Y0258360D02*
X0106000Y0258360D01*
X0106000Y0256762D02*
X0076950Y0256762D01*
X0076327Y0255163D02*
X0106000Y0255163D01*
X0106000Y0253565D02*
X0075086Y0253565D01*
X0067307Y0253565D02*
X0064259Y0253565D01*
X0065500Y0255163D02*
X0066067Y0255163D01*
X0106000Y0251966D02*
X0008500Y0251966D01*
X0008500Y0250368D02*
X0106000Y0250368D01*
X0106000Y0248769D02*
X0008500Y0248769D01*
X0008500Y0247171D02*
X0106000Y0247171D01*
X0106000Y0245572D02*
X0008500Y0245572D01*
X0008500Y0243974D02*
X0106000Y0243974D01*
X0126000Y0243974D02*
X0171675Y0243974D01*
X0171143Y0245572D02*
X0126000Y0245572D01*
X0126000Y0247171D02*
X0169595Y0247171D01*
X0171000Y0246000D02*
X0178500Y0223500D01*
X0191000Y0223500D01*
X0196000Y0218500D01*
X0196000Y0191000D01*
X0191000Y0183500D01*
X0188500Y0183500D01*
X0181000Y0178500D01*
X0176000Y0176000D01*
X0166000Y0166000D01*
X0156000Y0161000D01*
X0133500Y0161000D01*
X0128500Y0166000D01*
X0128500Y0193500D01*
X0131000Y0196000D01*
X0132022Y0196000D01*
X0134029Y0195169D01*
X0136318Y0195169D01*
X0138325Y0196000D01*
X0142848Y0196000D01*
X0144856Y0195169D01*
X0147144Y0195169D01*
X0149259Y0196044D01*
X0150877Y0197663D01*
X0151382Y0198882D01*
X0156000Y0203500D01*
X0156000Y0223500D01*
X0151000Y0228500D01*
X0147773Y0228500D01*
X0147144Y0228761D01*
X0144856Y0228761D01*
X0144227Y0228500D01*
X0136947Y0228500D01*
X0136318Y0228761D01*
X0134029Y0228761D01*
X0133400Y0228500D01*
X0128500Y0228500D01*
X0126000Y0231000D01*
X0126000Y0256000D01*
X0128500Y0258500D01*
X0133210Y0258500D01*
X0134029Y0258161D01*
X0136318Y0258161D01*
X0137137Y0258500D01*
X0144036Y0258500D01*
X0144856Y0258161D01*
X0147144Y0258161D01*
X0147964Y0258500D01*
X0156000Y0258500D01*
X0171000Y0246000D01*
X0172208Y0242375D02*
X0126000Y0242375D01*
X0126000Y0240777D02*
X0172741Y0240777D01*
X0173274Y0239178D02*
X0126000Y0239178D01*
X0126000Y0237580D02*
X0173807Y0237580D01*
X0174340Y0235981D02*
X0126000Y0235981D01*
X0126000Y0234383D02*
X0174872Y0234383D01*
X0175405Y0232784D02*
X0126000Y0232784D01*
X0126000Y0231186D02*
X0175938Y0231186D01*
X0176471Y0229587D02*
X0127413Y0229587D01*
X0126000Y0248769D02*
X0167677Y0248769D01*
X0165759Y0250368D02*
X0126000Y0250368D01*
X0126000Y0251966D02*
X0163840Y0251966D01*
X0161922Y0253565D02*
X0126000Y0253565D01*
X0126000Y0255163D02*
X0160004Y0255163D01*
X0158086Y0256762D02*
X0126762Y0256762D01*
X0128360Y0258360D02*
X0133547Y0258360D01*
X0136800Y0258360D02*
X0144374Y0258360D01*
X0147626Y0258360D02*
X0156168Y0258360D01*
X0151511Y0227989D02*
X0177004Y0227989D01*
X0177537Y0226390D02*
X0153110Y0226390D01*
X0154708Y0224792D02*
X0178069Y0224792D01*
X0170540Y0223193D02*
X0241000Y0223193D01*
X0241000Y0221595D02*
X0168142Y0221595D01*
X0165744Y0219996D02*
X0241000Y0219996D01*
X0241000Y0218398D02*
X0163346Y0218398D01*
X0160949Y0216799D02*
X0241000Y0216799D01*
X0241000Y0215201D02*
X0158551Y0215201D01*
X0156000Y0215201D02*
X0196000Y0215201D01*
X0196000Y0216799D02*
X0156000Y0216799D01*
X0156000Y0218398D02*
X0196000Y0218398D01*
X0194504Y0219996D02*
X0156000Y0219996D01*
X0156000Y0221595D02*
X0192905Y0221595D01*
X0191307Y0223193D02*
X0156000Y0223193D01*
X0156000Y0213602D02*
X0196000Y0213602D01*
X0196000Y0212003D02*
X0156000Y0212003D01*
X0241000Y0212003D01*
X0241000Y0210405D02*
X0156000Y0210405D01*
X0196000Y0210405D01*
X0196000Y0208806D02*
X0156000Y0208806D01*
X0212892Y0208806D01*
X0213535Y0209450D02*
X0210050Y0205965D01*
X0210050Y0201035D01*
X0213535Y0197550D01*
X0218465Y0197550D01*
X0221950Y0201035D01*
X0221950Y0205965D01*
X0218465Y0209450D01*
X0213535Y0209450D01*
X0211293Y0207208D02*
X0156000Y0207208D01*
X0196000Y0207208D01*
X0196000Y0205609D02*
X0156000Y0205609D01*
X0210050Y0205609D01*
X0210050Y0204011D02*
X0156000Y0204011D01*
X0196000Y0204011D01*
X0196000Y0202412D02*
X0177179Y0202412D01*
X0210050Y0202412D01*
X0210272Y0200814D02*
X0178813Y0200814D01*
X0196000Y0200814D01*
X0196000Y0199215D02*
X0179596Y0199215D01*
X0211870Y0199215D01*
X0213469Y0197617D02*
X0179982Y0197617D01*
X0196000Y0197617D01*
X0196000Y0196018D02*
X0179982Y0196018D01*
X0241000Y0196018D01*
X0241000Y0194420D02*
X0179982Y0194420D01*
X0196000Y0194420D01*
X0196000Y0192821D02*
X0179982Y0192821D01*
X0241000Y0192821D01*
X0241000Y0193500D02*
X0226000Y0206000D01*
X0218500Y0228500D01*
X0206000Y0228500D01*
X0201000Y0233500D01*
X0201000Y0261000D01*
X0206000Y0268500D01*
X0208500Y0268500D01*
X0216000Y0273500D01*
X0221000Y0276000D01*
X0231000Y0286000D01*
X0241000Y0291000D01*
X0263500Y0291000D01*
X0268500Y0286000D01*
X0268500Y0258500D01*
X0266000Y0256000D01*
X0264978Y0256000D01*
X0262971Y0256831D01*
X0260682Y0256831D01*
X0258675Y0256000D01*
X0254152Y0256000D01*
X0252144Y0256831D01*
X0249856Y0256831D01*
X0247741Y0255956D01*
X0246123Y0254337D01*
X0245618Y0253118D01*
X0241000Y0248500D01*
X0241000Y0228500D01*
X0246000Y0223500D01*
X0249227Y0223500D01*
X0249856Y0223239D01*
X0252144Y0223239D01*
X0252773Y0223500D01*
X0260053Y0223500D01*
X0260682Y0223239D01*
X0262971Y0223239D01*
X0263600Y0223500D01*
X0268500Y0223500D01*
X0271000Y0221000D01*
X0271000Y0196000D01*
X0268500Y0193500D01*
X0263790Y0193500D01*
X0262971Y0193839D01*
X0260682Y0193839D01*
X0259863Y0193500D01*
X0252964Y0193500D01*
X0252144Y0193839D01*
X0249856Y0193839D01*
X0249036Y0193500D01*
X0241000Y0193500D01*
X0239896Y0194420D02*
X0269420Y0194420D01*
X0271000Y0196018D02*
X0237978Y0196018D01*
X0236060Y0197617D02*
X0271000Y0197617D01*
X0271000Y0199215D02*
X0234142Y0199215D01*
X0232223Y0200814D02*
X0271000Y0200814D01*
X0271000Y0202412D02*
X0230305Y0202412D01*
X0228387Y0204011D02*
X0271000Y0204011D01*
X0271000Y0205609D02*
X0226469Y0205609D01*
X0225597Y0207208D02*
X0271000Y0207208D01*
X0271000Y0208806D02*
X0225065Y0208806D01*
X0224532Y0210405D02*
X0271000Y0210405D01*
X0271000Y0212003D02*
X0223999Y0212003D01*
X0223466Y0213602D02*
X0271000Y0213602D01*
X0271000Y0215201D02*
X0222933Y0215201D01*
X0222400Y0216799D02*
X0271000Y0216799D01*
X0271000Y0218398D02*
X0221867Y0218398D01*
X0221335Y0219996D02*
X0271000Y0219996D01*
X0270405Y0221595D02*
X0220802Y0221595D01*
X0220269Y0223193D02*
X0268807Y0223193D01*
X0291000Y0223193D02*
X0320103Y0223193D01*
X0320050Y0223320D02*
X0320926Y0221206D01*
X0321605Y0220528D01*
X0320926Y0219849D01*
X0320050Y0217735D01*
X0320050Y0215446D01*
X0320926Y0213332D01*
X0322544Y0211714D01*
X0324659Y0210838D01*
X0326947Y0210838D01*
X0329062Y0211714D01*
X0330680Y0213332D01*
X0331217Y0214627D01*
X0331753Y0213332D01*
X0333371Y0211714D01*
X0335486Y0210838D01*
X0337774Y0210838D01*
X0339889Y0211714D01*
X0341507Y0213332D01*
X0342383Y0215446D01*
X0342383Y0217735D01*
X0341507Y0219849D01*
X0340829Y0220528D01*
X0341507Y0221206D01*
X0342383Y0223320D01*
X0342383Y0225609D01*
X0341507Y0227723D01*
X0340829Y0228402D01*
X0341507Y0229080D01*
X0342383Y0231194D01*
X0342383Y0233483D01*
X0341507Y0235597D01*
X0339889Y0237216D01*
X0337774Y0238091D01*
X0335486Y0238091D01*
X0333371Y0237216D01*
X0331753Y0235597D01*
X0331217Y0234302D01*
X0330680Y0235597D01*
X0329062Y0237216D01*
X0326947Y0238091D01*
X0324659Y0238091D01*
X0322544Y0237216D01*
X0320926Y0235597D01*
X0320050Y0233483D01*
X0320050Y0231194D01*
X0320926Y0229080D01*
X0321605Y0228402D01*
X0320926Y0227723D01*
X0320050Y0225609D01*
X0320050Y0223320D01*
X0320050Y0224792D02*
X0291000Y0224792D01*
X0291000Y0226390D02*
X0320374Y0226390D01*
X0321192Y0227989D02*
X0291000Y0227989D01*
X0291000Y0229587D02*
X0320716Y0229587D01*
X0320054Y0231186D02*
X0291000Y0231186D01*
X0291000Y0232784D02*
X0320050Y0232784D01*
X0320423Y0234383D02*
X0291000Y0234383D01*
X0291000Y0235981D02*
X0321310Y0235981D01*
X0323424Y0237580D02*
X0291000Y0237580D01*
X0291000Y0239178D02*
X0351552Y0239178D01*
X0351846Y0239300D02*
X0349715Y0238417D01*
X0348083Y0236785D01*
X0347200Y0234654D01*
X0347200Y0232346D01*
X0348083Y0230215D01*
X0349715Y0228583D01*
X0349915Y0228500D01*
X0349715Y0228417D01*
X0348083Y0226785D01*
X0347200Y0224654D01*
X0347200Y0222346D01*
X0348083Y0220215D01*
X0349715Y0218583D01*
X0349915Y0218500D01*
X0349715Y0218417D01*
X0348083Y0216785D01*
X0347200Y0214654D01*
X0347200Y0212346D01*
X0348083Y0210215D01*
X0349715Y0208583D01*
X0351846Y0207700D01*
X0360154Y0207700D01*
X0362285Y0208583D01*
X0363917Y0210215D01*
X0364800Y0212346D01*
X0364800Y0214654D01*
X0363917Y0216785D01*
X0362285Y0218417D01*
X0362085Y0218500D01*
X0362285Y0218583D01*
X0363917Y0220215D01*
X0364800Y0222346D01*
X0364800Y0224654D01*
X0363917Y0226785D01*
X0362285Y0228417D01*
X0362085Y0228500D01*
X0362285Y0228583D01*
X0363917Y0230215D01*
X0364800Y0232346D01*
X0364800Y0234654D01*
X0363917Y0236785D01*
X0362285Y0238417D01*
X0360154Y0239300D01*
X0351846Y0239300D01*
X0348877Y0237580D02*
X0339009Y0237580D01*
X0341123Y0235981D02*
X0347750Y0235981D01*
X0347200Y0234383D02*
X0342010Y0234383D01*
X0342383Y0232784D02*
X0347200Y0232784D01*
X0347681Y0231186D02*
X0342379Y0231186D01*
X0341717Y0229587D02*
X0348710Y0229587D01*
X0349286Y0227989D02*
X0341241Y0227989D01*
X0342059Y0226390D02*
X0347919Y0226390D01*
X0347257Y0224792D02*
X0342383Y0224792D01*
X0342330Y0223193D02*
X0347200Y0223193D01*
X0347511Y0221595D02*
X0341668Y0221595D01*
X0341360Y0219996D02*
X0348302Y0219996D01*
X0349695Y0218398D02*
X0342108Y0218398D01*
X0342383Y0216799D02*
X0348097Y0216799D01*
X0347427Y0215201D02*
X0342281Y0215201D01*
X0341619Y0213602D02*
X0347200Y0213602D01*
X0347342Y0212003D02*
X0340178Y0212003D01*
X0333081Y0212003D02*
X0329352Y0212003D01*
X0330792Y0213602D02*
X0331641Y0213602D01*
X0322255Y0212003D02*
X0291000Y0212003D01*
X0291000Y0210405D02*
X0348004Y0210405D01*
X0349491Y0208806D02*
X0291000Y0208806D01*
X0291000Y0207208D02*
X0372782Y0207208D01*
X0373226Y0206764D02*
X0375667Y0205355D01*
X0378390Y0204625D01*
X0381209Y0204625D01*
X0383931Y0205355D01*
X0386000Y0206549D01*
X0386000Y0194099D01*
X0385380Y0195597D01*
X0383097Y0197880D01*
X0380114Y0199115D01*
X0376886Y0199115D01*
X0373903Y0197880D01*
X0371620Y0195597D01*
X0370385Y0192614D01*
X0370385Y0189386D01*
X0371620Y0186403D01*
X0373903Y0184120D01*
X0376886Y0182885D01*
X0380114Y0182885D01*
X0383097Y0184120D01*
X0385380Y0186403D01*
X0386000Y0187901D01*
X0386000Y0175451D01*
X0383931Y0176645D01*
X0381209Y0177375D01*
X0378390Y0177375D01*
X0375667Y0176645D01*
X0373226Y0175236D01*
X0371233Y0173243D01*
X0369823Y0170801D01*
X0369094Y0168079D01*
X0369094Y0165260D01*
X0369823Y0162537D01*
X0371233Y0160096D01*
X0373226Y0158103D01*
X0375667Y0156693D01*
X0378390Y0155964D01*
X0381209Y0155964D01*
X0383931Y0156693D01*
X0386000Y0157888D01*
X0386000Y0089415D01*
X0383465Y0091950D01*
X0378535Y0091950D01*
X0375050Y0088465D01*
X0375050Y0083535D01*
X0378535Y0080050D01*
X0383465Y0080050D01*
X0386000Y0082585D01*
X0386000Y0026000D01*
X0381970Y0026000D01*
X0380602Y0028368D01*
X0378368Y0030602D01*
X0375632Y0032182D01*
X0372580Y0033000D01*
X0369420Y0033000D01*
X0366368Y0032182D01*
X0363632Y0030602D01*
X0361398Y0028368D01*
X0360030Y0026000D01*
X0351915Y0026000D01*
X0354450Y0028535D01*
X0354450Y0033465D01*
X0350965Y0036950D01*
X0346035Y0036950D01*
X0342550Y0033465D01*
X0342550Y0028535D01*
X0345085Y0026000D01*
X0339591Y0026000D01*
X0339889Y0026123D01*
X0341507Y0027741D01*
X0342383Y0029856D01*
X0342383Y0032144D01*
X0341507Y0034259D01*
X0341242Y0034524D01*
X0341507Y0034789D01*
X0342383Y0036903D01*
X0342383Y0039192D01*
X0341507Y0041306D01*
X0341242Y0041571D01*
X0341507Y0041836D01*
X0342383Y0043950D01*
X0342383Y0046239D01*
X0341507Y0048353D01*
X0341242Y0048618D01*
X0341507Y0048883D01*
X0342383Y0050997D01*
X0342383Y0053286D01*
X0341507Y0055400D01*
X0341242Y0055665D01*
X0341507Y0055930D01*
X0342383Y0058045D01*
X0342383Y0060333D01*
X0341507Y0062448D01*
X0339889Y0064066D01*
X0337774Y0064942D01*
X0335486Y0064942D01*
X0333371Y0064066D01*
X0331753Y0062448D01*
X0331217Y0061153D01*
X0330680Y0062448D01*
X0329062Y0064066D01*
X0326947Y0064942D01*
X0324659Y0064942D01*
X0322544Y0064066D01*
X0320926Y0062448D01*
X0320050Y0060333D01*
X0320050Y0058045D01*
X0320926Y0055930D01*
X0321191Y0055665D01*
X0320926Y0055400D01*
X0320050Y0053286D01*
X0320050Y0050997D01*
X0320926Y0048883D01*
X0321191Y0048618D01*
X0320926Y0048353D01*
X0320050Y0046239D01*
X0320050Y0043950D01*
X0320926Y0041836D01*
X0321191Y0041571D01*
X0320926Y0041306D01*
X0320050Y0039192D01*
X0320050Y0036903D01*
X0320926Y0034789D01*
X0321191Y0034524D01*
X0320926Y0034259D01*
X0320050Y0032144D01*
X0320050Y0029856D01*
X0320926Y0027741D01*
X0322544Y0026123D01*
X0322842Y0026000D01*
X0298237Y0026000D01*
X0295251Y0026800D01*
X0291749Y0026800D01*
X0291000Y0026599D01*
X0291000Y0291071D01*
X0294249Y0290200D01*
X0297751Y0290200D01*
X0301134Y0291106D01*
X0304166Y0292857D01*
X0306643Y0295334D01*
X0308394Y0298366D01*
X0309300Y0301749D01*
X0309300Y0305251D01*
X0308429Y0308500D01*
X0386000Y0308500D01*
X0386000Y0224112D01*
X0383931Y0225307D01*
X0381209Y0226036D01*
X0378390Y0226036D01*
X0375667Y0225307D01*
X0373226Y0223897D01*
X0371233Y0221904D01*
X0369823Y0219463D01*
X0369094Y0216740D01*
X0369094Y0213921D01*
X0369823Y0211199D01*
X0371233Y0208757D01*
X0373226Y0206764D01*
X0375226Y0205609D02*
X0291000Y0205609D01*
X0291000Y0204011D02*
X0386000Y0204011D01*
X0386000Y0205609D02*
X0384373Y0205609D01*
X0386000Y0202412D02*
X0291000Y0202412D01*
X0291000Y0200814D02*
X0386000Y0200814D01*
X0386000Y0199215D02*
X0339528Y0199215D01*
X0339889Y0199066D02*
X0337774Y0199942D01*
X0335486Y0199942D01*
X0333371Y0199066D01*
X0331753Y0197448D01*
X0331217Y0196153D01*
X0330680Y0197448D01*
X0329062Y0199066D01*
X0326947Y0199942D01*
X0324659Y0199942D01*
X0322544Y0199066D01*
X0320926Y0197448D01*
X0320050Y0195333D01*
X0320050Y0193045D01*
X0320926Y0190930D01*
X0321191Y0190665D01*
X0320926Y0190400D01*
X0320050Y0188286D01*
X0320050Y0185997D01*
X0320926Y0183883D01*
X0321191Y0183618D01*
X0320926Y0183353D01*
X0320050Y0181239D01*
X0320050Y0178950D01*
X0320926Y0176836D01*
X0291000Y0176836D01*
X0291000Y0175238D02*
X0320484Y0175238D01*
X0320050Y0174192D02*
X0320050Y0171903D01*
X0320926Y0169789D01*
X0321191Y0169524D01*
X0320926Y0169259D01*
X0320050Y0167144D01*
X0320050Y0164856D01*
X0320926Y0162741D01*
X0322544Y0161123D01*
X0324659Y0160247D01*
X0326947Y0160247D01*
X0329062Y0161123D01*
X0330680Y0162741D01*
X0331217Y0164036D01*
X0331753Y0162741D01*
X0333371Y0161123D01*
X0335486Y0160247D01*
X0337774Y0160247D01*
X0339889Y0161123D01*
X0341507Y0162741D01*
X0342383Y0164856D01*
X0342383Y0167144D01*
X0341507Y0169259D01*
X0341242Y0169524D01*
X0341507Y0169789D01*
X0342383Y0171903D01*
X0342383Y0174192D01*
X0341507Y0176306D01*
X0341242Y0176571D01*
X0341507Y0176836D01*
X0342383Y0178950D01*
X0342383Y0181239D01*
X0341507Y0183353D01*
X0341242Y0183618D01*
X0341507Y0183883D01*
X0342383Y0185997D01*
X0342383Y0188286D01*
X0341507Y0190400D01*
X0341242Y0190665D01*
X0341507Y0190930D01*
X0342383Y0193045D01*
X0342383Y0195333D01*
X0341507Y0197448D01*
X0339889Y0199066D01*
X0341338Y0197617D02*
X0373641Y0197617D01*
X0372042Y0196018D02*
X0342099Y0196018D01*
X0342383Y0194420D02*
X0371133Y0194420D01*
X0370471Y0192821D02*
X0342290Y0192821D01*
X0341628Y0191223D02*
X0370385Y0191223D01*
X0370385Y0189624D02*
X0341828Y0189624D01*
X0342383Y0188026D02*
X0370948Y0188026D01*
X0371610Y0186427D02*
X0342383Y0186427D01*
X0341899Y0184829D02*
X0373195Y0184829D01*
X0376052Y0183230D02*
X0341558Y0183230D01*
X0342220Y0181632D02*
X0386000Y0181632D01*
X0386000Y0183230D02*
X0380948Y0183230D01*
X0383805Y0184829D02*
X0386000Y0184829D01*
X0386000Y0186427D02*
X0385389Y0186427D01*
X0386000Y0180033D02*
X0342383Y0180033D01*
X0342169Y0178435D02*
X0386000Y0178435D01*
X0386000Y0176836D02*
X0383219Y0176836D01*
X0376380Y0176836D02*
X0341507Y0176836D01*
X0341949Y0175238D02*
X0373229Y0175238D01*
X0371629Y0173639D02*
X0342383Y0173639D01*
X0342383Y0172041D02*
X0370539Y0172041D01*
X0369727Y0170442D02*
X0341778Y0170442D01*
X0341679Y0168844D02*
X0369299Y0168844D01*
X0369094Y0167245D02*
X0342341Y0167245D01*
X0342383Y0165647D02*
X0369094Y0165647D01*
X0369418Y0164048D02*
X0342048Y0164048D01*
X0341215Y0162450D02*
X0369874Y0162450D01*
X0370797Y0160851D02*
X0339232Y0160851D01*
X0334028Y0160851D02*
X0328405Y0160851D01*
X0330388Y0162450D02*
X0332045Y0162450D01*
X0323201Y0160851D02*
X0291000Y0160851D01*
X0291000Y0159253D02*
X0372076Y0159253D01*
X0374003Y0157654D02*
X0291000Y0157654D01*
X0291000Y0156056D02*
X0378047Y0156056D01*
X0381551Y0156056D02*
X0386000Y0156056D01*
X0386000Y0157654D02*
X0385595Y0157654D01*
X0386000Y0154457D02*
X0291000Y0154457D01*
X0291000Y0152859D02*
X0386000Y0152859D01*
X0386000Y0151260D02*
X0291000Y0151260D01*
X0291000Y0149662D02*
X0386000Y0149662D01*
X0386000Y0148063D02*
X0291000Y0148063D01*
X0291000Y0146465D02*
X0386000Y0146465D01*
X0386000Y0144866D02*
X0291000Y0144866D01*
X0291000Y0143268D02*
X0386000Y0143268D01*
X0386000Y0141669D02*
X0291000Y0141669D01*
X0291000Y0140070D02*
X0386000Y0140070D01*
X0386000Y0138472D02*
X0291000Y0138472D01*
X0291000Y0136873D02*
X0386000Y0136873D01*
X0386000Y0135275D02*
X0291000Y0135275D01*
X0291000Y0133676D02*
X0386000Y0133676D01*
X0386000Y0132078D02*
X0291000Y0132078D01*
X0291000Y0130479D02*
X0386000Y0130479D01*
X0386000Y0128881D02*
X0291000Y0128881D01*
X0291000Y0127282D02*
X0386000Y0127282D01*
X0386000Y0125684D02*
X0291000Y0125684D01*
X0291000Y0124085D02*
X0386000Y0124085D01*
X0386000Y0122487D02*
X0291000Y0122487D01*
X0291000Y0120888D02*
X0386000Y0120888D01*
X0386000Y0119290D02*
X0291000Y0119290D01*
X0291000Y0117691D02*
X0386000Y0117691D01*
X0386000Y0116093D02*
X0291000Y0116093D01*
X0291000Y0114494D02*
X0386000Y0114494D01*
X0386000Y0112896D02*
X0291000Y0112896D01*
X0291000Y0111297D02*
X0386000Y0111297D01*
X0386000Y0109699D02*
X0291000Y0109699D01*
X0291000Y0108100D02*
X0386000Y0108100D01*
X0386000Y0106502D02*
X0291000Y0106502D01*
X0291000Y0104903D02*
X0386000Y0104903D01*
X0386000Y0103305D02*
X0359898Y0103305D01*
X0359785Y0103417D02*
X0357654Y0104300D01*
X0349346Y0104300D01*
X0347215Y0103417D01*
X0345583Y0101785D01*
X0345299Y0101100D01*
X0341004Y0101100D01*
X0339889Y0102216D01*
X0337774Y0103091D01*
X0335486Y0103091D01*
X0333371Y0102216D01*
X0331753Y0100597D01*
X0331480Y0099939D01*
X0330953Y0099939D01*
X0330680Y0100597D01*
X0329062Y0102216D01*
X0326947Y0103091D01*
X0324659Y0103091D01*
X0322544Y0102216D01*
X0320926Y0100597D01*
X0320050Y0098483D01*
X0320050Y0096194D01*
X0320926Y0094080D01*
X0321605Y0093402D01*
X0320926Y0092723D01*
X0320050Y0090609D01*
X0320050Y0088320D01*
X0320926Y0086206D01*
X0321605Y0085528D01*
X0320926Y0084849D01*
X0320050Y0082735D01*
X0320050Y0080446D01*
X0320926Y0078332D01*
X0322544Y0076714D01*
X0324659Y0075838D01*
X0326947Y0075838D01*
X0329062Y0076714D01*
X0330680Y0078332D01*
X0330953Y0078991D01*
X0331480Y0078991D01*
X0331753Y0078332D01*
X0333371Y0076714D01*
X0335486Y0075838D01*
X0337774Y0075838D01*
X0338564Y0076165D01*
X0339203Y0075900D01*
X0345299Y0075900D01*
X0345583Y0075215D01*
X0347215Y0073583D01*
X0349346Y0072700D01*
X0357654Y0072700D01*
X0359785Y0073583D01*
X0361417Y0075215D01*
X0362300Y0077346D01*
X0362300Y0079654D01*
X0361417Y0081785D01*
X0359785Y0083417D01*
X0359585Y0083500D01*
X0359785Y0083583D01*
X0361417Y0085215D01*
X0362300Y0087346D01*
X0362300Y0089654D01*
X0361417Y0091785D01*
X0359785Y0093417D01*
X0359585Y0093500D01*
X0359785Y0093583D01*
X0361417Y0095215D01*
X0362300Y0097346D01*
X0362300Y0099654D01*
X0361417Y0101785D01*
X0359785Y0103417D01*
X0361450Y0101706D02*
X0386000Y0101706D01*
X0386000Y0100108D02*
X0362112Y0100108D01*
X0362300Y0098509D02*
X0386000Y0098509D01*
X0386000Y0096911D02*
X0362120Y0096911D01*
X0361457Y0095312D02*
X0386000Y0095312D01*
X0386000Y0093714D02*
X0359916Y0093714D01*
X0361087Y0092115D02*
X0386000Y0092115D01*
X0386000Y0090517D02*
X0384898Y0090517D01*
X0377102Y0090517D02*
X0361943Y0090517D01*
X0362300Y0088918D02*
X0375504Y0088918D01*
X0375050Y0087320D02*
X0362289Y0087320D01*
X0361627Y0085721D02*
X0375050Y0085721D01*
X0375050Y0084123D02*
X0360325Y0084123D01*
X0360678Y0082524D02*
X0376061Y0082524D01*
X0377660Y0080926D02*
X0361773Y0080926D01*
X0362300Y0079327D02*
X0386000Y0079327D01*
X0386000Y0077729D02*
X0362300Y0077729D01*
X0361796Y0076130D02*
X0386000Y0076130D01*
X0386000Y0074532D02*
X0360734Y0074532D01*
X0358216Y0072933D02*
X0386000Y0072933D01*
X0386000Y0071334D02*
X0291000Y0071334D01*
X0291000Y0069736D02*
X0386000Y0069736D01*
X0386000Y0068137D02*
X0291000Y0068137D01*
X0291000Y0066539D02*
X0386000Y0066539D01*
X0386000Y0064940D02*
X0337777Y0064940D01*
X0335483Y0064940D02*
X0326951Y0064940D01*
X0324656Y0064940D02*
X0291000Y0064940D01*
X0291000Y0063342D02*
X0321820Y0063342D01*
X0320635Y0061743D02*
X0291000Y0061743D01*
X0291000Y0060145D02*
X0320050Y0060145D01*
X0320050Y0058546D02*
X0291000Y0058546D01*
X0291000Y0056948D02*
X0320505Y0056948D01*
X0320905Y0055349D02*
X0291000Y0055349D01*
X0291000Y0053751D02*
X0320243Y0053751D01*
X0320050Y0052152D02*
X0291000Y0052152D01*
X0291000Y0050554D02*
X0320234Y0050554D01*
X0320896Y0048955D02*
X0291000Y0048955D01*
X0291000Y0047357D02*
X0320514Y0047357D01*
X0320050Y0045758D02*
X0291000Y0045758D01*
X0291000Y0044160D02*
X0320050Y0044160D01*
X0320626Y0042561D02*
X0291000Y0042561D01*
X0291000Y0040963D02*
X0320784Y0040963D01*
X0320122Y0039364D02*
X0291000Y0039364D01*
X0291000Y0037766D02*
X0320050Y0037766D01*
X0320355Y0036167D02*
X0291000Y0036167D01*
X0291000Y0034569D02*
X0321146Y0034569D01*
X0320393Y0032970D02*
X0291000Y0032970D01*
X0291000Y0031372D02*
X0320050Y0031372D01*
X0320085Y0029773D02*
X0291000Y0029773D01*
X0291000Y0028175D02*
X0320747Y0028175D01*
X0322091Y0026576D02*
X0296086Y0026576D01*
X0268546Y0058546D02*
X0263678Y0058546D01*
X0259975Y0058546D02*
X0252852Y0058546D01*
X0249148Y0058546D02*
X0240944Y0058546D01*
X0241000Y0058546D02*
X0223359Y0058546D01*
X0224916Y0060145D02*
X0241000Y0060145D01*
X0241000Y0061743D02*
X0225578Y0061743D01*
X0225850Y0063342D02*
X0241000Y0063342D01*
X0241000Y0064940D02*
X0225840Y0064940D01*
X0225178Y0066539D02*
X0241000Y0066539D01*
X0241000Y0068137D02*
X0223990Y0068137D01*
X0221378Y0069736D02*
X0241000Y0069736D01*
X0235190Y0063342D02*
X0271000Y0063342D01*
X0271000Y0064940D02*
X0233271Y0064940D01*
X0231353Y0066539D02*
X0271000Y0066539D01*
X0271000Y0068137D02*
X0229435Y0068137D01*
X0227517Y0069736D02*
X0271000Y0069736D01*
X0271000Y0071334D02*
X0225889Y0071334D01*
X0225356Y0072933D02*
X0271000Y0072933D01*
X0271000Y0074532D02*
X0224823Y0074532D01*
X0224290Y0076130D02*
X0271000Y0076130D01*
X0271000Y0077729D02*
X0223757Y0077729D01*
X0223224Y0079327D02*
X0271000Y0079327D01*
X0271000Y0080926D02*
X0222691Y0080926D01*
X0222159Y0082524D02*
X0271000Y0082524D01*
X0271000Y0084123D02*
X0221626Y0084123D01*
X0221093Y0085721D02*
X0271000Y0085721D01*
X0269680Y0087320D02*
X0220560Y0087320D01*
X0220027Y0088918D02*
X0245582Y0088918D01*
X0243983Y0090517D02*
X0219494Y0090517D01*
X0218962Y0092115D02*
X0242385Y0092115D01*
X0241000Y0098509D02*
X0223322Y0098509D01*
X0241000Y0098509D01*
X0241000Y0100108D02*
X0224901Y0100108D01*
X0241000Y0100108D01*
X0241000Y0101706D02*
X0225563Y0101706D01*
X0241000Y0101706D01*
X0241000Y0103305D02*
X0225850Y0103305D01*
X0241000Y0103305D01*
X0241000Y0104903D02*
X0225850Y0104903D01*
X0241000Y0104903D01*
X0241000Y0106502D02*
X0225193Y0106502D01*
X0241000Y0106502D01*
X0241000Y0108100D02*
X0224027Y0108100D01*
X0241000Y0108100D01*
X0241000Y0109699D02*
X0221468Y0109699D01*
X0241000Y0109699D01*
X0243593Y0116093D02*
X0208500Y0116093D01*
X0208500Y0117691D02*
X0245191Y0117691D01*
X0246103Y0119290D02*
X0208500Y0119290D01*
X0208500Y0120888D02*
X0247674Y0120888D01*
X0241000Y0122487D02*
X0156000Y0122487D01*
X0156000Y0124085D02*
X0241000Y0124085D01*
X0241000Y0125684D02*
X0156000Y0125684D01*
X0156000Y0127282D02*
X0241000Y0127282D01*
X0241000Y0128881D02*
X0156000Y0128881D01*
X0156000Y0130479D02*
X0241000Y0130479D01*
X0241000Y0132078D02*
X0156000Y0132078D01*
X0156000Y0133676D02*
X0241000Y0133676D01*
X0241000Y0135275D02*
X0156000Y0135275D01*
X0156000Y0136873D02*
X0241000Y0136873D01*
X0241000Y0138472D02*
X0223284Y0138472D01*
X0223458Y0138472D02*
X0268500Y0138472D01*
X0268500Y0140070D02*
X0224883Y0140070D01*
X0241000Y0140070D01*
X0241000Y0141669D02*
X0225547Y0141669D01*
X0268500Y0141669D01*
X0268500Y0143268D02*
X0225850Y0143268D01*
X0241000Y0143268D01*
X0241000Y0144866D02*
X0225850Y0144866D01*
X0268500Y0144866D01*
X0268500Y0146465D02*
X0226465Y0146465D01*
X0225208Y0146465D02*
X0241000Y0146465D01*
X0241000Y0148063D02*
X0224064Y0148063D01*
X0224887Y0147240D02*
X0223108Y0149020D01*
X0220783Y0149982D01*
X0211217Y0149982D01*
X0208892Y0149020D01*
X0207113Y0147240D01*
X0206150Y0144916D01*
X0206150Y0142399D01*
X0207113Y0140075D01*
X0208892Y0138295D01*
X0211217Y0137332D01*
X0220783Y0137332D01*
X0223108Y0138295D01*
X0224887Y0140075D01*
X0225850Y0142399D01*
X0225850Y0144916D01*
X0224887Y0147240D01*
X0228063Y0148063D02*
X0268500Y0148063D01*
X0268500Y0149662D02*
X0229662Y0149662D01*
X0231520Y0151260D02*
X0268240Y0151260D01*
X0266641Y0152859D02*
X0234717Y0152859D01*
X0237914Y0154457D02*
X0265043Y0154457D01*
X0268500Y0136873D02*
X0221060Y0136873D01*
X0218662Y0135275D02*
X0268500Y0135275D01*
X0268500Y0133676D02*
X0216265Y0133676D01*
X0212552Y0132078D02*
X0268500Y0132078D01*
X0268500Y0130479D02*
X0211486Y0130479D01*
X0210421Y0128881D02*
X0268500Y0128881D01*
X0268500Y0127282D02*
X0209355Y0127282D01*
X0208500Y0125684D02*
X0268500Y0125684D01*
X0268500Y0124085D02*
X0208500Y0124085D01*
X0208500Y0122487D02*
X0267487Y0122487D01*
X0291000Y0103305D02*
X0347102Y0103305D01*
X0345550Y0101706D02*
X0340398Y0101706D01*
X0337791Y0098500D02*
X0336630Y0097339D01*
X0325803Y0097339D01*
X0330883Y0100108D02*
X0331550Y0100108D01*
X0332862Y0101706D02*
X0329571Y0101706D01*
X0322035Y0101706D02*
X0291000Y0101706D01*
X0291000Y0100108D02*
X0320723Y0100108D01*
X0320061Y0098509D02*
X0291000Y0098509D01*
X0291000Y0096911D02*
X0320050Y0096911D01*
X0320416Y0095312D02*
X0291000Y0095312D01*
X0291000Y0093714D02*
X0321292Y0093714D01*
X0320674Y0092115D02*
X0291000Y0092115D01*
X0291000Y0090517D02*
X0320050Y0090517D01*
X0320050Y0088918D02*
X0291000Y0088918D01*
X0291000Y0087320D02*
X0320465Y0087320D01*
X0321411Y0085721D02*
X0291000Y0085721D01*
X0291000Y0084123D02*
X0320625Y0084123D01*
X0320050Y0082524D02*
X0291000Y0082524D01*
X0291000Y0080926D02*
X0320050Y0080926D01*
X0320514Y0079327D02*
X0291000Y0079327D01*
X0291000Y0077729D02*
X0321530Y0077729D01*
X0323953Y0076130D02*
X0291000Y0076130D01*
X0291000Y0074532D02*
X0346266Y0074532D01*
X0348784Y0072933D02*
X0291000Y0072933D01*
X0271000Y0061743D02*
X0237108Y0061743D01*
X0239026Y0060145D02*
X0270145Y0060145D01*
X0325803Y0081591D02*
X0336630Y0081591D01*
X0339720Y0078500D01*
X0353500Y0078500D01*
X0353500Y0088500D02*
X0337594Y0088500D01*
X0336630Y0089465D01*
X0325803Y0089465D01*
X0337791Y0098500D02*
X0353500Y0098500D01*
X0338648Y0076130D02*
X0338480Y0076130D01*
X0334780Y0076130D02*
X0327653Y0076130D01*
X0330077Y0077729D02*
X0332356Y0077729D01*
X0332647Y0063342D02*
X0329786Y0063342D01*
X0330972Y0061743D02*
X0331461Y0061743D01*
X0340613Y0063342D02*
X0386000Y0063342D01*
X0386000Y0061743D02*
X0341799Y0061743D01*
X0342383Y0060145D02*
X0386000Y0060145D01*
X0386000Y0058546D02*
X0342383Y0058546D01*
X0341928Y0056948D02*
X0386000Y0056948D01*
X0386000Y0055349D02*
X0341528Y0055349D01*
X0342190Y0053751D02*
X0386000Y0053751D01*
X0386000Y0052152D02*
X0342383Y0052152D01*
X0342199Y0050554D02*
X0386000Y0050554D01*
X0386000Y0048955D02*
X0341537Y0048955D01*
X0341920Y0047357D02*
X0386000Y0047357D01*
X0386000Y0045758D02*
X0342383Y0045758D01*
X0342383Y0044160D02*
X0386000Y0044160D01*
X0386000Y0042561D02*
X0341807Y0042561D01*
X0341649Y0040963D02*
X0386000Y0040963D01*
X0386000Y0039364D02*
X0342311Y0039364D01*
X0342383Y0037766D02*
X0386000Y0037766D01*
X0386000Y0036167D02*
X0351747Y0036167D01*
X0353346Y0034569D02*
X0386000Y0034569D01*
X0386000Y0032970D02*
X0372691Y0032970D01*
X0369309Y0032970D02*
X0354450Y0032970D01*
X0354450Y0031372D02*
X0364964Y0031372D01*
X0362803Y0029773D02*
X0354450Y0029773D01*
X0354089Y0028175D02*
X0361286Y0028175D01*
X0360363Y0026576D02*
X0352491Y0026576D01*
X0344509Y0026576D02*
X0340342Y0026576D01*
X0341686Y0028175D02*
X0342911Y0028175D01*
X0342550Y0029773D02*
X0342348Y0029773D01*
X0342383Y0031372D02*
X0342550Y0031372D01*
X0342550Y0032970D02*
X0342041Y0032970D01*
X0341287Y0034569D02*
X0343654Y0034569D01*
X0342078Y0036167D02*
X0345253Y0036167D01*
X0377036Y0031372D02*
X0386000Y0031372D01*
X0386000Y0029773D02*
X0379197Y0029773D01*
X0380714Y0028175D02*
X0386000Y0028175D01*
X0386000Y0026576D02*
X0381637Y0026576D01*
X0384340Y0080926D02*
X0386000Y0080926D01*
X0386000Y0082524D02*
X0385939Y0082524D01*
X0321218Y0162450D02*
X0291000Y0162450D01*
X0291000Y0164048D02*
X0320385Y0164048D01*
X0320050Y0165647D02*
X0291000Y0165647D01*
X0291000Y0167245D02*
X0320092Y0167245D01*
X0320754Y0168844D02*
X0291000Y0168844D01*
X0291000Y0170442D02*
X0320655Y0170442D01*
X0320050Y0172041D02*
X0291000Y0172041D01*
X0291000Y0173639D02*
X0320050Y0173639D01*
X0320050Y0174192D02*
X0320926Y0176306D01*
X0321191Y0176571D01*
X0320926Y0176836D01*
X0320264Y0178435D02*
X0291000Y0178435D01*
X0291000Y0180033D02*
X0320050Y0180033D01*
X0320213Y0181632D02*
X0291000Y0181632D01*
X0291000Y0183230D02*
X0320875Y0183230D01*
X0320534Y0184829D02*
X0291000Y0184829D01*
X0291000Y0186427D02*
X0320050Y0186427D01*
X0320050Y0188026D02*
X0291000Y0188026D01*
X0291000Y0189624D02*
X0320605Y0189624D01*
X0320805Y0191223D02*
X0291000Y0191223D01*
X0291000Y0192821D02*
X0320143Y0192821D01*
X0320050Y0194420D02*
X0291000Y0194420D01*
X0291000Y0196018D02*
X0320334Y0196018D01*
X0321095Y0197617D02*
X0291000Y0197617D01*
X0291000Y0199215D02*
X0322905Y0199215D01*
X0328701Y0199215D02*
X0333732Y0199215D01*
X0331922Y0197617D02*
X0330511Y0197617D01*
X0320814Y0213602D02*
X0291000Y0213602D01*
X0291000Y0215201D02*
X0320152Y0215201D01*
X0320050Y0216799D02*
X0291000Y0216799D01*
X0291000Y0218398D02*
X0320325Y0218398D01*
X0321073Y0219996D02*
X0291000Y0219996D01*
X0291000Y0221595D02*
X0320765Y0221595D01*
X0331183Y0234383D02*
X0331250Y0234383D01*
X0332137Y0235981D02*
X0330296Y0235981D01*
X0328183Y0237580D02*
X0334250Y0237580D01*
X0360448Y0239178D02*
X0386000Y0239178D01*
X0386000Y0237580D02*
X0363123Y0237580D01*
X0364250Y0235981D02*
X0386000Y0235981D01*
X0386000Y0234383D02*
X0364800Y0234383D01*
X0364800Y0232784D02*
X0386000Y0232784D01*
X0386000Y0231186D02*
X0364319Y0231186D01*
X0363290Y0229587D02*
X0386000Y0229587D01*
X0386000Y0227989D02*
X0362714Y0227989D01*
X0364081Y0226390D02*
X0386000Y0226390D01*
X0386000Y0224792D02*
X0384823Y0224792D01*
X0374775Y0224792D02*
X0364743Y0224792D01*
X0364800Y0223193D02*
X0372522Y0223193D01*
X0371054Y0221595D02*
X0364489Y0221595D01*
X0363698Y0219996D02*
X0370131Y0219996D01*
X0369538Y0218398D02*
X0362305Y0218398D01*
X0363903Y0216799D02*
X0369109Y0216799D01*
X0369094Y0215201D02*
X0364573Y0215201D01*
X0364800Y0213602D02*
X0369179Y0213602D01*
X0369608Y0212003D02*
X0364658Y0212003D01*
X0363996Y0210405D02*
X0370281Y0210405D01*
X0371204Y0208806D02*
X0362509Y0208806D01*
X0383359Y0197617D02*
X0386000Y0197617D01*
X0386000Y0196018D02*
X0384958Y0196018D01*
X0385867Y0194420D02*
X0386000Y0194420D01*
X0386000Y0240777D02*
X0291000Y0240777D01*
X0291000Y0242375D02*
X0386000Y0242375D01*
X0386000Y0243974D02*
X0291000Y0243974D01*
X0291000Y0245572D02*
X0386000Y0245572D01*
X0386000Y0247171D02*
X0291000Y0247171D01*
X0291000Y0248769D02*
X0386000Y0248769D01*
X0386000Y0250368D02*
X0291000Y0250368D01*
X0291000Y0251966D02*
X0386000Y0251966D01*
X0386000Y0253565D02*
X0291000Y0253565D01*
X0291000Y0255163D02*
X0386000Y0255163D01*
X0386000Y0256762D02*
X0291000Y0256762D01*
X0291000Y0258360D02*
X0386000Y0258360D01*
X0386000Y0259959D02*
X0291000Y0259959D01*
X0291000Y0261557D02*
X0386000Y0261557D01*
X0386000Y0263156D02*
X0291000Y0263156D01*
X0291000Y0264754D02*
X0386000Y0264754D01*
X0386000Y0266353D02*
X0291000Y0266353D01*
X0291000Y0267951D02*
X0386000Y0267951D01*
X0386000Y0269550D02*
X0291000Y0269550D01*
X0291000Y0271148D02*
X0386000Y0271148D01*
X0386000Y0272747D02*
X0291000Y0272747D01*
X0291000Y0274345D02*
X0386000Y0274345D01*
X0386000Y0275944D02*
X0291000Y0275944D01*
X0291000Y0277542D02*
X0386000Y0277542D01*
X0386000Y0279141D02*
X0291000Y0279141D01*
X0291000Y0280739D02*
X0386000Y0280739D01*
X0386000Y0282338D02*
X0291000Y0282338D01*
X0291000Y0283937D02*
X0386000Y0283937D01*
X0386000Y0285535D02*
X0376874Y0285535D01*
X0375632Y0284818D02*
X0378368Y0286398D01*
X0380602Y0288632D01*
X0382182Y0291368D01*
X0383000Y0294420D01*
X0383000Y0297580D01*
X0382182Y0300632D01*
X0380602Y0303368D01*
X0378368Y0305602D01*
X0375632Y0307182D01*
X0372580Y0308000D01*
X0369420Y0308000D01*
X0366368Y0307182D01*
X0363632Y0305602D01*
X0361398Y0303368D01*
X0359818Y0300632D01*
X0359000Y0297580D01*
X0359000Y0294420D01*
X0359818Y0291368D01*
X0361398Y0288632D01*
X0363632Y0286398D01*
X0366368Y0284818D01*
X0369420Y0284000D01*
X0372580Y0284000D01*
X0375632Y0284818D01*
X0379104Y0287134D02*
X0386000Y0287134D01*
X0386000Y0288732D02*
X0380660Y0288732D01*
X0381583Y0290331D02*
X0386000Y0290331D01*
X0386000Y0291929D02*
X0382332Y0291929D01*
X0382761Y0293528D02*
X0386000Y0293528D01*
X0386000Y0295126D02*
X0383000Y0295126D01*
X0383000Y0296725D02*
X0386000Y0296725D01*
X0386000Y0298323D02*
X0382801Y0298323D01*
X0382373Y0299922D02*
X0386000Y0299922D01*
X0386000Y0301520D02*
X0381669Y0301520D01*
X0380746Y0303119D02*
X0386000Y0303119D01*
X0386000Y0304717D02*
X0379253Y0304717D01*
X0377133Y0306316D02*
X0386000Y0306316D01*
X0386000Y0307914D02*
X0372900Y0307914D01*
X0369100Y0307914D02*
X0308586Y0307914D01*
X0309015Y0306316D02*
X0364867Y0306316D01*
X0362747Y0304717D02*
X0309300Y0304717D01*
X0309300Y0303119D02*
X0361254Y0303119D01*
X0360331Y0301520D02*
X0309239Y0301520D01*
X0308810Y0299922D02*
X0359627Y0299922D01*
X0359199Y0298323D02*
X0308369Y0298323D01*
X0307446Y0296725D02*
X0359000Y0296725D01*
X0359000Y0295126D02*
X0306435Y0295126D01*
X0304837Y0293528D02*
X0359239Y0293528D01*
X0359667Y0291929D02*
X0302559Y0291929D01*
X0298238Y0290331D02*
X0360417Y0290331D01*
X0361340Y0288732D02*
X0291000Y0288732D01*
X0291000Y0287134D02*
X0362896Y0287134D01*
X0365126Y0285535D02*
X0291000Y0285535D01*
X0291000Y0290331D02*
X0293762Y0290331D01*
X0268500Y0285535D02*
X0230535Y0285535D01*
X0228937Y0283937D02*
X0268500Y0283937D01*
X0268500Y0282338D02*
X0227338Y0282338D01*
X0225739Y0280739D02*
X0268500Y0280739D01*
X0268500Y0279141D02*
X0224141Y0279141D01*
X0222542Y0277542D02*
X0268500Y0277542D01*
X0268500Y0275944D02*
X0220888Y0275944D01*
X0217691Y0274345D02*
X0268500Y0274345D01*
X0268500Y0272747D02*
X0214870Y0272747D01*
X0212473Y0271148D02*
X0268500Y0271148D01*
X0268500Y0269550D02*
X0210075Y0269550D01*
X0205634Y0267951D02*
X0268500Y0267951D01*
X0268500Y0266353D02*
X0204569Y0266353D01*
X0203503Y0264754D02*
X0268500Y0264754D01*
X0268500Y0263156D02*
X0202437Y0263156D01*
X0201372Y0261557D02*
X0268500Y0261557D01*
X0268500Y0259959D02*
X0201000Y0259959D01*
X0201000Y0258360D02*
X0268360Y0258360D01*
X0266762Y0256762D02*
X0263139Y0256762D01*
X0260514Y0256762D02*
X0252312Y0256762D01*
X0249687Y0256762D02*
X0201000Y0256762D01*
X0201000Y0255163D02*
X0246949Y0255163D01*
X0245803Y0253565D02*
X0201000Y0253565D01*
X0201000Y0251966D02*
X0244466Y0251966D01*
X0242868Y0250368D02*
X0201000Y0250368D01*
X0201000Y0248769D02*
X0241269Y0248769D01*
X0241000Y0248769D02*
X0198500Y0248769D01*
X0198500Y0247171D02*
X0241000Y0247171D01*
X0201000Y0247171D01*
X0201000Y0245572D02*
X0241000Y0245572D01*
X0198500Y0245572D01*
X0198500Y0243974D02*
X0241000Y0243974D01*
X0201000Y0243974D01*
X0201000Y0242375D02*
X0241000Y0242375D01*
X0198500Y0242375D01*
X0198500Y0240777D02*
X0241000Y0240777D01*
X0201000Y0240777D01*
X0201000Y0239178D02*
X0241000Y0239178D01*
X0198500Y0239178D01*
X0198500Y0237580D02*
X0241000Y0237580D01*
X0201000Y0237580D01*
X0201000Y0235981D02*
X0241000Y0235981D01*
X0198500Y0235981D01*
X0198500Y0234383D02*
X0241000Y0234383D01*
X0201000Y0234383D01*
X0201716Y0232784D02*
X0241000Y0232784D01*
X0198500Y0232784D01*
X0198500Y0231186D02*
X0241000Y0231186D01*
X0203314Y0231186D01*
X0204913Y0229587D02*
X0241000Y0229587D01*
X0198500Y0229587D01*
X0198500Y0227989D02*
X0241000Y0227989D01*
X0241511Y0227989D02*
X0218670Y0227989D01*
X0219203Y0226390D02*
X0243110Y0226390D01*
X0241000Y0226390D02*
X0198500Y0226390D01*
X0198500Y0224792D02*
X0241000Y0224792D01*
X0244708Y0224792D02*
X0219736Y0224792D01*
X0219108Y0208806D02*
X0241000Y0208806D01*
X0241000Y0207208D02*
X0220707Y0207208D01*
X0221950Y0205609D02*
X0241000Y0205609D01*
X0241000Y0204011D02*
X0221950Y0204011D01*
X0221950Y0202412D02*
X0241000Y0202412D01*
X0241000Y0200814D02*
X0221728Y0200814D01*
X0220130Y0199215D02*
X0241000Y0199215D01*
X0241000Y0197617D02*
X0218531Y0197617D01*
X0223535Y0191950D02*
X0220050Y0188465D01*
X0220050Y0183535D01*
X0223535Y0180050D01*
X0228465Y0180050D01*
X0231950Y0183535D01*
X0231950Y0188465D01*
X0228465Y0191950D01*
X0223535Y0191950D01*
X0222808Y0191223D02*
X0179982Y0191223D01*
X0196000Y0191223D01*
X0195083Y0189624D02*
X0179982Y0189624D01*
X0221210Y0189624D01*
X0220050Y0188026D02*
X0179696Y0188026D01*
X0194017Y0188026D01*
X0192952Y0186427D02*
X0179034Y0186427D01*
X0220050Y0186427D01*
X0220050Y0184829D02*
X0177456Y0184829D01*
X0191886Y0184829D01*
X0188095Y0183230D02*
X0128500Y0183230D01*
X0128500Y0181632D02*
X0185698Y0181632D01*
X0183300Y0180033D02*
X0128500Y0180033D01*
X0128500Y0178435D02*
X0180870Y0178435D01*
X0177672Y0176836D02*
X0128500Y0176836D01*
X0128500Y0175238D02*
X0175238Y0175238D01*
X0173639Y0173639D02*
X0128500Y0173639D01*
X0128500Y0172041D02*
X0172041Y0172041D01*
X0170442Y0170442D02*
X0128500Y0170442D01*
X0128500Y0168844D02*
X0168844Y0168844D01*
X0167245Y0167245D02*
X0128500Y0167245D01*
X0128853Y0165647D02*
X0165293Y0165647D01*
X0162096Y0164048D02*
X0130452Y0164048D01*
X0132050Y0162450D02*
X0158899Y0162450D01*
X0156000Y0162450D02*
X0241000Y0162450D01*
X0241000Y0164048D02*
X0156000Y0164048D01*
X0156000Y0165647D02*
X0241000Y0165647D01*
X0241000Y0167245D02*
X0156000Y0167245D01*
X0156000Y0168844D02*
X0241000Y0168844D01*
X0241000Y0170442D02*
X0156000Y0170442D01*
X0156000Y0172041D02*
X0241000Y0172041D01*
X0241000Y0173639D02*
X0156000Y0173639D01*
X0156000Y0175238D02*
X0241000Y0175238D01*
X0241000Y0176836D02*
X0156000Y0176836D01*
X0156000Y0178435D02*
X0241000Y0178435D01*
X0241000Y0180033D02*
X0156000Y0180033D01*
X0156000Y0181632D02*
X0221954Y0181632D01*
X0220355Y0183230D02*
X0156000Y0183230D01*
X0156000Y0184829D02*
X0169859Y0184829D01*
X0128500Y0184829D01*
X0128500Y0186427D02*
X0168281Y0186427D01*
X0156000Y0186427D01*
X0156000Y0188026D02*
X0167619Y0188026D01*
X0128500Y0188026D01*
X0128500Y0189624D02*
X0167332Y0189624D01*
X0156000Y0189624D01*
X0156000Y0191223D02*
X0167332Y0191223D01*
X0128500Y0191223D01*
X0128500Y0192821D02*
X0167332Y0192821D01*
X0156000Y0192821D01*
X0156000Y0194420D02*
X0167332Y0194420D01*
X0129420Y0194420D01*
X0149196Y0196018D02*
X0167332Y0196018D01*
X0156000Y0196018D01*
X0156000Y0197617D02*
X0167332Y0197617D01*
X0150831Y0197617D01*
X0151715Y0199215D02*
X0167719Y0199215D01*
X0156000Y0199215D01*
X0156000Y0200814D02*
X0168502Y0200814D01*
X0153314Y0200814D01*
X0154912Y0202412D02*
X0170136Y0202412D01*
X0156000Y0202412D01*
X0156153Y0213602D02*
X0241000Y0213602D01*
X0241000Y0191223D02*
X0229192Y0191223D01*
X0230790Y0189624D02*
X0241000Y0189624D01*
X0241000Y0188026D02*
X0231950Y0188026D01*
X0231950Y0186427D02*
X0241000Y0186427D01*
X0241000Y0184829D02*
X0231950Y0184829D01*
X0231645Y0183230D02*
X0241000Y0183230D01*
X0241000Y0181632D02*
X0230046Y0181632D01*
X0241000Y0160851D02*
X0156000Y0160851D01*
X0156000Y0159253D02*
X0241000Y0159253D01*
X0241000Y0157654D02*
X0156000Y0157654D01*
X0156000Y0156056D02*
X0241000Y0156056D01*
X0241000Y0154457D02*
X0156000Y0154457D01*
X0156000Y0152859D02*
X0241000Y0152859D01*
X0241000Y0151260D02*
X0156000Y0151260D01*
X0156000Y0149662D02*
X0172942Y0149662D01*
X0173717Y0149982D02*
X0171392Y0149020D01*
X0169613Y0147240D01*
X0168650Y0144916D01*
X0168650Y0142399D01*
X0169613Y0140075D01*
X0171392Y0138295D01*
X0173717Y0137332D01*
X0183283Y0137332D01*
X0185608Y0138295D01*
X0187387Y0140075D01*
X0188350Y0142399D01*
X0188350Y0144916D01*
X0187387Y0147240D01*
X0185608Y0149020D01*
X0183283Y0149982D01*
X0173717Y0149982D01*
X0170436Y0148063D02*
X0156000Y0148063D01*
X0156000Y0146465D02*
X0169292Y0146465D01*
X0168650Y0144866D02*
X0156000Y0144866D01*
X0156000Y0143268D02*
X0168650Y0143268D01*
X0168953Y0141669D02*
X0156000Y0141669D01*
X0156000Y0140070D02*
X0169617Y0140070D01*
X0171216Y0138472D02*
X0156000Y0138472D01*
X0184058Y0149662D02*
X0210442Y0149662D01*
X0207936Y0148063D02*
X0186564Y0148063D01*
X0187708Y0146465D02*
X0206792Y0146465D01*
X0206150Y0144866D02*
X0188350Y0144866D01*
X0188350Y0143268D02*
X0206150Y0143268D01*
X0206453Y0141669D02*
X0188047Y0141669D01*
X0187383Y0140070D02*
X0207117Y0140070D01*
X0208716Y0138472D02*
X0185784Y0138472D01*
X0221558Y0149662D02*
X0241000Y0149662D01*
X0179020Y0186392D02*
X0179982Y0188717D01*
X0179982Y0198283D01*
X0179020Y0200608D01*
X0177240Y0202387D01*
X0174916Y0203350D01*
X0172399Y0203350D01*
X0170075Y0202387D01*
X0168295Y0200608D01*
X0167332Y0198283D01*
X0167332Y0188717D01*
X0168295Y0186392D01*
X0170075Y0184613D01*
X0172399Y0183650D01*
X0174916Y0183650D01*
X0177240Y0184613D01*
X0179020Y0186392D01*
X0179982Y0188717D01*
X0179982Y0198283D01*
X0179020Y0200608D01*
X0177240Y0202387D01*
X0174916Y0203350D01*
X0172399Y0203350D01*
X0170075Y0202387D01*
X0168295Y0200608D01*
X0167332Y0198283D01*
X0167332Y0188717D01*
X0168295Y0186392D01*
X0170075Y0184613D01*
X0172399Y0183650D01*
X0174916Y0183650D01*
X0177240Y0184613D01*
X0179020Y0186392D01*
X0198500Y0250368D02*
X0241000Y0250368D01*
X0241000Y0251966D02*
X0198500Y0251966D01*
X0198500Y0253565D02*
X0241000Y0253565D01*
X0241000Y0255163D02*
X0198500Y0255163D01*
X0198500Y0256762D02*
X0241000Y0256762D01*
X0241000Y0258360D02*
X0198500Y0258360D01*
X0198500Y0259959D02*
X0241000Y0259959D01*
X0241000Y0261557D02*
X0198500Y0261557D01*
X0198500Y0263156D02*
X0241000Y0263156D01*
X0241000Y0264754D02*
X0198500Y0264754D01*
X0198500Y0266353D02*
X0241000Y0266353D01*
X0241000Y0267951D02*
X0198500Y0267951D01*
X0198500Y0269550D02*
X0241000Y0269550D01*
X0241000Y0271148D02*
X0198500Y0271148D01*
X0198500Y0272747D02*
X0241000Y0272747D01*
X0241000Y0274345D02*
X0199345Y0274345D01*
X0200944Y0275944D02*
X0241000Y0275944D01*
X0241000Y0277542D02*
X0202542Y0277542D01*
X0204141Y0279141D02*
X0241000Y0279141D01*
X0241000Y0280739D02*
X0205739Y0280739D01*
X0207338Y0282338D02*
X0241000Y0282338D01*
X0241000Y0283937D02*
X0208937Y0283937D01*
X0210535Y0285535D02*
X0241000Y0285535D01*
X0241000Y0287134D02*
X0212134Y0287134D01*
X0233267Y0287134D02*
X0267366Y0287134D01*
X0265768Y0288732D02*
X0236464Y0288732D01*
X0239661Y0290331D02*
X0264169Y0290331D01*
X0094441Y0291929D02*
X0032332Y0291929D01*
X0032761Y0293528D02*
X0092163Y0293528D01*
X0090565Y0295126D02*
X0033000Y0295126D01*
X0033000Y0296725D02*
X0089554Y0296725D01*
X0088631Y0298323D02*
X0032801Y0298323D01*
X0032373Y0299922D02*
X0088190Y0299922D01*
X0087761Y0301520D02*
X0031669Y0301520D01*
X0030746Y0303119D02*
X0087700Y0303119D01*
X0087700Y0304717D02*
X0029253Y0304717D01*
X0027133Y0306316D02*
X0087985Y0306316D01*
X0088414Y0307914D02*
X0022900Y0307914D01*
X0019100Y0307914D02*
X0008500Y0307914D01*
X0008500Y0306316D02*
X0014867Y0306316D01*
X0012747Y0304717D02*
X0008500Y0304717D01*
X0008500Y0303119D02*
X0011254Y0303119D01*
X0010331Y0301520D02*
X0008500Y0301520D01*
X0008500Y0299922D02*
X0009627Y0299922D01*
X0009199Y0298323D02*
X0008500Y0298323D01*
X0008500Y0296725D02*
X0009000Y0296725D01*
X0009000Y0295126D02*
X0008500Y0295126D01*
X0008500Y0293528D02*
X0009239Y0293528D01*
X0009667Y0291929D02*
X0008500Y0291929D01*
X0008500Y0290331D02*
X0010417Y0290331D01*
X0011340Y0288732D02*
X0008500Y0288732D01*
X0008500Y0287134D02*
X0012896Y0287134D01*
X0015126Y0285535D02*
X0008500Y0285535D01*
X0008500Y0196018D02*
X0012042Y0196018D01*
X0011133Y0194420D02*
X0008500Y0194420D01*
X0008500Y0192821D02*
X0010471Y0192821D01*
X0010385Y0191223D02*
X0008500Y0191223D01*
X0008500Y0189624D02*
X0010385Y0189624D01*
X0010948Y0188026D02*
X0008500Y0188026D01*
X0008500Y0186427D02*
X0011610Y0186427D01*
X0013195Y0184829D02*
X0008500Y0184829D01*
X0008500Y0176836D02*
X0013781Y0176836D01*
X0010631Y0175238D02*
X0008500Y0175238D01*
X0008500Y0173639D02*
X0009031Y0173639D01*
X0151483Y0090517D02*
X0176994Y0090517D01*
X0177527Y0088918D02*
X0153082Y0088918D01*
X0154680Y0087320D02*
X0178060Y0087320D01*
X0014964Y0031372D02*
X0008500Y0031372D01*
X0008500Y0029773D02*
X0012803Y0029773D01*
X0011286Y0028175D02*
X0008500Y0028175D01*
X0008500Y0026576D02*
X0010363Y0026576D01*
M02*
