%
M48
M72
T01C0.03200
T02C0.03898
T03C0.04000
T04C0.04700
T05C0.07087
T06C0.11811
T07C0.14400
T08C0.17000
%
T01
X36000Y28500
X46000Y28500
X11000Y81000
X11000Y91000
X216000Y186000
X226000Y186000
X226000Y203500
X216000Y203500
X381000Y96000
X381000Y86000
X358500Y31000
X348500Y31000
T02
X336630Y31000
X325803Y31000
X325803Y38047
X325803Y45094
X325803Y52142
X325803Y59189
X336630Y59189
X336630Y52142
X336630Y45094
X336630Y38047
X336630Y81591
X325803Y81591
X325803Y89465
X325803Y97339
X336630Y97339
X336630Y89465
X336630Y109898
X325803Y109898
X325803Y117457
X325803Y125016
X325803Y132575
X336630Y132575
X336630Y125016
X336630Y117457
X336630Y140134
X336630Y147693
X325803Y147693
X325803Y140134
X325803Y166000
X325803Y173047
X325803Y180094
X336630Y180094
X336630Y173047
X336630Y166000
X336630Y187142
X336630Y194189
X325803Y194189
X325803Y187142
X325803Y216591
X336630Y216591
X336630Y224465
X336630Y232339
X325803Y232339
X325803Y224465
X325803Y244898
X325803Y252457
X336630Y252457
X336630Y244898
X336630Y260016
X336630Y267575
X325803Y267575
X325803Y260016
X325803Y275134
X325803Y282693
X336630Y282693
X336630Y275134
X261827Y275213
X261827Y282575
X251000Y282575
X251000Y275213
X251000Y267850
X251000Y260488
X261827Y260488
X261827Y267850
X261827Y251079
X261827Y243717
X251000Y243717
X251000Y251079
X251000Y236354
X251000Y228992
X261827Y228992
X261827Y236354
X261827Y219583
X261827Y212220
X251000Y212220
X251000Y219583
X251000Y204858
X251000Y197496
X261827Y197496
X261827Y204858
X261827Y188087
X261827Y180724
X251000Y180724
X251000Y188087
X251000Y173362
X251000Y166000
X261827Y166000
X261827Y173362
X261827Y147575
X261827Y140213
X261827Y132850
X251000Y132850
X251000Y140213
X251000Y147575
X251000Y125488
X261827Y125488
X261827Y116079
X261827Y108717
X261827Y101354
X251000Y101354
X251000Y108717
X251000Y116079
X251000Y93992
X261827Y93992
X261827Y84583
X261827Y77220
X261827Y69858
X251000Y69858
X251000Y77220
X251000Y84583
X251000Y62496
X261827Y62496
X261827Y53087
X261827Y45724
X261827Y38362
X251000Y38362
X251000Y45724
X251000Y53087
X251000Y31000
X261827Y31000
X146000Y31925
X146000Y39287
X146000Y46650
X146000Y54012
X146000Y63421
X146000Y70783
X146000Y78146
X146000Y85508
X146000Y94917
X146000Y102280
X146000Y109642
X146000Y117004
X146000Y126413
X146000Y133776
X146000Y141138
X146000Y148500
X135173Y148500
X135173Y141138
X135173Y133776
X135173Y126413
X135173Y117004
X135173Y109642
X135173Y102280
X135173Y94917
X135173Y85508
X135173Y78146
X135173Y70783
X135173Y63421
X135173Y54012
X135173Y46650
X135173Y39287
X135173Y31925
X71197Y31807
X71197Y39366
X71197Y46925
X71197Y54484
X71197Y62043
X71197Y69602
X60370Y69602
X60370Y62043
X60370Y54484
X60370Y46925
X60370Y39366
X60370Y31807
X60370Y82161
X60370Y90035
X60370Y97909
X71197Y97909
X71197Y90035
X71197Y82161
X71197Y120311
X71197Y127358
X71197Y134406
X71197Y141453
X71197Y148500
X60370Y148500
X60370Y141453
X60370Y134406
X60370Y127358
X60370Y120311
X60370Y169307
X60370Y176866
X60370Y184425
X60370Y191984
X60370Y199543
X60370Y207102
X71197Y207102
X71197Y199543
X71197Y191984
X71197Y184425
X71197Y176866
X71197Y169307
X71197Y219661
X71197Y227535
X71197Y235409
X60370Y235409
X60370Y227535
X60370Y219661
X60370Y257811
X60370Y264858
X60370Y271906
X60370Y278953
X60370Y286000
X71197Y286000
X71197Y278953
X71197Y271906
X71197Y264858
X71197Y257811
X135173Y254504
X135173Y247142
X135173Y239780
X135173Y232417
X135173Y223008
X135173Y215646
X135173Y208283
X135173Y200921
X135173Y191512
X135173Y184150
X135173Y176787
X135173Y169425
X146000Y169425
X146000Y176787
X146000Y184150
X146000Y191512
X146000Y200921
X146000Y208283
X146000Y215646
X146000Y223008
X146000Y232417
X146000Y239780
X146000Y247142
X146000Y254504
X146000Y263913
X146000Y271276
X146000Y278638
X146000Y286000
X135173Y286000
X135173Y278638
X135173Y271276
X135173Y263913
T03
X41000Y236000
X41000Y226000
X41000Y216000
X41000Y98500
X41000Y88500
X41000Y78500
X353500Y78500
X353500Y88500
X353500Y98500
X356000Y213500
X356000Y223500
X356000Y233500
T04
X216000Y163343
X216000Y143657
X216000Y123343
X216000Y103657
X216000Y83343
X216000Y63657
X178500Y63657
X178500Y83343
X178500Y103657
X178500Y123343
X178500Y143657
X178500Y163343
X173657Y193500
X193343Y193500
T05
X188500Y261000
X210941Y261000
X356059Y191000
X378500Y191000
X40941Y191000
X18500Y191000
T06
X17201Y166669
X17201Y215331
X187201Y236669
X187201Y285331
X379799Y215331
X379799Y166669
T07
X21000Y21000
X21000Y296000
X371000Y296000
X371000Y21000
T08
X293500Y13500
X101000Y13500
X101000Y303500
X296000Y303500
M30
