G75*
%MOIN*%
%OFA0B0*%
%FSLAX25Y25*%
%IPPOS*%
%LPD*%
%AMOC8*
5,1,8,0,0,1.08239X$1,22.5*
%
%ADD10C,0.00600*%
%ADD11C,0.01200*%
%ADD12C,0.01000*%
%ADD13C,0.00500*%
D10*
X0031500Y0023500D02*
X0031500Y0033500D01*
X0031502Y0033560D01*
X0031507Y0033621D01*
X0031516Y0033680D01*
X0031529Y0033739D01*
X0031545Y0033798D01*
X0031565Y0033855D01*
X0031588Y0033910D01*
X0031615Y0033965D01*
X0031644Y0034017D01*
X0031677Y0034068D01*
X0031713Y0034117D01*
X0031751Y0034163D01*
X0031793Y0034207D01*
X0031837Y0034249D01*
X0031883Y0034287D01*
X0031932Y0034323D01*
X0031983Y0034356D01*
X0032035Y0034385D01*
X0032090Y0034412D01*
X0032145Y0034435D01*
X0032202Y0034455D01*
X0032261Y0034471D01*
X0032320Y0034484D01*
X0032379Y0034493D01*
X0032440Y0034498D01*
X0032500Y0034500D01*
X0049500Y0034500D01*
X0049560Y0034498D01*
X0049621Y0034493D01*
X0049680Y0034484D01*
X0049739Y0034471D01*
X0049798Y0034455D01*
X0049855Y0034435D01*
X0049910Y0034412D01*
X0049965Y0034385D01*
X0050017Y0034356D01*
X0050068Y0034323D01*
X0050117Y0034287D01*
X0050163Y0034249D01*
X0050207Y0034207D01*
X0050249Y0034163D01*
X0050287Y0034117D01*
X0050323Y0034068D01*
X0050356Y0034017D01*
X0050385Y0033965D01*
X0050412Y0033910D01*
X0050435Y0033855D01*
X0050455Y0033798D01*
X0050471Y0033739D01*
X0050484Y0033680D01*
X0050493Y0033621D01*
X0050498Y0033560D01*
X0050500Y0033500D01*
X0050500Y0023500D01*
X0050498Y0023440D01*
X0050493Y0023379D01*
X0050484Y0023320D01*
X0050471Y0023261D01*
X0050455Y0023202D01*
X0050435Y0023145D01*
X0050412Y0023090D01*
X0050385Y0023035D01*
X0050356Y0022983D01*
X0050323Y0022932D01*
X0050287Y0022883D01*
X0050249Y0022837D01*
X0050207Y0022793D01*
X0050163Y0022751D01*
X0050117Y0022713D01*
X0050068Y0022677D01*
X0050017Y0022644D01*
X0049965Y0022615D01*
X0049910Y0022588D01*
X0049855Y0022565D01*
X0049798Y0022545D01*
X0049739Y0022529D01*
X0049680Y0022516D01*
X0049621Y0022507D01*
X0049560Y0022502D01*
X0049500Y0022500D01*
X0032500Y0022500D01*
X0032440Y0022502D01*
X0032379Y0022507D01*
X0032320Y0022516D01*
X0032261Y0022529D01*
X0032202Y0022545D01*
X0032145Y0022565D01*
X0032090Y0022588D01*
X0032035Y0022615D01*
X0031983Y0022644D01*
X0031932Y0022677D01*
X0031883Y0022713D01*
X0031837Y0022751D01*
X0031793Y0022793D01*
X0031751Y0022837D01*
X0031713Y0022883D01*
X0031677Y0022932D01*
X0031644Y0022983D01*
X0031615Y0023035D01*
X0031588Y0023090D01*
X0031565Y0023145D01*
X0031545Y0023202D01*
X0031529Y0023261D01*
X0031516Y0023320D01*
X0031507Y0023379D01*
X0031502Y0023440D01*
X0031500Y0023500D01*
X0039500Y0028500D02*
X0040000Y0028500D01*
X0042000Y0028500D02*
X0042500Y0028500D01*
X0043500Y0073500D02*
X0038500Y0073500D01*
X0036000Y0076000D01*
X0036000Y0081000D01*
X0038500Y0083500D01*
X0036000Y0086000D01*
X0036000Y0091000D01*
X0038500Y0093500D01*
X0036000Y0096000D01*
X0036000Y0101000D01*
X0038500Y0103500D01*
X0043500Y0103500D01*
X0046000Y0101000D01*
X0046000Y0096000D01*
X0043500Y0093500D01*
X0046000Y0091000D01*
X0046000Y0086000D01*
X0043500Y0083500D01*
X0046000Y0081000D01*
X0046000Y0076000D01*
X0043500Y0073500D01*
X0017000Y0077500D02*
X0017000Y0094500D01*
X0016998Y0094560D01*
X0016993Y0094621D01*
X0016984Y0094680D01*
X0016971Y0094739D01*
X0016955Y0094798D01*
X0016935Y0094855D01*
X0016912Y0094910D01*
X0016885Y0094965D01*
X0016856Y0095017D01*
X0016823Y0095068D01*
X0016787Y0095117D01*
X0016749Y0095163D01*
X0016707Y0095207D01*
X0016663Y0095249D01*
X0016617Y0095287D01*
X0016568Y0095323D01*
X0016517Y0095356D01*
X0016465Y0095385D01*
X0016410Y0095412D01*
X0016355Y0095435D01*
X0016298Y0095455D01*
X0016239Y0095471D01*
X0016180Y0095484D01*
X0016121Y0095493D01*
X0016060Y0095498D01*
X0016000Y0095500D01*
X0006000Y0095500D01*
X0005940Y0095498D01*
X0005879Y0095493D01*
X0005820Y0095484D01*
X0005761Y0095471D01*
X0005702Y0095455D01*
X0005645Y0095435D01*
X0005590Y0095412D01*
X0005535Y0095385D01*
X0005483Y0095356D01*
X0005432Y0095323D01*
X0005383Y0095287D01*
X0005337Y0095249D01*
X0005293Y0095207D01*
X0005251Y0095163D01*
X0005213Y0095117D01*
X0005177Y0095068D01*
X0005144Y0095017D01*
X0005115Y0094965D01*
X0005088Y0094910D01*
X0005065Y0094855D01*
X0005045Y0094798D01*
X0005029Y0094739D01*
X0005016Y0094680D01*
X0005007Y0094621D01*
X0005002Y0094560D01*
X0005000Y0094500D01*
X0005000Y0077500D01*
X0005002Y0077440D01*
X0005007Y0077379D01*
X0005016Y0077320D01*
X0005029Y0077261D01*
X0005045Y0077202D01*
X0005065Y0077145D01*
X0005088Y0077090D01*
X0005115Y0077035D01*
X0005144Y0076983D01*
X0005177Y0076932D01*
X0005213Y0076883D01*
X0005251Y0076837D01*
X0005293Y0076793D01*
X0005337Y0076751D01*
X0005383Y0076713D01*
X0005432Y0076677D01*
X0005483Y0076644D01*
X0005535Y0076615D01*
X0005590Y0076588D01*
X0005645Y0076565D01*
X0005702Y0076545D01*
X0005761Y0076529D01*
X0005820Y0076516D01*
X0005879Y0076507D01*
X0005940Y0076502D01*
X0006000Y0076500D01*
X0016000Y0076500D01*
X0016060Y0076502D01*
X0016121Y0076507D01*
X0016180Y0076516D01*
X0016239Y0076529D01*
X0016298Y0076545D01*
X0016355Y0076565D01*
X0016410Y0076588D01*
X0016465Y0076615D01*
X0016517Y0076644D01*
X0016568Y0076677D01*
X0016617Y0076713D01*
X0016663Y0076751D01*
X0016707Y0076793D01*
X0016749Y0076837D01*
X0016787Y0076883D01*
X0016823Y0076932D01*
X0016856Y0076983D01*
X0016885Y0077035D01*
X0016912Y0077090D01*
X0016935Y0077145D01*
X0016955Y0077202D01*
X0016971Y0077261D01*
X0016984Y0077320D01*
X0016993Y0077379D01*
X0016998Y0077440D01*
X0017000Y0077500D01*
X0011000Y0084500D02*
X0011000Y0085000D01*
X0011000Y0087000D02*
X0011000Y0087500D01*
X0158799Y0093157D02*
X0158799Y0053858D01*
X0159598Y0053858D01*
X0159598Y0093157D01*
X0185598Y0093157D01*
X0195000Y0093157D01*
X0195000Y0053858D01*
X0185598Y0053858D01*
X0159598Y0053858D01*
X0162800Y0063657D02*
X0162802Y0063746D01*
X0162808Y0063835D01*
X0162818Y0063924D01*
X0162832Y0064012D01*
X0162849Y0064099D01*
X0162871Y0064185D01*
X0162897Y0064271D01*
X0162926Y0064355D01*
X0162959Y0064438D01*
X0162995Y0064519D01*
X0163036Y0064599D01*
X0163079Y0064676D01*
X0163126Y0064752D01*
X0163177Y0064825D01*
X0163230Y0064896D01*
X0163287Y0064965D01*
X0163347Y0065031D01*
X0163410Y0065095D01*
X0163475Y0065155D01*
X0163543Y0065213D01*
X0163614Y0065267D01*
X0163687Y0065318D01*
X0163762Y0065366D01*
X0163839Y0065411D01*
X0163918Y0065452D01*
X0163999Y0065489D01*
X0164081Y0065523D01*
X0164165Y0065554D01*
X0164250Y0065580D01*
X0164336Y0065603D01*
X0164423Y0065621D01*
X0164511Y0065636D01*
X0164600Y0065647D01*
X0164689Y0065654D01*
X0164778Y0065657D01*
X0164867Y0065656D01*
X0164956Y0065651D01*
X0165044Y0065642D01*
X0165133Y0065629D01*
X0165220Y0065612D01*
X0165307Y0065592D01*
X0165393Y0065567D01*
X0165477Y0065539D01*
X0165560Y0065507D01*
X0165642Y0065471D01*
X0165722Y0065432D01*
X0165800Y0065389D01*
X0165876Y0065343D01*
X0165950Y0065293D01*
X0166022Y0065240D01*
X0166091Y0065184D01*
X0166158Y0065125D01*
X0166222Y0065063D01*
X0166283Y0064999D01*
X0166342Y0064931D01*
X0166397Y0064861D01*
X0166449Y0064789D01*
X0166498Y0064714D01*
X0166543Y0064638D01*
X0166585Y0064559D01*
X0166623Y0064479D01*
X0166658Y0064397D01*
X0166689Y0064313D01*
X0166717Y0064228D01*
X0166740Y0064142D01*
X0166760Y0064055D01*
X0166776Y0063968D01*
X0166788Y0063879D01*
X0166796Y0063791D01*
X0166800Y0063702D01*
X0166800Y0063612D01*
X0166796Y0063523D01*
X0166788Y0063435D01*
X0166776Y0063346D01*
X0166760Y0063259D01*
X0166740Y0063172D01*
X0166717Y0063086D01*
X0166689Y0063001D01*
X0166658Y0062917D01*
X0166623Y0062835D01*
X0166585Y0062755D01*
X0166543Y0062676D01*
X0166498Y0062600D01*
X0166449Y0062525D01*
X0166397Y0062453D01*
X0166342Y0062383D01*
X0166283Y0062315D01*
X0166222Y0062251D01*
X0166158Y0062189D01*
X0166091Y0062130D01*
X0166022Y0062074D01*
X0165950Y0062021D01*
X0165876Y0061971D01*
X0165800Y0061925D01*
X0165722Y0061882D01*
X0165642Y0061843D01*
X0165560Y0061807D01*
X0165477Y0061775D01*
X0165393Y0061747D01*
X0165307Y0061722D01*
X0165220Y0061702D01*
X0165133Y0061685D01*
X0165044Y0061672D01*
X0164956Y0061663D01*
X0164867Y0061658D01*
X0164778Y0061657D01*
X0164689Y0061660D01*
X0164600Y0061667D01*
X0164511Y0061678D01*
X0164423Y0061693D01*
X0164336Y0061711D01*
X0164250Y0061734D01*
X0164165Y0061760D01*
X0164081Y0061791D01*
X0163999Y0061825D01*
X0163918Y0061862D01*
X0163839Y0061903D01*
X0163762Y0061948D01*
X0163687Y0061996D01*
X0163614Y0062047D01*
X0163543Y0062101D01*
X0163475Y0062159D01*
X0163410Y0062219D01*
X0163347Y0062283D01*
X0163287Y0062349D01*
X0163230Y0062418D01*
X0163177Y0062489D01*
X0163126Y0062562D01*
X0163079Y0062638D01*
X0163036Y0062715D01*
X0162995Y0062795D01*
X0162959Y0062876D01*
X0162926Y0062959D01*
X0162897Y0063043D01*
X0162871Y0063129D01*
X0162849Y0063215D01*
X0162832Y0063302D01*
X0162818Y0063390D01*
X0162808Y0063479D01*
X0162802Y0063568D01*
X0162800Y0063657D01*
X0162800Y0083357D02*
X0162802Y0083446D01*
X0162808Y0083535D01*
X0162818Y0083624D01*
X0162832Y0083712D01*
X0162849Y0083799D01*
X0162871Y0083885D01*
X0162897Y0083971D01*
X0162926Y0084055D01*
X0162959Y0084138D01*
X0162995Y0084219D01*
X0163036Y0084299D01*
X0163079Y0084376D01*
X0163126Y0084452D01*
X0163177Y0084525D01*
X0163230Y0084596D01*
X0163287Y0084665D01*
X0163347Y0084731D01*
X0163410Y0084795D01*
X0163475Y0084855D01*
X0163543Y0084913D01*
X0163614Y0084967D01*
X0163687Y0085018D01*
X0163762Y0085066D01*
X0163839Y0085111D01*
X0163918Y0085152D01*
X0163999Y0085189D01*
X0164081Y0085223D01*
X0164165Y0085254D01*
X0164250Y0085280D01*
X0164336Y0085303D01*
X0164423Y0085321D01*
X0164511Y0085336D01*
X0164600Y0085347D01*
X0164689Y0085354D01*
X0164778Y0085357D01*
X0164867Y0085356D01*
X0164956Y0085351D01*
X0165044Y0085342D01*
X0165133Y0085329D01*
X0165220Y0085312D01*
X0165307Y0085292D01*
X0165393Y0085267D01*
X0165477Y0085239D01*
X0165560Y0085207D01*
X0165642Y0085171D01*
X0165722Y0085132D01*
X0165800Y0085089D01*
X0165876Y0085043D01*
X0165950Y0084993D01*
X0166022Y0084940D01*
X0166091Y0084884D01*
X0166158Y0084825D01*
X0166222Y0084763D01*
X0166283Y0084699D01*
X0166342Y0084631D01*
X0166397Y0084561D01*
X0166449Y0084489D01*
X0166498Y0084414D01*
X0166543Y0084338D01*
X0166585Y0084259D01*
X0166623Y0084179D01*
X0166658Y0084097D01*
X0166689Y0084013D01*
X0166717Y0083928D01*
X0166740Y0083842D01*
X0166760Y0083755D01*
X0166776Y0083668D01*
X0166788Y0083579D01*
X0166796Y0083491D01*
X0166800Y0083402D01*
X0166800Y0083312D01*
X0166796Y0083223D01*
X0166788Y0083135D01*
X0166776Y0083046D01*
X0166760Y0082959D01*
X0166740Y0082872D01*
X0166717Y0082786D01*
X0166689Y0082701D01*
X0166658Y0082617D01*
X0166623Y0082535D01*
X0166585Y0082455D01*
X0166543Y0082376D01*
X0166498Y0082300D01*
X0166449Y0082225D01*
X0166397Y0082153D01*
X0166342Y0082083D01*
X0166283Y0082015D01*
X0166222Y0081951D01*
X0166158Y0081889D01*
X0166091Y0081830D01*
X0166022Y0081774D01*
X0165950Y0081721D01*
X0165876Y0081671D01*
X0165800Y0081625D01*
X0165722Y0081582D01*
X0165642Y0081543D01*
X0165560Y0081507D01*
X0165477Y0081475D01*
X0165393Y0081447D01*
X0165307Y0081422D01*
X0165220Y0081402D01*
X0165133Y0081385D01*
X0165044Y0081372D01*
X0164956Y0081363D01*
X0164867Y0081358D01*
X0164778Y0081357D01*
X0164689Y0081360D01*
X0164600Y0081367D01*
X0164511Y0081378D01*
X0164423Y0081393D01*
X0164336Y0081411D01*
X0164250Y0081434D01*
X0164165Y0081460D01*
X0164081Y0081491D01*
X0163999Y0081525D01*
X0163918Y0081562D01*
X0163839Y0081603D01*
X0163762Y0081648D01*
X0163687Y0081696D01*
X0163614Y0081747D01*
X0163543Y0081801D01*
X0163475Y0081859D01*
X0163410Y0081919D01*
X0163347Y0081983D01*
X0163287Y0082049D01*
X0163230Y0082118D01*
X0163177Y0082189D01*
X0163126Y0082262D01*
X0163079Y0082338D01*
X0163036Y0082415D01*
X0162995Y0082495D01*
X0162959Y0082576D01*
X0162926Y0082659D01*
X0162897Y0082743D01*
X0162871Y0082829D01*
X0162849Y0082915D01*
X0162832Y0083002D01*
X0162818Y0083090D01*
X0162808Y0083179D01*
X0162802Y0083268D01*
X0162800Y0083357D01*
X0159598Y0093157D02*
X0158799Y0093157D01*
X0158799Y0093858D02*
X0159598Y0093858D01*
X0159598Y0133157D01*
X0185598Y0133157D01*
X0195000Y0133157D01*
X0195000Y0093858D01*
X0185598Y0093858D01*
X0159598Y0093858D01*
X0158799Y0093858D02*
X0158799Y0133157D01*
X0159598Y0133157D01*
X0159598Y0133858D02*
X0158799Y0133858D01*
X0158799Y0173157D01*
X0159598Y0173157D01*
X0185598Y0173157D01*
X0195000Y0173157D01*
X0195000Y0133858D01*
X0185598Y0133858D01*
X0159598Y0133858D01*
X0159598Y0173157D01*
X0163858Y0177000D02*
X0163858Y0186402D01*
X0163858Y0212402D01*
X0163858Y0213201D01*
X0203157Y0213201D01*
X0203157Y0212402D01*
X0203157Y0186402D01*
X0203157Y0177000D01*
X0163858Y0177000D01*
X0163858Y0186402D02*
X0170157Y0186402D01*
X0177157Y0186402D02*
X0189858Y0186402D01*
X0196858Y0186402D02*
X0203157Y0186402D01*
X0211500Y0191000D02*
X0211500Y0181000D01*
X0211502Y0180940D01*
X0211507Y0180879D01*
X0211516Y0180820D01*
X0211529Y0180761D01*
X0211545Y0180702D01*
X0211565Y0180645D01*
X0211588Y0180590D01*
X0211615Y0180535D01*
X0211644Y0180483D01*
X0211677Y0180432D01*
X0211713Y0180383D01*
X0211751Y0180337D01*
X0211793Y0180293D01*
X0211837Y0180251D01*
X0211883Y0180213D01*
X0211932Y0180177D01*
X0211983Y0180144D01*
X0212035Y0180115D01*
X0212090Y0180088D01*
X0212145Y0180065D01*
X0212202Y0180045D01*
X0212261Y0180029D01*
X0212320Y0180016D01*
X0212379Y0180007D01*
X0212440Y0180002D01*
X0212500Y0180000D01*
X0229500Y0180000D01*
X0229560Y0180002D01*
X0229621Y0180007D01*
X0229680Y0180016D01*
X0229739Y0180029D01*
X0229798Y0180045D01*
X0229855Y0180065D01*
X0229910Y0180088D01*
X0229965Y0180115D01*
X0230017Y0180144D01*
X0230068Y0180177D01*
X0230117Y0180213D01*
X0230163Y0180251D01*
X0230207Y0180293D01*
X0230249Y0180337D01*
X0230287Y0180383D01*
X0230323Y0180432D01*
X0230356Y0180483D01*
X0230385Y0180535D01*
X0230412Y0180590D01*
X0230435Y0180645D01*
X0230455Y0180702D01*
X0230471Y0180761D01*
X0230484Y0180820D01*
X0230493Y0180879D01*
X0230498Y0180940D01*
X0230500Y0181000D01*
X0230500Y0191000D01*
X0230498Y0191060D01*
X0230493Y0191121D01*
X0230484Y0191180D01*
X0230471Y0191239D01*
X0230455Y0191298D01*
X0230435Y0191355D01*
X0230412Y0191410D01*
X0230385Y0191465D01*
X0230356Y0191517D01*
X0230323Y0191568D01*
X0230287Y0191617D01*
X0230249Y0191663D01*
X0230207Y0191707D01*
X0230163Y0191749D01*
X0230117Y0191787D01*
X0230068Y0191823D01*
X0230017Y0191856D01*
X0229965Y0191885D01*
X0229910Y0191912D01*
X0229855Y0191935D01*
X0229798Y0191955D01*
X0229739Y0191971D01*
X0229680Y0191984D01*
X0229621Y0191993D01*
X0229560Y0191998D01*
X0229500Y0192000D01*
X0212500Y0192000D01*
X0212440Y0191998D01*
X0212379Y0191993D01*
X0212320Y0191984D01*
X0212261Y0191971D01*
X0212202Y0191955D01*
X0212145Y0191935D01*
X0212090Y0191912D01*
X0212035Y0191885D01*
X0211983Y0191856D01*
X0211932Y0191823D01*
X0211883Y0191787D01*
X0211837Y0191749D01*
X0211793Y0191707D01*
X0211751Y0191663D01*
X0211713Y0191617D01*
X0211677Y0191568D01*
X0211644Y0191517D01*
X0211615Y0191465D01*
X0211588Y0191410D01*
X0211565Y0191355D01*
X0211545Y0191298D01*
X0211529Y0191239D01*
X0211516Y0191180D01*
X0211507Y0191121D01*
X0211502Y0191060D01*
X0211500Y0191000D01*
X0212500Y0197500D02*
X0229500Y0197500D01*
X0229560Y0197502D01*
X0229621Y0197507D01*
X0229680Y0197516D01*
X0229739Y0197529D01*
X0229798Y0197545D01*
X0229855Y0197565D01*
X0229910Y0197588D01*
X0229965Y0197615D01*
X0230017Y0197644D01*
X0230068Y0197677D01*
X0230117Y0197713D01*
X0230163Y0197751D01*
X0230207Y0197793D01*
X0230249Y0197837D01*
X0230287Y0197883D01*
X0230323Y0197932D01*
X0230356Y0197983D01*
X0230385Y0198035D01*
X0230412Y0198090D01*
X0230435Y0198145D01*
X0230455Y0198202D01*
X0230471Y0198261D01*
X0230484Y0198320D01*
X0230493Y0198379D01*
X0230498Y0198440D01*
X0230500Y0198500D01*
X0230500Y0208500D01*
X0230498Y0208560D01*
X0230493Y0208621D01*
X0230484Y0208680D01*
X0230471Y0208739D01*
X0230455Y0208798D01*
X0230435Y0208855D01*
X0230412Y0208910D01*
X0230385Y0208965D01*
X0230356Y0209017D01*
X0230323Y0209068D01*
X0230287Y0209117D01*
X0230249Y0209163D01*
X0230207Y0209207D01*
X0230163Y0209249D01*
X0230117Y0209287D01*
X0230068Y0209323D01*
X0230017Y0209356D01*
X0229965Y0209385D01*
X0229910Y0209412D01*
X0229855Y0209435D01*
X0229798Y0209455D01*
X0229739Y0209471D01*
X0229680Y0209484D01*
X0229621Y0209493D01*
X0229560Y0209498D01*
X0229500Y0209500D01*
X0212500Y0209500D01*
X0212440Y0209498D01*
X0212379Y0209493D01*
X0212320Y0209484D01*
X0212261Y0209471D01*
X0212202Y0209455D01*
X0212145Y0209435D01*
X0212090Y0209412D01*
X0212035Y0209385D01*
X0211983Y0209356D01*
X0211932Y0209323D01*
X0211883Y0209287D01*
X0211837Y0209249D01*
X0211793Y0209207D01*
X0211751Y0209163D01*
X0211713Y0209117D01*
X0211677Y0209068D01*
X0211644Y0209017D01*
X0211615Y0208965D01*
X0211588Y0208910D01*
X0211565Y0208855D01*
X0211545Y0208798D01*
X0211529Y0208739D01*
X0211516Y0208680D01*
X0211507Y0208621D01*
X0211502Y0208560D01*
X0211500Y0208500D01*
X0211500Y0198500D01*
X0211502Y0198440D01*
X0211507Y0198379D01*
X0211516Y0198320D01*
X0211529Y0198261D01*
X0211545Y0198202D01*
X0211565Y0198145D01*
X0211588Y0198090D01*
X0211615Y0198035D01*
X0211644Y0197983D01*
X0211677Y0197932D01*
X0211713Y0197883D01*
X0211751Y0197837D01*
X0211793Y0197793D01*
X0211837Y0197751D01*
X0211883Y0197713D01*
X0211932Y0197677D01*
X0211983Y0197644D01*
X0212035Y0197615D01*
X0212090Y0197588D01*
X0212145Y0197565D01*
X0212202Y0197545D01*
X0212261Y0197529D01*
X0212320Y0197516D01*
X0212379Y0197507D01*
X0212440Y0197502D01*
X0212500Y0197500D01*
X0219500Y0203500D02*
X0220000Y0203500D01*
X0222000Y0203500D02*
X0222500Y0203500D01*
X0203157Y0212402D02*
X0163858Y0212402D01*
X0171657Y0207200D02*
X0171659Y0207289D01*
X0171665Y0207378D01*
X0171675Y0207467D01*
X0171689Y0207555D01*
X0171706Y0207642D01*
X0171728Y0207728D01*
X0171754Y0207814D01*
X0171783Y0207898D01*
X0171816Y0207981D01*
X0171852Y0208062D01*
X0171893Y0208142D01*
X0171936Y0208219D01*
X0171983Y0208295D01*
X0172034Y0208368D01*
X0172087Y0208439D01*
X0172144Y0208508D01*
X0172204Y0208574D01*
X0172267Y0208638D01*
X0172332Y0208698D01*
X0172400Y0208756D01*
X0172471Y0208810D01*
X0172544Y0208861D01*
X0172619Y0208909D01*
X0172696Y0208954D01*
X0172775Y0208995D01*
X0172856Y0209032D01*
X0172938Y0209066D01*
X0173022Y0209097D01*
X0173107Y0209123D01*
X0173193Y0209146D01*
X0173280Y0209164D01*
X0173368Y0209179D01*
X0173457Y0209190D01*
X0173546Y0209197D01*
X0173635Y0209200D01*
X0173724Y0209199D01*
X0173813Y0209194D01*
X0173901Y0209185D01*
X0173990Y0209172D01*
X0174077Y0209155D01*
X0174164Y0209135D01*
X0174250Y0209110D01*
X0174334Y0209082D01*
X0174417Y0209050D01*
X0174499Y0209014D01*
X0174579Y0208975D01*
X0174657Y0208932D01*
X0174733Y0208886D01*
X0174807Y0208836D01*
X0174879Y0208783D01*
X0174948Y0208727D01*
X0175015Y0208668D01*
X0175079Y0208606D01*
X0175140Y0208542D01*
X0175199Y0208474D01*
X0175254Y0208404D01*
X0175306Y0208332D01*
X0175355Y0208257D01*
X0175400Y0208181D01*
X0175442Y0208102D01*
X0175480Y0208022D01*
X0175515Y0207940D01*
X0175546Y0207856D01*
X0175574Y0207771D01*
X0175597Y0207685D01*
X0175617Y0207598D01*
X0175633Y0207511D01*
X0175645Y0207422D01*
X0175653Y0207334D01*
X0175657Y0207245D01*
X0175657Y0207155D01*
X0175653Y0207066D01*
X0175645Y0206978D01*
X0175633Y0206889D01*
X0175617Y0206802D01*
X0175597Y0206715D01*
X0175574Y0206629D01*
X0175546Y0206544D01*
X0175515Y0206460D01*
X0175480Y0206378D01*
X0175442Y0206298D01*
X0175400Y0206219D01*
X0175355Y0206143D01*
X0175306Y0206068D01*
X0175254Y0205996D01*
X0175199Y0205926D01*
X0175140Y0205858D01*
X0175079Y0205794D01*
X0175015Y0205732D01*
X0174948Y0205673D01*
X0174879Y0205617D01*
X0174807Y0205564D01*
X0174733Y0205514D01*
X0174657Y0205468D01*
X0174579Y0205425D01*
X0174499Y0205386D01*
X0174417Y0205350D01*
X0174334Y0205318D01*
X0174250Y0205290D01*
X0174164Y0205265D01*
X0174077Y0205245D01*
X0173990Y0205228D01*
X0173901Y0205215D01*
X0173813Y0205206D01*
X0173724Y0205201D01*
X0173635Y0205200D01*
X0173546Y0205203D01*
X0173457Y0205210D01*
X0173368Y0205221D01*
X0173280Y0205236D01*
X0173193Y0205254D01*
X0173107Y0205277D01*
X0173022Y0205303D01*
X0172938Y0205334D01*
X0172856Y0205368D01*
X0172775Y0205405D01*
X0172696Y0205446D01*
X0172619Y0205491D01*
X0172544Y0205539D01*
X0172471Y0205590D01*
X0172400Y0205644D01*
X0172332Y0205702D01*
X0172267Y0205762D01*
X0172204Y0205826D01*
X0172144Y0205892D01*
X0172087Y0205961D01*
X0172034Y0206032D01*
X0171983Y0206105D01*
X0171936Y0206181D01*
X0171893Y0206258D01*
X0171852Y0206338D01*
X0171816Y0206419D01*
X0171783Y0206502D01*
X0171754Y0206586D01*
X0171728Y0206672D01*
X0171706Y0206758D01*
X0171689Y0206845D01*
X0171675Y0206933D01*
X0171665Y0207022D01*
X0171659Y0207111D01*
X0171657Y0207200D01*
X0191357Y0207200D02*
X0191359Y0207289D01*
X0191365Y0207378D01*
X0191375Y0207467D01*
X0191389Y0207555D01*
X0191406Y0207642D01*
X0191428Y0207728D01*
X0191454Y0207814D01*
X0191483Y0207898D01*
X0191516Y0207981D01*
X0191552Y0208062D01*
X0191593Y0208142D01*
X0191636Y0208219D01*
X0191683Y0208295D01*
X0191734Y0208368D01*
X0191787Y0208439D01*
X0191844Y0208508D01*
X0191904Y0208574D01*
X0191967Y0208638D01*
X0192032Y0208698D01*
X0192100Y0208756D01*
X0192171Y0208810D01*
X0192244Y0208861D01*
X0192319Y0208909D01*
X0192396Y0208954D01*
X0192475Y0208995D01*
X0192556Y0209032D01*
X0192638Y0209066D01*
X0192722Y0209097D01*
X0192807Y0209123D01*
X0192893Y0209146D01*
X0192980Y0209164D01*
X0193068Y0209179D01*
X0193157Y0209190D01*
X0193246Y0209197D01*
X0193335Y0209200D01*
X0193424Y0209199D01*
X0193513Y0209194D01*
X0193601Y0209185D01*
X0193690Y0209172D01*
X0193777Y0209155D01*
X0193864Y0209135D01*
X0193950Y0209110D01*
X0194034Y0209082D01*
X0194117Y0209050D01*
X0194199Y0209014D01*
X0194279Y0208975D01*
X0194357Y0208932D01*
X0194433Y0208886D01*
X0194507Y0208836D01*
X0194579Y0208783D01*
X0194648Y0208727D01*
X0194715Y0208668D01*
X0194779Y0208606D01*
X0194840Y0208542D01*
X0194899Y0208474D01*
X0194954Y0208404D01*
X0195006Y0208332D01*
X0195055Y0208257D01*
X0195100Y0208181D01*
X0195142Y0208102D01*
X0195180Y0208022D01*
X0195215Y0207940D01*
X0195246Y0207856D01*
X0195274Y0207771D01*
X0195297Y0207685D01*
X0195317Y0207598D01*
X0195333Y0207511D01*
X0195345Y0207422D01*
X0195353Y0207334D01*
X0195357Y0207245D01*
X0195357Y0207155D01*
X0195353Y0207066D01*
X0195345Y0206978D01*
X0195333Y0206889D01*
X0195317Y0206802D01*
X0195297Y0206715D01*
X0195274Y0206629D01*
X0195246Y0206544D01*
X0195215Y0206460D01*
X0195180Y0206378D01*
X0195142Y0206298D01*
X0195100Y0206219D01*
X0195055Y0206143D01*
X0195006Y0206068D01*
X0194954Y0205996D01*
X0194899Y0205926D01*
X0194840Y0205858D01*
X0194779Y0205794D01*
X0194715Y0205732D01*
X0194648Y0205673D01*
X0194579Y0205617D01*
X0194507Y0205564D01*
X0194433Y0205514D01*
X0194357Y0205468D01*
X0194279Y0205425D01*
X0194199Y0205386D01*
X0194117Y0205350D01*
X0194034Y0205318D01*
X0193950Y0205290D01*
X0193864Y0205265D01*
X0193777Y0205245D01*
X0193690Y0205228D01*
X0193601Y0205215D01*
X0193513Y0205206D01*
X0193424Y0205201D01*
X0193335Y0205200D01*
X0193246Y0205203D01*
X0193157Y0205210D01*
X0193068Y0205221D01*
X0192980Y0205236D01*
X0192893Y0205254D01*
X0192807Y0205277D01*
X0192722Y0205303D01*
X0192638Y0205334D01*
X0192556Y0205368D01*
X0192475Y0205405D01*
X0192396Y0205446D01*
X0192319Y0205491D01*
X0192244Y0205539D01*
X0192171Y0205590D01*
X0192100Y0205644D01*
X0192032Y0205702D01*
X0191967Y0205762D01*
X0191904Y0205826D01*
X0191844Y0205892D01*
X0191787Y0205961D01*
X0191734Y0206032D01*
X0191683Y0206105D01*
X0191636Y0206181D01*
X0191593Y0206258D01*
X0191552Y0206338D01*
X0191516Y0206419D01*
X0191483Y0206502D01*
X0191454Y0206586D01*
X0191428Y0206672D01*
X0191406Y0206758D01*
X0191389Y0206845D01*
X0191375Y0206933D01*
X0191365Y0207022D01*
X0191359Y0207111D01*
X0191357Y0207200D01*
X0219500Y0186000D02*
X0220000Y0186000D01*
X0222000Y0186000D02*
X0222500Y0186000D01*
X0223098Y0173157D02*
X0197098Y0173157D01*
X0197098Y0133858D01*
X0196299Y0133858D01*
X0196299Y0173157D01*
X0197098Y0173157D01*
X0200300Y0163357D02*
X0200302Y0163446D01*
X0200308Y0163535D01*
X0200318Y0163624D01*
X0200332Y0163712D01*
X0200349Y0163799D01*
X0200371Y0163885D01*
X0200397Y0163971D01*
X0200426Y0164055D01*
X0200459Y0164138D01*
X0200495Y0164219D01*
X0200536Y0164299D01*
X0200579Y0164376D01*
X0200626Y0164452D01*
X0200677Y0164525D01*
X0200730Y0164596D01*
X0200787Y0164665D01*
X0200847Y0164731D01*
X0200910Y0164795D01*
X0200975Y0164855D01*
X0201043Y0164913D01*
X0201114Y0164967D01*
X0201187Y0165018D01*
X0201262Y0165066D01*
X0201339Y0165111D01*
X0201418Y0165152D01*
X0201499Y0165189D01*
X0201581Y0165223D01*
X0201665Y0165254D01*
X0201750Y0165280D01*
X0201836Y0165303D01*
X0201923Y0165321D01*
X0202011Y0165336D01*
X0202100Y0165347D01*
X0202189Y0165354D01*
X0202278Y0165357D01*
X0202367Y0165356D01*
X0202456Y0165351D01*
X0202544Y0165342D01*
X0202633Y0165329D01*
X0202720Y0165312D01*
X0202807Y0165292D01*
X0202893Y0165267D01*
X0202977Y0165239D01*
X0203060Y0165207D01*
X0203142Y0165171D01*
X0203222Y0165132D01*
X0203300Y0165089D01*
X0203376Y0165043D01*
X0203450Y0164993D01*
X0203522Y0164940D01*
X0203591Y0164884D01*
X0203658Y0164825D01*
X0203722Y0164763D01*
X0203783Y0164699D01*
X0203842Y0164631D01*
X0203897Y0164561D01*
X0203949Y0164489D01*
X0203998Y0164414D01*
X0204043Y0164338D01*
X0204085Y0164259D01*
X0204123Y0164179D01*
X0204158Y0164097D01*
X0204189Y0164013D01*
X0204217Y0163928D01*
X0204240Y0163842D01*
X0204260Y0163755D01*
X0204276Y0163668D01*
X0204288Y0163579D01*
X0204296Y0163491D01*
X0204300Y0163402D01*
X0204300Y0163312D01*
X0204296Y0163223D01*
X0204288Y0163135D01*
X0204276Y0163046D01*
X0204260Y0162959D01*
X0204240Y0162872D01*
X0204217Y0162786D01*
X0204189Y0162701D01*
X0204158Y0162617D01*
X0204123Y0162535D01*
X0204085Y0162455D01*
X0204043Y0162376D01*
X0203998Y0162300D01*
X0203949Y0162225D01*
X0203897Y0162153D01*
X0203842Y0162083D01*
X0203783Y0162015D01*
X0203722Y0161951D01*
X0203658Y0161889D01*
X0203591Y0161830D01*
X0203522Y0161774D01*
X0203450Y0161721D01*
X0203376Y0161671D01*
X0203300Y0161625D01*
X0203222Y0161582D01*
X0203142Y0161543D01*
X0203060Y0161507D01*
X0202977Y0161475D01*
X0202893Y0161447D01*
X0202807Y0161422D01*
X0202720Y0161402D01*
X0202633Y0161385D01*
X0202544Y0161372D01*
X0202456Y0161363D01*
X0202367Y0161358D01*
X0202278Y0161357D01*
X0202189Y0161360D01*
X0202100Y0161367D01*
X0202011Y0161378D01*
X0201923Y0161393D01*
X0201836Y0161411D01*
X0201750Y0161434D01*
X0201665Y0161460D01*
X0201581Y0161491D01*
X0201499Y0161525D01*
X0201418Y0161562D01*
X0201339Y0161603D01*
X0201262Y0161648D01*
X0201187Y0161696D01*
X0201114Y0161747D01*
X0201043Y0161801D01*
X0200975Y0161859D01*
X0200910Y0161919D01*
X0200847Y0161983D01*
X0200787Y0162049D01*
X0200730Y0162118D01*
X0200677Y0162189D01*
X0200626Y0162262D01*
X0200579Y0162338D01*
X0200536Y0162415D01*
X0200495Y0162495D01*
X0200459Y0162576D01*
X0200426Y0162659D01*
X0200397Y0162743D01*
X0200371Y0162829D01*
X0200349Y0162915D01*
X0200332Y0163002D01*
X0200318Y0163090D01*
X0200308Y0163179D01*
X0200302Y0163268D01*
X0200300Y0163357D01*
X0185598Y0159858D02*
X0185598Y0147157D01*
X0185598Y0140157D02*
X0185598Y0133858D01*
X0185598Y0133157D02*
X0185598Y0126858D01*
X0185598Y0119858D02*
X0185598Y0107157D01*
X0185598Y0100157D02*
X0185598Y0093858D01*
X0185598Y0093157D02*
X0185598Y0086858D01*
X0185598Y0079858D02*
X0185598Y0067157D01*
X0185598Y0060157D02*
X0185598Y0053858D01*
X0196299Y0053858D02*
X0197098Y0053858D01*
X0197098Y0093157D01*
X0223098Y0093157D01*
X0232500Y0093157D01*
X0232500Y0053858D01*
X0223098Y0053858D01*
X0197098Y0053858D01*
X0196299Y0053858D02*
X0196299Y0093157D01*
X0197098Y0093157D01*
X0197098Y0093858D02*
X0196299Y0093858D01*
X0196299Y0133157D01*
X0197098Y0133157D01*
X0223098Y0133157D01*
X0232500Y0133157D01*
X0232500Y0093858D01*
X0223098Y0093858D01*
X0197098Y0093858D01*
X0197098Y0133157D01*
X0197098Y0133858D02*
X0223098Y0133858D01*
X0223098Y0140157D01*
X0223098Y0133858D02*
X0232500Y0133858D01*
X0232500Y0173157D01*
X0223098Y0173157D01*
X0223098Y0166858D01*
X0223098Y0159858D02*
X0223098Y0147157D01*
X0223098Y0133157D02*
X0223098Y0126858D01*
X0223098Y0119858D02*
X0223098Y0107157D01*
X0223098Y0100157D02*
X0223098Y0093858D01*
X0223098Y0093157D02*
X0223098Y0086858D01*
X0223098Y0079858D02*
X0223098Y0067157D01*
X0223098Y0060157D02*
X0223098Y0053858D01*
X0200300Y0063657D02*
X0200302Y0063746D01*
X0200308Y0063835D01*
X0200318Y0063924D01*
X0200332Y0064012D01*
X0200349Y0064099D01*
X0200371Y0064185D01*
X0200397Y0064271D01*
X0200426Y0064355D01*
X0200459Y0064438D01*
X0200495Y0064519D01*
X0200536Y0064599D01*
X0200579Y0064676D01*
X0200626Y0064752D01*
X0200677Y0064825D01*
X0200730Y0064896D01*
X0200787Y0064965D01*
X0200847Y0065031D01*
X0200910Y0065095D01*
X0200975Y0065155D01*
X0201043Y0065213D01*
X0201114Y0065267D01*
X0201187Y0065318D01*
X0201262Y0065366D01*
X0201339Y0065411D01*
X0201418Y0065452D01*
X0201499Y0065489D01*
X0201581Y0065523D01*
X0201665Y0065554D01*
X0201750Y0065580D01*
X0201836Y0065603D01*
X0201923Y0065621D01*
X0202011Y0065636D01*
X0202100Y0065647D01*
X0202189Y0065654D01*
X0202278Y0065657D01*
X0202367Y0065656D01*
X0202456Y0065651D01*
X0202544Y0065642D01*
X0202633Y0065629D01*
X0202720Y0065612D01*
X0202807Y0065592D01*
X0202893Y0065567D01*
X0202977Y0065539D01*
X0203060Y0065507D01*
X0203142Y0065471D01*
X0203222Y0065432D01*
X0203300Y0065389D01*
X0203376Y0065343D01*
X0203450Y0065293D01*
X0203522Y0065240D01*
X0203591Y0065184D01*
X0203658Y0065125D01*
X0203722Y0065063D01*
X0203783Y0064999D01*
X0203842Y0064931D01*
X0203897Y0064861D01*
X0203949Y0064789D01*
X0203998Y0064714D01*
X0204043Y0064638D01*
X0204085Y0064559D01*
X0204123Y0064479D01*
X0204158Y0064397D01*
X0204189Y0064313D01*
X0204217Y0064228D01*
X0204240Y0064142D01*
X0204260Y0064055D01*
X0204276Y0063968D01*
X0204288Y0063879D01*
X0204296Y0063791D01*
X0204300Y0063702D01*
X0204300Y0063612D01*
X0204296Y0063523D01*
X0204288Y0063435D01*
X0204276Y0063346D01*
X0204260Y0063259D01*
X0204240Y0063172D01*
X0204217Y0063086D01*
X0204189Y0063001D01*
X0204158Y0062917D01*
X0204123Y0062835D01*
X0204085Y0062755D01*
X0204043Y0062676D01*
X0203998Y0062600D01*
X0203949Y0062525D01*
X0203897Y0062453D01*
X0203842Y0062383D01*
X0203783Y0062315D01*
X0203722Y0062251D01*
X0203658Y0062189D01*
X0203591Y0062130D01*
X0203522Y0062074D01*
X0203450Y0062021D01*
X0203376Y0061971D01*
X0203300Y0061925D01*
X0203222Y0061882D01*
X0203142Y0061843D01*
X0203060Y0061807D01*
X0202977Y0061775D01*
X0202893Y0061747D01*
X0202807Y0061722D01*
X0202720Y0061702D01*
X0202633Y0061685D01*
X0202544Y0061672D01*
X0202456Y0061663D01*
X0202367Y0061658D01*
X0202278Y0061657D01*
X0202189Y0061660D01*
X0202100Y0061667D01*
X0202011Y0061678D01*
X0201923Y0061693D01*
X0201836Y0061711D01*
X0201750Y0061734D01*
X0201665Y0061760D01*
X0201581Y0061791D01*
X0201499Y0061825D01*
X0201418Y0061862D01*
X0201339Y0061903D01*
X0201262Y0061948D01*
X0201187Y0061996D01*
X0201114Y0062047D01*
X0201043Y0062101D01*
X0200975Y0062159D01*
X0200910Y0062219D01*
X0200847Y0062283D01*
X0200787Y0062349D01*
X0200730Y0062418D01*
X0200677Y0062489D01*
X0200626Y0062562D01*
X0200579Y0062638D01*
X0200536Y0062715D01*
X0200495Y0062795D01*
X0200459Y0062876D01*
X0200426Y0062959D01*
X0200397Y0063043D01*
X0200371Y0063129D01*
X0200349Y0063215D01*
X0200332Y0063302D01*
X0200318Y0063390D01*
X0200308Y0063479D01*
X0200302Y0063568D01*
X0200300Y0063657D01*
X0200300Y0083357D02*
X0200302Y0083446D01*
X0200308Y0083535D01*
X0200318Y0083624D01*
X0200332Y0083712D01*
X0200349Y0083799D01*
X0200371Y0083885D01*
X0200397Y0083971D01*
X0200426Y0084055D01*
X0200459Y0084138D01*
X0200495Y0084219D01*
X0200536Y0084299D01*
X0200579Y0084376D01*
X0200626Y0084452D01*
X0200677Y0084525D01*
X0200730Y0084596D01*
X0200787Y0084665D01*
X0200847Y0084731D01*
X0200910Y0084795D01*
X0200975Y0084855D01*
X0201043Y0084913D01*
X0201114Y0084967D01*
X0201187Y0085018D01*
X0201262Y0085066D01*
X0201339Y0085111D01*
X0201418Y0085152D01*
X0201499Y0085189D01*
X0201581Y0085223D01*
X0201665Y0085254D01*
X0201750Y0085280D01*
X0201836Y0085303D01*
X0201923Y0085321D01*
X0202011Y0085336D01*
X0202100Y0085347D01*
X0202189Y0085354D01*
X0202278Y0085357D01*
X0202367Y0085356D01*
X0202456Y0085351D01*
X0202544Y0085342D01*
X0202633Y0085329D01*
X0202720Y0085312D01*
X0202807Y0085292D01*
X0202893Y0085267D01*
X0202977Y0085239D01*
X0203060Y0085207D01*
X0203142Y0085171D01*
X0203222Y0085132D01*
X0203300Y0085089D01*
X0203376Y0085043D01*
X0203450Y0084993D01*
X0203522Y0084940D01*
X0203591Y0084884D01*
X0203658Y0084825D01*
X0203722Y0084763D01*
X0203783Y0084699D01*
X0203842Y0084631D01*
X0203897Y0084561D01*
X0203949Y0084489D01*
X0203998Y0084414D01*
X0204043Y0084338D01*
X0204085Y0084259D01*
X0204123Y0084179D01*
X0204158Y0084097D01*
X0204189Y0084013D01*
X0204217Y0083928D01*
X0204240Y0083842D01*
X0204260Y0083755D01*
X0204276Y0083668D01*
X0204288Y0083579D01*
X0204296Y0083491D01*
X0204300Y0083402D01*
X0204300Y0083312D01*
X0204296Y0083223D01*
X0204288Y0083135D01*
X0204276Y0083046D01*
X0204260Y0082959D01*
X0204240Y0082872D01*
X0204217Y0082786D01*
X0204189Y0082701D01*
X0204158Y0082617D01*
X0204123Y0082535D01*
X0204085Y0082455D01*
X0204043Y0082376D01*
X0203998Y0082300D01*
X0203949Y0082225D01*
X0203897Y0082153D01*
X0203842Y0082083D01*
X0203783Y0082015D01*
X0203722Y0081951D01*
X0203658Y0081889D01*
X0203591Y0081830D01*
X0203522Y0081774D01*
X0203450Y0081721D01*
X0203376Y0081671D01*
X0203300Y0081625D01*
X0203222Y0081582D01*
X0203142Y0081543D01*
X0203060Y0081507D01*
X0202977Y0081475D01*
X0202893Y0081447D01*
X0202807Y0081422D01*
X0202720Y0081402D01*
X0202633Y0081385D01*
X0202544Y0081372D01*
X0202456Y0081363D01*
X0202367Y0081358D01*
X0202278Y0081357D01*
X0202189Y0081360D01*
X0202100Y0081367D01*
X0202011Y0081378D01*
X0201923Y0081393D01*
X0201836Y0081411D01*
X0201750Y0081434D01*
X0201665Y0081460D01*
X0201581Y0081491D01*
X0201499Y0081525D01*
X0201418Y0081562D01*
X0201339Y0081603D01*
X0201262Y0081648D01*
X0201187Y0081696D01*
X0201114Y0081747D01*
X0201043Y0081801D01*
X0200975Y0081859D01*
X0200910Y0081919D01*
X0200847Y0081983D01*
X0200787Y0082049D01*
X0200730Y0082118D01*
X0200677Y0082189D01*
X0200626Y0082262D01*
X0200579Y0082338D01*
X0200536Y0082415D01*
X0200495Y0082495D01*
X0200459Y0082576D01*
X0200426Y0082659D01*
X0200397Y0082743D01*
X0200371Y0082829D01*
X0200349Y0082915D01*
X0200332Y0083002D01*
X0200318Y0083090D01*
X0200308Y0083179D01*
X0200302Y0083268D01*
X0200300Y0083357D01*
X0200300Y0103657D02*
X0200302Y0103746D01*
X0200308Y0103835D01*
X0200318Y0103924D01*
X0200332Y0104012D01*
X0200349Y0104099D01*
X0200371Y0104185D01*
X0200397Y0104271D01*
X0200426Y0104355D01*
X0200459Y0104438D01*
X0200495Y0104519D01*
X0200536Y0104599D01*
X0200579Y0104676D01*
X0200626Y0104752D01*
X0200677Y0104825D01*
X0200730Y0104896D01*
X0200787Y0104965D01*
X0200847Y0105031D01*
X0200910Y0105095D01*
X0200975Y0105155D01*
X0201043Y0105213D01*
X0201114Y0105267D01*
X0201187Y0105318D01*
X0201262Y0105366D01*
X0201339Y0105411D01*
X0201418Y0105452D01*
X0201499Y0105489D01*
X0201581Y0105523D01*
X0201665Y0105554D01*
X0201750Y0105580D01*
X0201836Y0105603D01*
X0201923Y0105621D01*
X0202011Y0105636D01*
X0202100Y0105647D01*
X0202189Y0105654D01*
X0202278Y0105657D01*
X0202367Y0105656D01*
X0202456Y0105651D01*
X0202544Y0105642D01*
X0202633Y0105629D01*
X0202720Y0105612D01*
X0202807Y0105592D01*
X0202893Y0105567D01*
X0202977Y0105539D01*
X0203060Y0105507D01*
X0203142Y0105471D01*
X0203222Y0105432D01*
X0203300Y0105389D01*
X0203376Y0105343D01*
X0203450Y0105293D01*
X0203522Y0105240D01*
X0203591Y0105184D01*
X0203658Y0105125D01*
X0203722Y0105063D01*
X0203783Y0104999D01*
X0203842Y0104931D01*
X0203897Y0104861D01*
X0203949Y0104789D01*
X0203998Y0104714D01*
X0204043Y0104638D01*
X0204085Y0104559D01*
X0204123Y0104479D01*
X0204158Y0104397D01*
X0204189Y0104313D01*
X0204217Y0104228D01*
X0204240Y0104142D01*
X0204260Y0104055D01*
X0204276Y0103968D01*
X0204288Y0103879D01*
X0204296Y0103791D01*
X0204300Y0103702D01*
X0204300Y0103612D01*
X0204296Y0103523D01*
X0204288Y0103435D01*
X0204276Y0103346D01*
X0204260Y0103259D01*
X0204240Y0103172D01*
X0204217Y0103086D01*
X0204189Y0103001D01*
X0204158Y0102917D01*
X0204123Y0102835D01*
X0204085Y0102755D01*
X0204043Y0102676D01*
X0203998Y0102600D01*
X0203949Y0102525D01*
X0203897Y0102453D01*
X0203842Y0102383D01*
X0203783Y0102315D01*
X0203722Y0102251D01*
X0203658Y0102189D01*
X0203591Y0102130D01*
X0203522Y0102074D01*
X0203450Y0102021D01*
X0203376Y0101971D01*
X0203300Y0101925D01*
X0203222Y0101882D01*
X0203142Y0101843D01*
X0203060Y0101807D01*
X0202977Y0101775D01*
X0202893Y0101747D01*
X0202807Y0101722D01*
X0202720Y0101702D01*
X0202633Y0101685D01*
X0202544Y0101672D01*
X0202456Y0101663D01*
X0202367Y0101658D01*
X0202278Y0101657D01*
X0202189Y0101660D01*
X0202100Y0101667D01*
X0202011Y0101678D01*
X0201923Y0101693D01*
X0201836Y0101711D01*
X0201750Y0101734D01*
X0201665Y0101760D01*
X0201581Y0101791D01*
X0201499Y0101825D01*
X0201418Y0101862D01*
X0201339Y0101903D01*
X0201262Y0101948D01*
X0201187Y0101996D01*
X0201114Y0102047D01*
X0201043Y0102101D01*
X0200975Y0102159D01*
X0200910Y0102219D01*
X0200847Y0102283D01*
X0200787Y0102349D01*
X0200730Y0102418D01*
X0200677Y0102489D01*
X0200626Y0102562D01*
X0200579Y0102638D01*
X0200536Y0102715D01*
X0200495Y0102795D01*
X0200459Y0102876D01*
X0200426Y0102959D01*
X0200397Y0103043D01*
X0200371Y0103129D01*
X0200349Y0103215D01*
X0200332Y0103302D01*
X0200318Y0103390D01*
X0200308Y0103479D01*
X0200302Y0103568D01*
X0200300Y0103657D01*
X0200300Y0123357D02*
X0200302Y0123446D01*
X0200308Y0123535D01*
X0200318Y0123624D01*
X0200332Y0123712D01*
X0200349Y0123799D01*
X0200371Y0123885D01*
X0200397Y0123971D01*
X0200426Y0124055D01*
X0200459Y0124138D01*
X0200495Y0124219D01*
X0200536Y0124299D01*
X0200579Y0124376D01*
X0200626Y0124452D01*
X0200677Y0124525D01*
X0200730Y0124596D01*
X0200787Y0124665D01*
X0200847Y0124731D01*
X0200910Y0124795D01*
X0200975Y0124855D01*
X0201043Y0124913D01*
X0201114Y0124967D01*
X0201187Y0125018D01*
X0201262Y0125066D01*
X0201339Y0125111D01*
X0201418Y0125152D01*
X0201499Y0125189D01*
X0201581Y0125223D01*
X0201665Y0125254D01*
X0201750Y0125280D01*
X0201836Y0125303D01*
X0201923Y0125321D01*
X0202011Y0125336D01*
X0202100Y0125347D01*
X0202189Y0125354D01*
X0202278Y0125357D01*
X0202367Y0125356D01*
X0202456Y0125351D01*
X0202544Y0125342D01*
X0202633Y0125329D01*
X0202720Y0125312D01*
X0202807Y0125292D01*
X0202893Y0125267D01*
X0202977Y0125239D01*
X0203060Y0125207D01*
X0203142Y0125171D01*
X0203222Y0125132D01*
X0203300Y0125089D01*
X0203376Y0125043D01*
X0203450Y0124993D01*
X0203522Y0124940D01*
X0203591Y0124884D01*
X0203658Y0124825D01*
X0203722Y0124763D01*
X0203783Y0124699D01*
X0203842Y0124631D01*
X0203897Y0124561D01*
X0203949Y0124489D01*
X0203998Y0124414D01*
X0204043Y0124338D01*
X0204085Y0124259D01*
X0204123Y0124179D01*
X0204158Y0124097D01*
X0204189Y0124013D01*
X0204217Y0123928D01*
X0204240Y0123842D01*
X0204260Y0123755D01*
X0204276Y0123668D01*
X0204288Y0123579D01*
X0204296Y0123491D01*
X0204300Y0123402D01*
X0204300Y0123312D01*
X0204296Y0123223D01*
X0204288Y0123135D01*
X0204276Y0123046D01*
X0204260Y0122959D01*
X0204240Y0122872D01*
X0204217Y0122786D01*
X0204189Y0122701D01*
X0204158Y0122617D01*
X0204123Y0122535D01*
X0204085Y0122455D01*
X0204043Y0122376D01*
X0203998Y0122300D01*
X0203949Y0122225D01*
X0203897Y0122153D01*
X0203842Y0122083D01*
X0203783Y0122015D01*
X0203722Y0121951D01*
X0203658Y0121889D01*
X0203591Y0121830D01*
X0203522Y0121774D01*
X0203450Y0121721D01*
X0203376Y0121671D01*
X0203300Y0121625D01*
X0203222Y0121582D01*
X0203142Y0121543D01*
X0203060Y0121507D01*
X0202977Y0121475D01*
X0202893Y0121447D01*
X0202807Y0121422D01*
X0202720Y0121402D01*
X0202633Y0121385D01*
X0202544Y0121372D01*
X0202456Y0121363D01*
X0202367Y0121358D01*
X0202278Y0121357D01*
X0202189Y0121360D01*
X0202100Y0121367D01*
X0202011Y0121378D01*
X0201923Y0121393D01*
X0201836Y0121411D01*
X0201750Y0121434D01*
X0201665Y0121460D01*
X0201581Y0121491D01*
X0201499Y0121525D01*
X0201418Y0121562D01*
X0201339Y0121603D01*
X0201262Y0121648D01*
X0201187Y0121696D01*
X0201114Y0121747D01*
X0201043Y0121801D01*
X0200975Y0121859D01*
X0200910Y0121919D01*
X0200847Y0121983D01*
X0200787Y0122049D01*
X0200730Y0122118D01*
X0200677Y0122189D01*
X0200626Y0122262D01*
X0200579Y0122338D01*
X0200536Y0122415D01*
X0200495Y0122495D01*
X0200459Y0122576D01*
X0200426Y0122659D01*
X0200397Y0122743D01*
X0200371Y0122829D01*
X0200349Y0122915D01*
X0200332Y0123002D01*
X0200318Y0123090D01*
X0200308Y0123179D01*
X0200302Y0123268D01*
X0200300Y0123357D01*
X0200300Y0143657D02*
X0200302Y0143746D01*
X0200308Y0143835D01*
X0200318Y0143924D01*
X0200332Y0144012D01*
X0200349Y0144099D01*
X0200371Y0144185D01*
X0200397Y0144271D01*
X0200426Y0144355D01*
X0200459Y0144438D01*
X0200495Y0144519D01*
X0200536Y0144599D01*
X0200579Y0144676D01*
X0200626Y0144752D01*
X0200677Y0144825D01*
X0200730Y0144896D01*
X0200787Y0144965D01*
X0200847Y0145031D01*
X0200910Y0145095D01*
X0200975Y0145155D01*
X0201043Y0145213D01*
X0201114Y0145267D01*
X0201187Y0145318D01*
X0201262Y0145366D01*
X0201339Y0145411D01*
X0201418Y0145452D01*
X0201499Y0145489D01*
X0201581Y0145523D01*
X0201665Y0145554D01*
X0201750Y0145580D01*
X0201836Y0145603D01*
X0201923Y0145621D01*
X0202011Y0145636D01*
X0202100Y0145647D01*
X0202189Y0145654D01*
X0202278Y0145657D01*
X0202367Y0145656D01*
X0202456Y0145651D01*
X0202544Y0145642D01*
X0202633Y0145629D01*
X0202720Y0145612D01*
X0202807Y0145592D01*
X0202893Y0145567D01*
X0202977Y0145539D01*
X0203060Y0145507D01*
X0203142Y0145471D01*
X0203222Y0145432D01*
X0203300Y0145389D01*
X0203376Y0145343D01*
X0203450Y0145293D01*
X0203522Y0145240D01*
X0203591Y0145184D01*
X0203658Y0145125D01*
X0203722Y0145063D01*
X0203783Y0144999D01*
X0203842Y0144931D01*
X0203897Y0144861D01*
X0203949Y0144789D01*
X0203998Y0144714D01*
X0204043Y0144638D01*
X0204085Y0144559D01*
X0204123Y0144479D01*
X0204158Y0144397D01*
X0204189Y0144313D01*
X0204217Y0144228D01*
X0204240Y0144142D01*
X0204260Y0144055D01*
X0204276Y0143968D01*
X0204288Y0143879D01*
X0204296Y0143791D01*
X0204300Y0143702D01*
X0204300Y0143612D01*
X0204296Y0143523D01*
X0204288Y0143435D01*
X0204276Y0143346D01*
X0204260Y0143259D01*
X0204240Y0143172D01*
X0204217Y0143086D01*
X0204189Y0143001D01*
X0204158Y0142917D01*
X0204123Y0142835D01*
X0204085Y0142755D01*
X0204043Y0142676D01*
X0203998Y0142600D01*
X0203949Y0142525D01*
X0203897Y0142453D01*
X0203842Y0142383D01*
X0203783Y0142315D01*
X0203722Y0142251D01*
X0203658Y0142189D01*
X0203591Y0142130D01*
X0203522Y0142074D01*
X0203450Y0142021D01*
X0203376Y0141971D01*
X0203300Y0141925D01*
X0203222Y0141882D01*
X0203142Y0141843D01*
X0203060Y0141807D01*
X0202977Y0141775D01*
X0202893Y0141747D01*
X0202807Y0141722D01*
X0202720Y0141702D01*
X0202633Y0141685D01*
X0202544Y0141672D01*
X0202456Y0141663D01*
X0202367Y0141658D01*
X0202278Y0141657D01*
X0202189Y0141660D01*
X0202100Y0141667D01*
X0202011Y0141678D01*
X0201923Y0141693D01*
X0201836Y0141711D01*
X0201750Y0141734D01*
X0201665Y0141760D01*
X0201581Y0141791D01*
X0201499Y0141825D01*
X0201418Y0141862D01*
X0201339Y0141903D01*
X0201262Y0141948D01*
X0201187Y0141996D01*
X0201114Y0142047D01*
X0201043Y0142101D01*
X0200975Y0142159D01*
X0200910Y0142219D01*
X0200847Y0142283D01*
X0200787Y0142349D01*
X0200730Y0142418D01*
X0200677Y0142489D01*
X0200626Y0142562D01*
X0200579Y0142638D01*
X0200536Y0142715D01*
X0200495Y0142795D01*
X0200459Y0142876D01*
X0200426Y0142959D01*
X0200397Y0143043D01*
X0200371Y0143129D01*
X0200349Y0143215D01*
X0200332Y0143302D01*
X0200318Y0143390D01*
X0200308Y0143479D01*
X0200302Y0143568D01*
X0200300Y0143657D01*
X0185598Y0166858D02*
X0185598Y0173157D01*
X0162800Y0163357D02*
X0162802Y0163446D01*
X0162808Y0163535D01*
X0162818Y0163624D01*
X0162832Y0163712D01*
X0162849Y0163799D01*
X0162871Y0163885D01*
X0162897Y0163971D01*
X0162926Y0164055D01*
X0162959Y0164138D01*
X0162995Y0164219D01*
X0163036Y0164299D01*
X0163079Y0164376D01*
X0163126Y0164452D01*
X0163177Y0164525D01*
X0163230Y0164596D01*
X0163287Y0164665D01*
X0163347Y0164731D01*
X0163410Y0164795D01*
X0163475Y0164855D01*
X0163543Y0164913D01*
X0163614Y0164967D01*
X0163687Y0165018D01*
X0163762Y0165066D01*
X0163839Y0165111D01*
X0163918Y0165152D01*
X0163999Y0165189D01*
X0164081Y0165223D01*
X0164165Y0165254D01*
X0164250Y0165280D01*
X0164336Y0165303D01*
X0164423Y0165321D01*
X0164511Y0165336D01*
X0164600Y0165347D01*
X0164689Y0165354D01*
X0164778Y0165357D01*
X0164867Y0165356D01*
X0164956Y0165351D01*
X0165044Y0165342D01*
X0165133Y0165329D01*
X0165220Y0165312D01*
X0165307Y0165292D01*
X0165393Y0165267D01*
X0165477Y0165239D01*
X0165560Y0165207D01*
X0165642Y0165171D01*
X0165722Y0165132D01*
X0165800Y0165089D01*
X0165876Y0165043D01*
X0165950Y0164993D01*
X0166022Y0164940D01*
X0166091Y0164884D01*
X0166158Y0164825D01*
X0166222Y0164763D01*
X0166283Y0164699D01*
X0166342Y0164631D01*
X0166397Y0164561D01*
X0166449Y0164489D01*
X0166498Y0164414D01*
X0166543Y0164338D01*
X0166585Y0164259D01*
X0166623Y0164179D01*
X0166658Y0164097D01*
X0166689Y0164013D01*
X0166717Y0163928D01*
X0166740Y0163842D01*
X0166760Y0163755D01*
X0166776Y0163668D01*
X0166788Y0163579D01*
X0166796Y0163491D01*
X0166800Y0163402D01*
X0166800Y0163312D01*
X0166796Y0163223D01*
X0166788Y0163135D01*
X0166776Y0163046D01*
X0166760Y0162959D01*
X0166740Y0162872D01*
X0166717Y0162786D01*
X0166689Y0162701D01*
X0166658Y0162617D01*
X0166623Y0162535D01*
X0166585Y0162455D01*
X0166543Y0162376D01*
X0166498Y0162300D01*
X0166449Y0162225D01*
X0166397Y0162153D01*
X0166342Y0162083D01*
X0166283Y0162015D01*
X0166222Y0161951D01*
X0166158Y0161889D01*
X0166091Y0161830D01*
X0166022Y0161774D01*
X0165950Y0161721D01*
X0165876Y0161671D01*
X0165800Y0161625D01*
X0165722Y0161582D01*
X0165642Y0161543D01*
X0165560Y0161507D01*
X0165477Y0161475D01*
X0165393Y0161447D01*
X0165307Y0161422D01*
X0165220Y0161402D01*
X0165133Y0161385D01*
X0165044Y0161372D01*
X0164956Y0161363D01*
X0164867Y0161358D01*
X0164778Y0161357D01*
X0164689Y0161360D01*
X0164600Y0161367D01*
X0164511Y0161378D01*
X0164423Y0161393D01*
X0164336Y0161411D01*
X0164250Y0161434D01*
X0164165Y0161460D01*
X0164081Y0161491D01*
X0163999Y0161525D01*
X0163918Y0161562D01*
X0163839Y0161603D01*
X0163762Y0161648D01*
X0163687Y0161696D01*
X0163614Y0161747D01*
X0163543Y0161801D01*
X0163475Y0161859D01*
X0163410Y0161919D01*
X0163347Y0161983D01*
X0163287Y0162049D01*
X0163230Y0162118D01*
X0163177Y0162189D01*
X0163126Y0162262D01*
X0163079Y0162338D01*
X0163036Y0162415D01*
X0162995Y0162495D01*
X0162959Y0162576D01*
X0162926Y0162659D01*
X0162897Y0162743D01*
X0162871Y0162829D01*
X0162849Y0162915D01*
X0162832Y0163002D01*
X0162818Y0163090D01*
X0162808Y0163179D01*
X0162802Y0163268D01*
X0162800Y0163357D01*
X0162800Y0143657D02*
X0162802Y0143746D01*
X0162808Y0143835D01*
X0162818Y0143924D01*
X0162832Y0144012D01*
X0162849Y0144099D01*
X0162871Y0144185D01*
X0162897Y0144271D01*
X0162926Y0144355D01*
X0162959Y0144438D01*
X0162995Y0144519D01*
X0163036Y0144599D01*
X0163079Y0144676D01*
X0163126Y0144752D01*
X0163177Y0144825D01*
X0163230Y0144896D01*
X0163287Y0144965D01*
X0163347Y0145031D01*
X0163410Y0145095D01*
X0163475Y0145155D01*
X0163543Y0145213D01*
X0163614Y0145267D01*
X0163687Y0145318D01*
X0163762Y0145366D01*
X0163839Y0145411D01*
X0163918Y0145452D01*
X0163999Y0145489D01*
X0164081Y0145523D01*
X0164165Y0145554D01*
X0164250Y0145580D01*
X0164336Y0145603D01*
X0164423Y0145621D01*
X0164511Y0145636D01*
X0164600Y0145647D01*
X0164689Y0145654D01*
X0164778Y0145657D01*
X0164867Y0145656D01*
X0164956Y0145651D01*
X0165044Y0145642D01*
X0165133Y0145629D01*
X0165220Y0145612D01*
X0165307Y0145592D01*
X0165393Y0145567D01*
X0165477Y0145539D01*
X0165560Y0145507D01*
X0165642Y0145471D01*
X0165722Y0145432D01*
X0165800Y0145389D01*
X0165876Y0145343D01*
X0165950Y0145293D01*
X0166022Y0145240D01*
X0166091Y0145184D01*
X0166158Y0145125D01*
X0166222Y0145063D01*
X0166283Y0144999D01*
X0166342Y0144931D01*
X0166397Y0144861D01*
X0166449Y0144789D01*
X0166498Y0144714D01*
X0166543Y0144638D01*
X0166585Y0144559D01*
X0166623Y0144479D01*
X0166658Y0144397D01*
X0166689Y0144313D01*
X0166717Y0144228D01*
X0166740Y0144142D01*
X0166760Y0144055D01*
X0166776Y0143968D01*
X0166788Y0143879D01*
X0166796Y0143791D01*
X0166800Y0143702D01*
X0166800Y0143612D01*
X0166796Y0143523D01*
X0166788Y0143435D01*
X0166776Y0143346D01*
X0166760Y0143259D01*
X0166740Y0143172D01*
X0166717Y0143086D01*
X0166689Y0143001D01*
X0166658Y0142917D01*
X0166623Y0142835D01*
X0166585Y0142755D01*
X0166543Y0142676D01*
X0166498Y0142600D01*
X0166449Y0142525D01*
X0166397Y0142453D01*
X0166342Y0142383D01*
X0166283Y0142315D01*
X0166222Y0142251D01*
X0166158Y0142189D01*
X0166091Y0142130D01*
X0166022Y0142074D01*
X0165950Y0142021D01*
X0165876Y0141971D01*
X0165800Y0141925D01*
X0165722Y0141882D01*
X0165642Y0141843D01*
X0165560Y0141807D01*
X0165477Y0141775D01*
X0165393Y0141747D01*
X0165307Y0141722D01*
X0165220Y0141702D01*
X0165133Y0141685D01*
X0165044Y0141672D01*
X0164956Y0141663D01*
X0164867Y0141658D01*
X0164778Y0141657D01*
X0164689Y0141660D01*
X0164600Y0141667D01*
X0164511Y0141678D01*
X0164423Y0141693D01*
X0164336Y0141711D01*
X0164250Y0141734D01*
X0164165Y0141760D01*
X0164081Y0141791D01*
X0163999Y0141825D01*
X0163918Y0141862D01*
X0163839Y0141903D01*
X0163762Y0141948D01*
X0163687Y0141996D01*
X0163614Y0142047D01*
X0163543Y0142101D01*
X0163475Y0142159D01*
X0163410Y0142219D01*
X0163347Y0142283D01*
X0163287Y0142349D01*
X0163230Y0142418D01*
X0163177Y0142489D01*
X0163126Y0142562D01*
X0163079Y0142638D01*
X0163036Y0142715D01*
X0162995Y0142795D01*
X0162959Y0142876D01*
X0162926Y0142959D01*
X0162897Y0143043D01*
X0162871Y0143129D01*
X0162849Y0143215D01*
X0162832Y0143302D01*
X0162818Y0143390D01*
X0162808Y0143479D01*
X0162802Y0143568D01*
X0162800Y0143657D01*
X0162800Y0123357D02*
X0162802Y0123446D01*
X0162808Y0123535D01*
X0162818Y0123624D01*
X0162832Y0123712D01*
X0162849Y0123799D01*
X0162871Y0123885D01*
X0162897Y0123971D01*
X0162926Y0124055D01*
X0162959Y0124138D01*
X0162995Y0124219D01*
X0163036Y0124299D01*
X0163079Y0124376D01*
X0163126Y0124452D01*
X0163177Y0124525D01*
X0163230Y0124596D01*
X0163287Y0124665D01*
X0163347Y0124731D01*
X0163410Y0124795D01*
X0163475Y0124855D01*
X0163543Y0124913D01*
X0163614Y0124967D01*
X0163687Y0125018D01*
X0163762Y0125066D01*
X0163839Y0125111D01*
X0163918Y0125152D01*
X0163999Y0125189D01*
X0164081Y0125223D01*
X0164165Y0125254D01*
X0164250Y0125280D01*
X0164336Y0125303D01*
X0164423Y0125321D01*
X0164511Y0125336D01*
X0164600Y0125347D01*
X0164689Y0125354D01*
X0164778Y0125357D01*
X0164867Y0125356D01*
X0164956Y0125351D01*
X0165044Y0125342D01*
X0165133Y0125329D01*
X0165220Y0125312D01*
X0165307Y0125292D01*
X0165393Y0125267D01*
X0165477Y0125239D01*
X0165560Y0125207D01*
X0165642Y0125171D01*
X0165722Y0125132D01*
X0165800Y0125089D01*
X0165876Y0125043D01*
X0165950Y0124993D01*
X0166022Y0124940D01*
X0166091Y0124884D01*
X0166158Y0124825D01*
X0166222Y0124763D01*
X0166283Y0124699D01*
X0166342Y0124631D01*
X0166397Y0124561D01*
X0166449Y0124489D01*
X0166498Y0124414D01*
X0166543Y0124338D01*
X0166585Y0124259D01*
X0166623Y0124179D01*
X0166658Y0124097D01*
X0166689Y0124013D01*
X0166717Y0123928D01*
X0166740Y0123842D01*
X0166760Y0123755D01*
X0166776Y0123668D01*
X0166788Y0123579D01*
X0166796Y0123491D01*
X0166800Y0123402D01*
X0166800Y0123312D01*
X0166796Y0123223D01*
X0166788Y0123135D01*
X0166776Y0123046D01*
X0166760Y0122959D01*
X0166740Y0122872D01*
X0166717Y0122786D01*
X0166689Y0122701D01*
X0166658Y0122617D01*
X0166623Y0122535D01*
X0166585Y0122455D01*
X0166543Y0122376D01*
X0166498Y0122300D01*
X0166449Y0122225D01*
X0166397Y0122153D01*
X0166342Y0122083D01*
X0166283Y0122015D01*
X0166222Y0121951D01*
X0166158Y0121889D01*
X0166091Y0121830D01*
X0166022Y0121774D01*
X0165950Y0121721D01*
X0165876Y0121671D01*
X0165800Y0121625D01*
X0165722Y0121582D01*
X0165642Y0121543D01*
X0165560Y0121507D01*
X0165477Y0121475D01*
X0165393Y0121447D01*
X0165307Y0121422D01*
X0165220Y0121402D01*
X0165133Y0121385D01*
X0165044Y0121372D01*
X0164956Y0121363D01*
X0164867Y0121358D01*
X0164778Y0121357D01*
X0164689Y0121360D01*
X0164600Y0121367D01*
X0164511Y0121378D01*
X0164423Y0121393D01*
X0164336Y0121411D01*
X0164250Y0121434D01*
X0164165Y0121460D01*
X0164081Y0121491D01*
X0163999Y0121525D01*
X0163918Y0121562D01*
X0163839Y0121603D01*
X0163762Y0121648D01*
X0163687Y0121696D01*
X0163614Y0121747D01*
X0163543Y0121801D01*
X0163475Y0121859D01*
X0163410Y0121919D01*
X0163347Y0121983D01*
X0163287Y0122049D01*
X0163230Y0122118D01*
X0163177Y0122189D01*
X0163126Y0122262D01*
X0163079Y0122338D01*
X0163036Y0122415D01*
X0162995Y0122495D01*
X0162959Y0122576D01*
X0162926Y0122659D01*
X0162897Y0122743D01*
X0162871Y0122829D01*
X0162849Y0122915D01*
X0162832Y0123002D01*
X0162818Y0123090D01*
X0162808Y0123179D01*
X0162802Y0123268D01*
X0162800Y0123357D01*
X0162800Y0103657D02*
X0162802Y0103746D01*
X0162808Y0103835D01*
X0162818Y0103924D01*
X0162832Y0104012D01*
X0162849Y0104099D01*
X0162871Y0104185D01*
X0162897Y0104271D01*
X0162926Y0104355D01*
X0162959Y0104438D01*
X0162995Y0104519D01*
X0163036Y0104599D01*
X0163079Y0104676D01*
X0163126Y0104752D01*
X0163177Y0104825D01*
X0163230Y0104896D01*
X0163287Y0104965D01*
X0163347Y0105031D01*
X0163410Y0105095D01*
X0163475Y0105155D01*
X0163543Y0105213D01*
X0163614Y0105267D01*
X0163687Y0105318D01*
X0163762Y0105366D01*
X0163839Y0105411D01*
X0163918Y0105452D01*
X0163999Y0105489D01*
X0164081Y0105523D01*
X0164165Y0105554D01*
X0164250Y0105580D01*
X0164336Y0105603D01*
X0164423Y0105621D01*
X0164511Y0105636D01*
X0164600Y0105647D01*
X0164689Y0105654D01*
X0164778Y0105657D01*
X0164867Y0105656D01*
X0164956Y0105651D01*
X0165044Y0105642D01*
X0165133Y0105629D01*
X0165220Y0105612D01*
X0165307Y0105592D01*
X0165393Y0105567D01*
X0165477Y0105539D01*
X0165560Y0105507D01*
X0165642Y0105471D01*
X0165722Y0105432D01*
X0165800Y0105389D01*
X0165876Y0105343D01*
X0165950Y0105293D01*
X0166022Y0105240D01*
X0166091Y0105184D01*
X0166158Y0105125D01*
X0166222Y0105063D01*
X0166283Y0104999D01*
X0166342Y0104931D01*
X0166397Y0104861D01*
X0166449Y0104789D01*
X0166498Y0104714D01*
X0166543Y0104638D01*
X0166585Y0104559D01*
X0166623Y0104479D01*
X0166658Y0104397D01*
X0166689Y0104313D01*
X0166717Y0104228D01*
X0166740Y0104142D01*
X0166760Y0104055D01*
X0166776Y0103968D01*
X0166788Y0103879D01*
X0166796Y0103791D01*
X0166800Y0103702D01*
X0166800Y0103612D01*
X0166796Y0103523D01*
X0166788Y0103435D01*
X0166776Y0103346D01*
X0166760Y0103259D01*
X0166740Y0103172D01*
X0166717Y0103086D01*
X0166689Y0103001D01*
X0166658Y0102917D01*
X0166623Y0102835D01*
X0166585Y0102755D01*
X0166543Y0102676D01*
X0166498Y0102600D01*
X0166449Y0102525D01*
X0166397Y0102453D01*
X0166342Y0102383D01*
X0166283Y0102315D01*
X0166222Y0102251D01*
X0166158Y0102189D01*
X0166091Y0102130D01*
X0166022Y0102074D01*
X0165950Y0102021D01*
X0165876Y0101971D01*
X0165800Y0101925D01*
X0165722Y0101882D01*
X0165642Y0101843D01*
X0165560Y0101807D01*
X0165477Y0101775D01*
X0165393Y0101747D01*
X0165307Y0101722D01*
X0165220Y0101702D01*
X0165133Y0101685D01*
X0165044Y0101672D01*
X0164956Y0101663D01*
X0164867Y0101658D01*
X0164778Y0101657D01*
X0164689Y0101660D01*
X0164600Y0101667D01*
X0164511Y0101678D01*
X0164423Y0101693D01*
X0164336Y0101711D01*
X0164250Y0101734D01*
X0164165Y0101760D01*
X0164081Y0101791D01*
X0163999Y0101825D01*
X0163918Y0101862D01*
X0163839Y0101903D01*
X0163762Y0101948D01*
X0163687Y0101996D01*
X0163614Y0102047D01*
X0163543Y0102101D01*
X0163475Y0102159D01*
X0163410Y0102219D01*
X0163347Y0102283D01*
X0163287Y0102349D01*
X0163230Y0102418D01*
X0163177Y0102489D01*
X0163126Y0102562D01*
X0163079Y0102638D01*
X0163036Y0102715D01*
X0162995Y0102795D01*
X0162959Y0102876D01*
X0162926Y0102959D01*
X0162897Y0103043D01*
X0162871Y0103129D01*
X0162849Y0103215D01*
X0162832Y0103302D01*
X0162818Y0103390D01*
X0162808Y0103479D01*
X0162802Y0103568D01*
X0162800Y0103657D01*
X0046000Y0213500D02*
X0043500Y0211000D01*
X0038500Y0211000D01*
X0036000Y0213500D01*
X0036000Y0218500D01*
X0038500Y0221000D01*
X0036000Y0223500D01*
X0036000Y0228500D01*
X0038500Y0231000D01*
X0036000Y0233500D01*
X0036000Y0238500D01*
X0038500Y0241000D01*
X0043500Y0241000D01*
X0046000Y0238500D01*
X0046000Y0233500D01*
X0043500Y0231000D01*
X0046000Y0228500D01*
X0046000Y0223500D01*
X0043500Y0221000D01*
X0046000Y0218500D01*
X0046000Y0213500D01*
X0127368Y0303800D02*
X0129503Y0303800D01*
X0130570Y0304868D01*
X0132745Y0304868D02*
X0133813Y0305935D01*
X0137016Y0305935D01*
X0137016Y0307003D02*
X0137016Y0303800D01*
X0133813Y0303800D01*
X0132745Y0304868D01*
X0133813Y0308070D02*
X0135948Y0308070D01*
X0137016Y0307003D01*
X0139191Y0310205D02*
X0140259Y0310205D01*
X0140259Y0303800D01*
X0141326Y0303800D02*
X0139191Y0303800D01*
X0130570Y0309138D02*
X0129503Y0310205D01*
X0127368Y0310205D01*
X0126300Y0309138D01*
X0126300Y0304868D01*
X0127368Y0303800D01*
X0149933Y0303800D02*
X0149933Y0310205D01*
X0153136Y0310205D01*
X0154204Y0309138D01*
X0154204Y0307003D01*
X0153136Y0305935D01*
X0149933Y0305935D01*
X0156379Y0307003D02*
X0156379Y0304868D01*
X0157447Y0303800D01*
X0159582Y0303800D01*
X0160649Y0304868D01*
X0160649Y0307003D01*
X0159582Y0308070D01*
X0157447Y0308070D01*
X0156379Y0307003D01*
X0162824Y0310205D02*
X0163892Y0310205D01*
X0163892Y0303800D01*
X0162824Y0303800D02*
X0164960Y0303800D01*
X0167121Y0304868D02*
X0168189Y0303800D01*
X0171392Y0303800D01*
X0171392Y0302732D02*
X0170324Y0301665D01*
X0169257Y0301665D01*
X0171392Y0302732D02*
X0171392Y0308070D01*
X0167121Y0308070D02*
X0167121Y0304868D01*
X0165935Y0300205D02*
X0168070Y0298070D01*
X0168070Y0293800D01*
X0170245Y0293800D02*
X0170245Y0298070D01*
X0173448Y0298070D01*
X0174516Y0297003D01*
X0174516Y0293800D01*
X0176691Y0294868D02*
X0176691Y0297003D01*
X0177759Y0298070D01*
X0180961Y0298070D01*
X0180961Y0300205D02*
X0180961Y0293800D01*
X0177759Y0293800D01*
X0176691Y0294868D01*
X0183136Y0295935D02*
X0185272Y0298070D01*
X0186339Y0298070D01*
X0188508Y0297003D02*
X0189575Y0298070D01*
X0191710Y0298070D01*
X0192778Y0297003D01*
X0192778Y0295935D01*
X0188508Y0295935D01*
X0188508Y0294868D02*
X0188508Y0297003D01*
X0188508Y0294868D02*
X0189575Y0293800D01*
X0191710Y0293800D01*
X0194953Y0294868D02*
X0196021Y0293800D01*
X0197088Y0294868D01*
X0198156Y0293800D01*
X0199224Y0294868D01*
X0199224Y0298070D01*
X0194953Y0298070D02*
X0194953Y0294868D01*
X0193971Y0303800D02*
X0196106Y0303800D01*
X0197174Y0304868D01*
X0197174Y0309138D01*
X0196106Y0310205D01*
X0193971Y0310205D01*
X0192903Y0309138D01*
X0192903Y0304868D01*
X0193971Y0303800D01*
X0190728Y0303800D02*
X0188593Y0305935D01*
X0189661Y0305935D02*
X0186458Y0305935D01*
X0186458Y0303800D02*
X0186458Y0310205D01*
X0189661Y0310205D01*
X0190728Y0309138D01*
X0190728Y0307003D01*
X0189661Y0305935D01*
X0184283Y0304868D02*
X0184283Y0310205D01*
X0180012Y0310205D02*
X0180012Y0304868D01*
X0181080Y0303800D01*
X0183215Y0303800D01*
X0184283Y0304868D01*
X0183136Y0298070D02*
X0183136Y0293800D01*
X0168070Y0297003D02*
X0163800Y0297003D01*
X0163800Y0298070D02*
X0163800Y0293800D01*
X0163800Y0298070D02*
X0165935Y0300205D01*
X0199349Y0305935D02*
X0201484Y0303800D01*
X0203619Y0305935D01*
X0203619Y0310205D01*
X0199349Y0310205D02*
X0199349Y0305935D01*
X0207844Y0300205D02*
X0207844Y0293800D01*
X0207844Y0297003D02*
X0212115Y0297003D01*
X0214290Y0297003D02*
X0214290Y0294868D01*
X0215357Y0293800D01*
X0217492Y0293800D01*
X0218560Y0294868D01*
X0218560Y0297003D01*
X0217492Y0298070D01*
X0215357Y0298070D01*
X0214290Y0297003D01*
X0212115Y0300205D02*
X0212115Y0293800D01*
X0220735Y0293800D02*
X0223938Y0293800D01*
X0225006Y0294868D01*
X0223938Y0295935D01*
X0221803Y0295935D01*
X0220735Y0297003D01*
X0221803Y0298070D01*
X0225006Y0298070D01*
X0227181Y0298070D02*
X0229316Y0298070D01*
X0228248Y0299138D02*
X0228248Y0294868D01*
X0229316Y0293800D01*
X0231478Y0293800D02*
X0233613Y0293800D01*
X0232545Y0293800D02*
X0232545Y0300205D01*
X0231478Y0300205D01*
X0232644Y0303800D02*
X0231576Y0304868D01*
X0231576Y0307003D01*
X0232644Y0308070D01*
X0234779Y0308070D01*
X0235847Y0307003D01*
X0235847Y0305935D01*
X0231576Y0305935D01*
X0232644Y0303800D02*
X0234779Y0303800D01*
X0238022Y0303800D02*
X0238022Y0308070D01*
X0238022Y0305935D02*
X0240157Y0308070D01*
X0241225Y0308070D01*
X0249839Y0307003D02*
X0253041Y0307003D01*
X0254109Y0305935D01*
X0254109Y0304868D01*
X0253041Y0303800D01*
X0249839Y0303800D01*
X0249839Y0310205D01*
X0253041Y0310205D01*
X0254109Y0309138D01*
X0254109Y0308070D01*
X0253041Y0307003D01*
X0256284Y0307003D02*
X0256284Y0304868D01*
X0257352Y0303800D01*
X0259487Y0303800D01*
X0260555Y0304868D01*
X0260555Y0307003D01*
X0259487Y0308070D01*
X0257352Y0308070D01*
X0256284Y0307003D01*
X0262730Y0304868D02*
X0263797Y0305935D01*
X0267000Y0305935D01*
X0267000Y0307003D02*
X0267000Y0303800D01*
X0263797Y0303800D01*
X0262730Y0304868D01*
X0263797Y0308070D02*
X0265932Y0308070D01*
X0267000Y0307003D01*
X0269175Y0308070D02*
X0269175Y0303800D01*
X0269175Y0305935D02*
X0271310Y0308070D01*
X0272378Y0308070D01*
X0274546Y0307003D02*
X0274546Y0304868D01*
X0275614Y0303800D01*
X0278817Y0303800D01*
X0278817Y0310205D01*
X0278817Y0308070D02*
X0275614Y0308070D01*
X0274546Y0307003D01*
X0287437Y0305935D02*
X0289573Y0303800D01*
X0291708Y0305935D01*
X0291708Y0310205D01*
X0293883Y0308070D02*
X0296018Y0310205D01*
X0296018Y0303800D01*
X0293883Y0303800D02*
X0298153Y0303800D01*
X0300328Y0303800D02*
X0301396Y0303800D01*
X0301396Y0304868D01*
X0300328Y0304868D01*
X0300328Y0303800D01*
X0303551Y0304868D02*
X0303551Y0309138D01*
X0304619Y0310205D01*
X0306754Y0310205D01*
X0307821Y0309138D01*
X0303551Y0304868D01*
X0304619Y0303800D01*
X0306754Y0303800D01*
X0307821Y0304868D01*
X0307821Y0309138D01*
X0287437Y0310205D02*
X0287437Y0305935D01*
X0245423Y0298070D02*
X0244355Y0298070D01*
X0242220Y0295935D01*
X0242220Y0293800D02*
X0242220Y0298070D01*
X0240045Y0297003D02*
X0240045Y0295935D01*
X0235775Y0295935D01*
X0235775Y0294868D02*
X0235775Y0297003D01*
X0236842Y0298070D01*
X0238977Y0298070D01*
X0240045Y0297003D01*
X0238977Y0293800D02*
X0236842Y0293800D01*
X0235775Y0294868D01*
X0228334Y0303800D02*
X0227266Y0304868D01*
X0226199Y0303800D01*
X0225131Y0304868D01*
X0225131Y0308070D01*
X0222956Y0307003D02*
X0222956Y0304868D01*
X0221888Y0303800D01*
X0219753Y0303800D01*
X0218685Y0304868D01*
X0218685Y0307003D01*
X0219753Y0308070D01*
X0221888Y0308070D01*
X0222956Y0307003D01*
X0216510Y0307003D02*
X0215443Y0305935D01*
X0212240Y0305935D01*
X0212240Y0303800D02*
X0212240Y0310205D01*
X0215443Y0310205D01*
X0216510Y0309138D01*
X0216510Y0307003D01*
X0228334Y0303800D02*
X0229401Y0304868D01*
X0229401Y0308070D01*
X0351000Y0236000D02*
X0351000Y0231000D01*
X0353500Y0228500D01*
X0351000Y0226000D01*
X0351000Y0221000D01*
X0353500Y0218500D01*
X0351000Y0216000D01*
X0351000Y0211000D01*
X0353500Y0208500D01*
X0358500Y0208500D01*
X0361000Y0211000D01*
X0361000Y0216000D01*
X0358500Y0218500D01*
X0361000Y0221000D01*
X0361000Y0226000D01*
X0358500Y0228500D01*
X0361000Y0231000D01*
X0361000Y0236000D01*
X0358500Y0238500D01*
X0353500Y0238500D01*
X0351000Y0236000D01*
X0351000Y0103500D02*
X0348500Y0101000D01*
X0348500Y0096000D01*
X0351000Y0093500D01*
X0348500Y0091000D01*
X0348500Y0086000D01*
X0351000Y0083500D01*
X0348500Y0081000D01*
X0348500Y0076000D01*
X0351000Y0073500D01*
X0356000Y0073500D01*
X0358500Y0076000D01*
X0358500Y0081000D01*
X0356000Y0083500D01*
X0358500Y0086000D01*
X0358500Y0091000D01*
X0356000Y0093500D01*
X0358500Y0096000D01*
X0358500Y0101000D01*
X0356000Y0103500D01*
X0351000Y0103500D01*
X0375000Y0099500D02*
X0375000Y0082500D01*
X0375002Y0082440D01*
X0375007Y0082379D01*
X0375016Y0082320D01*
X0375029Y0082261D01*
X0375045Y0082202D01*
X0375065Y0082145D01*
X0375088Y0082090D01*
X0375115Y0082035D01*
X0375144Y0081983D01*
X0375177Y0081932D01*
X0375213Y0081883D01*
X0375251Y0081837D01*
X0375293Y0081793D01*
X0375337Y0081751D01*
X0375383Y0081713D01*
X0375432Y0081677D01*
X0375483Y0081644D01*
X0375535Y0081615D01*
X0375590Y0081588D01*
X0375645Y0081565D01*
X0375702Y0081545D01*
X0375761Y0081529D01*
X0375820Y0081516D01*
X0375879Y0081507D01*
X0375940Y0081502D01*
X0376000Y0081500D01*
X0386000Y0081500D01*
X0386060Y0081502D01*
X0386121Y0081507D01*
X0386180Y0081516D01*
X0386239Y0081529D01*
X0386298Y0081545D01*
X0386355Y0081565D01*
X0386410Y0081588D01*
X0386465Y0081615D01*
X0386517Y0081644D01*
X0386568Y0081677D01*
X0386617Y0081713D01*
X0386663Y0081751D01*
X0386707Y0081793D01*
X0386749Y0081837D01*
X0386787Y0081883D01*
X0386823Y0081932D01*
X0386856Y0081983D01*
X0386885Y0082035D01*
X0386912Y0082090D01*
X0386935Y0082145D01*
X0386955Y0082202D01*
X0386971Y0082261D01*
X0386984Y0082320D01*
X0386993Y0082379D01*
X0386998Y0082440D01*
X0387000Y0082500D01*
X0387000Y0099500D01*
X0386998Y0099560D01*
X0386993Y0099621D01*
X0386984Y0099680D01*
X0386971Y0099739D01*
X0386955Y0099798D01*
X0386935Y0099855D01*
X0386912Y0099910D01*
X0386885Y0099965D01*
X0386856Y0100017D01*
X0386823Y0100068D01*
X0386787Y0100117D01*
X0386749Y0100163D01*
X0386707Y0100207D01*
X0386663Y0100249D01*
X0386617Y0100287D01*
X0386568Y0100323D01*
X0386517Y0100356D01*
X0386465Y0100385D01*
X0386410Y0100412D01*
X0386355Y0100435D01*
X0386298Y0100455D01*
X0386239Y0100471D01*
X0386180Y0100484D01*
X0386121Y0100493D01*
X0386060Y0100498D01*
X0386000Y0100500D01*
X0376000Y0100500D01*
X0375940Y0100498D01*
X0375879Y0100493D01*
X0375820Y0100484D01*
X0375761Y0100471D01*
X0375702Y0100455D01*
X0375645Y0100435D01*
X0375590Y0100412D01*
X0375535Y0100385D01*
X0375483Y0100356D01*
X0375432Y0100323D01*
X0375383Y0100287D01*
X0375337Y0100249D01*
X0375293Y0100207D01*
X0375251Y0100163D01*
X0375213Y0100117D01*
X0375177Y0100068D01*
X0375144Y0100017D01*
X0375115Y0099965D01*
X0375088Y0099910D01*
X0375065Y0099855D01*
X0375045Y0099798D01*
X0375029Y0099739D01*
X0375016Y0099680D01*
X0375007Y0099621D01*
X0375002Y0099560D01*
X0375000Y0099500D01*
X0381000Y0092500D02*
X0381000Y0092000D01*
X0381000Y0090000D02*
X0381000Y0089500D01*
X0362000Y0037000D02*
X0345000Y0037000D01*
X0344940Y0036998D01*
X0344879Y0036993D01*
X0344820Y0036984D01*
X0344761Y0036971D01*
X0344702Y0036955D01*
X0344645Y0036935D01*
X0344590Y0036912D01*
X0344535Y0036885D01*
X0344483Y0036856D01*
X0344432Y0036823D01*
X0344383Y0036787D01*
X0344337Y0036749D01*
X0344293Y0036707D01*
X0344251Y0036663D01*
X0344213Y0036617D01*
X0344177Y0036568D01*
X0344144Y0036517D01*
X0344115Y0036465D01*
X0344088Y0036410D01*
X0344065Y0036355D01*
X0344045Y0036298D01*
X0344029Y0036239D01*
X0344016Y0036180D01*
X0344007Y0036121D01*
X0344002Y0036060D01*
X0344000Y0036000D01*
X0344000Y0026000D01*
X0344002Y0025940D01*
X0344007Y0025879D01*
X0344016Y0025820D01*
X0344029Y0025761D01*
X0344045Y0025702D01*
X0344065Y0025645D01*
X0344088Y0025590D01*
X0344115Y0025535D01*
X0344144Y0025483D01*
X0344177Y0025432D01*
X0344213Y0025383D01*
X0344251Y0025337D01*
X0344293Y0025293D01*
X0344337Y0025251D01*
X0344383Y0025213D01*
X0344432Y0025177D01*
X0344483Y0025144D01*
X0344535Y0025115D01*
X0344590Y0025088D01*
X0344645Y0025065D01*
X0344702Y0025045D01*
X0344761Y0025029D01*
X0344820Y0025016D01*
X0344879Y0025007D01*
X0344940Y0025002D01*
X0345000Y0025000D01*
X0362000Y0025000D01*
X0362060Y0025002D01*
X0362121Y0025007D01*
X0362180Y0025016D01*
X0362239Y0025029D01*
X0362298Y0025045D01*
X0362355Y0025065D01*
X0362410Y0025088D01*
X0362465Y0025115D01*
X0362517Y0025144D01*
X0362568Y0025177D01*
X0362617Y0025213D01*
X0362663Y0025251D01*
X0362707Y0025293D01*
X0362749Y0025337D01*
X0362787Y0025383D01*
X0362823Y0025432D01*
X0362856Y0025483D01*
X0362885Y0025535D01*
X0362912Y0025590D01*
X0362935Y0025645D01*
X0362955Y0025702D01*
X0362971Y0025761D01*
X0362984Y0025820D01*
X0362993Y0025879D01*
X0362998Y0025940D01*
X0363000Y0026000D01*
X0363000Y0036000D01*
X0362998Y0036060D01*
X0362993Y0036121D01*
X0362984Y0036180D01*
X0362971Y0036239D01*
X0362955Y0036298D01*
X0362935Y0036355D01*
X0362912Y0036410D01*
X0362885Y0036465D01*
X0362856Y0036517D01*
X0362823Y0036568D01*
X0362787Y0036617D01*
X0362749Y0036663D01*
X0362707Y0036707D01*
X0362663Y0036749D01*
X0362617Y0036787D01*
X0362568Y0036823D01*
X0362517Y0036856D01*
X0362465Y0036885D01*
X0362410Y0036912D01*
X0362355Y0036935D01*
X0362298Y0036955D01*
X0362239Y0036971D01*
X0362180Y0036984D01*
X0362121Y0036993D01*
X0362060Y0036998D01*
X0362000Y0037000D01*
X0355000Y0031000D02*
X0354500Y0031000D01*
X0352500Y0031000D02*
X0352000Y0031000D01*
D11*
X0360994Y0129100D02*
X0360994Y0138308D01*
X0356390Y0133704D02*
X0365598Y0133704D01*
X0360994Y0142912D02*
X0360994Y0152120D01*
X0358692Y0156724D02*
X0356390Y0156724D01*
X0354088Y0159026D01*
X0354088Y0163629D01*
X0356390Y0165931D01*
X0358692Y0165931D01*
X0360994Y0163629D01*
X0360994Y0159026D01*
X0358692Y0156724D01*
X0360994Y0159026D02*
X0363296Y0156724D01*
X0365598Y0156724D01*
X0367900Y0159026D01*
X0367900Y0163629D01*
X0365598Y0165931D01*
X0363296Y0165931D01*
X0360994Y0163629D01*
X0354088Y0149818D02*
X0360994Y0142912D01*
X0367900Y0149818D02*
X0354088Y0149818D01*
X0215931Y0045610D02*
X0215931Y0043308D01*
X0206724Y0034100D01*
X0215931Y0034100D01*
X0215931Y0045610D02*
X0213629Y0047912D01*
X0209026Y0047912D01*
X0206724Y0045610D01*
X0197516Y0047912D02*
X0197516Y0034100D01*
X0192912Y0034100D02*
X0202120Y0034100D01*
X0192912Y0043308D02*
X0197516Y0047912D01*
X0188308Y0041006D02*
X0179100Y0041006D01*
X0183704Y0045610D02*
X0183704Y0036402D01*
X0045598Y0131204D02*
X0036390Y0131204D01*
X0040994Y0126600D02*
X0040994Y0135808D01*
X0040994Y0140412D02*
X0040994Y0149620D01*
X0038692Y0154224D02*
X0036390Y0154224D01*
X0034088Y0156526D01*
X0034088Y0161129D01*
X0036390Y0163431D01*
X0038692Y0163431D01*
X0040994Y0161129D01*
X0040994Y0156526D01*
X0038692Y0154224D01*
X0040994Y0156526D02*
X0043296Y0154224D01*
X0045598Y0154224D01*
X0047900Y0156526D01*
X0047900Y0161129D01*
X0045598Y0163431D01*
X0043296Y0163431D01*
X0040994Y0161129D01*
X0034088Y0147318D02*
X0040994Y0140412D01*
X0047900Y0147318D02*
X0034088Y0147318D01*
D12*
X0014000Y0087000D02*
X0011000Y0087000D01*
X0008000Y0087000D01*
X0008000Y0085000D02*
X0011000Y0085000D01*
X0014000Y0085000D01*
X0040000Y0031500D02*
X0040000Y0028500D01*
X0040000Y0025500D01*
X0042000Y0025500D02*
X0042000Y0028500D01*
X0042000Y0031500D01*
X0220000Y0183000D02*
X0220000Y0186000D01*
X0220000Y0189000D01*
X0222000Y0189000D02*
X0222000Y0186000D01*
X0222000Y0183000D01*
X0222000Y0200500D02*
X0222000Y0203500D01*
X0222000Y0206500D01*
X0220000Y0206500D02*
X0220000Y0203500D01*
X0220000Y0200500D01*
X0378000Y0092000D02*
X0381000Y0092000D01*
X0384000Y0092000D01*
X0384000Y0090000D02*
X0381000Y0090000D01*
X0378000Y0090000D01*
X0354500Y0034000D02*
X0354500Y0031000D01*
X0354500Y0028000D01*
X0352500Y0028000D02*
X0352500Y0031000D01*
X0352500Y0034000D01*
D13*
X0352747Y0104146D02*
X0351246Y0105647D01*
X0355750Y0105647D01*
X0355750Y0104146D02*
X0355750Y0107149D01*
X0208250Y0098910D02*
X0208250Y0095907D01*
X0208250Y0097409D02*
X0203746Y0097409D01*
X0205247Y0095907D01*
X0205247Y0078410D02*
X0204497Y0078410D01*
X0203746Y0077659D01*
X0203746Y0076158D01*
X0204497Y0075407D01*
X0205247Y0078410D02*
X0208250Y0075407D01*
X0208250Y0078410D01*
X0208250Y0058910D02*
X0208250Y0055907D01*
X0208250Y0057409D02*
X0203746Y0057409D01*
X0205247Y0055907D01*
X0170750Y0055907D02*
X0170750Y0058910D01*
X0170750Y0057409D02*
X0166246Y0057409D01*
X0167747Y0055907D01*
X0166997Y0075407D02*
X0166246Y0076158D01*
X0166246Y0077659D01*
X0166997Y0078410D01*
X0167747Y0078410D01*
X0170750Y0075407D01*
X0170750Y0078410D01*
X0170750Y0095907D02*
X0170750Y0098910D01*
X0170750Y0097409D02*
X0166246Y0097409D01*
X0167747Y0095907D01*
X0166997Y0115407D02*
X0166246Y0116158D01*
X0166246Y0117659D01*
X0166997Y0118410D01*
X0167747Y0118410D01*
X0170750Y0115407D01*
X0170750Y0118410D01*
X0170750Y0135907D02*
X0170750Y0138910D01*
X0170750Y0137409D02*
X0166246Y0137409D01*
X0167747Y0135907D01*
X0166997Y0155407D02*
X0166246Y0156158D01*
X0166246Y0157659D01*
X0166997Y0158410D01*
X0167747Y0158410D01*
X0170750Y0155407D01*
X0170750Y0158410D01*
X0203746Y0157659D02*
X0203746Y0156158D01*
X0204497Y0155407D01*
X0203746Y0157659D02*
X0204497Y0158410D01*
X0205247Y0158410D01*
X0208250Y0155407D01*
X0208250Y0158410D01*
X0208250Y0138910D02*
X0208250Y0135907D01*
X0208250Y0137409D02*
X0203746Y0137409D01*
X0205247Y0135907D01*
X0205247Y0118410D02*
X0204497Y0118410D01*
X0203746Y0117659D01*
X0203746Y0116158D01*
X0204497Y0115407D01*
X0205247Y0118410D02*
X0208250Y0115407D01*
X0208250Y0118410D01*
X0188410Y0201250D02*
X0185407Y0201250D01*
X0188410Y0204253D01*
X0188410Y0205003D01*
X0187659Y0205754D01*
X0186158Y0205754D01*
X0185407Y0205003D01*
X0168910Y0201250D02*
X0165907Y0201250D01*
X0167409Y0201250D02*
X0167409Y0205754D01*
X0165907Y0204253D01*
X0043250Y0206250D02*
X0043250Y0209253D01*
X0043250Y0207751D02*
X0038746Y0207751D01*
X0040247Y0206250D01*
X0043250Y0071753D02*
X0043250Y0068750D01*
X0043250Y0070251D02*
X0038746Y0070251D01*
X0040247Y0068750D01*
X0353746Y0240647D02*
X0355247Y0239146D01*
X0353746Y0240647D02*
X0358250Y0240647D01*
X0358250Y0239146D02*
X0358250Y0242149D01*
M02*
