%
M48
M72
T01C0.03200
T02C0.03898
T03C0.04000
T04C0.04700
T05C0.07087
T06C0.11811
T07C0.14400
T08C0.17000
%
T01
X36000Y38500
X46000Y38500
X11000Y91000
X11000Y101000
X216000Y196000
X226000Y196000
X226000Y213500
X216000Y213500
X381000Y106000
X381000Y96000
X358500Y41000
X348500Y41000
T02
X336630Y41000
X336630Y48047
X336630Y55094
X325803Y55094
X325803Y48047
X325803Y41000
X325803Y62142
X325803Y69189
X336630Y69189
X336630Y62142
X336630Y91591
X336630Y99465
X336630Y107339
X325803Y107339
X325803Y99465
X325803Y91591
X325803Y119898
X336630Y119898
X336630Y127457
X336630Y135016
X336630Y142575
X325803Y142575
X325803Y135016
X325803Y127457
X325803Y150134
X325803Y157693
X336630Y157693
X336630Y150134
X336630Y176000
X325803Y176000
X325803Y183047
X325803Y190094
X325803Y197142
X325803Y204189
X336630Y204189
X336630Y197142
X336630Y190094
X336630Y183047
X261827Y183362
X251000Y183362
X251000Y190724
X261827Y190724
X261827Y198087
X251000Y198087
X251000Y207496
X261827Y207496
X261827Y214858
X251000Y214858
X251000Y222220
X261827Y222220
X261827Y229583
X251000Y229583
X251000Y238992
X261827Y238992
X261827Y246354
X251000Y246354
X251000Y253717
X261827Y253717
X261827Y261079
X251000Y261079
X251000Y270488
X261827Y270488
X261827Y277850
X251000Y277850
X251000Y285213
X261827Y285213
X261827Y292575
X251000Y292575
X325803Y292693
X325803Y285134
X325803Y277575
X336630Y277575
X336630Y285134
X336630Y292693
X336630Y270016
X336630Y262457
X336630Y254898
X325803Y254898
X325803Y262457
X325803Y270016
X325803Y242339
X336630Y242339
X336630Y234465
X336630Y226591
X325803Y226591
X325803Y234465
X261827Y176000
X251000Y176000
X251000Y157575
X261827Y157575
X261827Y150213
X251000Y150213
X251000Y142850
X261827Y142850
X261827Y135488
X251000Y135488
X251000Y126079
X261827Y126079
X261827Y118717
X251000Y118717
X251000Y111354
X261827Y111354
X261827Y103992
X251000Y103992
X251000Y94583
X261827Y94583
X261827Y87220
X251000Y87220
X251000Y79858
X261827Y79858
X261827Y72496
X251000Y72496
X251000Y63087
X261827Y63087
X261827Y55724
X251000Y55724
X251000Y48362
X261827Y48362
X261827Y41000
X251000Y41000
X146000Y41925
X135173Y41925
X135173Y49287
X135173Y56650
X135173Y64012
X146000Y64012
X146000Y56650
X146000Y49287
X146000Y73421
X146000Y80783
X135173Y80783
X135173Y73421
X135173Y88146
X135173Y95508
X146000Y95508
X146000Y88146
X146000Y104917
X146000Y112280
X146000Y119642
X146000Y127004
X135173Y127004
X135173Y119642
X135173Y112280
X135173Y104917
X71197Y107909
X60370Y107909
X60370Y100035
X60370Y92161
X71197Y92161
X71197Y100035
X71197Y79602
X71197Y72043
X60370Y72043
X60370Y79602
X60370Y64484
X60370Y56925
X60370Y49366
X71197Y49366
X71197Y56925
X71197Y64484
X71197Y41807
X60370Y41807
X60370Y130311
X71197Y130311
X71197Y137358
X71197Y144406
X71197Y151453
X71197Y158500
X60370Y158500
X60370Y151453
X60370Y144406
X60370Y137358
X135173Y136413
X146000Y136413
X146000Y143776
X146000Y151138
X146000Y158500
X135173Y158500
X135173Y151138
X135173Y143776
X135173Y179425
X135173Y186787
X135173Y194150
X135173Y201512
X146000Y201512
X146000Y194150
X146000Y186787
X146000Y179425
X146000Y210921
X146000Y218283
X135173Y218283
X135173Y210921
X135173Y225646
X135173Y233008
X146000Y233008
X146000Y225646
X146000Y242417
X146000Y249780
X146000Y257142
X135173Y257142
X135173Y249780
X135173Y242417
X135173Y264504
X146000Y264504
X146000Y273913
X146000Y281276
X146000Y288638
X146000Y296000
X135173Y296000
X135173Y288638
X135173Y281276
X135173Y273913
X71197Y274858
X71197Y267811
X60370Y267811
X60370Y274858
X60370Y281906
X60370Y288953
X60370Y296000
X71197Y296000
X71197Y288953
X71197Y281906
X71197Y245409
X60370Y245409
X60370Y237535
X60370Y229661
X71197Y229661
X71197Y237535
X71197Y217102
X71197Y209543
X60370Y209543
X60370Y217102
X60370Y201984
X60370Y194425
X60370Y186866
X60370Y179307
X71197Y179307
X71197Y186866
X71197Y194425
X71197Y201984
T03
X41000Y226000
X41000Y236000
X41000Y246000
X356000Y243500
X356000Y233500
X356000Y223500
X353500Y108500
X353500Y98500
X353500Y88500
X41000Y88500
X41000Y98500
X41000Y108500
T04
X178500Y113657
X216000Y113657
X216000Y133343
X178500Y133343
X178500Y153657
X216000Y153657
X216000Y173343
X178500Y173343
X173657Y203500
X193343Y203500
X178500Y93343
X216000Y93343
X216000Y73657
X178500Y73657
T05
X358559Y191000
X381000Y191000
X210941Y271000
X188500Y271000
X40941Y206000
X18500Y206000
T06
X17201Y230331
X17201Y181669
X187201Y246669
X187201Y295331
X382299Y215331
X382299Y166669
T07
X21000Y31000
X371000Y31000
X371000Y306000
X21000Y306000
T08
X101000Y313500
X296000Y313500
X293500Y23500
X101000Y23500
M30
