G75*
%MOIN*%
%OFA0B0*%
%FSLAX25Y25*%
%IPPOS*%
%LPD*%
%AMOC8*
5,1,8,0,0,1.08239X$1,22.5*
%
%ADD10R,2.40000X1.73800*%
%ADD11C,0.00600*%
%ADD12C,0.01000*%
%ADD13C,0.00500*%
D10*
X0638500Y0087900D03*
D11*
X0049500Y0032500D02*
X0032500Y0032500D01*
X0032440Y0032502D01*
X0032379Y0032507D01*
X0032320Y0032516D01*
X0032261Y0032529D01*
X0032202Y0032545D01*
X0032145Y0032565D01*
X0032090Y0032588D01*
X0032035Y0032615D01*
X0031983Y0032644D01*
X0031932Y0032677D01*
X0031883Y0032713D01*
X0031837Y0032751D01*
X0031793Y0032793D01*
X0031751Y0032837D01*
X0031713Y0032883D01*
X0031677Y0032932D01*
X0031644Y0032983D01*
X0031615Y0033035D01*
X0031588Y0033090D01*
X0031565Y0033145D01*
X0031545Y0033202D01*
X0031529Y0033261D01*
X0031516Y0033320D01*
X0031507Y0033379D01*
X0031502Y0033440D01*
X0031500Y0033500D01*
X0031500Y0043500D01*
X0031502Y0043560D01*
X0031507Y0043621D01*
X0031516Y0043680D01*
X0031529Y0043739D01*
X0031545Y0043798D01*
X0031565Y0043855D01*
X0031588Y0043910D01*
X0031615Y0043965D01*
X0031644Y0044017D01*
X0031677Y0044068D01*
X0031713Y0044117D01*
X0031751Y0044163D01*
X0031793Y0044207D01*
X0031837Y0044249D01*
X0031883Y0044287D01*
X0031932Y0044323D01*
X0031983Y0044356D01*
X0032035Y0044385D01*
X0032090Y0044412D01*
X0032145Y0044435D01*
X0032202Y0044455D01*
X0032261Y0044471D01*
X0032320Y0044484D01*
X0032379Y0044493D01*
X0032440Y0044498D01*
X0032500Y0044500D01*
X0049500Y0044500D01*
X0049560Y0044498D01*
X0049621Y0044493D01*
X0049680Y0044484D01*
X0049739Y0044471D01*
X0049798Y0044455D01*
X0049855Y0044435D01*
X0049910Y0044412D01*
X0049965Y0044385D01*
X0050017Y0044356D01*
X0050068Y0044323D01*
X0050117Y0044287D01*
X0050163Y0044249D01*
X0050207Y0044207D01*
X0050249Y0044163D01*
X0050287Y0044117D01*
X0050323Y0044068D01*
X0050356Y0044017D01*
X0050385Y0043965D01*
X0050412Y0043910D01*
X0050435Y0043855D01*
X0050455Y0043798D01*
X0050471Y0043739D01*
X0050484Y0043680D01*
X0050493Y0043621D01*
X0050498Y0043560D01*
X0050500Y0043500D01*
X0050500Y0033500D01*
X0050498Y0033440D01*
X0050493Y0033379D01*
X0050484Y0033320D01*
X0050471Y0033261D01*
X0050455Y0033202D01*
X0050435Y0033145D01*
X0050412Y0033090D01*
X0050385Y0033035D01*
X0050356Y0032983D01*
X0050323Y0032932D01*
X0050287Y0032883D01*
X0050249Y0032837D01*
X0050207Y0032793D01*
X0050163Y0032751D01*
X0050117Y0032713D01*
X0050068Y0032677D01*
X0050017Y0032644D01*
X0049965Y0032615D01*
X0049910Y0032588D01*
X0049855Y0032565D01*
X0049798Y0032545D01*
X0049739Y0032529D01*
X0049680Y0032516D01*
X0049621Y0032507D01*
X0049560Y0032502D01*
X0049500Y0032500D01*
X0042500Y0038500D02*
X0042000Y0038500D01*
X0040000Y0038500D02*
X0039500Y0038500D01*
X0038500Y0083500D02*
X0036000Y0086000D01*
X0036000Y0091000D01*
X0038500Y0093500D01*
X0036000Y0096000D01*
X0036000Y0101000D01*
X0038500Y0103500D01*
X0036000Y0106000D01*
X0036000Y0111000D01*
X0038500Y0113500D01*
X0043500Y0113500D01*
X0046000Y0111000D01*
X0046000Y0106000D01*
X0043500Y0103500D01*
X0046000Y0101000D01*
X0046000Y0096000D01*
X0043500Y0093500D01*
X0046000Y0091000D01*
X0046000Y0086000D01*
X0043500Y0083500D01*
X0038500Y0083500D01*
X0017000Y0087500D02*
X0017000Y0104500D01*
X0016998Y0104560D01*
X0016993Y0104621D01*
X0016984Y0104680D01*
X0016971Y0104739D01*
X0016955Y0104798D01*
X0016935Y0104855D01*
X0016912Y0104910D01*
X0016885Y0104965D01*
X0016856Y0105017D01*
X0016823Y0105068D01*
X0016787Y0105117D01*
X0016749Y0105163D01*
X0016707Y0105207D01*
X0016663Y0105249D01*
X0016617Y0105287D01*
X0016568Y0105323D01*
X0016517Y0105356D01*
X0016465Y0105385D01*
X0016410Y0105412D01*
X0016355Y0105435D01*
X0016298Y0105455D01*
X0016239Y0105471D01*
X0016180Y0105484D01*
X0016121Y0105493D01*
X0016060Y0105498D01*
X0016000Y0105500D01*
X0006000Y0105500D01*
X0005940Y0105498D01*
X0005879Y0105493D01*
X0005820Y0105484D01*
X0005761Y0105471D01*
X0005702Y0105455D01*
X0005645Y0105435D01*
X0005590Y0105412D01*
X0005535Y0105385D01*
X0005483Y0105356D01*
X0005432Y0105323D01*
X0005383Y0105287D01*
X0005337Y0105249D01*
X0005293Y0105207D01*
X0005251Y0105163D01*
X0005213Y0105117D01*
X0005177Y0105068D01*
X0005144Y0105017D01*
X0005115Y0104965D01*
X0005088Y0104910D01*
X0005065Y0104855D01*
X0005045Y0104798D01*
X0005029Y0104739D01*
X0005016Y0104680D01*
X0005007Y0104621D01*
X0005002Y0104560D01*
X0005000Y0104500D01*
X0005000Y0087500D01*
X0005002Y0087440D01*
X0005007Y0087379D01*
X0005016Y0087320D01*
X0005029Y0087261D01*
X0005045Y0087202D01*
X0005065Y0087145D01*
X0005088Y0087090D01*
X0005115Y0087035D01*
X0005144Y0086983D01*
X0005177Y0086932D01*
X0005213Y0086883D01*
X0005251Y0086837D01*
X0005293Y0086793D01*
X0005337Y0086751D01*
X0005383Y0086713D01*
X0005432Y0086677D01*
X0005483Y0086644D01*
X0005535Y0086615D01*
X0005590Y0086588D01*
X0005645Y0086565D01*
X0005702Y0086545D01*
X0005761Y0086529D01*
X0005820Y0086516D01*
X0005879Y0086507D01*
X0005940Y0086502D01*
X0006000Y0086500D01*
X0016000Y0086500D01*
X0016060Y0086502D01*
X0016121Y0086507D01*
X0016180Y0086516D01*
X0016239Y0086529D01*
X0016298Y0086545D01*
X0016355Y0086565D01*
X0016410Y0086588D01*
X0016465Y0086615D01*
X0016517Y0086644D01*
X0016568Y0086677D01*
X0016617Y0086713D01*
X0016663Y0086751D01*
X0016707Y0086793D01*
X0016749Y0086837D01*
X0016787Y0086883D01*
X0016823Y0086932D01*
X0016856Y0086983D01*
X0016885Y0087035D01*
X0016912Y0087090D01*
X0016935Y0087145D01*
X0016955Y0087202D01*
X0016971Y0087261D01*
X0016984Y0087320D01*
X0016993Y0087379D01*
X0016998Y0087440D01*
X0017000Y0087500D01*
X0011000Y0094500D02*
X0011000Y0095000D01*
X0011000Y0097000D02*
X0011000Y0097500D01*
X0158799Y0103157D02*
X0158799Y0063858D01*
X0159598Y0063858D01*
X0159598Y0103157D01*
X0185598Y0103157D01*
X0195000Y0103157D01*
X0195000Y0063858D01*
X0185598Y0063858D01*
X0159598Y0063858D01*
X0162800Y0073657D02*
X0162802Y0073746D01*
X0162808Y0073835D01*
X0162818Y0073924D01*
X0162832Y0074012D01*
X0162849Y0074099D01*
X0162871Y0074185D01*
X0162897Y0074271D01*
X0162926Y0074355D01*
X0162959Y0074438D01*
X0162995Y0074519D01*
X0163036Y0074599D01*
X0163079Y0074676D01*
X0163126Y0074752D01*
X0163177Y0074825D01*
X0163230Y0074896D01*
X0163287Y0074965D01*
X0163347Y0075031D01*
X0163410Y0075095D01*
X0163475Y0075155D01*
X0163543Y0075213D01*
X0163614Y0075267D01*
X0163687Y0075318D01*
X0163762Y0075366D01*
X0163839Y0075411D01*
X0163918Y0075452D01*
X0163999Y0075489D01*
X0164081Y0075523D01*
X0164165Y0075554D01*
X0164250Y0075580D01*
X0164336Y0075603D01*
X0164423Y0075621D01*
X0164511Y0075636D01*
X0164600Y0075647D01*
X0164689Y0075654D01*
X0164778Y0075657D01*
X0164867Y0075656D01*
X0164956Y0075651D01*
X0165044Y0075642D01*
X0165133Y0075629D01*
X0165220Y0075612D01*
X0165307Y0075592D01*
X0165393Y0075567D01*
X0165477Y0075539D01*
X0165560Y0075507D01*
X0165642Y0075471D01*
X0165722Y0075432D01*
X0165800Y0075389D01*
X0165876Y0075343D01*
X0165950Y0075293D01*
X0166022Y0075240D01*
X0166091Y0075184D01*
X0166158Y0075125D01*
X0166222Y0075063D01*
X0166283Y0074999D01*
X0166342Y0074931D01*
X0166397Y0074861D01*
X0166449Y0074789D01*
X0166498Y0074714D01*
X0166543Y0074638D01*
X0166585Y0074559D01*
X0166623Y0074479D01*
X0166658Y0074397D01*
X0166689Y0074313D01*
X0166717Y0074228D01*
X0166740Y0074142D01*
X0166760Y0074055D01*
X0166776Y0073968D01*
X0166788Y0073879D01*
X0166796Y0073791D01*
X0166800Y0073702D01*
X0166800Y0073612D01*
X0166796Y0073523D01*
X0166788Y0073435D01*
X0166776Y0073346D01*
X0166760Y0073259D01*
X0166740Y0073172D01*
X0166717Y0073086D01*
X0166689Y0073001D01*
X0166658Y0072917D01*
X0166623Y0072835D01*
X0166585Y0072755D01*
X0166543Y0072676D01*
X0166498Y0072600D01*
X0166449Y0072525D01*
X0166397Y0072453D01*
X0166342Y0072383D01*
X0166283Y0072315D01*
X0166222Y0072251D01*
X0166158Y0072189D01*
X0166091Y0072130D01*
X0166022Y0072074D01*
X0165950Y0072021D01*
X0165876Y0071971D01*
X0165800Y0071925D01*
X0165722Y0071882D01*
X0165642Y0071843D01*
X0165560Y0071807D01*
X0165477Y0071775D01*
X0165393Y0071747D01*
X0165307Y0071722D01*
X0165220Y0071702D01*
X0165133Y0071685D01*
X0165044Y0071672D01*
X0164956Y0071663D01*
X0164867Y0071658D01*
X0164778Y0071657D01*
X0164689Y0071660D01*
X0164600Y0071667D01*
X0164511Y0071678D01*
X0164423Y0071693D01*
X0164336Y0071711D01*
X0164250Y0071734D01*
X0164165Y0071760D01*
X0164081Y0071791D01*
X0163999Y0071825D01*
X0163918Y0071862D01*
X0163839Y0071903D01*
X0163762Y0071948D01*
X0163687Y0071996D01*
X0163614Y0072047D01*
X0163543Y0072101D01*
X0163475Y0072159D01*
X0163410Y0072219D01*
X0163347Y0072283D01*
X0163287Y0072349D01*
X0163230Y0072418D01*
X0163177Y0072489D01*
X0163126Y0072562D01*
X0163079Y0072638D01*
X0163036Y0072715D01*
X0162995Y0072795D01*
X0162959Y0072876D01*
X0162926Y0072959D01*
X0162897Y0073043D01*
X0162871Y0073129D01*
X0162849Y0073215D01*
X0162832Y0073302D01*
X0162818Y0073390D01*
X0162808Y0073479D01*
X0162802Y0073568D01*
X0162800Y0073657D01*
X0185598Y0070157D02*
X0185598Y0063858D01*
X0196299Y0063858D02*
X0197098Y0063858D01*
X0197098Y0103157D01*
X0223098Y0103157D01*
X0232500Y0103157D01*
X0232500Y0063858D01*
X0223098Y0063858D01*
X0197098Y0063858D01*
X0196299Y0063858D02*
X0196299Y0103157D01*
X0197098Y0103157D01*
X0197098Y0103858D02*
X0196299Y0103858D01*
X0196299Y0143157D01*
X0197098Y0143157D01*
X0223098Y0143157D01*
X0232500Y0143157D01*
X0232500Y0103858D01*
X0223098Y0103858D01*
X0197098Y0103858D01*
X0197098Y0143157D01*
X0197098Y0143858D02*
X0196299Y0143858D01*
X0196299Y0183157D01*
X0197098Y0183157D01*
X0223098Y0183157D01*
X0232500Y0183157D01*
X0232500Y0143858D01*
X0223098Y0143858D01*
X0197098Y0143858D01*
X0197098Y0183157D01*
X0195000Y0183157D02*
X0185598Y0183157D01*
X0159598Y0183157D01*
X0159598Y0143858D01*
X0158799Y0143858D01*
X0158799Y0183157D01*
X0159598Y0183157D01*
X0163858Y0187000D02*
X0163858Y0196402D01*
X0163858Y0222402D01*
X0163858Y0223201D01*
X0203157Y0223201D01*
X0203157Y0222402D01*
X0203157Y0196402D01*
X0203157Y0187000D01*
X0163858Y0187000D01*
X0163858Y0196402D02*
X0170157Y0196402D01*
X0177157Y0196402D02*
X0189858Y0196402D01*
X0196858Y0196402D02*
X0203157Y0196402D01*
X0211500Y0201000D02*
X0211500Y0191000D01*
X0211502Y0190940D01*
X0211507Y0190879D01*
X0211516Y0190820D01*
X0211529Y0190761D01*
X0211545Y0190702D01*
X0211565Y0190645D01*
X0211588Y0190590D01*
X0211615Y0190535D01*
X0211644Y0190483D01*
X0211677Y0190432D01*
X0211713Y0190383D01*
X0211751Y0190337D01*
X0211793Y0190293D01*
X0211837Y0190251D01*
X0211883Y0190213D01*
X0211932Y0190177D01*
X0211983Y0190144D01*
X0212035Y0190115D01*
X0212090Y0190088D01*
X0212145Y0190065D01*
X0212202Y0190045D01*
X0212261Y0190029D01*
X0212320Y0190016D01*
X0212379Y0190007D01*
X0212440Y0190002D01*
X0212500Y0190000D01*
X0229500Y0190000D01*
X0229560Y0190002D01*
X0229621Y0190007D01*
X0229680Y0190016D01*
X0229739Y0190029D01*
X0229798Y0190045D01*
X0229855Y0190065D01*
X0229910Y0190088D01*
X0229965Y0190115D01*
X0230017Y0190144D01*
X0230068Y0190177D01*
X0230117Y0190213D01*
X0230163Y0190251D01*
X0230207Y0190293D01*
X0230249Y0190337D01*
X0230287Y0190383D01*
X0230323Y0190432D01*
X0230356Y0190483D01*
X0230385Y0190535D01*
X0230412Y0190590D01*
X0230435Y0190645D01*
X0230455Y0190702D01*
X0230471Y0190761D01*
X0230484Y0190820D01*
X0230493Y0190879D01*
X0230498Y0190940D01*
X0230500Y0191000D01*
X0230500Y0201000D01*
X0230498Y0201060D01*
X0230493Y0201121D01*
X0230484Y0201180D01*
X0230471Y0201239D01*
X0230455Y0201298D01*
X0230435Y0201355D01*
X0230412Y0201410D01*
X0230385Y0201465D01*
X0230356Y0201517D01*
X0230323Y0201568D01*
X0230287Y0201617D01*
X0230249Y0201663D01*
X0230207Y0201707D01*
X0230163Y0201749D01*
X0230117Y0201787D01*
X0230068Y0201823D01*
X0230017Y0201856D01*
X0229965Y0201885D01*
X0229910Y0201912D01*
X0229855Y0201935D01*
X0229798Y0201955D01*
X0229739Y0201971D01*
X0229680Y0201984D01*
X0229621Y0201993D01*
X0229560Y0201998D01*
X0229500Y0202000D01*
X0212500Y0202000D01*
X0212440Y0201998D01*
X0212379Y0201993D01*
X0212320Y0201984D01*
X0212261Y0201971D01*
X0212202Y0201955D01*
X0212145Y0201935D01*
X0212090Y0201912D01*
X0212035Y0201885D01*
X0211983Y0201856D01*
X0211932Y0201823D01*
X0211883Y0201787D01*
X0211837Y0201749D01*
X0211793Y0201707D01*
X0211751Y0201663D01*
X0211713Y0201617D01*
X0211677Y0201568D01*
X0211644Y0201517D01*
X0211615Y0201465D01*
X0211588Y0201410D01*
X0211565Y0201355D01*
X0211545Y0201298D01*
X0211529Y0201239D01*
X0211516Y0201180D01*
X0211507Y0201121D01*
X0211502Y0201060D01*
X0211500Y0201000D01*
X0219500Y0196000D02*
X0220000Y0196000D01*
X0222000Y0196000D02*
X0222500Y0196000D01*
X0229500Y0207500D02*
X0212500Y0207500D01*
X0212440Y0207502D01*
X0212379Y0207507D01*
X0212320Y0207516D01*
X0212261Y0207529D01*
X0212202Y0207545D01*
X0212145Y0207565D01*
X0212090Y0207588D01*
X0212035Y0207615D01*
X0211983Y0207644D01*
X0211932Y0207677D01*
X0211883Y0207713D01*
X0211837Y0207751D01*
X0211793Y0207793D01*
X0211751Y0207837D01*
X0211713Y0207883D01*
X0211677Y0207932D01*
X0211644Y0207983D01*
X0211615Y0208035D01*
X0211588Y0208090D01*
X0211565Y0208145D01*
X0211545Y0208202D01*
X0211529Y0208261D01*
X0211516Y0208320D01*
X0211507Y0208379D01*
X0211502Y0208440D01*
X0211500Y0208500D01*
X0211500Y0218500D01*
X0211502Y0218560D01*
X0211507Y0218621D01*
X0211516Y0218680D01*
X0211529Y0218739D01*
X0211545Y0218798D01*
X0211565Y0218855D01*
X0211588Y0218910D01*
X0211615Y0218965D01*
X0211644Y0219017D01*
X0211677Y0219068D01*
X0211713Y0219117D01*
X0211751Y0219163D01*
X0211793Y0219207D01*
X0211837Y0219249D01*
X0211883Y0219287D01*
X0211932Y0219323D01*
X0211983Y0219356D01*
X0212035Y0219385D01*
X0212090Y0219412D01*
X0212145Y0219435D01*
X0212202Y0219455D01*
X0212261Y0219471D01*
X0212320Y0219484D01*
X0212379Y0219493D01*
X0212440Y0219498D01*
X0212500Y0219500D01*
X0229500Y0219500D01*
X0229560Y0219498D01*
X0229621Y0219493D01*
X0229680Y0219484D01*
X0229739Y0219471D01*
X0229798Y0219455D01*
X0229855Y0219435D01*
X0229910Y0219412D01*
X0229965Y0219385D01*
X0230017Y0219356D01*
X0230068Y0219323D01*
X0230117Y0219287D01*
X0230163Y0219249D01*
X0230207Y0219207D01*
X0230249Y0219163D01*
X0230287Y0219117D01*
X0230323Y0219068D01*
X0230356Y0219017D01*
X0230385Y0218965D01*
X0230412Y0218910D01*
X0230435Y0218855D01*
X0230455Y0218798D01*
X0230471Y0218739D01*
X0230484Y0218680D01*
X0230493Y0218621D01*
X0230498Y0218560D01*
X0230500Y0218500D01*
X0230500Y0208500D01*
X0230498Y0208440D01*
X0230493Y0208379D01*
X0230484Y0208320D01*
X0230471Y0208261D01*
X0230455Y0208202D01*
X0230435Y0208145D01*
X0230412Y0208090D01*
X0230385Y0208035D01*
X0230356Y0207983D01*
X0230323Y0207932D01*
X0230287Y0207883D01*
X0230249Y0207837D01*
X0230207Y0207793D01*
X0230163Y0207751D01*
X0230117Y0207713D01*
X0230068Y0207677D01*
X0230017Y0207644D01*
X0229965Y0207615D01*
X0229910Y0207588D01*
X0229855Y0207565D01*
X0229798Y0207545D01*
X0229739Y0207529D01*
X0229680Y0207516D01*
X0229621Y0207507D01*
X0229560Y0207502D01*
X0229500Y0207500D01*
X0222500Y0213500D02*
X0222000Y0213500D01*
X0220000Y0213500D02*
X0219500Y0213500D01*
X0203157Y0222402D02*
X0163858Y0222402D01*
X0171657Y0217200D02*
X0171659Y0217289D01*
X0171665Y0217378D01*
X0171675Y0217467D01*
X0171689Y0217555D01*
X0171706Y0217642D01*
X0171728Y0217728D01*
X0171754Y0217814D01*
X0171783Y0217898D01*
X0171816Y0217981D01*
X0171852Y0218062D01*
X0171893Y0218142D01*
X0171936Y0218219D01*
X0171983Y0218295D01*
X0172034Y0218368D01*
X0172087Y0218439D01*
X0172144Y0218508D01*
X0172204Y0218574D01*
X0172267Y0218638D01*
X0172332Y0218698D01*
X0172400Y0218756D01*
X0172471Y0218810D01*
X0172544Y0218861D01*
X0172619Y0218909D01*
X0172696Y0218954D01*
X0172775Y0218995D01*
X0172856Y0219032D01*
X0172938Y0219066D01*
X0173022Y0219097D01*
X0173107Y0219123D01*
X0173193Y0219146D01*
X0173280Y0219164D01*
X0173368Y0219179D01*
X0173457Y0219190D01*
X0173546Y0219197D01*
X0173635Y0219200D01*
X0173724Y0219199D01*
X0173813Y0219194D01*
X0173901Y0219185D01*
X0173990Y0219172D01*
X0174077Y0219155D01*
X0174164Y0219135D01*
X0174250Y0219110D01*
X0174334Y0219082D01*
X0174417Y0219050D01*
X0174499Y0219014D01*
X0174579Y0218975D01*
X0174657Y0218932D01*
X0174733Y0218886D01*
X0174807Y0218836D01*
X0174879Y0218783D01*
X0174948Y0218727D01*
X0175015Y0218668D01*
X0175079Y0218606D01*
X0175140Y0218542D01*
X0175199Y0218474D01*
X0175254Y0218404D01*
X0175306Y0218332D01*
X0175355Y0218257D01*
X0175400Y0218181D01*
X0175442Y0218102D01*
X0175480Y0218022D01*
X0175515Y0217940D01*
X0175546Y0217856D01*
X0175574Y0217771D01*
X0175597Y0217685D01*
X0175617Y0217598D01*
X0175633Y0217511D01*
X0175645Y0217422D01*
X0175653Y0217334D01*
X0175657Y0217245D01*
X0175657Y0217155D01*
X0175653Y0217066D01*
X0175645Y0216978D01*
X0175633Y0216889D01*
X0175617Y0216802D01*
X0175597Y0216715D01*
X0175574Y0216629D01*
X0175546Y0216544D01*
X0175515Y0216460D01*
X0175480Y0216378D01*
X0175442Y0216298D01*
X0175400Y0216219D01*
X0175355Y0216143D01*
X0175306Y0216068D01*
X0175254Y0215996D01*
X0175199Y0215926D01*
X0175140Y0215858D01*
X0175079Y0215794D01*
X0175015Y0215732D01*
X0174948Y0215673D01*
X0174879Y0215617D01*
X0174807Y0215564D01*
X0174733Y0215514D01*
X0174657Y0215468D01*
X0174579Y0215425D01*
X0174499Y0215386D01*
X0174417Y0215350D01*
X0174334Y0215318D01*
X0174250Y0215290D01*
X0174164Y0215265D01*
X0174077Y0215245D01*
X0173990Y0215228D01*
X0173901Y0215215D01*
X0173813Y0215206D01*
X0173724Y0215201D01*
X0173635Y0215200D01*
X0173546Y0215203D01*
X0173457Y0215210D01*
X0173368Y0215221D01*
X0173280Y0215236D01*
X0173193Y0215254D01*
X0173107Y0215277D01*
X0173022Y0215303D01*
X0172938Y0215334D01*
X0172856Y0215368D01*
X0172775Y0215405D01*
X0172696Y0215446D01*
X0172619Y0215491D01*
X0172544Y0215539D01*
X0172471Y0215590D01*
X0172400Y0215644D01*
X0172332Y0215702D01*
X0172267Y0215762D01*
X0172204Y0215826D01*
X0172144Y0215892D01*
X0172087Y0215961D01*
X0172034Y0216032D01*
X0171983Y0216105D01*
X0171936Y0216181D01*
X0171893Y0216258D01*
X0171852Y0216338D01*
X0171816Y0216419D01*
X0171783Y0216502D01*
X0171754Y0216586D01*
X0171728Y0216672D01*
X0171706Y0216758D01*
X0171689Y0216845D01*
X0171675Y0216933D01*
X0171665Y0217022D01*
X0171659Y0217111D01*
X0171657Y0217200D01*
X0191357Y0217200D02*
X0191359Y0217289D01*
X0191365Y0217378D01*
X0191375Y0217467D01*
X0191389Y0217555D01*
X0191406Y0217642D01*
X0191428Y0217728D01*
X0191454Y0217814D01*
X0191483Y0217898D01*
X0191516Y0217981D01*
X0191552Y0218062D01*
X0191593Y0218142D01*
X0191636Y0218219D01*
X0191683Y0218295D01*
X0191734Y0218368D01*
X0191787Y0218439D01*
X0191844Y0218508D01*
X0191904Y0218574D01*
X0191967Y0218638D01*
X0192032Y0218698D01*
X0192100Y0218756D01*
X0192171Y0218810D01*
X0192244Y0218861D01*
X0192319Y0218909D01*
X0192396Y0218954D01*
X0192475Y0218995D01*
X0192556Y0219032D01*
X0192638Y0219066D01*
X0192722Y0219097D01*
X0192807Y0219123D01*
X0192893Y0219146D01*
X0192980Y0219164D01*
X0193068Y0219179D01*
X0193157Y0219190D01*
X0193246Y0219197D01*
X0193335Y0219200D01*
X0193424Y0219199D01*
X0193513Y0219194D01*
X0193601Y0219185D01*
X0193690Y0219172D01*
X0193777Y0219155D01*
X0193864Y0219135D01*
X0193950Y0219110D01*
X0194034Y0219082D01*
X0194117Y0219050D01*
X0194199Y0219014D01*
X0194279Y0218975D01*
X0194357Y0218932D01*
X0194433Y0218886D01*
X0194507Y0218836D01*
X0194579Y0218783D01*
X0194648Y0218727D01*
X0194715Y0218668D01*
X0194779Y0218606D01*
X0194840Y0218542D01*
X0194899Y0218474D01*
X0194954Y0218404D01*
X0195006Y0218332D01*
X0195055Y0218257D01*
X0195100Y0218181D01*
X0195142Y0218102D01*
X0195180Y0218022D01*
X0195215Y0217940D01*
X0195246Y0217856D01*
X0195274Y0217771D01*
X0195297Y0217685D01*
X0195317Y0217598D01*
X0195333Y0217511D01*
X0195345Y0217422D01*
X0195353Y0217334D01*
X0195357Y0217245D01*
X0195357Y0217155D01*
X0195353Y0217066D01*
X0195345Y0216978D01*
X0195333Y0216889D01*
X0195317Y0216802D01*
X0195297Y0216715D01*
X0195274Y0216629D01*
X0195246Y0216544D01*
X0195215Y0216460D01*
X0195180Y0216378D01*
X0195142Y0216298D01*
X0195100Y0216219D01*
X0195055Y0216143D01*
X0195006Y0216068D01*
X0194954Y0215996D01*
X0194899Y0215926D01*
X0194840Y0215858D01*
X0194779Y0215794D01*
X0194715Y0215732D01*
X0194648Y0215673D01*
X0194579Y0215617D01*
X0194507Y0215564D01*
X0194433Y0215514D01*
X0194357Y0215468D01*
X0194279Y0215425D01*
X0194199Y0215386D01*
X0194117Y0215350D01*
X0194034Y0215318D01*
X0193950Y0215290D01*
X0193864Y0215265D01*
X0193777Y0215245D01*
X0193690Y0215228D01*
X0193601Y0215215D01*
X0193513Y0215206D01*
X0193424Y0215201D01*
X0193335Y0215200D01*
X0193246Y0215203D01*
X0193157Y0215210D01*
X0193068Y0215221D01*
X0192980Y0215236D01*
X0192893Y0215254D01*
X0192807Y0215277D01*
X0192722Y0215303D01*
X0192638Y0215334D01*
X0192556Y0215368D01*
X0192475Y0215405D01*
X0192396Y0215446D01*
X0192319Y0215491D01*
X0192244Y0215539D01*
X0192171Y0215590D01*
X0192100Y0215644D01*
X0192032Y0215702D01*
X0191967Y0215762D01*
X0191904Y0215826D01*
X0191844Y0215892D01*
X0191787Y0215961D01*
X0191734Y0216032D01*
X0191683Y0216105D01*
X0191636Y0216181D01*
X0191593Y0216258D01*
X0191552Y0216338D01*
X0191516Y0216419D01*
X0191483Y0216502D01*
X0191454Y0216586D01*
X0191428Y0216672D01*
X0191406Y0216758D01*
X0191389Y0216845D01*
X0191375Y0216933D01*
X0191365Y0217022D01*
X0191359Y0217111D01*
X0191357Y0217200D01*
X0195000Y0183157D02*
X0195000Y0143858D01*
X0185598Y0143858D01*
X0159598Y0143858D01*
X0159598Y0143157D02*
X0158799Y0143157D01*
X0158799Y0103858D01*
X0159598Y0103858D01*
X0159598Y0143157D01*
X0185598Y0143157D01*
X0195000Y0143157D01*
X0195000Y0103858D01*
X0185598Y0103858D01*
X0159598Y0103858D01*
X0159598Y0103157D02*
X0158799Y0103157D01*
X0162800Y0093357D02*
X0162802Y0093446D01*
X0162808Y0093535D01*
X0162818Y0093624D01*
X0162832Y0093712D01*
X0162849Y0093799D01*
X0162871Y0093885D01*
X0162897Y0093971D01*
X0162926Y0094055D01*
X0162959Y0094138D01*
X0162995Y0094219D01*
X0163036Y0094299D01*
X0163079Y0094376D01*
X0163126Y0094452D01*
X0163177Y0094525D01*
X0163230Y0094596D01*
X0163287Y0094665D01*
X0163347Y0094731D01*
X0163410Y0094795D01*
X0163475Y0094855D01*
X0163543Y0094913D01*
X0163614Y0094967D01*
X0163687Y0095018D01*
X0163762Y0095066D01*
X0163839Y0095111D01*
X0163918Y0095152D01*
X0163999Y0095189D01*
X0164081Y0095223D01*
X0164165Y0095254D01*
X0164250Y0095280D01*
X0164336Y0095303D01*
X0164423Y0095321D01*
X0164511Y0095336D01*
X0164600Y0095347D01*
X0164689Y0095354D01*
X0164778Y0095357D01*
X0164867Y0095356D01*
X0164956Y0095351D01*
X0165044Y0095342D01*
X0165133Y0095329D01*
X0165220Y0095312D01*
X0165307Y0095292D01*
X0165393Y0095267D01*
X0165477Y0095239D01*
X0165560Y0095207D01*
X0165642Y0095171D01*
X0165722Y0095132D01*
X0165800Y0095089D01*
X0165876Y0095043D01*
X0165950Y0094993D01*
X0166022Y0094940D01*
X0166091Y0094884D01*
X0166158Y0094825D01*
X0166222Y0094763D01*
X0166283Y0094699D01*
X0166342Y0094631D01*
X0166397Y0094561D01*
X0166449Y0094489D01*
X0166498Y0094414D01*
X0166543Y0094338D01*
X0166585Y0094259D01*
X0166623Y0094179D01*
X0166658Y0094097D01*
X0166689Y0094013D01*
X0166717Y0093928D01*
X0166740Y0093842D01*
X0166760Y0093755D01*
X0166776Y0093668D01*
X0166788Y0093579D01*
X0166796Y0093491D01*
X0166800Y0093402D01*
X0166800Y0093312D01*
X0166796Y0093223D01*
X0166788Y0093135D01*
X0166776Y0093046D01*
X0166760Y0092959D01*
X0166740Y0092872D01*
X0166717Y0092786D01*
X0166689Y0092701D01*
X0166658Y0092617D01*
X0166623Y0092535D01*
X0166585Y0092455D01*
X0166543Y0092376D01*
X0166498Y0092300D01*
X0166449Y0092225D01*
X0166397Y0092153D01*
X0166342Y0092083D01*
X0166283Y0092015D01*
X0166222Y0091951D01*
X0166158Y0091889D01*
X0166091Y0091830D01*
X0166022Y0091774D01*
X0165950Y0091721D01*
X0165876Y0091671D01*
X0165800Y0091625D01*
X0165722Y0091582D01*
X0165642Y0091543D01*
X0165560Y0091507D01*
X0165477Y0091475D01*
X0165393Y0091447D01*
X0165307Y0091422D01*
X0165220Y0091402D01*
X0165133Y0091385D01*
X0165044Y0091372D01*
X0164956Y0091363D01*
X0164867Y0091358D01*
X0164778Y0091357D01*
X0164689Y0091360D01*
X0164600Y0091367D01*
X0164511Y0091378D01*
X0164423Y0091393D01*
X0164336Y0091411D01*
X0164250Y0091434D01*
X0164165Y0091460D01*
X0164081Y0091491D01*
X0163999Y0091525D01*
X0163918Y0091562D01*
X0163839Y0091603D01*
X0163762Y0091648D01*
X0163687Y0091696D01*
X0163614Y0091747D01*
X0163543Y0091801D01*
X0163475Y0091859D01*
X0163410Y0091919D01*
X0163347Y0091983D01*
X0163287Y0092049D01*
X0163230Y0092118D01*
X0163177Y0092189D01*
X0163126Y0092262D01*
X0163079Y0092338D01*
X0163036Y0092415D01*
X0162995Y0092495D01*
X0162959Y0092576D01*
X0162926Y0092659D01*
X0162897Y0092743D01*
X0162871Y0092829D01*
X0162849Y0092915D01*
X0162832Y0093002D01*
X0162818Y0093090D01*
X0162808Y0093179D01*
X0162802Y0093268D01*
X0162800Y0093357D01*
X0185598Y0089858D02*
X0185598Y0077157D01*
X0200300Y0073657D02*
X0200302Y0073746D01*
X0200308Y0073835D01*
X0200318Y0073924D01*
X0200332Y0074012D01*
X0200349Y0074099D01*
X0200371Y0074185D01*
X0200397Y0074271D01*
X0200426Y0074355D01*
X0200459Y0074438D01*
X0200495Y0074519D01*
X0200536Y0074599D01*
X0200579Y0074676D01*
X0200626Y0074752D01*
X0200677Y0074825D01*
X0200730Y0074896D01*
X0200787Y0074965D01*
X0200847Y0075031D01*
X0200910Y0075095D01*
X0200975Y0075155D01*
X0201043Y0075213D01*
X0201114Y0075267D01*
X0201187Y0075318D01*
X0201262Y0075366D01*
X0201339Y0075411D01*
X0201418Y0075452D01*
X0201499Y0075489D01*
X0201581Y0075523D01*
X0201665Y0075554D01*
X0201750Y0075580D01*
X0201836Y0075603D01*
X0201923Y0075621D01*
X0202011Y0075636D01*
X0202100Y0075647D01*
X0202189Y0075654D01*
X0202278Y0075657D01*
X0202367Y0075656D01*
X0202456Y0075651D01*
X0202544Y0075642D01*
X0202633Y0075629D01*
X0202720Y0075612D01*
X0202807Y0075592D01*
X0202893Y0075567D01*
X0202977Y0075539D01*
X0203060Y0075507D01*
X0203142Y0075471D01*
X0203222Y0075432D01*
X0203300Y0075389D01*
X0203376Y0075343D01*
X0203450Y0075293D01*
X0203522Y0075240D01*
X0203591Y0075184D01*
X0203658Y0075125D01*
X0203722Y0075063D01*
X0203783Y0074999D01*
X0203842Y0074931D01*
X0203897Y0074861D01*
X0203949Y0074789D01*
X0203998Y0074714D01*
X0204043Y0074638D01*
X0204085Y0074559D01*
X0204123Y0074479D01*
X0204158Y0074397D01*
X0204189Y0074313D01*
X0204217Y0074228D01*
X0204240Y0074142D01*
X0204260Y0074055D01*
X0204276Y0073968D01*
X0204288Y0073879D01*
X0204296Y0073791D01*
X0204300Y0073702D01*
X0204300Y0073612D01*
X0204296Y0073523D01*
X0204288Y0073435D01*
X0204276Y0073346D01*
X0204260Y0073259D01*
X0204240Y0073172D01*
X0204217Y0073086D01*
X0204189Y0073001D01*
X0204158Y0072917D01*
X0204123Y0072835D01*
X0204085Y0072755D01*
X0204043Y0072676D01*
X0203998Y0072600D01*
X0203949Y0072525D01*
X0203897Y0072453D01*
X0203842Y0072383D01*
X0203783Y0072315D01*
X0203722Y0072251D01*
X0203658Y0072189D01*
X0203591Y0072130D01*
X0203522Y0072074D01*
X0203450Y0072021D01*
X0203376Y0071971D01*
X0203300Y0071925D01*
X0203222Y0071882D01*
X0203142Y0071843D01*
X0203060Y0071807D01*
X0202977Y0071775D01*
X0202893Y0071747D01*
X0202807Y0071722D01*
X0202720Y0071702D01*
X0202633Y0071685D01*
X0202544Y0071672D01*
X0202456Y0071663D01*
X0202367Y0071658D01*
X0202278Y0071657D01*
X0202189Y0071660D01*
X0202100Y0071667D01*
X0202011Y0071678D01*
X0201923Y0071693D01*
X0201836Y0071711D01*
X0201750Y0071734D01*
X0201665Y0071760D01*
X0201581Y0071791D01*
X0201499Y0071825D01*
X0201418Y0071862D01*
X0201339Y0071903D01*
X0201262Y0071948D01*
X0201187Y0071996D01*
X0201114Y0072047D01*
X0201043Y0072101D01*
X0200975Y0072159D01*
X0200910Y0072219D01*
X0200847Y0072283D01*
X0200787Y0072349D01*
X0200730Y0072418D01*
X0200677Y0072489D01*
X0200626Y0072562D01*
X0200579Y0072638D01*
X0200536Y0072715D01*
X0200495Y0072795D01*
X0200459Y0072876D01*
X0200426Y0072959D01*
X0200397Y0073043D01*
X0200371Y0073129D01*
X0200349Y0073215D01*
X0200332Y0073302D01*
X0200318Y0073390D01*
X0200308Y0073479D01*
X0200302Y0073568D01*
X0200300Y0073657D01*
X0223098Y0070157D02*
X0223098Y0063858D01*
X0223098Y0077157D02*
X0223098Y0089858D01*
X0223098Y0096858D02*
X0223098Y0103157D01*
X0223098Y0103858D02*
X0223098Y0110157D01*
X0223098Y0117157D02*
X0223098Y0129858D01*
X0223098Y0136858D02*
X0223098Y0143157D01*
X0223098Y0143858D02*
X0223098Y0150157D01*
X0223098Y0157157D02*
X0223098Y0169858D01*
X0223098Y0176858D02*
X0223098Y0183157D01*
X0200300Y0173357D02*
X0200302Y0173446D01*
X0200308Y0173535D01*
X0200318Y0173624D01*
X0200332Y0173712D01*
X0200349Y0173799D01*
X0200371Y0173885D01*
X0200397Y0173971D01*
X0200426Y0174055D01*
X0200459Y0174138D01*
X0200495Y0174219D01*
X0200536Y0174299D01*
X0200579Y0174376D01*
X0200626Y0174452D01*
X0200677Y0174525D01*
X0200730Y0174596D01*
X0200787Y0174665D01*
X0200847Y0174731D01*
X0200910Y0174795D01*
X0200975Y0174855D01*
X0201043Y0174913D01*
X0201114Y0174967D01*
X0201187Y0175018D01*
X0201262Y0175066D01*
X0201339Y0175111D01*
X0201418Y0175152D01*
X0201499Y0175189D01*
X0201581Y0175223D01*
X0201665Y0175254D01*
X0201750Y0175280D01*
X0201836Y0175303D01*
X0201923Y0175321D01*
X0202011Y0175336D01*
X0202100Y0175347D01*
X0202189Y0175354D01*
X0202278Y0175357D01*
X0202367Y0175356D01*
X0202456Y0175351D01*
X0202544Y0175342D01*
X0202633Y0175329D01*
X0202720Y0175312D01*
X0202807Y0175292D01*
X0202893Y0175267D01*
X0202977Y0175239D01*
X0203060Y0175207D01*
X0203142Y0175171D01*
X0203222Y0175132D01*
X0203300Y0175089D01*
X0203376Y0175043D01*
X0203450Y0174993D01*
X0203522Y0174940D01*
X0203591Y0174884D01*
X0203658Y0174825D01*
X0203722Y0174763D01*
X0203783Y0174699D01*
X0203842Y0174631D01*
X0203897Y0174561D01*
X0203949Y0174489D01*
X0203998Y0174414D01*
X0204043Y0174338D01*
X0204085Y0174259D01*
X0204123Y0174179D01*
X0204158Y0174097D01*
X0204189Y0174013D01*
X0204217Y0173928D01*
X0204240Y0173842D01*
X0204260Y0173755D01*
X0204276Y0173668D01*
X0204288Y0173579D01*
X0204296Y0173491D01*
X0204300Y0173402D01*
X0204300Y0173312D01*
X0204296Y0173223D01*
X0204288Y0173135D01*
X0204276Y0173046D01*
X0204260Y0172959D01*
X0204240Y0172872D01*
X0204217Y0172786D01*
X0204189Y0172701D01*
X0204158Y0172617D01*
X0204123Y0172535D01*
X0204085Y0172455D01*
X0204043Y0172376D01*
X0203998Y0172300D01*
X0203949Y0172225D01*
X0203897Y0172153D01*
X0203842Y0172083D01*
X0203783Y0172015D01*
X0203722Y0171951D01*
X0203658Y0171889D01*
X0203591Y0171830D01*
X0203522Y0171774D01*
X0203450Y0171721D01*
X0203376Y0171671D01*
X0203300Y0171625D01*
X0203222Y0171582D01*
X0203142Y0171543D01*
X0203060Y0171507D01*
X0202977Y0171475D01*
X0202893Y0171447D01*
X0202807Y0171422D01*
X0202720Y0171402D01*
X0202633Y0171385D01*
X0202544Y0171372D01*
X0202456Y0171363D01*
X0202367Y0171358D01*
X0202278Y0171357D01*
X0202189Y0171360D01*
X0202100Y0171367D01*
X0202011Y0171378D01*
X0201923Y0171393D01*
X0201836Y0171411D01*
X0201750Y0171434D01*
X0201665Y0171460D01*
X0201581Y0171491D01*
X0201499Y0171525D01*
X0201418Y0171562D01*
X0201339Y0171603D01*
X0201262Y0171648D01*
X0201187Y0171696D01*
X0201114Y0171747D01*
X0201043Y0171801D01*
X0200975Y0171859D01*
X0200910Y0171919D01*
X0200847Y0171983D01*
X0200787Y0172049D01*
X0200730Y0172118D01*
X0200677Y0172189D01*
X0200626Y0172262D01*
X0200579Y0172338D01*
X0200536Y0172415D01*
X0200495Y0172495D01*
X0200459Y0172576D01*
X0200426Y0172659D01*
X0200397Y0172743D01*
X0200371Y0172829D01*
X0200349Y0172915D01*
X0200332Y0173002D01*
X0200318Y0173090D01*
X0200308Y0173179D01*
X0200302Y0173268D01*
X0200300Y0173357D01*
X0185598Y0169858D02*
X0185598Y0157157D01*
X0185598Y0150157D02*
X0185598Y0143858D01*
X0185598Y0143157D02*
X0185598Y0136858D01*
X0185598Y0129858D02*
X0185598Y0117157D01*
X0185598Y0110157D02*
X0185598Y0103858D01*
X0185598Y0103157D02*
X0185598Y0096858D01*
X0200300Y0093357D02*
X0200302Y0093446D01*
X0200308Y0093535D01*
X0200318Y0093624D01*
X0200332Y0093712D01*
X0200349Y0093799D01*
X0200371Y0093885D01*
X0200397Y0093971D01*
X0200426Y0094055D01*
X0200459Y0094138D01*
X0200495Y0094219D01*
X0200536Y0094299D01*
X0200579Y0094376D01*
X0200626Y0094452D01*
X0200677Y0094525D01*
X0200730Y0094596D01*
X0200787Y0094665D01*
X0200847Y0094731D01*
X0200910Y0094795D01*
X0200975Y0094855D01*
X0201043Y0094913D01*
X0201114Y0094967D01*
X0201187Y0095018D01*
X0201262Y0095066D01*
X0201339Y0095111D01*
X0201418Y0095152D01*
X0201499Y0095189D01*
X0201581Y0095223D01*
X0201665Y0095254D01*
X0201750Y0095280D01*
X0201836Y0095303D01*
X0201923Y0095321D01*
X0202011Y0095336D01*
X0202100Y0095347D01*
X0202189Y0095354D01*
X0202278Y0095357D01*
X0202367Y0095356D01*
X0202456Y0095351D01*
X0202544Y0095342D01*
X0202633Y0095329D01*
X0202720Y0095312D01*
X0202807Y0095292D01*
X0202893Y0095267D01*
X0202977Y0095239D01*
X0203060Y0095207D01*
X0203142Y0095171D01*
X0203222Y0095132D01*
X0203300Y0095089D01*
X0203376Y0095043D01*
X0203450Y0094993D01*
X0203522Y0094940D01*
X0203591Y0094884D01*
X0203658Y0094825D01*
X0203722Y0094763D01*
X0203783Y0094699D01*
X0203842Y0094631D01*
X0203897Y0094561D01*
X0203949Y0094489D01*
X0203998Y0094414D01*
X0204043Y0094338D01*
X0204085Y0094259D01*
X0204123Y0094179D01*
X0204158Y0094097D01*
X0204189Y0094013D01*
X0204217Y0093928D01*
X0204240Y0093842D01*
X0204260Y0093755D01*
X0204276Y0093668D01*
X0204288Y0093579D01*
X0204296Y0093491D01*
X0204300Y0093402D01*
X0204300Y0093312D01*
X0204296Y0093223D01*
X0204288Y0093135D01*
X0204276Y0093046D01*
X0204260Y0092959D01*
X0204240Y0092872D01*
X0204217Y0092786D01*
X0204189Y0092701D01*
X0204158Y0092617D01*
X0204123Y0092535D01*
X0204085Y0092455D01*
X0204043Y0092376D01*
X0203998Y0092300D01*
X0203949Y0092225D01*
X0203897Y0092153D01*
X0203842Y0092083D01*
X0203783Y0092015D01*
X0203722Y0091951D01*
X0203658Y0091889D01*
X0203591Y0091830D01*
X0203522Y0091774D01*
X0203450Y0091721D01*
X0203376Y0091671D01*
X0203300Y0091625D01*
X0203222Y0091582D01*
X0203142Y0091543D01*
X0203060Y0091507D01*
X0202977Y0091475D01*
X0202893Y0091447D01*
X0202807Y0091422D01*
X0202720Y0091402D01*
X0202633Y0091385D01*
X0202544Y0091372D01*
X0202456Y0091363D01*
X0202367Y0091358D01*
X0202278Y0091357D01*
X0202189Y0091360D01*
X0202100Y0091367D01*
X0202011Y0091378D01*
X0201923Y0091393D01*
X0201836Y0091411D01*
X0201750Y0091434D01*
X0201665Y0091460D01*
X0201581Y0091491D01*
X0201499Y0091525D01*
X0201418Y0091562D01*
X0201339Y0091603D01*
X0201262Y0091648D01*
X0201187Y0091696D01*
X0201114Y0091747D01*
X0201043Y0091801D01*
X0200975Y0091859D01*
X0200910Y0091919D01*
X0200847Y0091983D01*
X0200787Y0092049D01*
X0200730Y0092118D01*
X0200677Y0092189D01*
X0200626Y0092262D01*
X0200579Y0092338D01*
X0200536Y0092415D01*
X0200495Y0092495D01*
X0200459Y0092576D01*
X0200426Y0092659D01*
X0200397Y0092743D01*
X0200371Y0092829D01*
X0200349Y0092915D01*
X0200332Y0093002D01*
X0200318Y0093090D01*
X0200308Y0093179D01*
X0200302Y0093268D01*
X0200300Y0093357D01*
X0200300Y0113657D02*
X0200302Y0113746D01*
X0200308Y0113835D01*
X0200318Y0113924D01*
X0200332Y0114012D01*
X0200349Y0114099D01*
X0200371Y0114185D01*
X0200397Y0114271D01*
X0200426Y0114355D01*
X0200459Y0114438D01*
X0200495Y0114519D01*
X0200536Y0114599D01*
X0200579Y0114676D01*
X0200626Y0114752D01*
X0200677Y0114825D01*
X0200730Y0114896D01*
X0200787Y0114965D01*
X0200847Y0115031D01*
X0200910Y0115095D01*
X0200975Y0115155D01*
X0201043Y0115213D01*
X0201114Y0115267D01*
X0201187Y0115318D01*
X0201262Y0115366D01*
X0201339Y0115411D01*
X0201418Y0115452D01*
X0201499Y0115489D01*
X0201581Y0115523D01*
X0201665Y0115554D01*
X0201750Y0115580D01*
X0201836Y0115603D01*
X0201923Y0115621D01*
X0202011Y0115636D01*
X0202100Y0115647D01*
X0202189Y0115654D01*
X0202278Y0115657D01*
X0202367Y0115656D01*
X0202456Y0115651D01*
X0202544Y0115642D01*
X0202633Y0115629D01*
X0202720Y0115612D01*
X0202807Y0115592D01*
X0202893Y0115567D01*
X0202977Y0115539D01*
X0203060Y0115507D01*
X0203142Y0115471D01*
X0203222Y0115432D01*
X0203300Y0115389D01*
X0203376Y0115343D01*
X0203450Y0115293D01*
X0203522Y0115240D01*
X0203591Y0115184D01*
X0203658Y0115125D01*
X0203722Y0115063D01*
X0203783Y0114999D01*
X0203842Y0114931D01*
X0203897Y0114861D01*
X0203949Y0114789D01*
X0203998Y0114714D01*
X0204043Y0114638D01*
X0204085Y0114559D01*
X0204123Y0114479D01*
X0204158Y0114397D01*
X0204189Y0114313D01*
X0204217Y0114228D01*
X0204240Y0114142D01*
X0204260Y0114055D01*
X0204276Y0113968D01*
X0204288Y0113879D01*
X0204296Y0113791D01*
X0204300Y0113702D01*
X0204300Y0113612D01*
X0204296Y0113523D01*
X0204288Y0113435D01*
X0204276Y0113346D01*
X0204260Y0113259D01*
X0204240Y0113172D01*
X0204217Y0113086D01*
X0204189Y0113001D01*
X0204158Y0112917D01*
X0204123Y0112835D01*
X0204085Y0112755D01*
X0204043Y0112676D01*
X0203998Y0112600D01*
X0203949Y0112525D01*
X0203897Y0112453D01*
X0203842Y0112383D01*
X0203783Y0112315D01*
X0203722Y0112251D01*
X0203658Y0112189D01*
X0203591Y0112130D01*
X0203522Y0112074D01*
X0203450Y0112021D01*
X0203376Y0111971D01*
X0203300Y0111925D01*
X0203222Y0111882D01*
X0203142Y0111843D01*
X0203060Y0111807D01*
X0202977Y0111775D01*
X0202893Y0111747D01*
X0202807Y0111722D01*
X0202720Y0111702D01*
X0202633Y0111685D01*
X0202544Y0111672D01*
X0202456Y0111663D01*
X0202367Y0111658D01*
X0202278Y0111657D01*
X0202189Y0111660D01*
X0202100Y0111667D01*
X0202011Y0111678D01*
X0201923Y0111693D01*
X0201836Y0111711D01*
X0201750Y0111734D01*
X0201665Y0111760D01*
X0201581Y0111791D01*
X0201499Y0111825D01*
X0201418Y0111862D01*
X0201339Y0111903D01*
X0201262Y0111948D01*
X0201187Y0111996D01*
X0201114Y0112047D01*
X0201043Y0112101D01*
X0200975Y0112159D01*
X0200910Y0112219D01*
X0200847Y0112283D01*
X0200787Y0112349D01*
X0200730Y0112418D01*
X0200677Y0112489D01*
X0200626Y0112562D01*
X0200579Y0112638D01*
X0200536Y0112715D01*
X0200495Y0112795D01*
X0200459Y0112876D01*
X0200426Y0112959D01*
X0200397Y0113043D01*
X0200371Y0113129D01*
X0200349Y0113215D01*
X0200332Y0113302D01*
X0200318Y0113390D01*
X0200308Y0113479D01*
X0200302Y0113568D01*
X0200300Y0113657D01*
X0162800Y0113657D02*
X0162802Y0113746D01*
X0162808Y0113835D01*
X0162818Y0113924D01*
X0162832Y0114012D01*
X0162849Y0114099D01*
X0162871Y0114185D01*
X0162897Y0114271D01*
X0162926Y0114355D01*
X0162959Y0114438D01*
X0162995Y0114519D01*
X0163036Y0114599D01*
X0163079Y0114676D01*
X0163126Y0114752D01*
X0163177Y0114825D01*
X0163230Y0114896D01*
X0163287Y0114965D01*
X0163347Y0115031D01*
X0163410Y0115095D01*
X0163475Y0115155D01*
X0163543Y0115213D01*
X0163614Y0115267D01*
X0163687Y0115318D01*
X0163762Y0115366D01*
X0163839Y0115411D01*
X0163918Y0115452D01*
X0163999Y0115489D01*
X0164081Y0115523D01*
X0164165Y0115554D01*
X0164250Y0115580D01*
X0164336Y0115603D01*
X0164423Y0115621D01*
X0164511Y0115636D01*
X0164600Y0115647D01*
X0164689Y0115654D01*
X0164778Y0115657D01*
X0164867Y0115656D01*
X0164956Y0115651D01*
X0165044Y0115642D01*
X0165133Y0115629D01*
X0165220Y0115612D01*
X0165307Y0115592D01*
X0165393Y0115567D01*
X0165477Y0115539D01*
X0165560Y0115507D01*
X0165642Y0115471D01*
X0165722Y0115432D01*
X0165800Y0115389D01*
X0165876Y0115343D01*
X0165950Y0115293D01*
X0166022Y0115240D01*
X0166091Y0115184D01*
X0166158Y0115125D01*
X0166222Y0115063D01*
X0166283Y0114999D01*
X0166342Y0114931D01*
X0166397Y0114861D01*
X0166449Y0114789D01*
X0166498Y0114714D01*
X0166543Y0114638D01*
X0166585Y0114559D01*
X0166623Y0114479D01*
X0166658Y0114397D01*
X0166689Y0114313D01*
X0166717Y0114228D01*
X0166740Y0114142D01*
X0166760Y0114055D01*
X0166776Y0113968D01*
X0166788Y0113879D01*
X0166796Y0113791D01*
X0166800Y0113702D01*
X0166800Y0113612D01*
X0166796Y0113523D01*
X0166788Y0113435D01*
X0166776Y0113346D01*
X0166760Y0113259D01*
X0166740Y0113172D01*
X0166717Y0113086D01*
X0166689Y0113001D01*
X0166658Y0112917D01*
X0166623Y0112835D01*
X0166585Y0112755D01*
X0166543Y0112676D01*
X0166498Y0112600D01*
X0166449Y0112525D01*
X0166397Y0112453D01*
X0166342Y0112383D01*
X0166283Y0112315D01*
X0166222Y0112251D01*
X0166158Y0112189D01*
X0166091Y0112130D01*
X0166022Y0112074D01*
X0165950Y0112021D01*
X0165876Y0111971D01*
X0165800Y0111925D01*
X0165722Y0111882D01*
X0165642Y0111843D01*
X0165560Y0111807D01*
X0165477Y0111775D01*
X0165393Y0111747D01*
X0165307Y0111722D01*
X0165220Y0111702D01*
X0165133Y0111685D01*
X0165044Y0111672D01*
X0164956Y0111663D01*
X0164867Y0111658D01*
X0164778Y0111657D01*
X0164689Y0111660D01*
X0164600Y0111667D01*
X0164511Y0111678D01*
X0164423Y0111693D01*
X0164336Y0111711D01*
X0164250Y0111734D01*
X0164165Y0111760D01*
X0164081Y0111791D01*
X0163999Y0111825D01*
X0163918Y0111862D01*
X0163839Y0111903D01*
X0163762Y0111948D01*
X0163687Y0111996D01*
X0163614Y0112047D01*
X0163543Y0112101D01*
X0163475Y0112159D01*
X0163410Y0112219D01*
X0163347Y0112283D01*
X0163287Y0112349D01*
X0163230Y0112418D01*
X0163177Y0112489D01*
X0163126Y0112562D01*
X0163079Y0112638D01*
X0163036Y0112715D01*
X0162995Y0112795D01*
X0162959Y0112876D01*
X0162926Y0112959D01*
X0162897Y0113043D01*
X0162871Y0113129D01*
X0162849Y0113215D01*
X0162832Y0113302D01*
X0162818Y0113390D01*
X0162808Y0113479D01*
X0162802Y0113568D01*
X0162800Y0113657D01*
X0162800Y0133357D02*
X0162802Y0133446D01*
X0162808Y0133535D01*
X0162818Y0133624D01*
X0162832Y0133712D01*
X0162849Y0133799D01*
X0162871Y0133885D01*
X0162897Y0133971D01*
X0162926Y0134055D01*
X0162959Y0134138D01*
X0162995Y0134219D01*
X0163036Y0134299D01*
X0163079Y0134376D01*
X0163126Y0134452D01*
X0163177Y0134525D01*
X0163230Y0134596D01*
X0163287Y0134665D01*
X0163347Y0134731D01*
X0163410Y0134795D01*
X0163475Y0134855D01*
X0163543Y0134913D01*
X0163614Y0134967D01*
X0163687Y0135018D01*
X0163762Y0135066D01*
X0163839Y0135111D01*
X0163918Y0135152D01*
X0163999Y0135189D01*
X0164081Y0135223D01*
X0164165Y0135254D01*
X0164250Y0135280D01*
X0164336Y0135303D01*
X0164423Y0135321D01*
X0164511Y0135336D01*
X0164600Y0135347D01*
X0164689Y0135354D01*
X0164778Y0135357D01*
X0164867Y0135356D01*
X0164956Y0135351D01*
X0165044Y0135342D01*
X0165133Y0135329D01*
X0165220Y0135312D01*
X0165307Y0135292D01*
X0165393Y0135267D01*
X0165477Y0135239D01*
X0165560Y0135207D01*
X0165642Y0135171D01*
X0165722Y0135132D01*
X0165800Y0135089D01*
X0165876Y0135043D01*
X0165950Y0134993D01*
X0166022Y0134940D01*
X0166091Y0134884D01*
X0166158Y0134825D01*
X0166222Y0134763D01*
X0166283Y0134699D01*
X0166342Y0134631D01*
X0166397Y0134561D01*
X0166449Y0134489D01*
X0166498Y0134414D01*
X0166543Y0134338D01*
X0166585Y0134259D01*
X0166623Y0134179D01*
X0166658Y0134097D01*
X0166689Y0134013D01*
X0166717Y0133928D01*
X0166740Y0133842D01*
X0166760Y0133755D01*
X0166776Y0133668D01*
X0166788Y0133579D01*
X0166796Y0133491D01*
X0166800Y0133402D01*
X0166800Y0133312D01*
X0166796Y0133223D01*
X0166788Y0133135D01*
X0166776Y0133046D01*
X0166760Y0132959D01*
X0166740Y0132872D01*
X0166717Y0132786D01*
X0166689Y0132701D01*
X0166658Y0132617D01*
X0166623Y0132535D01*
X0166585Y0132455D01*
X0166543Y0132376D01*
X0166498Y0132300D01*
X0166449Y0132225D01*
X0166397Y0132153D01*
X0166342Y0132083D01*
X0166283Y0132015D01*
X0166222Y0131951D01*
X0166158Y0131889D01*
X0166091Y0131830D01*
X0166022Y0131774D01*
X0165950Y0131721D01*
X0165876Y0131671D01*
X0165800Y0131625D01*
X0165722Y0131582D01*
X0165642Y0131543D01*
X0165560Y0131507D01*
X0165477Y0131475D01*
X0165393Y0131447D01*
X0165307Y0131422D01*
X0165220Y0131402D01*
X0165133Y0131385D01*
X0165044Y0131372D01*
X0164956Y0131363D01*
X0164867Y0131358D01*
X0164778Y0131357D01*
X0164689Y0131360D01*
X0164600Y0131367D01*
X0164511Y0131378D01*
X0164423Y0131393D01*
X0164336Y0131411D01*
X0164250Y0131434D01*
X0164165Y0131460D01*
X0164081Y0131491D01*
X0163999Y0131525D01*
X0163918Y0131562D01*
X0163839Y0131603D01*
X0163762Y0131648D01*
X0163687Y0131696D01*
X0163614Y0131747D01*
X0163543Y0131801D01*
X0163475Y0131859D01*
X0163410Y0131919D01*
X0163347Y0131983D01*
X0163287Y0132049D01*
X0163230Y0132118D01*
X0163177Y0132189D01*
X0163126Y0132262D01*
X0163079Y0132338D01*
X0163036Y0132415D01*
X0162995Y0132495D01*
X0162959Y0132576D01*
X0162926Y0132659D01*
X0162897Y0132743D01*
X0162871Y0132829D01*
X0162849Y0132915D01*
X0162832Y0133002D01*
X0162818Y0133090D01*
X0162808Y0133179D01*
X0162802Y0133268D01*
X0162800Y0133357D01*
X0200300Y0133357D02*
X0200302Y0133446D01*
X0200308Y0133535D01*
X0200318Y0133624D01*
X0200332Y0133712D01*
X0200349Y0133799D01*
X0200371Y0133885D01*
X0200397Y0133971D01*
X0200426Y0134055D01*
X0200459Y0134138D01*
X0200495Y0134219D01*
X0200536Y0134299D01*
X0200579Y0134376D01*
X0200626Y0134452D01*
X0200677Y0134525D01*
X0200730Y0134596D01*
X0200787Y0134665D01*
X0200847Y0134731D01*
X0200910Y0134795D01*
X0200975Y0134855D01*
X0201043Y0134913D01*
X0201114Y0134967D01*
X0201187Y0135018D01*
X0201262Y0135066D01*
X0201339Y0135111D01*
X0201418Y0135152D01*
X0201499Y0135189D01*
X0201581Y0135223D01*
X0201665Y0135254D01*
X0201750Y0135280D01*
X0201836Y0135303D01*
X0201923Y0135321D01*
X0202011Y0135336D01*
X0202100Y0135347D01*
X0202189Y0135354D01*
X0202278Y0135357D01*
X0202367Y0135356D01*
X0202456Y0135351D01*
X0202544Y0135342D01*
X0202633Y0135329D01*
X0202720Y0135312D01*
X0202807Y0135292D01*
X0202893Y0135267D01*
X0202977Y0135239D01*
X0203060Y0135207D01*
X0203142Y0135171D01*
X0203222Y0135132D01*
X0203300Y0135089D01*
X0203376Y0135043D01*
X0203450Y0134993D01*
X0203522Y0134940D01*
X0203591Y0134884D01*
X0203658Y0134825D01*
X0203722Y0134763D01*
X0203783Y0134699D01*
X0203842Y0134631D01*
X0203897Y0134561D01*
X0203949Y0134489D01*
X0203998Y0134414D01*
X0204043Y0134338D01*
X0204085Y0134259D01*
X0204123Y0134179D01*
X0204158Y0134097D01*
X0204189Y0134013D01*
X0204217Y0133928D01*
X0204240Y0133842D01*
X0204260Y0133755D01*
X0204276Y0133668D01*
X0204288Y0133579D01*
X0204296Y0133491D01*
X0204300Y0133402D01*
X0204300Y0133312D01*
X0204296Y0133223D01*
X0204288Y0133135D01*
X0204276Y0133046D01*
X0204260Y0132959D01*
X0204240Y0132872D01*
X0204217Y0132786D01*
X0204189Y0132701D01*
X0204158Y0132617D01*
X0204123Y0132535D01*
X0204085Y0132455D01*
X0204043Y0132376D01*
X0203998Y0132300D01*
X0203949Y0132225D01*
X0203897Y0132153D01*
X0203842Y0132083D01*
X0203783Y0132015D01*
X0203722Y0131951D01*
X0203658Y0131889D01*
X0203591Y0131830D01*
X0203522Y0131774D01*
X0203450Y0131721D01*
X0203376Y0131671D01*
X0203300Y0131625D01*
X0203222Y0131582D01*
X0203142Y0131543D01*
X0203060Y0131507D01*
X0202977Y0131475D01*
X0202893Y0131447D01*
X0202807Y0131422D01*
X0202720Y0131402D01*
X0202633Y0131385D01*
X0202544Y0131372D01*
X0202456Y0131363D01*
X0202367Y0131358D01*
X0202278Y0131357D01*
X0202189Y0131360D01*
X0202100Y0131367D01*
X0202011Y0131378D01*
X0201923Y0131393D01*
X0201836Y0131411D01*
X0201750Y0131434D01*
X0201665Y0131460D01*
X0201581Y0131491D01*
X0201499Y0131525D01*
X0201418Y0131562D01*
X0201339Y0131603D01*
X0201262Y0131648D01*
X0201187Y0131696D01*
X0201114Y0131747D01*
X0201043Y0131801D01*
X0200975Y0131859D01*
X0200910Y0131919D01*
X0200847Y0131983D01*
X0200787Y0132049D01*
X0200730Y0132118D01*
X0200677Y0132189D01*
X0200626Y0132262D01*
X0200579Y0132338D01*
X0200536Y0132415D01*
X0200495Y0132495D01*
X0200459Y0132576D01*
X0200426Y0132659D01*
X0200397Y0132743D01*
X0200371Y0132829D01*
X0200349Y0132915D01*
X0200332Y0133002D01*
X0200318Y0133090D01*
X0200308Y0133179D01*
X0200302Y0133268D01*
X0200300Y0133357D01*
X0200300Y0153657D02*
X0200302Y0153746D01*
X0200308Y0153835D01*
X0200318Y0153924D01*
X0200332Y0154012D01*
X0200349Y0154099D01*
X0200371Y0154185D01*
X0200397Y0154271D01*
X0200426Y0154355D01*
X0200459Y0154438D01*
X0200495Y0154519D01*
X0200536Y0154599D01*
X0200579Y0154676D01*
X0200626Y0154752D01*
X0200677Y0154825D01*
X0200730Y0154896D01*
X0200787Y0154965D01*
X0200847Y0155031D01*
X0200910Y0155095D01*
X0200975Y0155155D01*
X0201043Y0155213D01*
X0201114Y0155267D01*
X0201187Y0155318D01*
X0201262Y0155366D01*
X0201339Y0155411D01*
X0201418Y0155452D01*
X0201499Y0155489D01*
X0201581Y0155523D01*
X0201665Y0155554D01*
X0201750Y0155580D01*
X0201836Y0155603D01*
X0201923Y0155621D01*
X0202011Y0155636D01*
X0202100Y0155647D01*
X0202189Y0155654D01*
X0202278Y0155657D01*
X0202367Y0155656D01*
X0202456Y0155651D01*
X0202544Y0155642D01*
X0202633Y0155629D01*
X0202720Y0155612D01*
X0202807Y0155592D01*
X0202893Y0155567D01*
X0202977Y0155539D01*
X0203060Y0155507D01*
X0203142Y0155471D01*
X0203222Y0155432D01*
X0203300Y0155389D01*
X0203376Y0155343D01*
X0203450Y0155293D01*
X0203522Y0155240D01*
X0203591Y0155184D01*
X0203658Y0155125D01*
X0203722Y0155063D01*
X0203783Y0154999D01*
X0203842Y0154931D01*
X0203897Y0154861D01*
X0203949Y0154789D01*
X0203998Y0154714D01*
X0204043Y0154638D01*
X0204085Y0154559D01*
X0204123Y0154479D01*
X0204158Y0154397D01*
X0204189Y0154313D01*
X0204217Y0154228D01*
X0204240Y0154142D01*
X0204260Y0154055D01*
X0204276Y0153968D01*
X0204288Y0153879D01*
X0204296Y0153791D01*
X0204300Y0153702D01*
X0204300Y0153612D01*
X0204296Y0153523D01*
X0204288Y0153435D01*
X0204276Y0153346D01*
X0204260Y0153259D01*
X0204240Y0153172D01*
X0204217Y0153086D01*
X0204189Y0153001D01*
X0204158Y0152917D01*
X0204123Y0152835D01*
X0204085Y0152755D01*
X0204043Y0152676D01*
X0203998Y0152600D01*
X0203949Y0152525D01*
X0203897Y0152453D01*
X0203842Y0152383D01*
X0203783Y0152315D01*
X0203722Y0152251D01*
X0203658Y0152189D01*
X0203591Y0152130D01*
X0203522Y0152074D01*
X0203450Y0152021D01*
X0203376Y0151971D01*
X0203300Y0151925D01*
X0203222Y0151882D01*
X0203142Y0151843D01*
X0203060Y0151807D01*
X0202977Y0151775D01*
X0202893Y0151747D01*
X0202807Y0151722D01*
X0202720Y0151702D01*
X0202633Y0151685D01*
X0202544Y0151672D01*
X0202456Y0151663D01*
X0202367Y0151658D01*
X0202278Y0151657D01*
X0202189Y0151660D01*
X0202100Y0151667D01*
X0202011Y0151678D01*
X0201923Y0151693D01*
X0201836Y0151711D01*
X0201750Y0151734D01*
X0201665Y0151760D01*
X0201581Y0151791D01*
X0201499Y0151825D01*
X0201418Y0151862D01*
X0201339Y0151903D01*
X0201262Y0151948D01*
X0201187Y0151996D01*
X0201114Y0152047D01*
X0201043Y0152101D01*
X0200975Y0152159D01*
X0200910Y0152219D01*
X0200847Y0152283D01*
X0200787Y0152349D01*
X0200730Y0152418D01*
X0200677Y0152489D01*
X0200626Y0152562D01*
X0200579Y0152638D01*
X0200536Y0152715D01*
X0200495Y0152795D01*
X0200459Y0152876D01*
X0200426Y0152959D01*
X0200397Y0153043D01*
X0200371Y0153129D01*
X0200349Y0153215D01*
X0200332Y0153302D01*
X0200318Y0153390D01*
X0200308Y0153479D01*
X0200302Y0153568D01*
X0200300Y0153657D01*
X0162800Y0153657D02*
X0162802Y0153746D01*
X0162808Y0153835D01*
X0162818Y0153924D01*
X0162832Y0154012D01*
X0162849Y0154099D01*
X0162871Y0154185D01*
X0162897Y0154271D01*
X0162926Y0154355D01*
X0162959Y0154438D01*
X0162995Y0154519D01*
X0163036Y0154599D01*
X0163079Y0154676D01*
X0163126Y0154752D01*
X0163177Y0154825D01*
X0163230Y0154896D01*
X0163287Y0154965D01*
X0163347Y0155031D01*
X0163410Y0155095D01*
X0163475Y0155155D01*
X0163543Y0155213D01*
X0163614Y0155267D01*
X0163687Y0155318D01*
X0163762Y0155366D01*
X0163839Y0155411D01*
X0163918Y0155452D01*
X0163999Y0155489D01*
X0164081Y0155523D01*
X0164165Y0155554D01*
X0164250Y0155580D01*
X0164336Y0155603D01*
X0164423Y0155621D01*
X0164511Y0155636D01*
X0164600Y0155647D01*
X0164689Y0155654D01*
X0164778Y0155657D01*
X0164867Y0155656D01*
X0164956Y0155651D01*
X0165044Y0155642D01*
X0165133Y0155629D01*
X0165220Y0155612D01*
X0165307Y0155592D01*
X0165393Y0155567D01*
X0165477Y0155539D01*
X0165560Y0155507D01*
X0165642Y0155471D01*
X0165722Y0155432D01*
X0165800Y0155389D01*
X0165876Y0155343D01*
X0165950Y0155293D01*
X0166022Y0155240D01*
X0166091Y0155184D01*
X0166158Y0155125D01*
X0166222Y0155063D01*
X0166283Y0154999D01*
X0166342Y0154931D01*
X0166397Y0154861D01*
X0166449Y0154789D01*
X0166498Y0154714D01*
X0166543Y0154638D01*
X0166585Y0154559D01*
X0166623Y0154479D01*
X0166658Y0154397D01*
X0166689Y0154313D01*
X0166717Y0154228D01*
X0166740Y0154142D01*
X0166760Y0154055D01*
X0166776Y0153968D01*
X0166788Y0153879D01*
X0166796Y0153791D01*
X0166800Y0153702D01*
X0166800Y0153612D01*
X0166796Y0153523D01*
X0166788Y0153435D01*
X0166776Y0153346D01*
X0166760Y0153259D01*
X0166740Y0153172D01*
X0166717Y0153086D01*
X0166689Y0153001D01*
X0166658Y0152917D01*
X0166623Y0152835D01*
X0166585Y0152755D01*
X0166543Y0152676D01*
X0166498Y0152600D01*
X0166449Y0152525D01*
X0166397Y0152453D01*
X0166342Y0152383D01*
X0166283Y0152315D01*
X0166222Y0152251D01*
X0166158Y0152189D01*
X0166091Y0152130D01*
X0166022Y0152074D01*
X0165950Y0152021D01*
X0165876Y0151971D01*
X0165800Y0151925D01*
X0165722Y0151882D01*
X0165642Y0151843D01*
X0165560Y0151807D01*
X0165477Y0151775D01*
X0165393Y0151747D01*
X0165307Y0151722D01*
X0165220Y0151702D01*
X0165133Y0151685D01*
X0165044Y0151672D01*
X0164956Y0151663D01*
X0164867Y0151658D01*
X0164778Y0151657D01*
X0164689Y0151660D01*
X0164600Y0151667D01*
X0164511Y0151678D01*
X0164423Y0151693D01*
X0164336Y0151711D01*
X0164250Y0151734D01*
X0164165Y0151760D01*
X0164081Y0151791D01*
X0163999Y0151825D01*
X0163918Y0151862D01*
X0163839Y0151903D01*
X0163762Y0151948D01*
X0163687Y0151996D01*
X0163614Y0152047D01*
X0163543Y0152101D01*
X0163475Y0152159D01*
X0163410Y0152219D01*
X0163347Y0152283D01*
X0163287Y0152349D01*
X0163230Y0152418D01*
X0163177Y0152489D01*
X0163126Y0152562D01*
X0163079Y0152638D01*
X0163036Y0152715D01*
X0162995Y0152795D01*
X0162959Y0152876D01*
X0162926Y0152959D01*
X0162897Y0153043D01*
X0162871Y0153129D01*
X0162849Y0153215D01*
X0162832Y0153302D01*
X0162818Y0153390D01*
X0162808Y0153479D01*
X0162802Y0153568D01*
X0162800Y0153657D01*
X0162800Y0173357D02*
X0162802Y0173446D01*
X0162808Y0173535D01*
X0162818Y0173624D01*
X0162832Y0173712D01*
X0162849Y0173799D01*
X0162871Y0173885D01*
X0162897Y0173971D01*
X0162926Y0174055D01*
X0162959Y0174138D01*
X0162995Y0174219D01*
X0163036Y0174299D01*
X0163079Y0174376D01*
X0163126Y0174452D01*
X0163177Y0174525D01*
X0163230Y0174596D01*
X0163287Y0174665D01*
X0163347Y0174731D01*
X0163410Y0174795D01*
X0163475Y0174855D01*
X0163543Y0174913D01*
X0163614Y0174967D01*
X0163687Y0175018D01*
X0163762Y0175066D01*
X0163839Y0175111D01*
X0163918Y0175152D01*
X0163999Y0175189D01*
X0164081Y0175223D01*
X0164165Y0175254D01*
X0164250Y0175280D01*
X0164336Y0175303D01*
X0164423Y0175321D01*
X0164511Y0175336D01*
X0164600Y0175347D01*
X0164689Y0175354D01*
X0164778Y0175357D01*
X0164867Y0175356D01*
X0164956Y0175351D01*
X0165044Y0175342D01*
X0165133Y0175329D01*
X0165220Y0175312D01*
X0165307Y0175292D01*
X0165393Y0175267D01*
X0165477Y0175239D01*
X0165560Y0175207D01*
X0165642Y0175171D01*
X0165722Y0175132D01*
X0165800Y0175089D01*
X0165876Y0175043D01*
X0165950Y0174993D01*
X0166022Y0174940D01*
X0166091Y0174884D01*
X0166158Y0174825D01*
X0166222Y0174763D01*
X0166283Y0174699D01*
X0166342Y0174631D01*
X0166397Y0174561D01*
X0166449Y0174489D01*
X0166498Y0174414D01*
X0166543Y0174338D01*
X0166585Y0174259D01*
X0166623Y0174179D01*
X0166658Y0174097D01*
X0166689Y0174013D01*
X0166717Y0173928D01*
X0166740Y0173842D01*
X0166760Y0173755D01*
X0166776Y0173668D01*
X0166788Y0173579D01*
X0166796Y0173491D01*
X0166800Y0173402D01*
X0166800Y0173312D01*
X0166796Y0173223D01*
X0166788Y0173135D01*
X0166776Y0173046D01*
X0166760Y0172959D01*
X0166740Y0172872D01*
X0166717Y0172786D01*
X0166689Y0172701D01*
X0166658Y0172617D01*
X0166623Y0172535D01*
X0166585Y0172455D01*
X0166543Y0172376D01*
X0166498Y0172300D01*
X0166449Y0172225D01*
X0166397Y0172153D01*
X0166342Y0172083D01*
X0166283Y0172015D01*
X0166222Y0171951D01*
X0166158Y0171889D01*
X0166091Y0171830D01*
X0166022Y0171774D01*
X0165950Y0171721D01*
X0165876Y0171671D01*
X0165800Y0171625D01*
X0165722Y0171582D01*
X0165642Y0171543D01*
X0165560Y0171507D01*
X0165477Y0171475D01*
X0165393Y0171447D01*
X0165307Y0171422D01*
X0165220Y0171402D01*
X0165133Y0171385D01*
X0165044Y0171372D01*
X0164956Y0171363D01*
X0164867Y0171358D01*
X0164778Y0171357D01*
X0164689Y0171360D01*
X0164600Y0171367D01*
X0164511Y0171378D01*
X0164423Y0171393D01*
X0164336Y0171411D01*
X0164250Y0171434D01*
X0164165Y0171460D01*
X0164081Y0171491D01*
X0163999Y0171525D01*
X0163918Y0171562D01*
X0163839Y0171603D01*
X0163762Y0171648D01*
X0163687Y0171696D01*
X0163614Y0171747D01*
X0163543Y0171801D01*
X0163475Y0171859D01*
X0163410Y0171919D01*
X0163347Y0171983D01*
X0163287Y0172049D01*
X0163230Y0172118D01*
X0163177Y0172189D01*
X0163126Y0172262D01*
X0163079Y0172338D01*
X0163036Y0172415D01*
X0162995Y0172495D01*
X0162959Y0172576D01*
X0162926Y0172659D01*
X0162897Y0172743D01*
X0162871Y0172829D01*
X0162849Y0172915D01*
X0162832Y0173002D01*
X0162818Y0173090D01*
X0162808Y0173179D01*
X0162802Y0173268D01*
X0162800Y0173357D01*
X0185598Y0176858D02*
X0185598Y0183157D01*
X0046000Y0223500D02*
X0046000Y0228500D01*
X0043500Y0231000D01*
X0046000Y0233500D01*
X0046000Y0238500D01*
X0043500Y0241000D01*
X0046000Y0243500D01*
X0046000Y0248500D01*
X0043500Y0251000D01*
X0038500Y0251000D01*
X0036000Y0248500D01*
X0036000Y0243500D01*
X0038500Y0241000D01*
X0036000Y0238500D01*
X0036000Y0233500D01*
X0038500Y0231000D01*
X0036000Y0228500D01*
X0036000Y0223500D01*
X0038500Y0221000D01*
X0043500Y0221000D01*
X0046000Y0223500D01*
X0348500Y0111000D02*
X0348500Y0106000D01*
X0351000Y0103500D01*
X0348500Y0101000D01*
X0348500Y0096000D01*
X0351000Y0093500D01*
X0348500Y0091000D01*
X0348500Y0086000D01*
X0351000Y0083500D01*
X0356000Y0083500D01*
X0358500Y0086000D01*
X0358500Y0091000D01*
X0356000Y0093500D01*
X0358500Y0096000D01*
X0358500Y0101000D01*
X0356000Y0103500D01*
X0358500Y0106000D01*
X0358500Y0111000D01*
X0356000Y0113500D01*
X0351000Y0113500D01*
X0348500Y0111000D01*
X0375000Y0109500D02*
X0375000Y0092500D01*
X0375002Y0092440D01*
X0375007Y0092379D01*
X0375016Y0092320D01*
X0375029Y0092261D01*
X0375045Y0092202D01*
X0375065Y0092145D01*
X0375088Y0092090D01*
X0375115Y0092035D01*
X0375144Y0091983D01*
X0375177Y0091932D01*
X0375213Y0091883D01*
X0375251Y0091837D01*
X0375293Y0091793D01*
X0375337Y0091751D01*
X0375383Y0091713D01*
X0375432Y0091677D01*
X0375483Y0091644D01*
X0375535Y0091615D01*
X0375590Y0091588D01*
X0375645Y0091565D01*
X0375702Y0091545D01*
X0375761Y0091529D01*
X0375820Y0091516D01*
X0375879Y0091507D01*
X0375940Y0091502D01*
X0376000Y0091500D01*
X0386000Y0091500D01*
X0386060Y0091502D01*
X0386121Y0091507D01*
X0386180Y0091516D01*
X0386239Y0091529D01*
X0386298Y0091545D01*
X0386355Y0091565D01*
X0386410Y0091588D01*
X0386465Y0091615D01*
X0386517Y0091644D01*
X0386568Y0091677D01*
X0386617Y0091713D01*
X0386663Y0091751D01*
X0386707Y0091793D01*
X0386749Y0091837D01*
X0386787Y0091883D01*
X0386823Y0091932D01*
X0386856Y0091983D01*
X0386885Y0092035D01*
X0386912Y0092090D01*
X0386935Y0092145D01*
X0386955Y0092202D01*
X0386971Y0092261D01*
X0386984Y0092320D01*
X0386993Y0092379D01*
X0386998Y0092440D01*
X0387000Y0092500D01*
X0387000Y0109500D01*
X0386998Y0109560D01*
X0386993Y0109621D01*
X0386984Y0109680D01*
X0386971Y0109739D01*
X0386955Y0109798D01*
X0386935Y0109855D01*
X0386912Y0109910D01*
X0386885Y0109965D01*
X0386856Y0110017D01*
X0386823Y0110068D01*
X0386787Y0110117D01*
X0386749Y0110163D01*
X0386707Y0110207D01*
X0386663Y0110249D01*
X0386617Y0110287D01*
X0386568Y0110323D01*
X0386517Y0110356D01*
X0386465Y0110385D01*
X0386410Y0110412D01*
X0386355Y0110435D01*
X0386298Y0110455D01*
X0386239Y0110471D01*
X0386180Y0110484D01*
X0386121Y0110493D01*
X0386060Y0110498D01*
X0386000Y0110500D01*
X0376000Y0110500D01*
X0375940Y0110498D01*
X0375879Y0110493D01*
X0375820Y0110484D01*
X0375761Y0110471D01*
X0375702Y0110455D01*
X0375645Y0110435D01*
X0375590Y0110412D01*
X0375535Y0110385D01*
X0375483Y0110356D01*
X0375432Y0110323D01*
X0375383Y0110287D01*
X0375337Y0110249D01*
X0375293Y0110207D01*
X0375251Y0110163D01*
X0375213Y0110117D01*
X0375177Y0110068D01*
X0375144Y0110017D01*
X0375115Y0109965D01*
X0375088Y0109910D01*
X0375065Y0109855D01*
X0375045Y0109798D01*
X0375029Y0109739D01*
X0375016Y0109680D01*
X0375007Y0109621D01*
X0375002Y0109560D01*
X0375000Y0109500D01*
X0381000Y0102500D02*
X0381000Y0102000D01*
X0381000Y0100000D02*
X0381000Y0099500D01*
X0362000Y0047000D02*
X0345000Y0047000D01*
X0344940Y0046998D01*
X0344879Y0046993D01*
X0344820Y0046984D01*
X0344761Y0046971D01*
X0344702Y0046955D01*
X0344645Y0046935D01*
X0344590Y0046912D01*
X0344535Y0046885D01*
X0344483Y0046856D01*
X0344432Y0046823D01*
X0344383Y0046787D01*
X0344337Y0046749D01*
X0344293Y0046707D01*
X0344251Y0046663D01*
X0344213Y0046617D01*
X0344177Y0046568D01*
X0344144Y0046517D01*
X0344115Y0046465D01*
X0344088Y0046410D01*
X0344065Y0046355D01*
X0344045Y0046298D01*
X0344029Y0046239D01*
X0344016Y0046180D01*
X0344007Y0046121D01*
X0344002Y0046060D01*
X0344000Y0046000D01*
X0344000Y0036000D01*
X0344002Y0035940D01*
X0344007Y0035879D01*
X0344016Y0035820D01*
X0344029Y0035761D01*
X0344045Y0035702D01*
X0344065Y0035645D01*
X0344088Y0035590D01*
X0344115Y0035535D01*
X0344144Y0035483D01*
X0344177Y0035432D01*
X0344213Y0035383D01*
X0344251Y0035337D01*
X0344293Y0035293D01*
X0344337Y0035251D01*
X0344383Y0035213D01*
X0344432Y0035177D01*
X0344483Y0035144D01*
X0344535Y0035115D01*
X0344590Y0035088D01*
X0344645Y0035065D01*
X0344702Y0035045D01*
X0344761Y0035029D01*
X0344820Y0035016D01*
X0344879Y0035007D01*
X0344940Y0035002D01*
X0345000Y0035000D01*
X0362000Y0035000D01*
X0362060Y0035002D01*
X0362121Y0035007D01*
X0362180Y0035016D01*
X0362239Y0035029D01*
X0362298Y0035045D01*
X0362355Y0035065D01*
X0362410Y0035088D01*
X0362465Y0035115D01*
X0362517Y0035144D01*
X0362568Y0035177D01*
X0362617Y0035213D01*
X0362663Y0035251D01*
X0362707Y0035293D01*
X0362749Y0035337D01*
X0362787Y0035383D01*
X0362823Y0035432D01*
X0362856Y0035483D01*
X0362885Y0035535D01*
X0362912Y0035590D01*
X0362935Y0035645D01*
X0362955Y0035702D01*
X0362971Y0035761D01*
X0362984Y0035820D01*
X0362993Y0035879D01*
X0362998Y0035940D01*
X0363000Y0036000D01*
X0363000Y0046000D01*
X0362998Y0046060D01*
X0362993Y0046121D01*
X0362984Y0046180D01*
X0362971Y0046239D01*
X0362955Y0046298D01*
X0362935Y0046355D01*
X0362912Y0046410D01*
X0362885Y0046465D01*
X0362856Y0046517D01*
X0362823Y0046568D01*
X0362787Y0046617D01*
X0362749Y0046663D01*
X0362707Y0046707D01*
X0362663Y0046749D01*
X0362617Y0046787D01*
X0362568Y0046823D01*
X0362517Y0046856D01*
X0362465Y0046885D01*
X0362410Y0046912D01*
X0362355Y0046935D01*
X0362298Y0046955D01*
X0362239Y0046971D01*
X0362180Y0046984D01*
X0362121Y0046993D01*
X0362060Y0046998D01*
X0362000Y0047000D01*
X0355000Y0041000D02*
X0354500Y0041000D01*
X0352500Y0041000D02*
X0352000Y0041000D01*
X0353500Y0218500D02*
X0358500Y0218500D01*
X0361000Y0221000D01*
X0361000Y0226000D01*
X0358500Y0228500D01*
X0361000Y0231000D01*
X0361000Y0236000D01*
X0358500Y0238500D01*
X0361000Y0241000D01*
X0361000Y0246000D01*
X0358500Y0248500D01*
X0353500Y0248500D01*
X0351000Y0246000D01*
X0351000Y0241000D01*
X0353500Y0238500D01*
X0351000Y0236000D01*
X0351000Y0231000D01*
X0353500Y0228500D01*
X0351000Y0226000D01*
X0351000Y0221000D01*
X0353500Y0218500D01*
D12*
X0222000Y0216500D02*
X0222000Y0213500D01*
X0222000Y0210500D01*
X0220000Y0210500D02*
X0220000Y0213500D01*
X0220000Y0216500D01*
X0220000Y0199000D02*
X0220000Y0196000D01*
X0220000Y0193000D01*
X0222000Y0193000D02*
X0222000Y0196000D01*
X0222000Y0199000D01*
X0378000Y0102000D02*
X0381000Y0102000D01*
X0384000Y0102000D01*
X0384000Y0100000D02*
X0381000Y0100000D01*
X0378000Y0100000D01*
X0354500Y0044000D02*
X0354500Y0041000D01*
X0354500Y0038000D01*
X0352500Y0038000D02*
X0352500Y0041000D01*
X0352500Y0044000D01*
X0042000Y0041500D02*
X0042000Y0038500D01*
X0042000Y0035500D01*
X0040000Y0035500D02*
X0040000Y0038500D01*
X0040000Y0041500D01*
X0014000Y0095000D02*
X0011000Y0095000D01*
X0008000Y0095000D01*
X0008000Y0097000D02*
X0011000Y0097000D01*
X0014000Y0097000D01*
D13*
X0018246Y0095794D02*
X0018246Y0094293D01*
X0018997Y0093542D01*
X0021999Y0093542D01*
X0022750Y0094293D01*
X0022750Y0095794D01*
X0021999Y0096545D01*
X0021999Y0098146D02*
X0022750Y0098897D01*
X0022750Y0100398D01*
X0021999Y0101149D01*
X0021249Y0101149D01*
X0020498Y0100398D01*
X0020498Y0099647D01*
X0020498Y0100398D02*
X0019747Y0101149D01*
X0018997Y0101149D01*
X0018246Y0100398D01*
X0018246Y0098897D01*
X0018997Y0098146D01*
X0018997Y0096545D02*
X0018246Y0095794D01*
X0029746Y0095210D02*
X0029746Y0093708D01*
X0030497Y0092958D01*
X0029746Y0091356D02*
X0032749Y0091356D01*
X0034250Y0089855D01*
X0032749Y0088354D01*
X0029746Y0088354D01*
X0030497Y0086753D02*
X0029746Y0086002D01*
X0029746Y0084501D01*
X0030497Y0083750D01*
X0031247Y0083750D01*
X0031998Y0084501D01*
X0031998Y0086002D01*
X0032749Y0086753D01*
X0033499Y0086753D01*
X0034250Y0086002D01*
X0034250Y0084501D01*
X0033499Y0083750D01*
X0038746Y0080251D02*
X0043250Y0080251D01*
X0043250Y0078750D02*
X0043250Y0081753D01*
X0040247Y0078750D02*
X0038746Y0080251D01*
X0034250Y0092958D02*
X0031247Y0095960D01*
X0030497Y0095960D01*
X0029746Y0095210D01*
X0034250Y0095960D02*
X0034250Y0092958D01*
X0035501Y0050254D02*
X0034750Y0049503D01*
X0034750Y0046501D01*
X0035501Y0045750D01*
X0037002Y0045750D01*
X0037753Y0046501D01*
X0039354Y0045750D02*
X0042356Y0045750D01*
X0040855Y0045750D02*
X0040855Y0050254D01*
X0039354Y0048753D01*
X0037753Y0049503D02*
X0037002Y0050254D01*
X0035501Y0050254D01*
X0166246Y0067409D02*
X0170750Y0067409D01*
X0170750Y0068910D02*
X0170750Y0065907D01*
X0167747Y0065907D02*
X0166246Y0067409D01*
X0188446Y0068607D02*
X0192950Y0071610D01*
X0192199Y0073211D02*
X0192950Y0073962D01*
X0192950Y0075463D01*
X0192199Y0076214D01*
X0191449Y0076214D01*
X0190698Y0075463D01*
X0190698Y0074713D01*
X0190698Y0075463D02*
X0189947Y0076214D01*
X0189197Y0076214D01*
X0188446Y0075463D01*
X0188446Y0073962D01*
X0189197Y0073211D01*
X0188446Y0071610D02*
X0192950Y0068607D01*
X0203746Y0067409D02*
X0208250Y0067409D01*
X0208250Y0068910D02*
X0208250Y0065907D01*
X0205247Y0065907D02*
X0203746Y0067409D01*
X0225946Y0068607D02*
X0230450Y0071610D01*
X0229699Y0073211D02*
X0230450Y0073962D01*
X0230450Y0075463D01*
X0229699Y0076214D01*
X0228949Y0076214D01*
X0228198Y0075463D01*
X0228198Y0073211D01*
X0229699Y0073211D01*
X0228198Y0073211D02*
X0226697Y0074713D01*
X0225946Y0076214D01*
X0225946Y0071610D02*
X0230450Y0068607D01*
X0208250Y0085407D02*
X0205247Y0088410D01*
X0204497Y0088410D01*
X0203746Y0087659D01*
X0203746Y0086158D01*
X0204497Y0085407D01*
X0208250Y0085407D02*
X0208250Y0088410D01*
X0208250Y0105907D02*
X0208250Y0108910D01*
X0208250Y0107409D02*
X0203746Y0107409D01*
X0205247Y0105907D01*
X0192950Y0108607D02*
X0188446Y0111610D01*
X0189197Y0113211D02*
X0188446Y0113962D01*
X0188446Y0115463D01*
X0189197Y0116214D01*
X0189947Y0116214D01*
X0192950Y0113211D01*
X0192950Y0116214D01*
X0192950Y0111610D02*
X0188446Y0108607D01*
X0170750Y0108910D02*
X0170750Y0105907D01*
X0170750Y0107409D02*
X0166246Y0107409D01*
X0167747Y0105907D01*
X0167747Y0088410D02*
X0166997Y0088410D01*
X0166246Y0087659D01*
X0166246Y0086158D01*
X0166997Y0085407D01*
X0167747Y0088410D02*
X0170750Y0085407D01*
X0170750Y0088410D01*
X0225946Y0108607D02*
X0230450Y0111610D01*
X0229699Y0113211D02*
X0230450Y0113962D01*
X0230450Y0115463D01*
X0229699Y0116214D01*
X0228198Y0116214D01*
X0227447Y0115463D01*
X0227447Y0114713D01*
X0228198Y0113211D01*
X0225946Y0113211D01*
X0225946Y0116214D01*
X0225946Y0111610D02*
X0230450Y0108607D01*
X0208250Y0125407D02*
X0205247Y0128410D01*
X0204497Y0128410D01*
X0203746Y0127659D01*
X0203746Y0126158D01*
X0204497Y0125407D01*
X0208250Y0125407D02*
X0208250Y0128410D01*
X0208250Y0145907D02*
X0208250Y0148910D01*
X0208250Y0147409D02*
X0203746Y0147409D01*
X0205247Y0145907D01*
X0192950Y0148607D02*
X0188446Y0151610D01*
X0189947Y0153211D02*
X0188446Y0154713D01*
X0192950Y0154713D01*
X0192950Y0156214D02*
X0192950Y0153211D01*
X0192950Y0151610D02*
X0188446Y0148607D01*
X0170750Y0148910D02*
X0170750Y0145907D01*
X0170750Y0147409D02*
X0166246Y0147409D01*
X0167747Y0145907D01*
X0167747Y0128410D02*
X0166997Y0128410D01*
X0166246Y0127659D01*
X0166246Y0126158D01*
X0166997Y0125407D01*
X0167747Y0128410D02*
X0170750Y0125407D01*
X0170750Y0128410D01*
X0225946Y0148607D02*
X0230450Y0151610D01*
X0228198Y0153211D02*
X0228198Y0156214D01*
X0230450Y0155463D02*
X0225946Y0155463D01*
X0228198Y0153211D01*
X0225946Y0151610D02*
X0230450Y0148607D01*
X0208250Y0165407D02*
X0205247Y0168410D01*
X0204497Y0168410D01*
X0203746Y0167659D01*
X0203746Y0166158D01*
X0204497Y0165407D01*
X0208250Y0165407D02*
X0208250Y0168410D01*
X0170750Y0168410D02*
X0170750Y0165407D01*
X0167747Y0168410D01*
X0166997Y0168410D01*
X0166246Y0167659D01*
X0166246Y0166158D01*
X0166997Y0165407D01*
X0168607Y0189050D02*
X0171610Y0193554D01*
X0173211Y0193554D02*
X0176214Y0193554D01*
X0176214Y0192803D01*
X0173211Y0189801D01*
X0173211Y0189050D01*
X0171610Y0189050D02*
X0168607Y0193554D01*
X0168910Y0211250D02*
X0165907Y0211250D01*
X0167409Y0211250D02*
X0167409Y0215754D01*
X0165907Y0214253D01*
X0185407Y0215003D02*
X0186158Y0215754D01*
X0187659Y0215754D01*
X0188410Y0215003D01*
X0188410Y0214253D01*
X0185407Y0211250D01*
X0188410Y0211250D01*
X0214750Y0207003D02*
X0214750Y0204001D01*
X0215501Y0203250D01*
X0217002Y0203250D01*
X0217753Y0204001D01*
X0219354Y0204001D02*
X0220105Y0203250D01*
X0221606Y0203250D01*
X0222356Y0204001D01*
X0222356Y0204751D01*
X0221606Y0205502D01*
X0219354Y0205502D01*
X0219354Y0204001D01*
X0219354Y0205502D02*
X0220855Y0207003D01*
X0222356Y0207754D01*
X0223897Y0206254D02*
X0223146Y0205503D01*
X0223897Y0206254D02*
X0225398Y0206254D01*
X0226149Y0205503D01*
X0226149Y0204753D01*
X0223146Y0201750D01*
X0226149Y0201750D01*
X0221545Y0202501D02*
X0220794Y0201750D01*
X0219293Y0201750D01*
X0218542Y0202501D01*
X0218542Y0205503D01*
X0219293Y0206254D01*
X0220794Y0206254D01*
X0221545Y0205503D01*
X0217753Y0207003D02*
X0217002Y0207754D01*
X0215501Y0207754D01*
X0214750Y0207003D01*
X0353746Y0250647D02*
X0358250Y0250647D01*
X0358250Y0249146D02*
X0358250Y0252149D01*
X0355247Y0249146D02*
X0353746Y0250647D01*
X0362746Y0246398D02*
X0363497Y0247149D01*
X0364247Y0247149D01*
X0364998Y0246398D01*
X0365749Y0247149D01*
X0366499Y0247149D01*
X0367250Y0246398D01*
X0367250Y0244897D01*
X0366499Y0244146D01*
X0365749Y0242545D02*
X0362746Y0242545D01*
X0363497Y0244146D02*
X0362746Y0244897D01*
X0362746Y0246398D01*
X0364998Y0246398D02*
X0364998Y0245647D01*
X0365749Y0242545D02*
X0367250Y0241043D01*
X0365749Y0239542D01*
X0362746Y0239542D01*
X0363497Y0237941D02*
X0362746Y0237190D01*
X0362746Y0235689D01*
X0363497Y0234938D01*
X0364247Y0234938D01*
X0364998Y0235689D01*
X0364998Y0237190D01*
X0365749Y0237941D01*
X0366499Y0237941D01*
X0367250Y0237190D01*
X0367250Y0235689D01*
X0366499Y0234938D01*
X0355750Y0117149D02*
X0355750Y0114146D01*
X0355750Y0115647D02*
X0351246Y0115647D01*
X0352747Y0114146D01*
X0360246Y0111398D02*
X0362498Y0109146D01*
X0362498Y0112149D01*
X0364750Y0111398D02*
X0360246Y0111398D01*
X0360246Y0107545D02*
X0363249Y0107545D01*
X0364750Y0106043D01*
X0363249Y0104542D01*
X0360246Y0104542D01*
X0360997Y0102941D02*
X0360246Y0102190D01*
X0360246Y0100689D01*
X0360997Y0099938D01*
X0361747Y0099938D01*
X0362498Y0100689D01*
X0362498Y0102190D01*
X0363249Y0102941D01*
X0363999Y0102941D01*
X0364750Y0102190D01*
X0364750Y0100689D01*
X0363999Y0099938D01*
X0369246Y0101606D02*
X0371498Y0099354D01*
X0371498Y0102356D01*
X0373750Y0101606D02*
X0369246Y0101606D01*
X0369997Y0097753D02*
X0369246Y0097002D01*
X0369246Y0095501D01*
X0369997Y0094750D01*
X0372999Y0094750D01*
X0373750Y0095501D01*
X0373750Y0097002D01*
X0372999Y0097753D01*
X0354856Y0052754D02*
X0351854Y0052754D01*
X0351854Y0050502D01*
X0353355Y0051253D01*
X0354106Y0051253D01*
X0354856Y0050502D01*
X0354856Y0049001D01*
X0354106Y0048250D01*
X0352605Y0048250D01*
X0351854Y0049001D01*
X0350253Y0049001D02*
X0349502Y0048250D01*
X0348001Y0048250D01*
X0347250Y0049001D01*
X0347250Y0052003D01*
X0348001Y0052754D01*
X0349502Y0052754D01*
X0350253Y0052003D01*
X0043250Y0216250D02*
X0043250Y0219253D01*
X0043250Y0217751D02*
X0038746Y0217751D01*
X0040247Y0216250D01*
X0034250Y0222001D02*
X0033499Y0221250D01*
X0034250Y0222001D02*
X0034250Y0223502D01*
X0033499Y0224253D01*
X0032749Y0224253D01*
X0031998Y0223502D01*
X0031998Y0222001D01*
X0031247Y0221250D01*
X0030497Y0221250D01*
X0029746Y0222001D01*
X0029746Y0223502D01*
X0030497Y0224253D01*
X0029746Y0225854D02*
X0032749Y0225854D01*
X0034250Y0227355D01*
X0032749Y0228856D01*
X0029746Y0228856D01*
X0031247Y0230458D02*
X0029746Y0231959D01*
X0034250Y0231959D01*
X0034250Y0230458D02*
X0034250Y0233460D01*
M02*
