G75*
%MOIN*%
%OFA0B0*%
%FSLAX25Y25*%
%IPPOS*%
%LPD*%
%AMOC8*
5,1,8,0,0,1.08239X$1,22.5*
%
%ADD10C,0.00000*%
%ADD11C,0.05906*%
%ADD12OC8,0.06300*%
%ADD13C,0.10630*%
%ADD14C,0.07050*%
%ADD15C,0.06000*%
%ADD16C,0.01600*%
D10*
X0001000Y0011000D02*
X0001000Y0325000D01*
X0391000Y0325000D01*
X0391000Y0011000D01*
X0001000Y0011000D01*
X0013800Y0031000D02*
X0013802Y0031177D01*
X0013809Y0031353D01*
X0013820Y0031530D01*
X0013835Y0031706D01*
X0013854Y0031881D01*
X0013878Y0032056D01*
X0013906Y0032231D01*
X0013938Y0032405D01*
X0013975Y0032578D01*
X0014016Y0032749D01*
X0014061Y0032920D01*
X0014110Y0033090D01*
X0014163Y0033259D01*
X0014221Y0033426D01*
X0014282Y0033591D01*
X0014348Y0033755D01*
X0014418Y0033918D01*
X0014491Y0034078D01*
X0014569Y0034237D01*
X0014650Y0034394D01*
X0014735Y0034549D01*
X0014824Y0034702D01*
X0014917Y0034852D01*
X0015013Y0035000D01*
X0015113Y0035146D01*
X0015217Y0035289D01*
X0015324Y0035430D01*
X0015434Y0035568D01*
X0015548Y0035703D01*
X0015665Y0035835D01*
X0015785Y0035965D01*
X0015909Y0036091D01*
X0016035Y0036215D01*
X0016165Y0036335D01*
X0016297Y0036452D01*
X0016432Y0036566D01*
X0016570Y0036676D01*
X0016711Y0036783D01*
X0016854Y0036887D01*
X0017000Y0036987D01*
X0017148Y0037083D01*
X0017298Y0037176D01*
X0017451Y0037265D01*
X0017606Y0037350D01*
X0017763Y0037431D01*
X0017922Y0037509D01*
X0018082Y0037582D01*
X0018245Y0037652D01*
X0018409Y0037718D01*
X0018574Y0037779D01*
X0018741Y0037837D01*
X0018910Y0037890D01*
X0019080Y0037939D01*
X0019251Y0037984D01*
X0019422Y0038025D01*
X0019595Y0038062D01*
X0019769Y0038094D01*
X0019944Y0038122D01*
X0020119Y0038146D01*
X0020294Y0038165D01*
X0020470Y0038180D01*
X0020647Y0038191D01*
X0020823Y0038198D01*
X0021000Y0038200D01*
X0021177Y0038198D01*
X0021353Y0038191D01*
X0021530Y0038180D01*
X0021706Y0038165D01*
X0021881Y0038146D01*
X0022056Y0038122D01*
X0022231Y0038094D01*
X0022405Y0038062D01*
X0022578Y0038025D01*
X0022749Y0037984D01*
X0022920Y0037939D01*
X0023090Y0037890D01*
X0023259Y0037837D01*
X0023426Y0037779D01*
X0023591Y0037718D01*
X0023755Y0037652D01*
X0023918Y0037582D01*
X0024078Y0037509D01*
X0024237Y0037431D01*
X0024394Y0037350D01*
X0024549Y0037265D01*
X0024702Y0037176D01*
X0024852Y0037083D01*
X0025000Y0036987D01*
X0025146Y0036887D01*
X0025289Y0036783D01*
X0025430Y0036676D01*
X0025568Y0036566D01*
X0025703Y0036452D01*
X0025835Y0036335D01*
X0025965Y0036215D01*
X0026091Y0036091D01*
X0026215Y0035965D01*
X0026335Y0035835D01*
X0026452Y0035703D01*
X0026566Y0035568D01*
X0026676Y0035430D01*
X0026783Y0035289D01*
X0026887Y0035146D01*
X0026987Y0035000D01*
X0027083Y0034852D01*
X0027176Y0034702D01*
X0027265Y0034549D01*
X0027350Y0034394D01*
X0027431Y0034237D01*
X0027509Y0034078D01*
X0027582Y0033918D01*
X0027652Y0033755D01*
X0027718Y0033591D01*
X0027779Y0033426D01*
X0027837Y0033259D01*
X0027890Y0033090D01*
X0027939Y0032920D01*
X0027984Y0032749D01*
X0028025Y0032578D01*
X0028062Y0032405D01*
X0028094Y0032231D01*
X0028122Y0032056D01*
X0028146Y0031881D01*
X0028165Y0031706D01*
X0028180Y0031530D01*
X0028191Y0031353D01*
X0028198Y0031177D01*
X0028200Y0031000D01*
X0028198Y0030823D01*
X0028191Y0030647D01*
X0028180Y0030470D01*
X0028165Y0030294D01*
X0028146Y0030119D01*
X0028122Y0029944D01*
X0028094Y0029769D01*
X0028062Y0029595D01*
X0028025Y0029422D01*
X0027984Y0029251D01*
X0027939Y0029080D01*
X0027890Y0028910D01*
X0027837Y0028741D01*
X0027779Y0028574D01*
X0027718Y0028409D01*
X0027652Y0028245D01*
X0027582Y0028082D01*
X0027509Y0027922D01*
X0027431Y0027763D01*
X0027350Y0027606D01*
X0027265Y0027451D01*
X0027176Y0027298D01*
X0027083Y0027148D01*
X0026987Y0027000D01*
X0026887Y0026854D01*
X0026783Y0026711D01*
X0026676Y0026570D01*
X0026566Y0026432D01*
X0026452Y0026297D01*
X0026335Y0026165D01*
X0026215Y0026035D01*
X0026091Y0025909D01*
X0025965Y0025785D01*
X0025835Y0025665D01*
X0025703Y0025548D01*
X0025568Y0025434D01*
X0025430Y0025324D01*
X0025289Y0025217D01*
X0025146Y0025113D01*
X0025000Y0025013D01*
X0024852Y0024917D01*
X0024702Y0024824D01*
X0024549Y0024735D01*
X0024394Y0024650D01*
X0024237Y0024569D01*
X0024078Y0024491D01*
X0023918Y0024418D01*
X0023755Y0024348D01*
X0023591Y0024282D01*
X0023426Y0024221D01*
X0023259Y0024163D01*
X0023090Y0024110D01*
X0022920Y0024061D01*
X0022749Y0024016D01*
X0022578Y0023975D01*
X0022405Y0023938D01*
X0022231Y0023906D01*
X0022056Y0023878D01*
X0021881Y0023854D01*
X0021706Y0023835D01*
X0021530Y0023820D01*
X0021353Y0023809D01*
X0021177Y0023802D01*
X0021000Y0023800D01*
X0020823Y0023802D01*
X0020647Y0023809D01*
X0020470Y0023820D01*
X0020294Y0023835D01*
X0020119Y0023854D01*
X0019944Y0023878D01*
X0019769Y0023906D01*
X0019595Y0023938D01*
X0019422Y0023975D01*
X0019251Y0024016D01*
X0019080Y0024061D01*
X0018910Y0024110D01*
X0018741Y0024163D01*
X0018574Y0024221D01*
X0018409Y0024282D01*
X0018245Y0024348D01*
X0018082Y0024418D01*
X0017922Y0024491D01*
X0017763Y0024569D01*
X0017606Y0024650D01*
X0017451Y0024735D01*
X0017298Y0024824D01*
X0017148Y0024917D01*
X0017000Y0025013D01*
X0016854Y0025113D01*
X0016711Y0025217D01*
X0016570Y0025324D01*
X0016432Y0025434D01*
X0016297Y0025548D01*
X0016165Y0025665D01*
X0016035Y0025785D01*
X0015909Y0025909D01*
X0015785Y0026035D01*
X0015665Y0026165D01*
X0015548Y0026297D01*
X0015434Y0026432D01*
X0015324Y0026570D01*
X0015217Y0026711D01*
X0015113Y0026854D01*
X0015013Y0027000D01*
X0014917Y0027148D01*
X0014824Y0027298D01*
X0014735Y0027451D01*
X0014650Y0027606D01*
X0014569Y0027763D01*
X0014491Y0027922D01*
X0014418Y0028082D01*
X0014348Y0028245D01*
X0014282Y0028409D01*
X0014221Y0028574D01*
X0014163Y0028741D01*
X0014110Y0028910D01*
X0014061Y0029080D01*
X0014016Y0029251D01*
X0013975Y0029422D01*
X0013938Y0029595D01*
X0013906Y0029769D01*
X0013878Y0029944D01*
X0013854Y0030119D01*
X0013835Y0030294D01*
X0013820Y0030470D01*
X0013809Y0030647D01*
X0013802Y0030823D01*
X0013800Y0031000D01*
X0092500Y0023500D02*
X0092503Y0023709D01*
X0092510Y0023917D01*
X0092523Y0024125D01*
X0092541Y0024333D01*
X0092564Y0024540D01*
X0092592Y0024747D01*
X0092625Y0024953D01*
X0092663Y0025158D01*
X0092707Y0025362D01*
X0092755Y0025565D01*
X0092808Y0025767D01*
X0092866Y0025967D01*
X0092929Y0026166D01*
X0092997Y0026364D01*
X0093070Y0026559D01*
X0093147Y0026753D01*
X0093229Y0026945D01*
X0093316Y0027134D01*
X0093408Y0027322D01*
X0093504Y0027507D01*
X0093604Y0027690D01*
X0093709Y0027870D01*
X0093819Y0028047D01*
X0093933Y0028222D01*
X0094051Y0028394D01*
X0094173Y0028563D01*
X0094299Y0028729D01*
X0094429Y0028892D01*
X0094564Y0029052D01*
X0094702Y0029208D01*
X0094844Y0029361D01*
X0094990Y0029510D01*
X0095139Y0029656D01*
X0095292Y0029798D01*
X0095448Y0029936D01*
X0095608Y0030071D01*
X0095771Y0030201D01*
X0095937Y0030327D01*
X0096106Y0030449D01*
X0096278Y0030567D01*
X0096453Y0030681D01*
X0096630Y0030791D01*
X0096810Y0030896D01*
X0096993Y0030996D01*
X0097178Y0031092D01*
X0097366Y0031184D01*
X0097555Y0031271D01*
X0097747Y0031353D01*
X0097941Y0031430D01*
X0098136Y0031503D01*
X0098334Y0031571D01*
X0098533Y0031634D01*
X0098733Y0031692D01*
X0098935Y0031745D01*
X0099138Y0031793D01*
X0099342Y0031837D01*
X0099547Y0031875D01*
X0099753Y0031908D01*
X0099960Y0031936D01*
X0100167Y0031959D01*
X0100375Y0031977D01*
X0100583Y0031990D01*
X0100791Y0031997D01*
X0101000Y0032000D01*
X0101209Y0031997D01*
X0101417Y0031990D01*
X0101625Y0031977D01*
X0101833Y0031959D01*
X0102040Y0031936D01*
X0102247Y0031908D01*
X0102453Y0031875D01*
X0102658Y0031837D01*
X0102862Y0031793D01*
X0103065Y0031745D01*
X0103267Y0031692D01*
X0103467Y0031634D01*
X0103666Y0031571D01*
X0103864Y0031503D01*
X0104059Y0031430D01*
X0104253Y0031353D01*
X0104445Y0031271D01*
X0104634Y0031184D01*
X0104822Y0031092D01*
X0105007Y0030996D01*
X0105190Y0030896D01*
X0105370Y0030791D01*
X0105547Y0030681D01*
X0105722Y0030567D01*
X0105894Y0030449D01*
X0106063Y0030327D01*
X0106229Y0030201D01*
X0106392Y0030071D01*
X0106552Y0029936D01*
X0106708Y0029798D01*
X0106861Y0029656D01*
X0107010Y0029510D01*
X0107156Y0029361D01*
X0107298Y0029208D01*
X0107436Y0029052D01*
X0107571Y0028892D01*
X0107701Y0028729D01*
X0107827Y0028563D01*
X0107949Y0028394D01*
X0108067Y0028222D01*
X0108181Y0028047D01*
X0108291Y0027870D01*
X0108396Y0027690D01*
X0108496Y0027507D01*
X0108592Y0027322D01*
X0108684Y0027134D01*
X0108771Y0026945D01*
X0108853Y0026753D01*
X0108930Y0026559D01*
X0109003Y0026364D01*
X0109071Y0026166D01*
X0109134Y0025967D01*
X0109192Y0025767D01*
X0109245Y0025565D01*
X0109293Y0025362D01*
X0109337Y0025158D01*
X0109375Y0024953D01*
X0109408Y0024747D01*
X0109436Y0024540D01*
X0109459Y0024333D01*
X0109477Y0024125D01*
X0109490Y0023917D01*
X0109497Y0023709D01*
X0109500Y0023500D01*
X0109497Y0023291D01*
X0109490Y0023083D01*
X0109477Y0022875D01*
X0109459Y0022667D01*
X0109436Y0022460D01*
X0109408Y0022253D01*
X0109375Y0022047D01*
X0109337Y0021842D01*
X0109293Y0021638D01*
X0109245Y0021435D01*
X0109192Y0021233D01*
X0109134Y0021033D01*
X0109071Y0020834D01*
X0109003Y0020636D01*
X0108930Y0020441D01*
X0108853Y0020247D01*
X0108771Y0020055D01*
X0108684Y0019866D01*
X0108592Y0019678D01*
X0108496Y0019493D01*
X0108396Y0019310D01*
X0108291Y0019130D01*
X0108181Y0018953D01*
X0108067Y0018778D01*
X0107949Y0018606D01*
X0107827Y0018437D01*
X0107701Y0018271D01*
X0107571Y0018108D01*
X0107436Y0017948D01*
X0107298Y0017792D01*
X0107156Y0017639D01*
X0107010Y0017490D01*
X0106861Y0017344D01*
X0106708Y0017202D01*
X0106552Y0017064D01*
X0106392Y0016929D01*
X0106229Y0016799D01*
X0106063Y0016673D01*
X0105894Y0016551D01*
X0105722Y0016433D01*
X0105547Y0016319D01*
X0105370Y0016209D01*
X0105190Y0016104D01*
X0105007Y0016004D01*
X0104822Y0015908D01*
X0104634Y0015816D01*
X0104445Y0015729D01*
X0104253Y0015647D01*
X0104059Y0015570D01*
X0103864Y0015497D01*
X0103666Y0015429D01*
X0103467Y0015366D01*
X0103267Y0015308D01*
X0103065Y0015255D01*
X0102862Y0015207D01*
X0102658Y0015163D01*
X0102453Y0015125D01*
X0102247Y0015092D01*
X0102040Y0015064D01*
X0101833Y0015041D01*
X0101625Y0015023D01*
X0101417Y0015010D01*
X0101209Y0015003D01*
X0101000Y0015000D01*
X0100791Y0015003D01*
X0100583Y0015010D01*
X0100375Y0015023D01*
X0100167Y0015041D01*
X0099960Y0015064D01*
X0099753Y0015092D01*
X0099547Y0015125D01*
X0099342Y0015163D01*
X0099138Y0015207D01*
X0098935Y0015255D01*
X0098733Y0015308D01*
X0098533Y0015366D01*
X0098334Y0015429D01*
X0098136Y0015497D01*
X0097941Y0015570D01*
X0097747Y0015647D01*
X0097555Y0015729D01*
X0097366Y0015816D01*
X0097178Y0015908D01*
X0096993Y0016004D01*
X0096810Y0016104D01*
X0096630Y0016209D01*
X0096453Y0016319D01*
X0096278Y0016433D01*
X0096106Y0016551D01*
X0095937Y0016673D01*
X0095771Y0016799D01*
X0095608Y0016929D01*
X0095448Y0017064D01*
X0095292Y0017202D01*
X0095139Y0017344D01*
X0094990Y0017490D01*
X0094844Y0017639D01*
X0094702Y0017792D01*
X0094564Y0017948D01*
X0094429Y0018108D01*
X0094299Y0018271D01*
X0094173Y0018437D01*
X0094051Y0018606D01*
X0093933Y0018778D01*
X0093819Y0018953D01*
X0093709Y0019130D01*
X0093604Y0019310D01*
X0093504Y0019493D01*
X0093408Y0019678D01*
X0093316Y0019866D01*
X0093229Y0020055D01*
X0093147Y0020247D01*
X0093070Y0020441D01*
X0092997Y0020636D01*
X0092929Y0020834D01*
X0092866Y0021033D01*
X0092808Y0021233D01*
X0092755Y0021435D01*
X0092707Y0021638D01*
X0092663Y0021842D01*
X0092625Y0022047D01*
X0092592Y0022253D01*
X0092564Y0022460D01*
X0092541Y0022667D01*
X0092523Y0022875D01*
X0092510Y0023083D01*
X0092503Y0023291D01*
X0092500Y0023500D01*
X0285000Y0023500D02*
X0285003Y0023709D01*
X0285010Y0023917D01*
X0285023Y0024125D01*
X0285041Y0024333D01*
X0285064Y0024540D01*
X0285092Y0024747D01*
X0285125Y0024953D01*
X0285163Y0025158D01*
X0285207Y0025362D01*
X0285255Y0025565D01*
X0285308Y0025767D01*
X0285366Y0025967D01*
X0285429Y0026166D01*
X0285497Y0026364D01*
X0285570Y0026559D01*
X0285647Y0026753D01*
X0285729Y0026945D01*
X0285816Y0027134D01*
X0285908Y0027322D01*
X0286004Y0027507D01*
X0286104Y0027690D01*
X0286209Y0027870D01*
X0286319Y0028047D01*
X0286433Y0028222D01*
X0286551Y0028394D01*
X0286673Y0028563D01*
X0286799Y0028729D01*
X0286929Y0028892D01*
X0287064Y0029052D01*
X0287202Y0029208D01*
X0287344Y0029361D01*
X0287490Y0029510D01*
X0287639Y0029656D01*
X0287792Y0029798D01*
X0287948Y0029936D01*
X0288108Y0030071D01*
X0288271Y0030201D01*
X0288437Y0030327D01*
X0288606Y0030449D01*
X0288778Y0030567D01*
X0288953Y0030681D01*
X0289130Y0030791D01*
X0289310Y0030896D01*
X0289493Y0030996D01*
X0289678Y0031092D01*
X0289866Y0031184D01*
X0290055Y0031271D01*
X0290247Y0031353D01*
X0290441Y0031430D01*
X0290636Y0031503D01*
X0290834Y0031571D01*
X0291033Y0031634D01*
X0291233Y0031692D01*
X0291435Y0031745D01*
X0291638Y0031793D01*
X0291842Y0031837D01*
X0292047Y0031875D01*
X0292253Y0031908D01*
X0292460Y0031936D01*
X0292667Y0031959D01*
X0292875Y0031977D01*
X0293083Y0031990D01*
X0293291Y0031997D01*
X0293500Y0032000D01*
X0293709Y0031997D01*
X0293917Y0031990D01*
X0294125Y0031977D01*
X0294333Y0031959D01*
X0294540Y0031936D01*
X0294747Y0031908D01*
X0294953Y0031875D01*
X0295158Y0031837D01*
X0295362Y0031793D01*
X0295565Y0031745D01*
X0295767Y0031692D01*
X0295967Y0031634D01*
X0296166Y0031571D01*
X0296364Y0031503D01*
X0296559Y0031430D01*
X0296753Y0031353D01*
X0296945Y0031271D01*
X0297134Y0031184D01*
X0297322Y0031092D01*
X0297507Y0030996D01*
X0297690Y0030896D01*
X0297870Y0030791D01*
X0298047Y0030681D01*
X0298222Y0030567D01*
X0298394Y0030449D01*
X0298563Y0030327D01*
X0298729Y0030201D01*
X0298892Y0030071D01*
X0299052Y0029936D01*
X0299208Y0029798D01*
X0299361Y0029656D01*
X0299510Y0029510D01*
X0299656Y0029361D01*
X0299798Y0029208D01*
X0299936Y0029052D01*
X0300071Y0028892D01*
X0300201Y0028729D01*
X0300327Y0028563D01*
X0300449Y0028394D01*
X0300567Y0028222D01*
X0300681Y0028047D01*
X0300791Y0027870D01*
X0300896Y0027690D01*
X0300996Y0027507D01*
X0301092Y0027322D01*
X0301184Y0027134D01*
X0301271Y0026945D01*
X0301353Y0026753D01*
X0301430Y0026559D01*
X0301503Y0026364D01*
X0301571Y0026166D01*
X0301634Y0025967D01*
X0301692Y0025767D01*
X0301745Y0025565D01*
X0301793Y0025362D01*
X0301837Y0025158D01*
X0301875Y0024953D01*
X0301908Y0024747D01*
X0301936Y0024540D01*
X0301959Y0024333D01*
X0301977Y0024125D01*
X0301990Y0023917D01*
X0301997Y0023709D01*
X0302000Y0023500D01*
X0301997Y0023291D01*
X0301990Y0023083D01*
X0301977Y0022875D01*
X0301959Y0022667D01*
X0301936Y0022460D01*
X0301908Y0022253D01*
X0301875Y0022047D01*
X0301837Y0021842D01*
X0301793Y0021638D01*
X0301745Y0021435D01*
X0301692Y0021233D01*
X0301634Y0021033D01*
X0301571Y0020834D01*
X0301503Y0020636D01*
X0301430Y0020441D01*
X0301353Y0020247D01*
X0301271Y0020055D01*
X0301184Y0019866D01*
X0301092Y0019678D01*
X0300996Y0019493D01*
X0300896Y0019310D01*
X0300791Y0019130D01*
X0300681Y0018953D01*
X0300567Y0018778D01*
X0300449Y0018606D01*
X0300327Y0018437D01*
X0300201Y0018271D01*
X0300071Y0018108D01*
X0299936Y0017948D01*
X0299798Y0017792D01*
X0299656Y0017639D01*
X0299510Y0017490D01*
X0299361Y0017344D01*
X0299208Y0017202D01*
X0299052Y0017064D01*
X0298892Y0016929D01*
X0298729Y0016799D01*
X0298563Y0016673D01*
X0298394Y0016551D01*
X0298222Y0016433D01*
X0298047Y0016319D01*
X0297870Y0016209D01*
X0297690Y0016104D01*
X0297507Y0016004D01*
X0297322Y0015908D01*
X0297134Y0015816D01*
X0296945Y0015729D01*
X0296753Y0015647D01*
X0296559Y0015570D01*
X0296364Y0015497D01*
X0296166Y0015429D01*
X0295967Y0015366D01*
X0295767Y0015308D01*
X0295565Y0015255D01*
X0295362Y0015207D01*
X0295158Y0015163D01*
X0294953Y0015125D01*
X0294747Y0015092D01*
X0294540Y0015064D01*
X0294333Y0015041D01*
X0294125Y0015023D01*
X0293917Y0015010D01*
X0293709Y0015003D01*
X0293500Y0015000D01*
X0293291Y0015003D01*
X0293083Y0015010D01*
X0292875Y0015023D01*
X0292667Y0015041D01*
X0292460Y0015064D01*
X0292253Y0015092D01*
X0292047Y0015125D01*
X0291842Y0015163D01*
X0291638Y0015207D01*
X0291435Y0015255D01*
X0291233Y0015308D01*
X0291033Y0015366D01*
X0290834Y0015429D01*
X0290636Y0015497D01*
X0290441Y0015570D01*
X0290247Y0015647D01*
X0290055Y0015729D01*
X0289866Y0015816D01*
X0289678Y0015908D01*
X0289493Y0016004D01*
X0289310Y0016104D01*
X0289130Y0016209D01*
X0288953Y0016319D01*
X0288778Y0016433D01*
X0288606Y0016551D01*
X0288437Y0016673D01*
X0288271Y0016799D01*
X0288108Y0016929D01*
X0287948Y0017064D01*
X0287792Y0017202D01*
X0287639Y0017344D01*
X0287490Y0017490D01*
X0287344Y0017639D01*
X0287202Y0017792D01*
X0287064Y0017948D01*
X0286929Y0018108D01*
X0286799Y0018271D01*
X0286673Y0018437D01*
X0286551Y0018606D01*
X0286433Y0018778D01*
X0286319Y0018953D01*
X0286209Y0019130D01*
X0286104Y0019310D01*
X0286004Y0019493D01*
X0285908Y0019678D01*
X0285816Y0019866D01*
X0285729Y0020055D01*
X0285647Y0020247D01*
X0285570Y0020441D01*
X0285497Y0020636D01*
X0285429Y0020834D01*
X0285366Y0021033D01*
X0285308Y0021233D01*
X0285255Y0021435D01*
X0285207Y0021638D01*
X0285163Y0021842D01*
X0285125Y0022047D01*
X0285092Y0022253D01*
X0285064Y0022460D01*
X0285041Y0022667D01*
X0285023Y0022875D01*
X0285010Y0023083D01*
X0285003Y0023291D01*
X0285000Y0023500D01*
X0363800Y0031000D02*
X0363802Y0031177D01*
X0363809Y0031353D01*
X0363820Y0031530D01*
X0363835Y0031706D01*
X0363854Y0031881D01*
X0363878Y0032056D01*
X0363906Y0032231D01*
X0363938Y0032405D01*
X0363975Y0032578D01*
X0364016Y0032749D01*
X0364061Y0032920D01*
X0364110Y0033090D01*
X0364163Y0033259D01*
X0364221Y0033426D01*
X0364282Y0033591D01*
X0364348Y0033755D01*
X0364418Y0033918D01*
X0364491Y0034078D01*
X0364569Y0034237D01*
X0364650Y0034394D01*
X0364735Y0034549D01*
X0364824Y0034702D01*
X0364917Y0034852D01*
X0365013Y0035000D01*
X0365113Y0035146D01*
X0365217Y0035289D01*
X0365324Y0035430D01*
X0365434Y0035568D01*
X0365548Y0035703D01*
X0365665Y0035835D01*
X0365785Y0035965D01*
X0365909Y0036091D01*
X0366035Y0036215D01*
X0366165Y0036335D01*
X0366297Y0036452D01*
X0366432Y0036566D01*
X0366570Y0036676D01*
X0366711Y0036783D01*
X0366854Y0036887D01*
X0367000Y0036987D01*
X0367148Y0037083D01*
X0367298Y0037176D01*
X0367451Y0037265D01*
X0367606Y0037350D01*
X0367763Y0037431D01*
X0367922Y0037509D01*
X0368082Y0037582D01*
X0368245Y0037652D01*
X0368409Y0037718D01*
X0368574Y0037779D01*
X0368741Y0037837D01*
X0368910Y0037890D01*
X0369080Y0037939D01*
X0369251Y0037984D01*
X0369422Y0038025D01*
X0369595Y0038062D01*
X0369769Y0038094D01*
X0369944Y0038122D01*
X0370119Y0038146D01*
X0370294Y0038165D01*
X0370470Y0038180D01*
X0370647Y0038191D01*
X0370823Y0038198D01*
X0371000Y0038200D01*
X0371177Y0038198D01*
X0371353Y0038191D01*
X0371530Y0038180D01*
X0371706Y0038165D01*
X0371881Y0038146D01*
X0372056Y0038122D01*
X0372231Y0038094D01*
X0372405Y0038062D01*
X0372578Y0038025D01*
X0372749Y0037984D01*
X0372920Y0037939D01*
X0373090Y0037890D01*
X0373259Y0037837D01*
X0373426Y0037779D01*
X0373591Y0037718D01*
X0373755Y0037652D01*
X0373918Y0037582D01*
X0374078Y0037509D01*
X0374237Y0037431D01*
X0374394Y0037350D01*
X0374549Y0037265D01*
X0374702Y0037176D01*
X0374852Y0037083D01*
X0375000Y0036987D01*
X0375146Y0036887D01*
X0375289Y0036783D01*
X0375430Y0036676D01*
X0375568Y0036566D01*
X0375703Y0036452D01*
X0375835Y0036335D01*
X0375965Y0036215D01*
X0376091Y0036091D01*
X0376215Y0035965D01*
X0376335Y0035835D01*
X0376452Y0035703D01*
X0376566Y0035568D01*
X0376676Y0035430D01*
X0376783Y0035289D01*
X0376887Y0035146D01*
X0376987Y0035000D01*
X0377083Y0034852D01*
X0377176Y0034702D01*
X0377265Y0034549D01*
X0377350Y0034394D01*
X0377431Y0034237D01*
X0377509Y0034078D01*
X0377582Y0033918D01*
X0377652Y0033755D01*
X0377718Y0033591D01*
X0377779Y0033426D01*
X0377837Y0033259D01*
X0377890Y0033090D01*
X0377939Y0032920D01*
X0377984Y0032749D01*
X0378025Y0032578D01*
X0378062Y0032405D01*
X0378094Y0032231D01*
X0378122Y0032056D01*
X0378146Y0031881D01*
X0378165Y0031706D01*
X0378180Y0031530D01*
X0378191Y0031353D01*
X0378198Y0031177D01*
X0378200Y0031000D01*
X0378198Y0030823D01*
X0378191Y0030647D01*
X0378180Y0030470D01*
X0378165Y0030294D01*
X0378146Y0030119D01*
X0378122Y0029944D01*
X0378094Y0029769D01*
X0378062Y0029595D01*
X0378025Y0029422D01*
X0377984Y0029251D01*
X0377939Y0029080D01*
X0377890Y0028910D01*
X0377837Y0028741D01*
X0377779Y0028574D01*
X0377718Y0028409D01*
X0377652Y0028245D01*
X0377582Y0028082D01*
X0377509Y0027922D01*
X0377431Y0027763D01*
X0377350Y0027606D01*
X0377265Y0027451D01*
X0377176Y0027298D01*
X0377083Y0027148D01*
X0376987Y0027000D01*
X0376887Y0026854D01*
X0376783Y0026711D01*
X0376676Y0026570D01*
X0376566Y0026432D01*
X0376452Y0026297D01*
X0376335Y0026165D01*
X0376215Y0026035D01*
X0376091Y0025909D01*
X0375965Y0025785D01*
X0375835Y0025665D01*
X0375703Y0025548D01*
X0375568Y0025434D01*
X0375430Y0025324D01*
X0375289Y0025217D01*
X0375146Y0025113D01*
X0375000Y0025013D01*
X0374852Y0024917D01*
X0374702Y0024824D01*
X0374549Y0024735D01*
X0374394Y0024650D01*
X0374237Y0024569D01*
X0374078Y0024491D01*
X0373918Y0024418D01*
X0373755Y0024348D01*
X0373591Y0024282D01*
X0373426Y0024221D01*
X0373259Y0024163D01*
X0373090Y0024110D01*
X0372920Y0024061D01*
X0372749Y0024016D01*
X0372578Y0023975D01*
X0372405Y0023938D01*
X0372231Y0023906D01*
X0372056Y0023878D01*
X0371881Y0023854D01*
X0371706Y0023835D01*
X0371530Y0023820D01*
X0371353Y0023809D01*
X0371177Y0023802D01*
X0371000Y0023800D01*
X0370823Y0023802D01*
X0370647Y0023809D01*
X0370470Y0023820D01*
X0370294Y0023835D01*
X0370119Y0023854D01*
X0369944Y0023878D01*
X0369769Y0023906D01*
X0369595Y0023938D01*
X0369422Y0023975D01*
X0369251Y0024016D01*
X0369080Y0024061D01*
X0368910Y0024110D01*
X0368741Y0024163D01*
X0368574Y0024221D01*
X0368409Y0024282D01*
X0368245Y0024348D01*
X0368082Y0024418D01*
X0367922Y0024491D01*
X0367763Y0024569D01*
X0367606Y0024650D01*
X0367451Y0024735D01*
X0367298Y0024824D01*
X0367148Y0024917D01*
X0367000Y0025013D01*
X0366854Y0025113D01*
X0366711Y0025217D01*
X0366570Y0025324D01*
X0366432Y0025434D01*
X0366297Y0025548D01*
X0366165Y0025665D01*
X0366035Y0025785D01*
X0365909Y0025909D01*
X0365785Y0026035D01*
X0365665Y0026165D01*
X0365548Y0026297D01*
X0365434Y0026432D01*
X0365324Y0026570D01*
X0365217Y0026711D01*
X0365113Y0026854D01*
X0365013Y0027000D01*
X0364917Y0027148D01*
X0364824Y0027298D01*
X0364735Y0027451D01*
X0364650Y0027606D01*
X0364569Y0027763D01*
X0364491Y0027922D01*
X0364418Y0028082D01*
X0364348Y0028245D01*
X0364282Y0028409D01*
X0364221Y0028574D01*
X0364163Y0028741D01*
X0364110Y0028910D01*
X0364061Y0029080D01*
X0364016Y0029251D01*
X0363975Y0029422D01*
X0363938Y0029595D01*
X0363906Y0029769D01*
X0363878Y0029944D01*
X0363854Y0030119D01*
X0363835Y0030294D01*
X0363820Y0030470D01*
X0363809Y0030647D01*
X0363802Y0030823D01*
X0363800Y0031000D01*
X0376393Y0166669D02*
X0376395Y0166822D01*
X0376401Y0166976D01*
X0376411Y0167129D01*
X0376425Y0167281D01*
X0376443Y0167434D01*
X0376465Y0167585D01*
X0376490Y0167736D01*
X0376520Y0167887D01*
X0376554Y0168037D01*
X0376591Y0168185D01*
X0376632Y0168333D01*
X0376677Y0168479D01*
X0376726Y0168625D01*
X0376779Y0168769D01*
X0376835Y0168911D01*
X0376895Y0169052D01*
X0376959Y0169192D01*
X0377026Y0169330D01*
X0377097Y0169466D01*
X0377172Y0169600D01*
X0377249Y0169732D01*
X0377331Y0169862D01*
X0377415Y0169990D01*
X0377503Y0170116D01*
X0377594Y0170239D01*
X0377688Y0170360D01*
X0377786Y0170478D01*
X0377886Y0170594D01*
X0377990Y0170707D01*
X0378096Y0170818D01*
X0378205Y0170926D01*
X0378317Y0171031D01*
X0378431Y0171132D01*
X0378549Y0171231D01*
X0378668Y0171327D01*
X0378790Y0171420D01*
X0378915Y0171509D01*
X0379042Y0171596D01*
X0379171Y0171678D01*
X0379302Y0171758D01*
X0379435Y0171834D01*
X0379570Y0171907D01*
X0379707Y0171976D01*
X0379846Y0172041D01*
X0379986Y0172103D01*
X0380128Y0172161D01*
X0380271Y0172216D01*
X0380416Y0172267D01*
X0380562Y0172314D01*
X0380709Y0172357D01*
X0380857Y0172396D01*
X0381006Y0172432D01*
X0381156Y0172463D01*
X0381307Y0172491D01*
X0381458Y0172515D01*
X0381611Y0172535D01*
X0381763Y0172551D01*
X0381916Y0172563D01*
X0382069Y0172571D01*
X0382222Y0172575D01*
X0382376Y0172575D01*
X0382529Y0172571D01*
X0382682Y0172563D01*
X0382835Y0172551D01*
X0382987Y0172535D01*
X0383140Y0172515D01*
X0383291Y0172491D01*
X0383442Y0172463D01*
X0383592Y0172432D01*
X0383741Y0172396D01*
X0383889Y0172357D01*
X0384036Y0172314D01*
X0384182Y0172267D01*
X0384327Y0172216D01*
X0384470Y0172161D01*
X0384612Y0172103D01*
X0384752Y0172041D01*
X0384891Y0171976D01*
X0385028Y0171907D01*
X0385163Y0171834D01*
X0385296Y0171758D01*
X0385427Y0171678D01*
X0385556Y0171596D01*
X0385683Y0171509D01*
X0385808Y0171420D01*
X0385930Y0171327D01*
X0386049Y0171231D01*
X0386167Y0171132D01*
X0386281Y0171031D01*
X0386393Y0170926D01*
X0386502Y0170818D01*
X0386608Y0170707D01*
X0386712Y0170594D01*
X0386812Y0170478D01*
X0386910Y0170360D01*
X0387004Y0170239D01*
X0387095Y0170116D01*
X0387183Y0169990D01*
X0387267Y0169862D01*
X0387349Y0169732D01*
X0387426Y0169600D01*
X0387501Y0169466D01*
X0387572Y0169330D01*
X0387639Y0169192D01*
X0387703Y0169052D01*
X0387763Y0168911D01*
X0387819Y0168769D01*
X0387872Y0168625D01*
X0387921Y0168479D01*
X0387966Y0168333D01*
X0388007Y0168185D01*
X0388044Y0168037D01*
X0388078Y0167887D01*
X0388108Y0167736D01*
X0388133Y0167585D01*
X0388155Y0167434D01*
X0388173Y0167281D01*
X0388187Y0167129D01*
X0388197Y0166976D01*
X0388203Y0166822D01*
X0388205Y0166669D01*
X0388203Y0166516D01*
X0388197Y0166362D01*
X0388187Y0166209D01*
X0388173Y0166057D01*
X0388155Y0165904D01*
X0388133Y0165753D01*
X0388108Y0165602D01*
X0388078Y0165451D01*
X0388044Y0165301D01*
X0388007Y0165153D01*
X0387966Y0165005D01*
X0387921Y0164859D01*
X0387872Y0164713D01*
X0387819Y0164569D01*
X0387763Y0164427D01*
X0387703Y0164286D01*
X0387639Y0164146D01*
X0387572Y0164008D01*
X0387501Y0163872D01*
X0387426Y0163738D01*
X0387349Y0163606D01*
X0387267Y0163476D01*
X0387183Y0163348D01*
X0387095Y0163222D01*
X0387004Y0163099D01*
X0386910Y0162978D01*
X0386812Y0162860D01*
X0386712Y0162744D01*
X0386608Y0162631D01*
X0386502Y0162520D01*
X0386393Y0162412D01*
X0386281Y0162307D01*
X0386167Y0162206D01*
X0386049Y0162107D01*
X0385930Y0162011D01*
X0385808Y0161918D01*
X0385683Y0161829D01*
X0385556Y0161742D01*
X0385427Y0161660D01*
X0385296Y0161580D01*
X0385163Y0161504D01*
X0385028Y0161431D01*
X0384891Y0161362D01*
X0384752Y0161297D01*
X0384612Y0161235D01*
X0384470Y0161177D01*
X0384327Y0161122D01*
X0384182Y0161071D01*
X0384036Y0161024D01*
X0383889Y0160981D01*
X0383741Y0160942D01*
X0383592Y0160906D01*
X0383442Y0160875D01*
X0383291Y0160847D01*
X0383140Y0160823D01*
X0382987Y0160803D01*
X0382835Y0160787D01*
X0382682Y0160775D01*
X0382529Y0160767D01*
X0382376Y0160763D01*
X0382222Y0160763D01*
X0382069Y0160767D01*
X0381916Y0160775D01*
X0381763Y0160787D01*
X0381611Y0160803D01*
X0381458Y0160823D01*
X0381307Y0160847D01*
X0381156Y0160875D01*
X0381006Y0160906D01*
X0380857Y0160942D01*
X0380709Y0160981D01*
X0380562Y0161024D01*
X0380416Y0161071D01*
X0380271Y0161122D01*
X0380128Y0161177D01*
X0379986Y0161235D01*
X0379846Y0161297D01*
X0379707Y0161362D01*
X0379570Y0161431D01*
X0379435Y0161504D01*
X0379302Y0161580D01*
X0379171Y0161660D01*
X0379042Y0161742D01*
X0378915Y0161829D01*
X0378790Y0161918D01*
X0378668Y0162011D01*
X0378549Y0162107D01*
X0378431Y0162206D01*
X0378317Y0162307D01*
X0378205Y0162412D01*
X0378096Y0162520D01*
X0377990Y0162631D01*
X0377886Y0162744D01*
X0377786Y0162860D01*
X0377688Y0162978D01*
X0377594Y0163099D01*
X0377503Y0163222D01*
X0377415Y0163348D01*
X0377331Y0163476D01*
X0377249Y0163606D01*
X0377172Y0163738D01*
X0377097Y0163872D01*
X0377026Y0164008D01*
X0376959Y0164146D01*
X0376895Y0164286D01*
X0376835Y0164427D01*
X0376779Y0164569D01*
X0376726Y0164713D01*
X0376677Y0164859D01*
X0376632Y0165005D01*
X0376591Y0165153D01*
X0376554Y0165301D01*
X0376520Y0165451D01*
X0376490Y0165602D01*
X0376465Y0165753D01*
X0376443Y0165904D01*
X0376425Y0166057D01*
X0376411Y0166209D01*
X0376401Y0166362D01*
X0376395Y0166516D01*
X0376393Y0166669D01*
X0376393Y0215331D02*
X0376395Y0215484D01*
X0376401Y0215638D01*
X0376411Y0215791D01*
X0376425Y0215943D01*
X0376443Y0216096D01*
X0376465Y0216247D01*
X0376490Y0216398D01*
X0376520Y0216549D01*
X0376554Y0216699D01*
X0376591Y0216847D01*
X0376632Y0216995D01*
X0376677Y0217141D01*
X0376726Y0217287D01*
X0376779Y0217431D01*
X0376835Y0217573D01*
X0376895Y0217714D01*
X0376959Y0217854D01*
X0377026Y0217992D01*
X0377097Y0218128D01*
X0377172Y0218262D01*
X0377249Y0218394D01*
X0377331Y0218524D01*
X0377415Y0218652D01*
X0377503Y0218778D01*
X0377594Y0218901D01*
X0377688Y0219022D01*
X0377786Y0219140D01*
X0377886Y0219256D01*
X0377990Y0219369D01*
X0378096Y0219480D01*
X0378205Y0219588D01*
X0378317Y0219693D01*
X0378431Y0219794D01*
X0378549Y0219893D01*
X0378668Y0219989D01*
X0378790Y0220082D01*
X0378915Y0220171D01*
X0379042Y0220258D01*
X0379171Y0220340D01*
X0379302Y0220420D01*
X0379435Y0220496D01*
X0379570Y0220569D01*
X0379707Y0220638D01*
X0379846Y0220703D01*
X0379986Y0220765D01*
X0380128Y0220823D01*
X0380271Y0220878D01*
X0380416Y0220929D01*
X0380562Y0220976D01*
X0380709Y0221019D01*
X0380857Y0221058D01*
X0381006Y0221094D01*
X0381156Y0221125D01*
X0381307Y0221153D01*
X0381458Y0221177D01*
X0381611Y0221197D01*
X0381763Y0221213D01*
X0381916Y0221225D01*
X0382069Y0221233D01*
X0382222Y0221237D01*
X0382376Y0221237D01*
X0382529Y0221233D01*
X0382682Y0221225D01*
X0382835Y0221213D01*
X0382987Y0221197D01*
X0383140Y0221177D01*
X0383291Y0221153D01*
X0383442Y0221125D01*
X0383592Y0221094D01*
X0383741Y0221058D01*
X0383889Y0221019D01*
X0384036Y0220976D01*
X0384182Y0220929D01*
X0384327Y0220878D01*
X0384470Y0220823D01*
X0384612Y0220765D01*
X0384752Y0220703D01*
X0384891Y0220638D01*
X0385028Y0220569D01*
X0385163Y0220496D01*
X0385296Y0220420D01*
X0385427Y0220340D01*
X0385556Y0220258D01*
X0385683Y0220171D01*
X0385808Y0220082D01*
X0385930Y0219989D01*
X0386049Y0219893D01*
X0386167Y0219794D01*
X0386281Y0219693D01*
X0386393Y0219588D01*
X0386502Y0219480D01*
X0386608Y0219369D01*
X0386712Y0219256D01*
X0386812Y0219140D01*
X0386910Y0219022D01*
X0387004Y0218901D01*
X0387095Y0218778D01*
X0387183Y0218652D01*
X0387267Y0218524D01*
X0387349Y0218394D01*
X0387426Y0218262D01*
X0387501Y0218128D01*
X0387572Y0217992D01*
X0387639Y0217854D01*
X0387703Y0217714D01*
X0387763Y0217573D01*
X0387819Y0217431D01*
X0387872Y0217287D01*
X0387921Y0217141D01*
X0387966Y0216995D01*
X0388007Y0216847D01*
X0388044Y0216699D01*
X0388078Y0216549D01*
X0388108Y0216398D01*
X0388133Y0216247D01*
X0388155Y0216096D01*
X0388173Y0215943D01*
X0388187Y0215791D01*
X0388197Y0215638D01*
X0388203Y0215484D01*
X0388205Y0215331D01*
X0388203Y0215178D01*
X0388197Y0215024D01*
X0388187Y0214871D01*
X0388173Y0214719D01*
X0388155Y0214566D01*
X0388133Y0214415D01*
X0388108Y0214264D01*
X0388078Y0214113D01*
X0388044Y0213963D01*
X0388007Y0213815D01*
X0387966Y0213667D01*
X0387921Y0213521D01*
X0387872Y0213375D01*
X0387819Y0213231D01*
X0387763Y0213089D01*
X0387703Y0212948D01*
X0387639Y0212808D01*
X0387572Y0212670D01*
X0387501Y0212534D01*
X0387426Y0212400D01*
X0387349Y0212268D01*
X0387267Y0212138D01*
X0387183Y0212010D01*
X0387095Y0211884D01*
X0387004Y0211761D01*
X0386910Y0211640D01*
X0386812Y0211522D01*
X0386712Y0211406D01*
X0386608Y0211293D01*
X0386502Y0211182D01*
X0386393Y0211074D01*
X0386281Y0210969D01*
X0386167Y0210868D01*
X0386049Y0210769D01*
X0385930Y0210673D01*
X0385808Y0210580D01*
X0385683Y0210491D01*
X0385556Y0210404D01*
X0385427Y0210322D01*
X0385296Y0210242D01*
X0385163Y0210166D01*
X0385028Y0210093D01*
X0384891Y0210024D01*
X0384752Y0209959D01*
X0384612Y0209897D01*
X0384470Y0209839D01*
X0384327Y0209784D01*
X0384182Y0209733D01*
X0384036Y0209686D01*
X0383889Y0209643D01*
X0383741Y0209604D01*
X0383592Y0209568D01*
X0383442Y0209537D01*
X0383291Y0209509D01*
X0383140Y0209485D01*
X0382987Y0209465D01*
X0382835Y0209449D01*
X0382682Y0209437D01*
X0382529Y0209429D01*
X0382376Y0209425D01*
X0382222Y0209425D01*
X0382069Y0209429D01*
X0381916Y0209437D01*
X0381763Y0209449D01*
X0381611Y0209465D01*
X0381458Y0209485D01*
X0381307Y0209509D01*
X0381156Y0209537D01*
X0381006Y0209568D01*
X0380857Y0209604D01*
X0380709Y0209643D01*
X0380562Y0209686D01*
X0380416Y0209733D01*
X0380271Y0209784D01*
X0380128Y0209839D01*
X0379986Y0209897D01*
X0379846Y0209959D01*
X0379707Y0210024D01*
X0379570Y0210093D01*
X0379435Y0210166D01*
X0379302Y0210242D01*
X0379171Y0210322D01*
X0379042Y0210404D01*
X0378915Y0210491D01*
X0378790Y0210580D01*
X0378668Y0210673D01*
X0378549Y0210769D01*
X0378431Y0210868D01*
X0378317Y0210969D01*
X0378205Y0211074D01*
X0378096Y0211182D01*
X0377990Y0211293D01*
X0377886Y0211406D01*
X0377786Y0211522D01*
X0377688Y0211640D01*
X0377594Y0211761D01*
X0377503Y0211884D01*
X0377415Y0212010D01*
X0377331Y0212138D01*
X0377249Y0212268D01*
X0377172Y0212400D01*
X0377097Y0212534D01*
X0377026Y0212670D01*
X0376959Y0212808D01*
X0376895Y0212948D01*
X0376835Y0213089D01*
X0376779Y0213231D01*
X0376726Y0213375D01*
X0376677Y0213521D01*
X0376632Y0213667D01*
X0376591Y0213815D01*
X0376554Y0213963D01*
X0376520Y0214113D01*
X0376490Y0214264D01*
X0376465Y0214415D01*
X0376443Y0214566D01*
X0376425Y0214719D01*
X0376411Y0214871D01*
X0376401Y0215024D01*
X0376395Y0215178D01*
X0376393Y0215331D01*
X0181295Y0246669D02*
X0181297Y0246822D01*
X0181303Y0246976D01*
X0181313Y0247129D01*
X0181327Y0247281D01*
X0181345Y0247434D01*
X0181367Y0247585D01*
X0181392Y0247736D01*
X0181422Y0247887D01*
X0181456Y0248037D01*
X0181493Y0248185D01*
X0181534Y0248333D01*
X0181579Y0248479D01*
X0181628Y0248625D01*
X0181681Y0248769D01*
X0181737Y0248911D01*
X0181797Y0249052D01*
X0181861Y0249192D01*
X0181928Y0249330D01*
X0181999Y0249466D01*
X0182074Y0249600D01*
X0182151Y0249732D01*
X0182233Y0249862D01*
X0182317Y0249990D01*
X0182405Y0250116D01*
X0182496Y0250239D01*
X0182590Y0250360D01*
X0182688Y0250478D01*
X0182788Y0250594D01*
X0182892Y0250707D01*
X0182998Y0250818D01*
X0183107Y0250926D01*
X0183219Y0251031D01*
X0183333Y0251132D01*
X0183451Y0251231D01*
X0183570Y0251327D01*
X0183692Y0251420D01*
X0183817Y0251509D01*
X0183944Y0251596D01*
X0184073Y0251678D01*
X0184204Y0251758D01*
X0184337Y0251834D01*
X0184472Y0251907D01*
X0184609Y0251976D01*
X0184748Y0252041D01*
X0184888Y0252103D01*
X0185030Y0252161D01*
X0185173Y0252216D01*
X0185318Y0252267D01*
X0185464Y0252314D01*
X0185611Y0252357D01*
X0185759Y0252396D01*
X0185908Y0252432D01*
X0186058Y0252463D01*
X0186209Y0252491D01*
X0186360Y0252515D01*
X0186513Y0252535D01*
X0186665Y0252551D01*
X0186818Y0252563D01*
X0186971Y0252571D01*
X0187124Y0252575D01*
X0187278Y0252575D01*
X0187431Y0252571D01*
X0187584Y0252563D01*
X0187737Y0252551D01*
X0187889Y0252535D01*
X0188042Y0252515D01*
X0188193Y0252491D01*
X0188344Y0252463D01*
X0188494Y0252432D01*
X0188643Y0252396D01*
X0188791Y0252357D01*
X0188938Y0252314D01*
X0189084Y0252267D01*
X0189229Y0252216D01*
X0189372Y0252161D01*
X0189514Y0252103D01*
X0189654Y0252041D01*
X0189793Y0251976D01*
X0189930Y0251907D01*
X0190065Y0251834D01*
X0190198Y0251758D01*
X0190329Y0251678D01*
X0190458Y0251596D01*
X0190585Y0251509D01*
X0190710Y0251420D01*
X0190832Y0251327D01*
X0190951Y0251231D01*
X0191069Y0251132D01*
X0191183Y0251031D01*
X0191295Y0250926D01*
X0191404Y0250818D01*
X0191510Y0250707D01*
X0191614Y0250594D01*
X0191714Y0250478D01*
X0191812Y0250360D01*
X0191906Y0250239D01*
X0191997Y0250116D01*
X0192085Y0249990D01*
X0192169Y0249862D01*
X0192251Y0249732D01*
X0192328Y0249600D01*
X0192403Y0249466D01*
X0192474Y0249330D01*
X0192541Y0249192D01*
X0192605Y0249052D01*
X0192665Y0248911D01*
X0192721Y0248769D01*
X0192774Y0248625D01*
X0192823Y0248479D01*
X0192868Y0248333D01*
X0192909Y0248185D01*
X0192946Y0248037D01*
X0192980Y0247887D01*
X0193010Y0247736D01*
X0193035Y0247585D01*
X0193057Y0247434D01*
X0193075Y0247281D01*
X0193089Y0247129D01*
X0193099Y0246976D01*
X0193105Y0246822D01*
X0193107Y0246669D01*
X0193105Y0246516D01*
X0193099Y0246362D01*
X0193089Y0246209D01*
X0193075Y0246057D01*
X0193057Y0245904D01*
X0193035Y0245753D01*
X0193010Y0245602D01*
X0192980Y0245451D01*
X0192946Y0245301D01*
X0192909Y0245153D01*
X0192868Y0245005D01*
X0192823Y0244859D01*
X0192774Y0244713D01*
X0192721Y0244569D01*
X0192665Y0244427D01*
X0192605Y0244286D01*
X0192541Y0244146D01*
X0192474Y0244008D01*
X0192403Y0243872D01*
X0192328Y0243738D01*
X0192251Y0243606D01*
X0192169Y0243476D01*
X0192085Y0243348D01*
X0191997Y0243222D01*
X0191906Y0243099D01*
X0191812Y0242978D01*
X0191714Y0242860D01*
X0191614Y0242744D01*
X0191510Y0242631D01*
X0191404Y0242520D01*
X0191295Y0242412D01*
X0191183Y0242307D01*
X0191069Y0242206D01*
X0190951Y0242107D01*
X0190832Y0242011D01*
X0190710Y0241918D01*
X0190585Y0241829D01*
X0190458Y0241742D01*
X0190329Y0241660D01*
X0190198Y0241580D01*
X0190065Y0241504D01*
X0189930Y0241431D01*
X0189793Y0241362D01*
X0189654Y0241297D01*
X0189514Y0241235D01*
X0189372Y0241177D01*
X0189229Y0241122D01*
X0189084Y0241071D01*
X0188938Y0241024D01*
X0188791Y0240981D01*
X0188643Y0240942D01*
X0188494Y0240906D01*
X0188344Y0240875D01*
X0188193Y0240847D01*
X0188042Y0240823D01*
X0187889Y0240803D01*
X0187737Y0240787D01*
X0187584Y0240775D01*
X0187431Y0240767D01*
X0187278Y0240763D01*
X0187124Y0240763D01*
X0186971Y0240767D01*
X0186818Y0240775D01*
X0186665Y0240787D01*
X0186513Y0240803D01*
X0186360Y0240823D01*
X0186209Y0240847D01*
X0186058Y0240875D01*
X0185908Y0240906D01*
X0185759Y0240942D01*
X0185611Y0240981D01*
X0185464Y0241024D01*
X0185318Y0241071D01*
X0185173Y0241122D01*
X0185030Y0241177D01*
X0184888Y0241235D01*
X0184748Y0241297D01*
X0184609Y0241362D01*
X0184472Y0241431D01*
X0184337Y0241504D01*
X0184204Y0241580D01*
X0184073Y0241660D01*
X0183944Y0241742D01*
X0183817Y0241829D01*
X0183692Y0241918D01*
X0183570Y0242011D01*
X0183451Y0242107D01*
X0183333Y0242206D01*
X0183219Y0242307D01*
X0183107Y0242412D01*
X0182998Y0242520D01*
X0182892Y0242631D01*
X0182788Y0242744D01*
X0182688Y0242860D01*
X0182590Y0242978D01*
X0182496Y0243099D01*
X0182405Y0243222D01*
X0182317Y0243348D01*
X0182233Y0243476D01*
X0182151Y0243606D01*
X0182074Y0243738D01*
X0181999Y0243872D01*
X0181928Y0244008D01*
X0181861Y0244146D01*
X0181797Y0244286D01*
X0181737Y0244427D01*
X0181681Y0244569D01*
X0181628Y0244713D01*
X0181579Y0244859D01*
X0181534Y0245005D01*
X0181493Y0245153D01*
X0181456Y0245301D01*
X0181422Y0245451D01*
X0181392Y0245602D01*
X0181367Y0245753D01*
X0181345Y0245904D01*
X0181327Y0246057D01*
X0181313Y0246209D01*
X0181303Y0246362D01*
X0181297Y0246516D01*
X0181295Y0246669D01*
X0181295Y0295331D02*
X0181297Y0295484D01*
X0181303Y0295638D01*
X0181313Y0295791D01*
X0181327Y0295943D01*
X0181345Y0296096D01*
X0181367Y0296247D01*
X0181392Y0296398D01*
X0181422Y0296549D01*
X0181456Y0296699D01*
X0181493Y0296847D01*
X0181534Y0296995D01*
X0181579Y0297141D01*
X0181628Y0297287D01*
X0181681Y0297431D01*
X0181737Y0297573D01*
X0181797Y0297714D01*
X0181861Y0297854D01*
X0181928Y0297992D01*
X0181999Y0298128D01*
X0182074Y0298262D01*
X0182151Y0298394D01*
X0182233Y0298524D01*
X0182317Y0298652D01*
X0182405Y0298778D01*
X0182496Y0298901D01*
X0182590Y0299022D01*
X0182688Y0299140D01*
X0182788Y0299256D01*
X0182892Y0299369D01*
X0182998Y0299480D01*
X0183107Y0299588D01*
X0183219Y0299693D01*
X0183333Y0299794D01*
X0183451Y0299893D01*
X0183570Y0299989D01*
X0183692Y0300082D01*
X0183817Y0300171D01*
X0183944Y0300258D01*
X0184073Y0300340D01*
X0184204Y0300420D01*
X0184337Y0300496D01*
X0184472Y0300569D01*
X0184609Y0300638D01*
X0184748Y0300703D01*
X0184888Y0300765D01*
X0185030Y0300823D01*
X0185173Y0300878D01*
X0185318Y0300929D01*
X0185464Y0300976D01*
X0185611Y0301019D01*
X0185759Y0301058D01*
X0185908Y0301094D01*
X0186058Y0301125D01*
X0186209Y0301153D01*
X0186360Y0301177D01*
X0186513Y0301197D01*
X0186665Y0301213D01*
X0186818Y0301225D01*
X0186971Y0301233D01*
X0187124Y0301237D01*
X0187278Y0301237D01*
X0187431Y0301233D01*
X0187584Y0301225D01*
X0187737Y0301213D01*
X0187889Y0301197D01*
X0188042Y0301177D01*
X0188193Y0301153D01*
X0188344Y0301125D01*
X0188494Y0301094D01*
X0188643Y0301058D01*
X0188791Y0301019D01*
X0188938Y0300976D01*
X0189084Y0300929D01*
X0189229Y0300878D01*
X0189372Y0300823D01*
X0189514Y0300765D01*
X0189654Y0300703D01*
X0189793Y0300638D01*
X0189930Y0300569D01*
X0190065Y0300496D01*
X0190198Y0300420D01*
X0190329Y0300340D01*
X0190458Y0300258D01*
X0190585Y0300171D01*
X0190710Y0300082D01*
X0190832Y0299989D01*
X0190951Y0299893D01*
X0191069Y0299794D01*
X0191183Y0299693D01*
X0191295Y0299588D01*
X0191404Y0299480D01*
X0191510Y0299369D01*
X0191614Y0299256D01*
X0191714Y0299140D01*
X0191812Y0299022D01*
X0191906Y0298901D01*
X0191997Y0298778D01*
X0192085Y0298652D01*
X0192169Y0298524D01*
X0192251Y0298394D01*
X0192328Y0298262D01*
X0192403Y0298128D01*
X0192474Y0297992D01*
X0192541Y0297854D01*
X0192605Y0297714D01*
X0192665Y0297573D01*
X0192721Y0297431D01*
X0192774Y0297287D01*
X0192823Y0297141D01*
X0192868Y0296995D01*
X0192909Y0296847D01*
X0192946Y0296699D01*
X0192980Y0296549D01*
X0193010Y0296398D01*
X0193035Y0296247D01*
X0193057Y0296096D01*
X0193075Y0295943D01*
X0193089Y0295791D01*
X0193099Y0295638D01*
X0193105Y0295484D01*
X0193107Y0295331D01*
X0193105Y0295178D01*
X0193099Y0295024D01*
X0193089Y0294871D01*
X0193075Y0294719D01*
X0193057Y0294566D01*
X0193035Y0294415D01*
X0193010Y0294264D01*
X0192980Y0294113D01*
X0192946Y0293963D01*
X0192909Y0293815D01*
X0192868Y0293667D01*
X0192823Y0293521D01*
X0192774Y0293375D01*
X0192721Y0293231D01*
X0192665Y0293089D01*
X0192605Y0292948D01*
X0192541Y0292808D01*
X0192474Y0292670D01*
X0192403Y0292534D01*
X0192328Y0292400D01*
X0192251Y0292268D01*
X0192169Y0292138D01*
X0192085Y0292010D01*
X0191997Y0291884D01*
X0191906Y0291761D01*
X0191812Y0291640D01*
X0191714Y0291522D01*
X0191614Y0291406D01*
X0191510Y0291293D01*
X0191404Y0291182D01*
X0191295Y0291074D01*
X0191183Y0290969D01*
X0191069Y0290868D01*
X0190951Y0290769D01*
X0190832Y0290673D01*
X0190710Y0290580D01*
X0190585Y0290491D01*
X0190458Y0290404D01*
X0190329Y0290322D01*
X0190198Y0290242D01*
X0190065Y0290166D01*
X0189930Y0290093D01*
X0189793Y0290024D01*
X0189654Y0289959D01*
X0189514Y0289897D01*
X0189372Y0289839D01*
X0189229Y0289784D01*
X0189084Y0289733D01*
X0188938Y0289686D01*
X0188791Y0289643D01*
X0188643Y0289604D01*
X0188494Y0289568D01*
X0188344Y0289537D01*
X0188193Y0289509D01*
X0188042Y0289485D01*
X0187889Y0289465D01*
X0187737Y0289449D01*
X0187584Y0289437D01*
X0187431Y0289429D01*
X0187278Y0289425D01*
X0187124Y0289425D01*
X0186971Y0289429D01*
X0186818Y0289437D01*
X0186665Y0289449D01*
X0186513Y0289465D01*
X0186360Y0289485D01*
X0186209Y0289509D01*
X0186058Y0289537D01*
X0185908Y0289568D01*
X0185759Y0289604D01*
X0185611Y0289643D01*
X0185464Y0289686D01*
X0185318Y0289733D01*
X0185173Y0289784D01*
X0185030Y0289839D01*
X0184888Y0289897D01*
X0184748Y0289959D01*
X0184609Y0290024D01*
X0184472Y0290093D01*
X0184337Y0290166D01*
X0184204Y0290242D01*
X0184073Y0290322D01*
X0183944Y0290404D01*
X0183817Y0290491D01*
X0183692Y0290580D01*
X0183570Y0290673D01*
X0183451Y0290769D01*
X0183333Y0290868D01*
X0183219Y0290969D01*
X0183107Y0291074D01*
X0182998Y0291182D01*
X0182892Y0291293D01*
X0182788Y0291406D01*
X0182688Y0291522D01*
X0182590Y0291640D01*
X0182496Y0291761D01*
X0182405Y0291884D01*
X0182317Y0292010D01*
X0182233Y0292138D01*
X0182151Y0292268D01*
X0182074Y0292400D01*
X0181999Y0292534D01*
X0181928Y0292670D01*
X0181861Y0292808D01*
X0181797Y0292948D01*
X0181737Y0293089D01*
X0181681Y0293231D01*
X0181628Y0293375D01*
X0181579Y0293521D01*
X0181534Y0293667D01*
X0181493Y0293815D01*
X0181456Y0293963D01*
X0181422Y0294113D01*
X0181392Y0294264D01*
X0181367Y0294415D01*
X0181345Y0294566D01*
X0181327Y0294719D01*
X0181313Y0294871D01*
X0181303Y0295024D01*
X0181297Y0295178D01*
X0181295Y0295331D01*
X0092500Y0313500D02*
X0092503Y0313709D01*
X0092510Y0313917D01*
X0092523Y0314125D01*
X0092541Y0314333D01*
X0092564Y0314540D01*
X0092592Y0314747D01*
X0092625Y0314953D01*
X0092663Y0315158D01*
X0092707Y0315362D01*
X0092755Y0315565D01*
X0092808Y0315767D01*
X0092866Y0315967D01*
X0092929Y0316166D01*
X0092997Y0316364D01*
X0093070Y0316559D01*
X0093147Y0316753D01*
X0093229Y0316945D01*
X0093316Y0317134D01*
X0093408Y0317322D01*
X0093504Y0317507D01*
X0093604Y0317690D01*
X0093709Y0317870D01*
X0093819Y0318047D01*
X0093933Y0318222D01*
X0094051Y0318394D01*
X0094173Y0318563D01*
X0094299Y0318729D01*
X0094429Y0318892D01*
X0094564Y0319052D01*
X0094702Y0319208D01*
X0094844Y0319361D01*
X0094990Y0319510D01*
X0095139Y0319656D01*
X0095292Y0319798D01*
X0095448Y0319936D01*
X0095608Y0320071D01*
X0095771Y0320201D01*
X0095937Y0320327D01*
X0096106Y0320449D01*
X0096278Y0320567D01*
X0096453Y0320681D01*
X0096630Y0320791D01*
X0096810Y0320896D01*
X0096993Y0320996D01*
X0097178Y0321092D01*
X0097366Y0321184D01*
X0097555Y0321271D01*
X0097747Y0321353D01*
X0097941Y0321430D01*
X0098136Y0321503D01*
X0098334Y0321571D01*
X0098533Y0321634D01*
X0098733Y0321692D01*
X0098935Y0321745D01*
X0099138Y0321793D01*
X0099342Y0321837D01*
X0099547Y0321875D01*
X0099753Y0321908D01*
X0099960Y0321936D01*
X0100167Y0321959D01*
X0100375Y0321977D01*
X0100583Y0321990D01*
X0100791Y0321997D01*
X0101000Y0322000D01*
X0101209Y0321997D01*
X0101417Y0321990D01*
X0101625Y0321977D01*
X0101833Y0321959D01*
X0102040Y0321936D01*
X0102247Y0321908D01*
X0102453Y0321875D01*
X0102658Y0321837D01*
X0102862Y0321793D01*
X0103065Y0321745D01*
X0103267Y0321692D01*
X0103467Y0321634D01*
X0103666Y0321571D01*
X0103864Y0321503D01*
X0104059Y0321430D01*
X0104253Y0321353D01*
X0104445Y0321271D01*
X0104634Y0321184D01*
X0104822Y0321092D01*
X0105007Y0320996D01*
X0105190Y0320896D01*
X0105370Y0320791D01*
X0105547Y0320681D01*
X0105722Y0320567D01*
X0105894Y0320449D01*
X0106063Y0320327D01*
X0106229Y0320201D01*
X0106392Y0320071D01*
X0106552Y0319936D01*
X0106708Y0319798D01*
X0106861Y0319656D01*
X0107010Y0319510D01*
X0107156Y0319361D01*
X0107298Y0319208D01*
X0107436Y0319052D01*
X0107571Y0318892D01*
X0107701Y0318729D01*
X0107827Y0318563D01*
X0107949Y0318394D01*
X0108067Y0318222D01*
X0108181Y0318047D01*
X0108291Y0317870D01*
X0108396Y0317690D01*
X0108496Y0317507D01*
X0108592Y0317322D01*
X0108684Y0317134D01*
X0108771Y0316945D01*
X0108853Y0316753D01*
X0108930Y0316559D01*
X0109003Y0316364D01*
X0109071Y0316166D01*
X0109134Y0315967D01*
X0109192Y0315767D01*
X0109245Y0315565D01*
X0109293Y0315362D01*
X0109337Y0315158D01*
X0109375Y0314953D01*
X0109408Y0314747D01*
X0109436Y0314540D01*
X0109459Y0314333D01*
X0109477Y0314125D01*
X0109490Y0313917D01*
X0109497Y0313709D01*
X0109500Y0313500D01*
X0109497Y0313291D01*
X0109490Y0313083D01*
X0109477Y0312875D01*
X0109459Y0312667D01*
X0109436Y0312460D01*
X0109408Y0312253D01*
X0109375Y0312047D01*
X0109337Y0311842D01*
X0109293Y0311638D01*
X0109245Y0311435D01*
X0109192Y0311233D01*
X0109134Y0311033D01*
X0109071Y0310834D01*
X0109003Y0310636D01*
X0108930Y0310441D01*
X0108853Y0310247D01*
X0108771Y0310055D01*
X0108684Y0309866D01*
X0108592Y0309678D01*
X0108496Y0309493D01*
X0108396Y0309310D01*
X0108291Y0309130D01*
X0108181Y0308953D01*
X0108067Y0308778D01*
X0107949Y0308606D01*
X0107827Y0308437D01*
X0107701Y0308271D01*
X0107571Y0308108D01*
X0107436Y0307948D01*
X0107298Y0307792D01*
X0107156Y0307639D01*
X0107010Y0307490D01*
X0106861Y0307344D01*
X0106708Y0307202D01*
X0106552Y0307064D01*
X0106392Y0306929D01*
X0106229Y0306799D01*
X0106063Y0306673D01*
X0105894Y0306551D01*
X0105722Y0306433D01*
X0105547Y0306319D01*
X0105370Y0306209D01*
X0105190Y0306104D01*
X0105007Y0306004D01*
X0104822Y0305908D01*
X0104634Y0305816D01*
X0104445Y0305729D01*
X0104253Y0305647D01*
X0104059Y0305570D01*
X0103864Y0305497D01*
X0103666Y0305429D01*
X0103467Y0305366D01*
X0103267Y0305308D01*
X0103065Y0305255D01*
X0102862Y0305207D01*
X0102658Y0305163D01*
X0102453Y0305125D01*
X0102247Y0305092D01*
X0102040Y0305064D01*
X0101833Y0305041D01*
X0101625Y0305023D01*
X0101417Y0305010D01*
X0101209Y0305003D01*
X0101000Y0305000D01*
X0100791Y0305003D01*
X0100583Y0305010D01*
X0100375Y0305023D01*
X0100167Y0305041D01*
X0099960Y0305064D01*
X0099753Y0305092D01*
X0099547Y0305125D01*
X0099342Y0305163D01*
X0099138Y0305207D01*
X0098935Y0305255D01*
X0098733Y0305308D01*
X0098533Y0305366D01*
X0098334Y0305429D01*
X0098136Y0305497D01*
X0097941Y0305570D01*
X0097747Y0305647D01*
X0097555Y0305729D01*
X0097366Y0305816D01*
X0097178Y0305908D01*
X0096993Y0306004D01*
X0096810Y0306104D01*
X0096630Y0306209D01*
X0096453Y0306319D01*
X0096278Y0306433D01*
X0096106Y0306551D01*
X0095937Y0306673D01*
X0095771Y0306799D01*
X0095608Y0306929D01*
X0095448Y0307064D01*
X0095292Y0307202D01*
X0095139Y0307344D01*
X0094990Y0307490D01*
X0094844Y0307639D01*
X0094702Y0307792D01*
X0094564Y0307948D01*
X0094429Y0308108D01*
X0094299Y0308271D01*
X0094173Y0308437D01*
X0094051Y0308606D01*
X0093933Y0308778D01*
X0093819Y0308953D01*
X0093709Y0309130D01*
X0093604Y0309310D01*
X0093504Y0309493D01*
X0093408Y0309678D01*
X0093316Y0309866D01*
X0093229Y0310055D01*
X0093147Y0310247D01*
X0093070Y0310441D01*
X0092997Y0310636D01*
X0092929Y0310834D01*
X0092866Y0311033D01*
X0092808Y0311233D01*
X0092755Y0311435D01*
X0092707Y0311638D01*
X0092663Y0311842D01*
X0092625Y0312047D01*
X0092592Y0312253D01*
X0092564Y0312460D01*
X0092541Y0312667D01*
X0092523Y0312875D01*
X0092510Y0313083D01*
X0092503Y0313291D01*
X0092500Y0313500D01*
X0013800Y0306000D02*
X0013802Y0306177D01*
X0013809Y0306353D01*
X0013820Y0306530D01*
X0013835Y0306706D01*
X0013854Y0306881D01*
X0013878Y0307056D01*
X0013906Y0307231D01*
X0013938Y0307405D01*
X0013975Y0307578D01*
X0014016Y0307749D01*
X0014061Y0307920D01*
X0014110Y0308090D01*
X0014163Y0308259D01*
X0014221Y0308426D01*
X0014282Y0308591D01*
X0014348Y0308755D01*
X0014418Y0308918D01*
X0014491Y0309078D01*
X0014569Y0309237D01*
X0014650Y0309394D01*
X0014735Y0309549D01*
X0014824Y0309702D01*
X0014917Y0309852D01*
X0015013Y0310000D01*
X0015113Y0310146D01*
X0015217Y0310289D01*
X0015324Y0310430D01*
X0015434Y0310568D01*
X0015548Y0310703D01*
X0015665Y0310835D01*
X0015785Y0310965D01*
X0015909Y0311091D01*
X0016035Y0311215D01*
X0016165Y0311335D01*
X0016297Y0311452D01*
X0016432Y0311566D01*
X0016570Y0311676D01*
X0016711Y0311783D01*
X0016854Y0311887D01*
X0017000Y0311987D01*
X0017148Y0312083D01*
X0017298Y0312176D01*
X0017451Y0312265D01*
X0017606Y0312350D01*
X0017763Y0312431D01*
X0017922Y0312509D01*
X0018082Y0312582D01*
X0018245Y0312652D01*
X0018409Y0312718D01*
X0018574Y0312779D01*
X0018741Y0312837D01*
X0018910Y0312890D01*
X0019080Y0312939D01*
X0019251Y0312984D01*
X0019422Y0313025D01*
X0019595Y0313062D01*
X0019769Y0313094D01*
X0019944Y0313122D01*
X0020119Y0313146D01*
X0020294Y0313165D01*
X0020470Y0313180D01*
X0020647Y0313191D01*
X0020823Y0313198D01*
X0021000Y0313200D01*
X0021177Y0313198D01*
X0021353Y0313191D01*
X0021530Y0313180D01*
X0021706Y0313165D01*
X0021881Y0313146D01*
X0022056Y0313122D01*
X0022231Y0313094D01*
X0022405Y0313062D01*
X0022578Y0313025D01*
X0022749Y0312984D01*
X0022920Y0312939D01*
X0023090Y0312890D01*
X0023259Y0312837D01*
X0023426Y0312779D01*
X0023591Y0312718D01*
X0023755Y0312652D01*
X0023918Y0312582D01*
X0024078Y0312509D01*
X0024237Y0312431D01*
X0024394Y0312350D01*
X0024549Y0312265D01*
X0024702Y0312176D01*
X0024852Y0312083D01*
X0025000Y0311987D01*
X0025146Y0311887D01*
X0025289Y0311783D01*
X0025430Y0311676D01*
X0025568Y0311566D01*
X0025703Y0311452D01*
X0025835Y0311335D01*
X0025965Y0311215D01*
X0026091Y0311091D01*
X0026215Y0310965D01*
X0026335Y0310835D01*
X0026452Y0310703D01*
X0026566Y0310568D01*
X0026676Y0310430D01*
X0026783Y0310289D01*
X0026887Y0310146D01*
X0026987Y0310000D01*
X0027083Y0309852D01*
X0027176Y0309702D01*
X0027265Y0309549D01*
X0027350Y0309394D01*
X0027431Y0309237D01*
X0027509Y0309078D01*
X0027582Y0308918D01*
X0027652Y0308755D01*
X0027718Y0308591D01*
X0027779Y0308426D01*
X0027837Y0308259D01*
X0027890Y0308090D01*
X0027939Y0307920D01*
X0027984Y0307749D01*
X0028025Y0307578D01*
X0028062Y0307405D01*
X0028094Y0307231D01*
X0028122Y0307056D01*
X0028146Y0306881D01*
X0028165Y0306706D01*
X0028180Y0306530D01*
X0028191Y0306353D01*
X0028198Y0306177D01*
X0028200Y0306000D01*
X0028198Y0305823D01*
X0028191Y0305647D01*
X0028180Y0305470D01*
X0028165Y0305294D01*
X0028146Y0305119D01*
X0028122Y0304944D01*
X0028094Y0304769D01*
X0028062Y0304595D01*
X0028025Y0304422D01*
X0027984Y0304251D01*
X0027939Y0304080D01*
X0027890Y0303910D01*
X0027837Y0303741D01*
X0027779Y0303574D01*
X0027718Y0303409D01*
X0027652Y0303245D01*
X0027582Y0303082D01*
X0027509Y0302922D01*
X0027431Y0302763D01*
X0027350Y0302606D01*
X0027265Y0302451D01*
X0027176Y0302298D01*
X0027083Y0302148D01*
X0026987Y0302000D01*
X0026887Y0301854D01*
X0026783Y0301711D01*
X0026676Y0301570D01*
X0026566Y0301432D01*
X0026452Y0301297D01*
X0026335Y0301165D01*
X0026215Y0301035D01*
X0026091Y0300909D01*
X0025965Y0300785D01*
X0025835Y0300665D01*
X0025703Y0300548D01*
X0025568Y0300434D01*
X0025430Y0300324D01*
X0025289Y0300217D01*
X0025146Y0300113D01*
X0025000Y0300013D01*
X0024852Y0299917D01*
X0024702Y0299824D01*
X0024549Y0299735D01*
X0024394Y0299650D01*
X0024237Y0299569D01*
X0024078Y0299491D01*
X0023918Y0299418D01*
X0023755Y0299348D01*
X0023591Y0299282D01*
X0023426Y0299221D01*
X0023259Y0299163D01*
X0023090Y0299110D01*
X0022920Y0299061D01*
X0022749Y0299016D01*
X0022578Y0298975D01*
X0022405Y0298938D01*
X0022231Y0298906D01*
X0022056Y0298878D01*
X0021881Y0298854D01*
X0021706Y0298835D01*
X0021530Y0298820D01*
X0021353Y0298809D01*
X0021177Y0298802D01*
X0021000Y0298800D01*
X0020823Y0298802D01*
X0020647Y0298809D01*
X0020470Y0298820D01*
X0020294Y0298835D01*
X0020119Y0298854D01*
X0019944Y0298878D01*
X0019769Y0298906D01*
X0019595Y0298938D01*
X0019422Y0298975D01*
X0019251Y0299016D01*
X0019080Y0299061D01*
X0018910Y0299110D01*
X0018741Y0299163D01*
X0018574Y0299221D01*
X0018409Y0299282D01*
X0018245Y0299348D01*
X0018082Y0299418D01*
X0017922Y0299491D01*
X0017763Y0299569D01*
X0017606Y0299650D01*
X0017451Y0299735D01*
X0017298Y0299824D01*
X0017148Y0299917D01*
X0017000Y0300013D01*
X0016854Y0300113D01*
X0016711Y0300217D01*
X0016570Y0300324D01*
X0016432Y0300434D01*
X0016297Y0300548D01*
X0016165Y0300665D01*
X0016035Y0300785D01*
X0015909Y0300909D01*
X0015785Y0301035D01*
X0015665Y0301165D01*
X0015548Y0301297D01*
X0015434Y0301432D01*
X0015324Y0301570D01*
X0015217Y0301711D01*
X0015113Y0301854D01*
X0015013Y0302000D01*
X0014917Y0302148D01*
X0014824Y0302298D01*
X0014735Y0302451D01*
X0014650Y0302606D01*
X0014569Y0302763D01*
X0014491Y0302922D01*
X0014418Y0303082D01*
X0014348Y0303245D01*
X0014282Y0303409D01*
X0014221Y0303574D01*
X0014163Y0303741D01*
X0014110Y0303910D01*
X0014061Y0304080D01*
X0014016Y0304251D01*
X0013975Y0304422D01*
X0013938Y0304595D01*
X0013906Y0304769D01*
X0013878Y0304944D01*
X0013854Y0305119D01*
X0013835Y0305294D01*
X0013820Y0305470D01*
X0013809Y0305647D01*
X0013802Y0305823D01*
X0013800Y0306000D01*
X0011295Y0230331D02*
X0011297Y0230484D01*
X0011303Y0230638D01*
X0011313Y0230791D01*
X0011327Y0230943D01*
X0011345Y0231096D01*
X0011367Y0231247D01*
X0011392Y0231398D01*
X0011422Y0231549D01*
X0011456Y0231699D01*
X0011493Y0231847D01*
X0011534Y0231995D01*
X0011579Y0232141D01*
X0011628Y0232287D01*
X0011681Y0232431D01*
X0011737Y0232573D01*
X0011797Y0232714D01*
X0011861Y0232854D01*
X0011928Y0232992D01*
X0011999Y0233128D01*
X0012074Y0233262D01*
X0012151Y0233394D01*
X0012233Y0233524D01*
X0012317Y0233652D01*
X0012405Y0233778D01*
X0012496Y0233901D01*
X0012590Y0234022D01*
X0012688Y0234140D01*
X0012788Y0234256D01*
X0012892Y0234369D01*
X0012998Y0234480D01*
X0013107Y0234588D01*
X0013219Y0234693D01*
X0013333Y0234794D01*
X0013451Y0234893D01*
X0013570Y0234989D01*
X0013692Y0235082D01*
X0013817Y0235171D01*
X0013944Y0235258D01*
X0014073Y0235340D01*
X0014204Y0235420D01*
X0014337Y0235496D01*
X0014472Y0235569D01*
X0014609Y0235638D01*
X0014748Y0235703D01*
X0014888Y0235765D01*
X0015030Y0235823D01*
X0015173Y0235878D01*
X0015318Y0235929D01*
X0015464Y0235976D01*
X0015611Y0236019D01*
X0015759Y0236058D01*
X0015908Y0236094D01*
X0016058Y0236125D01*
X0016209Y0236153D01*
X0016360Y0236177D01*
X0016513Y0236197D01*
X0016665Y0236213D01*
X0016818Y0236225D01*
X0016971Y0236233D01*
X0017124Y0236237D01*
X0017278Y0236237D01*
X0017431Y0236233D01*
X0017584Y0236225D01*
X0017737Y0236213D01*
X0017889Y0236197D01*
X0018042Y0236177D01*
X0018193Y0236153D01*
X0018344Y0236125D01*
X0018494Y0236094D01*
X0018643Y0236058D01*
X0018791Y0236019D01*
X0018938Y0235976D01*
X0019084Y0235929D01*
X0019229Y0235878D01*
X0019372Y0235823D01*
X0019514Y0235765D01*
X0019654Y0235703D01*
X0019793Y0235638D01*
X0019930Y0235569D01*
X0020065Y0235496D01*
X0020198Y0235420D01*
X0020329Y0235340D01*
X0020458Y0235258D01*
X0020585Y0235171D01*
X0020710Y0235082D01*
X0020832Y0234989D01*
X0020951Y0234893D01*
X0021069Y0234794D01*
X0021183Y0234693D01*
X0021295Y0234588D01*
X0021404Y0234480D01*
X0021510Y0234369D01*
X0021614Y0234256D01*
X0021714Y0234140D01*
X0021812Y0234022D01*
X0021906Y0233901D01*
X0021997Y0233778D01*
X0022085Y0233652D01*
X0022169Y0233524D01*
X0022251Y0233394D01*
X0022328Y0233262D01*
X0022403Y0233128D01*
X0022474Y0232992D01*
X0022541Y0232854D01*
X0022605Y0232714D01*
X0022665Y0232573D01*
X0022721Y0232431D01*
X0022774Y0232287D01*
X0022823Y0232141D01*
X0022868Y0231995D01*
X0022909Y0231847D01*
X0022946Y0231699D01*
X0022980Y0231549D01*
X0023010Y0231398D01*
X0023035Y0231247D01*
X0023057Y0231096D01*
X0023075Y0230943D01*
X0023089Y0230791D01*
X0023099Y0230638D01*
X0023105Y0230484D01*
X0023107Y0230331D01*
X0023105Y0230178D01*
X0023099Y0230024D01*
X0023089Y0229871D01*
X0023075Y0229719D01*
X0023057Y0229566D01*
X0023035Y0229415D01*
X0023010Y0229264D01*
X0022980Y0229113D01*
X0022946Y0228963D01*
X0022909Y0228815D01*
X0022868Y0228667D01*
X0022823Y0228521D01*
X0022774Y0228375D01*
X0022721Y0228231D01*
X0022665Y0228089D01*
X0022605Y0227948D01*
X0022541Y0227808D01*
X0022474Y0227670D01*
X0022403Y0227534D01*
X0022328Y0227400D01*
X0022251Y0227268D01*
X0022169Y0227138D01*
X0022085Y0227010D01*
X0021997Y0226884D01*
X0021906Y0226761D01*
X0021812Y0226640D01*
X0021714Y0226522D01*
X0021614Y0226406D01*
X0021510Y0226293D01*
X0021404Y0226182D01*
X0021295Y0226074D01*
X0021183Y0225969D01*
X0021069Y0225868D01*
X0020951Y0225769D01*
X0020832Y0225673D01*
X0020710Y0225580D01*
X0020585Y0225491D01*
X0020458Y0225404D01*
X0020329Y0225322D01*
X0020198Y0225242D01*
X0020065Y0225166D01*
X0019930Y0225093D01*
X0019793Y0225024D01*
X0019654Y0224959D01*
X0019514Y0224897D01*
X0019372Y0224839D01*
X0019229Y0224784D01*
X0019084Y0224733D01*
X0018938Y0224686D01*
X0018791Y0224643D01*
X0018643Y0224604D01*
X0018494Y0224568D01*
X0018344Y0224537D01*
X0018193Y0224509D01*
X0018042Y0224485D01*
X0017889Y0224465D01*
X0017737Y0224449D01*
X0017584Y0224437D01*
X0017431Y0224429D01*
X0017278Y0224425D01*
X0017124Y0224425D01*
X0016971Y0224429D01*
X0016818Y0224437D01*
X0016665Y0224449D01*
X0016513Y0224465D01*
X0016360Y0224485D01*
X0016209Y0224509D01*
X0016058Y0224537D01*
X0015908Y0224568D01*
X0015759Y0224604D01*
X0015611Y0224643D01*
X0015464Y0224686D01*
X0015318Y0224733D01*
X0015173Y0224784D01*
X0015030Y0224839D01*
X0014888Y0224897D01*
X0014748Y0224959D01*
X0014609Y0225024D01*
X0014472Y0225093D01*
X0014337Y0225166D01*
X0014204Y0225242D01*
X0014073Y0225322D01*
X0013944Y0225404D01*
X0013817Y0225491D01*
X0013692Y0225580D01*
X0013570Y0225673D01*
X0013451Y0225769D01*
X0013333Y0225868D01*
X0013219Y0225969D01*
X0013107Y0226074D01*
X0012998Y0226182D01*
X0012892Y0226293D01*
X0012788Y0226406D01*
X0012688Y0226522D01*
X0012590Y0226640D01*
X0012496Y0226761D01*
X0012405Y0226884D01*
X0012317Y0227010D01*
X0012233Y0227138D01*
X0012151Y0227268D01*
X0012074Y0227400D01*
X0011999Y0227534D01*
X0011928Y0227670D01*
X0011861Y0227808D01*
X0011797Y0227948D01*
X0011737Y0228089D01*
X0011681Y0228231D01*
X0011628Y0228375D01*
X0011579Y0228521D01*
X0011534Y0228667D01*
X0011493Y0228815D01*
X0011456Y0228963D01*
X0011422Y0229113D01*
X0011392Y0229264D01*
X0011367Y0229415D01*
X0011345Y0229566D01*
X0011327Y0229719D01*
X0011313Y0229871D01*
X0011303Y0230024D01*
X0011297Y0230178D01*
X0011295Y0230331D01*
X0011295Y0181669D02*
X0011297Y0181822D01*
X0011303Y0181976D01*
X0011313Y0182129D01*
X0011327Y0182281D01*
X0011345Y0182434D01*
X0011367Y0182585D01*
X0011392Y0182736D01*
X0011422Y0182887D01*
X0011456Y0183037D01*
X0011493Y0183185D01*
X0011534Y0183333D01*
X0011579Y0183479D01*
X0011628Y0183625D01*
X0011681Y0183769D01*
X0011737Y0183911D01*
X0011797Y0184052D01*
X0011861Y0184192D01*
X0011928Y0184330D01*
X0011999Y0184466D01*
X0012074Y0184600D01*
X0012151Y0184732D01*
X0012233Y0184862D01*
X0012317Y0184990D01*
X0012405Y0185116D01*
X0012496Y0185239D01*
X0012590Y0185360D01*
X0012688Y0185478D01*
X0012788Y0185594D01*
X0012892Y0185707D01*
X0012998Y0185818D01*
X0013107Y0185926D01*
X0013219Y0186031D01*
X0013333Y0186132D01*
X0013451Y0186231D01*
X0013570Y0186327D01*
X0013692Y0186420D01*
X0013817Y0186509D01*
X0013944Y0186596D01*
X0014073Y0186678D01*
X0014204Y0186758D01*
X0014337Y0186834D01*
X0014472Y0186907D01*
X0014609Y0186976D01*
X0014748Y0187041D01*
X0014888Y0187103D01*
X0015030Y0187161D01*
X0015173Y0187216D01*
X0015318Y0187267D01*
X0015464Y0187314D01*
X0015611Y0187357D01*
X0015759Y0187396D01*
X0015908Y0187432D01*
X0016058Y0187463D01*
X0016209Y0187491D01*
X0016360Y0187515D01*
X0016513Y0187535D01*
X0016665Y0187551D01*
X0016818Y0187563D01*
X0016971Y0187571D01*
X0017124Y0187575D01*
X0017278Y0187575D01*
X0017431Y0187571D01*
X0017584Y0187563D01*
X0017737Y0187551D01*
X0017889Y0187535D01*
X0018042Y0187515D01*
X0018193Y0187491D01*
X0018344Y0187463D01*
X0018494Y0187432D01*
X0018643Y0187396D01*
X0018791Y0187357D01*
X0018938Y0187314D01*
X0019084Y0187267D01*
X0019229Y0187216D01*
X0019372Y0187161D01*
X0019514Y0187103D01*
X0019654Y0187041D01*
X0019793Y0186976D01*
X0019930Y0186907D01*
X0020065Y0186834D01*
X0020198Y0186758D01*
X0020329Y0186678D01*
X0020458Y0186596D01*
X0020585Y0186509D01*
X0020710Y0186420D01*
X0020832Y0186327D01*
X0020951Y0186231D01*
X0021069Y0186132D01*
X0021183Y0186031D01*
X0021295Y0185926D01*
X0021404Y0185818D01*
X0021510Y0185707D01*
X0021614Y0185594D01*
X0021714Y0185478D01*
X0021812Y0185360D01*
X0021906Y0185239D01*
X0021997Y0185116D01*
X0022085Y0184990D01*
X0022169Y0184862D01*
X0022251Y0184732D01*
X0022328Y0184600D01*
X0022403Y0184466D01*
X0022474Y0184330D01*
X0022541Y0184192D01*
X0022605Y0184052D01*
X0022665Y0183911D01*
X0022721Y0183769D01*
X0022774Y0183625D01*
X0022823Y0183479D01*
X0022868Y0183333D01*
X0022909Y0183185D01*
X0022946Y0183037D01*
X0022980Y0182887D01*
X0023010Y0182736D01*
X0023035Y0182585D01*
X0023057Y0182434D01*
X0023075Y0182281D01*
X0023089Y0182129D01*
X0023099Y0181976D01*
X0023105Y0181822D01*
X0023107Y0181669D01*
X0023105Y0181516D01*
X0023099Y0181362D01*
X0023089Y0181209D01*
X0023075Y0181057D01*
X0023057Y0180904D01*
X0023035Y0180753D01*
X0023010Y0180602D01*
X0022980Y0180451D01*
X0022946Y0180301D01*
X0022909Y0180153D01*
X0022868Y0180005D01*
X0022823Y0179859D01*
X0022774Y0179713D01*
X0022721Y0179569D01*
X0022665Y0179427D01*
X0022605Y0179286D01*
X0022541Y0179146D01*
X0022474Y0179008D01*
X0022403Y0178872D01*
X0022328Y0178738D01*
X0022251Y0178606D01*
X0022169Y0178476D01*
X0022085Y0178348D01*
X0021997Y0178222D01*
X0021906Y0178099D01*
X0021812Y0177978D01*
X0021714Y0177860D01*
X0021614Y0177744D01*
X0021510Y0177631D01*
X0021404Y0177520D01*
X0021295Y0177412D01*
X0021183Y0177307D01*
X0021069Y0177206D01*
X0020951Y0177107D01*
X0020832Y0177011D01*
X0020710Y0176918D01*
X0020585Y0176829D01*
X0020458Y0176742D01*
X0020329Y0176660D01*
X0020198Y0176580D01*
X0020065Y0176504D01*
X0019930Y0176431D01*
X0019793Y0176362D01*
X0019654Y0176297D01*
X0019514Y0176235D01*
X0019372Y0176177D01*
X0019229Y0176122D01*
X0019084Y0176071D01*
X0018938Y0176024D01*
X0018791Y0175981D01*
X0018643Y0175942D01*
X0018494Y0175906D01*
X0018344Y0175875D01*
X0018193Y0175847D01*
X0018042Y0175823D01*
X0017889Y0175803D01*
X0017737Y0175787D01*
X0017584Y0175775D01*
X0017431Y0175767D01*
X0017278Y0175763D01*
X0017124Y0175763D01*
X0016971Y0175767D01*
X0016818Y0175775D01*
X0016665Y0175787D01*
X0016513Y0175803D01*
X0016360Y0175823D01*
X0016209Y0175847D01*
X0016058Y0175875D01*
X0015908Y0175906D01*
X0015759Y0175942D01*
X0015611Y0175981D01*
X0015464Y0176024D01*
X0015318Y0176071D01*
X0015173Y0176122D01*
X0015030Y0176177D01*
X0014888Y0176235D01*
X0014748Y0176297D01*
X0014609Y0176362D01*
X0014472Y0176431D01*
X0014337Y0176504D01*
X0014204Y0176580D01*
X0014073Y0176660D01*
X0013944Y0176742D01*
X0013817Y0176829D01*
X0013692Y0176918D01*
X0013570Y0177011D01*
X0013451Y0177107D01*
X0013333Y0177206D01*
X0013219Y0177307D01*
X0013107Y0177412D01*
X0012998Y0177520D01*
X0012892Y0177631D01*
X0012788Y0177744D01*
X0012688Y0177860D01*
X0012590Y0177978D01*
X0012496Y0178099D01*
X0012405Y0178222D01*
X0012317Y0178348D01*
X0012233Y0178476D01*
X0012151Y0178606D01*
X0012074Y0178738D01*
X0011999Y0178872D01*
X0011928Y0179008D01*
X0011861Y0179146D01*
X0011797Y0179286D01*
X0011737Y0179427D01*
X0011681Y0179569D01*
X0011628Y0179713D01*
X0011579Y0179859D01*
X0011534Y0180005D01*
X0011493Y0180153D01*
X0011456Y0180301D01*
X0011422Y0180451D01*
X0011392Y0180602D01*
X0011367Y0180753D01*
X0011345Y0180904D01*
X0011327Y0181057D01*
X0011313Y0181209D01*
X0011303Y0181362D01*
X0011297Y0181516D01*
X0011295Y0181669D01*
X0287500Y0313500D02*
X0287503Y0313709D01*
X0287510Y0313917D01*
X0287523Y0314125D01*
X0287541Y0314333D01*
X0287564Y0314540D01*
X0287592Y0314747D01*
X0287625Y0314953D01*
X0287663Y0315158D01*
X0287707Y0315362D01*
X0287755Y0315565D01*
X0287808Y0315767D01*
X0287866Y0315967D01*
X0287929Y0316166D01*
X0287997Y0316364D01*
X0288070Y0316559D01*
X0288147Y0316753D01*
X0288229Y0316945D01*
X0288316Y0317134D01*
X0288408Y0317322D01*
X0288504Y0317507D01*
X0288604Y0317690D01*
X0288709Y0317870D01*
X0288819Y0318047D01*
X0288933Y0318222D01*
X0289051Y0318394D01*
X0289173Y0318563D01*
X0289299Y0318729D01*
X0289429Y0318892D01*
X0289564Y0319052D01*
X0289702Y0319208D01*
X0289844Y0319361D01*
X0289990Y0319510D01*
X0290139Y0319656D01*
X0290292Y0319798D01*
X0290448Y0319936D01*
X0290608Y0320071D01*
X0290771Y0320201D01*
X0290937Y0320327D01*
X0291106Y0320449D01*
X0291278Y0320567D01*
X0291453Y0320681D01*
X0291630Y0320791D01*
X0291810Y0320896D01*
X0291993Y0320996D01*
X0292178Y0321092D01*
X0292366Y0321184D01*
X0292555Y0321271D01*
X0292747Y0321353D01*
X0292941Y0321430D01*
X0293136Y0321503D01*
X0293334Y0321571D01*
X0293533Y0321634D01*
X0293733Y0321692D01*
X0293935Y0321745D01*
X0294138Y0321793D01*
X0294342Y0321837D01*
X0294547Y0321875D01*
X0294753Y0321908D01*
X0294960Y0321936D01*
X0295167Y0321959D01*
X0295375Y0321977D01*
X0295583Y0321990D01*
X0295791Y0321997D01*
X0296000Y0322000D01*
X0296209Y0321997D01*
X0296417Y0321990D01*
X0296625Y0321977D01*
X0296833Y0321959D01*
X0297040Y0321936D01*
X0297247Y0321908D01*
X0297453Y0321875D01*
X0297658Y0321837D01*
X0297862Y0321793D01*
X0298065Y0321745D01*
X0298267Y0321692D01*
X0298467Y0321634D01*
X0298666Y0321571D01*
X0298864Y0321503D01*
X0299059Y0321430D01*
X0299253Y0321353D01*
X0299445Y0321271D01*
X0299634Y0321184D01*
X0299822Y0321092D01*
X0300007Y0320996D01*
X0300190Y0320896D01*
X0300370Y0320791D01*
X0300547Y0320681D01*
X0300722Y0320567D01*
X0300894Y0320449D01*
X0301063Y0320327D01*
X0301229Y0320201D01*
X0301392Y0320071D01*
X0301552Y0319936D01*
X0301708Y0319798D01*
X0301861Y0319656D01*
X0302010Y0319510D01*
X0302156Y0319361D01*
X0302298Y0319208D01*
X0302436Y0319052D01*
X0302571Y0318892D01*
X0302701Y0318729D01*
X0302827Y0318563D01*
X0302949Y0318394D01*
X0303067Y0318222D01*
X0303181Y0318047D01*
X0303291Y0317870D01*
X0303396Y0317690D01*
X0303496Y0317507D01*
X0303592Y0317322D01*
X0303684Y0317134D01*
X0303771Y0316945D01*
X0303853Y0316753D01*
X0303930Y0316559D01*
X0304003Y0316364D01*
X0304071Y0316166D01*
X0304134Y0315967D01*
X0304192Y0315767D01*
X0304245Y0315565D01*
X0304293Y0315362D01*
X0304337Y0315158D01*
X0304375Y0314953D01*
X0304408Y0314747D01*
X0304436Y0314540D01*
X0304459Y0314333D01*
X0304477Y0314125D01*
X0304490Y0313917D01*
X0304497Y0313709D01*
X0304500Y0313500D01*
X0304497Y0313291D01*
X0304490Y0313083D01*
X0304477Y0312875D01*
X0304459Y0312667D01*
X0304436Y0312460D01*
X0304408Y0312253D01*
X0304375Y0312047D01*
X0304337Y0311842D01*
X0304293Y0311638D01*
X0304245Y0311435D01*
X0304192Y0311233D01*
X0304134Y0311033D01*
X0304071Y0310834D01*
X0304003Y0310636D01*
X0303930Y0310441D01*
X0303853Y0310247D01*
X0303771Y0310055D01*
X0303684Y0309866D01*
X0303592Y0309678D01*
X0303496Y0309493D01*
X0303396Y0309310D01*
X0303291Y0309130D01*
X0303181Y0308953D01*
X0303067Y0308778D01*
X0302949Y0308606D01*
X0302827Y0308437D01*
X0302701Y0308271D01*
X0302571Y0308108D01*
X0302436Y0307948D01*
X0302298Y0307792D01*
X0302156Y0307639D01*
X0302010Y0307490D01*
X0301861Y0307344D01*
X0301708Y0307202D01*
X0301552Y0307064D01*
X0301392Y0306929D01*
X0301229Y0306799D01*
X0301063Y0306673D01*
X0300894Y0306551D01*
X0300722Y0306433D01*
X0300547Y0306319D01*
X0300370Y0306209D01*
X0300190Y0306104D01*
X0300007Y0306004D01*
X0299822Y0305908D01*
X0299634Y0305816D01*
X0299445Y0305729D01*
X0299253Y0305647D01*
X0299059Y0305570D01*
X0298864Y0305497D01*
X0298666Y0305429D01*
X0298467Y0305366D01*
X0298267Y0305308D01*
X0298065Y0305255D01*
X0297862Y0305207D01*
X0297658Y0305163D01*
X0297453Y0305125D01*
X0297247Y0305092D01*
X0297040Y0305064D01*
X0296833Y0305041D01*
X0296625Y0305023D01*
X0296417Y0305010D01*
X0296209Y0305003D01*
X0296000Y0305000D01*
X0295791Y0305003D01*
X0295583Y0305010D01*
X0295375Y0305023D01*
X0295167Y0305041D01*
X0294960Y0305064D01*
X0294753Y0305092D01*
X0294547Y0305125D01*
X0294342Y0305163D01*
X0294138Y0305207D01*
X0293935Y0305255D01*
X0293733Y0305308D01*
X0293533Y0305366D01*
X0293334Y0305429D01*
X0293136Y0305497D01*
X0292941Y0305570D01*
X0292747Y0305647D01*
X0292555Y0305729D01*
X0292366Y0305816D01*
X0292178Y0305908D01*
X0291993Y0306004D01*
X0291810Y0306104D01*
X0291630Y0306209D01*
X0291453Y0306319D01*
X0291278Y0306433D01*
X0291106Y0306551D01*
X0290937Y0306673D01*
X0290771Y0306799D01*
X0290608Y0306929D01*
X0290448Y0307064D01*
X0290292Y0307202D01*
X0290139Y0307344D01*
X0289990Y0307490D01*
X0289844Y0307639D01*
X0289702Y0307792D01*
X0289564Y0307948D01*
X0289429Y0308108D01*
X0289299Y0308271D01*
X0289173Y0308437D01*
X0289051Y0308606D01*
X0288933Y0308778D01*
X0288819Y0308953D01*
X0288709Y0309130D01*
X0288604Y0309310D01*
X0288504Y0309493D01*
X0288408Y0309678D01*
X0288316Y0309866D01*
X0288229Y0310055D01*
X0288147Y0310247D01*
X0288070Y0310441D01*
X0287997Y0310636D01*
X0287929Y0310834D01*
X0287866Y0311033D01*
X0287808Y0311233D01*
X0287755Y0311435D01*
X0287707Y0311638D01*
X0287663Y0311842D01*
X0287625Y0312047D01*
X0287592Y0312253D01*
X0287564Y0312460D01*
X0287541Y0312667D01*
X0287523Y0312875D01*
X0287510Y0313083D01*
X0287503Y0313291D01*
X0287500Y0313500D01*
X0363800Y0306000D02*
X0363802Y0306177D01*
X0363809Y0306353D01*
X0363820Y0306530D01*
X0363835Y0306706D01*
X0363854Y0306881D01*
X0363878Y0307056D01*
X0363906Y0307231D01*
X0363938Y0307405D01*
X0363975Y0307578D01*
X0364016Y0307749D01*
X0364061Y0307920D01*
X0364110Y0308090D01*
X0364163Y0308259D01*
X0364221Y0308426D01*
X0364282Y0308591D01*
X0364348Y0308755D01*
X0364418Y0308918D01*
X0364491Y0309078D01*
X0364569Y0309237D01*
X0364650Y0309394D01*
X0364735Y0309549D01*
X0364824Y0309702D01*
X0364917Y0309852D01*
X0365013Y0310000D01*
X0365113Y0310146D01*
X0365217Y0310289D01*
X0365324Y0310430D01*
X0365434Y0310568D01*
X0365548Y0310703D01*
X0365665Y0310835D01*
X0365785Y0310965D01*
X0365909Y0311091D01*
X0366035Y0311215D01*
X0366165Y0311335D01*
X0366297Y0311452D01*
X0366432Y0311566D01*
X0366570Y0311676D01*
X0366711Y0311783D01*
X0366854Y0311887D01*
X0367000Y0311987D01*
X0367148Y0312083D01*
X0367298Y0312176D01*
X0367451Y0312265D01*
X0367606Y0312350D01*
X0367763Y0312431D01*
X0367922Y0312509D01*
X0368082Y0312582D01*
X0368245Y0312652D01*
X0368409Y0312718D01*
X0368574Y0312779D01*
X0368741Y0312837D01*
X0368910Y0312890D01*
X0369080Y0312939D01*
X0369251Y0312984D01*
X0369422Y0313025D01*
X0369595Y0313062D01*
X0369769Y0313094D01*
X0369944Y0313122D01*
X0370119Y0313146D01*
X0370294Y0313165D01*
X0370470Y0313180D01*
X0370647Y0313191D01*
X0370823Y0313198D01*
X0371000Y0313200D01*
X0371177Y0313198D01*
X0371353Y0313191D01*
X0371530Y0313180D01*
X0371706Y0313165D01*
X0371881Y0313146D01*
X0372056Y0313122D01*
X0372231Y0313094D01*
X0372405Y0313062D01*
X0372578Y0313025D01*
X0372749Y0312984D01*
X0372920Y0312939D01*
X0373090Y0312890D01*
X0373259Y0312837D01*
X0373426Y0312779D01*
X0373591Y0312718D01*
X0373755Y0312652D01*
X0373918Y0312582D01*
X0374078Y0312509D01*
X0374237Y0312431D01*
X0374394Y0312350D01*
X0374549Y0312265D01*
X0374702Y0312176D01*
X0374852Y0312083D01*
X0375000Y0311987D01*
X0375146Y0311887D01*
X0375289Y0311783D01*
X0375430Y0311676D01*
X0375568Y0311566D01*
X0375703Y0311452D01*
X0375835Y0311335D01*
X0375965Y0311215D01*
X0376091Y0311091D01*
X0376215Y0310965D01*
X0376335Y0310835D01*
X0376452Y0310703D01*
X0376566Y0310568D01*
X0376676Y0310430D01*
X0376783Y0310289D01*
X0376887Y0310146D01*
X0376987Y0310000D01*
X0377083Y0309852D01*
X0377176Y0309702D01*
X0377265Y0309549D01*
X0377350Y0309394D01*
X0377431Y0309237D01*
X0377509Y0309078D01*
X0377582Y0308918D01*
X0377652Y0308755D01*
X0377718Y0308591D01*
X0377779Y0308426D01*
X0377837Y0308259D01*
X0377890Y0308090D01*
X0377939Y0307920D01*
X0377984Y0307749D01*
X0378025Y0307578D01*
X0378062Y0307405D01*
X0378094Y0307231D01*
X0378122Y0307056D01*
X0378146Y0306881D01*
X0378165Y0306706D01*
X0378180Y0306530D01*
X0378191Y0306353D01*
X0378198Y0306177D01*
X0378200Y0306000D01*
X0378198Y0305823D01*
X0378191Y0305647D01*
X0378180Y0305470D01*
X0378165Y0305294D01*
X0378146Y0305119D01*
X0378122Y0304944D01*
X0378094Y0304769D01*
X0378062Y0304595D01*
X0378025Y0304422D01*
X0377984Y0304251D01*
X0377939Y0304080D01*
X0377890Y0303910D01*
X0377837Y0303741D01*
X0377779Y0303574D01*
X0377718Y0303409D01*
X0377652Y0303245D01*
X0377582Y0303082D01*
X0377509Y0302922D01*
X0377431Y0302763D01*
X0377350Y0302606D01*
X0377265Y0302451D01*
X0377176Y0302298D01*
X0377083Y0302148D01*
X0376987Y0302000D01*
X0376887Y0301854D01*
X0376783Y0301711D01*
X0376676Y0301570D01*
X0376566Y0301432D01*
X0376452Y0301297D01*
X0376335Y0301165D01*
X0376215Y0301035D01*
X0376091Y0300909D01*
X0375965Y0300785D01*
X0375835Y0300665D01*
X0375703Y0300548D01*
X0375568Y0300434D01*
X0375430Y0300324D01*
X0375289Y0300217D01*
X0375146Y0300113D01*
X0375000Y0300013D01*
X0374852Y0299917D01*
X0374702Y0299824D01*
X0374549Y0299735D01*
X0374394Y0299650D01*
X0374237Y0299569D01*
X0374078Y0299491D01*
X0373918Y0299418D01*
X0373755Y0299348D01*
X0373591Y0299282D01*
X0373426Y0299221D01*
X0373259Y0299163D01*
X0373090Y0299110D01*
X0372920Y0299061D01*
X0372749Y0299016D01*
X0372578Y0298975D01*
X0372405Y0298938D01*
X0372231Y0298906D01*
X0372056Y0298878D01*
X0371881Y0298854D01*
X0371706Y0298835D01*
X0371530Y0298820D01*
X0371353Y0298809D01*
X0371177Y0298802D01*
X0371000Y0298800D01*
X0370823Y0298802D01*
X0370647Y0298809D01*
X0370470Y0298820D01*
X0370294Y0298835D01*
X0370119Y0298854D01*
X0369944Y0298878D01*
X0369769Y0298906D01*
X0369595Y0298938D01*
X0369422Y0298975D01*
X0369251Y0299016D01*
X0369080Y0299061D01*
X0368910Y0299110D01*
X0368741Y0299163D01*
X0368574Y0299221D01*
X0368409Y0299282D01*
X0368245Y0299348D01*
X0368082Y0299418D01*
X0367922Y0299491D01*
X0367763Y0299569D01*
X0367606Y0299650D01*
X0367451Y0299735D01*
X0367298Y0299824D01*
X0367148Y0299917D01*
X0367000Y0300013D01*
X0366854Y0300113D01*
X0366711Y0300217D01*
X0366570Y0300324D01*
X0366432Y0300434D01*
X0366297Y0300548D01*
X0366165Y0300665D01*
X0366035Y0300785D01*
X0365909Y0300909D01*
X0365785Y0301035D01*
X0365665Y0301165D01*
X0365548Y0301297D01*
X0365434Y0301432D01*
X0365324Y0301570D01*
X0365217Y0301711D01*
X0365113Y0301854D01*
X0365013Y0302000D01*
X0364917Y0302148D01*
X0364824Y0302298D01*
X0364735Y0302451D01*
X0364650Y0302606D01*
X0364569Y0302763D01*
X0364491Y0302922D01*
X0364418Y0303082D01*
X0364348Y0303245D01*
X0364282Y0303409D01*
X0364221Y0303574D01*
X0364163Y0303741D01*
X0364110Y0303910D01*
X0364061Y0304080D01*
X0364016Y0304251D01*
X0363975Y0304422D01*
X0363938Y0304595D01*
X0363906Y0304769D01*
X0363878Y0304944D01*
X0363854Y0305119D01*
X0363835Y0305294D01*
X0363820Y0305470D01*
X0363809Y0305647D01*
X0363802Y0305823D01*
X0363800Y0306000D01*
D11*
X0336630Y0292693D03*
X0336630Y0285134D03*
X0336630Y0277575D03*
X0325803Y0277575D03*
X0325803Y0285134D03*
X0325803Y0292693D03*
X0325803Y0270016D03*
X0325803Y0262457D03*
X0325803Y0254898D03*
X0336630Y0254898D03*
X0336630Y0262457D03*
X0336630Y0270016D03*
X0336630Y0242339D03*
X0325803Y0242339D03*
X0325803Y0234465D03*
X0325803Y0226591D03*
X0336630Y0226591D03*
X0336630Y0234465D03*
X0336630Y0204189D03*
X0336630Y0197142D03*
X0336630Y0190094D03*
X0336630Y0183047D03*
X0325803Y0183047D03*
X0325803Y0190094D03*
X0325803Y0197142D03*
X0325803Y0204189D03*
X0261827Y0207496D03*
X0251000Y0207496D03*
X0251000Y0214858D03*
X0261827Y0214858D03*
X0261827Y0222220D03*
X0251000Y0222220D03*
X0251000Y0229583D03*
X0261827Y0229583D03*
X0261827Y0238992D03*
X0251000Y0238992D03*
X0251000Y0246354D03*
X0261827Y0246354D03*
X0261827Y0253717D03*
X0251000Y0253717D03*
X0251000Y0261079D03*
X0261827Y0261079D03*
X0261827Y0270488D03*
X0251000Y0270488D03*
X0251000Y0277850D03*
X0261827Y0277850D03*
X0261827Y0285213D03*
X0251000Y0285213D03*
X0251000Y0292575D03*
X0261827Y0292575D03*
X0146000Y0296000D03*
X0146000Y0288638D03*
X0146000Y0281276D03*
X0146000Y0273913D03*
X0135173Y0273913D03*
X0135173Y0281276D03*
X0135173Y0288638D03*
X0135173Y0296000D03*
X0071197Y0296000D03*
X0071197Y0288953D03*
X0071197Y0281906D03*
X0071197Y0274858D03*
X0071197Y0267811D03*
X0060370Y0267811D03*
X0060370Y0274858D03*
X0060370Y0281906D03*
X0060370Y0288953D03*
X0060370Y0296000D03*
X0135173Y0264504D03*
X0146000Y0264504D03*
X0146000Y0257142D03*
X0146000Y0249780D03*
X0146000Y0242417D03*
X0135173Y0242417D03*
X0135173Y0249780D03*
X0135173Y0257142D03*
X0135173Y0233008D03*
X0135173Y0225646D03*
X0146000Y0225646D03*
X0146000Y0233008D03*
X0146000Y0218283D03*
X0146000Y0210921D03*
X0135173Y0210921D03*
X0135173Y0218283D03*
X0135173Y0201512D03*
X0135173Y0194150D03*
X0135173Y0186787D03*
X0135173Y0179425D03*
X0146000Y0179425D03*
X0146000Y0186787D03*
X0146000Y0194150D03*
X0146000Y0201512D03*
X0071197Y0201984D03*
X0071197Y0194425D03*
X0071197Y0186866D03*
X0071197Y0179307D03*
X0060370Y0179307D03*
X0060370Y0186866D03*
X0060370Y0194425D03*
X0060370Y0201984D03*
X0060370Y0209543D03*
X0060370Y0217102D03*
X0071197Y0217102D03*
X0071197Y0209543D03*
X0071197Y0229661D03*
X0071197Y0237535D03*
X0060370Y0237535D03*
X0060370Y0229661D03*
X0060370Y0245409D03*
X0071197Y0245409D03*
X0251000Y0198087D03*
X0261827Y0198087D03*
X0261827Y0190724D03*
X0251000Y0190724D03*
X0251000Y0183362D03*
X0261827Y0183362D03*
X0261827Y0176000D03*
X0251000Y0176000D03*
X0251000Y0157575D03*
X0261827Y0157575D03*
X0261827Y0150213D03*
X0251000Y0150213D03*
X0251000Y0142850D03*
X0261827Y0142850D03*
X0261827Y0135488D03*
X0251000Y0135488D03*
X0251000Y0126079D03*
X0261827Y0126079D03*
X0261827Y0118717D03*
X0251000Y0118717D03*
X0251000Y0111354D03*
X0261827Y0111354D03*
X0261827Y0103992D03*
X0251000Y0103992D03*
X0251000Y0094583D03*
X0261827Y0094583D03*
X0261827Y0087220D03*
X0251000Y0087220D03*
X0251000Y0079858D03*
X0261827Y0079858D03*
X0261827Y0072496D03*
X0251000Y0072496D03*
X0251000Y0063087D03*
X0261827Y0063087D03*
X0261827Y0055724D03*
X0251000Y0055724D03*
X0251000Y0048362D03*
X0261827Y0048362D03*
X0261827Y0041000D03*
X0251000Y0041000D03*
X0325803Y0041000D03*
X0325803Y0048047D03*
X0325803Y0055094D03*
X0336630Y0055094D03*
X0336630Y0048047D03*
X0336630Y0041000D03*
X0336630Y0062142D03*
X0336630Y0069189D03*
X0325803Y0069189D03*
X0325803Y0062142D03*
X0325803Y0091591D03*
X0325803Y0099465D03*
X0325803Y0107339D03*
X0336630Y0107339D03*
X0336630Y0099465D03*
X0336630Y0091591D03*
X0336630Y0119898D03*
X0325803Y0119898D03*
X0325803Y0127457D03*
X0325803Y0135016D03*
X0325803Y0142575D03*
X0336630Y0142575D03*
X0336630Y0135016D03*
X0336630Y0127457D03*
X0336630Y0150134D03*
X0336630Y0157693D03*
X0325803Y0157693D03*
X0325803Y0150134D03*
X0325803Y0176000D03*
X0336630Y0176000D03*
X0146000Y0158500D03*
X0146000Y0151138D03*
X0146000Y0143776D03*
X0135173Y0143776D03*
X0135173Y0151138D03*
X0135173Y0158500D03*
X0135173Y0136413D03*
X0146000Y0136413D03*
X0146000Y0127004D03*
X0146000Y0119642D03*
X0146000Y0112280D03*
X0146000Y0104917D03*
X0135173Y0104917D03*
X0135173Y0112280D03*
X0135173Y0119642D03*
X0135173Y0127004D03*
X0071197Y0130311D03*
X0060370Y0130311D03*
X0060370Y0137358D03*
X0060370Y0144406D03*
X0060370Y0151453D03*
X0060370Y0158500D03*
X0071197Y0158500D03*
X0071197Y0151453D03*
X0071197Y0144406D03*
X0071197Y0137358D03*
X0071197Y0107909D03*
X0060370Y0107909D03*
X0060370Y0100035D03*
X0060370Y0092161D03*
X0071197Y0092161D03*
X0071197Y0100035D03*
X0071197Y0079602D03*
X0071197Y0072043D03*
X0060370Y0072043D03*
X0060370Y0079602D03*
X0060370Y0064484D03*
X0060370Y0056925D03*
X0060370Y0049366D03*
X0071197Y0049366D03*
X0071197Y0056925D03*
X0071197Y0064484D03*
X0071197Y0041807D03*
X0060370Y0041807D03*
X0135173Y0041925D03*
X0146000Y0041925D03*
X0146000Y0049287D03*
X0146000Y0056650D03*
X0146000Y0064012D03*
X0135173Y0064012D03*
X0135173Y0056650D03*
X0135173Y0049287D03*
X0135173Y0073421D03*
X0135173Y0080783D03*
X0146000Y0080783D03*
X0146000Y0073421D03*
X0146000Y0088146D03*
X0146000Y0095508D03*
X0135173Y0095508D03*
X0135173Y0088146D03*
D12*
X0046000Y0038500D03*
X0036000Y0038500D03*
X0011000Y0091000D03*
X0011000Y0101000D03*
X0216000Y0196000D03*
X0226000Y0196000D03*
X0226000Y0213500D03*
X0216000Y0213500D03*
X0381000Y0106000D03*
X0381000Y0096000D03*
X0358500Y0041000D03*
X0348500Y0041000D03*
D13*
X0358559Y0191000D03*
X0381000Y0191000D03*
X0210941Y0271000D03*
X0188500Y0271000D03*
X0040941Y0206000D03*
X0018500Y0206000D03*
D14*
X0173657Y0207025D02*
X0173657Y0199975D01*
X0193343Y0199975D02*
X0193343Y0207025D01*
X0182025Y0173343D02*
X0174975Y0173343D01*
X0212475Y0173343D02*
X0219525Y0173343D01*
X0219525Y0153657D02*
X0212475Y0153657D01*
X0182025Y0153657D02*
X0174975Y0153657D01*
X0174975Y0133343D02*
X0182025Y0133343D01*
X0212475Y0133343D02*
X0219525Y0133343D01*
X0219525Y0113657D02*
X0212475Y0113657D01*
X0182025Y0113657D02*
X0174975Y0113657D01*
X0174975Y0093343D02*
X0182025Y0093343D01*
X0212475Y0093343D02*
X0219525Y0093343D01*
X0219525Y0073657D02*
X0212475Y0073657D01*
X0182025Y0073657D02*
X0174975Y0073657D01*
D15*
X0044000Y0088500D02*
X0038000Y0088500D01*
X0038000Y0098500D02*
X0044000Y0098500D01*
X0044000Y0108500D02*
X0038000Y0108500D01*
X0038000Y0226000D02*
X0044000Y0226000D01*
X0044000Y0236000D02*
X0038000Y0236000D01*
X0038000Y0246000D02*
X0044000Y0246000D01*
X0353000Y0243500D02*
X0359000Y0243500D01*
X0359000Y0233500D02*
X0353000Y0233500D01*
X0353000Y0223500D02*
X0359000Y0223500D01*
X0356500Y0108500D02*
X0350500Y0108500D01*
X0350500Y0098500D02*
X0356500Y0098500D01*
X0356500Y0088500D02*
X0350500Y0088500D01*
D16*
X0346322Y0092524D02*
X0342383Y0092524D01*
X0342383Y0092735D02*
X0341507Y0094849D01*
X0340829Y0095528D01*
X0341507Y0096206D01*
X0342383Y0098320D01*
X0342383Y0100609D01*
X0341507Y0102723D01*
X0340829Y0103402D01*
X0341507Y0104080D01*
X0342383Y0106194D01*
X0342383Y0108483D01*
X0341507Y0110597D01*
X0339889Y0112216D01*
X0337774Y0113091D01*
X0335486Y0113091D01*
X0333371Y0112216D01*
X0331753Y0110597D01*
X0331217Y0109302D01*
X0330680Y0110597D01*
X0329062Y0112216D01*
X0326947Y0113091D01*
X0324659Y0113091D01*
X0322544Y0112216D01*
X0320926Y0110597D01*
X0320050Y0108483D01*
X0320050Y0106194D01*
X0320926Y0104080D01*
X0321605Y0103402D01*
X0320926Y0102723D01*
X0320050Y0100609D01*
X0320050Y0098320D01*
X0320926Y0096206D01*
X0321605Y0095528D01*
X0320926Y0094849D01*
X0320050Y0092735D01*
X0320050Y0090446D01*
X0320926Y0088332D01*
X0322544Y0086714D01*
X0324659Y0085838D01*
X0326947Y0085838D01*
X0329062Y0086714D01*
X0330680Y0088332D01*
X0331217Y0089627D01*
X0331753Y0088332D01*
X0333371Y0086714D01*
X0335486Y0085838D01*
X0337774Y0085838D01*
X0339889Y0086714D01*
X0341507Y0088332D01*
X0342383Y0090446D01*
X0342383Y0092735D01*
X0341808Y0094123D02*
X0346675Y0094123D01*
X0347215Y0093583D02*
X0347415Y0093500D01*
X0347215Y0093417D01*
X0345583Y0091785D01*
X0344700Y0089654D01*
X0344700Y0087346D01*
X0345583Y0085215D01*
X0347215Y0083583D01*
X0349346Y0082700D01*
X0357654Y0082700D01*
X0359785Y0083583D01*
X0361417Y0085215D01*
X0362300Y0087346D01*
X0362300Y0089654D01*
X0361417Y0091785D01*
X0359785Y0093417D01*
X0359585Y0093500D01*
X0359785Y0093583D01*
X0361417Y0095215D01*
X0362300Y0097346D01*
X0362300Y0099654D01*
X0361417Y0101785D01*
X0359785Y0103417D01*
X0359585Y0103500D01*
X0359785Y0103583D01*
X0361417Y0105215D01*
X0362300Y0107346D01*
X0362300Y0109654D01*
X0361417Y0111785D01*
X0359785Y0113417D01*
X0357654Y0114300D01*
X0349346Y0114300D01*
X0347215Y0113417D01*
X0345583Y0111785D01*
X0344700Y0109654D01*
X0344700Y0107346D01*
X0345583Y0105215D01*
X0347215Y0103583D01*
X0347415Y0103500D01*
X0347215Y0103417D01*
X0345583Y0101785D01*
X0344700Y0099654D01*
X0344700Y0097346D01*
X0345583Y0095215D01*
X0347215Y0093583D01*
X0345373Y0095721D02*
X0341022Y0095721D01*
X0341968Y0097320D02*
X0344711Y0097320D01*
X0344700Y0098918D02*
X0342383Y0098918D01*
X0342383Y0100517D02*
X0345057Y0100517D01*
X0345913Y0102115D02*
X0341759Y0102115D01*
X0341141Y0103714D02*
X0347084Y0103714D01*
X0345543Y0105312D02*
X0342017Y0105312D01*
X0342383Y0106911D02*
X0344880Y0106911D01*
X0344700Y0108509D02*
X0342372Y0108509D01*
X0341710Y0110108D02*
X0344888Y0110108D01*
X0345550Y0111706D02*
X0340398Y0111706D01*
X0339605Y0114903D02*
X0386200Y0114903D01*
X0386200Y0113305D02*
X0359898Y0113305D01*
X0361450Y0111706D02*
X0378292Y0111706D01*
X0378535Y0111950D02*
X0375050Y0108465D01*
X0375050Y0103535D01*
X0378535Y0100050D01*
X0383465Y0100050D01*
X0386200Y0102785D01*
X0386200Y0036000D01*
X0381970Y0036000D01*
X0380602Y0038368D01*
X0378368Y0040602D01*
X0375632Y0042182D01*
X0372580Y0043000D01*
X0369420Y0043000D01*
X0366368Y0042182D01*
X0364450Y0041075D01*
X0364450Y0043465D01*
X0360965Y0046950D01*
X0356035Y0046950D01*
X0352550Y0043465D01*
X0352550Y0038535D01*
X0355085Y0036000D01*
X0298500Y0036000D01*
X0298500Y0300401D01*
X0301134Y0301106D01*
X0304166Y0302857D01*
X0306643Y0305334D01*
X0308394Y0308366D01*
X0309300Y0311749D01*
X0309300Y0315251D01*
X0308429Y0318500D01*
X0386200Y0318500D01*
X0386200Y0225369D01*
X0383709Y0226036D01*
X0380890Y0226036D01*
X0378167Y0225307D01*
X0375726Y0223897D01*
X0373733Y0221904D01*
X0372323Y0219463D01*
X0371594Y0216740D01*
X0371594Y0213921D01*
X0372323Y0211199D01*
X0373733Y0208757D01*
X0375726Y0206764D01*
X0378167Y0205355D01*
X0380890Y0204625D01*
X0383709Y0204625D01*
X0386200Y0205293D01*
X0386200Y0176707D01*
X0383709Y0177375D01*
X0380890Y0177375D01*
X0378167Y0176645D01*
X0375726Y0175236D01*
X0373733Y0173243D01*
X0372323Y0170801D01*
X0371594Y0168079D01*
X0371594Y0165260D01*
X0372323Y0162537D01*
X0373733Y0160096D01*
X0375726Y0158103D01*
X0378167Y0156693D01*
X0380890Y0155964D01*
X0383709Y0155964D01*
X0386200Y0156631D01*
X0386200Y0109215D01*
X0383465Y0111950D01*
X0378535Y0111950D01*
X0376693Y0110108D02*
X0362112Y0110108D01*
X0362300Y0108509D02*
X0375095Y0108509D01*
X0375050Y0106911D02*
X0362120Y0106911D01*
X0361457Y0105312D02*
X0375050Y0105312D01*
X0375050Y0103714D02*
X0359916Y0103714D01*
X0361087Y0102115D02*
X0376470Y0102115D01*
X0378069Y0100517D02*
X0361943Y0100517D01*
X0362300Y0098918D02*
X0386200Y0098918D01*
X0386200Y0097320D02*
X0362289Y0097320D01*
X0361627Y0095721D02*
X0386200Y0095721D01*
X0386200Y0094123D02*
X0360325Y0094123D01*
X0360678Y0092524D02*
X0386200Y0092524D01*
X0386200Y0090926D02*
X0361773Y0090926D01*
X0362300Y0089327D02*
X0386200Y0089327D01*
X0386200Y0087729D02*
X0362300Y0087729D01*
X0361796Y0086130D02*
X0386200Y0086130D01*
X0386200Y0084532D02*
X0360734Y0084532D01*
X0358216Y0082933D02*
X0386200Y0082933D01*
X0386200Y0081334D02*
X0298500Y0081334D01*
X0298500Y0079736D02*
X0386200Y0079736D01*
X0386200Y0078137D02*
X0298500Y0078137D01*
X0298500Y0076539D02*
X0386200Y0076539D01*
X0386200Y0074940D02*
X0298500Y0074940D01*
X0298500Y0073342D02*
X0386200Y0073342D01*
X0386200Y0071743D02*
X0298500Y0071743D01*
X0298500Y0070145D02*
X0386200Y0070145D01*
X0386200Y0068546D02*
X0298500Y0068546D01*
X0298500Y0066948D02*
X0386200Y0066948D01*
X0386200Y0065349D02*
X0298500Y0065349D01*
X0298500Y0063751D02*
X0386200Y0063751D01*
X0386200Y0062152D02*
X0298500Y0062152D01*
X0298500Y0060554D02*
X0386200Y0060554D01*
X0386200Y0058955D02*
X0298500Y0058955D01*
X0298500Y0057357D02*
X0386200Y0057357D01*
X0386200Y0055758D02*
X0298500Y0055758D01*
X0298500Y0054160D02*
X0386200Y0054160D01*
X0386200Y0052561D02*
X0298500Y0052561D01*
X0298500Y0050963D02*
X0386200Y0050963D01*
X0386200Y0049364D02*
X0298500Y0049364D01*
X0298500Y0047766D02*
X0386200Y0047766D01*
X0386200Y0046167D02*
X0361747Y0046167D01*
X0363346Y0044569D02*
X0386200Y0044569D01*
X0386200Y0042970D02*
X0372691Y0042970D01*
X0369309Y0042970D02*
X0364450Y0042970D01*
X0364450Y0041372D02*
X0364964Y0041372D01*
X0377036Y0041372D02*
X0386200Y0041372D01*
X0386200Y0039773D02*
X0379197Y0039773D01*
X0380714Y0038175D02*
X0386200Y0038175D01*
X0386200Y0036576D02*
X0381637Y0036576D01*
X0354509Y0036576D02*
X0298500Y0036576D01*
X0298500Y0038175D02*
X0352911Y0038175D01*
X0352550Y0039773D02*
X0298500Y0039773D01*
X0298500Y0041372D02*
X0352550Y0041372D01*
X0352550Y0042970D02*
X0298500Y0042970D01*
X0298500Y0044569D02*
X0353654Y0044569D01*
X0355253Y0046167D02*
X0298500Y0046167D01*
X0268500Y0046167D02*
X0218458Y0046167D01*
X0218858Y0044569D02*
X0268500Y0044569D01*
X0268500Y0042970D02*
X0219257Y0042970D01*
X0219657Y0041372D02*
X0268500Y0041372D01*
X0268500Y0039773D02*
X0220057Y0039773D01*
X0220456Y0038175D02*
X0268175Y0038175D01*
X0268500Y0038500D02*
X0268500Y0063500D01*
X0266000Y0066000D01*
X0246000Y0066000D01*
X0241000Y0071000D01*
X0241000Y0093500D01*
X0246000Y0101000D01*
X0268500Y0101000D01*
X0271000Y0103500D01*
X0271000Y0126000D01*
X0268500Y0128500D01*
X0248500Y0128500D01*
X0226000Y0118500D01*
X0218938Y0099668D01*
X0220783Y0099668D01*
X0223108Y0098705D01*
X0224887Y0096925D01*
X0225850Y0094601D01*
X0225850Y0092084D01*
X0224887Y0089760D01*
X0223108Y0087980D01*
X0220783Y0087018D01*
X0211217Y0087018D01*
X0208892Y0087980D01*
X0208500Y0088373D01*
X0208500Y0056000D01*
X0216000Y0056000D01*
X0221000Y0036000D01*
X0208500Y0036000D01*
X0211000Y0033500D01*
X0263500Y0033500D01*
X0268500Y0038500D01*
X0266576Y0036576D02*
X0220856Y0036576D01*
X0226000Y0036000D02*
X0178500Y0036000D01*
X0156000Y0058500D01*
X0156000Y0298500D01*
X0173500Y0298500D01*
X0176495Y0296254D01*
X0176495Y0293921D01*
X0177225Y0291199D01*
X0178634Y0288757D01*
X0180627Y0286764D01*
X0183069Y0285355D01*
X0185791Y0284625D01*
X0188610Y0284625D01*
X0191108Y0285294D01*
X0193500Y0283500D01*
X0193500Y0255394D01*
X0191333Y0256645D01*
X0188610Y0257375D01*
X0185791Y0257375D01*
X0183069Y0256645D01*
X0180627Y0255236D01*
X0178634Y0253243D01*
X0177225Y0250801D01*
X0176495Y0248079D01*
X0176495Y0245260D01*
X0177225Y0242537D01*
X0178634Y0240096D01*
X0180627Y0238103D01*
X0183069Y0236693D01*
X0185791Y0235964D01*
X0188610Y0235964D01*
X0191333Y0236693D01*
X0193500Y0237944D01*
X0193500Y0233500D01*
X0216000Y0233500D01*
X0226036Y0219450D01*
X0223535Y0219450D01*
X0220050Y0215965D01*
X0220050Y0211035D01*
X0223535Y0207550D01*
X0228465Y0207550D01*
X0231950Y0211035D01*
X0231950Y0215965D01*
X0228465Y0219450D01*
X0223535Y0219450D01*
X0220050Y0215965D01*
X0220050Y0211035D01*
X0223535Y0207550D01*
X0228465Y0207550D01*
X0231950Y0211035D01*
X0231950Y0211170D01*
X0241000Y0198500D01*
X0241000Y0063500D01*
X0226000Y0036000D01*
X0226314Y0036576D02*
X0177924Y0036576D01*
X0176325Y0038175D02*
X0227186Y0038175D01*
X0228058Y0039773D02*
X0174727Y0039773D01*
X0173128Y0041372D02*
X0228930Y0041372D01*
X0229802Y0042970D02*
X0171530Y0042970D01*
X0169931Y0044569D02*
X0230674Y0044569D01*
X0231546Y0046167D02*
X0168333Y0046167D01*
X0166734Y0047766D02*
X0232418Y0047766D01*
X0233290Y0049364D02*
X0165136Y0049364D01*
X0163537Y0050963D02*
X0234162Y0050963D01*
X0235033Y0052561D02*
X0161939Y0052561D01*
X0160340Y0054160D02*
X0235905Y0054160D01*
X0236777Y0055758D02*
X0158742Y0055758D01*
X0157143Y0057357D02*
X0237649Y0057357D01*
X0238521Y0058955D02*
X0156000Y0058955D01*
X0156000Y0060554D02*
X0239393Y0060554D01*
X0240265Y0062152D02*
X0156000Y0062152D01*
X0156000Y0063751D02*
X0241000Y0063751D01*
X0241000Y0065349D02*
X0156000Y0065349D01*
X0156000Y0066948D02*
X0241000Y0066948D01*
X0241000Y0068546D02*
X0156000Y0068546D01*
X0156000Y0070145D02*
X0241000Y0070145D01*
X0241855Y0070145D02*
X0208500Y0070145D01*
X0208500Y0071743D02*
X0241000Y0071743D01*
X0156000Y0071743D01*
X0156000Y0073342D02*
X0241000Y0073342D01*
X0208500Y0073342D01*
X0208500Y0074940D02*
X0241000Y0074940D01*
X0156000Y0074940D01*
X0157366Y0074940D02*
X0126000Y0074940D01*
X0126000Y0073500D02*
X0126000Y0096000D01*
X0128500Y0098500D01*
X0151000Y0098500D01*
X0156000Y0106000D01*
X0156000Y0128500D01*
X0151000Y0133500D01*
X0131000Y0133500D01*
X0128500Y0136000D01*
X0128500Y0161000D01*
X0133500Y0166000D01*
X0153500Y0166000D01*
X0161000Y0161000D01*
X0176000Y0148500D01*
X0181000Y0143500D01*
X0188500Y0143500D01*
X0188500Y0101000D01*
X0178500Y0101000D01*
X0178000Y0099668D01*
X0173717Y0099668D01*
X0171392Y0098705D01*
X0169613Y0096925D01*
X0168650Y0094601D01*
X0168650Y0092084D01*
X0169613Y0089760D01*
X0171392Y0087980D01*
X0173318Y0087183D01*
X0171000Y0081000D01*
X0148500Y0071000D01*
X0128500Y0071000D01*
X0126000Y0073500D01*
X0126158Y0073342D02*
X0153769Y0073342D01*
X0156000Y0076539D02*
X0241000Y0076539D01*
X0208500Y0076539D01*
X0208500Y0078137D02*
X0241000Y0078137D01*
X0156000Y0078137D01*
X0156000Y0079736D02*
X0241000Y0079736D01*
X0208500Y0079736D01*
X0208500Y0081334D02*
X0241000Y0081334D01*
X0156000Y0081334D01*
X0156000Y0082933D02*
X0241000Y0082933D01*
X0208500Y0082933D01*
X0208500Y0084532D02*
X0241000Y0084532D01*
X0156000Y0084532D01*
X0156000Y0086130D02*
X0241000Y0086130D01*
X0208500Y0086130D01*
X0208500Y0087729D02*
X0209500Y0087729D01*
X0185000Y0087729D01*
X0185608Y0087980D02*
X0187387Y0089760D01*
X0188350Y0092084D01*
X0188350Y0094601D01*
X0187387Y0096925D01*
X0185608Y0098705D01*
X0183283Y0099668D01*
X0173717Y0099668D01*
X0171392Y0098705D01*
X0169613Y0096925D01*
X0168650Y0094601D01*
X0168650Y0092084D01*
X0169613Y0089760D01*
X0171392Y0087980D01*
X0173717Y0087018D01*
X0183283Y0087018D01*
X0185608Y0087980D01*
X0186954Y0089327D02*
X0207546Y0089327D01*
X0207113Y0089760D02*
X0208892Y0087980D01*
X0211217Y0087018D01*
X0220783Y0087018D01*
X0223108Y0087980D01*
X0224887Y0089760D01*
X0225850Y0092084D01*
X0225850Y0094601D01*
X0224887Y0096925D01*
X0223108Y0098705D01*
X0220783Y0099668D01*
X0211217Y0099668D01*
X0208892Y0098705D01*
X0207113Y0096925D01*
X0206150Y0094601D01*
X0206150Y0092084D01*
X0207113Y0089760D01*
X0206630Y0090926D02*
X0187870Y0090926D01*
X0188350Y0092524D02*
X0206150Y0092524D01*
X0206150Y0094123D02*
X0188350Y0094123D01*
X0187886Y0095721D02*
X0206614Y0095721D01*
X0207507Y0097320D02*
X0186993Y0097320D01*
X0185092Y0098918D02*
X0209408Y0098918D01*
X0219256Y0100517D02*
X0245678Y0100517D01*
X0244612Y0098918D02*
X0222592Y0098918D01*
X0241000Y0098918D01*
X0241000Y0097320D02*
X0224493Y0097320D01*
X0243546Y0097320D01*
X0242481Y0095721D02*
X0225386Y0095721D01*
X0241000Y0095721D01*
X0241000Y0094123D02*
X0225850Y0094123D01*
X0241415Y0094123D01*
X0241000Y0092524D02*
X0225850Y0092524D01*
X0241000Y0092524D01*
X0241000Y0090926D02*
X0225370Y0090926D01*
X0241000Y0090926D01*
X0241000Y0089327D02*
X0224454Y0089327D01*
X0241000Y0089327D01*
X0241000Y0087729D02*
X0222500Y0087729D01*
X0241000Y0087729D01*
X0241000Y0100517D02*
X0156000Y0100517D01*
X0156000Y0102115D02*
X0241000Y0102115D01*
X0241000Y0103714D02*
X0156000Y0103714D01*
X0154476Y0103714D02*
X0188500Y0103714D01*
X0188500Y0105312D02*
X0155541Y0105312D01*
X0156000Y0105312D02*
X0241000Y0105312D01*
X0241000Y0106911D02*
X0156000Y0106911D01*
X0188500Y0106911D01*
X0188500Y0108509D02*
X0156000Y0108509D01*
X0241000Y0108509D01*
X0241000Y0110108D02*
X0156000Y0110108D01*
X0188500Y0110108D01*
X0188500Y0111706D02*
X0156000Y0111706D01*
X0241000Y0111706D01*
X0241000Y0113305D02*
X0156000Y0113305D01*
X0188500Y0113305D01*
X0188500Y0114903D02*
X0156000Y0114903D01*
X0241000Y0114903D01*
X0241000Y0116502D02*
X0156000Y0116502D01*
X0188500Y0116502D01*
X0188500Y0118100D02*
X0156000Y0118100D01*
X0241000Y0118100D01*
X0241000Y0119699D02*
X0156000Y0119699D01*
X0188500Y0119699D01*
X0188500Y0121297D02*
X0156000Y0121297D01*
X0241000Y0121297D01*
X0241000Y0122896D02*
X0156000Y0122896D01*
X0188500Y0122896D01*
X0188500Y0124494D02*
X0156000Y0124494D01*
X0241000Y0124494D01*
X0239487Y0124494D02*
X0271000Y0124494D01*
X0271000Y0122896D02*
X0235891Y0122896D01*
X0232294Y0121297D02*
X0271000Y0121297D01*
X0271000Y0119699D02*
X0228697Y0119699D01*
X0225850Y0118100D02*
X0271000Y0118100D01*
X0271000Y0116502D02*
X0225251Y0116502D01*
X0224651Y0114903D02*
X0271000Y0114903D01*
X0271000Y0113305D02*
X0224052Y0113305D01*
X0223452Y0111706D02*
X0271000Y0111706D01*
X0271000Y0110108D02*
X0222853Y0110108D01*
X0222253Y0108509D02*
X0271000Y0108509D01*
X0271000Y0106911D02*
X0221654Y0106911D01*
X0221055Y0105312D02*
X0271000Y0105312D01*
X0271000Y0103714D02*
X0220455Y0103714D01*
X0219856Y0102115D02*
X0269615Y0102115D01*
X0298500Y0102115D02*
X0320674Y0102115D01*
X0321292Y0103714D02*
X0298500Y0103714D01*
X0298500Y0105312D02*
X0320416Y0105312D01*
X0320050Y0106911D02*
X0298500Y0106911D01*
X0298500Y0108509D02*
X0320061Y0108509D01*
X0320723Y0110108D02*
X0298500Y0110108D01*
X0298500Y0111706D02*
X0322035Y0111706D01*
X0322828Y0114903D02*
X0298500Y0114903D01*
X0298500Y0113305D02*
X0347102Y0113305D01*
X0341507Y0116639D02*
X0342383Y0118753D01*
X0342383Y0121042D01*
X0341507Y0123156D01*
X0340986Y0123677D01*
X0341507Y0124198D01*
X0342383Y0126312D01*
X0342383Y0128601D01*
X0341507Y0130715D01*
X0340986Y0131236D01*
X0341507Y0131757D01*
X0342383Y0133871D01*
X0342383Y0136160D01*
X0341507Y0138274D01*
X0340986Y0138795D01*
X0341507Y0139316D01*
X0342383Y0141430D01*
X0342383Y0143719D01*
X0341507Y0145833D01*
X0340986Y0146354D01*
X0341507Y0146875D01*
X0342383Y0148990D01*
X0342383Y0151278D01*
X0341507Y0153393D01*
X0340986Y0153913D01*
X0341507Y0154434D01*
X0342383Y0156549D01*
X0342383Y0158837D01*
X0341507Y0160952D01*
X0339889Y0162570D01*
X0337774Y0163446D01*
X0335486Y0163446D01*
X0333371Y0162570D01*
X0331753Y0160952D01*
X0331217Y0159656D01*
X0330680Y0160952D01*
X0329062Y0162570D01*
X0326947Y0163446D01*
X0324659Y0163446D01*
X0322544Y0162570D01*
X0320926Y0160952D01*
X0320050Y0158837D01*
X0320050Y0156549D01*
X0320926Y0154434D01*
X0321447Y0153913D01*
X0320926Y0153393D01*
X0320050Y0151278D01*
X0320050Y0148990D01*
X0320926Y0146875D01*
X0321447Y0146354D01*
X0320926Y0145833D01*
X0320050Y0143719D01*
X0320050Y0141430D01*
X0320926Y0139316D01*
X0321447Y0138795D01*
X0320926Y0138274D01*
X0320050Y0136160D01*
X0320050Y0133871D01*
X0320926Y0131757D01*
X0321447Y0131236D01*
X0320926Y0130715D01*
X0320050Y0128601D01*
X0320050Y0126312D01*
X0320926Y0124198D01*
X0321447Y0123677D01*
X0320926Y0123156D01*
X0320050Y0121042D01*
X0320050Y0118753D01*
X0320926Y0116639D01*
X0322544Y0115021D01*
X0324659Y0114145D01*
X0326947Y0114145D01*
X0329062Y0115021D01*
X0330680Y0116639D01*
X0331217Y0117934D01*
X0331753Y0116639D01*
X0333371Y0115021D01*
X0335486Y0114145D01*
X0337774Y0114145D01*
X0339889Y0115021D01*
X0341507Y0116639D01*
X0341370Y0116502D02*
X0386200Y0116502D01*
X0386200Y0118100D02*
X0342112Y0118100D01*
X0342383Y0119699D02*
X0386200Y0119699D01*
X0386200Y0121297D02*
X0342277Y0121297D01*
X0341615Y0122896D02*
X0386200Y0122896D01*
X0386200Y0124494D02*
X0341630Y0124494D01*
X0342292Y0126093D02*
X0386200Y0126093D01*
X0386200Y0127691D02*
X0342383Y0127691D01*
X0342097Y0129290D02*
X0386200Y0129290D01*
X0386200Y0130888D02*
X0341334Y0130888D01*
X0341809Y0132487D02*
X0386200Y0132487D01*
X0386200Y0134085D02*
X0342383Y0134085D01*
X0342383Y0135684D02*
X0386200Y0135684D01*
X0386200Y0137282D02*
X0341918Y0137282D01*
X0341072Y0138881D02*
X0386200Y0138881D01*
X0386200Y0140479D02*
X0341989Y0140479D01*
X0342383Y0142078D02*
X0386200Y0142078D01*
X0386200Y0143676D02*
X0342383Y0143676D01*
X0341738Y0145275D02*
X0386200Y0145275D01*
X0386200Y0146873D02*
X0341505Y0146873D01*
X0342168Y0148472D02*
X0386200Y0148472D01*
X0386200Y0150070D02*
X0342383Y0150070D01*
X0342221Y0151669D02*
X0386200Y0151669D01*
X0386200Y0153268D02*
X0341559Y0153268D01*
X0341686Y0154866D02*
X0386200Y0154866D01*
X0386200Y0156465D02*
X0385577Y0156465D01*
X0379021Y0156465D02*
X0342348Y0156465D01*
X0342383Y0158063D02*
X0375795Y0158063D01*
X0374167Y0159662D02*
X0342041Y0159662D01*
X0341198Y0161260D02*
X0373061Y0161260D01*
X0372237Y0162859D02*
X0339192Y0162859D01*
X0334068Y0162859D02*
X0328365Y0162859D01*
X0330372Y0161260D02*
X0332061Y0161260D01*
X0331219Y0159662D02*
X0331214Y0159662D01*
X0323242Y0162859D02*
X0298500Y0162859D01*
X0298500Y0164457D02*
X0371809Y0164457D01*
X0371594Y0166056D02*
X0298500Y0166056D01*
X0298500Y0167654D02*
X0371594Y0167654D01*
X0371908Y0169253D02*
X0298500Y0169253D01*
X0298500Y0170851D02*
X0372352Y0170851D01*
X0373275Y0172450D02*
X0298500Y0172450D01*
X0298500Y0174048D02*
X0374538Y0174048D01*
X0376437Y0175647D02*
X0298500Y0175647D01*
X0298500Y0177245D02*
X0380406Y0177245D01*
X0384192Y0177245D02*
X0386200Y0177245D01*
X0386200Y0178844D02*
X0298500Y0178844D01*
X0298500Y0180442D02*
X0386200Y0180442D01*
X0386200Y0182041D02*
X0298500Y0182041D01*
X0298500Y0183639D02*
X0355124Y0183639D01*
X0353962Y0184120D02*
X0356945Y0182885D01*
X0360173Y0182885D01*
X0363156Y0184120D01*
X0365439Y0186403D01*
X0366674Y0189386D01*
X0366674Y0192614D01*
X0365439Y0195597D01*
X0363156Y0197880D01*
X0360173Y0199115D01*
X0356945Y0199115D01*
X0353962Y0197880D01*
X0351680Y0195597D01*
X0350444Y0192614D01*
X0350444Y0189386D01*
X0351680Y0186403D01*
X0353962Y0184120D01*
X0352845Y0185238D02*
X0298500Y0185238D01*
X0298500Y0186836D02*
X0351500Y0186836D01*
X0350838Y0188435D02*
X0298500Y0188435D01*
X0298500Y0190033D02*
X0350444Y0190033D01*
X0350444Y0191632D02*
X0298500Y0191632D01*
X0298500Y0193230D02*
X0350699Y0193230D01*
X0351361Y0194829D02*
X0298500Y0194829D01*
X0298500Y0196427D02*
X0352510Y0196427D01*
X0354316Y0198026D02*
X0298500Y0198026D01*
X0298500Y0199624D02*
X0386200Y0199624D01*
X0386200Y0198026D02*
X0362803Y0198026D01*
X0364608Y0196427D02*
X0386200Y0196427D01*
X0386200Y0194829D02*
X0365757Y0194829D01*
X0366419Y0193230D02*
X0386200Y0193230D01*
X0386200Y0191632D02*
X0366674Y0191632D01*
X0366674Y0190033D02*
X0386200Y0190033D01*
X0386200Y0188435D02*
X0366280Y0188435D01*
X0365618Y0186836D02*
X0386200Y0186836D01*
X0386200Y0185238D02*
X0364273Y0185238D01*
X0361994Y0183639D02*
X0386200Y0183639D01*
X0386200Y0201223D02*
X0298500Y0201223D01*
X0298500Y0202821D02*
X0386200Y0202821D01*
X0386200Y0204420D02*
X0298500Y0204420D01*
X0298500Y0206018D02*
X0377018Y0206018D01*
X0374873Y0207617D02*
X0298500Y0207617D01*
X0298500Y0209215D02*
X0373468Y0209215D01*
X0372545Y0210814D02*
X0298500Y0210814D01*
X0298500Y0212412D02*
X0371998Y0212412D01*
X0371594Y0214011D02*
X0298500Y0214011D01*
X0298500Y0215609D02*
X0371594Y0215609D01*
X0371719Y0217208D02*
X0298500Y0217208D01*
X0298500Y0218806D02*
X0349491Y0218806D01*
X0349715Y0218583D02*
X0351846Y0217700D01*
X0360154Y0217700D01*
X0362285Y0218583D01*
X0363917Y0220215D01*
X0364800Y0222346D01*
X0364800Y0224654D01*
X0363917Y0226785D01*
X0362285Y0228417D01*
X0362085Y0228500D01*
X0362285Y0228583D01*
X0363917Y0230215D01*
X0364800Y0232346D01*
X0364800Y0234654D01*
X0363917Y0236785D01*
X0362285Y0238417D01*
X0362085Y0238500D01*
X0362285Y0238583D01*
X0363917Y0240215D01*
X0364800Y0242346D01*
X0364800Y0244654D01*
X0363917Y0246785D01*
X0362285Y0248417D01*
X0360154Y0249300D01*
X0351846Y0249300D01*
X0349715Y0248417D01*
X0348083Y0246785D01*
X0347799Y0246100D01*
X0341004Y0246100D01*
X0339889Y0247216D01*
X0337774Y0248091D01*
X0335486Y0248091D01*
X0333371Y0247216D01*
X0331753Y0245597D01*
X0331480Y0244939D01*
X0330953Y0244939D01*
X0330680Y0245597D01*
X0329062Y0247216D01*
X0326947Y0248091D01*
X0324659Y0248091D01*
X0322544Y0247216D01*
X0320926Y0245597D01*
X0320050Y0243483D01*
X0320050Y0241194D01*
X0320926Y0239080D01*
X0321605Y0238402D01*
X0320926Y0237723D01*
X0320050Y0235609D01*
X0320050Y0233320D01*
X0320926Y0231206D01*
X0321605Y0230528D01*
X0320926Y0229849D01*
X0320050Y0227735D01*
X0320050Y0225446D01*
X0320926Y0223332D01*
X0322544Y0221714D01*
X0324659Y0220838D01*
X0326947Y0220838D01*
X0329062Y0221714D01*
X0330680Y0223332D01*
X0330953Y0223991D01*
X0331480Y0223991D01*
X0331753Y0223332D01*
X0333371Y0221714D01*
X0335486Y0220838D01*
X0337774Y0220838D01*
X0338564Y0221165D01*
X0339203Y0220900D01*
X0347799Y0220900D01*
X0348083Y0220215D01*
X0349715Y0218583D01*
X0348004Y0220405D02*
X0298500Y0220405D01*
X0298500Y0222003D02*
X0322255Y0222003D01*
X0320814Y0223602D02*
X0298500Y0223602D01*
X0298500Y0225201D02*
X0320152Y0225201D01*
X0320050Y0226799D02*
X0298500Y0226799D01*
X0298500Y0228398D02*
X0320325Y0228398D01*
X0321073Y0229996D02*
X0298500Y0229996D01*
X0298500Y0231595D02*
X0320765Y0231595D01*
X0320103Y0233193D02*
X0298500Y0233193D01*
X0298500Y0234792D02*
X0320050Y0234792D01*
X0320374Y0236390D02*
X0298500Y0236390D01*
X0298500Y0237989D02*
X0321192Y0237989D01*
X0320716Y0239587D02*
X0298500Y0239587D01*
X0298500Y0241186D02*
X0320054Y0241186D01*
X0320050Y0242784D02*
X0298500Y0242784D01*
X0298500Y0244383D02*
X0320423Y0244383D01*
X0321310Y0245981D02*
X0298500Y0245981D01*
X0298500Y0247580D02*
X0323424Y0247580D01*
X0324578Y0249178D02*
X0298500Y0249178D01*
X0298500Y0250777D02*
X0321788Y0250777D01*
X0322544Y0250021D02*
X0324659Y0249145D01*
X0326947Y0249145D01*
X0329062Y0250021D01*
X0330680Y0251639D01*
X0331217Y0252934D01*
X0331753Y0251639D01*
X0333371Y0250021D01*
X0335486Y0249145D01*
X0337774Y0249145D01*
X0339889Y0250021D01*
X0341507Y0251639D01*
X0342383Y0253753D01*
X0342383Y0256042D01*
X0341507Y0258156D01*
X0340986Y0258677D01*
X0341507Y0259198D01*
X0342383Y0261312D01*
X0342383Y0263601D01*
X0341507Y0265715D01*
X0340986Y0266236D01*
X0341507Y0266757D01*
X0342383Y0268871D01*
X0342383Y0271160D01*
X0341507Y0273274D01*
X0340986Y0273795D01*
X0341507Y0274316D01*
X0342383Y0276430D01*
X0342383Y0278719D01*
X0341507Y0280833D01*
X0340986Y0281354D01*
X0341507Y0281875D01*
X0342383Y0283990D01*
X0342383Y0286278D01*
X0341507Y0288393D01*
X0340986Y0288913D01*
X0341507Y0289434D01*
X0342383Y0291549D01*
X0342383Y0293837D01*
X0341507Y0295952D01*
X0339889Y0297570D01*
X0337774Y0298446D01*
X0335486Y0298446D01*
X0333371Y0297570D01*
X0331753Y0295952D01*
X0331217Y0294656D01*
X0330680Y0295952D01*
X0329062Y0297570D01*
X0326947Y0298446D01*
X0324659Y0298446D01*
X0322544Y0297570D01*
X0320926Y0295952D01*
X0320050Y0293837D01*
X0320050Y0291549D01*
X0320926Y0289434D01*
X0321447Y0288913D01*
X0320926Y0288393D01*
X0320050Y0286278D01*
X0320050Y0283990D01*
X0320926Y0281875D01*
X0321447Y0281354D01*
X0320926Y0280833D01*
X0320050Y0278719D01*
X0320050Y0276430D01*
X0320926Y0274316D01*
X0321447Y0273795D01*
X0320926Y0273274D01*
X0320050Y0271160D01*
X0320050Y0268871D01*
X0320926Y0266757D01*
X0321447Y0266236D01*
X0320926Y0265715D01*
X0320050Y0263601D01*
X0320050Y0261312D01*
X0320926Y0259198D01*
X0321447Y0258677D01*
X0320926Y0258156D01*
X0320050Y0256042D01*
X0320050Y0253753D01*
X0320926Y0251639D01*
X0322544Y0250021D01*
X0320621Y0252375D02*
X0298500Y0252375D01*
X0298500Y0253974D02*
X0320050Y0253974D01*
X0320050Y0255572D02*
X0298500Y0255572D01*
X0298500Y0257171D02*
X0320518Y0257171D01*
X0321355Y0258769D02*
X0298500Y0258769D01*
X0298500Y0260368D02*
X0320442Y0260368D01*
X0320050Y0261966D02*
X0298500Y0261966D01*
X0298500Y0263565D02*
X0320050Y0263565D01*
X0320698Y0265163D02*
X0298500Y0265163D01*
X0298500Y0266762D02*
X0320924Y0266762D01*
X0320262Y0268360D02*
X0298500Y0268360D01*
X0298500Y0269959D02*
X0320050Y0269959D01*
X0320215Y0271557D02*
X0298500Y0271557D01*
X0298500Y0273156D02*
X0320877Y0273156D01*
X0320745Y0274754D02*
X0298500Y0274754D01*
X0298500Y0276353D02*
X0320083Y0276353D01*
X0320050Y0277951D02*
X0298500Y0277951D01*
X0298500Y0279550D02*
X0320395Y0279550D01*
X0321241Y0281148D02*
X0298500Y0281148D01*
X0298500Y0282747D02*
X0320565Y0282747D01*
X0320050Y0284345D02*
X0298500Y0284345D01*
X0298500Y0285944D02*
X0320050Y0285944D01*
X0320574Y0287542D02*
X0298500Y0287542D01*
X0298500Y0289141D02*
X0321219Y0289141D01*
X0320386Y0290739D02*
X0298500Y0290739D01*
X0298500Y0292338D02*
X0320050Y0292338D01*
X0320092Y0293937D02*
X0298500Y0293937D01*
X0298500Y0295535D02*
X0320754Y0295535D01*
X0322108Y0297134D02*
X0298500Y0297134D01*
X0298500Y0298732D02*
X0361340Y0298732D01*
X0361398Y0298632D02*
X0363632Y0296398D01*
X0366368Y0294818D01*
X0369420Y0294000D01*
X0372580Y0294000D01*
X0375632Y0294818D01*
X0378368Y0296398D01*
X0380602Y0298632D01*
X0382182Y0301368D01*
X0383000Y0304420D01*
X0383000Y0307580D01*
X0382182Y0310632D01*
X0380602Y0313368D01*
X0378368Y0315602D01*
X0375632Y0317182D01*
X0372580Y0318000D01*
X0369420Y0318000D01*
X0366368Y0317182D01*
X0363632Y0315602D01*
X0361398Y0313368D01*
X0359818Y0310632D01*
X0359000Y0307580D01*
X0359000Y0304420D01*
X0359818Y0301368D01*
X0361398Y0298632D01*
X0360417Y0300331D02*
X0298500Y0300331D01*
X0302559Y0301929D02*
X0359667Y0301929D01*
X0359239Y0303528D02*
X0304837Y0303528D01*
X0306435Y0305126D02*
X0359000Y0305126D01*
X0359000Y0306725D02*
X0307446Y0306725D01*
X0308369Y0308323D02*
X0359199Y0308323D01*
X0359627Y0309922D02*
X0308810Y0309922D01*
X0309239Y0311520D02*
X0360331Y0311520D01*
X0361254Y0313119D02*
X0309300Y0313119D01*
X0309300Y0314717D02*
X0362747Y0314717D01*
X0364867Y0316316D02*
X0309015Y0316316D01*
X0308586Y0317914D02*
X0369100Y0317914D01*
X0372900Y0317914D02*
X0386200Y0317914D01*
X0386200Y0316316D02*
X0377133Y0316316D01*
X0379253Y0314717D02*
X0386200Y0314717D01*
X0386200Y0313119D02*
X0380746Y0313119D01*
X0381669Y0311520D02*
X0386200Y0311520D01*
X0386200Y0309922D02*
X0382373Y0309922D01*
X0382801Y0308323D02*
X0386200Y0308323D01*
X0386200Y0306725D02*
X0383000Y0306725D01*
X0383000Y0305126D02*
X0386200Y0305126D01*
X0386200Y0303528D02*
X0382761Y0303528D01*
X0382332Y0301929D02*
X0386200Y0301929D01*
X0386200Y0300331D02*
X0381583Y0300331D01*
X0380660Y0298732D02*
X0386200Y0298732D01*
X0386200Y0297134D02*
X0379104Y0297134D01*
X0376874Y0295535D02*
X0386200Y0295535D01*
X0386200Y0293937D02*
X0342342Y0293937D01*
X0342383Y0292338D02*
X0386200Y0292338D01*
X0386200Y0290739D02*
X0342048Y0290739D01*
X0341214Y0289141D02*
X0386200Y0289141D01*
X0386200Y0287542D02*
X0341859Y0287542D01*
X0342383Y0285944D02*
X0386200Y0285944D01*
X0386200Y0284345D02*
X0342383Y0284345D01*
X0341868Y0282747D02*
X0386200Y0282747D01*
X0386200Y0281148D02*
X0341192Y0281148D01*
X0342039Y0279550D02*
X0386200Y0279550D01*
X0386200Y0277951D02*
X0342383Y0277951D01*
X0342351Y0276353D02*
X0386200Y0276353D01*
X0386200Y0274754D02*
X0341688Y0274754D01*
X0341556Y0273156D02*
X0386200Y0273156D01*
X0386200Y0271557D02*
X0342218Y0271557D01*
X0342383Y0269959D02*
X0386200Y0269959D01*
X0386200Y0268360D02*
X0342171Y0268360D01*
X0341509Y0266762D02*
X0386200Y0266762D01*
X0386200Y0265163D02*
X0341736Y0265163D01*
X0342383Y0263565D02*
X0386200Y0263565D01*
X0386200Y0261966D02*
X0342383Y0261966D01*
X0341991Y0260368D02*
X0386200Y0260368D01*
X0386200Y0258769D02*
X0341078Y0258769D01*
X0341915Y0257171D02*
X0386200Y0257171D01*
X0386200Y0255572D02*
X0342383Y0255572D01*
X0342383Y0253974D02*
X0386200Y0253974D01*
X0386200Y0252375D02*
X0341812Y0252375D01*
X0340645Y0250777D02*
X0386200Y0250777D01*
X0386200Y0249178D02*
X0360448Y0249178D01*
X0363123Y0247580D02*
X0386200Y0247580D01*
X0386200Y0245981D02*
X0364250Y0245981D01*
X0364800Y0244383D02*
X0386200Y0244383D01*
X0386200Y0242784D02*
X0364800Y0242784D01*
X0364319Y0241186D02*
X0386200Y0241186D01*
X0386200Y0239587D02*
X0363290Y0239587D01*
X0362714Y0237989D02*
X0386200Y0237989D01*
X0386200Y0236390D02*
X0364081Y0236390D01*
X0364743Y0234792D02*
X0386200Y0234792D01*
X0386200Y0233193D02*
X0364800Y0233193D01*
X0364489Y0231595D02*
X0386200Y0231595D01*
X0386200Y0229996D02*
X0363698Y0229996D01*
X0362305Y0228398D02*
X0386200Y0228398D01*
X0386200Y0226799D02*
X0363903Y0226799D01*
X0364573Y0225201D02*
X0377983Y0225201D01*
X0375431Y0223602D02*
X0364800Y0223602D01*
X0364658Y0222003D02*
X0373832Y0222003D01*
X0372867Y0220405D02*
X0363996Y0220405D01*
X0362509Y0218806D02*
X0372147Y0218806D01*
X0356000Y0223500D02*
X0339720Y0223500D01*
X0336630Y0226591D01*
X0325803Y0226591D01*
X0329352Y0222003D02*
X0333081Y0222003D01*
X0331641Y0223602D02*
X0330792Y0223602D01*
X0325803Y0234465D02*
X0336630Y0234465D01*
X0337594Y0233500D01*
X0356000Y0233500D01*
X0356000Y0243500D02*
X0337791Y0243500D01*
X0336630Y0242339D01*
X0325803Y0242339D01*
X0328183Y0247580D02*
X0334250Y0247580D01*
X0335405Y0249178D02*
X0327028Y0249178D01*
X0329818Y0250777D02*
X0332615Y0250777D01*
X0331448Y0252375D02*
X0330985Y0252375D01*
X0337855Y0249178D02*
X0351552Y0249178D01*
X0348877Y0247580D02*
X0339009Y0247580D01*
X0332137Y0245981D02*
X0330296Y0245981D01*
X0271000Y0245981D02*
X0223180Y0245981D01*
X0222581Y0244383D02*
X0271000Y0244383D01*
X0271000Y0242784D02*
X0221982Y0242784D01*
X0221382Y0241186D02*
X0271000Y0241186D01*
X0271000Y0239587D02*
X0220783Y0239587D01*
X0220183Y0237989D02*
X0270489Y0237989D01*
X0271000Y0238500D02*
X0268500Y0236000D01*
X0246000Y0236000D01*
X0241000Y0228500D01*
X0241000Y0206000D01*
X0246000Y0201000D01*
X0266000Y0201000D01*
X0268500Y0198500D01*
X0268500Y0173500D01*
X0263500Y0168500D01*
X0243500Y0168500D01*
X0238500Y0176000D01*
X0221000Y0186000D01*
X0208500Y0191000D01*
X0201000Y0191000D01*
X0201000Y0233500D01*
X0218500Y0233500D01*
X0226000Y0253500D01*
X0248500Y0263500D01*
X0268500Y0263500D01*
X0271000Y0261000D01*
X0271000Y0238500D01*
X0268890Y0236390D02*
X0219584Y0236390D01*
X0218984Y0234792D02*
X0245194Y0234792D01*
X0244129Y0233193D02*
X0201000Y0233193D01*
X0201000Y0231595D02*
X0243063Y0231595D01*
X0241997Y0229996D02*
X0201000Y0229996D01*
X0201000Y0228398D02*
X0241000Y0228398D01*
X0241000Y0226799D02*
X0201000Y0226799D01*
X0201000Y0225201D02*
X0241000Y0225201D01*
X0241000Y0223602D02*
X0201000Y0223602D01*
X0201000Y0222003D02*
X0241000Y0222003D01*
X0241000Y0220405D02*
X0201000Y0220405D01*
X0201000Y0218806D02*
X0222892Y0218806D01*
X0156000Y0218806D01*
X0156000Y0217208D02*
X0221293Y0217208D01*
X0201000Y0217208D01*
X0201000Y0215609D02*
X0220050Y0215609D01*
X0156000Y0215609D01*
X0156000Y0214011D02*
X0220050Y0214011D01*
X0201000Y0214011D01*
X0201000Y0212412D02*
X0220050Y0212412D01*
X0196864Y0212412D01*
X0196925Y0212387D02*
X0194601Y0213350D01*
X0192084Y0213350D01*
X0189760Y0212387D01*
X0187980Y0210608D01*
X0187018Y0208283D01*
X0187018Y0198717D01*
X0187980Y0196392D01*
X0189760Y0194613D01*
X0192084Y0193650D01*
X0194601Y0193650D01*
X0196925Y0194613D01*
X0198705Y0196392D01*
X0199668Y0198717D01*
X0199668Y0208283D01*
X0198705Y0210608D01*
X0196925Y0212387D01*
X0198498Y0210814D02*
X0220272Y0210814D01*
X0201000Y0210814D01*
X0201000Y0209215D02*
X0221870Y0209215D01*
X0199281Y0209215D01*
X0199668Y0207617D02*
X0223469Y0207617D01*
X0201000Y0207617D01*
X0201000Y0206018D02*
X0241000Y0206018D01*
X0241000Y0207617D02*
X0228531Y0207617D01*
X0234488Y0207617D01*
X0233346Y0209215D02*
X0230130Y0209215D01*
X0241000Y0209215D01*
X0241000Y0210814D02*
X0231728Y0210814D01*
X0232204Y0210814D01*
X0231950Y0212412D02*
X0241000Y0212412D01*
X0241000Y0214011D02*
X0231950Y0214011D01*
X0231950Y0215609D02*
X0241000Y0215609D01*
X0241000Y0217208D02*
X0230707Y0217208D01*
X0229108Y0218806D02*
X0241000Y0218806D01*
X0225354Y0220405D02*
X0156000Y0220405D01*
X0156000Y0222003D02*
X0224212Y0222003D01*
X0223070Y0223602D02*
X0156000Y0223602D01*
X0156000Y0225201D02*
X0221928Y0225201D01*
X0220786Y0226799D02*
X0156000Y0226799D01*
X0156000Y0228398D02*
X0219645Y0228398D01*
X0218503Y0229996D02*
X0156000Y0229996D01*
X0156000Y0231595D02*
X0217361Y0231595D01*
X0216219Y0233193D02*
X0156000Y0233193D01*
X0156000Y0234792D02*
X0193500Y0234792D01*
X0193500Y0236390D02*
X0190201Y0236390D01*
X0184200Y0236390D02*
X0156000Y0236390D01*
X0156000Y0237989D02*
X0180825Y0237989D01*
X0180230Y0238500D02*
X0178500Y0238500D01*
X0171000Y0218500D01*
X0148500Y0208500D01*
X0128500Y0208500D01*
X0126000Y0211000D01*
X0126000Y0233500D01*
X0128500Y0236000D01*
X0151000Y0236000D01*
X0156000Y0243500D01*
X0156000Y0266000D01*
X0151000Y0271000D01*
X0131000Y0271000D01*
X0128500Y0273500D01*
X0128500Y0298500D01*
X0133500Y0303500D01*
X0153500Y0303500D01*
X0161000Y0298500D01*
X0176000Y0286000D01*
X0181000Y0281000D01*
X0188500Y0281000D01*
X0188500Y0257375D01*
X0185791Y0257375D01*
X0183069Y0256645D01*
X0180627Y0255236D01*
X0178634Y0253243D01*
X0177225Y0250801D01*
X0176495Y0248079D01*
X0176495Y0245260D01*
X0177225Y0242537D01*
X0178634Y0240096D01*
X0180230Y0238500D01*
X0179143Y0239587D02*
X0156000Y0239587D01*
X0156000Y0241186D02*
X0178005Y0241186D01*
X0154457Y0241186D01*
X0155523Y0242784D02*
X0177159Y0242784D01*
X0156000Y0242784D01*
X0156000Y0244383D02*
X0176730Y0244383D01*
X0156000Y0244383D01*
X0156000Y0245981D02*
X0176495Y0245981D01*
X0156000Y0245981D01*
X0156000Y0247580D02*
X0176495Y0247580D01*
X0156000Y0247580D01*
X0156000Y0249178D02*
X0176790Y0249178D01*
X0156000Y0249178D01*
X0156000Y0250777D02*
X0177218Y0250777D01*
X0156000Y0250777D01*
X0156000Y0252375D02*
X0178133Y0252375D01*
X0156000Y0252375D01*
X0156000Y0253974D02*
X0179365Y0253974D01*
X0156000Y0253974D01*
X0156000Y0255572D02*
X0181210Y0255572D01*
X0156000Y0255572D01*
X0156000Y0257171D02*
X0185030Y0257171D01*
X0156000Y0257171D01*
X0156000Y0258769D02*
X0193500Y0258769D01*
X0193500Y0257171D02*
X0189372Y0257171D01*
X0188500Y0258769D02*
X0156000Y0258769D01*
X0156000Y0260368D02*
X0193500Y0260368D01*
X0193500Y0261966D02*
X0156000Y0261966D01*
X0188500Y0261966D01*
X0188500Y0260368D02*
X0156000Y0260368D01*
X0156000Y0263565D02*
X0193500Y0263565D01*
X0193500Y0265163D02*
X0156000Y0265163D01*
X0188500Y0265163D01*
X0188500Y0263565D02*
X0156000Y0263565D01*
X0156000Y0266762D02*
X0193500Y0266762D01*
X0193500Y0268360D02*
X0156000Y0268360D01*
X0156000Y0269959D02*
X0193500Y0269959D01*
X0193500Y0271557D02*
X0156000Y0271557D01*
X0156000Y0273156D02*
X0193500Y0273156D01*
X0193500Y0274754D02*
X0156000Y0274754D01*
X0156000Y0276353D02*
X0193500Y0276353D01*
X0193500Y0277951D02*
X0156000Y0277951D01*
X0156000Y0279550D02*
X0193500Y0279550D01*
X0193500Y0281148D02*
X0156000Y0281148D01*
X0156000Y0282747D02*
X0193500Y0282747D01*
X0192373Y0284345D02*
X0156000Y0284345D01*
X0156000Y0285944D02*
X0182048Y0285944D01*
X0179849Y0287542D02*
X0156000Y0287542D01*
X0156000Y0289141D02*
X0178413Y0289141D01*
X0177490Y0290739D02*
X0156000Y0290739D01*
X0156000Y0292338D02*
X0176920Y0292338D01*
X0176495Y0293937D02*
X0156000Y0293937D01*
X0156000Y0295535D02*
X0176495Y0295535D01*
X0175322Y0297134D02*
X0156000Y0297134D01*
X0158254Y0300331D02*
X0130331Y0300331D01*
X0131929Y0301929D02*
X0155856Y0301929D01*
X0160652Y0298732D02*
X0128732Y0298732D01*
X0128500Y0297134D02*
X0162640Y0297134D01*
X0164558Y0295535D02*
X0128500Y0295535D01*
X0128500Y0293937D02*
X0166476Y0293937D01*
X0168394Y0292338D02*
X0128500Y0292338D01*
X0128500Y0290739D02*
X0170313Y0290739D01*
X0172231Y0289141D02*
X0128500Y0289141D01*
X0128500Y0287542D02*
X0174149Y0287542D01*
X0176056Y0285944D02*
X0128500Y0285944D01*
X0128500Y0284345D02*
X0177655Y0284345D01*
X0179253Y0282747D02*
X0128500Y0282747D01*
X0128500Y0281148D02*
X0180852Y0281148D01*
X0188500Y0279550D02*
X0128500Y0279550D01*
X0128500Y0277951D02*
X0188500Y0277951D01*
X0188500Y0276353D02*
X0128500Y0276353D01*
X0128500Y0274754D02*
X0188500Y0274754D01*
X0188500Y0273156D02*
X0128844Y0273156D01*
X0130443Y0271557D02*
X0188500Y0271557D01*
X0188500Y0269959D02*
X0152041Y0269959D01*
X0153640Y0268360D02*
X0188500Y0268360D01*
X0188500Y0266762D02*
X0155238Y0266762D01*
X0193191Y0255572D02*
X0193500Y0255572D01*
X0223780Y0247580D02*
X0271000Y0247580D01*
X0271000Y0249178D02*
X0224379Y0249178D01*
X0224979Y0250777D02*
X0271000Y0250777D01*
X0271000Y0252375D02*
X0225578Y0252375D01*
X0227066Y0253974D02*
X0271000Y0253974D01*
X0271000Y0255572D02*
X0230663Y0255572D01*
X0234259Y0257171D02*
X0271000Y0257171D01*
X0271000Y0258769D02*
X0237856Y0258769D01*
X0241452Y0260368D02*
X0271000Y0260368D01*
X0270034Y0261966D02*
X0245049Y0261966D01*
X0179143Y0239587D02*
X0153391Y0239587D01*
X0152326Y0237989D02*
X0178308Y0237989D01*
X0177709Y0236390D02*
X0151260Y0236390D01*
X0127292Y0234792D02*
X0177109Y0234792D01*
X0176510Y0233193D02*
X0126000Y0233193D01*
X0126000Y0231595D02*
X0175910Y0231595D01*
X0175311Y0229996D02*
X0126000Y0229996D01*
X0126000Y0228398D02*
X0174712Y0228398D01*
X0174112Y0226799D02*
X0126000Y0226799D01*
X0126000Y0225201D02*
X0173513Y0225201D01*
X0172913Y0223602D02*
X0126000Y0223602D01*
X0126000Y0222003D02*
X0172314Y0222003D01*
X0171714Y0220405D02*
X0126000Y0220405D01*
X0126000Y0218806D02*
X0171115Y0218806D01*
X0168093Y0217208D02*
X0126000Y0217208D01*
X0126000Y0215609D02*
X0164496Y0215609D01*
X0160900Y0214011D02*
X0126000Y0214011D01*
X0126000Y0212412D02*
X0157303Y0212412D01*
X0156000Y0212412D02*
X0189821Y0212412D01*
X0188187Y0210814D02*
X0156000Y0210814D01*
X0156000Y0209215D02*
X0187404Y0209215D01*
X0187018Y0207617D02*
X0156000Y0207617D01*
X0156000Y0206018D02*
X0187018Y0206018D01*
X0187018Y0204420D02*
X0156000Y0204420D01*
X0156000Y0202821D02*
X0187018Y0202821D01*
X0187018Y0201223D02*
X0156000Y0201223D01*
X0156000Y0199624D02*
X0187018Y0199624D01*
X0187304Y0198026D02*
X0156000Y0198026D01*
X0156000Y0196427D02*
X0187966Y0196427D01*
X0189544Y0194829D02*
X0156000Y0194829D01*
X0156000Y0193230D02*
X0210355Y0193230D01*
X0201000Y0193230D01*
X0201000Y0191632D02*
X0211954Y0191632D01*
X0156000Y0191632D01*
X0156000Y0190033D02*
X0241000Y0190033D01*
X0241000Y0188435D02*
X0156000Y0188435D01*
X0156000Y0186836D02*
X0241000Y0186836D01*
X0241000Y0185238D02*
X0156000Y0185238D01*
X0156000Y0183639D02*
X0241000Y0183639D01*
X0241000Y0182041D02*
X0156000Y0182041D01*
X0156000Y0180442D02*
X0241000Y0180442D01*
X0241000Y0178844D02*
X0222772Y0178844D01*
X0223108Y0178705D02*
X0220783Y0179668D01*
X0211217Y0179668D01*
X0208892Y0178705D01*
X0207113Y0176925D01*
X0206150Y0174601D01*
X0206150Y0172084D01*
X0207113Y0169760D01*
X0208892Y0167980D01*
X0211217Y0167018D01*
X0220783Y0167018D01*
X0223108Y0167980D01*
X0224887Y0169760D01*
X0225850Y0172084D01*
X0225850Y0174601D01*
X0224887Y0176925D01*
X0223108Y0178705D01*
X0224567Y0177245D02*
X0241000Y0177245D01*
X0241000Y0175647D02*
X0225417Y0175647D01*
X0225850Y0174048D02*
X0241000Y0174048D01*
X0239801Y0174048D02*
X0268500Y0174048D01*
X0268500Y0175647D02*
X0238736Y0175647D01*
X0236321Y0177245D02*
X0268500Y0177245D01*
X0268500Y0178844D02*
X0233524Y0178844D01*
X0230726Y0180442D02*
X0268500Y0180442D01*
X0268500Y0182041D02*
X0227929Y0182041D01*
X0225131Y0183639D02*
X0268500Y0183639D01*
X0268500Y0185238D02*
X0222334Y0185238D01*
X0218909Y0186836D02*
X0268500Y0186836D01*
X0268500Y0188435D02*
X0214913Y0188435D01*
X0213535Y0190050D02*
X0218465Y0190050D01*
X0221950Y0193535D01*
X0221950Y0198465D01*
X0218465Y0201950D01*
X0213535Y0201950D01*
X0210050Y0198465D01*
X0210050Y0193535D01*
X0213535Y0190050D01*
X0218465Y0190050D01*
X0221950Y0193535D01*
X0221950Y0198465D01*
X0218465Y0201950D01*
X0213535Y0201950D01*
X0210050Y0198465D01*
X0210050Y0193535D01*
X0213535Y0190050D01*
X0210917Y0190033D02*
X0268500Y0190033D01*
X0268500Y0191632D02*
X0220046Y0191632D01*
X0241000Y0191632D01*
X0241000Y0193230D02*
X0221645Y0193230D01*
X0268500Y0193230D01*
X0268500Y0194829D02*
X0221950Y0194829D01*
X0241000Y0194829D01*
X0241000Y0196427D02*
X0221950Y0196427D01*
X0268500Y0196427D01*
X0268500Y0198026D02*
X0221950Y0198026D01*
X0241000Y0198026D01*
X0240197Y0199624D02*
X0220790Y0199624D01*
X0267376Y0199624D01*
X0245777Y0201223D02*
X0219192Y0201223D01*
X0239055Y0201223D01*
X0237913Y0202821D02*
X0199668Y0202821D01*
X0201000Y0202821D02*
X0244179Y0202821D01*
X0242580Y0204420D02*
X0201000Y0204420D01*
X0199668Y0204420D02*
X0236772Y0204420D01*
X0235630Y0206018D02*
X0199668Y0206018D01*
X0199668Y0201223D02*
X0212808Y0201223D01*
X0201000Y0201223D01*
X0201000Y0199624D02*
X0211210Y0199624D01*
X0199668Y0199624D01*
X0199381Y0198026D02*
X0210050Y0198026D01*
X0201000Y0198026D01*
X0201000Y0196427D02*
X0210050Y0196427D01*
X0198719Y0196427D01*
X0197141Y0194829D02*
X0210050Y0194829D01*
X0201000Y0194829D01*
X0185608Y0178705D02*
X0183283Y0179668D01*
X0173717Y0179668D01*
X0171392Y0178705D01*
X0169613Y0176925D01*
X0168650Y0174601D01*
X0168650Y0172084D01*
X0169613Y0169760D01*
X0171392Y0167980D01*
X0173717Y0167018D01*
X0183283Y0167018D01*
X0185608Y0167980D01*
X0187387Y0169760D01*
X0188350Y0172084D01*
X0188350Y0174601D01*
X0187387Y0176925D01*
X0185608Y0178705D01*
X0185272Y0178844D02*
X0209228Y0178844D01*
X0207433Y0177245D02*
X0187067Y0177245D01*
X0187917Y0175647D02*
X0206583Y0175647D01*
X0206150Y0174048D02*
X0188350Y0174048D01*
X0188350Y0172450D02*
X0206150Y0172450D01*
X0206661Y0170851D02*
X0187839Y0170851D01*
X0186880Y0169253D02*
X0207620Y0169253D01*
X0209680Y0167654D02*
X0184820Y0167654D01*
X0172180Y0167654D02*
X0156000Y0167654D01*
X0156000Y0166056D02*
X0241000Y0166056D01*
X0241000Y0167654D02*
X0222320Y0167654D01*
X0224380Y0169253D02*
X0241000Y0169253D01*
X0241000Y0170851D02*
X0225339Y0170851D01*
X0225850Y0172450D02*
X0241000Y0172450D01*
X0240867Y0172450D02*
X0267450Y0172450D01*
X0265851Y0170851D02*
X0241933Y0170851D01*
X0242998Y0169253D02*
X0264253Y0169253D01*
X0241000Y0164457D02*
X0156000Y0164457D01*
X0155814Y0164457D02*
X0131957Y0164457D01*
X0130359Y0162859D02*
X0158212Y0162859D01*
X0156000Y0162859D02*
X0241000Y0162859D01*
X0241000Y0161260D02*
X0156000Y0161260D01*
X0156000Y0159662D02*
X0241000Y0159662D01*
X0241000Y0158063D02*
X0156000Y0158063D01*
X0156000Y0156465D02*
X0241000Y0156465D01*
X0241000Y0154866D02*
X0156000Y0154866D01*
X0156000Y0153268D02*
X0241000Y0153268D01*
X0241000Y0151669D02*
X0156000Y0151669D01*
X0156000Y0150070D02*
X0241000Y0150070D01*
X0241000Y0148472D02*
X0156000Y0148472D01*
X0156000Y0146873D02*
X0241000Y0146873D01*
X0241000Y0145275D02*
X0156000Y0145275D01*
X0156000Y0143676D02*
X0241000Y0143676D01*
X0241000Y0142078D02*
X0156000Y0142078D01*
X0156000Y0140479D02*
X0241000Y0140479D01*
X0241000Y0138881D02*
X0222682Y0138881D01*
X0223108Y0138705D02*
X0220783Y0139668D01*
X0211217Y0139668D01*
X0208892Y0138705D01*
X0207113Y0136925D01*
X0206150Y0134601D01*
X0206150Y0132084D01*
X0207113Y0129760D01*
X0208892Y0127980D01*
X0211217Y0127018D01*
X0220783Y0127018D01*
X0223108Y0127980D01*
X0224887Y0129760D01*
X0225850Y0132084D01*
X0225850Y0134601D01*
X0224887Y0136925D01*
X0223108Y0138705D01*
X0224530Y0137282D02*
X0241000Y0137282D01*
X0241000Y0135684D02*
X0225401Y0135684D01*
X0225850Y0134085D02*
X0241000Y0134085D01*
X0241000Y0132487D02*
X0225850Y0132487D01*
X0225355Y0130888D02*
X0241000Y0130888D01*
X0241000Y0129290D02*
X0224417Y0129290D01*
X0222410Y0127691D02*
X0241000Y0127691D01*
X0241000Y0126093D02*
X0156000Y0126093D01*
X0188500Y0126093D01*
X0188500Y0127691D02*
X0184910Y0127691D01*
X0209590Y0127691D01*
X0207583Y0129290D02*
X0186917Y0129290D01*
X0188500Y0129290D01*
X0187387Y0129760D02*
X0188350Y0132084D01*
X0188350Y0134601D01*
X0187387Y0136925D01*
X0185608Y0138705D01*
X0183283Y0139668D01*
X0173717Y0139668D01*
X0171392Y0138705D01*
X0169613Y0136925D01*
X0168650Y0134601D01*
X0168650Y0132084D01*
X0169613Y0129760D01*
X0171392Y0127980D01*
X0173717Y0127018D01*
X0183283Y0127018D01*
X0185608Y0127980D01*
X0187387Y0129760D01*
X0188350Y0132084D01*
X0188350Y0134601D01*
X0187387Y0136925D01*
X0185608Y0138705D01*
X0183283Y0139668D01*
X0173717Y0139668D01*
X0171392Y0138705D01*
X0169613Y0136925D01*
X0168650Y0134601D01*
X0168650Y0132084D01*
X0169613Y0129760D01*
X0171392Y0127980D01*
X0173717Y0127018D01*
X0183283Y0127018D01*
X0185608Y0127980D01*
X0187387Y0129760D01*
X0187855Y0130888D02*
X0188500Y0130888D01*
X0187855Y0130888D02*
X0206645Y0130888D01*
X0206150Y0132487D02*
X0188350Y0132487D01*
X0188500Y0132487D01*
X0188500Y0134085D02*
X0188350Y0134085D01*
X0206150Y0134085D01*
X0206599Y0135684D02*
X0187901Y0135684D01*
X0188500Y0135684D01*
X0188500Y0137282D02*
X0187030Y0137282D01*
X0207470Y0137282D01*
X0209318Y0138881D02*
X0185182Y0138881D01*
X0188500Y0138881D01*
X0188500Y0140479D02*
X0128500Y0140479D01*
X0128500Y0138881D02*
X0171818Y0138881D01*
X0156000Y0138881D01*
X0156000Y0137282D02*
X0169970Y0137282D01*
X0128500Y0137282D01*
X0128816Y0135684D02*
X0169099Y0135684D01*
X0156000Y0135684D01*
X0156000Y0134085D02*
X0168650Y0134085D01*
X0130415Y0134085D01*
X0128500Y0142078D02*
X0188500Y0142078D01*
X0180824Y0143676D02*
X0128500Y0143676D01*
X0128500Y0145275D02*
X0179225Y0145275D01*
X0177627Y0146873D02*
X0128500Y0146873D01*
X0128500Y0148472D02*
X0176028Y0148472D01*
X0174115Y0150070D02*
X0128500Y0150070D01*
X0128500Y0151669D02*
X0172197Y0151669D01*
X0170279Y0153268D02*
X0128500Y0153268D01*
X0128500Y0154866D02*
X0168361Y0154866D01*
X0166443Y0156465D02*
X0128500Y0156465D01*
X0128500Y0158063D02*
X0164524Y0158063D01*
X0162606Y0159662D02*
X0128500Y0159662D01*
X0128760Y0161260D02*
X0160610Y0161260D01*
X0156000Y0169253D02*
X0170120Y0169253D01*
X0169161Y0170851D02*
X0156000Y0170851D01*
X0156000Y0172450D02*
X0168650Y0172450D01*
X0168650Y0174048D02*
X0156000Y0174048D01*
X0156000Y0175647D02*
X0169083Y0175647D01*
X0169933Y0177245D02*
X0156000Y0177245D01*
X0156000Y0178844D02*
X0171728Y0178844D01*
X0153706Y0210814D02*
X0126186Y0210814D01*
X0127785Y0209215D02*
X0150110Y0209215D01*
X0098500Y0209215D02*
X0076950Y0209215D01*
X0076950Y0208399D02*
X0076950Y0210688D01*
X0076074Y0212802D01*
X0075553Y0213323D01*
X0076074Y0213844D01*
X0076950Y0215958D01*
X0076950Y0218247D01*
X0076074Y0220361D01*
X0074456Y0221979D01*
X0072341Y0222855D01*
X0070053Y0222855D01*
X0067938Y0221979D01*
X0066320Y0220361D01*
X0065783Y0219066D01*
X0065247Y0220361D01*
X0063629Y0221979D01*
X0061514Y0222855D01*
X0059226Y0222855D01*
X0057111Y0221979D01*
X0055493Y0220361D01*
X0054617Y0218247D01*
X0054617Y0215958D01*
X0055493Y0213844D01*
X0056014Y0213323D01*
X0055493Y0212802D01*
X0054617Y0210688D01*
X0054617Y0208399D01*
X0055493Y0206285D01*
X0056014Y0205764D01*
X0055493Y0205243D01*
X0054617Y0203129D01*
X0054617Y0200840D01*
X0055493Y0198726D01*
X0056014Y0198205D01*
X0055493Y0197684D01*
X0054617Y0195569D01*
X0054617Y0193281D01*
X0055493Y0191167D01*
X0056014Y0190646D01*
X0055493Y0190125D01*
X0054617Y0188010D01*
X0054617Y0185722D01*
X0055493Y0183607D01*
X0056014Y0183087D01*
X0055493Y0182566D01*
X0054617Y0180451D01*
X0054617Y0178163D01*
X0055493Y0176048D01*
X0057111Y0174430D01*
X0059226Y0173554D01*
X0061514Y0173554D01*
X0063629Y0174430D01*
X0065247Y0176048D01*
X0065783Y0177344D01*
X0066320Y0176048D01*
X0067938Y0174430D01*
X0070053Y0173554D01*
X0072341Y0173554D01*
X0074456Y0174430D01*
X0076074Y0176048D01*
X0076950Y0178163D01*
X0076950Y0180451D01*
X0076074Y0182566D01*
X0075553Y0183087D01*
X0076074Y0183607D01*
X0076950Y0185722D01*
X0076950Y0188010D01*
X0076074Y0190125D01*
X0075553Y0190646D01*
X0076074Y0191167D01*
X0076950Y0193281D01*
X0076950Y0195569D01*
X0076074Y0197684D01*
X0075553Y0198205D01*
X0076074Y0198726D01*
X0076950Y0200840D01*
X0076950Y0203129D01*
X0076074Y0205243D01*
X0075553Y0205764D01*
X0076074Y0206285D01*
X0076950Y0208399D01*
X0076626Y0207617D02*
X0098500Y0207617D01*
X0098500Y0206018D02*
X0075808Y0206018D01*
X0076415Y0204420D02*
X0098500Y0204420D01*
X0098500Y0202821D02*
X0076950Y0202821D01*
X0076950Y0201223D02*
X0098500Y0201223D01*
X0098500Y0199624D02*
X0076446Y0199624D01*
X0075732Y0198026D02*
X0098500Y0198026D01*
X0098500Y0196427D02*
X0076594Y0196427D01*
X0076950Y0194829D02*
X0098500Y0194829D01*
X0098500Y0193230D02*
X0076929Y0193230D01*
X0076266Y0191632D02*
X0098500Y0191632D01*
X0098500Y0190033D02*
X0076112Y0190033D01*
X0076774Y0188435D02*
X0098500Y0188435D01*
X0098500Y0186836D02*
X0076950Y0186836D01*
X0076749Y0185238D02*
X0098500Y0185238D01*
X0098500Y0183639D02*
X0076087Y0183639D01*
X0076291Y0182041D02*
X0098500Y0182041D01*
X0098500Y0180442D02*
X0076950Y0180442D01*
X0076950Y0178844D02*
X0098500Y0178844D01*
X0098500Y0177245D02*
X0076570Y0177245D01*
X0075672Y0175647D02*
X0098500Y0175647D01*
X0098500Y0174048D02*
X0073533Y0174048D01*
X0068860Y0174048D02*
X0062707Y0174048D01*
X0064845Y0175647D02*
X0066722Y0175647D01*
X0065824Y0177245D02*
X0065743Y0177245D01*
X0058034Y0174048D02*
X0024720Y0174048D01*
X0023774Y0173103D02*
X0025767Y0175096D01*
X0027177Y0177537D01*
X0027906Y0180260D01*
X0027906Y0183079D01*
X0027177Y0185801D01*
X0025767Y0188243D01*
X0023774Y0190236D01*
X0021333Y0191645D01*
X0018610Y0192375D01*
X0015791Y0192375D01*
X0013069Y0191645D01*
X0010627Y0190236D01*
X0008634Y0188243D01*
X0008500Y0188010D01*
X0008500Y0223990D01*
X0008634Y0223757D01*
X0010627Y0221764D01*
X0013069Y0220355D01*
X0015791Y0219625D01*
X0018610Y0219625D01*
X0021333Y0220355D01*
X0023774Y0221764D01*
X0025767Y0223757D01*
X0027177Y0226199D01*
X0027906Y0228921D01*
X0027906Y0231740D01*
X0027177Y0234463D01*
X0025767Y0236904D01*
X0023774Y0238897D01*
X0021333Y0240307D01*
X0018610Y0241036D01*
X0015791Y0241036D01*
X0013069Y0240307D01*
X0010627Y0238897D01*
X0008634Y0236904D01*
X0008500Y0236672D01*
X0008500Y0318500D01*
X0088571Y0318500D01*
X0087700Y0315251D01*
X0087700Y0311749D01*
X0088606Y0308366D01*
X0090357Y0305334D01*
X0092834Y0302857D01*
X0095866Y0301106D01*
X0098500Y0300401D01*
X0098500Y0036599D01*
X0096263Y0036000D01*
X0051915Y0036000D01*
X0051950Y0036035D01*
X0051950Y0040965D01*
X0048465Y0044450D01*
X0043535Y0044450D01*
X0040050Y0040965D01*
X0040050Y0036035D01*
X0040085Y0036000D01*
X0031970Y0036000D01*
X0030602Y0038368D01*
X0028368Y0040602D01*
X0025632Y0042182D01*
X0022580Y0043000D01*
X0019420Y0043000D01*
X0016368Y0042182D01*
X0013632Y0040602D01*
X0011398Y0038368D01*
X0010030Y0036000D01*
X0008500Y0036000D01*
X0008500Y0085085D01*
X0008535Y0085050D01*
X0013465Y0085050D01*
X0016950Y0088535D01*
X0016950Y0093465D01*
X0013465Y0096950D01*
X0008535Y0096950D01*
X0008500Y0096915D01*
X0008500Y0175328D01*
X0008634Y0175096D01*
X0010627Y0173103D01*
X0013069Y0171693D01*
X0015791Y0170964D01*
X0018610Y0170964D01*
X0021333Y0171693D01*
X0023774Y0173103D01*
X0022643Y0172450D02*
X0098500Y0172450D01*
X0098500Y0170851D02*
X0008500Y0170851D01*
X0008500Y0169253D02*
X0098500Y0169253D01*
X0098500Y0167654D02*
X0008500Y0167654D01*
X0008500Y0166056D02*
X0098500Y0166056D01*
X0098500Y0164457D02*
X0008500Y0164457D01*
X0008500Y0162859D02*
X0098500Y0162859D01*
X0098500Y0161260D02*
X0008500Y0161260D01*
X0008500Y0159662D02*
X0098500Y0159662D01*
X0098500Y0158063D02*
X0008500Y0158063D01*
X0008500Y0156465D02*
X0098500Y0156465D01*
X0098500Y0154866D02*
X0008500Y0154866D01*
X0008500Y0153268D02*
X0098500Y0153268D01*
X0098500Y0151669D02*
X0008500Y0151669D01*
X0008500Y0150070D02*
X0098500Y0150070D01*
X0098500Y0148472D02*
X0008500Y0148472D01*
X0008500Y0146873D02*
X0098500Y0146873D01*
X0098500Y0145275D02*
X0008500Y0145275D01*
X0008500Y0143676D02*
X0098500Y0143676D01*
X0098500Y0142078D02*
X0008500Y0142078D01*
X0008500Y0140479D02*
X0098500Y0140479D01*
X0098500Y0138881D02*
X0008500Y0138881D01*
X0008500Y0137282D02*
X0098500Y0137282D01*
X0098500Y0135684D02*
X0008500Y0135684D01*
X0008500Y0134085D02*
X0098500Y0134085D01*
X0098500Y0132487D02*
X0008500Y0132487D01*
X0008500Y0130888D02*
X0098500Y0130888D01*
X0098500Y0129290D02*
X0008500Y0129290D01*
X0008500Y0127691D02*
X0098500Y0127691D01*
X0098500Y0126093D02*
X0008500Y0126093D01*
X0008500Y0124494D02*
X0098500Y0124494D01*
X0098500Y0122896D02*
X0008500Y0122896D01*
X0008500Y0121297D02*
X0098500Y0121297D01*
X0098500Y0119699D02*
X0008500Y0119699D01*
X0008500Y0118100D02*
X0098500Y0118100D01*
X0098500Y0116502D02*
X0008500Y0116502D01*
X0008500Y0114903D02*
X0098500Y0114903D01*
X0098500Y0113305D02*
X0073204Y0113305D01*
X0072341Y0113662D02*
X0070053Y0113662D01*
X0067938Y0112786D01*
X0066320Y0111168D01*
X0066047Y0110509D01*
X0065520Y0110509D01*
X0065247Y0111168D01*
X0063629Y0112786D01*
X0061514Y0113662D01*
X0059226Y0113662D01*
X0057111Y0112786D01*
X0055493Y0111168D01*
X0055465Y0111100D01*
X0049201Y0111100D01*
X0048917Y0111785D01*
X0047285Y0113417D01*
X0045154Y0114300D01*
X0036846Y0114300D01*
X0034715Y0113417D01*
X0033083Y0111785D01*
X0032200Y0109654D01*
X0032200Y0107346D01*
X0033083Y0105215D01*
X0034715Y0103583D01*
X0034915Y0103500D01*
X0034715Y0103417D01*
X0033083Y0101785D01*
X0032200Y0099654D01*
X0032200Y0097346D01*
X0033083Y0095215D01*
X0034715Y0093583D01*
X0034915Y0093500D01*
X0034715Y0093417D01*
X0033083Y0091785D01*
X0032200Y0089654D01*
X0032200Y0087346D01*
X0033083Y0085215D01*
X0034715Y0083583D01*
X0036846Y0082700D01*
X0045154Y0082700D01*
X0047285Y0083583D01*
X0048917Y0085215D01*
X0049201Y0085900D01*
X0057226Y0085900D01*
X0058181Y0086296D01*
X0058567Y0086681D01*
X0059226Y0086409D01*
X0061514Y0086409D01*
X0063629Y0087284D01*
X0065247Y0088903D01*
X0065520Y0089561D01*
X0066047Y0089561D01*
X0066320Y0088903D01*
X0067938Y0087284D01*
X0070053Y0086409D01*
X0072341Y0086409D01*
X0074456Y0087284D01*
X0076074Y0088903D01*
X0076950Y0091017D01*
X0076950Y0093306D01*
X0076074Y0095420D01*
X0075395Y0096098D01*
X0076074Y0096777D01*
X0076950Y0098891D01*
X0076950Y0101180D01*
X0076074Y0103294D01*
X0075395Y0103972D01*
X0076074Y0104651D01*
X0076950Y0106765D01*
X0076950Y0109054D01*
X0076074Y0111168D01*
X0074456Y0112786D01*
X0072341Y0113662D01*
X0069190Y0113305D02*
X0062377Y0113305D01*
X0064709Y0111706D02*
X0066858Y0111706D01*
X0071197Y0107909D02*
X0060370Y0107909D01*
X0059780Y0108500D01*
X0041000Y0108500D01*
X0047398Y0113305D02*
X0058363Y0113305D01*
X0056031Y0111706D02*
X0048950Y0111706D01*
X0034602Y0113305D02*
X0008500Y0113305D01*
X0008500Y0111706D02*
X0033050Y0111706D01*
X0032388Y0110108D02*
X0008500Y0110108D01*
X0008500Y0108509D02*
X0032200Y0108509D01*
X0032380Y0106911D02*
X0008500Y0106911D01*
X0008500Y0105312D02*
X0033043Y0105312D01*
X0034584Y0103714D02*
X0008500Y0103714D01*
X0008500Y0102115D02*
X0033413Y0102115D01*
X0032557Y0100517D02*
X0008500Y0100517D01*
X0008500Y0098918D02*
X0032200Y0098918D01*
X0032211Y0097320D02*
X0008500Y0097320D01*
X0014693Y0095721D02*
X0032873Y0095721D01*
X0034175Y0094123D02*
X0016292Y0094123D01*
X0016950Y0092524D02*
X0033822Y0092524D01*
X0032727Y0090926D02*
X0016950Y0090926D01*
X0016950Y0089327D02*
X0032200Y0089327D01*
X0032200Y0087729D02*
X0016143Y0087729D01*
X0014545Y0086130D02*
X0032704Y0086130D01*
X0033766Y0084532D02*
X0008500Y0084532D01*
X0008500Y0082933D02*
X0036284Y0082933D01*
X0041000Y0088500D02*
X0056709Y0088500D01*
X0060370Y0092161D01*
X0071197Y0092161D01*
X0076611Y0094123D02*
X0098500Y0094123D01*
X0098500Y0095721D02*
X0075773Y0095721D01*
X0076299Y0097320D02*
X0098500Y0097320D01*
X0098500Y0098918D02*
X0076950Y0098918D01*
X0076950Y0100517D02*
X0098500Y0100517D01*
X0098500Y0102115D02*
X0076562Y0102115D01*
X0075654Y0103714D02*
X0098500Y0103714D01*
X0098500Y0105312D02*
X0076348Y0105312D01*
X0076950Y0106911D02*
X0098500Y0106911D01*
X0098500Y0108509D02*
X0076950Y0108509D01*
X0076513Y0110108D02*
X0098500Y0110108D01*
X0098500Y0111706D02*
X0075536Y0111706D01*
X0071197Y0100035D02*
X0060370Y0100035D01*
X0058835Y0098500D01*
X0041000Y0098500D01*
X0065423Y0089327D02*
X0066144Y0089327D01*
X0067494Y0087729D02*
X0064073Y0087729D01*
X0063503Y0084532D02*
X0068064Y0084532D01*
X0067938Y0084479D02*
X0066320Y0082861D01*
X0065783Y0081566D01*
X0065247Y0082861D01*
X0063629Y0084479D01*
X0061514Y0085355D01*
X0059226Y0085355D01*
X0057111Y0084479D01*
X0055493Y0082861D01*
X0054617Y0080747D01*
X0054617Y0078458D01*
X0055493Y0076344D01*
X0056014Y0075823D01*
X0055493Y0075302D01*
X0054617Y0073188D01*
X0054617Y0070899D01*
X0055493Y0068785D01*
X0056014Y0068264D01*
X0055493Y0067743D01*
X0054617Y0065629D01*
X0054617Y0063340D01*
X0055493Y0061226D01*
X0056014Y0060705D01*
X0055493Y0060184D01*
X0054617Y0058069D01*
X0054617Y0055781D01*
X0055493Y0053667D01*
X0056014Y0053146D01*
X0055493Y0052625D01*
X0054617Y0050510D01*
X0054617Y0048222D01*
X0055493Y0046107D01*
X0056014Y0045587D01*
X0055493Y0045066D01*
X0054617Y0042951D01*
X0054617Y0040663D01*
X0055493Y0038548D01*
X0057111Y0036930D01*
X0059226Y0036054D01*
X0061514Y0036054D01*
X0063629Y0036930D01*
X0065247Y0038548D01*
X0065783Y0039844D01*
X0066320Y0038548D01*
X0067938Y0036930D01*
X0070053Y0036054D01*
X0072341Y0036054D01*
X0074456Y0036930D01*
X0076074Y0038548D01*
X0076950Y0040663D01*
X0076950Y0042951D01*
X0076074Y0045066D01*
X0075553Y0045587D01*
X0076074Y0046107D01*
X0076950Y0048222D01*
X0076950Y0050510D01*
X0076074Y0052625D01*
X0075553Y0053146D01*
X0076074Y0053667D01*
X0076950Y0055781D01*
X0076950Y0058069D01*
X0076074Y0060184D01*
X0075553Y0060705D01*
X0076074Y0061226D01*
X0076950Y0063340D01*
X0076950Y0065629D01*
X0076074Y0067743D01*
X0075553Y0068264D01*
X0076074Y0068785D01*
X0076950Y0070899D01*
X0076950Y0073188D01*
X0076074Y0075302D01*
X0075553Y0075823D01*
X0076074Y0076344D01*
X0076950Y0078458D01*
X0076950Y0080747D01*
X0076074Y0082861D01*
X0074456Y0084479D01*
X0072341Y0085355D01*
X0070053Y0085355D01*
X0067938Y0084479D01*
X0066392Y0082933D02*
X0065175Y0082933D01*
X0057781Y0086130D02*
X0098500Y0086130D01*
X0098500Y0084532D02*
X0074329Y0084532D01*
X0076002Y0082933D02*
X0098500Y0082933D01*
X0098500Y0081334D02*
X0076706Y0081334D01*
X0076950Y0079736D02*
X0098500Y0079736D01*
X0098500Y0078137D02*
X0076817Y0078137D01*
X0076155Y0076539D02*
X0098500Y0076539D01*
X0098500Y0074940D02*
X0076224Y0074940D01*
X0076886Y0073342D02*
X0098500Y0073342D01*
X0098500Y0071743D02*
X0076950Y0071743D01*
X0076637Y0070145D02*
X0098500Y0070145D01*
X0098500Y0068546D02*
X0075836Y0068546D01*
X0076403Y0066948D02*
X0098500Y0066948D01*
X0098500Y0065349D02*
X0076950Y0065349D01*
X0076950Y0063751D02*
X0098500Y0063751D01*
X0098500Y0062152D02*
X0076458Y0062152D01*
X0075704Y0060554D02*
X0098500Y0060554D01*
X0098500Y0058955D02*
X0076583Y0058955D01*
X0076950Y0057357D02*
X0098500Y0057357D01*
X0098500Y0055758D02*
X0076940Y0055758D01*
X0076278Y0054160D02*
X0098500Y0054160D01*
X0098500Y0052561D02*
X0076100Y0052561D01*
X0076762Y0050963D02*
X0098500Y0050963D01*
X0098500Y0049364D02*
X0076950Y0049364D01*
X0076761Y0047766D02*
X0098500Y0047766D01*
X0098500Y0046167D02*
X0076099Y0046167D01*
X0076280Y0044569D02*
X0098500Y0044569D01*
X0098500Y0042970D02*
X0076942Y0042970D01*
X0076950Y0041372D02*
X0098500Y0041372D01*
X0098500Y0039773D02*
X0076581Y0039773D01*
X0075700Y0038175D02*
X0098500Y0038175D01*
X0098414Y0036576D02*
X0073601Y0036576D01*
X0068793Y0036576D02*
X0062774Y0036576D01*
X0064873Y0038175D02*
X0066694Y0038175D01*
X0065813Y0039773D02*
X0065754Y0039773D01*
X0057966Y0036576D02*
X0051950Y0036576D01*
X0051950Y0038175D02*
X0055867Y0038175D01*
X0054986Y0039773D02*
X0051950Y0039773D01*
X0051543Y0041372D02*
X0054617Y0041372D01*
X0054625Y0042970D02*
X0049944Y0042970D01*
X0055287Y0044569D02*
X0008500Y0044569D01*
X0008500Y0046167D02*
X0055468Y0046167D01*
X0054806Y0047766D02*
X0008500Y0047766D01*
X0008500Y0049364D02*
X0054617Y0049364D01*
X0054805Y0050963D02*
X0008500Y0050963D01*
X0008500Y0052561D02*
X0055467Y0052561D01*
X0055289Y0054160D02*
X0008500Y0054160D01*
X0008500Y0055758D02*
X0054627Y0055758D01*
X0054617Y0057357D02*
X0008500Y0057357D01*
X0008500Y0058955D02*
X0054984Y0058955D01*
X0055863Y0060554D02*
X0008500Y0060554D01*
X0008500Y0062152D02*
X0055109Y0062152D01*
X0054617Y0063751D02*
X0008500Y0063751D01*
X0008500Y0065349D02*
X0054617Y0065349D01*
X0055164Y0066948D02*
X0008500Y0066948D01*
X0008500Y0068546D02*
X0055731Y0068546D01*
X0054930Y0070145D02*
X0008500Y0070145D01*
X0008500Y0071743D02*
X0054617Y0071743D01*
X0054681Y0073342D02*
X0008500Y0073342D01*
X0008500Y0074940D02*
X0055343Y0074940D01*
X0055412Y0076539D02*
X0008500Y0076539D01*
X0008500Y0078137D02*
X0054750Y0078137D01*
X0054617Y0079736D02*
X0008500Y0079736D01*
X0008500Y0081334D02*
X0054861Y0081334D01*
X0055565Y0082933D02*
X0045716Y0082933D01*
X0048234Y0084532D02*
X0057237Y0084532D01*
X0074900Y0087729D02*
X0098500Y0087729D01*
X0098500Y0089327D02*
X0076250Y0089327D01*
X0076912Y0090926D02*
X0098500Y0090926D01*
X0098500Y0092524D02*
X0076950Y0092524D01*
X0126000Y0092524D02*
X0168650Y0092524D01*
X0156000Y0092524D01*
X0156000Y0090926D02*
X0169130Y0090926D01*
X0126000Y0090926D01*
X0126000Y0089327D02*
X0170046Y0089327D01*
X0156000Y0089327D01*
X0156000Y0087729D02*
X0172000Y0087729D01*
X0126000Y0087729D01*
X0126000Y0086130D02*
X0172924Y0086130D01*
X0172324Y0084532D02*
X0126000Y0084532D01*
X0126000Y0082933D02*
X0171725Y0082933D01*
X0171125Y0081334D02*
X0126000Y0081334D01*
X0126000Y0079736D02*
X0168156Y0079736D01*
X0164559Y0078137D02*
X0126000Y0078137D01*
X0126000Y0076539D02*
X0160963Y0076539D01*
X0150173Y0071743D02*
X0127757Y0071743D01*
X0126000Y0094123D02*
X0168650Y0094123D01*
X0156000Y0094123D01*
X0156000Y0095721D02*
X0169114Y0095721D01*
X0126000Y0095721D01*
X0127320Y0097320D02*
X0170007Y0097320D01*
X0156000Y0097320D01*
X0156000Y0098918D02*
X0171908Y0098918D01*
X0151279Y0098918D01*
X0152344Y0100517D02*
X0178319Y0100517D01*
X0188500Y0102115D02*
X0153410Y0102115D01*
X0156000Y0127691D02*
X0172090Y0127691D01*
X0156000Y0127691D01*
X0156000Y0129290D02*
X0170083Y0129290D01*
X0155210Y0129290D01*
X0156000Y0130888D02*
X0169145Y0130888D01*
X0153612Y0130888D01*
X0152013Y0132487D02*
X0168650Y0132487D01*
X0156000Y0132487D01*
X0243084Y0126093D02*
X0270907Y0126093D01*
X0269309Y0127691D02*
X0246680Y0127691D01*
X0298500Y0127691D02*
X0320050Y0127691D01*
X0320141Y0126093D02*
X0298500Y0126093D01*
X0298500Y0124494D02*
X0320803Y0124494D01*
X0320818Y0122896D02*
X0298500Y0122896D01*
X0298500Y0121297D02*
X0320156Y0121297D01*
X0320050Y0119699D02*
X0298500Y0119699D01*
X0298500Y0118100D02*
X0320321Y0118100D01*
X0321063Y0116502D02*
X0298500Y0116502D01*
X0298500Y0129290D02*
X0320336Y0129290D01*
X0321099Y0130888D02*
X0298500Y0130888D01*
X0298500Y0132487D02*
X0320624Y0132487D01*
X0320050Y0134085D02*
X0298500Y0134085D01*
X0298500Y0135684D02*
X0320050Y0135684D01*
X0320515Y0137282D02*
X0298500Y0137282D01*
X0298500Y0138881D02*
X0321361Y0138881D01*
X0320444Y0140479D02*
X0298500Y0140479D01*
X0298500Y0142078D02*
X0320050Y0142078D01*
X0320050Y0143676D02*
X0298500Y0143676D01*
X0298500Y0145275D02*
X0320695Y0145275D01*
X0320928Y0146873D02*
X0298500Y0146873D01*
X0298500Y0148472D02*
X0320265Y0148472D01*
X0320050Y0150070D02*
X0298500Y0150070D01*
X0298500Y0151669D02*
X0320212Y0151669D01*
X0320874Y0153268D02*
X0298500Y0153268D01*
X0298500Y0154866D02*
X0320747Y0154866D01*
X0320085Y0156465D02*
X0298500Y0156465D01*
X0298500Y0158063D02*
X0320050Y0158063D01*
X0320392Y0159662D02*
X0298500Y0159662D01*
X0298500Y0161260D02*
X0321235Y0161260D01*
X0330543Y0116502D02*
X0331890Y0116502D01*
X0333655Y0114903D02*
X0328778Y0114903D01*
X0329571Y0111706D02*
X0332862Y0111706D01*
X0331550Y0110108D02*
X0330883Y0110108D01*
X0320050Y0100517D02*
X0298500Y0100517D01*
X0298500Y0098918D02*
X0320050Y0098918D01*
X0320465Y0097320D02*
X0298500Y0097320D01*
X0298500Y0095721D02*
X0321411Y0095721D01*
X0320625Y0094123D02*
X0298500Y0094123D01*
X0298500Y0092524D02*
X0320050Y0092524D01*
X0320050Y0090926D02*
X0298500Y0090926D01*
X0298500Y0089327D02*
X0320514Y0089327D01*
X0321530Y0087729D02*
X0298500Y0087729D01*
X0298500Y0086130D02*
X0323953Y0086130D01*
X0327653Y0086130D02*
X0334780Y0086130D01*
X0332356Y0087729D02*
X0330077Y0087729D01*
X0331092Y0089327D02*
X0331341Y0089327D01*
X0338480Y0086130D02*
X0345204Y0086130D01*
X0344700Y0087729D02*
X0340904Y0087729D01*
X0341919Y0089327D02*
X0344700Y0089327D01*
X0345227Y0090926D02*
X0342383Y0090926D01*
X0346266Y0084532D02*
X0298500Y0084532D01*
X0298500Y0082933D02*
X0348784Y0082933D01*
X0383931Y0100517D02*
X0386200Y0100517D01*
X0386200Y0102115D02*
X0385530Y0102115D01*
X0385307Y0110108D02*
X0386200Y0110108D01*
X0386200Y0111706D02*
X0383708Y0111706D01*
X0268249Y0063751D02*
X0208500Y0063751D01*
X0208500Y0065349D02*
X0266651Y0065349D01*
X0268500Y0062152D02*
X0208500Y0062152D01*
X0208500Y0060554D02*
X0268500Y0060554D01*
X0268500Y0058955D02*
X0208500Y0058955D01*
X0208500Y0057357D02*
X0268500Y0057357D01*
X0268500Y0055758D02*
X0216060Y0055758D01*
X0216460Y0054160D02*
X0268500Y0054160D01*
X0268500Y0052561D02*
X0216860Y0052561D01*
X0217259Y0050963D02*
X0268500Y0050963D01*
X0268500Y0049364D02*
X0217659Y0049364D01*
X0218059Y0047766D02*
X0268500Y0047766D01*
X0264978Y0034978D02*
X0209522Y0034978D01*
X0208500Y0066948D02*
X0245052Y0066948D01*
X0243454Y0068546D02*
X0208500Y0068546D01*
X0042056Y0042970D02*
X0022691Y0042970D01*
X0019309Y0042970D02*
X0008500Y0042970D01*
X0008500Y0041372D02*
X0014964Y0041372D01*
X0012803Y0039773D02*
X0008500Y0039773D01*
X0008500Y0038175D02*
X0011286Y0038175D01*
X0010363Y0036576D02*
X0008500Y0036576D01*
X0027036Y0041372D02*
X0040457Y0041372D01*
X0040050Y0039773D02*
X0029197Y0039773D01*
X0030714Y0038175D02*
X0040050Y0038175D01*
X0040050Y0036576D02*
X0031637Y0036576D01*
X0011759Y0172450D02*
X0008500Y0172450D01*
X0008500Y0174048D02*
X0009682Y0174048D01*
X0026085Y0175647D02*
X0055895Y0175647D01*
X0054997Y0177245D02*
X0027008Y0177245D01*
X0027527Y0178844D02*
X0054617Y0178844D01*
X0054617Y0180442D02*
X0027906Y0180442D01*
X0027906Y0182041D02*
X0055276Y0182041D01*
X0055480Y0183639D02*
X0027756Y0183639D01*
X0027328Y0185238D02*
X0054818Y0185238D01*
X0054617Y0186836D02*
X0026579Y0186836D01*
X0025575Y0188435D02*
X0054793Y0188435D01*
X0055455Y0190033D02*
X0023977Y0190033D01*
X0021356Y0191632D02*
X0055300Y0191632D01*
X0054638Y0193230D02*
X0008500Y0193230D01*
X0008500Y0191632D02*
X0013045Y0191632D01*
X0010425Y0190033D02*
X0008500Y0190033D01*
X0008500Y0188435D02*
X0008826Y0188435D01*
X0008500Y0194829D02*
X0054617Y0194829D01*
X0054973Y0196427D02*
X0008500Y0196427D01*
X0008500Y0198026D02*
X0038987Y0198026D01*
X0039327Y0197885D02*
X0042555Y0197885D01*
X0045538Y0199120D01*
X0047820Y0201403D01*
X0049056Y0204386D01*
X0049056Y0207614D01*
X0047820Y0210597D01*
X0045538Y0212880D01*
X0042555Y0214115D01*
X0039327Y0214115D01*
X0036344Y0212880D01*
X0034061Y0210597D01*
X0032826Y0207614D01*
X0032826Y0204386D01*
X0034061Y0201403D01*
X0036344Y0199120D01*
X0039327Y0197885D01*
X0042895Y0198026D02*
X0055835Y0198026D01*
X0055121Y0199624D02*
X0046042Y0199624D01*
X0047640Y0201223D02*
X0054617Y0201223D01*
X0054617Y0202821D02*
X0048408Y0202821D01*
X0049056Y0204420D02*
X0055152Y0204420D01*
X0055759Y0206018D02*
X0049056Y0206018D01*
X0049055Y0207617D02*
X0054941Y0207617D01*
X0054617Y0209215D02*
X0048393Y0209215D01*
X0047603Y0210814D02*
X0054670Y0210814D01*
X0055332Y0212412D02*
X0046005Y0212412D01*
X0042806Y0214011D02*
X0055424Y0214011D01*
X0054762Y0215609D02*
X0008500Y0215609D01*
X0008500Y0214011D02*
X0039076Y0214011D01*
X0035877Y0212412D02*
X0008500Y0212412D01*
X0008500Y0210814D02*
X0034279Y0210814D01*
X0033489Y0209215D02*
X0008500Y0209215D01*
X0008500Y0207617D02*
X0032827Y0207617D01*
X0032826Y0206018D02*
X0008500Y0206018D01*
X0008500Y0204420D02*
X0032826Y0204420D01*
X0033474Y0202821D02*
X0008500Y0202821D01*
X0008500Y0201223D02*
X0034242Y0201223D01*
X0035840Y0199624D02*
X0008500Y0199624D01*
X0008500Y0217208D02*
X0054617Y0217208D01*
X0054849Y0218806D02*
X0008500Y0218806D01*
X0008500Y0220405D02*
X0012982Y0220405D01*
X0010388Y0222003D02*
X0008500Y0222003D01*
X0008500Y0223602D02*
X0008790Y0223602D01*
X0021420Y0220405D02*
X0036351Y0220405D01*
X0036846Y0220200D02*
X0034715Y0221083D01*
X0033083Y0222715D01*
X0032200Y0224846D01*
X0032200Y0227154D01*
X0033083Y0229285D01*
X0034715Y0230917D01*
X0034915Y0231000D01*
X0034715Y0231083D01*
X0033083Y0232715D01*
X0032200Y0234846D01*
X0032200Y0237154D01*
X0033083Y0239285D01*
X0034715Y0240917D01*
X0034915Y0241000D01*
X0034715Y0241083D01*
X0033083Y0242715D01*
X0032200Y0244846D01*
X0032200Y0247154D01*
X0033083Y0249285D01*
X0034715Y0250917D01*
X0036846Y0251800D01*
X0045154Y0251800D01*
X0047285Y0250917D01*
X0048917Y0249285D01*
X0049800Y0247154D01*
X0049800Y0244846D01*
X0048917Y0242715D01*
X0047285Y0241083D01*
X0047085Y0241000D01*
X0047285Y0240917D01*
X0048917Y0239285D01*
X0049800Y0237154D01*
X0049800Y0234846D01*
X0048917Y0232715D01*
X0047285Y0231083D01*
X0047085Y0231000D01*
X0047285Y0230917D01*
X0048917Y0229285D01*
X0049800Y0227154D01*
X0049800Y0224846D01*
X0048917Y0222715D01*
X0047285Y0221083D01*
X0045154Y0220200D01*
X0036846Y0220200D01*
X0033794Y0222003D02*
X0024013Y0222003D01*
X0025612Y0223602D02*
X0032715Y0223602D01*
X0032200Y0225201D02*
X0026601Y0225201D01*
X0027338Y0226799D02*
X0032200Y0226799D01*
X0032715Y0228398D02*
X0027766Y0228398D01*
X0027906Y0229996D02*
X0033794Y0229996D01*
X0034203Y0231595D02*
X0027906Y0231595D01*
X0027517Y0233193D02*
X0032885Y0233193D01*
X0032223Y0234792D02*
X0026987Y0234792D01*
X0026064Y0236390D02*
X0032200Y0236390D01*
X0032546Y0237989D02*
X0024683Y0237989D01*
X0022579Y0239587D02*
X0033385Y0239587D01*
X0034612Y0241186D02*
X0008500Y0241186D01*
X0008500Y0242784D02*
X0033054Y0242784D01*
X0032392Y0244383D02*
X0008500Y0244383D01*
X0008500Y0245981D02*
X0032200Y0245981D01*
X0032376Y0247580D02*
X0008500Y0247580D01*
X0008500Y0249178D02*
X0033039Y0249178D01*
X0034574Y0250777D02*
X0008500Y0250777D01*
X0008500Y0252375D02*
X0098500Y0252375D01*
X0098500Y0250777D02*
X0073272Y0250777D01*
X0072341Y0251162D02*
X0074456Y0250286D01*
X0076074Y0248668D01*
X0076950Y0246554D01*
X0076950Y0244265D01*
X0076074Y0242151D01*
X0075395Y0241472D01*
X0076074Y0240794D01*
X0076950Y0238680D01*
X0076950Y0236391D01*
X0076074Y0234277D01*
X0075395Y0233598D01*
X0076074Y0232920D01*
X0076950Y0230806D01*
X0076950Y0228517D01*
X0076074Y0226403D01*
X0074456Y0224784D01*
X0072341Y0223909D01*
X0070053Y0223909D01*
X0067938Y0224784D01*
X0066320Y0226403D01*
X0065783Y0227698D01*
X0065247Y0226403D01*
X0063629Y0224784D01*
X0061514Y0223909D01*
X0059226Y0223909D01*
X0057111Y0224784D01*
X0055493Y0226403D01*
X0054617Y0228517D01*
X0054617Y0230806D01*
X0055493Y0232920D01*
X0056171Y0233598D01*
X0055493Y0234277D01*
X0054617Y0236391D01*
X0054617Y0238680D01*
X0055493Y0240794D01*
X0056171Y0241472D01*
X0055493Y0242151D01*
X0054617Y0244265D01*
X0054617Y0246554D01*
X0055493Y0248668D01*
X0057111Y0250286D01*
X0059226Y0251162D01*
X0061514Y0251162D01*
X0063629Y0250286D01*
X0065247Y0248668D01*
X0065783Y0247373D01*
X0066320Y0248668D01*
X0067938Y0250286D01*
X0070053Y0251162D01*
X0072341Y0251162D01*
X0069122Y0250777D02*
X0062445Y0250777D01*
X0064737Y0249178D02*
X0066830Y0249178D01*
X0065869Y0247580D02*
X0065698Y0247580D01*
X0058295Y0250777D02*
X0047426Y0250777D01*
X0048961Y0249178D02*
X0056003Y0249178D01*
X0055042Y0247580D02*
X0049624Y0247580D01*
X0049800Y0245981D02*
X0054617Y0245981D01*
X0054617Y0244383D02*
X0049608Y0244383D01*
X0048946Y0242784D02*
X0055231Y0242784D01*
X0055885Y0241186D02*
X0047388Y0241186D01*
X0048615Y0239587D02*
X0054993Y0239587D01*
X0054617Y0237989D02*
X0049454Y0237989D01*
X0049800Y0236390D02*
X0054618Y0236390D01*
X0055280Y0234792D02*
X0049777Y0234792D01*
X0049115Y0233193D02*
X0055766Y0233193D01*
X0054944Y0231595D02*
X0047797Y0231595D01*
X0048206Y0229996D02*
X0054617Y0229996D01*
X0054667Y0228398D02*
X0049285Y0228398D01*
X0049800Y0226799D02*
X0055329Y0226799D01*
X0056695Y0225201D02*
X0049800Y0225201D01*
X0049285Y0223602D02*
X0098500Y0223602D01*
X0098500Y0222003D02*
X0074397Y0222003D01*
X0076030Y0220405D02*
X0098500Y0220405D01*
X0098500Y0218806D02*
X0076718Y0218806D01*
X0076950Y0217208D02*
X0098500Y0217208D01*
X0098500Y0215609D02*
X0076805Y0215609D01*
X0076143Y0214011D02*
X0098500Y0214011D01*
X0098500Y0212412D02*
X0076235Y0212412D01*
X0076897Y0210814D02*
X0098500Y0210814D01*
X0067997Y0222003D02*
X0063570Y0222003D01*
X0065203Y0220405D02*
X0066364Y0220405D01*
X0057170Y0222003D02*
X0048206Y0222003D01*
X0045649Y0220405D02*
X0055537Y0220405D01*
X0064045Y0225201D02*
X0067522Y0225201D01*
X0066156Y0226799D02*
X0065411Y0226799D01*
X0074872Y0225201D02*
X0098500Y0225201D01*
X0098500Y0226799D02*
X0076238Y0226799D01*
X0076900Y0228398D02*
X0098500Y0228398D01*
X0098500Y0229996D02*
X0076950Y0229996D01*
X0076623Y0231595D02*
X0098500Y0231595D01*
X0098500Y0233193D02*
X0075801Y0233193D01*
X0076287Y0234792D02*
X0098500Y0234792D01*
X0098500Y0236390D02*
X0076949Y0236390D01*
X0076950Y0237989D02*
X0098500Y0237989D01*
X0098500Y0239587D02*
X0076574Y0239587D01*
X0075682Y0241186D02*
X0098500Y0241186D01*
X0098500Y0242784D02*
X0076336Y0242784D01*
X0076950Y0244383D02*
X0098500Y0244383D01*
X0098500Y0245981D02*
X0076950Y0245981D01*
X0076525Y0247580D02*
X0098500Y0247580D01*
X0098500Y0249178D02*
X0075564Y0249178D01*
X0098500Y0253974D02*
X0008500Y0253974D01*
X0008500Y0255572D02*
X0098500Y0255572D01*
X0098500Y0257171D02*
X0008500Y0257171D01*
X0008500Y0258769D02*
X0098500Y0258769D01*
X0098500Y0260368D02*
X0008500Y0260368D01*
X0008500Y0261966D02*
X0098500Y0261966D01*
X0098500Y0263565D02*
X0008500Y0263565D01*
X0008500Y0265163D02*
X0098500Y0265163D01*
X0098500Y0266762D02*
X0008500Y0266762D01*
X0008500Y0268360D02*
X0098500Y0268360D01*
X0098500Y0269959D02*
X0008500Y0269959D01*
X0008500Y0271557D02*
X0098500Y0271557D01*
X0098500Y0273156D02*
X0008500Y0273156D01*
X0008500Y0274754D02*
X0098500Y0274754D01*
X0098500Y0276353D02*
X0008500Y0276353D01*
X0008500Y0277951D02*
X0098500Y0277951D01*
X0098500Y0279550D02*
X0008500Y0279550D01*
X0008500Y0281148D02*
X0098500Y0281148D01*
X0098500Y0282747D02*
X0008500Y0282747D01*
X0008500Y0284345D02*
X0098500Y0284345D01*
X0098500Y0285944D02*
X0008500Y0285944D01*
X0008500Y0287542D02*
X0098500Y0287542D01*
X0098500Y0289141D02*
X0008500Y0289141D01*
X0008500Y0290739D02*
X0098500Y0290739D01*
X0098500Y0292338D02*
X0008500Y0292338D01*
X0008500Y0293937D02*
X0098500Y0293937D01*
X0098500Y0295535D02*
X0026874Y0295535D01*
X0025632Y0294818D02*
X0028368Y0296398D01*
X0030602Y0298632D01*
X0032182Y0301368D01*
X0033000Y0304420D01*
X0033000Y0307580D01*
X0032182Y0310632D01*
X0030602Y0313368D01*
X0028368Y0315602D01*
X0025632Y0317182D01*
X0022580Y0318000D01*
X0019420Y0318000D01*
X0016368Y0317182D01*
X0013632Y0315602D01*
X0011398Y0313368D01*
X0009818Y0310632D01*
X0009000Y0307580D01*
X0009000Y0304420D01*
X0009818Y0301368D01*
X0011398Y0298632D01*
X0013632Y0296398D01*
X0016368Y0294818D01*
X0019420Y0294000D01*
X0022580Y0294000D01*
X0025632Y0294818D01*
X0029104Y0297134D02*
X0098500Y0297134D01*
X0098500Y0298732D02*
X0030660Y0298732D01*
X0031583Y0300331D02*
X0098500Y0300331D01*
X0094441Y0301929D02*
X0032332Y0301929D01*
X0032761Y0303528D02*
X0092163Y0303528D01*
X0090565Y0305126D02*
X0033000Y0305126D01*
X0033000Y0306725D02*
X0089554Y0306725D01*
X0088631Y0308323D02*
X0032801Y0308323D01*
X0032373Y0309922D02*
X0088190Y0309922D01*
X0087761Y0311520D02*
X0031669Y0311520D01*
X0030746Y0313119D02*
X0087700Y0313119D01*
X0087700Y0314717D02*
X0029253Y0314717D01*
X0027133Y0316316D02*
X0087985Y0316316D01*
X0088414Y0317914D02*
X0022900Y0317914D01*
X0019100Y0317914D02*
X0008500Y0317914D01*
X0008500Y0316316D02*
X0014867Y0316316D01*
X0012747Y0314717D02*
X0008500Y0314717D01*
X0008500Y0313119D02*
X0011254Y0313119D01*
X0010331Y0311520D02*
X0008500Y0311520D01*
X0008500Y0309922D02*
X0009627Y0309922D01*
X0009199Y0308323D02*
X0008500Y0308323D01*
X0008500Y0306725D02*
X0009000Y0306725D01*
X0009000Y0305126D02*
X0008500Y0305126D01*
X0008500Y0303528D02*
X0009239Y0303528D01*
X0009667Y0301929D02*
X0008500Y0301929D01*
X0008500Y0300331D02*
X0010417Y0300331D01*
X0011340Y0298732D02*
X0008500Y0298732D01*
X0008500Y0297134D02*
X0012896Y0297134D01*
X0015126Y0295535D02*
X0008500Y0295535D01*
X0008500Y0239587D02*
X0011822Y0239587D01*
X0009719Y0237989D02*
X0008500Y0237989D01*
X0329498Y0297134D02*
X0332935Y0297134D01*
X0331580Y0295535D02*
X0330853Y0295535D01*
X0340325Y0297134D02*
X0362896Y0297134D01*
X0365126Y0295535D02*
X0341679Y0295535D01*
M02*
