G75*
%MOIN*%
%OFA0B0*%
%FSLAX25Y25*%
%IPPOS*%
%LPD*%
%AMOC8*
5,1,8,0,0,1.08239X$1,22.5*
%
%ADD10C,0.05906*%
%ADD11OC8,0.06300*%
%ADD12C,0.10630*%
%ADD13C,0.07050*%
%ADD14C,0.06000*%
%ADD15C,0.01600*%
D10*
X0060370Y0041807D03*
X0071197Y0041807D03*
X0071197Y0049366D03*
X0071197Y0056925D03*
X0071197Y0064484D03*
X0060370Y0064484D03*
X0060370Y0056925D03*
X0060370Y0049366D03*
X0060370Y0072043D03*
X0060370Y0079602D03*
X0071197Y0079602D03*
X0071197Y0072043D03*
X0071197Y0092161D03*
X0071197Y0100035D03*
X0060370Y0100035D03*
X0060370Y0092161D03*
X0060370Y0107909D03*
X0071197Y0107909D03*
X0071197Y0130311D03*
X0060370Y0130311D03*
X0060370Y0137358D03*
X0060370Y0144406D03*
X0060370Y0151453D03*
X0060370Y0158500D03*
X0071197Y0158500D03*
X0071197Y0151453D03*
X0071197Y0144406D03*
X0071197Y0137358D03*
X0135173Y0136413D03*
X0146000Y0136413D03*
X0146000Y0143776D03*
X0146000Y0151138D03*
X0146000Y0158500D03*
X0135173Y0158500D03*
X0135173Y0151138D03*
X0135173Y0143776D03*
X0135173Y0127004D03*
X0135173Y0119642D03*
X0135173Y0112280D03*
X0135173Y0104917D03*
X0146000Y0104917D03*
X0146000Y0112280D03*
X0146000Y0119642D03*
X0146000Y0127004D03*
X0146000Y0095508D03*
X0146000Y0088146D03*
X0135173Y0088146D03*
X0135173Y0095508D03*
X0135173Y0080783D03*
X0135173Y0073421D03*
X0146000Y0073421D03*
X0146000Y0080783D03*
X0146000Y0064012D03*
X0146000Y0056650D03*
X0146000Y0049287D03*
X0135173Y0049287D03*
X0135173Y0056650D03*
X0135173Y0064012D03*
X0135173Y0041925D03*
X0146000Y0041925D03*
X0251000Y0041000D03*
X0261827Y0041000D03*
X0261827Y0048362D03*
X0251000Y0048362D03*
X0251000Y0055724D03*
X0261827Y0055724D03*
X0261827Y0063087D03*
X0251000Y0063087D03*
X0251000Y0072496D03*
X0261827Y0072496D03*
X0261827Y0079858D03*
X0251000Y0079858D03*
X0251000Y0087220D03*
X0261827Y0087220D03*
X0261827Y0094583D03*
X0251000Y0094583D03*
X0251000Y0103992D03*
X0261827Y0103992D03*
X0261827Y0111354D03*
X0251000Y0111354D03*
X0251000Y0118717D03*
X0261827Y0118717D03*
X0261827Y0126079D03*
X0251000Y0126079D03*
X0251000Y0135488D03*
X0261827Y0135488D03*
X0261827Y0142850D03*
X0251000Y0142850D03*
X0251000Y0150213D03*
X0261827Y0150213D03*
X0261827Y0157575D03*
X0251000Y0157575D03*
X0251000Y0176000D03*
X0261827Y0176000D03*
X0261827Y0183362D03*
X0251000Y0183362D03*
X0251000Y0190724D03*
X0261827Y0190724D03*
X0261827Y0198087D03*
X0251000Y0198087D03*
X0251000Y0207496D03*
X0261827Y0207496D03*
X0261827Y0214858D03*
X0251000Y0214858D03*
X0251000Y0222220D03*
X0261827Y0222220D03*
X0261827Y0229583D03*
X0251000Y0229583D03*
X0251000Y0238992D03*
X0261827Y0238992D03*
X0261827Y0246354D03*
X0251000Y0246354D03*
X0251000Y0253717D03*
X0261827Y0253717D03*
X0261827Y0261079D03*
X0251000Y0261079D03*
X0251000Y0270488D03*
X0261827Y0270488D03*
X0261827Y0277850D03*
X0251000Y0277850D03*
X0251000Y0285213D03*
X0261827Y0285213D03*
X0261827Y0292575D03*
X0251000Y0292575D03*
X0325803Y0292693D03*
X0325803Y0285134D03*
X0325803Y0277575D03*
X0336630Y0277575D03*
X0336630Y0285134D03*
X0336630Y0292693D03*
X0336630Y0270016D03*
X0336630Y0262457D03*
X0336630Y0254898D03*
X0325803Y0254898D03*
X0325803Y0262457D03*
X0325803Y0270016D03*
X0325803Y0242339D03*
X0336630Y0242339D03*
X0336630Y0234465D03*
X0336630Y0226591D03*
X0325803Y0226591D03*
X0325803Y0234465D03*
X0325803Y0204189D03*
X0325803Y0197142D03*
X0325803Y0190094D03*
X0325803Y0183047D03*
X0336630Y0183047D03*
X0336630Y0190094D03*
X0336630Y0197142D03*
X0336630Y0204189D03*
X0336630Y0176000D03*
X0325803Y0176000D03*
X0325803Y0157693D03*
X0325803Y0150134D03*
X0336630Y0150134D03*
X0336630Y0157693D03*
X0336630Y0142575D03*
X0336630Y0135016D03*
X0336630Y0127457D03*
X0325803Y0127457D03*
X0325803Y0135016D03*
X0325803Y0142575D03*
X0325803Y0119898D03*
X0336630Y0119898D03*
X0336630Y0107339D03*
X0336630Y0099465D03*
X0336630Y0091591D03*
X0325803Y0091591D03*
X0325803Y0099465D03*
X0325803Y0107339D03*
X0325803Y0069189D03*
X0325803Y0062142D03*
X0336630Y0062142D03*
X0336630Y0069189D03*
X0336630Y0055094D03*
X0336630Y0048047D03*
X0336630Y0041000D03*
X0325803Y0041000D03*
X0325803Y0048047D03*
X0325803Y0055094D03*
X0146000Y0179425D03*
X0146000Y0186787D03*
X0146000Y0194150D03*
X0146000Y0201512D03*
X0135173Y0201512D03*
X0135173Y0194150D03*
X0135173Y0186787D03*
X0135173Y0179425D03*
X0071197Y0179307D03*
X0071197Y0186866D03*
X0071197Y0194425D03*
X0071197Y0201984D03*
X0060370Y0201984D03*
X0060370Y0194425D03*
X0060370Y0186866D03*
X0060370Y0179307D03*
X0060370Y0209543D03*
X0060370Y0217102D03*
X0071197Y0217102D03*
X0071197Y0209543D03*
X0071197Y0229661D03*
X0071197Y0237535D03*
X0060370Y0237535D03*
X0060370Y0229661D03*
X0060370Y0245409D03*
X0071197Y0245409D03*
X0071197Y0267811D03*
X0071197Y0274858D03*
X0071197Y0281906D03*
X0071197Y0288953D03*
X0071197Y0296000D03*
X0060370Y0296000D03*
X0060370Y0288953D03*
X0060370Y0281906D03*
X0060370Y0274858D03*
X0060370Y0267811D03*
X0135173Y0264504D03*
X0146000Y0264504D03*
X0146000Y0257142D03*
X0146000Y0249780D03*
X0146000Y0242417D03*
X0135173Y0242417D03*
X0135173Y0249780D03*
X0135173Y0257142D03*
X0135173Y0273913D03*
X0135173Y0281276D03*
X0135173Y0288638D03*
X0135173Y0296000D03*
X0146000Y0296000D03*
X0146000Y0288638D03*
X0146000Y0281276D03*
X0146000Y0273913D03*
X0146000Y0233008D03*
X0146000Y0225646D03*
X0135173Y0225646D03*
X0135173Y0233008D03*
X0135173Y0218283D03*
X0135173Y0210921D03*
X0146000Y0210921D03*
X0146000Y0218283D03*
D11*
X0216000Y0213500D03*
X0226000Y0213500D03*
X0226000Y0196000D03*
X0216000Y0196000D03*
X0381000Y0106000D03*
X0381000Y0096000D03*
X0358500Y0041000D03*
X0348500Y0041000D03*
X0046000Y0038500D03*
X0036000Y0038500D03*
X0011000Y0091000D03*
X0011000Y0101000D03*
D12*
X0018500Y0206000D03*
X0040941Y0206000D03*
X0188500Y0271000D03*
X0210941Y0271000D03*
X0358559Y0191000D03*
X0381000Y0191000D03*
D13*
X0219525Y0173343D02*
X0212475Y0173343D01*
X0182025Y0173343D02*
X0174975Y0173343D01*
X0174975Y0153657D02*
X0182025Y0153657D01*
X0212475Y0153657D02*
X0219525Y0153657D01*
X0219525Y0133343D02*
X0212475Y0133343D01*
X0182025Y0133343D02*
X0174975Y0133343D01*
X0174975Y0113657D02*
X0182025Y0113657D01*
X0212475Y0113657D02*
X0219525Y0113657D01*
X0219525Y0093343D02*
X0212475Y0093343D01*
X0182025Y0093343D02*
X0174975Y0093343D01*
X0174975Y0073657D02*
X0182025Y0073657D01*
X0212475Y0073657D02*
X0219525Y0073657D01*
X0193343Y0199975D02*
X0193343Y0207025D01*
X0173657Y0207025D02*
X0173657Y0199975D01*
D14*
X0044000Y0226000D02*
X0038000Y0226000D01*
X0038000Y0236000D02*
X0044000Y0236000D01*
X0044000Y0246000D02*
X0038000Y0246000D01*
X0353000Y0243500D02*
X0359000Y0243500D01*
X0359000Y0233500D02*
X0353000Y0233500D01*
X0353000Y0223500D02*
X0359000Y0223500D01*
X0356500Y0108500D02*
X0350500Y0108500D01*
X0350500Y0098500D02*
X0356500Y0098500D01*
X0356500Y0088500D02*
X0350500Y0088500D01*
X0044000Y0088500D02*
X0038000Y0088500D01*
X0038000Y0098500D02*
X0044000Y0098500D01*
X0044000Y0108500D02*
X0038000Y0108500D01*
D15*
X0008500Y0095085D02*
X0008500Y0036000D01*
X0010030Y0036000D01*
X0011398Y0038368D01*
X0013632Y0040602D01*
X0016368Y0042182D01*
X0019420Y0043000D01*
X0022580Y0043000D01*
X0025632Y0042182D01*
X0028368Y0040602D01*
X0030050Y0038921D01*
X0030050Y0040965D01*
X0033535Y0044450D01*
X0038465Y0044450D01*
X0041950Y0040965D01*
X0041950Y0036035D01*
X0041915Y0036000D01*
X0096263Y0036000D01*
X0099249Y0036800D01*
X0101000Y0036800D01*
X0101000Y0300200D01*
X0099249Y0300200D01*
X0095866Y0301106D01*
X0092834Y0302857D01*
X0090357Y0305334D01*
X0088606Y0308366D01*
X0087700Y0311749D01*
X0087700Y0315251D01*
X0088571Y0318500D01*
X0008500Y0318500D01*
X0008500Y0236672D01*
X0008634Y0236904D01*
X0010627Y0238897D01*
X0013069Y0240307D01*
X0015791Y0241036D01*
X0018610Y0241036D01*
X0021333Y0240307D01*
X0023774Y0238897D01*
X0025767Y0236904D01*
X0027177Y0234463D01*
X0027906Y0231740D01*
X0027906Y0228921D01*
X0027177Y0226199D01*
X0025767Y0223757D01*
X0023774Y0221764D01*
X0021333Y0220355D01*
X0018610Y0219625D01*
X0015791Y0219625D01*
X0013069Y0220355D01*
X0010627Y0221764D01*
X0008634Y0223757D01*
X0008500Y0223990D01*
X0008500Y0188010D01*
X0008634Y0188243D01*
X0010627Y0190236D01*
X0013069Y0191645D01*
X0015791Y0192375D01*
X0018610Y0192375D01*
X0021333Y0191645D01*
X0023774Y0190236D01*
X0025767Y0188243D01*
X0027177Y0185801D01*
X0027906Y0183079D01*
X0027906Y0180260D01*
X0027177Y0177537D01*
X0025767Y0175096D01*
X0023774Y0173103D01*
X0021333Y0171693D01*
X0018610Y0170964D01*
X0015791Y0170964D01*
X0013069Y0171693D01*
X0010627Y0173103D01*
X0008634Y0175096D01*
X0008500Y0175328D01*
X0008500Y0106915D01*
X0008535Y0106950D01*
X0013465Y0106950D01*
X0016950Y0103465D01*
X0016950Y0098535D01*
X0013465Y0095050D01*
X0008535Y0095050D01*
X0008500Y0095085D01*
X0008500Y0094123D02*
X0034175Y0094123D01*
X0034715Y0093583D02*
X0034915Y0093500D01*
X0034715Y0093417D01*
X0033083Y0091785D01*
X0032200Y0089654D01*
X0032200Y0087346D01*
X0033083Y0085215D01*
X0034715Y0083583D01*
X0036846Y0082700D01*
X0045154Y0082700D01*
X0047285Y0083583D01*
X0048917Y0085215D01*
X0049800Y0087346D01*
X0049800Y0089654D01*
X0048917Y0091785D01*
X0047285Y0093417D01*
X0047085Y0093500D01*
X0047285Y0093583D01*
X0048917Y0095215D01*
X0049800Y0097346D01*
X0049800Y0099654D01*
X0048917Y0101785D01*
X0047285Y0103417D01*
X0047085Y0103500D01*
X0047285Y0103583D01*
X0048917Y0105215D01*
X0049800Y0107346D01*
X0049800Y0109654D01*
X0048917Y0111785D01*
X0047285Y0113417D01*
X0045154Y0114300D01*
X0036846Y0114300D01*
X0034715Y0113417D01*
X0033083Y0111785D01*
X0032200Y0109654D01*
X0032200Y0107346D01*
X0033083Y0105215D01*
X0034715Y0103583D01*
X0034915Y0103500D01*
X0034715Y0103417D01*
X0033083Y0101785D01*
X0032200Y0099654D01*
X0032200Y0097346D01*
X0033083Y0095215D01*
X0034715Y0093583D01*
X0033822Y0092524D02*
X0008500Y0092524D01*
X0008500Y0090926D02*
X0032727Y0090926D01*
X0032200Y0089327D02*
X0008500Y0089327D01*
X0008500Y0087729D02*
X0032200Y0087729D01*
X0032704Y0086130D02*
X0008500Y0086130D01*
X0008500Y0084532D02*
X0033766Y0084532D01*
X0036284Y0082933D02*
X0008500Y0082933D01*
X0008500Y0081334D02*
X0101000Y0081334D01*
X0101000Y0079736D02*
X0008500Y0079736D01*
X0008500Y0078137D02*
X0101000Y0078137D01*
X0101000Y0076539D02*
X0008500Y0076539D01*
X0008500Y0074940D02*
X0101000Y0074940D01*
X0101000Y0073342D02*
X0008500Y0073342D01*
X0008500Y0071743D02*
X0101000Y0071743D01*
X0101000Y0070145D02*
X0008500Y0070145D01*
X0008500Y0068546D02*
X0101000Y0068546D01*
X0101000Y0066948D02*
X0008500Y0066948D01*
X0008500Y0065349D02*
X0101000Y0065349D01*
X0101000Y0063751D02*
X0008500Y0063751D01*
X0008500Y0062152D02*
X0101000Y0062152D01*
X0101000Y0060554D02*
X0008500Y0060554D01*
X0008500Y0058955D02*
X0101000Y0058955D01*
X0101000Y0057357D02*
X0008500Y0057357D01*
X0008500Y0055758D02*
X0101000Y0055758D01*
X0101000Y0054160D02*
X0008500Y0054160D01*
X0008500Y0052561D02*
X0101000Y0052561D01*
X0101000Y0050963D02*
X0008500Y0050963D01*
X0008500Y0049364D02*
X0101000Y0049364D01*
X0101000Y0047766D02*
X0008500Y0047766D01*
X0008500Y0046167D02*
X0101000Y0046167D01*
X0101000Y0044569D02*
X0008500Y0044569D01*
X0008500Y0042970D02*
X0019309Y0042970D01*
X0022691Y0042970D02*
X0032056Y0042970D01*
X0030457Y0041372D02*
X0027036Y0041372D01*
X0029197Y0039773D02*
X0030050Y0039773D01*
X0039944Y0042970D02*
X0101000Y0042970D01*
X0101000Y0041372D02*
X0041543Y0041372D01*
X0041950Y0039773D02*
X0101000Y0039773D01*
X0101000Y0038175D02*
X0041950Y0038175D01*
X0041950Y0036576D02*
X0098414Y0036576D01*
X0128500Y0038500D02*
X0128500Y0066000D01*
X0131000Y0068500D01*
X0132022Y0068500D01*
X0134029Y0067669D01*
X0136318Y0067669D01*
X0138325Y0068500D01*
X0142848Y0068500D01*
X0144856Y0067669D01*
X0147144Y0067669D01*
X0149259Y0068544D01*
X0150877Y0070163D01*
X0151382Y0071382D01*
X0156000Y0076000D01*
X0156000Y0096000D01*
X0151000Y0101000D01*
X0147773Y0101000D01*
X0147144Y0101261D01*
X0144856Y0101261D01*
X0144227Y0101000D01*
X0136947Y0101000D01*
X0136318Y0101261D01*
X0134029Y0101261D01*
X0133400Y0101000D01*
X0128500Y0101000D01*
X0126000Y0103500D01*
X0126000Y0128500D01*
X0128500Y0131000D01*
X0133210Y0131000D01*
X0134029Y0130661D01*
X0136318Y0130661D01*
X0137137Y0131000D01*
X0144036Y0131000D01*
X0144856Y0130661D01*
X0147144Y0130661D01*
X0147964Y0131000D01*
X0156000Y0131000D01*
X0170931Y0118558D01*
X0169613Y0117240D01*
X0168650Y0114916D01*
X0168650Y0112399D01*
X0169613Y0110075D01*
X0171392Y0108295D01*
X0173717Y0107332D01*
X0174723Y0107332D01*
X0178500Y0096000D01*
X0191000Y0096000D01*
X0196000Y0091000D01*
X0196000Y0063500D01*
X0191000Y0056000D01*
X0188500Y0056000D01*
X0181000Y0051000D01*
X0188500Y0048500D01*
X0178500Y0033500D01*
X0133500Y0033500D01*
X0128500Y0038500D01*
X0128825Y0038175D02*
X0181616Y0038175D01*
X0180551Y0036576D02*
X0130424Y0036576D01*
X0132022Y0034978D02*
X0179485Y0034978D01*
X0178500Y0036000D02*
X0156000Y0058500D01*
X0156000Y0223500D01*
X0171000Y0233500D01*
X0198500Y0233500D01*
X0198500Y0283500D01*
X0213500Y0298500D01*
X0241000Y0298500D01*
X0241000Y0061000D01*
X0208500Y0036000D01*
X0178500Y0036000D01*
X0177924Y0036576D02*
X0209249Y0036576D01*
X0211327Y0038175D02*
X0176325Y0038175D01*
X0174727Y0039773D02*
X0213405Y0039773D01*
X0215483Y0041372D02*
X0173128Y0041372D01*
X0171530Y0042970D02*
X0217561Y0042970D01*
X0219639Y0044569D02*
X0169931Y0044569D01*
X0168333Y0046167D02*
X0221717Y0046167D01*
X0223795Y0047766D02*
X0166734Y0047766D01*
X0165136Y0049364D02*
X0225874Y0049364D01*
X0227952Y0050963D02*
X0163537Y0050963D01*
X0161939Y0052561D02*
X0230030Y0052561D01*
X0232108Y0054160D02*
X0160340Y0054160D01*
X0158742Y0055758D02*
X0234186Y0055758D01*
X0236264Y0057357D02*
X0157143Y0057357D01*
X0156000Y0058955D02*
X0238342Y0058955D01*
X0240420Y0060554D02*
X0156000Y0060554D01*
X0156000Y0062152D02*
X0241000Y0062152D01*
X0241000Y0063751D02*
X0156000Y0063751D01*
X0156000Y0065349D02*
X0241000Y0065349D01*
X0241000Y0066948D02*
X0156000Y0066948D01*
X0156000Y0068546D02*
X0171141Y0068546D01*
X0149261Y0068546D01*
X0150859Y0070145D02*
X0169584Y0070145D01*
X0156000Y0070145D01*
X0156000Y0071743D02*
X0168922Y0071743D01*
X0151743Y0071743D01*
X0153342Y0073342D02*
X0168650Y0073342D01*
X0156000Y0073342D01*
X0156000Y0074940D02*
X0168660Y0074940D01*
X0154940Y0074940D01*
X0156000Y0076539D02*
X0169322Y0076539D01*
X0156000Y0076539D01*
X0156000Y0078137D02*
X0170510Y0078137D01*
X0156000Y0078137D01*
X0156000Y0079736D02*
X0173122Y0079736D01*
X0156000Y0079736D01*
X0156000Y0081334D02*
X0196000Y0081334D01*
X0196000Y0079736D02*
X0183878Y0079736D01*
X0210622Y0079736D01*
X0211217Y0079982D02*
X0208892Y0079020D01*
X0207113Y0077240D01*
X0206150Y0074916D01*
X0206150Y0072399D01*
X0207113Y0070075D01*
X0208892Y0068295D01*
X0211217Y0067332D01*
X0220783Y0067332D01*
X0223108Y0068295D01*
X0224887Y0070075D01*
X0225850Y0072399D01*
X0225850Y0074916D01*
X0224887Y0077240D01*
X0223108Y0079020D01*
X0220783Y0079982D01*
X0211217Y0079982D01*
X0208010Y0078137D02*
X0186490Y0078137D01*
X0196000Y0078137D01*
X0196000Y0076539D02*
X0187678Y0076539D01*
X0206822Y0076539D01*
X0206160Y0074940D02*
X0188340Y0074940D01*
X0196000Y0074940D01*
X0196000Y0073342D02*
X0188350Y0073342D01*
X0206150Y0073342D01*
X0206422Y0071743D02*
X0188078Y0071743D01*
X0196000Y0071743D01*
X0196000Y0070145D02*
X0187416Y0070145D01*
X0207084Y0070145D01*
X0208641Y0068546D02*
X0185859Y0068546D01*
X0196000Y0068546D01*
X0196000Y0066948D02*
X0129448Y0066948D01*
X0128500Y0065349D02*
X0196000Y0065349D01*
X0196000Y0063751D02*
X0128500Y0063751D01*
X0128500Y0062152D02*
X0195102Y0062152D01*
X0194036Y0060554D02*
X0128500Y0060554D01*
X0128500Y0058955D02*
X0192970Y0058955D01*
X0191905Y0057357D02*
X0128500Y0057357D01*
X0128500Y0055758D02*
X0188137Y0055758D01*
X0185740Y0054160D02*
X0128500Y0054160D01*
X0128500Y0052561D02*
X0183342Y0052561D01*
X0181112Y0050963D02*
X0128500Y0050963D01*
X0128500Y0049364D02*
X0185907Y0049364D01*
X0188011Y0047766D02*
X0128500Y0047766D01*
X0128500Y0046167D02*
X0186945Y0046167D01*
X0185879Y0044569D02*
X0128500Y0044569D01*
X0128500Y0042970D02*
X0184813Y0042970D01*
X0183748Y0041372D02*
X0128500Y0041372D01*
X0128500Y0039773D02*
X0182682Y0039773D01*
X0183283Y0067332D02*
X0173717Y0067332D01*
X0171392Y0068295D01*
X0169613Y0070075D01*
X0168650Y0072399D01*
X0168650Y0074916D01*
X0169613Y0077240D01*
X0171392Y0079020D01*
X0173717Y0079982D01*
X0183283Y0079982D01*
X0185608Y0079020D01*
X0187387Y0077240D01*
X0188350Y0074916D01*
X0188350Y0072399D01*
X0187387Y0070075D01*
X0185608Y0068295D01*
X0183283Y0067332D01*
X0185608Y0068295D01*
X0187387Y0070075D01*
X0188350Y0072399D01*
X0188350Y0074916D01*
X0187387Y0077240D01*
X0185608Y0079020D01*
X0183283Y0079982D01*
X0173717Y0079982D01*
X0171392Y0079020D01*
X0169613Y0077240D01*
X0168650Y0074916D01*
X0168650Y0072399D01*
X0169613Y0070075D01*
X0171392Y0068295D01*
X0173717Y0067332D01*
X0183283Y0067332D01*
X0156000Y0081334D02*
X0241000Y0081334D01*
X0241000Y0079736D02*
X0221378Y0079736D01*
X0223990Y0078137D02*
X0241000Y0078137D01*
X0241000Y0076539D02*
X0225178Y0076539D01*
X0225840Y0074940D02*
X0241000Y0074940D01*
X0241000Y0073342D02*
X0225850Y0073342D01*
X0225578Y0071743D02*
X0241000Y0071743D01*
X0241000Y0070145D02*
X0224916Y0070145D01*
X0223359Y0068546D02*
X0241000Y0068546D01*
X0241000Y0068500D02*
X0226000Y0081000D01*
X0218500Y0103500D01*
X0213500Y0103500D01*
X0208500Y0108500D01*
X0208500Y0108688D01*
X0208892Y0108295D01*
X0211217Y0107332D01*
X0220783Y0107332D01*
X0223108Y0108295D01*
X0224887Y0110075D01*
X0225850Y0112399D01*
X0225850Y0114916D01*
X0224887Y0117240D01*
X0223108Y0119020D01*
X0220783Y0119982D01*
X0211217Y0119982D01*
X0208892Y0119020D01*
X0208500Y0118627D01*
X0208500Y0136000D01*
X0213500Y0143500D01*
X0216000Y0143500D01*
X0223500Y0148500D01*
X0223406Y0148594D01*
X0224887Y0150075D01*
X0225850Y0152399D01*
X0225850Y0154916D01*
X0225576Y0155576D01*
X0231000Y0161000D01*
X0241000Y0166000D01*
X0263500Y0166000D01*
X0268500Y0161000D01*
X0268500Y0133500D01*
X0266000Y0131000D01*
X0264978Y0131000D01*
X0262971Y0131831D01*
X0260682Y0131831D01*
X0258675Y0131000D01*
X0254152Y0131000D01*
X0252144Y0131831D01*
X0249856Y0131831D01*
X0247741Y0130956D01*
X0246123Y0129337D01*
X0245618Y0128118D01*
X0241000Y0123500D01*
X0241000Y0103500D01*
X0246000Y0098500D01*
X0249227Y0098500D01*
X0249856Y0098239D01*
X0252144Y0098239D01*
X0252773Y0098500D01*
X0260053Y0098500D01*
X0260682Y0098239D01*
X0262971Y0098239D01*
X0263600Y0098500D01*
X0268500Y0098500D01*
X0271000Y0096000D01*
X0271000Y0071000D01*
X0268500Y0068500D01*
X0263790Y0068500D01*
X0262971Y0068839D01*
X0260682Y0068839D01*
X0259863Y0068500D01*
X0252964Y0068500D01*
X0252144Y0068839D01*
X0249856Y0068839D01*
X0249036Y0068500D01*
X0241000Y0068500D01*
X0240944Y0068546D02*
X0249148Y0068546D01*
X0252852Y0068546D02*
X0259975Y0068546D01*
X0263678Y0068546D02*
X0268546Y0068546D01*
X0270145Y0070145D02*
X0239026Y0070145D01*
X0237108Y0071743D02*
X0271000Y0071743D01*
X0271000Y0073342D02*
X0235190Y0073342D01*
X0233271Y0074940D02*
X0271000Y0074940D01*
X0271000Y0076539D02*
X0231353Y0076539D01*
X0229435Y0078137D02*
X0271000Y0078137D01*
X0271000Y0079736D02*
X0227517Y0079736D01*
X0225889Y0081334D02*
X0271000Y0081334D01*
X0271000Y0082933D02*
X0225356Y0082933D01*
X0224823Y0084532D02*
X0271000Y0084532D01*
X0271000Y0086130D02*
X0224290Y0086130D01*
X0223757Y0087729D02*
X0271000Y0087729D01*
X0271000Y0089327D02*
X0223224Y0089327D01*
X0222691Y0090926D02*
X0271000Y0090926D01*
X0271000Y0092524D02*
X0222159Y0092524D01*
X0221626Y0094123D02*
X0271000Y0094123D01*
X0271000Y0095721D02*
X0221093Y0095721D01*
X0220560Y0097320D02*
X0269680Y0097320D01*
X0293500Y0097320D02*
X0320465Y0097320D01*
X0320050Y0098320D02*
X0320926Y0096206D01*
X0321605Y0095528D01*
X0320926Y0094849D01*
X0320050Y0092735D01*
X0320050Y0090446D01*
X0320926Y0088332D01*
X0322544Y0086714D01*
X0324659Y0085838D01*
X0326947Y0085838D01*
X0329062Y0086714D01*
X0330680Y0088332D01*
X0330953Y0088991D01*
X0331480Y0088991D01*
X0331753Y0088332D01*
X0333371Y0086714D01*
X0335486Y0085838D01*
X0337774Y0085838D01*
X0338564Y0086165D01*
X0339203Y0085900D01*
X0345299Y0085900D01*
X0345583Y0085215D01*
X0347215Y0083583D01*
X0349346Y0082700D01*
X0357654Y0082700D01*
X0359785Y0083583D01*
X0361417Y0085215D01*
X0362300Y0087346D01*
X0362300Y0089654D01*
X0361417Y0091785D01*
X0359785Y0093417D01*
X0359585Y0093500D01*
X0359785Y0093583D01*
X0361417Y0095215D01*
X0362300Y0097346D01*
X0362300Y0099654D01*
X0361417Y0101785D01*
X0359785Y0103417D01*
X0359585Y0103500D01*
X0359785Y0103583D01*
X0361417Y0105215D01*
X0362300Y0107346D01*
X0362300Y0109654D01*
X0361417Y0111785D01*
X0359785Y0113417D01*
X0357654Y0114300D01*
X0349346Y0114300D01*
X0347215Y0113417D01*
X0345583Y0111785D01*
X0345299Y0111100D01*
X0341004Y0111100D01*
X0339889Y0112216D01*
X0337774Y0113091D01*
X0335486Y0113091D01*
X0333371Y0112216D01*
X0331753Y0110597D01*
X0331480Y0109939D01*
X0330953Y0109939D01*
X0330680Y0110597D01*
X0329062Y0112216D01*
X0326947Y0113091D01*
X0324659Y0113091D01*
X0322544Y0112216D01*
X0320926Y0110597D01*
X0320050Y0108483D01*
X0320050Y0106194D01*
X0320926Y0104080D01*
X0321605Y0103402D01*
X0320926Y0102723D01*
X0320050Y0100609D01*
X0320050Y0098320D01*
X0320050Y0098918D02*
X0293500Y0098918D01*
X0293500Y0100517D02*
X0320050Y0100517D01*
X0320674Y0102115D02*
X0293500Y0102115D01*
X0293500Y0103714D02*
X0321292Y0103714D01*
X0320416Y0105312D02*
X0293500Y0105312D01*
X0293500Y0106911D02*
X0320050Y0106911D01*
X0320061Y0108509D02*
X0293500Y0108509D01*
X0293500Y0110108D02*
X0320723Y0110108D01*
X0322035Y0111706D02*
X0293500Y0111706D01*
X0293500Y0113305D02*
X0347102Y0113305D01*
X0345550Y0111706D02*
X0340398Y0111706D01*
X0337791Y0108500D02*
X0336630Y0107339D01*
X0325803Y0107339D01*
X0330883Y0110108D02*
X0331550Y0110108D01*
X0332862Y0111706D02*
X0329571Y0111706D01*
X0337791Y0108500D02*
X0353500Y0108500D01*
X0359898Y0113305D02*
X0386000Y0113305D01*
X0386000Y0114903D02*
X0293500Y0114903D01*
X0293500Y0116502D02*
X0386000Y0116502D01*
X0386000Y0118100D02*
X0293500Y0118100D01*
X0293500Y0119699D02*
X0386000Y0119699D01*
X0386000Y0121297D02*
X0293500Y0121297D01*
X0293500Y0122896D02*
X0386000Y0122896D01*
X0386000Y0124494D02*
X0293500Y0124494D01*
X0293500Y0126093D02*
X0386000Y0126093D01*
X0386000Y0127691D02*
X0293500Y0127691D01*
X0293500Y0129290D02*
X0386000Y0129290D01*
X0386000Y0130888D02*
X0293500Y0130888D01*
X0293500Y0132487D02*
X0386000Y0132487D01*
X0386000Y0134085D02*
X0293500Y0134085D01*
X0293500Y0135684D02*
X0386000Y0135684D01*
X0386000Y0137282D02*
X0293500Y0137282D01*
X0293500Y0138881D02*
X0386000Y0138881D01*
X0386000Y0140479D02*
X0293500Y0140479D01*
X0293500Y0142078D02*
X0386000Y0142078D01*
X0386000Y0143676D02*
X0293500Y0143676D01*
X0293500Y0145275D02*
X0386000Y0145275D01*
X0386000Y0146873D02*
X0293500Y0146873D01*
X0293500Y0148472D02*
X0386000Y0148472D01*
X0386000Y0150070D02*
X0293500Y0150070D01*
X0293500Y0151669D02*
X0386000Y0151669D01*
X0386000Y0153268D02*
X0293500Y0153268D01*
X0293500Y0154866D02*
X0386000Y0154866D01*
X0386000Y0156465D02*
X0385577Y0156465D01*
X0386000Y0156578D02*
X0383709Y0155964D01*
X0380890Y0155964D01*
X0378167Y0156693D01*
X0375726Y0158103D01*
X0373733Y0160096D01*
X0372323Y0162537D01*
X0371594Y0165260D01*
X0371594Y0168079D01*
X0372323Y0170801D01*
X0373733Y0173243D01*
X0375726Y0175236D01*
X0378167Y0176645D01*
X0380890Y0177375D01*
X0383709Y0177375D01*
X0386000Y0176761D01*
X0386000Y0184524D01*
X0385597Y0184120D01*
X0382614Y0182885D01*
X0379386Y0182885D01*
X0376403Y0184120D01*
X0374120Y0186403D01*
X0372885Y0189386D01*
X0372885Y0192614D01*
X0374120Y0195597D01*
X0376403Y0197880D01*
X0379386Y0199115D01*
X0382614Y0199115D01*
X0385597Y0197880D01*
X0386000Y0197476D01*
X0386000Y0205239D01*
X0383709Y0204625D01*
X0380890Y0204625D01*
X0378167Y0205355D01*
X0375726Y0206764D01*
X0373733Y0208757D01*
X0372323Y0211199D01*
X0371594Y0213921D01*
X0371594Y0216740D01*
X0372323Y0219463D01*
X0373733Y0221904D01*
X0375726Y0223897D01*
X0378167Y0225307D01*
X0380890Y0226036D01*
X0383709Y0226036D01*
X0386000Y0225422D01*
X0386000Y0318500D01*
X0308429Y0318500D01*
X0309300Y0315251D01*
X0309300Y0311749D01*
X0308394Y0308366D01*
X0306643Y0305334D01*
X0304166Y0302857D01*
X0301134Y0301106D01*
X0297751Y0300200D01*
X0294249Y0300200D01*
X0293500Y0300401D01*
X0293500Y0036800D01*
X0295251Y0036800D01*
X0298237Y0036000D01*
X0322842Y0036000D01*
X0322544Y0036123D01*
X0320926Y0037741D01*
X0320050Y0039856D01*
X0320050Y0042144D01*
X0320926Y0044259D01*
X0321191Y0044524D01*
X0320926Y0044789D01*
X0320050Y0046903D01*
X0320050Y0049192D01*
X0320926Y0051306D01*
X0321191Y0051571D01*
X0320926Y0051836D01*
X0320050Y0053950D01*
X0320050Y0056239D01*
X0320926Y0058353D01*
X0321191Y0058618D01*
X0320926Y0058883D01*
X0320050Y0060997D01*
X0320050Y0063286D01*
X0320926Y0065400D01*
X0321191Y0065665D01*
X0320926Y0065930D01*
X0320050Y0068045D01*
X0320050Y0070333D01*
X0320926Y0072448D01*
X0322544Y0074066D01*
X0324659Y0074942D01*
X0326947Y0074942D01*
X0329062Y0074066D01*
X0330680Y0072448D01*
X0331217Y0071153D01*
X0331753Y0072448D01*
X0333371Y0074066D01*
X0335486Y0074942D01*
X0337774Y0074942D01*
X0339889Y0074066D01*
X0341507Y0072448D01*
X0342383Y0070333D01*
X0342383Y0068045D01*
X0341507Y0065930D01*
X0341242Y0065665D01*
X0341507Y0065400D01*
X0342383Y0063286D01*
X0342383Y0060997D01*
X0341507Y0058883D01*
X0341242Y0058618D01*
X0341507Y0058353D01*
X0342383Y0056239D01*
X0342383Y0053950D01*
X0341507Y0051836D01*
X0341242Y0051571D01*
X0341507Y0051306D01*
X0342383Y0049192D01*
X0342383Y0046903D01*
X0341507Y0044789D01*
X0341242Y0044524D01*
X0341507Y0044259D01*
X0342383Y0042144D01*
X0342383Y0039856D01*
X0341507Y0037741D01*
X0339889Y0036123D01*
X0339591Y0036000D01*
X0345085Y0036000D01*
X0342550Y0038535D01*
X0342550Y0043465D01*
X0346035Y0046950D01*
X0350965Y0046950D01*
X0354450Y0043465D01*
X0354450Y0038535D01*
X0351915Y0036000D01*
X0360030Y0036000D01*
X0361398Y0038368D01*
X0363632Y0040602D01*
X0366368Y0042182D01*
X0369420Y0043000D01*
X0372580Y0043000D01*
X0375632Y0042182D01*
X0378368Y0040602D01*
X0380602Y0038368D01*
X0381970Y0036000D01*
X0386000Y0036000D01*
X0386000Y0092585D01*
X0383465Y0090050D01*
X0378535Y0090050D01*
X0375050Y0093535D01*
X0375050Y0098465D01*
X0378535Y0101950D01*
X0383465Y0101950D01*
X0386000Y0099415D01*
X0386000Y0156578D01*
X0379021Y0156465D02*
X0293500Y0156465D01*
X0293500Y0158063D02*
X0375795Y0158063D01*
X0374167Y0159662D02*
X0293500Y0159662D01*
X0293500Y0161260D02*
X0373061Y0161260D01*
X0372237Y0162859D02*
X0293500Y0162859D01*
X0293500Y0164457D02*
X0371809Y0164457D01*
X0371594Y0166056D02*
X0293500Y0166056D01*
X0293500Y0167654D02*
X0371594Y0167654D01*
X0371908Y0169253D02*
X0293500Y0169253D01*
X0293500Y0170851D02*
X0323201Y0170851D01*
X0322544Y0171123D02*
X0324659Y0170247D01*
X0326947Y0170247D01*
X0329062Y0171123D01*
X0330680Y0172741D01*
X0331217Y0174036D01*
X0331753Y0172741D01*
X0333371Y0171123D01*
X0335486Y0170247D01*
X0337774Y0170247D01*
X0339889Y0171123D01*
X0341507Y0172741D01*
X0342383Y0174856D01*
X0342383Y0177144D01*
X0341507Y0179259D01*
X0341242Y0179524D01*
X0341507Y0179789D01*
X0342383Y0181903D01*
X0342383Y0184192D01*
X0341507Y0186306D01*
X0341242Y0186571D01*
X0341507Y0186836D01*
X0342383Y0188950D01*
X0342383Y0191239D01*
X0341507Y0193353D01*
X0341242Y0193618D01*
X0341507Y0193883D01*
X0342383Y0195997D01*
X0342383Y0198286D01*
X0341507Y0200400D01*
X0341242Y0200665D01*
X0341507Y0200930D01*
X0342383Y0203045D01*
X0342383Y0205333D01*
X0341507Y0207448D01*
X0339889Y0209066D01*
X0337774Y0209942D01*
X0335486Y0209942D01*
X0333371Y0209066D01*
X0331753Y0207448D01*
X0331217Y0206153D01*
X0330680Y0207448D01*
X0329062Y0209066D01*
X0326947Y0209942D01*
X0324659Y0209942D01*
X0322544Y0209066D01*
X0320926Y0207448D01*
X0320050Y0205333D01*
X0320050Y0203045D01*
X0320926Y0200930D01*
X0321191Y0200665D01*
X0320926Y0200400D01*
X0320050Y0198286D01*
X0320050Y0195997D01*
X0320926Y0193883D01*
X0321191Y0193618D01*
X0320926Y0193353D01*
X0320050Y0191239D01*
X0320050Y0188950D01*
X0320926Y0186836D01*
X0293500Y0186836D01*
X0293500Y0185238D02*
X0320484Y0185238D01*
X0320050Y0184192D02*
X0320050Y0181903D01*
X0320926Y0179789D01*
X0321191Y0179524D01*
X0320926Y0179259D01*
X0320050Y0177144D01*
X0320050Y0174856D01*
X0320926Y0172741D01*
X0322544Y0171123D01*
X0321218Y0172450D02*
X0293500Y0172450D01*
X0293500Y0174048D02*
X0320385Y0174048D01*
X0320050Y0175647D02*
X0293500Y0175647D01*
X0293500Y0177245D02*
X0320092Y0177245D01*
X0320754Y0178844D02*
X0293500Y0178844D01*
X0293500Y0180442D02*
X0320655Y0180442D01*
X0320050Y0182041D02*
X0293500Y0182041D01*
X0293500Y0183639D02*
X0320050Y0183639D01*
X0320050Y0184192D02*
X0320926Y0186306D01*
X0321191Y0186571D01*
X0320926Y0186836D01*
X0320264Y0188435D02*
X0293500Y0188435D01*
X0293500Y0190033D02*
X0320050Y0190033D01*
X0320213Y0191632D02*
X0293500Y0191632D01*
X0293500Y0193230D02*
X0320875Y0193230D01*
X0320534Y0194829D02*
X0293500Y0194829D01*
X0293500Y0196427D02*
X0320050Y0196427D01*
X0320050Y0198026D02*
X0293500Y0198026D01*
X0293500Y0199624D02*
X0320605Y0199624D01*
X0320805Y0201223D02*
X0293500Y0201223D01*
X0293500Y0202821D02*
X0320143Y0202821D01*
X0320050Y0204420D02*
X0293500Y0204420D01*
X0293500Y0206018D02*
X0320334Y0206018D01*
X0321095Y0207617D02*
X0293500Y0207617D01*
X0293500Y0209215D02*
X0322905Y0209215D01*
X0328701Y0209215D02*
X0333732Y0209215D01*
X0331922Y0207617D02*
X0330511Y0207617D01*
X0339528Y0209215D02*
X0373468Y0209215D01*
X0372545Y0210814D02*
X0293500Y0210814D01*
X0293500Y0212412D02*
X0371998Y0212412D01*
X0371594Y0214011D02*
X0293500Y0214011D01*
X0293500Y0215609D02*
X0371594Y0215609D01*
X0371719Y0217208D02*
X0293500Y0217208D01*
X0293500Y0218806D02*
X0349491Y0218806D01*
X0349715Y0218583D02*
X0351846Y0217700D01*
X0360154Y0217700D01*
X0362285Y0218583D01*
X0363917Y0220215D01*
X0364800Y0222346D01*
X0364800Y0224654D01*
X0363917Y0226785D01*
X0362285Y0228417D01*
X0362085Y0228500D01*
X0362285Y0228583D01*
X0363917Y0230215D01*
X0364800Y0232346D01*
X0364800Y0234654D01*
X0363917Y0236785D01*
X0362285Y0238417D01*
X0362085Y0238500D01*
X0362285Y0238583D01*
X0363917Y0240215D01*
X0364800Y0242346D01*
X0364800Y0244654D01*
X0363917Y0246785D01*
X0362285Y0248417D01*
X0360154Y0249300D01*
X0351846Y0249300D01*
X0349715Y0248417D01*
X0348083Y0246785D01*
X0347200Y0244654D01*
X0347200Y0242346D01*
X0348083Y0240215D01*
X0349715Y0238583D01*
X0349915Y0238500D01*
X0349715Y0238417D01*
X0348083Y0236785D01*
X0347200Y0234654D01*
X0347200Y0232346D01*
X0348083Y0230215D01*
X0349715Y0228583D01*
X0349915Y0228500D01*
X0349715Y0228417D01*
X0348083Y0226785D01*
X0347200Y0224654D01*
X0347200Y0222346D01*
X0348083Y0220215D01*
X0349715Y0218583D01*
X0348004Y0220405D02*
X0293500Y0220405D01*
X0293500Y0222003D02*
X0322255Y0222003D01*
X0322544Y0221714D02*
X0324659Y0220838D01*
X0326947Y0220838D01*
X0329062Y0221714D01*
X0330680Y0223332D01*
X0331217Y0224627D01*
X0331753Y0223332D01*
X0333371Y0221714D01*
X0335486Y0220838D01*
X0337774Y0220838D01*
X0339889Y0221714D01*
X0341507Y0223332D01*
X0342383Y0225446D01*
X0342383Y0227735D01*
X0341507Y0229849D01*
X0340829Y0230528D01*
X0341507Y0231206D01*
X0342383Y0233320D01*
X0342383Y0235609D01*
X0341507Y0237723D01*
X0340829Y0238402D01*
X0341507Y0239080D01*
X0342383Y0241194D01*
X0342383Y0243483D01*
X0341507Y0245597D01*
X0339889Y0247216D01*
X0337774Y0248091D01*
X0335486Y0248091D01*
X0333371Y0247216D01*
X0331753Y0245597D01*
X0331217Y0244302D01*
X0330680Y0245597D01*
X0329062Y0247216D01*
X0326947Y0248091D01*
X0324659Y0248091D01*
X0322544Y0247216D01*
X0320926Y0245597D01*
X0320050Y0243483D01*
X0320050Y0241194D01*
X0320926Y0239080D01*
X0321605Y0238402D01*
X0320926Y0237723D01*
X0320050Y0235609D01*
X0320050Y0233320D01*
X0320926Y0231206D01*
X0321605Y0230528D01*
X0320926Y0229849D01*
X0320050Y0227735D01*
X0320050Y0225446D01*
X0320926Y0223332D01*
X0322544Y0221714D01*
X0320814Y0223602D02*
X0293500Y0223602D01*
X0293500Y0225201D02*
X0320152Y0225201D01*
X0320050Y0226799D02*
X0293500Y0226799D01*
X0293500Y0228398D02*
X0320325Y0228398D01*
X0321073Y0229996D02*
X0293500Y0229996D01*
X0293500Y0231595D02*
X0320765Y0231595D01*
X0320103Y0233193D02*
X0293500Y0233193D01*
X0293500Y0234792D02*
X0320050Y0234792D01*
X0320374Y0236390D02*
X0293500Y0236390D01*
X0293500Y0237989D02*
X0321192Y0237989D01*
X0320716Y0239587D02*
X0293500Y0239587D01*
X0293500Y0241186D02*
X0320054Y0241186D01*
X0320050Y0242784D02*
X0293500Y0242784D01*
X0293500Y0244383D02*
X0320423Y0244383D01*
X0321310Y0245981D02*
X0293500Y0245981D01*
X0293500Y0247580D02*
X0323424Y0247580D01*
X0328183Y0247580D02*
X0334250Y0247580D01*
X0332137Y0245981D02*
X0330296Y0245981D01*
X0331183Y0244383D02*
X0331250Y0244383D01*
X0339009Y0247580D02*
X0348877Y0247580D01*
X0347750Y0245981D02*
X0341123Y0245981D01*
X0342010Y0244383D02*
X0347200Y0244383D01*
X0347200Y0242784D02*
X0342383Y0242784D01*
X0342379Y0241186D02*
X0347681Y0241186D01*
X0348710Y0239587D02*
X0341717Y0239587D01*
X0341241Y0237989D02*
X0349286Y0237989D01*
X0347919Y0236390D02*
X0342059Y0236390D01*
X0342383Y0234792D02*
X0347257Y0234792D01*
X0347200Y0233193D02*
X0342330Y0233193D01*
X0341668Y0231595D02*
X0347511Y0231595D01*
X0348302Y0229996D02*
X0341360Y0229996D01*
X0342108Y0228398D02*
X0349695Y0228398D01*
X0348097Y0226799D02*
X0342383Y0226799D01*
X0342281Y0225201D02*
X0347427Y0225201D01*
X0347200Y0223602D02*
X0341619Y0223602D01*
X0340178Y0222003D02*
X0347342Y0222003D01*
X0333081Y0222003D02*
X0329352Y0222003D01*
X0330792Y0223602D02*
X0331641Y0223602D01*
X0362305Y0228398D02*
X0386000Y0228398D01*
X0386000Y0229996D02*
X0363698Y0229996D01*
X0364489Y0231595D02*
X0386000Y0231595D01*
X0386000Y0233193D02*
X0364800Y0233193D01*
X0364743Y0234792D02*
X0386000Y0234792D01*
X0386000Y0236390D02*
X0364081Y0236390D01*
X0362714Y0237989D02*
X0386000Y0237989D01*
X0386000Y0239587D02*
X0363290Y0239587D01*
X0364319Y0241186D02*
X0386000Y0241186D01*
X0386000Y0242784D02*
X0364800Y0242784D01*
X0364800Y0244383D02*
X0386000Y0244383D01*
X0386000Y0245981D02*
X0364250Y0245981D01*
X0363123Y0247580D02*
X0386000Y0247580D01*
X0386000Y0249178D02*
X0360448Y0249178D01*
X0351552Y0249178D02*
X0293500Y0249178D01*
X0293500Y0250777D02*
X0386000Y0250777D01*
X0386000Y0252375D02*
X0293500Y0252375D01*
X0293500Y0253974D02*
X0386000Y0253974D01*
X0386000Y0255572D02*
X0293500Y0255572D01*
X0293500Y0257171D02*
X0386000Y0257171D01*
X0386000Y0258769D02*
X0293500Y0258769D01*
X0293500Y0260368D02*
X0386000Y0260368D01*
X0386000Y0261966D02*
X0293500Y0261966D01*
X0293500Y0263565D02*
X0386000Y0263565D01*
X0386000Y0265163D02*
X0293500Y0265163D01*
X0293500Y0266762D02*
X0386000Y0266762D01*
X0386000Y0268360D02*
X0293500Y0268360D01*
X0293500Y0269959D02*
X0386000Y0269959D01*
X0386000Y0271557D02*
X0293500Y0271557D01*
X0293500Y0273156D02*
X0386000Y0273156D01*
X0386000Y0274754D02*
X0293500Y0274754D01*
X0293500Y0276353D02*
X0386000Y0276353D01*
X0386000Y0277951D02*
X0293500Y0277951D01*
X0293500Y0279550D02*
X0386000Y0279550D01*
X0386000Y0281148D02*
X0293500Y0281148D01*
X0293500Y0282747D02*
X0386000Y0282747D01*
X0386000Y0284345D02*
X0293500Y0284345D01*
X0293500Y0285944D02*
X0386000Y0285944D01*
X0386000Y0287542D02*
X0293500Y0287542D01*
X0293500Y0289141D02*
X0386000Y0289141D01*
X0386000Y0290739D02*
X0293500Y0290739D01*
X0293500Y0292338D02*
X0386000Y0292338D01*
X0386000Y0293937D02*
X0293500Y0293937D01*
X0293500Y0295535D02*
X0365126Y0295535D01*
X0366368Y0294818D02*
X0369420Y0294000D01*
X0372580Y0294000D01*
X0375632Y0294818D01*
X0378368Y0296398D01*
X0380602Y0298632D01*
X0382182Y0301368D01*
X0383000Y0304420D01*
X0383000Y0307580D01*
X0382182Y0310632D01*
X0380602Y0313368D01*
X0378368Y0315602D01*
X0375632Y0317182D01*
X0372580Y0318000D01*
X0369420Y0318000D01*
X0366368Y0317182D01*
X0363632Y0315602D01*
X0361398Y0313368D01*
X0359818Y0310632D01*
X0359000Y0307580D01*
X0359000Y0304420D01*
X0359818Y0301368D01*
X0361398Y0298632D01*
X0363632Y0296398D01*
X0366368Y0294818D01*
X0362896Y0297134D02*
X0293500Y0297134D01*
X0293500Y0298732D02*
X0361340Y0298732D01*
X0360417Y0300331D02*
X0298238Y0300331D01*
X0293762Y0300331D02*
X0293500Y0300331D01*
X0302559Y0301929D02*
X0359667Y0301929D01*
X0359239Y0303528D02*
X0304837Y0303528D01*
X0306435Y0305126D02*
X0359000Y0305126D01*
X0359000Y0306725D02*
X0307446Y0306725D01*
X0308369Y0308323D02*
X0359199Y0308323D01*
X0359627Y0309922D02*
X0308810Y0309922D01*
X0309239Y0311520D02*
X0360331Y0311520D01*
X0361254Y0313119D02*
X0309300Y0313119D01*
X0309300Y0314717D02*
X0362747Y0314717D01*
X0364867Y0316316D02*
X0309015Y0316316D01*
X0308586Y0317914D02*
X0369100Y0317914D01*
X0372900Y0317914D02*
X0386000Y0317914D01*
X0386000Y0316316D02*
X0377133Y0316316D01*
X0379253Y0314717D02*
X0386000Y0314717D01*
X0386000Y0313119D02*
X0380746Y0313119D01*
X0381669Y0311520D02*
X0386000Y0311520D01*
X0386000Y0309922D02*
X0382373Y0309922D01*
X0382801Y0308323D02*
X0386000Y0308323D01*
X0386000Y0306725D02*
X0383000Y0306725D01*
X0383000Y0305126D02*
X0386000Y0305126D01*
X0386000Y0303528D02*
X0382761Y0303528D01*
X0382332Y0301929D02*
X0386000Y0301929D01*
X0386000Y0300331D02*
X0381583Y0300331D01*
X0380660Y0298732D02*
X0386000Y0298732D01*
X0386000Y0297134D02*
X0379104Y0297134D01*
X0376874Y0295535D02*
X0386000Y0295535D01*
X0268500Y0295535D02*
X0230535Y0295535D01*
X0231000Y0296000D02*
X0241000Y0301000D01*
X0263500Y0301000D01*
X0268500Y0296000D01*
X0268500Y0268500D01*
X0266000Y0266000D01*
X0264978Y0266000D01*
X0262971Y0266831D01*
X0260682Y0266831D01*
X0258675Y0266000D01*
X0254152Y0266000D01*
X0252144Y0266831D01*
X0249856Y0266831D01*
X0247741Y0265956D01*
X0246123Y0264337D01*
X0245618Y0263118D01*
X0241000Y0258500D01*
X0241000Y0238500D01*
X0246000Y0233500D01*
X0249227Y0233500D01*
X0249856Y0233239D01*
X0252144Y0233239D01*
X0252773Y0233500D01*
X0260053Y0233500D01*
X0260682Y0233239D01*
X0262971Y0233239D01*
X0263600Y0233500D01*
X0268500Y0233500D01*
X0271000Y0231000D01*
X0271000Y0206000D01*
X0268500Y0203500D01*
X0263790Y0203500D01*
X0262971Y0203839D01*
X0260682Y0203839D01*
X0259863Y0203500D01*
X0252964Y0203500D01*
X0252144Y0203839D01*
X0249856Y0203839D01*
X0249036Y0203500D01*
X0241000Y0203500D01*
X0226000Y0216000D01*
X0218500Y0238500D01*
X0206000Y0238500D01*
X0201000Y0243500D01*
X0201000Y0271000D01*
X0206000Y0278500D01*
X0208500Y0278500D01*
X0216000Y0283500D01*
X0221000Y0286000D01*
X0231000Y0296000D01*
X0233267Y0297134D02*
X0267366Y0297134D01*
X0265768Y0298732D02*
X0236464Y0298732D01*
X0239661Y0300331D02*
X0264169Y0300331D01*
X0268500Y0293937D02*
X0228937Y0293937D01*
X0227338Y0292338D02*
X0268500Y0292338D01*
X0268500Y0290739D02*
X0225739Y0290739D01*
X0224141Y0289141D02*
X0268500Y0289141D01*
X0268500Y0287542D02*
X0222542Y0287542D01*
X0220888Y0285944D02*
X0268500Y0285944D01*
X0268500Y0284345D02*
X0217691Y0284345D01*
X0214870Y0282747D02*
X0268500Y0282747D01*
X0268500Y0281148D02*
X0212473Y0281148D01*
X0210075Y0279550D02*
X0268500Y0279550D01*
X0268500Y0277951D02*
X0205634Y0277951D01*
X0204569Y0276353D02*
X0268500Y0276353D01*
X0268500Y0274754D02*
X0203503Y0274754D01*
X0202437Y0273156D02*
X0268500Y0273156D01*
X0268500Y0271557D02*
X0201372Y0271557D01*
X0201000Y0269959D02*
X0268500Y0269959D01*
X0268360Y0268360D02*
X0201000Y0268360D01*
X0201000Y0266762D02*
X0249687Y0266762D01*
X0252312Y0266762D02*
X0260514Y0266762D01*
X0263139Y0266762D02*
X0266762Y0266762D01*
X0246949Y0265163D02*
X0201000Y0265163D01*
X0201000Y0263565D02*
X0245803Y0263565D01*
X0244466Y0261966D02*
X0201000Y0261966D01*
X0201000Y0260368D02*
X0242868Y0260368D01*
X0241000Y0260368D02*
X0198500Y0260368D01*
X0198500Y0261966D02*
X0241000Y0261966D01*
X0241000Y0263565D02*
X0198500Y0263565D01*
X0198500Y0265163D02*
X0241000Y0265163D01*
X0241000Y0266762D02*
X0198500Y0266762D01*
X0198500Y0268360D02*
X0241000Y0268360D01*
X0241000Y0269959D02*
X0198500Y0269959D01*
X0198500Y0271557D02*
X0241000Y0271557D01*
X0241000Y0273156D02*
X0198500Y0273156D01*
X0198500Y0274754D02*
X0241000Y0274754D01*
X0241000Y0276353D02*
X0198500Y0276353D01*
X0198500Y0277951D02*
X0241000Y0277951D01*
X0241000Y0279550D02*
X0198500Y0279550D01*
X0198500Y0281148D02*
X0241000Y0281148D01*
X0241000Y0282747D02*
X0198500Y0282747D01*
X0199345Y0284345D02*
X0241000Y0284345D01*
X0241000Y0285944D02*
X0200944Y0285944D01*
X0202542Y0287542D02*
X0241000Y0287542D01*
X0241000Y0289141D02*
X0204141Y0289141D01*
X0205739Y0290739D02*
X0241000Y0290739D01*
X0241000Y0292338D02*
X0207338Y0292338D01*
X0208937Y0293937D02*
X0241000Y0293937D01*
X0241000Y0295535D02*
X0210535Y0295535D01*
X0212134Y0297134D02*
X0241000Y0297134D01*
X0160004Y0265163D02*
X0126000Y0265163D01*
X0126000Y0266000D02*
X0128500Y0268500D01*
X0133210Y0268500D01*
X0134029Y0268161D01*
X0136318Y0268161D01*
X0137137Y0268500D01*
X0144036Y0268500D01*
X0144856Y0268161D01*
X0147144Y0268161D01*
X0147964Y0268500D01*
X0156000Y0268500D01*
X0171000Y0256000D01*
X0178500Y0233500D01*
X0191000Y0233500D01*
X0196000Y0228500D01*
X0196000Y0201000D01*
X0191000Y0193500D01*
X0188500Y0193500D01*
X0181000Y0188500D01*
X0176000Y0186000D01*
X0166000Y0176000D01*
X0156000Y0171000D01*
X0133500Y0171000D01*
X0128500Y0176000D01*
X0128500Y0203500D01*
X0131000Y0206000D01*
X0132022Y0206000D01*
X0134029Y0205169D01*
X0136318Y0205169D01*
X0138325Y0206000D01*
X0142848Y0206000D01*
X0144856Y0205169D01*
X0147144Y0205169D01*
X0149259Y0206044D01*
X0150877Y0207663D01*
X0151382Y0208882D01*
X0156000Y0213500D01*
X0156000Y0233500D01*
X0151000Y0238500D01*
X0147773Y0238500D01*
X0147144Y0238761D01*
X0144856Y0238761D01*
X0144227Y0238500D01*
X0136947Y0238500D01*
X0136318Y0238761D01*
X0134029Y0238761D01*
X0133400Y0238500D01*
X0128500Y0238500D01*
X0126000Y0241000D01*
X0126000Y0266000D01*
X0126762Y0266762D02*
X0158086Y0266762D01*
X0156168Y0268360D02*
X0147626Y0268360D01*
X0144374Y0268360D02*
X0136800Y0268360D01*
X0133547Y0268360D02*
X0128360Y0268360D01*
X0126000Y0263565D02*
X0161922Y0263565D01*
X0163840Y0261966D02*
X0126000Y0261966D01*
X0126000Y0260368D02*
X0165759Y0260368D01*
X0167677Y0258769D02*
X0126000Y0258769D01*
X0126000Y0257171D02*
X0169595Y0257171D01*
X0171143Y0255572D02*
X0126000Y0255572D01*
X0126000Y0253974D02*
X0171675Y0253974D01*
X0172208Y0252375D02*
X0126000Y0252375D01*
X0126000Y0250777D02*
X0172741Y0250777D01*
X0173274Y0249178D02*
X0126000Y0249178D01*
X0126000Y0247580D02*
X0173807Y0247580D01*
X0174340Y0245981D02*
X0126000Y0245981D01*
X0126000Y0244383D02*
X0174872Y0244383D01*
X0175405Y0242784D02*
X0126000Y0242784D01*
X0126000Y0241186D02*
X0175938Y0241186D01*
X0176471Y0239587D02*
X0127413Y0239587D01*
X0151511Y0237989D02*
X0177004Y0237989D01*
X0177537Y0236390D02*
X0153110Y0236390D01*
X0154708Y0234792D02*
X0178069Y0234792D01*
X0170540Y0233193D02*
X0241000Y0233193D01*
X0241000Y0231595D02*
X0168142Y0231595D01*
X0165744Y0229996D02*
X0241000Y0229996D01*
X0241000Y0228398D02*
X0163346Y0228398D01*
X0160949Y0226799D02*
X0241000Y0226799D01*
X0241000Y0225201D02*
X0158551Y0225201D01*
X0156000Y0225201D02*
X0196000Y0225201D01*
X0196000Y0226799D02*
X0156000Y0226799D01*
X0156000Y0228398D02*
X0196000Y0228398D01*
X0194504Y0229996D02*
X0156000Y0229996D01*
X0156000Y0231595D02*
X0192905Y0231595D01*
X0191307Y0233193D02*
X0156000Y0233193D01*
X0156000Y0223602D02*
X0196000Y0223602D01*
X0196000Y0222003D02*
X0156000Y0222003D01*
X0241000Y0222003D01*
X0241000Y0220405D02*
X0156000Y0220405D01*
X0196000Y0220405D01*
X0196000Y0218806D02*
X0156000Y0218806D01*
X0212892Y0218806D01*
X0213535Y0219450D02*
X0210050Y0215965D01*
X0210050Y0211035D01*
X0213535Y0207550D01*
X0218465Y0207550D01*
X0221950Y0211035D01*
X0221950Y0215965D01*
X0218465Y0219450D01*
X0213535Y0219450D01*
X0211293Y0217208D02*
X0156000Y0217208D01*
X0196000Y0217208D01*
X0196000Y0215609D02*
X0156000Y0215609D01*
X0210050Y0215609D01*
X0210050Y0214011D02*
X0156000Y0214011D01*
X0196000Y0214011D01*
X0196000Y0212412D02*
X0177179Y0212412D01*
X0210050Y0212412D01*
X0210272Y0210814D02*
X0178813Y0210814D01*
X0196000Y0210814D01*
X0196000Y0209215D02*
X0179596Y0209215D01*
X0211870Y0209215D01*
X0213469Y0207617D02*
X0179982Y0207617D01*
X0196000Y0207617D01*
X0196000Y0206018D02*
X0179982Y0206018D01*
X0241000Y0206018D01*
X0241000Y0204420D02*
X0179982Y0204420D01*
X0196000Y0204420D01*
X0196000Y0202821D02*
X0179982Y0202821D01*
X0241000Y0202821D01*
X0241000Y0201223D02*
X0229192Y0201223D01*
X0228465Y0201950D02*
X0223535Y0201950D01*
X0220050Y0198465D01*
X0220050Y0193535D01*
X0223535Y0190050D01*
X0228465Y0190050D01*
X0231950Y0193535D01*
X0231950Y0198465D01*
X0228465Y0201950D01*
X0230790Y0199624D02*
X0241000Y0199624D01*
X0241000Y0198026D02*
X0231950Y0198026D01*
X0231950Y0196427D02*
X0241000Y0196427D01*
X0241000Y0194829D02*
X0231950Y0194829D01*
X0231645Y0193230D02*
X0241000Y0193230D01*
X0241000Y0191632D02*
X0230046Y0191632D01*
X0221954Y0191632D02*
X0156000Y0191632D01*
X0156000Y0193230D02*
X0220355Y0193230D01*
X0220050Y0194829D02*
X0177456Y0194829D01*
X0191886Y0194829D01*
X0192952Y0196427D02*
X0179034Y0196427D01*
X0220050Y0196427D01*
X0220050Y0198026D02*
X0179696Y0198026D01*
X0194017Y0198026D01*
X0195083Y0199624D02*
X0179982Y0199624D01*
X0221210Y0199624D01*
X0222808Y0201223D02*
X0179982Y0201223D01*
X0196000Y0201223D01*
X0188095Y0193230D02*
X0128500Y0193230D01*
X0128500Y0191632D02*
X0185698Y0191632D01*
X0183300Y0190033D02*
X0128500Y0190033D01*
X0128500Y0188435D02*
X0180870Y0188435D01*
X0177672Y0186836D02*
X0128500Y0186836D01*
X0128500Y0185238D02*
X0175238Y0185238D01*
X0173639Y0183639D02*
X0128500Y0183639D01*
X0128500Y0182041D02*
X0172041Y0182041D01*
X0170442Y0180442D02*
X0128500Y0180442D01*
X0128500Y0178844D02*
X0168844Y0178844D01*
X0167245Y0177245D02*
X0128500Y0177245D01*
X0128853Y0175647D02*
X0165293Y0175647D01*
X0162096Y0174048D02*
X0130452Y0174048D01*
X0132050Y0172450D02*
X0158899Y0172450D01*
X0156000Y0172450D02*
X0241000Y0172450D01*
X0241000Y0174048D02*
X0156000Y0174048D01*
X0156000Y0175647D02*
X0241000Y0175647D01*
X0241000Y0177245D02*
X0156000Y0177245D01*
X0156000Y0178844D02*
X0241000Y0178844D01*
X0241000Y0180442D02*
X0156000Y0180442D01*
X0156000Y0182041D02*
X0241000Y0182041D01*
X0241000Y0183639D02*
X0156000Y0183639D01*
X0156000Y0185238D02*
X0241000Y0185238D01*
X0241000Y0186836D02*
X0156000Y0186836D01*
X0156000Y0188435D02*
X0241000Y0188435D01*
X0241000Y0190033D02*
X0156000Y0190033D01*
X0156000Y0194829D02*
X0169859Y0194829D01*
X0128500Y0194829D01*
X0128500Y0196427D02*
X0168281Y0196427D01*
X0156000Y0196427D01*
X0156000Y0198026D02*
X0167619Y0198026D01*
X0128500Y0198026D01*
X0128500Y0199624D02*
X0167332Y0199624D01*
X0156000Y0199624D01*
X0156000Y0201223D02*
X0167332Y0201223D01*
X0128500Y0201223D01*
X0128500Y0202821D02*
X0167332Y0202821D01*
X0156000Y0202821D01*
X0156000Y0204420D02*
X0167332Y0204420D01*
X0129420Y0204420D01*
X0149196Y0206018D02*
X0167332Y0206018D01*
X0156000Y0206018D01*
X0156000Y0207617D02*
X0167332Y0207617D01*
X0150831Y0207617D01*
X0151715Y0209215D02*
X0167719Y0209215D01*
X0156000Y0209215D01*
X0156000Y0210814D02*
X0168502Y0210814D01*
X0153314Y0210814D01*
X0154912Y0212412D02*
X0170136Y0212412D01*
X0156000Y0212412D01*
X0167332Y0208283D02*
X0168295Y0210608D01*
X0170075Y0212387D01*
X0172399Y0213350D01*
X0174916Y0213350D01*
X0177240Y0212387D01*
X0179020Y0210608D01*
X0179982Y0208283D01*
X0179982Y0198717D01*
X0179020Y0196392D01*
X0177240Y0194613D01*
X0174916Y0193650D01*
X0172399Y0193650D01*
X0170075Y0194613D01*
X0168295Y0196392D01*
X0167332Y0198717D01*
X0167332Y0208283D01*
X0168295Y0210608D01*
X0170075Y0212387D01*
X0172399Y0213350D01*
X0174916Y0213350D01*
X0177240Y0212387D01*
X0179020Y0210608D01*
X0179982Y0208283D01*
X0179982Y0198717D01*
X0179020Y0196392D01*
X0177240Y0194613D01*
X0174916Y0193650D01*
X0172399Y0193650D01*
X0170075Y0194613D01*
X0168295Y0196392D01*
X0167332Y0198717D01*
X0167332Y0208283D01*
X0156153Y0223602D02*
X0241000Y0223602D01*
X0241000Y0218806D02*
X0219108Y0218806D01*
X0220707Y0217208D02*
X0241000Y0217208D01*
X0241000Y0215609D02*
X0221950Y0215609D01*
X0221950Y0214011D02*
X0241000Y0214011D01*
X0241000Y0212412D02*
X0221950Y0212412D01*
X0221728Y0210814D02*
X0241000Y0210814D01*
X0241000Y0209215D02*
X0220130Y0209215D01*
X0218531Y0207617D02*
X0241000Y0207617D01*
X0239896Y0204420D02*
X0269420Y0204420D01*
X0271000Y0206018D02*
X0237978Y0206018D01*
X0236060Y0207617D02*
X0271000Y0207617D01*
X0271000Y0209215D02*
X0234142Y0209215D01*
X0232223Y0210814D02*
X0271000Y0210814D01*
X0271000Y0212412D02*
X0230305Y0212412D01*
X0228387Y0214011D02*
X0271000Y0214011D01*
X0271000Y0215609D02*
X0226469Y0215609D01*
X0225597Y0217208D02*
X0271000Y0217208D01*
X0271000Y0218806D02*
X0225065Y0218806D01*
X0224532Y0220405D02*
X0271000Y0220405D01*
X0271000Y0222003D02*
X0223999Y0222003D01*
X0223466Y0223602D02*
X0271000Y0223602D01*
X0271000Y0225201D02*
X0222933Y0225201D01*
X0222400Y0226799D02*
X0271000Y0226799D01*
X0271000Y0228398D02*
X0221867Y0228398D01*
X0221335Y0229996D02*
X0271000Y0229996D01*
X0270405Y0231595D02*
X0220802Y0231595D01*
X0220269Y0233193D02*
X0268807Y0233193D01*
X0244708Y0234792D02*
X0219736Y0234792D01*
X0219203Y0236390D02*
X0243110Y0236390D01*
X0241000Y0236390D02*
X0198500Y0236390D01*
X0198500Y0234792D02*
X0241000Y0234792D01*
X0241000Y0237989D02*
X0198500Y0237989D01*
X0198500Y0239587D02*
X0241000Y0239587D01*
X0204913Y0239587D01*
X0203314Y0241186D02*
X0241000Y0241186D01*
X0198500Y0241186D01*
X0198500Y0242784D02*
X0241000Y0242784D01*
X0201716Y0242784D01*
X0201000Y0244383D02*
X0241000Y0244383D01*
X0198500Y0244383D01*
X0198500Y0245981D02*
X0241000Y0245981D01*
X0201000Y0245981D01*
X0201000Y0247580D02*
X0241000Y0247580D01*
X0198500Y0247580D01*
X0198500Y0249178D02*
X0241000Y0249178D01*
X0201000Y0249178D01*
X0201000Y0250777D02*
X0241000Y0250777D01*
X0198500Y0250777D01*
X0198500Y0252375D02*
X0241000Y0252375D01*
X0201000Y0252375D01*
X0201000Y0253974D02*
X0241000Y0253974D01*
X0198500Y0253974D01*
X0198500Y0255572D02*
X0241000Y0255572D01*
X0201000Y0255572D01*
X0201000Y0257171D02*
X0241000Y0257171D01*
X0198500Y0257171D01*
X0198500Y0258769D02*
X0241000Y0258769D01*
X0241269Y0258769D02*
X0201000Y0258769D01*
X0218670Y0237989D02*
X0241511Y0237989D01*
X0341338Y0207617D02*
X0374873Y0207617D01*
X0377018Y0206018D02*
X0342099Y0206018D01*
X0342383Y0204420D02*
X0386000Y0204420D01*
X0386000Y0202821D02*
X0342290Y0202821D01*
X0341628Y0201223D02*
X0386000Y0201223D01*
X0386000Y0199624D02*
X0341828Y0199624D01*
X0342383Y0198026D02*
X0376756Y0198026D01*
X0374951Y0196427D02*
X0342383Y0196427D01*
X0341899Y0194829D02*
X0373802Y0194829D01*
X0373140Y0193230D02*
X0341558Y0193230D01*
X0342220Y0191632D02*
X0372885Y0191632D01*
X0372885Y0190033D02*
X0342383Y0190033D01*
X0342169Y0188435D02*
X0373279Y0188435D01*
X0373941Y0186836D02*
X0341507Y0186836D01*
X0341949Y0185238D02*
X0375286Y0185238D01*
X0377565Y0183639D02*
X0342383Y0183639D01*
X0342383Y0182041D02*
X0386000Y0182041D01*
X0386000Y0183639D02*
X0384435Y0183639D01*
X0386000Y0180442D02*
X0341778Y0180442D01*
X0341679Y0178844D02*
X0386000Y0178844D01*
X0386000Y0177245D02*
X0384192Y0177245D01*
X0380406Y0177245D02*
X0342341Y0177245D01*
X0342383Y0175647D02*
X0376437Y0175647D01*
X0374538Y0174048D02*
X0342048Y0174048D01*
X0341215Y0172450D02*
X0373275Y0172450D01*
X0372352Y0170851D02*
X0339232Y0170851D01*
X0334028Y0170851D02*
X0328405Y0170851D01*
X0330388Y0172450D02*
X0332045Y0172450D01*
X0385244Y0198026D02*
X0386000Y0198026D01*
X0372147Y0218806D02*
X0362509Y0218806D01*
X0363996Y0220405D02*
X0372867Y0220405D01*
X0373832Y0222003D02*
X0364658Y0222003D01*
X0364800Y0223602D02*
X0375431Y0223602D01*
X0377983Y0225201D02*
X0364573Y0225201D01*
X0363903Y0226799D02*
X0386000Y0226799D01*
X0265043Y0164457D02*
X0237914Y0164457D01*
X0241000Y0164457D02*
X0156000Y0164457D01*
X0156000Y0162859D02*
X0241000Y0162859D01*
X0241000Y0161260D02*
X0156000Y0161260D01*
X0156000Y0159662D02*
X0172942Y0159662D01*
X0173717Y0159982D02*
X0171392Y0159020D01*
X0169613Y0157240D01*
X0168650Y0154916D01*
X0168650Y0152399D01*
X0169613Y0150075D01*
X0171392Y0148295D01*
X0173717Y0147332D01*
X0183283Y0147332D01*
X0185608Y0148295D01*
X0187387Y0150075D01*
X0188350Y0152399D01*
X0188350Y0154916D01*
X0187387Y0157240D01*
X0185608Y0159020D01*
X0183283Y0159982D01*
X0173717Y0159982D01*
X0170436Y0158063D02*
X0156000Y0158063D01*
X0156000Y0156465D02*
X0169292Y0156465D01*
X0168650Y0154866D02*
X0156000Y0154866D01*
X0156000Y0153268D02*
X0168650Y0153268D01*
X0168953Y0151669D02*
X0156000Y0151669D01*
X0156000Y0150070D02*
X0169617Y0150070D01*
X0171216Y0148472D02*
X0156000Y0148472D01*
X0156000Y0146873D02*
X0241000Y0146873D01*
X0241000Y0145275D02*
X0156000Y0145275D01*
X0156000Y0143676D02*
X0241000Y0143676D01*
X0241000Y0142078D02*
X0156000Y0142078D01*
X0156000Y0140479D02*
X0241000Y0140479D01*
X0241000Y0138881D02*
X0156000Y0138881D01*
X0156000Y0137282D02*
X0241000Y0137282D01*
X0241000Y0135684D02*
X0156000Y0135684D01*
X0156000Y0134085D02*
X0241000Y0134085D01*
X0241000Y0132487D02*
X0156000Y0132487D01*
X0156000Y0130888D02*
X0241000Y0130888D01*
X0241000Y0129290D02*
X0156000Y0129290D01*
X0156000Y0127691D02*
X0241000Y0127691D01*
X0241000Y0126093D02*
X0156000Y0126093D01*
X0156000Y0124494D02*
X0241000Y0124494D01*
X0241994Y0124494D02*
X0208500Y0124494D01*
X0208500Y0122896D02*
X0241000Y0122896D01*
X0156000Y0122896D01*
X0156000Y0121297D02*
X0241000Y0121297D01*
X0208500Y0121297D01*
X0208500Y0119699D02*
X0210532Y0119699D01*
X0183968Y0119699D01*
X0183283Y0119982D02*
X0173717Y0119982D01*
X0171392Y0119020D01*
X0169613Y0117240D01*
X0168650Y0114916D01*
X0168650Y0112399D01*
X0169613Y0110075D01*
X0171392Y0108295D01*
X0173717Y0107332D01*
X0183283Y0107332D01*
X0185608Y0108295D01*
X0187387Y0110075D01*
X0188350Y0112399D01*
X0188350Y0114916D01*
X0187387Y0117240D01*
X0185608Y0119020D01*
X0183283Y0119982D01*
X0186527Y0118100D02*
X0207973Y0118100D01*
X0207113Y0117240D02*
X0208892Y0119020D01*
X0211217Y0119982D01*
X0220783Y0119982D01*
X0223108Y0119020D01*
X0224887Y0117240D01*
X0225850Y0114916D01*
X0225850Y0112399D01*
X0224887Y0110075D01*
X0223108Y0108295D01*
X0220783Y0107332D01*
X0211217Y0107332D01*
X0208892Y0108295D01*
X0207113Y0110075D01*
X0206150Y0112399D01*
X0206150Y0114916D01*
X0207113Y0117240D01*
X0206807Y0116502D02*
X0187693Y0116502D01*
X0188350Y0114903D02*
X0206150Y0114903D01*
X0206150Y0113305D02*
X0188350Y0113305D01*
X0188063Y0111706D02*
X0206437Y0111706D01*
X0207099Y0110108D02*
X0187401Y0110108D01*
X0185822Y0108509D02*
X0208678Y0108509D01*
X0208500Y0108509D01*
X0210089Y0106911D02*
X0241000Y0106911D01*
X0156000Y0106911D01*
X0156000Y0108509D02*
X0171178Y0108509D01*
X0126000Y0108509D01*
X0126000Y0106911D02*
X0174863Y0106911D01*
X0175396Y0105312D02*
X0126000Y0105312D01*
X0126000Y0103714D02*
X0175929Y0103714D01*
X0176462Y0102115D02*
X0127385Y0102115D01*
X0126000Y0110108D02*
X0169599Y0110108D01*
X0156000Y0110108D01*
X0156000Y0111706D02*
X0168937Y0111706D01*
X0126000Y0111706D01*
X0126000Y0113305D02*
X0168650Y0113305D01*
X0156000Y0113305D01*
X0156000Y0114903D02*
X0168650Y0114903D01*
X0126000Y0114903D01*
X0126000Y0116502D02*
X0169307Y0116502D01*
X0156000Y0116502D01*
X0156000Y0118100D02*
X0170473Y0118100D01*
X0126000Y0118100D01*
X0126000Y0119699D02*
X0169561Y0119699D01*
X0167643Y0121297D02*
X0126000Y0121297D01*
X0126000Y0122896D02*
X0165725Y0122896D01*
X0163807Y0124494D02*
X0126000Y0124494D01*
X0126000Y0126093D02*
X0161889Y0126093D01*
X0159970Y0127691D02*
X0126000Y0127691D01*
X0126790Y0129290D02*
X0158052Y0129290D01*
X0156134Y0130888D02*
X0147694Y0130888D01*
X0144306Y0130888D02*
X0136867Y0130888D01*
X0133479Y0130888D02*
X0128388Y0130888D01*
X0101000Y0130888D02*
X0076950Y0130888D01*
X0076950Y0131455D02*
X0076074Y0133570D01*
X0075809Y0133835D01*
X0076074Y0134100D01*
X0076950Y0136214D01*
X0076950Y0138503D01*
X0076074Y0140617D01*
X0075809Y0140882D01*
X0076074Y0141147D01*
X0076950Y0143261D01*
X0076950Y0145550D01*
X0076074Y0147664D01*
X0075809Y0147929D01*
X0076074Y0148194D01*
X0076950Y0150308D01*
X0076950Y0152597D01*
X0076074Y0154711D01*
X0075809Y0154976D01*
X0076074Y0155241D01*
X0076950Y0157356D01*
X0076950Y0159644D01*
X0076074Y0161759D01*
X0074456Y0163377D01*
X0072341Y0164253D01*
X0070053Y0164253D01*
X0067938Y0163377D01*
X0066320Y0161759D01*
X0065783Y0160464D01*
X0065247Y0161759D01*
X0063629Y0163377D01*
X0061514Y0164253D01*
X0059226Y0164253D01*
X0057111Y0163377D01*
X0055493Y0161759D01*
X0054617Y0159644D01*
X0054617Y0157356D01*
X0055493Y0155241D01*
X0055758Y0154976D01*
X0055493Y0154711D01*
X0054617Y0152597D01*
X0054617Y0150308D01*
X0055493Y0148194D01*
X0055758Y0147929D01*
X0055493Y0147664D01*
X0054617Y0145550D01*
X0054617Y0143261D01*
X0055493Y0141147D01*
X0055758Y0140882D01*
X0055493Y0140617D01*
X0054617Y0138503D01*
X0054617Y0136214D01*
X0055493Y0134100D01*
X0055758Y0133835D01*
X0055493Y0133570D01*
X0054617Y0131455D01*
X0054617Y0129167D01*
X0055493Y0127052D01*
X0057111Y0125434D01*
X0059226Y0124558D01*
X0061514Y0124558D01*
X0063629Y0125434D01*
X0065247Y0127052D01*
X0065783Y0128347D01*
X0066320Y0127052D01*
X0067938Y0125434D01*
X0070053Y0124558D01*
X0072341Y0124558D01*
X0074456Y0125434D01*
X0076074Y0127052D01*
X0076950Y0129167D01*
X0076950Y0131455D01*
X0076522Y0132487D02*
X0101000Y0132487D01*
X0101000Y0134085D02*
X0076060Y0134085D01*
X0076730Y0135684D02*
X0101000Y0135684D01*
X0101000Y0137282D02*
X0076950Y0137282D01*
X0076793Y0138881D02*
X0101000Y0138881D01*
X0101000Y0140479D02*
X0076131Y0140479D01*
X0076459Y0142078D02*
X0101000Y0142078D01*
X0101000Y0143676D02*
X0076950Y0143676D01*
X0076950Y0145275D02*
X0101000Y0145275D01*
X0101000Y0146873D02*
X0076401Y0146873D01*
X0076189Y0148472D02*
X0101000Y0148472D01*
X0101000Y0150070D02*
X0076851Y0150070D01*
X0076950Y0151669D02*
X0101000Y0151669D01*
X0101000Y0153268D02*
X0076672Y0153268D01*
X0075919Y0154866D02*
X0101000Y0154866D01*
X0101000Y0156465D02*
X0076580Y0156465D01*
X0076950Y0158063D02*
X0101000Y0158063D01*
X0101000Y0159662D02*
X0076942Y0159662D01*
X0076280Y0161260D02*
X0101000Y0161260D01*
X0101000Y0162859D02*
X0074974Y0162859D01*
X0067420Y0162859D02*
X0064147Y0162859D01*
X0065454Y0161260D02*
X0066113Y0161260D01*
X0056593Y0162859D02*
X0008500Y0162859D01*
X0008500Y0164457D02*
X0101000Y0164457D01*
X0101000Y0166056D02*
X0008500Y0166056D01*
X0008500Y0167654D02*
X0101000Y0167654D01*
X0101000Y0169253D02*
X0008500Y0169253D01*
X0008500Y0170851D02*
X0101000Y0170851D01*
X0101000Y0172450D02*
X0022643Y0172450D01*
X0024720Y0174048D02*
X0101000Y0174048D01*
X0101000Y0175647D02*
X0026085Y0175647D01*
X0027008Y0177245D02*
X0101000Y0177245D01*
X0101000Y0178844D02*
X0027527Y0178844D01*
X0027906Y0180442D02*
X0101000Y0180442D01*
X0101000Y0182041D02*
X0027906Y0182041D01*
X0027756Y0183639D02*
X0101000Y0183639D01*
X0101000Y0185238D02*
X0027328Y0185238D01*
X0026579Y0186836D02*
X0101000Y0186836D01*
X0101000Y0188435D02*
X0025575Y0188435D01*
X0023977Y0190033D02*
X0101000Y0190033D01*
X0101000Y0191632D02*
X0021356Y0191632D01*
X0013045Y0191632D02*
X0008500Y0191632D01*
X0008500Y0193230D02*
X0101000Y0193230D01*
X0101000Y0194829D02*
X0008500Y0194829D01*
X0008500Y0196427D02*
X0101000Y0196427D01*
X0101000Y0198026D02*
X0020454Y0198026D01*
X0020114Y0197885D02*
X0023097Y0199120D01*
X0025380Y0201403D01*
X0026615Y0204386D01*
X0026615Y0207614D01*
X0025380Y0210597D01*
X0023097Y0212880D01*
X0020114Y0214115D01*
X0016886Y0214115D01*
X0013903Y0212880D01*
X0011620Y0210597D01*
X0010385Y0207614D01*
X0010385Y0204386D01*
X0011620Y0201403D01*
X0013903Y0199120D01*
X0016886Y0197885D01*
X0020114Y0197885D01*
X0016546Y0198026D02*
X0008500Y0198026D01*
X0008500Y0199624D02*
X0013399Y0199624D01*
X0011801Y0201223D02*
X0008500Y0201223D01*
X0008500Y0202821D02*
X0011033Y0202821D01*
X0010385Y0204420D02*
X0008500Y0204420D01*
X0008500Y0206018D02*
X0010385Y0206018D01*
X0010386Y0207617D02*
X0008500Y0207617D01*
X0008500Y0209215D02*
X0011048Y0209215D01*
X0011838Y0210814D02*
X0008500Y0210814D01*
X0008500Y0212412D02*
X0013436Y0212412D01*
X0016635Y0214011D02*
X0008500Y0214011D01*
X0008500Y0215609D02*
X0101000Y0215609D01*
X0101000Y0214011D02*
X0020365Y0214011D01*
X0023564Y0212412D02*
X0101000Y0212412D01*
X0101000Y0210814D02*
X0025162Y0210814D01*
X0025952Y0209215D02*
X0101000Y0209215D01*
X0101000Y0207617D02*
X0026614Y0207617D01*
X0026615Y0206018D02*
X0101000Y0206018D01*
X0101000Y0204420D02*
X0026615Y0204420D01*
X0025967Y0202821D02*
X0101000Y0202821D01*
X0101000Y0201223D02*
X0025199Y0201223D01*
X0023601Y0199624D02*
X0101000Y0199624D01*
X0101000Y0217208D02*
X0008500Y0217208D01*
X0008500Y0218806D02*
X0101000Y0218806D01*
X0101000Y0220405D02*
X0045649Y0220405D01*
X0045154Y0220200D02*
X0047285Y0221083D01*
X0048917Y0222715D01*
X0049201Y0223400D01*
X0057226Y0223400D01*
X0058181Y0223796D01*
X0058567Y0224181D01*
X0059226Y0223909D01*
X0061514Y0223909D01*
X0063629Y0224784D01*
X0065247Y0226403D01*
X0065520Y0227061D01*
X0066047Y0227061D01*
X0066320Y0226403D01*
X0067938Y0224784D01*
X0070053Y0223909D01*
X0072341Y0223909D01*
X0074456Y0224784D01*
X0076074Y0226403D01*
X0076950Y0228517D01*
X0076950Y0230806D01*
X0076074Y0232920D01*
X0075395Y0233598D01*
X0076074Y0234277D01*
X0076950Y0236391D01*
X0076950Y0238680D01*
X0076074Y0240794D01*
X0075395Y0241472D01*
X0076074Y0242151D01*
X0076950Y0244265D01*
X0076950Y0246554D01*
X0076074Y0248668D01*
X0074456Y0250286D01*
X0072341Y0251162D01*
X0070053Y0251162D01*
X0067938Y0250286D01*
X0066320Y0248668D01*
X0066047Y0248009D01*
X0065520Y0248009D01*
X0065247Y0248668D01*
X0063629Y0250286D01*
X0061514Y0251162D01*
X0059226Y0251162D01*
X0057111Y0250286D01*
X0055493Y0248668D01*
X0055465Y0248600D01*
X0049201Y0248600D01*
X0048917Y0249285D01*
X0047285Y0250917D01*
X0045154Y0251800D01*
X0036846Y0251800D01*
X0034715Y0250917D01*
X0033083Y0249285D01*
X0032200Y0247154D01*
X0032200Y0244846D01*
X0033083Y0242715D01*
X0034715Y0241083D01*
X0034915Y0241000D01*
X0034715Y0240917D01*
X0033083Y0239285D01*
X0032200Y0237154D01*
X0032200Y0234846D01*
X0033083Y0232715D01*
X0034715Y0231083D01*
X0034915Y0231000D01*
X0034715Y0230917D01*
X0033083Y0229285D01*
X0032200Y0227154D01*
X0032200Y0224846D01*
X0033083Y0222715D01*
X0034715Y0221083D01*
X0036846Y0220200D01*
X0045154Y0220200D01*
X0048206Y0222003D02*
X0101000Y0222003D01*
X0101000Y0223602D02*
X0057714Y0223602D01*
X0056709Y0226000D02*
X0060370Y0229661D01*
X0071197Y0229661D01*
X0076623Y0231595D02*
X0101000Y0231595D01*
X0101000Y0233193D02*
X0075801Y0233193D01*
X0076287Y0234792D02*
X0101000Y0234792D01*
X0101000Y0236390D02*
X0076949Y0236390D01*
X0076950Y0237989D02*
X0101000Y0237989D01*
X0101000Y0239587D02*
X0076574Y0239587D01*
X0075682Y0241186D02*
X0101000Y0241186D01*
X0101000Y0242784D02*
X0076336Y0242784D01*
X0076950Y0244383D02*
X0101000Y0244383D01*
X0101000Y0245981D02*
X0076950Y0245981D01*
X0076525Y0247580D02*
X0101000Y0247580D01*
X0101000Y0249178D02*
X0075564Y0249178D01*
X0073272Y0250777D02*
X0101000Y0250777D01*
X0101000Y0252375D02*
X0008500Y0252375D01*
X0008500Y0250777D02*
X0034574Y0250777D01*
X0033039Y0249178D02*
X0008500Y0249178D01*
X0008500Y0247580D02*
X0032376Y0247580D01*
X0032200Y0245981D02*
X0008500Y0245981D01*
X0008500Y0244383D02*
X0032392Y0244383D01*
X0033054Y0242784D02*
X0008500Y0242784D01*
X0008500Y0241186D02*
X0034612Y0241186D01*
X0033385Y0239587D02*
X0022579Y0239587D01*
X0024683Y0237989D02*
X0032546Y0237989D01*
X0032200Y0236390D02*
X0026064Y0236390D01*
X0026987Y0234792D02*
X0032223Y0234792D01*
X0032885Y0233193D02*
X0027517Y0233193D01*
X0027906Y0231595D02*
X0034203Y0231595D01*
X0033794Y0229996D02*
X0027906Y0229996D01*
X0027766Y0228398D02*
X0032715Y0228398D01*
X0032200Y0226799D02*
X0027338Y0226799D01*
X0026601Y0225201D02*
X0032200Y0225201D01*
X0032715Y0223602D02*
X0025612Y0223602D01*
X0024013Y0222003D02*
X0033794Y0222003D01*
X0036351Y0220405D02*
X0021420Y0220405D01*
X0012982Y0220405D02*
X0008500Y0220405D01*
X0008500Y0222003D02*
X0010388Y0222003D01*
X0008790Y0223602D02*
X0008500Y0223602D01*
X0041000Y0226000D02*
X0056709Y0226000D01*
X0064045Y0225201D02*
X0067522Y0225201D01*
X0066156Y0226799D02*
X0065411Y0226799D01*
X0074872Y0225201D02*
X0101000Y0225201D01*
X0101000Y0226799D02*
X0076238Y0226799D01*
X0076900Y0228398D02*
X0101000Y0228398D01*
X0101000Y0229996D02*
X0076950Y0229996D01*
X0071197Y0237535D02*
X0060370Y0237535D01*
X0058835Y0236000D01*
X0041000Y0236000D01*
X0041000Y0246000D02*
X0059780Y0246000D01*
X0060370Y0245409D01*
X0071197Y0245409D01*
X0069122Y0250777D02*
X0062445Y0250777D01*
X0064737Y0249178D02*
X0066830Y0249178D01*
X0058295Y0250777D02*
X0047426Y0250777D01*
X0048961Y0249178D02*
X0056003Y0249178D01*
X0059226Y0262058D02*
X0061514Y0262058D01*
X0063629Y0262934D01*
X0065247Y0264552D01*
X0065783Y0265847D01*
X0066320Y0264552D01*
X0067938Y0262934D01*
X0070053Y0262058D01*
X0072341Y0262058D01*
X0074456Y0262934D01*
X0076074Y0264552D01*
X0076950Y0266667D01*
X0076950Y0268955D01*
X0076074Y0271070D01*
X0075809Y0271335D01*
X0076074Y0271600D01*
X0076950Y0273714D01*
X0076950Y0276003D01*
X0076074Y0278117D01*
X0075809Y0278382D01*
X0076074Y0278647D01*
X0076950Y0280761D01*
X0076950Y0283050D01*
X0076074Y0285164D01*
X0075809Y0285429D01*
X0076074Y0285694D01*
X0076950Y0287808D01*
X0076950Y0290097D01*
X0076074Y0292211D01*
X0075809Y0292476D01*
X0076074Y0292741D01*
X0076950Y0294856D01*
X0076950Y0297144D01*
X0076074Y0299259D01*
X0074456Y0300877D01*
X0072341Y0301753D01*
X0070053Y0301753D01*
X0067938Y0300877D01*
X0066320Y0299259D01*
X0065783Y0297964D01*
X0065247Y0299259D01*
X0063629Y0300877D01*
X0061514Y0301753D01*
X0059226Y0301753D01*
X0057111Y0300877D01*
X0055493Y0299259D01*
X0054617Y0297144D01*
X0054617Y0294856D01*
X0055493Y0292741D01*
X0055758Y0292476D01*
X0055493Y0292211D01*
X0054617Y0290097D01*
X0054617Y0287808D01*
X0055493Y0285694D01*
X0055758Y0285429D01*
X0055493Y0285164D01*
X0054617Y0283050D01*
X0054617Y0280761D01*
X0055493Y0278647D01*
X0055758Y0278382D01*
X0055493Y0278117D01*
X0054617Y0276003D01*
X0054617Y0273714D01*
X0055493Y0271600D01*
X0055758Y0271335D01*
X0055493Y0271070D01*
X0054617Y0268955D01*
X0054617Y0266667D01*
X0055493Y0264552D01*
X0057111Y0262934D01*
X0059226Y0262058D01*
X0056481Y0263565D02*
X0008500Y0263565D01*
X0008500Y0265163D02*
X0055240Y0265163D01*
X0054617Y0266762D02*
X0008500Y0266762D01*
X0008500Y0268360D02*
X0054617Y0268360D01*
X0055033Y0269959D02*
X0008500Y0269959D01*
X0008500Y0271557D02*
X0055535Y0271557D01*
X0054848Y0273156D02*
X0008500Y0273156D01*
X0008500Y0274754D02*
X0054617Y0274754D01*
X0054762Y0276353D02*
X0008500Y0276353D01*
X0008500Y0277951D02*
X0055425Y0277951D01*
X0055119Y0279550D02*
X0008500Y0279550D01*
X0008500Y0281148D02*
X0054617Y0281148D01*
X0054617Y0282747D02*
X0008500Y0282747D01*
X0008500Y0284345D02*
X0055154Y0284345D01*
X0055390Y0285944D02*
X0008500Y0285944D01*
X0008500Y0287542D02*
X0054727Y0287542D01*
X0054617Y0289141D02*
X0008500Y0289141D01*
X0008500Y0290739D02*
X0054883Y0290739D01*
X0055620Y0292338D02*
X0008500Y0292338D01*
X0008500Y0293937D02*
X0054998Y0293937D01*
X0054617Y0295535D02*
X0026874Y0295535D01*
X0025632Y0294818D02*
X0028368Y0296398D01*
X0030602Y0298632D01*
X0032182Y0301368D01*
X0033000Y0304420D01*
X0033000Y0307580D01*
X0032182Y0310632D01*
X0030602Y0313368D01*
X0028368Y0315602D01*
X0025632Y0317182D01*
X0022580Y0318000D01*
X0019420Y0318000D01*
X0016368Y0317182D01*
X0013632Y0315602D01*
X0011398Y0313368D01*
X0009818Y0310632D01*
X0009000Y0307580D01*
X0009000Y0304420D01*
X0009818Y0301368D01*
X0011398Y0298632D01*
X0013632Y0296398D01*
X0016368Y0294818D01*
X0019420Y0294000D01*
X0022580Y0294000D01*
X0025632Y0294818D01*
X0029104Y0297134D02*
X0054617Y0297134D01*
X0055275Y0298732D02*
X0030660Y0298732D01*
X0031583Y0300331D02*
X0056565Y0300331D01*
X0064175Y0300331D02*
X0067392Y0300331D01*
X0066102Y0298732D02*
X0065465Y0298732D01*
X0075002Y0300331D02*
X0098762Y0300331D01*
X0101000Y0298732D02*
X0076292Y0298732D01*
X0076950Y0297134D02*
X0101000Y0297134D01*
X0101000Y0295535D02*
X0076950Y0295535D01*
X0076569Y0293937D02*
X0101000Y0293937D01*
X0101000Y0292338D02*
X0075947Y0292338D01*
X0076684Y0290739D02*
X0101000Y0290739D01*
X0101000Y0289141D02*
X0076950Y0289141D01*
X0076839Y0287542D02*
X0101000Y0287542D01*
X0101000Y0285944D02*
X0076177Y0285944D01*
X0076413Y0284345D02*
X0101000Y0284345D01*
X0101000Y0282747D02*
X0076950Y0282747D01*
X0076950Y0281148D02*
X0101000Y0281148D01*
X0101000Y0279550D02*
X0076448Y0279550D01*
X0076142Y0277951D02*
X0101000Y0277951D01*
X0101000Y0276353D02*
X0076804Y0276353D01*
X0076950Y0274754D02*
X0101000Y0274754D01*
X0101000Y0273156D02*
X0076718Y0273156D01*
X0076032Y0271557D02*
X0101000Y0271557D01*
X0101000Y0269959D02*
X0076534Y0269959D01*
X0076950Y0268360D02*
X0101000Y0268360D01*
X0101000Y0266762D02*
X0076950Y0266762D01*
X0076327Y0265163D02*
X0101000Y0265163D01*
X0101000Y0263565D02*
X0075086Y0263565D01*
X0067307Y0263565D02*
X0064259Y0263565D01*
X0065500Y0265163D02*
X0066067Y0265163D01*
X0101000Y0261966D02*
X0008500Y0261966D01*
X0008500Y0260368D02*
X0101000Y0260368D01*
X0101000Y0258769D02*
X0008500Y0258769D01*
X0008500Y0257171D02*
X0101000Y0257171D01*
X0101000Y0255572D02*
X0008500Y0255572D01*
X0008500Y0253974D02*
X0101000Y0253974D01*
X0011822Y0239587D02*
X0008500Y0239587D01*
X0008500Y0237989D02*
X0009719Y0237989D01*
X0010425Y0190033D02*
X0008500Y0190033D01*
X0008500Y0188435D02*
X0008826Y0188435D01*
X0008500Y0174048D02*
X0009682Y0174048D01*
X0008500Y0172450D02*
X0011759Y0172450D01*
X0008500Y0161260D02*
X0055287Y0161260D01*
X0054624Y0159662D02*
X0008500Y0159662D01*
X0008500Y0158063D02*
X0054617Y0158063D01*
X0054986Y0156465D02*
X0008500Y0156465D01*
X0008500Y0154866D02*
X0055648Y0154866D01*
X0054895Y0153268D02*
X0008500Y0153268D01*
X0008500Y0151669D02*
X0054617Y0151669D01*
X0054716Y0150070D02*
X0008500Y0150070D01*
X0008500Y0148472D02*
X0055378Y0148472D01*
X0055166Y0146873D02*
X0008500Y0146873D01*
X0008500Y0145275D02*
X0054617Y0145275D01*
X0054617Y0143676D02*
X0008500Y0143676D01*
X0008500Y0142078D02*
X0055107Y0142078D01*
X0055436Y0140479D02*
X0008500Y0140479D01*
X0008500Y0138881D02*
X0054774Y0138881D01*
X0054617Y0137282D02*
X0008500Y0137282D01*
X0008500Y0135684D02*
X0054837Y0135684D01*
X0055507Y0134085D02*
X0008500Y0134085D01*
X0008500Y0132487D02*
X0055045Y0132487D01*
X0054617Y0130888D02*
X0008500Y0130888D01*
X0008500Y0129290D02*
X0054617Y0129290D01*
X0055228Y0127691D02*
X0008500Y0127691D01*
X0008500Y0126093D02*
X0056453Y0126093D01*
X0064287Y0126093D02*
X0067279Y0126093D01*
X0066055Y0127691D02*
X0065512Y0127691D01*
X0075114Y0126093D02*
X0101000Y0126093D01*
X0101000Y0127691D02*
X0076338Y0127691D01*
X0076950Y0129290D02*
X0101000Y0129290D01*
X0101000Y0124494D02*
X0008500Y0124494D01*
X0008500Y0122896D02*
X0101000Y0122896D01*
X0101000Y0121297D02*
X0008500Y0121297D01*
X0008500Y0119699D02*
X0101000Y0119699D01*
X0101000Y0118100D02*
X0008500Y0118100D01*
X0008500Y0116502D02*
X0101000Y0116502D01*
X0101000Y0114903D02*
X0008500Y0114903D01*
X0008500Y0113305D02*
X0034602Y0113305D01*
X0033050Y0111706D02*
X0008500Y0111706D01*
X0008500Y0110108D02*
X0032388Y0110108D01*
X0032200Y0108509D02*
X0008500Y0108509D01*
X0013504Y0106911D02*
X0032380Y0106911D01*
X0033043Y0105312D02*
X0015102Y0105312D01*
X0016701Y0103714D02*
X0034584Y0103714D01*
X0033413Y0102115D02*
X0016950Y0102115D01*
X0016950Y0100517D02*
X0032557Y0100517D01*
X0032200Y0098918D02*
X0016950Y0098918D01*
X0015734Y0097320D02*
X0032211Y0097320D01*
X0032873Y0095721D02*
X0014136Y0095721D01*
X0047825Y0094123D02*
X0054956Y0094123D01*
X0054617Y0093306D02*
X0054617Y0091017D01*
X0055493Y0088903D01*
X0057111Y0087284D01*
X0059226Y0086409D01*
X0061514Y0086409D01*
X0063629Y0087284D01*
X0065247Y0088903D01*
X0065783Y0090198D01*
X0066320Y0088903D01*
X0067938Y0087284D01*
X0070053Y0086409D01*
X0072341Y0086409D01*
X0074456Y0087284D01*
X0076074Y0088903D01*
X0076950Y0091017D01*
X0076950Y0093306D01*
X0076074Y0095420D01*
X0075395Y0096098D01*
X0076074Y0096777D01*
X0076950Y0098891D01*
X0076950Y0101180D01*
X0076074Y0103294D01*
X0075395Y0103972D01*
X0076074Y0104651D01*
X0076950Y0106765D01*
X0076950Y0109054D01*
X0076074Y0111168D01*
X0074456Y0112786D01*
X0072341Y0113662D01*
X0070053Y0113662D01*
X0067938Y0112786D01*
X0066320Y0111168D01*
X0065783Y0109873D01*
X0065247Y0111168D01*
X0063629Y0112786D01*
X0061514Y0113662D01*
X0059226Y0113662D01*
X0057111Y0112786D01*
X0055493Y0111168D01*
X0054617Y0109054D01*
X0054617Y0106765D01*
X0055493Y0104651D01*
X0056171Y0103972D01*
X0055493Y0103294D01*
X0054617Y0101180D01*
X0054617Y0098891D01*
X0055493Y0096777D01*
X0056171Y0096098D01*
X0055493Y0095420D01*
X0054617Y0093306D01*
X0054617Y0092524D02*
X0048178Y0092524D01*
X0049273Y0090926D02*
X0054655Y0090926D01*
X0055317Y0089327D02*
X0049800Y0089327D01*
X0049800Y0087729D02*
X0056667Y0087729D01*
X0064073Y0087729D02*
X0067494Y0087729D01*
X0066144Y0089327D02*
X0065423Y0089327D01*
X0074900Y0087729D02*
X0101000Y0087729D01*
X0101000Y0089327D02*
X0076250Y0089327D01*
X0076912Y0090926D02*
X0101000Y0090926D01*
X0101000Y0092524D02*
X0076950Y0092524D01*
X0076611Y0094123D02*
X0101000Y0094123D01*
X0101000Y0095721D02*
X0075773Y0095721D01*
X0076299Y0097320D02*
X0101000Y0097320D01*
X0101000Y0098918D02*
X0076950Y0098918D01*
X0076950Y0100517D02*
X0101000Y0100517D01*
X0101000Y0102115D02*
X0076562Y0102115D01*
X0075654Y0103714D02*
X0101000Y0103714D01*
X0101000Y0105312D02*
X0076348Y0105312D01*
X0076950Y0106911D02*
X0101000Y0106911D01*
X0101000Y0108509D02*
X0076950Y0108509D01*
X0076513Y0110108D02*
X0101000Y0110108D01*
X0101000Y0111706D02*
X0075536Y0111706D01*
X0073204Y0113305D02*
X0101000Y0113305D01*
X0069190Y0113305D02*
X0062377Y0113305D01*
X0064709Y0111706D02*
X0066858Y0111706D01*
X0065881Y0110108D02*
X0065686Y0110108D01*
X0058363Y0113305D02*
X0047398Y0113305D01*
X0048950Y0111706D02*
X0056031Y0111706D01*
X0055054Y0110108D02*
X0049612Y0110108D01*
X0049800Y0108509D02*
X0054617Y0108509D01*
X0054617Y0106911D02*
X0049620Y0106911D01*
X0048957Y0105312D02*
X0055219Y0105312D01*
X0055913Y0103714D02*
X0047416Y0103714D01*
X0048587Y0102115D02*
X0055005Y0102115D01*
X0054617Y0100517D02*
X0049443Y0100517D01*
X0049800Y0098918D02*
X0054617Y0098918D01*
X0055268Y0097320D02*
X0049789Y0097320D01*
X0049127Y0095721D02*
X0055794Y0095721D01*
X0049296Y0086130D02*
X0101000Y0086130D01*
X0101000Y0084532D02*
X0048234Y0084532D01*
X0045716Y0082933D02*
X0101000Y0082933D01*
X0151483Y0100517D02*
X0176994Y0100517D01*
X0177527Y0098918D02*
X0153082Y0098918D01*
X0154680Y0097320D02*
X0178060Y0097320D01*
X0191279Y0095721D02*
X0156000Y0095721D01*
X0241000Y0095721D01*
X0241000Y0094123D02*
X0156000Y0094123D01*
X0192877Y0094123D01*
X0194476Y0092524D02*
X0156000Y0092524D01*
X0241000Y0092524D01*
X0241000Y0090926D02*
X0156000Y0090926D01*
X0196000Y0090926D01*
X0196000Y0089327D02*
X0156000Y0089327D01*
X0241000Y0089327D01*
X0241000Y0087729D02*
X0156000Y0087729D01*
X0196000Y0087729D01*
X0196000Y0086130D02*
X0156000Y0086130D01*
X0241000Y0086130D01*
X0241000Y0084532D02*
X0156000Y0084532D01*
X0196000Y0084532D01*
X0196000Y0082933D02*
X0156000Y0082933D01*
X0241000Y0082933D01*
X0241000Y0097320D02*
X0156000Y0097320D01*
X0156000Y0098918D02*
X0241000Y0098918D01*
X0241000Y0100517D02*
X0156000Y0100517D01*
X0156000Y0102115D02*
X0241000Y0102115D01*
X0242385Y0102115D02*
X0218962Y0102115D01*
X0219494Y0100517D02*
X0243983Y0100517D01*
X0245582Y0098918D02*
X0220027Y0098918D01*
X0213286Y0103714D02*
X0241000Y0103714D01*
X0156000Y0103714D01*
X0156000Y0105312D02*
X0241000Y0105312D01*
X0211688Y0105312D01*
X0223322Y0108509D02*
X0241000Y0108509D01*
X0223322Y0108509D01*
X0224901Y0110108D02*
X0241000Y0110108D01*
X0224901Y0110108D01*
X0225563Y0111706D02*
X0241000Y0111706D01*
X0225563Y0111706D01*
X0225850Y0113305D02*
X0241000Y0113305D01*
X0225850Y0113305D01*
X0225850Y0114903D02*
X0241000Y0114903D01*
X0225850Y0114903D01*
X0225193Y0116502D02*
X0241000Y0116502D01*
X0225193Y0116502D01*
X0224027Y0118100D02*
X0241000Y0118100D01*
X0224027Y0118100D01*
X0221468Y0119699D02*
X0241000Y0119699D01*
X0221468Y0119699D01*
X0208500Y0126093D02*
X0243593Y0126093D01*
X0245191Y0127691D02*
X0208500Y0127691D01*
X0208500Y0129290D02*
X0246103Y0129290D01*
X0247674Y0130888D02*
X0208500Y0130888D01*
X0208500Y0132487D02*
X0267487Y0132487D01*
X0268500Y0134085D02*
X0208500Y0134085D01*
X0208500Y0135684D02*
X0268500Y0135684D01*
X0268500Y0137282D02*
X0209355Y0137282D01*
X0210421Y0138881D02*
X0268500Y0138881D01*
X0268500Y0140479D02*
X0211486Y0140479D01*
X0212552Y0142078D02*
X0268500Y0142078D01*
X0268500Y0143676D02*
X0216265Y0143676D01*
X0218662Y0145275D02*
X0268500Y0145275D01*
X0268500Y0146873D02*
X0221060Y0146873D01*
X0220783Y0147332D02*
X0223108Y0148295D01*
X0224887Y0150075D01*
X0225850Y0152399D01*
X0225850Y0154916D01*
X0224887Y0157240D01*
X0223108Y0159020D01*
X0220783Y0159982D01*
X0211217Y0159982D01*
X0208892Y0159020D01*
X0207113Y0157240D01*
X0206150Y0154916D01*
X0206150Y0152399D01*
X0207113Y0150075D01*
X0208892Y0148295D01*
X0211217Y0147332D01*
X0220783Y0147332D01*
X0223284Y0148472D02*
X0241000Y0148472D01*
X0241000Y0150070D02*
X0224883Y0150070D01*
X0268500Y0150070D01*
X0268500Y0148472D02*
X0223458Y0148472D01*
X0225547Y0151669D02*
X0268500Y0151669D01*
X0268500Y0153268D02*
X0225850Y0153268D01*
X0241000Y0153268D01*
X0241000Y0154866D02*
X0225850Y0154866D01*
X0268500Y0154866D01*
X0268500Y0156465D02*
X0226465Y0156465D01*
X0225208Y0156465D02*
X0241000Y0156465D01*
X0241000Y0158063D02*
X0224064Y0158063D01*
X0221558Y0159662D02*
X0241000Y0159662D01*
X0234717Y0162859D02*
X0266641Y0162859D01*
X0268240Y0161260D02*
X0231520Y0161260D01*
X0229662Y0159662D02*
X0268500Y0159662D01*
X0268500Y0158063D02*
X0228063Y0158063D01*
X0225547Y0151669D02*
X0241000Y0151669D01*
X0241000Y0166056D02*
X0156000Y0166056D01*
X0156000Y0167654D02*
X0241000Y0167654D01*
X0241000Y0169253D02*
X0156000Y0169253D01*
X0156000Y0170851D02*
X0241000Y0170851D01*
X0210442Y0159662D02*
X0184058Y0159662D01*
X0186564Y0158063D02*
X0207936Y0158063D01*
X0206792Y0156465D02*
X0187708Y0156465D01*
X0188350Y0154866D02*
X0206150Y0154866D01*
X0206150Y0153268D02*
X0188350Y0153268D01*
X0188047Y0151669D02*
X0206453Y0151669D01*
X0207117Y0150070D02*
X0187383Y0150070D01*
X0185784Y0148472D02*
X0208716Y0148472D01*
X0173032Y0119699D02*
X0156000Y0119699D01*
X0293500Y0095721D02*
X0321411Y0095721D01*
X0320625Y0094123D02*
X0293500Y0094123D01*
X0293500Y0092524D02*
X0320050Y0092524D01*
X0320050Y0090926D02*
X0293500Y0090926D01*
X0293500Y0089327D02*
X0320514Y0089327D01*
X0321530Y0087729D02*
X0293500Y0087729D01*
X0293500Y0086130D02*
X0323953Y0086130D01*
X0327653Y0086130D02*
X0334780Y0086130D01*
X0332356Y0087729D02*
X0330077Y0087729D01*
X0336630Y0091591D02*
X0339720Y0088500D01*
X0353500Y0088500D01*
X0360678Y0092524D02*
X0376061Y0092524D01*
X0375050Y0094123D02*
X0360325Y0094123D01*
X0361627Y0095721D02*
X0375050Y0095721D01*
X0375050Y0097320D02*
X0362289Y0097320D01*
X0362300Y0098918D02*
X0375504Y0098918D01*
X0377102Y0100517D02*
X0361943Y0100517D01*
X0361087Y0102115D02*
X0386000Y0102115D01*
X0386000Y0100517D02*
X0384898Y0100517D01*
X0386000Y0103714D02*
X0359916Y0103714D01*
X0361457Y0105312D02*
X0386000Y0105312D01*
X0386000Y0106911D02*
X0362120Y0106911D01*
X0362300Y0108509D02*
X0386000Y0108509D01*
X0386000Y0110108D02*
X0362112Y0110108D01*
X0361450Y0111706D02*
X0386000Y0111706D01*
X0353500Y0098500D02*
X0337594Y0098500D01*
X0336630Y0099465D01*
X0325803Y0099465D01*
X0325803Y0091591D02*
X0336630Y0091591D01*
X0338480Y0086130D02*
X0338648Y0086130D01*
X0346266Y0084532D02*
X0293500Y0084532D01*
X0293500Y0082933D02*
X0348784Y0082933D01*
X0358216Y0082933D02*
X0386000Y0082933D01*
X0386000Y0081334D02*
X0293500Y0081334D01*
X0293500Y0079736D02*
X0386000Y0079736D01*
X0386000Y0078137D02*
X0293500Y0078137D01*
X0293500Y0076539D02*
X0386000Y0076539D01*
X0386000Y0074940D02*
X0337777Y0074940D01*
X0335483Y0074940D02*
X0326951Y0074940D01*
X0324656Y0074940D02*
X0293500Y0074940D01*
X0293500Y0073342D02*
X0321820Y0073342D01*
X0320635Y0071743D02*
X0293500Y0071743D01*
X0293500Y0070145D02*
X0320050Y0070145D01*
X0320050Y0068546D02*
X0293500Y0068546D01*
X0293500Y0066948D02*
X0320505Y0066948D01*
X0320905Y0065349D02*
X0293500Y0065349D01*
X0293500Y0063751D02*
X0320243Y0063751D01*
X0320050Y0062152D02*
X0293500Y0062152D01*
X0293500Y0060554D02*
X0320234Y0060554D01*
X0320896Y0058955D02*
X0293500Y0058955D01*
X0293500Y0057357D02*
X0320514Y0057357D01*
X0320050Y0055758D02*
X0293500Y0055758D01*
X0293500Y0054160D02*
X0320050Y0054160D01*
X0320626Y0052561D02*
X0293500Y0052561D01*
X0293500Y0050963D02*
X0320784Y0050963D01*
X0320122Y0049364D02*
X0293500Y0049364D01*
X0293500Y0047766D02*
X0320050Y0047766D01*
X0320355Y0046167D02*
X0293500Y0046167D01*
X0293500Y0044569D02*
X0321146Y0044569D01*
X0320393Y0042970D02*
X0293500Y0042970D01*
X0293500Y0041372D02*
X0320050Y0041372D01*
X0320085Y0039773D02*
X0293500Y0039773D01*
X0293500Y0038175D02*
X0320747Y0038175D01*
X0322091Y0036576D02*
X0296086Y0036576D01*
X0340342Y0036576D02*
X0344509Y0036576D01*
X0342911Y0038175D02*
X0341686Y0038175D01*
X0342348Y0039773D02*
X0342550Y0039773D01*
X0342550Y0041372D02*
X0342383Y0041372D01*
X0342550Y0042970D02*
X0342041Y0042970D01*
X0341287Y0044569D02*
X0343654Y0044569D01*
X0342078Y0046167D02*
X0345253Y0046167D01*
X0342383Y0047766D02*
X0386000Y0047766D01*
X0386000Y0049364D02*
X0342311Y0049364D01*
X0341649Y0050963D02*
X0386000Y0050963D01*
X0386000Y0052561D02*
X0341807Y0052561D01*
X0342383Y0054160D02*
X0386000Y0054160D01*
X0386000Y0055758D02*
X0342383Y0055758D01*
X0341920Y0057357D02*
X0386000Y0057357D01*
X0386000Y0058955D02*
X0341537Y0058955D01*
X0342199Y0060554D02*
X0386000Y0060554D01*
X0386000Y0062152D02*
X0342383Y0062152D01*
X0342190Y0063751D02*
X0386000Y0063751D01*
X0386000Y0065349D02*
X0341528Y0065349D01*
X0341928Y0066948D02*
X0386000Y0066948D01*
X0386000Y0068546D02*
X0342383Y0068546D01*
X0342383Y0070145D02*
X0386000Y0070145D01*
X0386000Y0071743D02*
X0341799Y0071743D01*
X0340613Y0073342D02*
X0386000Y0073342D01*
X0386000Y0084532D02*
X0360734Y0084532D01*
X0361796Y0086130D02*
X0386000Y0086130D01*
X0386000Y0087729D02*
X0362300Y0087729D01*
X0362300Y0089327D02*
X0386000Y0089327D01*
X0386000Y0090926D02*
X0384340Y0090926D01*
X0385939Y0092524D02*
X0386000Y0092524D01*
X0377660Y0090926D02*
X0361773Y0090926D01*
X0332647Y0073342D02*
X0329786Y0073342D01*
X0330972Y0071743D02*
X0331461Y0071743D01*
X0351747Y0046167D02*
X0386000Y0046167D01*
X0386000Y0044569D02*
X0353346Y0044569D01*
X0354450Y0042970D02*
X0369309Y0042970D01*
X0372691Y0042970D02*
X0386000Y0042970D01*
X0386000Y0041372D02*
X0377036Y0041372D01*
X0379197Y0039773D02*
X0386000Y0039773D01*
X0386000Y0038175D02*
X0380714Y0038175D01*
X0381637Y0036576D02*
X0386000Y0036576D01*
X0364964Y0041372D02*
X0354450Y0041372D01*
X0354450Y0039773D02*
X0362803Y0039773D01*
X0361286Y0038175D02*
X0354089Y0038175D01*
X0352491Y0036576D02*
X0360363Y0036576D01*
X0014964Y0041372D02*
X0008500Y0041372D01*
X0008500Y0039773D02*
X0012803Y0039773D01*
X0011286Y0038175D02*
X0008500Y0038175D01*
X0008500Y0036576D02*
X0010363Y0036576D01*
X0008500Y0295535D02*
X0015126Y0295535D01*
X0012896Y0297134D02*
X0008500Y0297134D01*
X0008500Y0298732D02*
X0011340Y0298732D01*
X0010417Y0300331D02*
X0008500Y0300331D01*
X0008500Y0301929D02*
X0009667Y0301929D01*
X0009239Y0303528D02*
X0008500Y0303528D01*
X0008500Y0305126D02*
X0009000Y0305126D01*
X0009000Y0306725D02*
X0008500Y0306725D01*
X0008500Y0308323D02*
X0009199Y0308323D01*
X0009627Y0309922D02*
X0008500Y0309922D01*
X0008500Y0311520D02*
X0010331Y0311520D01*
X0011254Y0313119D02*
X0008500Y0313119D01*
X0008500Y0314717D02*
X0012747Y0314717D01*
X0014867Y0316316D02*
X0008500Y0316316D01*
X0008500Y0317914D02*
X0019100Y0317914D01*
X0022900Y0317914D02*
X0088414Y0317914D01*
X0087985Y0316316D02*
X0027133Y0316316D01*
X0029253Y0314717D02*
X0087700Y0314717D01*
X0087700Y0313119D02*
X0030746Y0313119D01*
X0031669Y0311520D02*
X0087761Y0311520D01*
X0088190Y0309922D02*
X0032373Y0309922D01*
X0032801Y0308323D02*
X0088631Y0308323D01*
X0089554Y0306725D02*
X0033000Y0306725D01*
X0033000Y0305126D02*
X0090565Y0305126D01*
X0092163Y0303528D02*
X0032761Y0303528D01*
X0032332Y0301929D02*
X0094441Y0301929D01*
M02*
