%
M48
M72
T01C0.02362
T02C0.02400
T03C0.04000
T04C0.04700
T05C0.14400
%
T01
X15300Y64300
X25300Y64300
X25300Y69300
X25300Y74300
T02
X67800Y79300
X75300Y79300
X75300Y86800
X67800Y86800
X67800Y94300
X75300Y94300
X107800Y94300
X107800Y86800
X115300Y86800
X122800Y89300
X115300Y79300
X107800Y79300
X147800Y79300
X155300Y79300
X155300Y86800
X147800Y86800
X147800Y94300
X155300Y94300
X180300Y101800
X187800Y101800
X195300Y101800
X195300Y94300
X187800Y94300
X187800Y86800
X195300Y86800
X195300Y79300
X187800Y79300
X227800Y79300
X235300Y79300
X235300Y86800
X227800Y86800
X227800Y94300
X235300Y94300
X235300Y101800
X227800Y101800
X220300Y101800
X227800Y118000
X217800Y121800
X217800Y129800
X210300Y129800
X197800Y134300
X195300Y139800
X187800Y139800
X180300Y139800
X202800Y139800
X210300Y139800
X217800Y139800
X230300Y141800
X246550Y146800
X222800Y156800
X212800Y156800
X202800Y156800
X197800Y151800
X185300Y161800
X172800Y161800
X160300Y161800
X147800Y161800
X135300Y161800
X122800Y161800
X110300Y161800
X97800Y169300
X72800Y161800
X60300Y161800
X60300Y169300
X47800Y161800
X37800Y161800
X42800Y156800
X42800Y144300
X42800Y131800
X42800Y119300
X10300Y111800
X10300Y106800
X10300Y101800
X10300Y96800
X15300Y51800
X25300Y51800
X25300Y41800
X15300Y41800
X15300Y31800
X25300Y31800
X40300Y11800
X60300Y11800
X80300Y11800
X100300Y11800
X120300Y11800
X140300Y11800
X160300Y11800
X180300Y11800
X200300Y11800
X220300Y11800
X240300Y11800
X260300Y11800
X280300Y11800
X300300Y11800
X320300Y11800
X340300Y11800
X357800Y31800
X370300Y31800
X370300Y41800
X357800Y41800
X357800Y51800
X370300Y51800
X370300Y61800
X357800Y61800
X370300Y71800
X355300Y79300
X345300Y79300
X370300Y81800
X315300Y79300
X307800Y79300
X307800Y86800
X315300Y86800
X315300Y94300
X315300Y109300
X325300Y109300
X335300Y109300
X345300Y109300
X350300Y119300
X370300Y119300
X370300Y129300
X370300Y139300
X350300Y139300
X350300Y129300
X370300Y149300
X342800Y159300
X335300Y159300
X325300Y155550
X327800Y169300
X335300Y169300
X342800Y169300
X320300Y169300
X282800Y172646
X266550Y163050
X277800Y155550
X292800Y145550
X287800Y131800
X297800Y131800
X277800Y131800
X267800Y131800
X255300Y127800
X257800Y118000
X242800Y118000
X225300Y129300
X197800Y120800
X155300Y119800
X117800Y136800
X145300Y140800
X152800Y141800
X115300Y151800
X147800Y169300
X185300Y169300
X197800Y169300
X222800Y171800
X232800Y171800
X242800Y171800
X272800Y118000
X287800Y118000
X297800Y113000
X275300Y101800
X267800Y101800
X260300Y101800
X267800Y94300
X275300Y94300
X275300Y86800
X267800Y86800
X267800Y79300
X275300Y79300
T03
X310300Y124300
X320300Y124300
X330300Y124300
X340300Y124300
X340300Y134300
X330300Y134300
X320300Y134300
X310300Y134300
X305300Y154300
X295300Y154300
X285300Y154300
X285300Y164300
X295300Y164300
X305300Y164300
T04
X300143Y34300
X280457Y34300
X260143Y34300
X240457Y34300
X220143Y34300
X200457Y34300
X180143Y34300
X160457Y34300
X140143Y34300
X120457Y34300
X100143Y34300
X80457Y34300
X60143Y34300
X40457Y34300
X17800Y124457
X17800Y144143
X320457Y34300
X340143Y34300
T05
X15300Y14300
X15300Y164300
X365300Y164300
X365300Y14300
M30
