G75*
%MOIN*%
%OFA0B0*%
%FSLAX25Y25*%
%IPPOS*%
%LPD*%
%AMOC8*
5,1,8,0,0,1.08239X$1,22.5*
%
%ADD10C,0.15200*%
%ADD11R,0.10643X0.02454*%
%ADD12R,0.03200X0.09500*%
%ADD13C,0.07850*%
%ADD14R,0.05131X0.04737*%
%ADD15R,0.04737X0.05131*%
%ADD16R,0.03000X0.08600*%
%ADD17R,0.22060X0.25209*%
%ADD18R,0.04737X0.07099*%
%ADD19OC8,0.08200*%
%ADD20OC8,0.06800*%
%ADD21R,0.05524X0.03950*%
%ADD22R,0.05524X0.05524*%
%ADD23C,0.04800*%
%ADD24C,0.04762*%
D10*
X0015300Y0014300D03*
X0015300Y0164300D03*
X0365300Y0164300D03*
X0365300Y0014300D03*
D11*
X0128095Y0121387D03*
X0128095Y0123946D03*
X0128095Y0126505D03*
X0128095Y0129064D03*
X0128095Y0131623D03*
X0128095Y0134182D03*
X0128095Y0136741D03*
X0128095Y0139300D03*
X0128095Y0141859D03*
X0128095Y0144418D03*
X0128095Y0146977D03*
X0128095Y0149536D03*
X0128095Y0152095D03*
X0128095Y0154654D03*
X0102505Y0154654D03*
X0102505Y0152095D03*
X0102505Y0149536D03*
X0102505Y0146977D03*
X0102505Y0144418D03*
X0102505Y0141859D03*
X0102505Y0139300D03*
X0102505Y0136741D03*
X0102505Y0134182D03*
X0102505Y0131623D03*
X0102505Y0129064D03*
X0102505Y0126505D03*
X0102505Y0123946D03*
X0102505Y0121387D03*
D12*
X0097800Y0079600D03*
X0092800Y0079600D03*
X0087800Y0079600D03*
X0082800Y0079600D03*
X0057800Y0079600D03*
X0052800Y0079600D03*
X0047800Y0079600D03*
X0042800Y0079600D03*
X0042800Y0059000D03*
X0047800Y0059000D03*
X0052800Y0059000D03*
X0057800Y0059000D03*
X0082800Y0059000D03*
X0087800Y0059000D03*
X0092800Y0059000D03*
X0097800Y0059000D03*
X0122800Y0059000D03*
X0127800Y0059000D03*
X0132800Y0059000D03*
X0137800Y0059000D03*
X0162800Y0059000D03*
X0167800Y0059000D03*
X0172800Y0059000D03*
X0177800Y0059000D03*
X0202800Y0059000D03*
X0207800Y0059000D03*
X0212800Y0059000D03*
X0217800Y0059000D03*
X0242800Y0059000D03*
X0247800Y0059000D03*
X0252800Y0059000D03*
X0257800Y0059000D03*
X0282800Y0059000D03*
X0287800Y0059000D03*
X0292800Y0059000D03*
X0297800Y0059000D03*
X0322800Y0059000D03*
X0327800Y0059000D03*
X0332800Y0059000D03*
X0337800Y0059000D03*
X0337800Y0079600D03*
X0332800Y0079600D03*
X0327800Y0079600D03*
X0322800Y0079600D03*
X0297800Y0079600D03*
X0292800Y0079600D03*
X0287800Y0079600D03*
X0282800Y0079600D03*
X0257800Y0079600D03*
X0252800Y0079600D03*
X0247800Y0079600D03*
X0242800Y0079600D03*
X0217800Y0079600D03*
X0212800Y0079600D03*
X0207800Y0079600D03*
X0202800Y0079600D03*
X0177800Y0079600D03*
X0172800Y0079600D03*
X0167800Y0079600D03*
X0162800Y0079600D03*
X0137800Y0079600D03*
X0132800Y0079600D03*
X0127800Y0079600D03*
X0122800Y0079600D03*
D13*
X0120457Y0037825D02*
X0120457Y0030775D01*
X0140143Y0030775D02*
X0140143Y0037825D01*
X0160457Y0037825D02*
X0160457Y0030775D01*
X0180143Y0030775D02*
X0180143Y0037825D01*
X0200457Y0037825D02*
X0200457Y0030775D01*
X0220143Y0030775D02*
X0220143Y0037825D01*
X0240457Y0037825D02*
X0240457Y0030775D01*
X0260143Y0030775D02*
X0260143Y0037825D01*
X0280457Y0037825D02*
X0280457Y0030775D01*
X0300143Y0030775D02*
X0300143Y0037825D01*
X0320457Y0037825D02*
X0320457Y0030775D01*
X0340143Y0030775D02*
X0340143Y0037825D01*
X0100143Y0037825D02*
X0100143Y0030775D01*
X0080457Y0030775D02*
X0080457Y0037825D01*
X0060143Y0037825D02*
X0060143Y0030775D01*
X0040457Y0030775D02*
X0040457Y0037825D01*
X0021325Y0124457D02*
X0014275Y0124457D01*
X0014275Y0144143D02*
X0021325Y0144143D01*
D14*
X0081954Y0119300D03*
X0088646Y0119300D03*
X0139454Y0119300D03*
X0146146Y0119300D03*
X0144454Y0127800D03*
X0151146Y0127800D03*
X0141146Y0094300D03*
X0134454Y0094300D03*
X0101146Y0094300D03*
X0094454Y0094300D03*
X0061146Y0094300D03*
X0054454Y0094300D03*
X0174454Y0094300D03*
X0181146Y0094300D03*
X0214454Y0094300D03*
X0221146Y0094300D03*
X0254454Y0094300D03*
X0261146Y0094300D03*
X0294454Y0094300D03*
X0301146Y0094300D03*
X0334454Y0094300D03*
X0341146Y0094300D03*
X0349454Y0086800D03*
X0356146Y0086800D03*
X0356146Y0101800D03*
X0349454Y0101800D03*
D15*
X0350300Y0150954D03*
X0350300Y0157646D03*
X0205300Y0125146D03*
X0192800Y0125146D03*
X0182800Y0125146D03*
X0172800Y0125146D03*
X0162800Y0125146D03*
X0162800Y0118454D03*
X0172800Y0118454D03*
X0182800Y0118454D03*
X0192800Y0118454D03*
X0205300Y0118454D03*
X0170300Y0138454D03*
X0160300Y0138454D03*
X0160300Y0145146D03*
X0170300Y0145146D03*
X0075300Y0130146D03*
X0075300Y0123454D03*
X0020300Y0065146D03*
X0020300Y0058454D03*
D16*
X0230300Y0134600D03*
X0235300Y0134600D03*
X0240300Y0134600D03*
X0245300Y0134600D03*
X0250300Y0134600D03*
X0255300Y0134600D03*
X0260300Y0134600D03*
X0260300Y0154000D03*
X0255300Y0154000D03*
X0250300Y0154000D03*
X0245300Y0154000D03*
X0240300Y0154000D03*
X0235300Y0154000D03*
X0230300Y0154000D03*
D17*
X0025300Y0101800D03*
D18*
X0016324Y0073060D03*
X0034276Y0073060D03*
D19*
X0285300Y0154300D03*
X0295300Y0154300D03*
X0305300Y0154300D03*
X0305300Y0164300D03*
X0295300Y0164300D03*
X0285300Y0164300D03*
D20*
X0310300Y0134300D03*
X0320300Y0134300D03*
X0330300Y0134300D03*
X0340300Y0134300D03*
X0340300Y0124300D03*
X0330300Y0124300D03*
X0320300Y0124300D03*
X0310300Y0124300D03*
D21*
X0275300Y0165757D03*
X0275300Y0172843D03*
X0252800Y0172843D03*
X0252800Y0165757D03*
D22*
X0348666Y0094300D03*
X0356934Y0094300D03*
D23*
X0370300Y0081800D03*
X0355300Y0079300D03*
X0345300Y0079300D03*
X0370300Y0071800D03*
X0370300Y0061800D03*
X0357800Y0061800D03*
X0357800Y0051800D03*
X0370300Y0051800D03*
X0370300Y0041800D03*
X0357800Y0041800D03*
X0357800Y0031800D03*
X0370300Y0031800D03*
X0340300Y0011800D03*
X0320300Y0011800D03*
X0300300Y0011800D03*
X0280300Y0011800D03*
X0260300Y0011800D03*
X0240300Y0011800D03*
X0220300Y0011800D03*
X0200300Y0011800D03*
X0180300Y0011800D03*
X0160300Y0011800D03*
X0140300Y0011800D03*
X0120300Y0011800D03*
X0100300Y0011800D03*
X0080300Y0011800D03*
X0060300Y0011800D03*
X0040300Y0011800D03*
X0025300Y0031800D03*
X0015300Y0031800D03*
X0015300Y0041800D03*
X0025300Y0041800D03*
X0025300Y0051800D03*
X0015300Y0051800D03*
X0067800Y0079300D03*
X0075300Y0079300D03*
X0075300Y0086800D03*
X0067800Y0086800D03*
X0067800Y0094300D03*
X0075300Y0094300D03*
X0107800Y0094300D03*
X0107800Y0086800D03*
X0115300Y0086800D03*
X0122800Y0089300D03*
X0115300Y0079300D03*
X0107800Y0079300D03*
X0147800Y0079300D03*
X0155300Y0079300D03*
X0155300Y0086800D03*
X0147800Y0086800D03*
X0147800Y0094300D03*
X0155300Y0094300D03*
X0180300Y0101800D03*
X0187800Y0101800D03*
X0195300Y0101800D03*
X0195300Y0094300D03*
X0187800Y0094300D03*
X0187800Y0086800D03*
X0195300Y0086800D03*
X0195300Y0079300D03*
X0187800Y0079300D03*
X0227800Y0079300D03*
X0235300Y0079300D03*
X0235300Y0086800D03*
X0227800Y0086800D03*
X0227800Y0094300D03*
X0235300Y0094300D03*
X0235300Y0101800D03*
X0227800Y0101800D03*
X0220300Y0101800D03*
X0227800Y0118000D03*
X0217800Y0121800D03*
X0217800Y0129800D03*
X0210300Y0129800D03*
X0197800Y0134300D03*
X0195300Y0139800D03*
X0187800Y0139800D03*
X0180300Y0139800D03*
X0202800Y0139800D03*
X0210300Y0139800D03*
X0217800Y0139800D03*
X0230300Y0141800D03*
X0246550Y0146800D03*
X0222800Y0156800D03*
X0212800Y0156800D03*
X0202800Y0156800D03*
X0197800Y0151800D03*
X0185300Y0161800D03*
X0172800Y0161800D03*
X0160300Y0161800D03*
X0147800Y0161800D03*
X0135300Y0161800D03*
X0122800Y0161800D03*
X0110300Y0161800D03*
X0097800Y0169300D03*
X0072800Y0161800D03*
X0060300Y0161800D03*
X0060300Y0169300D03*
X0047800Y0161800D03*
X0037800Y0161800D03*
X0042800Y0156800D03*
X0042800Y0144300D03*
X0042800Y0131800D03*
X0042800Y0119300D03*
X0010300Y0111800D03*
X0010300Y0106800D03*
X0010300Y0101800D03*
X0010300Y0096800D03*
X0117800Y0136800D03*
X0145300Y0140800D03*
X0152800Y0141800D03*
X0115300Y0151800D03*
X0147800Y0169300D03*
X0185300Y0169300D03*
X0197800Y0169300D03*
X0222800Y0171800D03*
X0232800Y0171800D03*
X0242800Y0171800D03*
X0266550Y0163050D03*
X0277800Y0155550D03*
X0292800Y0145550D03*
X0287800Y0131800D03*
X0297800Y0131800D03*
X0277800Y0131800D03*
X0267800Y0131800D03*
X0255300Y0127800D03*
X0257800Y0118000D03*
X0242800Y0118000D03*
X0225300Y0129300D03*
X0197800Y0120800D03*
X0155300Y0119800D03*
X0260300Y0101800D03*
X0267800Y0101800D03*
X0275300Y0101800D03*
X0275300Y0094300D03*
X0267800Y0094300D03*
X0267800Y0086800D03*
X0275300Y0086800D03*
X0275300Y0079300D03*
X0267800Y0079300D03*
X0307800Y0079300D03*
X0315300Y0079300D03*
X0315300Y0086800D03*
X0307800Y0086800D03*
X0315300Y0094300D03*
X0315300Y0109300D03*
X0325300Y0109300D03*
X0335300Y0109300D03*
X0345300Y0109300D03*
X0350300Y0119300D03*
X0370300Y0119300D03*
X0370300Y0129300D03*
X0370300Y0139300D03*
X0350300Y0139300D03*
X0350300Y0129300D03*
X0370300Y0149300D03*
X0342800Y0159300D03*
X0335300Y0159300D03*
X0325300Y0155550D03*
X0327800Y0169300D03*
X0335300Y0169300D03*
X0342800Y0169300D03*
X0320300Y0169300D03*
X0282800Y0172646D03*
X0287800Y0118000D03*
X0297800Y0113000D03*
X0272800Y0118000D03*
D24*
X0025300Y0074300D03*
X0025300Y0069300D03*
X0025300Y0064300D03*
X0015300Y0064300D03*
M02*
