G75*
%MOIN*%
%OFA0B0*%
%FSLAX25Y25*%
%IPPOS*%
%LPD*%
%AMOC8*
5,1,8,0,0,1.08239X$1,22.5*
%
%ADD10C,0.00600*%
%ADD11C,0.01100*%
%ADD12C,0.00200*%
%ADD13C,0.00300*%
%ADD14C,0.00500*%
%ADD15C,0.00400*%
%ADD16C,0.00800*%
%ADD17C,0.00100*%
%ADD18C,0.01500*%
%ADD19R,0.03000X0.01500*%
%ADD20R,0.01500X0.03000*%
%ADD21R,0.03400X0.03000*%
%ADD22C,0.02200*%
%ADD23R,0.01181X0.00591*%
%ADD24R,0.01181X0.01181*%
D10*
X0033100Y0010303D02*
X0037370Y0010303D01*
X0035235Y0012438D02*
X0035235Y0008168D01*
X0045991Y0007100D02*
X0045991Y0013505D01*
X0048126Y0011370D01*
X0050261Y0013505D01*
X0050261Y0007100D01*
X0052436Y0007100D02*
X0056707Y0007100D01*
X0054572Y0007100D02*
X0054572Y0013505D01*
X0052436Y0011370D01*
X0065327Y0010303D02*
X0069598Y0010303D01*
X0073100Y0010303D02*
X0077370Y0010303D01*
X0075235Y0012438D02*
X0075235Y0008168D01*
X0085991Y0007100D02*
X0085991Y0013505D01*
X0088126Y0011370D01*
X0090261Y0013505D01*
X0090261Y0007100D01*
X0092436Y0007100D02*
X0096707Y0011370D01*
X0096707Y0012438D01*
X0095639Y0013505D01*
X0093504Y0013505D01*
X0092436Y0012438D01*
X0092436Y0007100D02*
X0096707Y0007100D01*
X0105327Y0010303D02*
X0109598Y0010303D01*
X0113100Y0010303D02*
X0117370Y0010303D01*
X0115235Y0012438D02*
X0115235Y0008168D01*
X0125991Y0007100D02*
X0125991Y0013505D01*
X0128126Y0011370D01*
X0130261Y0013505D01*
X0130261Y0007100D01*
X0132436Y0008168D02*
X0133504Y0007100D01*
X0135639Y0007100D01*
X0136707Y0008168D01*
X0136707Y0009235D01*
X0135639Y0010303D01*
X0134572Y0010303D01*
X0135639Y0010303D02*
X0136707Y0011370D01*
X0136707Y0012438D01*
X0135639Y0013505D01*
X0133504Y0013505D01*
X0132436Y0012438D01*
X0145327Y0010303D02*
X0149598Y0010303D01*
X0153100Y0010303D02*
X0157370Y0010303D01*
X0155235Y0012438D02*
X0155235Y0008168D01*
X0165991Y0007100D02*
X0165991Y0013505D01*
X0168126Y0011370D01*
X0170261Y0013505D01*
X0170261Y0007100D01*
X0175639Y0007100D02*
X0175639Y0013505D01*
X0172436Y0010303D01*
X0176707Y0010303D01*
X0185327Y0010303D02*
X0189598Y0010303D01*
X0193100Y0010303D02*
X0197370Y0010303D01*
X0195235Y0012438D02*
X0195235Y0008168D01*
X0205991Y0007100D02*
X0205991Y0013505D01*
X0208126Y0011370D01*
X0210261Y0013505D01*
X0210261Y0007100D01*
X0212436Y0008168D02*
X0213504Y0007100D01*
X0215639Y0007100D01*
X0216707Y0008168D01*
X0216707Y0010303D01*
X0215639Y0011370D01*
X0214572Y0011370D01*
X0212436Y0010303D01*
X0212436Y0013505D01*
X0216707Y0013505D01*
X0225327Y0010303D02*
X0229598Y0010303D01*
X0233100Y0010303D02*
X0237370Y0010303D01*
X0235235Y0012438D02*
X0235235Y0008168D01*
X0245991Y0007100D02*
X0245991Y0013505D01*
X0248126Y0011370D01*
X0250261Y0013505D01*
X0250261Y0007100D01*
X0252436Y0008168D02*
X0253504Y0007100D01*
X0255639Y0007100D01*
X0256707Y0008168D01*
X0256707Y0009235D01*
X0255639Y0010303D01*
X0252436Y0010303D01*
X0252436Y0008168D01*
X0252436Y0010303D02*
X0254572Y0012438D01*
X0256707Y0013505D01*
X0265327Y0010303D02*
X0269598Y0010303D01*
X0273100Y0010303D02*
X0277370Y0010303D01*
X0275235Y0012438D02*
X0275235Y0008168D01*
X0285991Y0007100D02*
X0285991Y0011370D01*
X0288126Y0013505D01*
X0290261Y0011370D01*
X0290261Y0007100D01*
X0292436Y0007100D02*
X0296707Y0007100D01*
X0294572Y0007100D02*
X0294572Y0013505D01*
X0292436Y0011370D01*
X0290261Y0010303D02*
X0285991Y0010303D01*
X0270658Y0017800D02*
X0270658Y0027202D01*
X0270658Y0053202D01*
X0270658Y0054001D01*
X0309957Y0054001D01*
X0309957Y0053202D01*
X0309957Y0027202D01*
X0309957Y0017800D01*
X0270658Y0017800D01*
X0269957Y0017800D02*
X0269957Y0027202D01*
X0269957Y0053202D01*
X0230658Y0053202D01*
X0230658Y0054001D01*
X0269957Y0054001D01*
X0269957Y0053202D01*
X0270658Y0053202D02*
X0309957Y0053202D01*
X0310658Y0053202D02*
X0310658Y0054001D01*
X0349957Y0054001D01*
X0349957Y0053202D01*
X0349957Y0027202D01*
X0349957Y0017800D01*
X0310658Y0017800D01*
X0310658Y0027202D01*
X0310658Y0053202D01*
X0349957Y0053202D01*
X0338157Y0048000D02*
X0338159Y0048089D01*
X0338165Y0048178D01*
X0338175Y0048267D01*
X0338189Y0048355D01*
X0338206Y0048442D01*
X0338228Y0048528D01*
X0338254Y0048614D01*
X0338283Y0048698D01*
X0338316Y0048781D01*
X0338352Y0048862D01*
X0338393Y0048942D01*
X0338436Y0049019D01*
X0338483Y0049095D01*
X0338534Y0049168D01*
X0338587Y0049239D01*
X0338644Y0049308D01*
X0338704Y0049374D01*
X0338767Y0049438D01*
X0338832Y0049498D01*
X0338900Y0049556D01*
X0338971Y0049610D01*
X0339044Y0049661D01*
X0339119Y0049709D01*
X0339196Y0049754D01*
X0339275Y0049795D01*
X0339356Y0049832D01*
X0339438Y0049866D01*
X0339522Y0049897D01*
X0339607Y0049923D01*
X0339693Y0049946D01*
X0339780Y0049964D01*
X0339868Y0049979D01*
X0339957Y0049990D01*
X0340046Y0049997D01*
X0340135Y0050000D01*
X0340224Y0049999D01*
X0340313Y0049994D01*
X0340401Y0049985D01*
X0340490Y0049972D01*
X0340577Y0049955D01*
X0340664Y0049935D01*
X0340750Y0049910D01*
X0340834Y0049882D01*
X0340917Y0049850D01*
X0340999Y0049814D01*
X0341079Y0049775D01*
X0341157Y0049732D01*
X0341233Y0049686D01*
X0341307Y0049636D01*
X0341379Y0049583D01*
X0341448Y0049527D01*
X0341515Y0049468D01*
X0341579Y0049406D01*
X0341640Y0049342D01*
X0341699Y0049274D01*
X0341754Y0049204D01*
X0341806Y0049132D01*
X0341855Y0049057D01*
X0341900Y0048981D01*
X0341942Y0048902D01*
X0341980Y0048822D01*
X0342015Y0048740D01*
X0342046Y0048656D01*
X0342074Y0048571D01*
X0342097Y0048485D01*
X0342117Y0048398D01*
X0342133Y0048311D01*
X0342145Y0048222D01*
X0342153Y0048134D01*
X0342157Y0048045D01*
X0342157Y0047955D01*
X0342153Y0047866D01*
X0342145Y0047778D01*
X0342133Y0047689D01*
X0342117Y0047602D01*
X0342097Y0047515D01*
X0342074Y0047429D01*
X0342046Y0047344D01*
X0342015Y0047260D01*
X0341980Y0047178D01*
X0341942Y0047098D01*
X0341900Y0047019D01*
X0341855Y0046943D01*
X0341806Y0046868D01*
X0341754Y0046796D01*
X0341699Y0046726D01*
X0341640Y0046658D01*
X0341579Y0046594D01*
X0341515Y0046532D01*
X0341448Y0046473D01*
X0341379Y0046417D01*
X0341307Y0046364D01*
X0341233Y0046314D01*
X0341157Y0046268D01*
X0341079Y0046225D01*
X0340999Y0046186D01*
X0340917Y0046150D01*
X0340834Y0046118D01*
X0340750Y0046090D01*
X0340664Y0046065D01*
X0340577Y0046045D01*
X0340490Y0046028D01*
X0340401Y0046015D01*
X0340313Y0046006D01*
X0340224Y0046001D01*
X0340135Y0046000D01*
X0340046Y0046003D01*
X0339957Y0046010D01*
X0339868Y0046021D01*
X0339780Y0046036D01*
X0339693Y0046054D01*
X0339607Y0046077D01*
X0339522Y0046103D01*
X0339438Y0046134D01*
X0339356Y0046168D01*
X0339275Y0046205D01*
X0339196Y0046246D01*
X0339119Y0046291D01*
X0339044Y0046339D01*
X0338971Y0046390D01*
X0338900Y0046444D01*
X0338832Y0046502D01*
X0338767Y0046562D01*
X0338704Y0046626D01*
X0338644Y0046692D01*
X0338587Y0046761D01*
X0338534Y0046832D01*
X0338483Y0046905D01*
X0338436Y0046981D01*
X0338393Y0047058D01*
X0338352Y0047138D01*
X0338316Y0047219D01*
X0338283Y0047302D01*
X0338254Y0047386D01*
X0338228Y0047472D01*
X0338206Y0047558D01*
X0338189Y0047645D01*
X0338175Y0047733D01*
X0338165Y0047822D01*
X0338159Y0047911D01*
X0338157Y0048000D01*
X0318457Y0048000D02*
X0318459Y0048089D01*
X0318465Y0048178D01*
X0318475Y0048267D01*
X0318489Y0048355D01*
X0318506Y0048442D01*
X0318528Y0048528D01*
X0318554Y0048614D01*
X0318583Y0048698D01*
X0318616Y0048781D01*
X0318652Y0048862D01*
X0318693Y0048942D01*
X0318736Y0049019D01*
X0318783Y0049095D01*
X0318834Y0049168D01*
X0318887Y0049239D01*
X0318944Y0049308D01*
X0319004Y0049374D01*
X0319067Y0049438D01*
X0319132Y0049498D01*
X0319200Y0049556D01*
X0319271Y0049610D01*
X0319344Y0049661D01*
X0319419Y0049709D01*
X0319496Y0049754D01*
X0319575Y0049795D01*
X0319656Y0049832D01*
X0319738Y0049866D01*
X0319822Y0049897D01*
X0319907Y0049923D01*
X0319993Y0049946D01*
X0320080Y0049964D01*
X0320168Y0049979D01*
X0320257Y0049990D01*
X0320346Y0049997D01*
X0320435Y0050000D01*
X0320524Y0049999D01*
X0320613Y0049994D01*
X0320701Y0049985D01*
X0320790Y0049972D01*
X0320877Y0049955D01*
X0320964Y0049935D01*
X0321050Y0049910D01*
X0321134Y0049882D01*
X0321217Y0049850D01*
X0321299Y0049814D01*
X0321379Y0049775D01*
X0321457Y0049732D01*
X0321533Y0049686D01*
X0321607Y0049636D01*
X0321679Y0049583D01*
X0321748Y0049527D01*
X0321815Y0049468D01*
X0321879Y0049406D01*
X0321940Y0049342D01*
X0321999Y0049274D01*
X0322054Y0049204D01*
X0322106Y0049132D01*
X0322155Y0049057D01*
X0322200Y0048981D01*
X0322242Y0048902D01*
X0322280Y0048822D01*
X0322315Y0048740D01*
X0322346Y0048656D01*
X0322374Y0048571D01*
X0322397Y0048485D01*
X0322417Y0048398D01*
X0322433Y0048311D01*
X0322445Y0048222D01*
X0322453Y0048134D01*
X0322457Y0048045D01*
X0322457Y0047955D01*
X0322453Y0047866D01*
X0322445Y0047778D01*
X0322433Y0047689D01*
X0322417Y0047602D01*
X0322397Y0047515D01*
X0322374Y0047429D01*
X0322346Y0047344D01*
X0322315Y0047260D01*
X0322280Y0047178D01*
X0322242Y0047098D01*
X0322200Y0047019D01*
X0322155Y0046943D01*
X0322106Y0046868D01*
X0322054Y0046796D01*
X0321999Y0046726D01*
X0321940Y0046658D01*
X0321879Y0046594D01*
X0321815Y0046532D01*
X0321748Y0046473D01*
X0321679Y0046417D01*
X0321607Y0046364D01*
X0321533Y0046314D01*
X0321457Y0046268D01*
X0321379Y0046225D01*
X0321299Y0046186D01*
X0321217Y0046150D01*
X0321134Y0046118D01*
X0321050Y0046090D01*
X0320964Y0046065D01*
X0320877Y0046045D01*
X0320790Y0046028D01*
X0320701Y0046015D01*
X0320613Y0046006D01*
X0320524Y0046001D01*
X0320435Y0046000D01*
X0320346Y0046003D01*
X0320257Y0046010D01*
X0320168Y0046021D01*
X0320080Y0046036D01*
X0319993Y0046054D01*
X0319907Y0046077D01*
X0319822Y0046103D01*
X0319738Y0046134D01*
X0319656Y0046168D01*
X0319575Y0046205D01*
X0319496Y0046246D01*
X0319419Y0046291D01*
X0319344Y0046339D01*
X0319271Y0046390D01*
X0319200Y0046444D01*
X0319132Y0046502D01*
X0319067Y0046562D01*
X0319004Y0046626D01*
X0318944Y0046692D01*
X0318887Y0046761D01*
X0318834Y0046832D01*
X0318783Y0046905D01*
X0318736Y0046981D01*
X0318693Y0047058D01*
X0318652Y0047138D01*
X0318616Y0047219D01*
X0318583Y0047302D01*
X0318554Y0047386D01*
X0318528Y0047472D01*
X0318506Y0047558D01*
X0318489Y0047645D01*
X0318475Y0047733D01*
X0318465Y0047822D01*
X0318459Y0047911D01*
X0318457Y0048000D01*
X0298157Y0048000D02*
X0298159Y0048089D01*
X0298165Y0048178D01*
X0298175Y0048267D01*
X0298189Y0048355D01*
X0298206Y0048442D01*
X0298228Y0048528D01*
X0298254Y0048614D01*
X0298283Y0048698D01*
X0298316Y0048781D01*
X0298352Y0048862D01*
X0298393Y0048942D01*
X0298436Y0049019D01*
X0298483Y0049095D01*
X0298534Y0049168D01*
X0298587Y0049239D01*
X0298644Y0049308D01*
X0298704Y0049374D01*
X0298767Y0049438D01*
X0298832Y0049498D01*
X0298900Y0049556D01*
X0298971Y0049610D01*
X0299044Y0049661D01*
X0299119Y0049709D01*
X0299196Y0049754D01*
X0299275Y0049795D01*
X0299356Y0049832D01*
X0299438Y0049866D01*
X0299522Y0049897D01*
X0299607Y0049923D01*
X0299693Y0049946D01*
X0299780Y0049964D01*
X0299868Y0049979D01*
X0299957Y0049990D01*
X0300046Y0049997D01*
X0300135Y0050000D01*
X0300224Y0049999D01*
X0300313Y0049994D01*
X0300401Y0049985D01*
X0300490Y0049972D01*
X0300577Y0049955D01*
X0300664Y0049935D01*
X0300750Y0049910D01*
X0300834Y0049882D01*
X0300917Y0049850D01*
X0300999Y0049814D01*
X0301079Y0049775D01*
X0301157Y0049732D01*
X0301233Y0049686D01*
X0301307Y0049636D01*
X0301379Y0049583D01*
X0301448Y0049527D01*
X0301515Y0049468D01*
X0301579Y0049406D01*
X0301640Y0049342D01*
X0301699Y0049274D01*
X0301754Y0049204D01*
X0301806Y0049132D01*
X0301855Y0049057D01*
X0301900Y0048981D01*
X0301942Y0048902D01*
X0301980Y0048822D01*
X0302015Y0048740D01*
X0302046Y0048656D01*
X0302074Y0048571D01*
X0302097Y0048485D01*
X0302117Y0048398D01*
X0302133Y0048311D01*
X0302145Y0048222D01*
X0302153Y0048134D01*
X0302157Y0048045D01*
X0302157Y0047955D01*
X0302153Y0047866D01*
X0302145Y0047778D01*
X0302133Y0047689D01*
X0302117Y0047602D01*
X0302097Y0047515D01*
X0302074Y0047429D01*
X0302046Y0047344D01*
X0302015Y0047260D01*
X0301980Y0047178D01*
X0301942Y0047098D01*
X0301900Y0047019D01*
X0301855Y0046943D01*
X0301806Y0046868D01*
X0301754Y0046796D01*
X0301699Y0046726D01*
X0301640Y0046658D01*
X0301579Y0046594D01*
X0301515Y0046532D01*
X0301448Y0046473D01*
X0301379Y0046417D01*
X0301307Y0046364D01*
X0301233Y0046314D01*
X0301157Y0046268D01*
X0301079Y0046225D01*
X0300999Y0046186D01*
X0300917Y0046150D01*
X0300834Y0046118D01*
X0300750Y0046090D01*
X0300664Y0046065D01*
X0300577Y0046045D01*
X0300490Y0046028D01*
X0300401Y0046015D01*
X0300313Y0046006D01*
X0300224Y0046001D01*
X0300135Y0046000D01*
X0300046Y0046003D01*
X0299957Y0046010D01*
X0299868Y0046021D01*
X0299780Y0046036D01*
X0299693Y0046054D01*
X0299607Y0046077D01*
X0299522Y0046103D01*
X0299438Y0046134D01*
X0299356Y0046168D01*
X0299275Y0046205D01*
X0299196Y0046246D01*
X0299119Y0046291D01*
X0299044Y0046339D01*
X0298971Y0046390D01*
X0298900Y0046444D01*
X0298832Y0046502D01*
X0298767Y0046562D01*
X0298704Y0046626D01*
X0298644Y0046692D01*
X0298587Y0046761D01*
X0298534Y0046832D01*
X0298483Y0046905D01*
X0298436Y0046981D01*
X0298393Y0047058D01*
X0298352Y0047138D01*
X0298316Y0047219D01*
X0298283Y0047302D01*
X0298254Y0047386D01*
X0298228Y0047472D01*
X0298206Y0047558D01*
X0298189Y0047645D01*
X0298175Y0047733D01*
X0298165Y0047822D01*
X0298159Y0047911D01*
X0298157Y0048000D01*
X0278457Y0048000D02*
X0278459Y0048089D01*
X0278465Y0048178D01*
X0278475Y0048267D01*
X0278489Y0048355D01*
X0278506Y0048442D01*
X0278528Y0048528D01*
X0278554Y0048614D01*
X0278583Y0048698D01*
X0278616Y0048781D01*
X0278652Y0048862D01*
X0278693Y0048942D01*
X0278736Y0049019D01*
X0278783Y0049095D01*
X0278834Y0049168D01*
X0278887Y0049239D01*
X0278944Y0049308D01*
X0279004Y0049374D01*
X0279067Y0049438D01*
X0279132Y0049498D01*
X0279200Y0049556D01*
X0279271Y0049610D01*
X0279344Y0049661D01*
X0279419Y0049709D01*
X0279496Y0049754D01*
X0279575Y0049795D01*
X0279656Y0049832D01*
X0279738Y0049866D01*
X0279822Y0049897D01*
X0279907Y0049923D01*
X0279993Y0049946D01*
X0280080Y0049964D01*
X0280168Y0049979D01*
X0280257Y0049990D01*
X0280346Y0049997D01*
X0280435Y0050000D01*
X0280524Y0049999D01*
X0280613Y0049994D01*
X0280701Y0049985D01*
X0280790Y0049972D01*
X0280877Y0049955D01*
X0280964Y0049935D01*
X0281050Y0049910D01*
X0281134Y0049882D01*
X0281217Y0049850D01*
X0281299Y0049814D01*
X0281379Y0049775D01*
X0281457Y0049732D01*
X0281533Y0049686D01*
X0281607Y0049636D01*
X0281679Y0049583D01*
X0281748Y0049527D01*
X0281815Y0049468D01*
X0281879Y0049406D01*
X0281940Y0049342D01*
X0281999Y0049274D01*
X0282054Y0049204D01*
X0282106Y0049132D01*
X0282155Y0049057D01*
X0282200Y0048981D01*
X0282242Y0048902D01*
X0282280Y0048822D01*
X0282315Y0048740D01*
X0282346Y0048656D01*
X0282374Y0048571D01*
X0282397Y0048485D01*
X0282417Y0048398D01*
X0282433Y0048311D01*
X0282445Y0048222D01*
X0282453Y0048134D01*
X0282457Y0048045D01*
X0282457Y0047955D01*
X0282453Y0047866D01*
X0282445Y0047778D01*
X0282433Y0047689D01*
X0282417Y0047602D01*
X0282397Y0047515D01*
X0282374Y0047429D01*
X0282346Y0047344D01*
X0282315Y0047260D01*
X0282280Y0047178D01*
X0282242Y0047098D01*
X0282200Y0047019D01*
X0282155Y0046943D01*
X0282106Y0046868D01*
X0282054Y0046796D01*
X0281999Y0046726D01*
X0281940Y0046658D01*
X0281879Y0046594D01*
X0281815Y0046532D01*
X0281748Y0046473D01*
X0281679Y0046417D01*
X0281607Y0046364D01*
X0281533Y0046314D01*
X0281457Y0046268D01*
X0281379Y0046225D01*
X0281299Y0046186D01*
X0281217Y0046150D01*
X0281134Y0046118D01*
X0281050Y0046090D01*
X0280964Y0046065D01*
X0280877Y0046045D01*
X0280790Y0046028D01*
X0280701Y0046015D01*
X0280613Y0046006D01*
X0280524Y0046001D01*
X0280435Y0046000D01*
X0280346Y0046003D01*
X0280257Y0046010D01*
X0280168Y0046021D01*
X0280080Y0046036D01*
X0279993Y0046054D01*
X0279907Y0046077D01*
X0279822Y0046103D01*
X0279738Y0046134D01*
X0279656Y0046168D01*
X0279575Y0046205D01*
X0279496Y0046246D01*
X0279419Y0046291D01*
X0279344Y0046339D01*
X0279271Y0046390D01*
X0279200Y0046444D01*
X0279132Y0046502D01*
X0279067Y0046562D01*
X0279004Y0046626D01*
X0278944Y0046692D01*
X0278887Y0046761D01*
X0278834Y0046832D01*
X0278783Y0046905D01*
X0278736Y0046981D01*
X0278693Y0047058D01*
X0278652Y0047138D01*
X0278616Y0047219D01*
X0278583Y0047302D01*
X0278554Y0047386D01*
X0278528Y0047472D01*
X0278506Y0047558D01*
X0278489Y0047645D01*
X0278475Y0047733D01*
X0278465Y0047822D01*
X0278459Y0047911D01*
X0278457Y0048000D01*
X0258157Y0048000D02*
X0258159Y0048089D01*
X0258165Y0048178D01*
X0258175Y0048267D01*
X0258189Y0048355D01*
X0258206Y0048442D01*
X0258228Y0048528D01*
X0258254Y0048614D01*
X0258283Y0048698D01*
X0258316Y0048781D01*
X0258352Y0048862D01*
X0258393Y0048942D01*
X0258436Y0049019D01*
X0258483Y0049095D01*
X0258534Y0049168D01*
X0258587Y0049239D01*
X0258644Y0049308D01*
X0258704Y0049374D01*
X0258767Y0049438D01*
X0258832Y0049498D01*
X0258900Y0049556D01*
X0258971Y0049610D01*
X0259044Y0049661D01*
X0259119Y0049709D01*
X0259196Y0049754D01*
X0259275Y0049795D01*
X0259356Y0049832D01*
X0259438Y0049866D01*
X0259522Y0049897D01*
X0259607Y0049923D01*
X0259693Y0049946D01*
X0259780Y0049964D01*
X0259868Y0049979D01*
X0259957Y0049990D01*
X0260046Y0049997D01*
X0260135Y0050000D01*
X0260224Y0049999D01*
X0260313Y0049994D01*
X0260401Y0049985D01*
X0260490Y0049972D01*
X0260577Y0049955D01*
X0260664Y0049935D01*
X0260750Y0049910D01*
X0260834Y0049882D01*
X0260917Y0049850D01*
X0260999Y0049814D01*
X0261079Y0049775D01*
X0261157Y0049732D01*
X0261233Y0049686D01*
X0261307Y0049636D01*
X0261379Y0049583D01*
X0261448Y0049527D01*
X0261515Y0049468D01*
X0261579Y0049406D01*
X0261640Y0049342D01*
X0261699Y0049274D01*
X0261754Y0049204D01*
X0261806Y0049132D01*
X0261855Y0049057D01*
X0261900Y0048981D01*
X0261942Y0048902D01*
X0261980Y0048822D01*
X0262015Y0048740D01*
X0262046Y0048656D01*
X0262074Y0048571D01*
X0262097Y0048485D01*
X0262117Y0048398D01*
X0262133Y0048311D01*
X0262145Y0048222D01*
X0262153Y0048134D01*
X0262157Y0048045D01*
X0262157Y0047955D01*
X0262153Y0047866D01*
X0262145Y0047778D01*
X0262133Y0047689D01*
X0262117Y0047602D01*
X0262097Y0047515D01*
X0262074Y0047429D01*
X0262046Y0047344D01*
X0262015Y0047260D01*
X0261980Y0047178D01*
X0261942Y0047098D01*
X0261900Y0047019D01*
X0261855Y0046943D01*
X0261806Y0046868D01*
X0261754Y0046796D01*
X0261699Y0046726D01*
X0261640Y0046658D01*
X0261579Y0046594D01*
X0261515Y0046532D01*
X0261448Y0046473D01*
X0261379Y0046417D01*
X0261307Y0046364D01*
X0261233Y0046314D01*
X0261157Y0046268D01*
X0261079Y0046225D01*
X0260999Y0046186D01*
X0260917Y0046150D01*
X0260834Y0046118D01*
X0260750Y0046090D01*
X0260664Y0046065D01*
X0260577Y0046045D01*
X0260490Y0046028D01*
X0260401Y0046015D01*
X0260313Y0046006D01*
X0260224Y0046001D01*
X0260135Y0046000D01*
X0260046Y0046003D01*
X0259957Y0046010D01*
X0259868Y0046021D01*
X0259780Y0046036D01*
X0259693Y0046054D01*
X0259607Y0046077D01*
X0259522Y0046103D01*
X0259438Y0046134D01*
X0259356Y0046168D01*
X0259275Y0046205D01*
X0259196Y0046246D01*
X0259119Y0046291D01*
X0259044Y0046339D01*
X0258971Y0046390D01*
X0258900Y0046444D01*
X0258832Y0046502D01*
X0258767Y0046562D01*
X0258704Y0046626D01*
X0258644Y0046692D01*
X0258587Y0046761D01*
X0258534Y0046832D01*
X0258483Y0046905D01*
X0258436Y0046981D01*
X0258393Y0047058D01*
X0258352Y0047138D01*
X0258316Y0047219D01*
X0258283Y0047302D01*
X0258254Y0047386D01*
X0258228Y0047472D01*
X0258206Y0047558D01*
X0258189Y0047645D01*
X0258175Y0047733D01*
X0258165Y0047822D01*
X0258159Y0047911D01*
X0258157Y0048000D01*
X0238457Y0048000D02*
X0238459Y0048089D01*
X0238465Y0048178D01*
X0238475Y0048267D01*
X0238489Y0048355D01*
X0238506Y0048442D01*
X0238528Y0048528D01*
X0238554Y0048614D01*
X0238583Y0048698D01*
X0238616Y0048781D01*
X0238652Y0048862D01*
X0238693Y0048942D01*
X0238736Y0049019D01*
X0238783Y0049095D01*
X0238834Y0049168D01*
X0238887Y0049239D01*
X0238944Y0049308D01*
X0239004Y0049374D01*
X0239067Y0049438D01*
X0239132Y0049498D01*
X0239200Y0049556D01*
X0239271Y0049610D01*
X0239344Y0049661D01*
X0239419Y0049709D01*
X0239496Y0049754D01*
X0239575Y0049795D01*
X0239656Y0049832D01*
X0239738Y0049866D01*
X0239822Y0049897D01*
X0239907Y0049923D01*
X0239993Y0049946D01*
X0240080Y0049964D01*
X0240168Y0049979D01*
X0240257Y0049990D01*
X0240346Y0049997D01*
X0240435Y0050000D01*
X0240524Y0049999D01*
X0240613Y0049994D01*
X0240701Y0049985D01*
X0240790Y0049972D01*
X0240877Y0049955D01*
X0240964Y0049935D01*
X0241050Y0049910D01*
X0241134Y0049882D01*
X0241217Y0049850D01*
X0241299Y0049814D01*
X0241379Y0049775D01*
X0241457Y0049732D01*
X0241533Y0049686D01*
X0241607Y0049636D01*
X0241679Y0049583D01*
X0241748Y0049527D01*
X0241815Y0049468D01*
X0241879Y0049406D01*
X0241940Y0049342D01*
X0241999Y0049274D01*
X0242054Y0049204D01*
X0242106Y0049132D01*
X0242155Y0049057D01*
X0242200Y0048981D01*
X0242242Y0048902D01*
X0242280Y0048822D01*
X0242315Y0048740D01*
X0242346Y0048656D01*
X0242374Y0048571D01*
X0242397Y0048485D01*
X0242417Y0048398D01*
X0242433Y0048311D01*
X0242445Y0048222D01*
X0242453Y0048134D01*
X0242457Y0048045D01*
X0242457Y0047955D01*
X0242453Y0047866D01*
X0242445Y0047778D01*
X0242433Y0047689D01*
X0242417Y0047602D01*
X0242397Y0047515D01*
X0242374Y0047429D01*
X0242346Y0047344D01*
X0242315Y0047260D01*
X0242280Y0047178D01*
X0242242Y0047098D01*
X0242200Y0047019D01*
X0242155Y0046943D01*
X0242106Y0046868D01*
X0242054Y0046796D01*
X0241999Y0046726D01*
X0241940Y0046658D01*
X0241879Y0046594D01*
X0241815Y0046532D01*
X0241748Y0046473D01*
X0241679Y0046417D01*
X0241607Y0046364D01*
X0241533Y0046314D01*
X0241457Y0046268D01*
X0241379Y0046225D01*
X0241299Y0046186D01*
X0241217Y0046150D01*
X0241134Y0046118D01*
X0241050Y0046090D01*
X0240964Y0046065D01*
X0240877Y0046045D01*
X0240790Y0046028D01*
X0240701Y0046015D01*
X0240613Y0046006D01*
X0240524Y0046001D01*
X0240435Y0046000D01*
X0240346Y0046003D01*
X0240257Y0046010D01*
X0240168Y0046021D01*
X0240080Y0046036D01*
X0239993Y0046054D01*
X0239907Y0046077D01*
X0239822Y0046103D01*
X0239738Y0046134D01*
X0239656Y0046168D01*
X0239575Y0046205D01*
X0239496Y0046246D01*
X0239419Y0046291D01*
X0239344Y0046339D01*
X0239271Y0046390D01*
X0239200Y0046444D01*
X0239132Y0046502D01*
X0239067Y0046562D01*
X0239004Y0046626D01*
X0238944Y0046692D01*
X0238887Y0046761D01*
X0238834Y0046832D01*
X0238783Y0046905D01*
X0238736Y0046981D01*
X0238693Y0047058D01*
X0238652Y0047138D01*
X0238616Y0047219D01*
X0238583Y0047302D01*
X0238554Y0047386D01*
X0238528Y0047472D01*
X0238506Y0047558D01*
X0238489Y0047645D01*
X0238475Y0047733D01*
X0238465Y0047822D01*
X0238459Y0047911D01*
X0238457Y0048000D01*
X0230658Y0053202D02*
X0230658Y0027202D01*
X0236957Y0027202D01*
X0230658Y0027202D02*
X0230658Y0017800D01*
X0269957Y0017800D01*
X0269957Y0027202D02*
X0263658Y0027202D01*
X0256658Y0027202D02*
X0243957Y0027202D01*
X0229957Y0027202D02*
X0229957Y0053202D01*
X0190658Y0053202D01*
X0190658Y0054001D01*
X0229957Y0054001D01*
X0229957Y0053202D01*
X0218157Y0048000D02*
X0218159Y0048089D01*
X0218165Y0048178D01*
X0218175Y0048267D01*
X0218189Y0048355D01*
X0218206Y0048442D01*
X0218228Y0048528D01*
X0218254Y0048614D01*
X0218283Y0048698D01*
X0218316Y0048781D01*
X0218352Y0048862D01*
X0218393Y0048942D01*
X0218436Y0049019D01*
X0218483Y0049095D01*
X0218534Y0049168D01*
X0218587Y0049239D01*
X0218644Y0049308D01*
X0218704Y0049374D01*
X0218767Y0049438D01*
X0218832Y0049498D01*
X0218900Y0049556D01*
X0218971Y0049610D01*
X0219044Y0049661D01*
X0219119Y0049709D01*
X0219196Y0049754D01*
X0219275Y0049795D01*
X0219356Y0049832D01*
X0219438Y0049866D01*
X0219522Y0049897D01*
X0219607Y0049923D01*
X0219693Y0049946D01*
X0219780Y0049964D01*
X0219868Y0049979D01*
X0219957Y0049990D01*
X0220046Y0049997D01*
X0220135Y0050000D01*
X0220224Y0049999D01*
X0220313Y0049994D01*
X0220401Y0049985D01*
X0220490Y0049972D01*
X0220577Y0049955D01*
X0220664Y0049935D01*
X0220750Y0049910D01*
X0220834Y0049882D01*
X0220917Y0049850D01*
X0220999Y0049814D01*
X0221079Y0049775D01*
X0221157Y0049732D01*
X0221233Y0049686D01*
X0221307Y0049636D01*
X0221379Y0049583D01*
X0221448Y0049527D01*
X0221515Y0049468D01*
X0221579Y0049406D01*
X0221640Y0049342D01*
X0221699Y0049274D01*
X0221754Y0049204D01*
X0221806Y0049132D01*
X0221855Y0049057D01*
X0221900Y0048981D01*
X0221942Y0048902D01*
X0221980Y0048822D01*
X0222015Y0048740D01*
X0222046Y0048656D01*
X0222074Y0048571D01*
X0222097Y0048485D01*
X0222117Y0048398D01*
X0222133Y0048311D01*
X0222145Y0048222D01*
X0222153Y0048134D01*
X0222157Y0048045D01*
X0222157Y0047955D01*
X0222153Y0047866D01*
X0222145Y0047778D01*
X0222133Y0047689D01*
X0222117Y0047602D01*
X0222097Y0047515D01*
X0222074Y0047429D01*
X0222046Y0047344D01*
X0222015Y0047260D01*
X0221980Y0047178D01*
X0221942Y0047098D01*
X0221900Y0047019D01*
X0221855Y0046943D01*
X0221806Y0046868D01*
X0221754Y0046796D01*
X0221699Y0046726D01*
X0221640Y0046658D01*
X0221579Y0046594D01*
X0221515Y0046532D01*
X0221448Y0046473D01*
X0221379Y0046417D01*
X0221307Y0046364D01*
X0221233Y0046314D01*
X0221157Y0046268D01*
X0221079Y0046225D01*
X0220999Y0046186D01*
X0220917Y0046150D01*
X0220834Y0046118D01*
X0220750Y0046090D01*
X0220664Y0046065D01*
X0220577Y0046045D01*
X0220490Y0046028D01*
X0220401Y0046015D01*
X0220313Y0046006D01*
X0220224Y0046001D01*
X0220135Y0046000D01*
X0220046Y0046003D01*
X0219957Y0046010D01*
X0219868Y0046021D01*
X0219780Y0046036D01*
X0219693Y0046054D01*
X0219607Y0046077D01*
X0219522Y0046103D01*
X0219438Y0046134D01*
X0219356Y0046168D01*
X0219275Y0046205D01*
X0219196Y0046246D01*
X0219119Y0046291D01*
X0219044Y0046339D01*
X0218971Y0046390D01*
X0218900Y0046444D01*
X0218832Y0046502D01*
X0218767Y0046562D01*
X0218704Y0046626D01*
X0218644Y0046692D01*
X0218587Y0046761D01*
X0218534Y0046832D01*
X0218483Y0046905D01*
X0218436Y0046981D01*
X0218393Y0047058D01*
X0218352Y0047138D01*
X0218316Y0047219D01*
X0218283Y0047302D01*
X0218254Y0047386D01*
X0218228Y0047472D01*
X0218206Y0047558D01*
X0218189Y0047645D01*
X0218175Y0047733D01*
X0218165Y0047822D01*
X0218159Y0047911D01*
X0218157Y0048000D01*
X0198457Y0048000D02*
X0198459Y0048089D01*
X0198465Y0048178D01*
X0198475Y0048267D01*
X0198489Y0048355D01*
X0198506Y0048442D01*
X0198528Y0048528D01*
X0198554Y0048614D01*
X0198583Y0048698D01*
X0198616Y0048781D01*
X0198652Y0048862D01*
X0198693Y0048942D01*
X0198736Y0049019D01*
X0198783Y0049095D01*
X0198834Y0049168D01*
X0198887Y0049239D01*
X0198944Y0049308D01*
X0199004Y0049374D01*
X0199067Y0049438D01*
X0199132Y0049498D01*
X0199200Y0049556D01*
X0199271Y0049610D01*
X0199344Y0049661D01*
X0199419Y0049709D01*
X0199496Y0049754D01*
X0199575Y0049795D01*
X0199656Y0049832D01*
X0199738Y0049866D01*
X0199822Y0049897D01*
X0199907Y0049923D01*
X0199993Y0049946D01*
X0200080Y0049964D01*
X0200168Y0049979D01*
X0200257Y0049990D01*
X0200346Y0049997D01*
X0200435Y0050000D01*
X0200524Y0049999D01*
X0200613Y0049994D01*
X0200701Y0049985D01*
X0200790Y0049972D01*
X0200877Y0049955D01*
X0200964Y0049935D01*
X0201050Y0049910D01*
X0201134Y0049882D01*
X0201217Y0049850D01*
X0201299Y0049814D01*
X0201379Y0049775D01*
X0201457Y0049732D01*
X0201533Y0049686D01*
X0201607Y0049636D01*
X0201679Y0049583D01*
X0201748Y0049527D01*
X0201815Y0049468D01*
X0201879Y0049406D01*
X0201940Y0049342D01*
X0201999Y0049274D01*
X0202054Y0049204D01*
X0202106Y0049132D01*
X0202155Y0049057D01*
X0202200Y0048981D01*
X0202242Y0048902D01*
X0202280Y0048822D01*
X0202315Y0048740D01*
X0202346Y0048656D01*
X0202374Y0048571D01*
X0202397Y0048485D01*
X0202417Y0048398D01*
X0202433Y0048311D01*
X0202445Y0048222D01*
X0202453Y0048134D01*
X0202457Y0048045D01*
X0202457Y0047955D01*
X0202453Y0047866D01*
X0202445Y0047778D01*
X0202433Y0047689D01*
X0202417Y0047602D01*
X0202397Y0047515D01*
X0202374Y0047429D01*
X0202346Y0047344D01*
X0202315Y0047260D01*
X0202280Y0047178D01*
X0202242Y0047098D01*
X0202200Y0047019D01*
X0202155Y0046943D01*
X0202106Y0046868D01*
X0202054Y0046796D01*
X0201999Y0046726D01*
X0201940Y0046658D01*
X0201879Y0046594D01*
X0201815Y0046532D01*
X0201748Y0046473D01*
X0201679Y0046417D01*
X0201607Y0046364D01*
X0201533Y0046314D01*
X0201457Y0046268D01*
X0201379Y0046225D01*
X0201299Y0046186D01*
X0201217Y0046150D01*
X0201134Y0046118D01*
X0201050Y0046090D01*
X0200964Y0046065D01*
X0200877Y0046045D01*
X0200790Y0046028D01*
X0200701Y0046015D01*
X0200613Y0046006D01*
X0200524Y0046001D01*
X0200435Y0046000D01*
X0200346Y0046003D01*
X0200257Y0046010D01*
X0200168Y0046021D01*
X0200080Y0046036D01*
X0199993Y0046054D01*
X0199907Y0046077D01*
X0199822Y0046103D01*
X0199738Y0046134D01*
X0199656Y0046168D01*
X0199575Y0046205D01*
X0199496Y0046246D01*
X0199419Y0046291D01*
X0199344Y0046339D01*
X0199271Y0046390D01*
X0199200Y0046444D01*
X0199132Y0046502D01*
X0199067Y0046562D01*
X0199004Y0046626D01*
X0198944Y0046692D01*
X0198887Y0046761D01*
X0198834Y0046832D01*
X0198783Y0046905D01*
X0198736Y0046981D01*
X0198693Y0047058D01*
X0198652Y0047138D01*
X0198616Y0047219D01*
X0198583Y0047302D01*
X0198554Y0047386D01*
X0198528Y0047472D01*
X0198506Y0047558D01*
X0198489Y0047645D01*
X0198475Y0047733D01*
X0198465Y0047822D01*
X0198459Y0047911D01*
X0198457Y0048000D01*
X0190658Y0053202D02*
X0190658Y0027202D01*
X0196957Y0027202D01*
X0190658Y0027202D02*
X0190658Y0017800D01*
X0229957Y0017800D01*
X0229957Y0027202D01*
X0223658Y0027202D01*
X0216658Y0027202D02*
X0203957Y0027202D01*
X0189957Y0027202D02*
X0189957Y0053202D01*
X0150658Y0053202D01*
X0150658Y0054001D01*
X0189957Y0054001D01*
X0189957Y0053202D01*
X0178157Y0048000D02*
X0178159Y0048089D01*
X0178165Y0048178D01*
X0178175Y0048267D01*
X0178189Y0048355D01*
X0178206Y0048442D01*
X0178228Y0048528D01*
X0178254Y0048614D01*
X0178283Y0048698D01*
X0178316Y0048781D01*
X0178352Y0048862D01*
X0178393Y0048942D01*
X0178436Y0049019D01*
X0178483Y0049095D01*
X0178534Y0049168D01*
X0178587Y0049239D01*
X0178644Y0049308D01*
X0178704Y0049374D01*
X0178767Y0049438D01*
X0178832Y0049498D01*
X0178900Y0049556D01*
X0178971Y0049610D01*
X0179044Y0049661D01*
X0179119Y0049709D01*
X0179196Y0049754D01*
X0179275Y0049795D01*
X0179356Y0049832D01*
X0179438Y0049866D01*
X0179522Y0049897D01*
X0179607Y0049923D01*
X0179693Y0049946D01*
X0179780Y0049964D01*
X0179868Y0049979D01*
X0179957Y0049990D01*
X0180046Y0049997D01*
X0180135Y0050000D01*
X0180224Y0049999D01*
X0180313Y0049994D01*
X0180401Y0049985D01*
X0180490Y0049972D01*
X0180577Y0049955D01*
X0180664Y0049935D01*
X0180750Y0049910D01*
X0180834Y0049882D01*
X0180917Y0049850D01*
X0180999Y0049814D01*
X0181079Y0049775D01*
X0181157Y0049732D01*
X0181233Y0049686D01*
X0181307Y0049636D01*
X0181379Y0049583D01*
X0181448Y0049527D01*
X0181515Y0049468D01*
X0181579Y0049406D01*
X0181640Y0049342D01*
X0181699Y0049274D01*
X0181754Y0049204D01*
X0181806Y0049132D01*
X0181855Y0049057D01*
X0181900Y0048981D01*
X0181942Y0048902D01*
X0181980Y0048822D01*
X0182015Y0048740D01*
X0182046Y0048656D01*
X0182074Y0048571D01*
X0182097Y0048485D01*
X0182117Y0048398D01*
X0182133Y0048311D01*
X0182145Y0048222D01*
X0182153Y0048134D01*
X0182157Y0048045D01*
X0182157Y0047955D01*
X0182153Y0047866D01*
X0182145Y0047778D01*
X0182133Y0047689D01*
X0182117Y0047602D01*
X0182097Y0047515D01*
X0182074Y0047429D01*
X0182046Y0047344D01*
X0182015Y0047260D01*
X0181980Y0047178D01*
X0181942Y0047098D01*
X0181900Y0047019D01*
X0181855Y0046943D01*
X0181806Y0046868D01*
X0181754Y0046796D01*
X0181699Y0046726D01*
X0181640Y0046658D01*
X0181579Y0046594D01*
X0181515Y0046532D01*
X0181448Y0046473D01*
X0181379Y0046417D01*
X0181307Y0046364D01*
X0181233Y0046314D01*
X0181157Y0046268D01*
X0181079Y0046225D01*
X0180999Y0046186D01*
X0180917Y0046150D01*
X0180834Y0046118D01*
X0180750Y0046090D01*
X0180664Y0046065D01*
X0180577Y0046045D01*
X0180490Y0046028D01*
X0180401Y0046015D01*
X0180313Y0046006D01*
X0180224Y0046001D01*
X0180135Y0046000D01*
X0180046Y0046003D01*
X0179957Y0046010D01*
X0179868Y0046021D01*
X0179780Y0046036D01*
X0179693Y0046054D01*
X0179607Y0046077D01*
X0179522Y0046103D01*
X0179438Y0046134D01*
X0179356Y0046168D01*
X0179275Y0046205D01*
X0179196Y0046246D01*
X0179119Y0046291D01*
X0179044Y0046339D01*
X0178971Y0046390D01*
X0178900Y0046444D01*
X0178832Y0046502D01*
X0178767Y0046562D01*
X0178704Y0046626D01*
X0178644Y0046692D01*
X0178587Y0046761D01*
X0178534Y0046832D01*
X0178483Y0046905D01*
X0178436Y0046981D01*
X0178393Y0047058D01*
X0178352Y0047138D01*
X0178316Y0047219D01*
X0178283Y0047302D01*
X0178254Y0047386D01*
X0178228Y0047472D01*
X0178206Y0047558D01*
X0178189Y0047645D01*
X0178175Y0047733D01*
X0178165Y0047822D01*
X0178159Y0047911D01*
X0178157Y0048000D01*
X0158457Y0048000D02*
X0158459Y0048089D01*
X0158465Y0048178D01*
X0158475Y0048267D01*
X0158489Y0048355D01*
X0158506Y0048442D01*
X0158528Y0048528D01*
X0158554Y0048614D01*
X0158583Y0048698D01*
X0158616Y0048781D01*
X0158652Y0048862D01*
X0158693Y0048942D01*
X0158736Y0049019D01*
X0158783Y0049095D01*
X0158834Y0049168D01*
X0158887Y0049239D01*
X0158944Y0049308D01*
X0159004Y0049374D01*
X0159067Y0049438D01*
X0159132Y0049498D01*
X0159200Y0049556D01*
X0159271Y0049610D01*
X0159344Y0049661D01*
X0159419Y0049709D01*
X0159496Y0049754D01*
X0159575Y0049795D01*
X0159656Y0049832D01*
X0159738Y0049866D01*
X0159822Y0049897D01*
X0159907Y0049923D01*
X0159993Y0049946D01*
X0160080Y0049964D01*
X0160168Y0049979D01*
X0160257Y0049990D01*
X0160346Y0049997D01*
X0160435Y0050000D01*
X0160524Y0049999D01*
X0160613Y0049994D01*
X0160701Y0049985D01*
X0160790Y0049972D01*
X0160877Y0049955D01*
X0160964Y0049935D01*
X0161050Y0049910D01*
X0161134Y0049882D01*
X0161217Y0049850D01*
X0161299Y0049814D01*
X0161379Y0049775D01*
X0161457Y0049732D01*
X0161533Y0049686D01*
X0161607Y0049636D01*
X0161679Y0049583D01*
X0161748Y0049527D01*
X0161815Y0049468D01*
X0161879Y0049406D01*
X0161940Y0049342D01*
X0161999Y0049274D01*
X0162054Y0049204D01*
X0162106Y0049132D01*
X0162155Y0049057D01*
X0162200Y0048981D01*
X0162242Y0048902D01*
X0162280Y0048822D01*
X0162315Y0048740D01*
X0162346Y0048656D01*
X0162374Y0048571D01*
X0162397Y0048485D01*
X0162417Y0048398D01*
X0162433Y0048311D01*
X0162445Y0048222D01*
X0162453Y0048134D01*
X0162457Y0048045D01*
X0162457Y0047955D01*
X0162453Y0047866D01*
X0162445Y0047778D01*
X0162433Y0047689D01*
X0162417Y0047602D01*
X0162397Y0047515D01*
X0162374Y0047429D01*
X0162346Y0047344D01*
X0162315Y0047260D01*
X0162280Y0047178D01*
X0162242Y0047098D01*
X0162200Y0047019D01*
X0162155Y0046943D01*
X0162106Y0046868D01*
X0162054Y0046796D01*
X0161999Y0046726D01*
X0161940Y0046658D01*
X0161879Y0046594D01*
X0161815Y0046532D01*
X0161748Y0046473D01*
X0161679Y0046417D01*
X0161607Y0046364D01*
X0161533Y0046314D01*
X0161457Y0046268D01*
X0161379Y0046225D01*
X0161299Y0046186D01*
X0161217Y0046150D01*
X0161134Y0046118D01*
X0161050Y0046090D01*
X0160964Y0046065D01*
X0160877Y0046045D01*
X0160790Y0046028D01*
X0160701Y0046015D01*
X0160613Y0046006D01*
X0160524Y0046001D01*
X0160435Y0046000D01*
X0160346Y0046003D01*
X0160257Y0046010D01*
X0160168Y0046021D01*
X0160080Y0046036D01*
X0159993Y0046054D01*
X0159907Y0046077D01*
X0159822Y0046103D01*
X0159738Y0046134D01*
X0159656Y0046168D01*
X0159575Y0046205D01*
X0159496Y0046246D01*
X0159419Y0046291D01*
X0159344Y0046339D01*
X0159271Y0046390D01*
X0159200Y0046444D01*
X0159132Y0046502D01*
X0159067Y0046562D01*
X0159004Y0046626D01*
X0158944Y0046692D01*
X0158887Y0046761D01*
X0158834Y0046832D01*
X0158783Y0046905D01*
X0158736Y0046981D01*
X0158693Y0047058D01*
X0158652Y0047138D01*
X0158616Y0047219D01*
X0158583Y0047302D01*
X0158554Y0047386D01*
X0158528Y0047472D01*
X0158506Y0047558D01*
X0158489Y0047645D01*
X0158475Y0047733D01*
X0158465Y0047822D01*
X0158459Y0047911D01*
X0158457Y0048000D01*
X0150658Y0053202D02*
X0150658Y0027202D01*
X0156957Y0027202D01*
X0150658Y0027202D02*
X0150658Y0017800D01*
X0189957Y0017800D01*
X0189957Y0027202D01*
X0183658Y0027202D01*
X0176658Y0027202D02*
X0163957Y0027202D01*
X0149957Y0027202D02*
X0149957Y0053202D01*
X0110658Y0053202D01*
X0110658Y0054001D01*
X0149957Y0054001D01*
X0149957Y0053202D01*
X0138157Y0048000D02*
X0138159Y0048089D01*
X0138165Y0048178D01*
X0138175Y0048267D01*
X0138189Y0048355D01*
X0138206Y0048442D01*
X0138228Y0048528D01*
X0138254Y0048614D01*
X0138283Y0048698D01*
X0138316Y0048781D01*
X0138352Y0048862D01*
X0138393Y0048942D01*
X0138436Y0049019D01*
X0138483Y0049095D01*
X0138534Y0049168D01*
X0138587Y0049239D01*
X0138644Y0049308D01*
X0138704Y0049374D01*
X0138767Y0049438D01*
X0138832Y0049498D01*
X0138900Y0049556D01*
X0138971Y0049610D01*
X0139044Y0049661D01*
X0139119Y0049709D01*
X0139196Y0049754D01*
X0139275Y0049795D01*
X0139356Y0049832D01*
X0139438Y0049866D01*
X0139522Y0049897D01*
X0139607Y0049923D01*
X0139693Y0049946D01*
X0139780Y0049964D01*
X0139868Y0049979D01*
X0139957Y0049990D01*
X0140046Y0049997D01*
X0140135Y0050000D01*
X0140224Y0049999D01*
X0140313Y0049994D01*
X0140401Y0049985D01*
X0140490Y0049972D01*
X0140577Y0049955D01*
X0140664Y0049935D01*
X0140750Y0049910D01*
X0140834Y0049882D01*
X0140917Y0049850D01*
X0140999Y0049814D01*
X0141079Y0049775D01*
X0141157Y0049732D01*
X0141233Y0049686D01*
X0141307Y0049636D01*
X0141379Y0049583D01*
X0141448Y0049527D01*
X0141515Y0049468D01*
X0141579Y0049406D01*
X0141640Y0049342D01*
X0141699Y0049274D01*
X0141754Y0049204D01*
X0141806Y0049132D01*
X0141855Y0049057D01*
X0141900Y0048981D01*
X0141942Y0048902D01*
X0141980Y0048822D01*
X0142015Y0048740D01*
X0142046Y0048656D01*
X0142074Y0048571D01*
X0142097Y0048485D01*
X0142117Y0048398D01*
X0142133Y0048311D01*
X0142145Y0048222D01*
X0142153Y0048134D01*
X0142157Y0048045D01*
X0142157Y0047955D01*
X0142153Y0047866D01*
X0142145Y0047778D01*
X0142133Y0047689D01*
X0142117Y0047602D01*
X0142097Y0047515D01*
X0142074Y0047429D01*
X0142046Y0047344D01*
X0142015Y0047260D01*
X0141980Y0047178D01*
X0141942Y0047098D01*
X0141900Y0047019D01*
X0141855Y0046943D01*
X0141806Y0046868D01*
X0141754Y0046796D01*
X0141699Y0046726D01*
X0141640Y0046658D01*
X0141579Y0046594D01*
X0141515Y0046532D01*
X0141448Y0046473D01*
X0141379Y0046417D01*
X0141307Y0046364D01*
X0141233Y0046314D01*
X0141157Y0046268D01*
X0141079Y0046225D01*
X0140999Y0046186D01*
X0140917Y0046150D01*
X0140834Y0046118D01*
X0140750Y0046090D01*
X0140664Y0046065D01*
X0140577Y0046045D01*
X0140490Y0046028D01*
X0140401Y0046015D01*
X0140313Y0046006D01*
X0140224Y0046001D01*
X0140135Y0046000D01*
X0140046Y0046003D01*
X0139957Y0046010D01*
X0139868Y0046021D01*
X0139780Y0046036D01*
X0139693Y0046054D01*
X0139607Y0046077D01*
X0139522Y0046103D01*
X0139438Y0046134D01*
X0139356Y0046168D01*
X0139275Y0046205D01*
X0139196Y0046246D01*
X0139119Y0046291D01*
X0139044Y0046339D01*
X0138971Y0046390D01*
X0138900Y0046444D01*
X0138832Y0046502D01*
X0138767Y0046562D01*
X0138704Y0046626D01*
X0138644Y0046692D01*
X0138587Y0046761D01*
X0138534Y0046832D01*
X0138483Y0046905D01*
X0138436Y0046981D01*
X0138393Y0047058D01*
X0138352Y0047138D01*
X0138316Y0047219D01*
X0138283Y0047302D01*
X0138254Y0047386D01*
X0138228Y0047472D01*
X0138206Y0047558D01*
X0138189Y0047645D01*
X0138175Y0047733D01*
X0138165Y0047822D01*
X0138159Y0047911D01*
X0138157Y0048000D01*
X0118457Y0048000D02*
X0118459Y0048089D01*
X0118465Y0048178D01*
X0118475Y0048267D01*
X0118489Y0048355D01*
X0118506Y0048442D01*
X0118528Y0048528D01*
X0118554Y0048614D01*
X0118583Y0048698D01*
X0118616Y0048781D01*
X0118652Y0048862D01*
X0118693Y0048942D01*
X0118736Y0049019D01*
X0118783Y0049095D01*
X0118834Y0049168D01*
X0118887Y0049239D01*
X0118944Y0049308D01*
X0119004Y0049374D01*
X0119067Y0049438D01*
X0119132Y0049498D01*
X0119200Y0049556D01*
X0119271Y0049610D01*
X0119344Y0049661D01*
X0119419Y0049709D01*
X0119496Y0049754D01*
X0119575Y0049795D01*
X0119656Y0049832D01*
X0119738Y0049866D01*
X0119822Y0049897D01*
X0119907Y0049923D01*
X0119993Y0049946D01*
X0120080Y0049964D01*
X0120168Y0049979D01*
X0120257Y0049990D01*
X0120346Y0049997D01*
X0120435Y0050000D01*
X0120524Y0049999D01*
X0120613Y0049994D01*
X0120701Y0049985D01*
X0120790Y0049972D01*
X0120877Y0049955D01*
X0120964Y0049935D01*
X0121050Y0049910D01*
X0121134Y0049882D01*
X0121217Y0049850D01*
X0121299Y0049814D01*
X0121379Y0049775D01*
X0121457Y0049732D01*
X0121533Y0049686D01*
X0121607Y0049636D01*
X0121679Y0049583D01*
X0121748Y0049527D01*
X0121815Y0049468D01*
X0121879Y0049406D01*
X0121940Y0049342D01*
X0121999Y0049274D01*
X0122054Y0049204D01*
X0122106Y0049132D01*
X0122155Y0049057D01*
X0122200Y0048981D01*
X0122242Y0048902D01*
X0122280Y0048822D01*
X0122315Y0048740D01*
X0122346Y0048656D01*
X0122374Y0048571D01*
X0122397Y0048485D01*
X0122417Y0048398D01*
X0122433Y0048311D01*
X0122445Y0048222D01*
X0122453Y0048134D01*
X0122457Y0048045D01*
X0122457Y0047955D01*
X0122453Y0047866D01*
X0122445Y0047778D01*
X0122433Y0047689D01*
X0122417Y0047602D01*
X0122397Y0047515D01*
X0122374Y0047429D01*
X0122346Y0047344D01*
X0122315Y0047260D01*
X0122280Y0047178D01*
X0122242Y0047098D01*
X0122200Y0047019D01*
X0122155Y0046943D01*
X0122106Y0046868D01*
X0122054Y0046796D01*
X0121999Y0046726D01*
X0121940Y0046658D01*
X0121879Y0046594D01*
X0121815Y0046532D01*
X0121748Y0046473D01*
X0121679Y0046417D01*
X0121607Y0046364D01*
X0121533Y0046314D01*
X0121457Y0046268D01*
X0121379Y0046225D01*
X0121299Y0046186D01*
X0121217Y0046150D01*
X0121134Y0046118D01*
X0121050Y0046090D01*
X0120964Y0046065D01*
X0120877Y0046045D01*
X0120790Y0046028D01*
X0120701Y0046015D01*
X0120613Y0046006D01*
X0120524Y0046001D01*
X0120435Y0046000D01*
X0120346Y0046003D01*
X0120257Y0046010D01*
X0120168Y0046021D01*
X0120080Y0046036D01*
X0119993Y0046054D01*
X0119907Y0046077D01*
X0119822Y0046103D01*
X0119738Y0046134D01*
X0119656Y0046168D01*
X0119575Y0046205D01*
X0119496Y0046246D01*
X0119419Y0046291D01*
X0119344Y0046339D01*
X0119271Y0046390D01*
X0119200Y0046444D01*
X0119132Y0046502D01*
X0119067Y0046562D01*
X0119004Y0046626D01*
X0118944Y0046692D01*
X0118887Y0046761D01*
X0118834Y0046832D01*
X0118783Y0046905D01*
X0118736Y0046981D01*
X0118693Y0047058D01*
X0118652Y0047138D01*
X0118616Y0047219D01*
X0118583Y0047302D01*
X0118554Y0047386D01*
X0118528Y0047472D01*
X0118506Y0047558D01*
X0118489Y0047645D01*
X0118475Y0047733D01*
X0118465Y0047822D01*
X0118459Y0047911D01*
X0118457Y0048000D01*
X0110658Y0053202D02*
X0110658Y0027202D01*
X0116957Y0027202D01*
X0110658Y0027202D02*
X0110658Y0017800D01*
X0149957Y0017800D01*
X0149957Y0027202D01*
X0143658Y0027202D01*
X0136658Y0027202D02*
X0123957Y0027202D01*
X0109957Y0027202D02*
X0109957Y0053202D01*
X0070658Y0053202D01*
X0070658Y0054001D01*
X0109957Y0054001D01*
X0109957Y0053202D01*
X0098157Y0048000D02*
X0098159Y0048089D01*
X0098165Y0048178D01*
X0098175Y0048267D01*
X0098189Y0048355D01*
X0098206Y0048442D01*
X0098228Y0048528D01*
X0098254Y0048614D01*
X0098283Y0048698D01*
X0098316Y0048781D01*
X0098352Y0048862D01*
X0098393Y0048942D01*
X0098436Y0049019D01*
X0098483Y0049095D01*
X0098534Y0049168D01*
X0098587Y0049239D01*
X0098644Y0049308D01*
X0098704Y0049374D01*
X0098767Y0049438D01*
X0098832Y0049498D01*
X0098900Y0049556D01*
X0098971Y0049610D01*
X0099044Y0049661D01*
X0099119Y0049709D01*
X0099196Y0049754D01*
X0099275Y0049795D01*
X0099356Y0049832D01*
X0099438Y0049866D01*
X0099522Y0049897D01*
X0099607Y0049923D01*
X0099693Y0049946D01*
X0099780Y0049964D01*
X0099868Y0049979D01*
X0099957Y0049990D01*
X0100046Y0049997D01*
X0100135Y0050000D01*
X0100224Y0049999D01*
X0100313Y0049994D01*
X0100401Y0049985D01*
X0100490Y0049972D01*
X0100577Y0049955D01*
X0100664Y0049935D01*
X0100750Y0049910D01*
X0100834Y0049882D01*
X0100917Y0049850D01*
X0100999Y0049814D01*
X0101079Y0049775D01*
X0101157Y0049732D01*
X0101233Y0049686D01*
X0101307Y0049636D01*
X0101379Y0049583D01*
X0101448Y0049527D01*
X0101515Y0049468D01*
X0101579Y0049406D01*
X0101640Y0049342D01*
X0101699Y0049274D01*
X0101754Y0049204D01*
X0101806Y0049132D01*
X0101855Y0049057D01*
X0101900Y0048981D01*
X0101942Y0048902D01*
X0101980Y0048822D01*
X0102015Y0048740D01*
X0102046Y0048656D01*
X0102074Y0048571D01*
X0102097Y0048485D01*
X0102117Y0048398D01*
X0102133Y0048311D01*
X0102145Y0048222D01*
X0102153Y0048134D01*
X0102157Y0048045D01*
X0102157Y0047955D01*
X0102153Y0047866D01*
X0102145Y0047778D01*
X0102133Y0047689D01*
X0102117Y0047602D01*
X0102097Y0047515D01*
X0102074Y0047429D01*
X0102046Y0047344D01*
X0102015Y0047260D01*
X0101980Y0047178D01*
X0101942Y0047098D01*
X0101900Y0047019D01*
X0101855Y0046943D01*
X0101806Y0046868D01*
X0101754Y0046796D01*
X0101699Y0046726D01*
X0101640Y0046658D01*
X0101579Y0046594D01*
X0101515Y0046532D01*
X0101448Y0046473D01*
X0101379Y0046417D01*
X0101307Y0046364D01*
X0101233Y0046314D01*
X0101157Y0046268D01*
X0101079Y0046225D01*
X0100999Y0046186D01*
X0100917Y0046150D01*
X0100834Y0046118D01*
X0100750Y0046090D01*
X0100664Y0046065D01*
X0100577Y0046045D01*
X0100490Y0046028D01*
X0100401Y0046015D01*
X0100313Y0046006D01*
X0100224Y0046001D01*
X0100135Y0046000D01*
X0100046Y0046003D01*
X0099957Y0046010D01*
X0099868Y0046021D01*
X0099780Y0046036D01*
X0099693Y0046054D01*
X0099607Y0046077D01*
X0099522Y0046103D01*
X0099438Y0046134D01*
X0099356Y0046168D01*
X0099275Y0046205D01*
X0099196Y0046246D01*
X0099119Y0046291D01*
X0099044Y0046339D01*
X0098971Y0046390D01*
X0098900Y0046444D01*
X0098832Y0046502D01*
X0098767Y0046562D01*
X0098704Y0046626D01*
X0098644Y0046692D01*
X0098587Y0046761D01*
X0098534Y0046832D01*
X0098483Y0046905D01*
X0098436Y0046981D01*
X0098393Y0047058D01*
X0098352Y0047138D01*
X0098316Y0047219D01*
X0098283Y0047302D01*
X0098254Y0047386D01*
X0098228Y0047472D01*
X0098206Y0047558D01*
X0098189Y0047645D01*
X0098175Y0047733D01*
X0098165Y0047822D01*
X0098159Y0047911D01*
X0098157Y0048000D01*
X0078457Y0048000D02*
X0078459Y0048089D01*
X0078465Y0048178D01*
X0078475Y0048267D01*
X0078489Y0048355D01*
X0078506Y0048442D01*
X0078528Y0048528D01*
X0078554Y0048614D01*
X0078583Y0048698D01*
X0078616Y0048781D01*
X0078652Y0048862D01*
X0078693Y0048942D01*
X0078736Y0049019D01*
X0078783Y0049095D01*
X0078834Y0049168D01*
X0078887Y0049239D01*
X0078944Y0049308D01*
X0079004Y0049374D01*
X0079067Y0049438D01*
X0079132Y0049498D01*
X0079200Y0049556D01*
X0079271Y0049610D01*
X0079344Y0049661D01*
X0079419Y0049709D01*
X0079496Y0049754D01*
X0079575Y0049795D01*
X0079656Y0049832D01*
X0079738Y0049866D01*
X0079822Y0049897D01*
X0079907Y0049923D01*
X0079993Y0049946D01*
X0080080Y0049964D01*
X0080168Y0049979D01*
X0080257Y0049990D01*
X0080346Y0049997D01*
X0080435Y0050000D01*
X0080524Y0049999D01*
X0080613Y0049994D01*
X0080701Y0049985D01*
X0080790Y0049972D01*
X0080877Y0049955D01*
X0080964Y0049935D01*
X0081050Y0049910D01*
X0081134Y0049882D01*
X0081217Y0049850D01*
X0081299Y0049814D01*
X0081379Y0049775D01*
X0081457Y0049732D01*
X0081533Y0049686D01*
X0081607Y0049636D01*
X0081679Y0049583D01*
X0081748Y0049527D01*
X0081815Y0049468D01*
X0081879Y0049406D01*
X0081940Y0049342D01*
X0081999Y0049274D01*
X0082054Y0049204D01*
X0082106Y0049132D01*
X0082155Y0049057D01*
X0082200Y0048981D01*
X0082242Y0048902D01*
X0082280Y0048822D01*
X0082315Y0048740D01*
X0082346Y0048656D01*
X0082374Y0048571D01*
X0082397Y0048485D01*
X0082417Y0048398D01*
X0082433Y0048311D01*
X0082445Y0048222D01*
X0082453Y0048134D01*
X0082457Y0048045D01*
X0082457Y0047955D01*
X0082453Y0047866D01*
X0082445Y0047778D01*
X0082433Y0047689D01*
X0082417Y0047602D01*
X0082397Y0047515D01*
X0082374Y0047429D01*
X0082346Y0047344D01*
X0082315Y0047260D01*
X0082280Y0047178D01*
X0082242Y0047098D01*
X0082200Y0047019D01*
X0082155Y0046943D01*
X0082106Y0046868D01*
X0082054Y0046796D01*
X0081999Y0046726D01*
X0081940Y0046658D01*
X0081879Y0046594D01*
X0081815Y0046532D01*
X0081748Y0046473D01*
X0081679Y0046417D01*
X0081607Y0046364D01*
X0081533Y0046314D01*
X0081457Y0046268D01*
X0081379Y0046225D01*
X0081299Y0046186D01*
X0081217Y0046150D01*
X0081134Y0046118D01*
X0081050Y0046090D01*
X0080964Y0046065D01*
X0080877Y0046045D01*
X0080790Y0046028D01*
X0080701Y0046015D01*
X0080613Y0046006D01*
X0080524Y0046001D01*
X0080435Y0046000D01*
X0080346Y0046003D01*
X0080257Y0046010D01*
X0080168Y0046021D01*
X0080080Y0046036D01*
X0079993Y0046054D01*
X0079907Y0046077D01*
X0079822Y0046103D01*
X0079738Y0046134D01*
X0079656Y0046168D01*
X0079575Y0046205D01*
X0079496Y0046246D01*
X0079419Y0046291D01*
X0079344Y0046339D01*
X0079271Y0046390D01*
X0079200Y0046444D01*
X0079132Y0046502D01*
X0079067Y0046562D01*
X0079004Y0046626D01*
X0078944Y0046692D01*
X0078887Y0046761D01*
X0078834Y0046832D01*
X0078783Y0046905D01*
X0078736Y0046981D01*
X0078693Y0047058D01*
X0078652Y0047138D01*
X0078616Y0047219D01*
X0078583Y0047302D01*
X0078554Y0047386D01*
X0078528Y0047472D01*
X0078506Y0047558D01*
X0078489Y0047645D01*
X0078475Y0047733D01*
X0078465Y0047822D01*
X0078459Y0047911D01*
X0078457Y0048000D01*
X0070658Y0053202D02*
X0070658Y0027202D01*
X0076957Y0027202D01*
X0070658Y0027202D02*
X0070658Y0017800D01*
X0109957Y0017800D01*
X0109957Y0027202D01*
X0103658Y0027202D01*
X0096658Y0027202D02*
X0083957Y0027202D01*
X0069957Y0027202D02*
X0069957Y0053202D01*
X0030658Y0053202D01*
X0030658Y0054001D01*
X0069957Y0054001D01*
X0069957Y0053202D01*
X0058157Y0048000D02*
X0058159Y0048089D01*
X0058165Y0048178D01*
X0058175Y0048267D01*
X0058189Y0048355D01*
X0058206Y0048442D01*
X0058228Y0048528D01*
X0058254Y0048614D01*
X0058283Y0048698D01*
X0058316Y0048781D01*
X0058352Y0048862D01*
X0058393Y0048942D01*
X0058436Y0049019D01*
X0058483Y0049095D01*
X0058534Y0049168D01*
X0058587Y0049239D01*
X0058644Y0049308D01*
X0058704Y0049374D01*
X0058767Y0049438D01*
X0058832Y0049498D01*
X0058900Y0049556D01*
X0058971Y0049610D01*
X0059044Y0049661D01*
X0059119Y0049709D01*
X0059196Y0049754D01*
X0059275Y0049795D01*
X0059356Y0049832D01*
X0059438Y0049866D01*
X0059522Y0049897D01*
X0059607Y0049923D01*
X0059693Y0049946D01*
X0059780Y0049964D01*
X0059868Y0049979D01*
X0059957Y0049990D01*
X0060046Y0049997D01*
X0060135Y0050000D01*
X0060224Y0049999D01*
X0060313Y0049994D01*
X0060401Y0049985D01*
X0060490Y0049972D01*
X0060577Y0049955D01*
X0060664Y0049935D01*
X0060750Y0049910D01*
X0060834Y0049882D01*
X0060917Y0049850D01*
X0060999Y0049814D01*
X0061079Y0049775D01*
X0061157Y0049732D01*
X0061233Y0049686D01*
X0061307Y0049636D01*
X0061379Y0049583D01*
X0061448Y0049527D01*
X0061515Y0049468D01*
X0061579Y0049406D01*
X0061640Y0049342D01*
X0061699Y0049274D01*
X0061754Y0049204D01*
X0061806Y0049132D01*
X0061855Y0049057D01*
X0061900Y0048981D01*
X0061942Y0048902D01*
X0061980Y0048822D01*
X0062015Y0048740D01*
X0062046Y0048656D01*
X0062074Y0048571D01*
X0062097Y0048485D01*
X0062117Y0048398D01*
X0062133Y0048311D01*
X0062145Y0048222D01*
X0062153Y0048134D01*
X0062157Y0048045D01*
X0062157Y0047955D01*
X0062153Y0047866D01*
X0062145Y0047778D01*
X0062133Y0047689D01*
X0062117Y0047602D01*
X0062097Y0047515D01*
X0062074Y0047429D01*
X0062046Y0047344D01*
X0062015Y0047260D01*
X0061980Y0047178D01*
X0061942Y0047098D01*
X0061900Y0047019D01*
X0061855Y0046943D01*
X0061806Y0046868D01*
X0061754Y0046796D01*
X0061699Y0046726D01*
X0061640Y0046658D01*
X0061579Y0046594D01*
X0061515Y0046532D01*
X0061448Y0046473D01*
X0061379Y0046417D01*
X0061307Y0046364D01*
X0061233Y0046314D01*
X0061157Y0046268D01*
X0061079Y0046225D01*
X0060999Y0046186D01*
X0060917Y0046150D01*
X0060834Y0046118D01*
X0060750Y0046090D01*
X0060664Y0046065D01*
X0060577Y0046045D01*
X0060490Y0046028D01*
X0060401Y0046015D01*
X0060313Y0046006D01*
X0060224Y0046001D01*
X0060135Y0046000D01*
X0060046Y0046003D01*
X0059957Y0046010D01*
X0059868Y0046021D01*
X0059780Y0046036D01*
X0059693Y0046054D01*
X0059607Y0046077D01*
X0059522Y0046103D01*
X0059438Y0046134D01*
X0059356Y0046168D01*
X0059275Y0046205D01*
X0059196Y0046246D01*
X0059119Y0046291D01*
X0059044Y0046339D01*
X0058971Y0046390D01*
X0058900Y0046444D01*
X0058832Y0046502D01*
X0058767Y0046562D01*
X0058704Y0046626D01*
X0058644Y0046692D01*
X0058587Y0046761D01*
X0058534Y0046832D01*
X0058483Y0046905D01*
X0058436Y0046981D01*
X0058393Y0047058D01*
X0058352Y0047138D01*
X0058316Y0047219D01*
X0058283Y0047302D01*
X0058254Y0047386D01*
X0058228Y0047472D01*
X0058206Y0047558D01*
X0058189Y0047645D01*
X0058175Y0047733D01*
X0058165Y0047822D01*
X0058159Y0047911D01*
X0058157Y0048000D01*
X0038457Y0048000D02*
X0038459Y0048089D01*
X0038465Y0048178D01*
X0038475Y0048267D01*
X0038489Y0048355D01*
X0038506Y0048442D01*
X0038528Y0048528D01*
X0038554Y0048614D01*
X0038583Y0048698D01*
X0038616Y0048781D01*
X0038652Y0048862D01*
X0038693Y0048942D01*
X0038736Y0049019D01*
X0038783Y0049095D01*
X0038834Y0049168D01*
X0038887Y0049239D01*
X0038944Y0049308D01*
X0039004Y0049374D01*
X0039067Y0049438D01*
X0039132Y0049498D01*
X0039200Y0049556D01*
X0039271Y0049610D01*
X0039344Y0049661D01*
X0039419Y0049709D01*
X0039496Y0049754D01*
X0039575Y0049795D01*
X0039656Y0049832D01*
X0039738Y0049866D01*
X0039822Y0049897D01*
X0039907Y0049923D01*
X0039993Y0049946D01*
X0040080Y0049964D01*
X0040168Y0049979D01*
X0040257Y0049990D01*
X0040346Y0049997D01*
X0040435Y0050000D01*
X0040524Y0049999D01*
X0040613Y0049994D01*
X0040701Y0049985D01*
X0040790Y0049972D01*
X0040877Y0049955D01*
X0040964Y0049935D01*
X0041050Y0049910D01*
X0041134Y0049882D01*
X0041217Y0049850D01*
X0041299Y0049814D01*
X0041379Y0049775D01*
X0041457Y0049732D01*
X0041533Y0049686D01*
X0041607Y0049636D01*
X0041679Y0049583D01*
X0041748Y0049527D01*
X0041815Y0049468D01*
X0041879Y0049406D01*
X0041940Y0049342D01*
X0041999Y0049274D01*
X0042054Y0049204D01*
X0042106Y0049132D01*
X0042155Y0049057D01*
X0042200Y0048981D01*
X0042242Y0048902D01*
X0042280Y0048822D01*
X0042315Y0048740D01*
X0042346Y0048656D01*
X0042374Y0048571D01*
X0042397Y0048485D01*
X0042417Y0048398D01*
X0042433Y0048311D01*
X0042445Y0048222D01*
X0042453Y0048134D01*
X0042457Y0048045D01*
X0042457Y0047955D01*
X0042453Y0047866D01*
X0042445Y0047778D01*
X0042433Y0047689D01*
X0042417Y0047602D01*
X0042397Y0047515D01*
X0042374Y0047429D01*
X0042346Y0047344D01*
X0042315Y0047260D01*
X0042280Y0047178D01*
X0042242Y0047098D01*
X0042200Y0047019D01*
X0042155Y0046943D01*
X0042106Y0046868D01*
X0042054Y0046796D01*
X0041999Y0046726D01*
X0041940Y0046658D01*
X0041879Y0046594D01*
X0041815Y0046532D01*
X0041748Y0046473D01*
X0041679Y0046417D01*
X0041607Y0046364D01*
X0041533Y0046314D01*
X0041457Y0046268D01*
X0041379Y0046225D01*
X0041299Y0046186D01*
X0041217Y0046150D01*
X0041134Y0046118D01*
X0041050Y0046090D01*
X0040964Y0046065D01*
X0040877Y0046045D01*
X0040790Y0046028D01*
X0040701Y0046015D01*
X0040613Y0046006D01*
X0040524Y0046001D01*
X0040435Y0046000D01*
X0040346Y0046003D01*
X0040257Y0046010D01*
X0040168Y0046021D01*
X0040080Y0046036D01*
X0039993Y0046054D01*
X0039907Y0046077D01*
X0039822Y0046103D01*
X0039738Y0046134D01*
X0039656Y0046168D01*
X0039575Y0046205D01*
X0039496Y0046246D01*
X0039419Y0046291D01*
X0039344Y0046339D01*
X0039271Y0046390D01*
X0039200Y0046444D01*
X0039132Y0046502D01*
X0039067Y0046562D01*
X0039004Y0046626D01*
X0038944Y0046692D01*
X0038887Y0046761D01*
X0038834Y0046832D01*
X0038783Y0046905D01*
X0038736Y0046981D01*
X0038693Y0047058D01*
X0038652Y0047138D01*
X0038616Y0047219D01*
X0038583Y0047302D01*
X0038554Y0047386D01*
X0038528Y0047472D01*
X0038506Y0047558D01*
X0038489Y0047645D01*
X0038475Y0047733D01*
X0038465Y0047822D01*
X0038459Y0047911D01*
X0038457Y0048000D01*
X0030658Y0053202D02*
X0030658Y0027202D01*
X0036957Y0027202D01*
X0030658Y0027202D02*
X0030658Y0017800D01*
X0069957Y0017800D01*
X0069957Y0027202D01*
X0063658Y0027202D01*
X0056658Y0027202D02*
X0043957Y0027202D01*
X0041001Y0062202D02*
X0041001Y0076398D01*
X0059599Y0076398D02*
X0059599Y0062202D01*
X0081001Y0062202D02*
X0081001Y0076398D01*
X0099599Y0076398D02*
X0099599Y0062202D01*
X0121001Y0062202D02*
X0121001Y0076398D01*
X0139599Y0076398D02*
X0139599Y0062202D01*
X0161001Y0062202D02*
X0161001Y0076398D01*
X0179599Y0076398D02*
X0179599Y0062202D01*
X0201001Y0062202D02*
X0201001Y0076398D01*
X0219599Y0076398D02*
X0219599Y0062202D01*
X0241001Y0062202D02*
X0241001Y0076398D01*
X0259599Y0076398D02*
X0259599Y0062202D01*
X0281001Y0062202D02*
X0281001Y0076398D01*
X0299599Y0076398D02*
X0299599Y0062202D01*
X0321001Y0062202D02*
X0321001Y0076398D01*
X0339599Y0076398D02*
X0339599Y0062202D01*
X0336658Y0027202D02*
X0323957Y0027202D01*
X0316957Y0027202D02*
X0310658Y0027202D01*
X0309957Y0027202D02*
X0303658Y0027202D01*
X0296658Y0027202D02*
X0283957Y0027202D01*
X0276957Y0027202D02*
X0270658Y0027202D01*
X0305327Y0010303D02*
X0309598Y0010303D01*
X0313100Y0010303D02*
X0317370Y0010303D01*
X0315235Y0012438D02*
X0315235Y0008168D01*
X0325991Y0007100D02*
X0325991Y0011370D01*
X0328126Y0013505D01*
X0330261Y0011370D01*
X0330261Y0007100D01*
X0332436Y0007100D02*
X0336707Y0011370D01*
X0336707Y0012438D01*
X0335639Y0013505D01*
X0333504Y0013505D01*
X0332436Y0012438D01*
X0330261Y0010303D02*
X0325991Y0010303D01*
X0332436Y0007100D02*
X0336707Y0007100D01*
X0345327Y0010303D02*
X0349598Y0010303D01*
X0349957Y0027202D02*
X0343658Y0027202D01*
X0342800Y0119300D02*
X0337800Y0119300D01*
X0335300Y0121800D01*
X0332800Y0119300D01*
X0327800Y0119300D01*
X0325300Y0121800D01*
X0322800Y0119300D01*
X0317800Y0119300D01*
X0315300Y0121800D01*
X0312800Y0119300D01*
X0307800Y0119300D01*
X0305300Y0121800D01*
X0305300Y0136800D01*
X0307800Y0139300D01*
X0312800Y0139300D01*
X0315300Y0136800D01*
X0317800Y0139300D01*
X0322800Y0139300D01*
X0325300Y0136800D01*
X0327800Y0139300D01*
X0332800Y0139300D01*
X0335300Y0136800D01*
X0337800Y0139300D01*
X0342800Y0139300D01*
X0345300Y0136800D01*
X0345300Y0121800D01*
X0342800Y0119300D01*
X0310300Y0151800D02*
X0307800Y0149300D01*
X0302800Y0149300D01*
X0300300Y0151800D01*
X0300300Y0166800D01*
X0297800Y0169300D01*
X0292800Y0169300D01*
X0290300Y0166800D01*
X0287800Y0169300D01*
X0282800Y0169300D01*
X0280300Y0166800D01*
X0280300Y0151800D01*
X0282800Y0149300D01*
X0287800Y0149300D01*
X0290300Y0151800D01*
X0290300Y0166800D01*
X0300300Y0166800D02*
X0302800Y0169300D01*
X0307800Y0169300D01*
X0310300Y0166800D01*
X0310300Y0151800D01*
X0300300Y0151800D02*
X0297800Y0149300D01*
X0292800Y0149300D01*
X0290300Y0151800D01*
X0262500Y0149400D02*
X0262500Y0145500D01*
X0262500Y0143100D01*
X0262500Y0139200D01*
X0262500Y0143100D02*
X0262431Y0143102D01*
X0262363Y0143108D01*
X0262295Y0143118D01*
X0262228Y0143131D01*
X0262162Y0143149D01*
X0262097Y0143170D01*
X0262033Y0143195D01*
X0261971Y0143223D01*
X0261910Y0143255D01*
X0261851Y0143290D01*
X0261795Y0143329D01*
X0261740Y0143371D01*
X0261689Y0143416D01*
X0261639Y0143464D01*
X0261593Y0143514D01*
X0261550Y0143567D01*
X0261509Y0143623D01*
X0261472Y0143680D01*
X0261439Y0143740D01*
X0261408Y0143802D01*
X0261382Y0143865D01*
X0261359Y0143929D01*
X0261339Y0143995D01*
X0261324Y0144062D01*
X0261312Y0144129D01*
X0261304Y0144197D01*
X0261300Y0144266D01*
X0261300Y0144334D01*
X0261304Y0144403D01*
X0261312Y0144471D01*
X0261324Y0144538D01*
X0261339Y0144605D01*
X0261359Y0144671D01*
X0261382Y0144735D01*
X0261408Y0144798D01*
X0261439Y0144860D01*
X0261472Y0144920D01*
X0261509Y0144977D01*
X0261550Y0145033D01*
X0261593Y0145086D01*
X0261639Y0145136D01*
X0261689Y0145184D01*
X0261740Y0145229D01*
X0261795Y0145271D01*
X0261851Y0145310D01*
X0261910Y0145345D01*
X0261971Y0145377D01*
X0262033Y0145405D01*
X0262097Y0145430D01*
X0262162Y0145451D01*
X0262228Y0145469D01*
X0262295Y0145482D01*
X0262363Y0145492D01*
X0262431Y0145498D01*
X0262500Y0145500D01*
X0228100Y0149400D02*
X0228100Y0139200D01*
X0240400Y0129400D02*
X0240400Y0125500D01*
X0250438Y0168119D02*
X0250438Y0170481D01*
X0255162Y0170481D02*
X0255162Y0168119D01*
X0272938Y0168119D02*
X0272938Y0170481D01*
X0277662Y0170481D02*
X0277662Y0168119D01*
X0300300Y0171800D02*
X0310300Y0171800D01*
X0037501Y0153942D02*
X0037501Y0114643D01*
X0036702Y0114643D01*
X0010702Y0114643D01*
X0001300Y0114643D01*
X0001300Y0153942D01*
X0010702Y0153942D01*
X0036702Y0153942D01*
X0037501Y0153942D01*
X0036702Y0153942D02*
X0036702Y0114643D01*
X0029500Y0124443D02*
X0029502Y0124532D01*
X0029508Y0124621D01*
X0029518Y0124710D01*
X0029532Y0124798D01*
X0029549Y0124885D01*
X0029571Y0124971D01*
X0029597Y0125057D01*
X0029626Y0125141D01*
X0029659Y0125224D01*
X0029695Y0125305D01*
X0029736Y0125385D01*
X0029779Y0125462D01*
X0029826Y0125538D01*
X0029877Y0125611D01*
X0029930Y0125682D01*
X0029987Y0125751D01*
X0030047Y0125817D01*
X0030110Y0125881D01*
X0030175Y0125941D01*
X0030243Y0125999D01*
X0030314Y0126053D01*
X0030387Y0126104D01*
X0030462Y0126152D01*
X0030539Y0126197D01*
X0030618Y0126238D01*
X0030699Y0126275D01*
X0030781Y0126309D01*
X0030865Y0126340D01*
X0030950Y0126366D01*
X0031036Y0126389D01*
X0031123Y0126407D01*
X0031211Y0126422D01*
X0031300Y0126433D01*
X0031389Y0126440D01*
X0031478Y0126443D01*
X0031567Y0126442D01*
X0031656Y0126437D01*
X0031744Y0126428D01*
X0031833Y0126415D01*
X0031920Y0126398D01*
X0032007Y0126378D01*
X0032093Y0126353D01*
X0032177Y0126325D01*
X0032260Y0126293D01*
X0032342Y0126257D01*
X0032422Y0126218D01*
X0032500Y0126175D01*
X0032576Y0126129D01*
X0032650Y0126079D01*
X0032722Y0126026D01*
X0032791Y0125970D01*
X0032858Y0125911D01*
X0032922Y0125849D01*
X0032983Y0125785D01*
X0033042Y0125717D01*
X0033097Y0125647D01*
X0033149Y0125575D01*
X0033198Y0125500D01*
X0033243Y0125424D01*
X0033285Y0125345D01*
X0033323Y0125265D01*
X0033358Y0125183D01*
X0033389Y0125099D01*
X0033417Y0125014D01*
X0033440Y0124928D01*
X0033460Y0124841D01*
X0033476Y0124754D01*
X0033488Y0124665D01*
X0033496Y0124577D01*
X0033500Y0124488D01*
X0033500Y0124398D01*
X0033496Y0124309D01*
X0033488Y0124221D01*
X0033476Y0124132D01*
X0033460Y0124045D01*
X0033440Y0123958D01*
X0033417Y0123872D01*
X0033389Y0123787D01*
X0033358Y0123703D01*
X0033323Y0123621D01*
X0033285Y0123541D01*
X0033243Y0123462D01*
X0033198Y0123386D01*
X0033149Y0123311D01*
X0033097Y0123239D01*
X0033042Y0123169D01*
X0032983Y0123101D01*
X0032922Y0123037D01*
X0032858Y0122975D01*
X0032791Y0122916D01*
X0032722Y0122860D01*
X0032650Y0122807D01*
X0032576Y0122757D01*
X0032500Y0122711D01*
X0032422Y0122668D01*
X0032342Y0122629D01*
X0032260Y0122593D01*
X0032177Y0122561D01*
X0032093Y0122533D01*
X0032007Y0122508D01*
X0031920Y0122488D01*
X0031833Y0122471D01*
X0031744Y0122458D01*
X0031656Y0122449D01*
X0031567Y0122444D01*
X0031478Y0122443D01*
X0031389Y0122446D01*
X0031300Y0122453D01*
X0031211Y0122464D01*
X0031123Y0122479D01*
X0031036Y0122497D01*
X0030950Y0122520D01*
X0030865Y0122546D01*
X0030781Y0122577D01*
X0030699Y0122611D01*
X0030618Y0122648D01*
X0030539Y0122689D01*
X0030462Y0122734D01*
X0030387Y0122782D01*
X0030314Y0122833D01*
X0030243Y0122887D01*
X0030175Y0122945D01*
X0030110Y0123005D01*
X0030047Y0123069D01*
X0029987Y0123135D01*
X0029930Y0123204D01*
X0029877Y0123275D01*
X0029826Y0123348D01*
X0029779Y0123424D01*
X0029736Y0123501D01*
X0029695Y0123581D01*
X0029659Y0123662D01*
X0029626Y0123745D01*
X0029597Y0123829D01*
X0029571Y0123915D01*
X0029549Y0124001D01*
X0029532Y0124088D01*
X0029518Y0124176D01*
X0029508Y0124265D01*
X0029502Y0124354D01*
X0029500Y0124443D01*
X0010702Y0127942D02*
X0010702Y0140643D01*
X0010702Y0147643D02*
X0010702Y0153942D01*
X0029500Y0144143D02*
X0029502Y0144232D01*
X0029508Y0144321D01*
X0029518Y0144410D01*
X0029532Y0144498D01*
X0029549Y0144585D01*
X0029571Y0144671D01*
X0029597Y0144757D01*
X0029626Y0144841D01*
X0029659Y0144924D01*
X0029695Y0145005D01*
X0029736Y0145085D01*
X0029779Y0145162D01*
X0029826Y0145238D01*
X0029877Y0145311D01*
X0029930Y0145382D01*
X0029987Y0145451D01*
X0030047Y0145517D01*
X0030110Y0145581D01*
X0030175Y0145641D01*
X0030243Y0145699D01*
X0030314Y0145753D01*
X0030387Y0145804D01*
X0030462Y0145852D01*
X0030539Y0145897D01*
X0030618Y0145938D01*
X0030699Y0145975D01*
X0030781Y0146009D01*
X0030865Y0146040D01*
X0030950Y0146066D01*
X0031036Y0146089D01*
X0031123Y0146107D01*
X0031211Y0146122D01*
X0031300Y0146133D01*
X0031389Y0146140D01*
X0031478Y0146143D01*
X0031567Y0146142D01*
X0031656Y0146137D01*
X0031744Y0146128D01*
X0031833Y0146115D01*
X0031920Y0146098D01*
X0032007Y0146078D01*
X0032093Y0146053D01*
X0032177Y0146025D01*
X0032260Y0145993D01*
X0032342Y0145957D01*
X0032422Y0145918D01*
X0032500Y0145875D01*
X0032576Y0145829D01*
X0032650Y0145779D01*
X0032722Y0145726D01*
X0032791Y0145670D01*
X0032858Y0145611D01*
X0032922Y0145549D01*
X0032983Y0145485D01*
X0033042Y0145417D01*
X0033097Y0145347D01*
X0033149Y0145275D01*
X0033198Y0145200D01*
X0033243Y0145124D01*
X0033285Y0145045D01*
X0033323Y0144965D01*
X0033358Y0144883D01*
X0033389Y0144799D01*
X0033417Y0144714D01*
X0033440Y0144628D01*
X0033460Y0144541D01*
X0033476Y0144454D01*
X0033488Y0144365D01*
X0033496Y0144277D01*
X0033500Y0144188D01*
X0033500Y0144098D01*
X0033496Y0144009D01*
X0033488Y0143921D01*
X0033476Y0143832D01*
X0033460Y0143745D01*
X0033440Y0143658D01*
X0033417Y0143572D01*
X0033389Y0143487D01*
X0033358Y0143403D01*
X0033323Y0143321D01*
X0033285Y0143241D01*
X0033243Y0143162D01*
X0033198Y0143086D01*
X0033149Y0143011D01*
X0033097Y0142939D01*
X0033042Y0142869D01*
X0032983Y0142801D01*
X0032922Y0142737D01*
X0032858Y0142675D01*
X0032791Y0142616D01*
X0032722Y0142560D01*
X0032650Y0142507D01*
X0032576Y0142457D01*
X0032500Y0142411D01*
X0032422Y0142368D01*
X0032342Y0142329D01*
X0032260Y0142293D01*
X0032177Y0142261D01*
X0032093Y0142233D01*
X0032007Y0142208D01*
X0031920Y0142188D01*
X0031833Y0142171D01*
X0031744Y0142158D01*
X0031656Y0142149D01*
X0031567Y0142144D01*
X0031478Y0142143D01*
X0031389Y0142146D01*
X0031300Y0142153D01*
X0031211Y0142164D01*
X0031123Y0142179D01*
X0031036Y0142197D01*
X0030950Y0142220D01*
X0030865Y0142246D01*
X0030781Y0142277D01*
X0030699Y0142311D01*
X0030618Y0142348D01*
X0030539Y0142389D01*
X0030462Y0142434D01*
X0030387Y0142482D01*
X0030314Y0142533D01*
X0030243Y0142587D01*
X0030175Y0142645D01*
X0030110Y0142705D01*
X0030047Y0142769D01*
X0029987Y0142835D01*
X0029930Y0142904D01*
X0029877Y0142975D01*
X0029826Y0143048D01*
X0029779Y0143124D01*
X0029736Y0143201D01*
X0029695Y0143281D01*
X0029659Y0143362D01*
X0029626Y0143445D01*
X0029597Y0143529D01*
X0029571Y0143615D01*
X0029549Y0143701D01*
X0029532Y0143788D01*
X0029518Y0143876D01*
X0029508Y0143965D01*
X0029502Y0144054D01*
X0029500Y0144143D01*
X0010702Y0120942D02*
X0010702Y0114643D01*
D11*
X0034334Y0167350D02*
X0036303Y0167350D01*
X0037287Y0168334D01*
X0037287Y0173255D01*
X0039795Y0173255D02*
X0042748Y0173255D01*
X0043732Y0172271D01*
X0043732Y0170303D01*
X0042748Y0169318D01*
X0039795Y0169318D01*
X0039795Y0167350D02*
X0039795Y0173255D01*
X0033350Y0173255D02*
X0033350Y0168334D01*
X0034334Y0167350D01*
X0041764Y0169318D02*
X0043732Y0167350D01*
X0046241Y0168334D02*
X0047225Y0167350D01*
X0049194Y0167350D01*
X0050178Y0168334D01*
X0050178Y0172271D01*
X0049194Y0173255D01*
X0047225Y0173255D01*
X0046241Y0172271D01*
X0046241Y0168334D01*
X0052686Y0169318D02*
X0054655Y0167350D01*
X0056623Y0169318D01*
X0056623Y0173255D01*
X0052686Y0173255D02*
X0052686Y0169318D01*
X0065577Y0169318D02*
X0068530Y0169318D01*
X0069514Y0170303D01*
X0069514Y0172271D01*
X0068530Y0173255D01*
X0065577Y0173255D01*
X0065577Y0167350D01*
X0072023Y0168334D02*
X0073007Y0167350D01*
X0074976Y0167350D01*
X0075960Y0168334D01*
X0075960Y0170303D01*
X0074976Y0171287D01*
X0073007Y0171287D01*
X0072023Y0170303D01*
X0072023Y0168334D01*
X0078468Y0168334D02*
X0079453Y0167350D01*
X0080437Y0168334D01*
X0081421Y0167350D01*
X0082405Y0168334D01*
X0082405Y0171287D01*
X0084914Y0170303D02*
X0085898Y0171287D01*
X0087866Y0171287D01*
X0088851Y0170303D01*
X0088851Y0169318D01*
X0084914Y0169318D01*
X0084914Y0168334D02*
X0084914Y0170303D01*
X0084914Y0168334D02*
X0085898Y0167350D01*
X0087866Y0167350D01*
X0091359Y0167350D02*
X0091359Y0171287D01*
X0091359Y0169318D02*
X0093328Y0171287D01*
X0094312Y0171287D01*
X0103176Y0171287D02*
X0104160Y0170303D01*
X0106129Y0170303D01*
X0107113Y0169318D01*
X0107113Y0168334D01*
X0106129Y0167350D01*
X0104160Y0167350D01*
X0103176Y0168334D01*
X0103176Y0171287D02*
X0103176Y0172271D01*
X0104160Y0173255D01*
X0106129Y0173255D01*
X0107113Y0172271D01*
X0109622Y0170303D02*
X0110606Y0171287D01*
X0112574Y0171287D01*
X0113558Y0170303D01*
X0113558Y0169318D01*
X0109622Y0169318D01*
X0109622Y0168334D02*
X0109622Y0170303D01*
X0109622Y0168334D02*
X0110606Y0167350D01*
X0112574Y0167350D01*
X0116067Y0167350D02*
X0116067Y0171287D01*
X0119020Y0171287D01*
X0120004Y0170303D01*
X0120004Y0167350D01*
X0122513Y0167350D02*
X0125465Y0167350D01*
X0126449Y0168334D01*
X0125465Y0169318D01*
X0123497Y0169318D01*
X0122513Y0170303D01*
X0123497Y0171287D01*
X0126449Y0171287D01*
X0128958Y0171287D02*
X0129942Y0171287D01*
X0129942Y0167350D01*
X0128958Y0167350D02*
X0130927Y0167350D01*
X0133255Y0167350D02*
X0133255Y0171287D01*
X0136208Y0171287D01*
X0137192Y0170303D01*
X0137192Y0167350D01*
X0139701Y0168334D02*
X0140685Y0167350D01*
X0143637Y0167350D01*
X0143637Y0166366D02*
X0143637Y0171287D01*
X0140685Y0171287D01*
X0139701Y0170303D01*
X0139701Y0168334D01*
X0141669Y0165382D02*
X0142653Y0165382D01*
X0143637Y0166366D01*
X0152592Y0167350D02*
X0155544Y0167350D01*
X0156528Y0168334D01*
X0156528Y0169318D01*
X0155544Y0170303D01*
X0152592Y0170303D01*
X0152592Y0173255D02*
X0152592Y0167350D01*
X0155544Y0170303D02*
X0156528Y0171287D01*
X0156528Y0172271D01*
X0155544Y0173255D01*
X0152592Y0173255D01*
X0159037Y0170303D02*
X0159037Y0168334D01*
X0160021Y0167350D01*
X0161990Y0167350D01*
X0162974Y0168334D01*
X0162974Y0170303D01*
X0161990Y0171287D01*
X0160021Y0171287D01*
X0159037Y0170303D01*
X0165483Y0168334D02*
X0166467Y0169318D01*
X0169419Y0169318D01*
X0169419Y0170303D02*
X0169419Y0167350D01*
X0166467Y0167350D01*
X0165483Y0168334D01*
X0168435Y0171287D02*
X0169419Y0170303D01*
X0168435Y0171287D02*
X0166467Y0171287D01*
X0171928Y0171287D02*
X0171928Y0167350D01*
X0171928Y0169318D02*
X0173897Y0171287D01*
X0174881Y0171287D01*
X0177299Y0170303D02*
X0178284Y0171287D01*
X0181236Y0171287D01*
X0181236Y0173255D02*
X0181236Y0167350D01*
X0178284Y0167350D01*
X0177299Y0168334D01*
X0177299Y0170303D01*
X0190190Y0171287D02*
X0192159Y0167350D01*
X0194127Y0171287D01*
X0203081Y0171287D02*
X0205050Y0173255D01*
X0205050Y0167350D01*
X0207018Y0167350D02*
X0203081Y0167350D01*
X0209527Y0167350D02*
X0210511Y0167350D01*
X0210511Y0168334D01*
X0209527Y0168334D01*
X0209527Y0167350D01*
X0212750Y0168334D02*
X0216686Y0172271D01*
X0216686Y0168334D01*
X0215702Y0167350D01*
X0213734Y0167350D01*
X0212750Y0168334D01*
X0212750Y0172271D01*
X0213734Y0173255D01*
X0215702Y0173255D01*
X0216686Y0172271D01*
X0129942Y0173255D02*
X0129942Y0174239D01*
X0078468Y0171287D02*
X0078468Y0168334D01*
X0373345Y0137220D02*
X0379250Y0137220D01*
X0379250Y0136236D02*
X0379250Y0138204D01*
X0378266Y0140533D02*
X0376297Y0140533D01*
X0375313Y0141517D01*
X0375313Y0143486D01*
X0376297Y0144470D01*
X0377282Y0144470D01*
X0377282Y0140533D01*
X0378266Y0140533D02*
X0379250Y0141517D01*
X0379250Y0143486D01*
X0379250Y0146979D02*
X0375313Y0146979D01*
X0375313Y0148947D02*
X0375313Y0149931D01*
X0375313Y0148947D02*
X0377282Y0146979D01*
X0373345Y0137220D02*
X0373345Y0136236D01*
X0375313Y0133907D02*
X0375313Y0131939D01*
X0374329Y0132923D02*
X0378266Y0132923D01*
X0379250Y0133907D01*
X0378266Y0129430D02*
X0377282Y0128446D01*
X0377282Y0126478D01*
X0376297Y0125494D01*
X0375313Y0126478D01*
X0375313Y0129430D01*
X0378266Y0129430D02*
X0379250Y0128446D01*
X0379250Y0125494D01*
X0378266Y0122985D02*
X0376297Y0122985D01*
X0375313Y0122001D01*
X0375313Y0120032D01*
X0376297Y0119048D01*
X0378266Y0119048D01*
X0379250Y0120032D01*
X0379250Y0122001D01*
X0378266Y0122985D01*
X0379250Y0116539D02*
X0373345Y0116539D01*
X0376297Y0116539D02*
X0376297Y0112603D01*
X0373345Y0112603D02*
X0379250Y0112603D01*
X0378266Y0103648D02*
X0375313Y0103648D01*
X0378266Y0103648D02*
X0379250Y0102664D01*
X0378266Y0101680D01*
X0379250Y0100696D01*
X0378266Y0099712D01*
X0375313Y0099712D01*
X0376297Y0097203D02*
X0375313Y0096219D01*
X0375313Y0094250D01*
X0376297Y0093266D01*
X0378266Y0093266D01*
X0379250Y0094250D01*
X0379250Y0096219D01*
X0377282Y0097203D02*
X0377282Y0093266D01*
X0375313Y0090847D02*
X0375313Y0089863D01*
X0377282Y0087895D01*
X0379250Y0087895D02*
X0375313Y0087895D01*
X0375313Y0085386D02*
X0375313Y0082434D01*
X0376297Y0081449D01*
X0378266Y0081449D01*
X0379250Y0082434D01*
X0379250Y0085386D01*
X0373345Y0085386D01*
X0376297Y0078941D02*
X0375313Y0077956D01*
X0375313Y0075004D01*
X0379250Y0075004D01*
X0379250Y0072495D02*
X0375313Y0072495D01*
X0373345Y0070527D01*
X0375313Y0068558D01*
X0379250Y0068558D01*
X0376297Y0068558D02*
X0376297Y0072495D01*
X0376297Y0078941D02*
X0379250Y0078941D01*
X0377282Y0097203D02*
X0376297Y0097203D01*
D12*
X0359025Y0091202D02*
X0359025Y0089400D01*
X0358425Y0089400D02*
X0359626Y0089400D01*
X0358425Y0090601D02*
X0359025Y0091202D01*
X0357784Y0090901D02*
X0357484Y0091202D01*
X0356583Y0091202D01*
X0356583Y0089400D01*
X0357484Y0089400D01*
X0357784Y0089700D01*
X0357784Y0090901D01*
X0355943Y0091202D02*
X0354742Y0091202D01*
X0354742Y0089400D01*
X0355943Y0089400D01*
X0355342Y0090301D02*
X0354742Y0090301D01*
X0354101Y0089400D02*
X0352900Y0089400D01*
X0352900Y0091202D01*
X0355385Y0114400D02*
X0355385Y0117202D01*
X0356786Y0117202D01*
X0357253Y0116735D01*
X0357253Y0115801D01*
X0356786Y0115334D01*
X0355385Y0115334D01*
X0358147Y0115801D02*
X0360015Y0115801D01*
X0360015Y0116268D02*
X0360015Y0114400D01*
X0360909Y0114867D02*
X0362778Y0116735D01*
X0362778Y0114867D01*
X0362311Y0114400D01*
X0361376Y0114400D01*
X0360909Y0114867D01*
X0360909Y0116735D01*
X0361376Y0117202D01*
X0362311Y0117202D01*
X0362778Y0116735D01*
X0360015Y0116268D02*
X0359081Y0117202D01*
X0358147Y0116268D01*
X0358147Y0114400D01*
X0346204Y0114400D02*
X0344335Y0114400D01*
X0343441Y0114400D02*
X0343441Y0116268D01*
X0342507Y0117202D01*
X0341573Y0116268D01*
X0341573Y0114400D01*
X0341573Y0115801D02*
X0343441Y0115801D01*
X0344335Y0116268D02*
X0345269Y0117202D01*
X0345269Y0114400D01*
X0340679Y0115801D02*
X0340212Y0115334D01*
X0338811Y0115334D01*
X0338811Y0114400D02*
X0338811Y0117202D01*
X0340212Y0117202D01*
X0340679Y0116735D01*
X0340679Y0115801D01*
X0329629Y0116268D02*
X0327761Y0114400D01*
X0329629Y0114400D01*
X0329629Y0116268D02*
X0329629Y0116735D01*
X0329162Y0117202D01*
X0328228Y0117202D01*
X0327761Y0116735D01*
X0326867Y0116268D02*
X0326867Y0114400D01*
X0326867Y0115801D02*
X0324999Y0115801D01*
X0324999Y0116268D02*
X0325933Y0117202D01*
X0326867Y0116268D01*
X0324999Y0116268D02*
X0324999Y0114400D01*
X0323638Y0115334D02*
X0324105Y0115801D01*
X0324105Y0116735D01*
X0323638Y0117202D01*
X0322236Y0117202D01*
X0322236Y0114400D01*
X0322236Y0115334D02*
X0323638Y0115334D01*
X0313055Y0116735D02*
X0313055Y0117202D01*
X0313055Y0116735D02*
X0312121Y0115801D01*
X0312121Y0114400D01*
X0312121Y0115801D02*
X0311187Y0116735D01*
X0311187Y0117202D01*
X0310293Y0116735D02*
X0309826Y0117202D01*
X0308892Y0117202D01*
X0308425Y0116735D01*
X0308425Y0116268D01*
X0308892Y0115801D01*
X0309826Y0115801D01*
X0310293Y0115334D01*
X0310293Y0114867D01*
X0309826Y0114400D01*
X0308892Y0114400D01*
X0308425Y0114867D01*
X0307531Y0114867D02*
X0307064Y0114400D01*
X0305662Y0114400D01*
X0305662Y0117202D01*
X0307064Y0117202D01*
X0307531Y0116735D01*
X0307531Y0116268D01*
X0307064Y0115801D01*
X0305662Y0115801D01*
X0307064Y0115801D02*
X0307531Y0115334D01*
X0307531Y0114867D01*
X0304768Y0117202D02*
X0304301Y0116735D01*
X0303367Y0117669D01*
X0302900Y0117202D01*
X0308162Y0139400D02*
X0308162Y0142202D01*
X0309564Y0142202D01*
X0310031Y0141735D01*
X0310031Y0140801D01*
X0309564Y0140334D01*
X0308162Y0140334D01*
X0309096Y0140334D02*
X0310031Y0139400D01*
X0310925Y0139400D02*
X0312326Y0139400D01*
X0312793Y0139867D01*
X0312793Y0141735D01*
X0312326Y0142202D01*
X0310925Y0142202D01*
X0310925Y0139400D01*
X0307268Y0142202D02*
X0306801Y0141735D01*
X0305867Y0142669D01*
X0305400Y0142202D01*
X0319212Y0141735D02*
X0319212Y0139867D01*
X0319679Y0139400D01*
X0320613Y0139400D01*
X0321080Y0139867D01*
X0321974Y0140334D02*
X0322908Y0139400D01*
X0323842Y0140334D01*
X0323842Y0142202D01*
X0324736Y0141735D02*
X0324736Y0141268D01*
X0325204Y0140801D01*
X0326138Y0140801D01*
X0326605Y0140334D01*
X0326605Y0139867D01*
X0326138Y0139400D01*
X0325204Y0139400D01*
X0324736Y0139867D01*
X0324736Y0141735D02*
X0325204Y0142202D01*
X0326138Y0142202D01*
X0326605Y0141735D01*
X0327499Y0142202D02*
X0329367Y0142202D01*
X0328433Y0142202D02*
X0328433Y0139400D01*
X0333024Y0139400D02*
X0333024Y0142202D01*
X0334425Y0142202D01*
X0334892Y0141735D01*
X0334892Y0140801D01*
X0334425Y0140334D01*
X0333024Y0140334D01*
X0333958Y0140334D02*
X0334892Y0139400D01*
X0335786Y0139400D02*
X0337654Y0142202D01*
X0335786Y0142202D02*
X0337654Y0139400D01*
X0349598Y0142202D02*
X0351466Y0142202D01*
X0352360Y0142202D02*
X0354228Y0139400D01*
X0352360Y0139400D02*
X0354228Y0142202D01*
X0350532Y0142202D02*
X0350532Y0139400D01*
X0321974Y0140334D02*
X0321974Y0142202D01*
X0321080Y0141735D02*
X0320613Y0142202D01*
X0319679Y0142202D01*
X0319212Y0141735D01*
D13*
X0266070Y0154014D02*
X0262934Y0157150D01*
X0262934Y0155582D02*
X0266070Y0155582D01*
X0266070Y0157150D02*
X0262934Y0154014D01*
X0264502Y0154014D02*
X0264502Y0157150D01*
X0367681Y0106034D02*
X0367681Y0105417D01*
X0368916Y0104183D01*
X0368916Y0102968D02*
X0368916Y0100499D01*
X0369533Y0100499D02*
X0368298Y0100499D01*
X0367681Y0101117D01*
X0367681Y0102351D01*
X0368298Y0102968D01*
X0368916Y0102968D01*
X0370150Y0102351D02*
X0370150Y0101117D01*
X0369533Y0100499D01*
X0369533Y0099285D02*
X0367681Y0099285D01*
X0369533Y0099285D02*
X0370150Y0098668D01*
X0369533Y0098051D01*
X0370150Y0097433D01*
X0369533Y0096816D01*
X0367681Y0096816D01*
X0368298Y0095602D02*
X0367681Y0094985D01*
X0367681Y0093750D01*
X0368298Y0093133D01*
X0369533Y0093133D01*
X0370150Y0093750D01*
X0370150Y0094985D01*
X0369533Y0095602D01*
X0368298Y0095602D01*
X0368298Y0091919D02*
X0367064Y0091919D01*
X0366447Y0091302D01*
X0366447Y0089450D01*
X0370150Y0089450D01*
X0368916Y0089450D02*
X0368916Y0091302D01*
X0368298Y0091919D01*
X0362033Y0090684D02*
X0359564Y0090684D01*
X0360798Y0089450D02*
X0360798Y0091919D01*
X0367681Y0104183D02*
X0370150Y0104183D01*
D14*
X0308949Y0113801D02*
X0308198Y0113050D01*
X0306697Y0113050D01*
X0305946Y0113801D01*
X0305946Y0114551D01*
X0306697Y0115302D01*
X0308198Y0115302D01*
X0308949Y0114551D01*
X0308949Y0113801D01*
X0308198Y0115302D02*
X0308949Y0116053D01*
X0308949Y0116803D01*
X0308198Y0117554D01*
X0306697Y0117554D01*
X0305946Y0116803D01*
X0305946Y0116053D01*
X0306697Y0115302D01*
X0337946Y0141050D02*
X0340949Y0141050D01*
X0339447Y0141050D02*
X0339447Y0145554D01*
X0337946Y0144053D01*
X0318223Y0162050D02*
X0318223Y0166554D01*
X0320475Y0166554D01*
X0321226Y0165803D01*
X0321226Y0164302D01*
X0320475Y0163551D01*
X0318223Y0163551D01*
X0316622Y0163551D02*
X0316622Y0162801D01*
X0315871Y0162050D01*
X0314370Y0162050D01*
X0313619Y0162801D01*
X0314370Y0164302D02*
X0315871Y0164302D01*
X0316622Y0163551D01*
X0316622Y0165803D02*
X0315871Y0166554D01*
X0314370Y0166554D01*
X0313619Y0165803D01*
X0313619Y0165053D01*
X0314370Y0164302D01*
X0312051Y0166554D02*
X0310550Y0166554D01*
X0311301Y0166554D02*
X0311301Y0162050D01*
X0312051Y0162050D02*
X0310550Y0162050D01*
X0125536Y0159772D02*
X0125536Y0157213D01*
X0125536Y0159772D02*
X0105064Y0159772D01*
X0105064Y0157213D01*
X0030050Y0150791D02*
X0030050Y0147789D01*
X0030050Y0149290D02*
X0025546Y0149290D01*
X0027047Y0147789D01*
X0007850Y0147341D02*
X0007850Y0145839D01*
X0007099Y0145089D01*
X0005598Y0145839D02*
X0005598Y0148091D01*
X0004097Y0148091D02*
X0003346Y0147341D01*
X0003346Y0145839D01*
X0004097Y0145089D01*
X0004847Y0145089D01*
X0005598Y0145839D01*
X0007099Y0148091D02*
X0004097Y0148091D01*
X0007099Y0148091D02*
X0007850Y0147341D01*
X0007850Y0143487D02*
X0003346Y0140485D01*
X0003346Y0143487D02*
X0007850Y0140485D01*
X0025546Y0130541D02*
X0025546Y0129039D01*
X0026297Y0128289D01*
X0027047Y0131291D02*
X0030050Y0128289D01*
X0030050Y0131291D01*
X0027047Y0131291D02*
X0026297Y0131291D01*
X0025546Y0130541D01*
X0105064Y0118828D02*
X0105064Y0116269D01*
X0125536Y0116269D01*
X0125536Y0118828D01*
X0132958Y0046554D02*
X0132207Y0045803D01*
X0132958Y0046554D02*
X0134459Y0046554D01*
X0135210Y0045803D01*
X0135210Y0045053D01*
X0132207Y0042050D01*
X0135210Y0042050D01*
X0152707Y0042050D02*
X0155710Y0042050D01*
X0154209Y0042050D02*
X0154209Y0046554D01*
X0152707Y0045053D01*
X0172207Y0045803D02*
X0172958Y0046554D01*
X0174459Y0046554D01*
X0175210Y0045803D01*
X0175210Y0045053D01*
X0172207Y0042050D01*
X0175210Y0042050D01*
X0192707Y0042050D02*
X0195710Y0042050D01*
X0194209Y0042050D02*
X0194209Y0046554D01*
X0192707Y0045053D01*
X0212207Y0045803D02*
X0212958Y0046554D01*
X0214459Y0046554D01*
X0215210Y0045803D01*
X0215210Y0045053D01*
X0212207Y0042050D01*
X0215210Y0042050D01*
X0232707Y0042050D02*
X0235710Y0042050D01*
X0234209Y0042050D02*
X0234209Y0046554D01*
X0232707Y0045053D01*
X0252207Y0045803D02*
X0252958Y0046554D01*
X0254459Y0046554D01*
X0255210Y0045803D01*
X0255210Y0045053D01*
X0252207Y0042050D01*
X0255210Y0042050D01*
X0272707Y0042050D02*
X0275710Y0042050D01*
X0274209Y0042050D02*
X0274209Y0046554D01*
X0272707Y0045053D01*
X0292207Y0045803D02*
X0292958Y0046554D01*
X0294459Y0046554D01*
X0295210Y0045803D01*
X0295210Y0045053D01*
X0292207Y0042050D01*
X0295210Y0042050D01*
X0312707Y0042050D02*
X0315710Y0042050D01*
X0314209Y0042050D02*
X0314209Y0046554D01*
X0312707Y0045053D01*
X0332207Y0045803D02*
X0332958Y0046554D01*
X0334459Y0046554D01*
X0335210Y0045803D01*
X0335210Y0045053D01*
X0332207Y0042050D01*
X0335210Y0042050D01*
X0115710Y0042050D02*
X0112707Y0042050D01*
X0114209Y0042050D02*
X0114209Y0046554D01*
X0112707Y0045053D01*
X0095210Y0045053D02*
X0092207Y0042050D01*
X0095210Y0042050D01*
X0095210Y0045053D02*
X0095210Y0045803D01*
X0094459Y0046554D01*
X0092958Y0046554D01*
X0092207Y0045803D01*
X0075710Y0042050D02*
X0072707Y0042050D01*
X0074209Y0042050D02*
X0074209Y0046554D01*
X0072707Y0045053D01*
X0055210Y0045053D02*
X0052207Y0042050D01*
X0055210Y0042050D01*
X0055210Y0045053D02*
X0055210Y0045803D01*
X0054459Y0046554D01*
X0052958Y0046554D01*
X0052207Y0045803D01*
X0035710Y0042050D02*
X0032707Y0042050D01*
X0034209Y0042050D02*
X0034209Y0046554D01*
X0032707Y0045053D01*
D15*
X0010100Y0082157D02*
X0010100Y0083692D01*
X0010100Y0082925D02*
X0005496Y0082925D01*
X0005496Y0083692D02*
X0005496Y0082157D01*
X0006263Y0085227D02*
X0009333Y0085227D01*
X0010100Y0085994D01*
X0010100Y0087529D01*
X0009333Y0088296D01*
X0010100Y0089831D02*
X0010100Y0092900D01*
X0010100Y0091365D02*
X0005496Y0091365D01*
X0007031Y0089831D01*
X0006263Y0088296D02*
X0005496Y0087529D01*
X0005496Y0085994D01*
X0006263Y0085227D01*
X0087705Y0157531D02*
X0087705Y0160601D01*
X0089239Y0162135D01*
X0090774Y0160601D01*
X0090774Y0157531D01*
X0092309Y0157531D02*
X0094611Y0157531D01*
X0095378Y0158299D01*
X0095378Y0161368D01*
X0094611Y0162135D01*
X0092309Y0162135D01*
X0092309Y0157531D01*
X0096913Y0158299D02*
X0097680Y0157531D01*
X0099215Y0157531D01*
X0099982Y0158299D01*
X0101516Y0157531D02*
X0104586Y0157531D01*
X0103051Y0157531D02*
X0103051Y0162135D01*
X0101516Y0160601D01*
X0099982Y0161368D02*
X0099215Y0162135D01*
X0097680Y0162135D01*
X0096913Y0161368D01*
X0096913Y0158299D01*
X0090774Y0159833D02*
X0087705Y0159833D01*
D16*
X0038200Y0107057D02*
X0038202Y0083457D01*
X0012398Y0083457D01*
X0012400Y0107057D01*
X0038785Y0063100D02*
X0038787Y0063147D01*
X0038793Y0063194D01*
X0038803Y0063241D01*
X0038816Y0063286D01*
X0038834Y0063330D01*
X0038855Y0063372D01*
X0038879Y0063413D01*
X0038907Y0063451D01*
X0038938Y0063487D01*
X0038972Y0063520D01*
X0039008Y0063550D01*
X0039047Y0063577D01*
X0039088Y0063601D01*
X0039131Y0063621D01*
X0039175Y0063637D01*
X0039221Y0063650D01*
X0039267Y0063659D01*
X0039315Y0063664D01*
X0039362Y0063665D01*
X0039409Y0063662D01*
X0039456Y0063655D01*
X0039502Y0063644D01*
X0039547Y0063630D01*
X0039591Y0063611D01*
X0039632Y0063589D01*
X0039672Y0063564D01*
X0039710Y0063535D01*
X0039745Y0063504D01*
X0039778Y0063469D01*
X0039807Y0063432D01*
X0039833Y0063393D01*
X0039856Y0063351D01*
X0039875Y0063308D01*
X0039891Y0063263D01*
X0039903Y0063217D01*
X0039911Y0063171D01*
X0039915Y0063124D01*
X0039915Y0063076D01*
X0039911Y0063029D01*
X0039903Y0062983D01*
X0039891Y0062937D01*
X0039875Y0062892D01*
X0039856Y0062849D01*
X0039833Y0062807D01*
X0039807Y0062768D01*
X0039778Y0062731D01*
X0039745Y0062696D01*
X0039710Y0062665D01*
X0039672Y0062636D01*
X0039633Y0062611D01*
X0039591Y0062589D01*
X0039547Y0062570D01*
X0039502Y0062556D01*
X0039456Y0062545D01*
X0039409Y0062538D01*
X0039362Y0062535D01*
X0039315Y0062536D01*
X0039267Y0062541D01*
X0039221Y0062550D01*
X0039175Y0062563D01*
X0039131Y0062579D01*
X0039088Y0062599D01*
X0039047Y0062623D01*
X0039008Y0062650D01*
X0038972Y0062680D01*
X0038938Y0062713D01*
X0038907Y0062749D01*
X0038879Y0062787D01*
X0038855Y0062828D01*
X0038834Y0062870D01*
X0038816Y0062914D01*
X0038803Y0062959D01*
X0038793Y0063006D01*
X0038787Y0063053D01*
X0038785Y0063100D01*
X0078785Y0063100D02*
X0078787Y0063147D01*
X0078793Y0063194D01*
X0078803Y0063241D01*
X0078816Y0063286D01*
X0078834Y0063330D01*
X0078855Y0063372D01*
X0078879Y0063413D01*
X0078907Y0063451D01*
X0078938Y0063487D01*
X0078972Y0063520D01*
X0079008Y0063550D01*
X0079047Y0063577D01*
X0079088Y0063601D01*
X0079131Y0063621D01*
X0079175Y0063637D01*
X0079221Y0063650D01*
X0079267Y0063659D01*
X0079315Y0063664D01*
X0079362Y0063665D01*
X0079409Y0063662D01*
X0079456Y0063655D01*
X0079502Y0063644D01*
X0079547Y0063630D01*
X0079591Y0063611D01*
X0079632Y0063589D01*
X0079672Y0063564D01*
X0079710Y0063535D01*
X0079745Y0063504D01*
X0079778Y0063469D01*
X0079807Y0063432D01*
X0079833Y0063393D01*
X0079856Y0063351D01*
X0079875Y0063308D01*
X0079891Y0063263D01*
X0079903Y0063217D01*
X0079911Y0063171D01*
X0079915Y0063124D01*
X0079915Y0063076D01*
X0079911Y0063029D01*
X0079903Y0062983D01*
X0079891Y0062937D01*
X0079875Y0062892D01*
X0079856Y0062849D01*
X0079833Y0062807D01*
X0079807Y0062768D01*
X0079778Y0062731D01*
X0079745Y0062696D01*
X0079710Y0062665D01*
X0079672Y0062636D01*
X0079633Y0062611D01*
X0079591Y0062589D01*
X0079547Y0062570D01*
X0079502Y0062556D01*
X0079456Y0062545D01*
X0079409Y0062538D01*
X0079362Y0062535D01*
X0079315Y0062536D01*
X0079267Y0062541D01*
X0079221Y0062550D01*
X0079175Y0062563D01*
X0079131Y0062579D01*
X0079088Y0062599D01*
X0079047Y0062623D01*
X0079008Y0062650D01*
X0078972Y0062680D01*
X0078938Y0062713D01*
X0078907Y0062749D01*
X0078879Y0062787D01*
X0078855Y0062828D01*
X0078834Y0062870D01*
X0078816Y0062914D01*
X0078803Y0062959D01*
X0078793Y0063006D01*
X0078787Y0063053D01*
X0078785Y0063100D01*
X0118785Y0063100D02*
X0118787Y0063147D01*
X0118793Y0063194D01*
X0118803Y0063241D01*
X0118816Y0063286D01*
X0118834Y0063330D01*
X0118855Y0063372D01*
X0118879Y0063413D01*
X0118907Y0063451D01*
X0118938Y0063487D01*
X0118972Y0063520D01*
X0119008Y0063550D01*
X0119047Y0063577D01*
X0119088Y0063601D01*
X0119131Y0063621D01*
X0119175Y0063637D01*
X0119221Y0063650D01*
X0119267Y0063659D01*
X0119315Y0063664D01*
X0119362Y0063665D01*
X0119409Y0063662D01*
X0119456Y0063655D01*
X0119502Y0063644D01*
X0119547Y0063630D01*
X0119591Y0063611D01*
X0119632Y0063589D01*
X0119672Y0063564D01*
X0119710Y0063535D01*
X0119745Y0063504D01*
X0119778Y0063469D01*
X0119807Y0063432D01*
X0119833Y0063393D01*
X0119856Y0063351D01*
X0119875Y0063308D01*
X0119891Y0063263D01*
X0119903Y0063217D01*
X0119911Y0063171D01*
X0119915Y0063124D01*
X0119915Y0063076D01*
X0119911Y0063029D01*
X0119903Y0062983D01*
X0119891Y0062937D01*
X0119875Y0062892D01*
X0119856Y0062849D01*
X0119833Y0062807D01*
X0119807Y0062768D01*
X0119778Y0062731D01*
X0119745Y0062696D01*
X0119710Y0062665D01*
X0119672Y0062636D01*
X0119633Y0062611D01*
X0119591Y0062589D01*
X0119547Y0062570D01*
X0119502Y0062556D01*
X0119456Y0062545D01*
X0119409Y0062538D01*
X0119362Y0062535D01*
X0119315Y0062536D01*
X0119267Y0062541D01*
X0119221Y0062550D01*
X0119175Y0062563D01*
X0119131Y0062579D01*
X0119088Y0062599D01*
X0119047Y0062623D01*
X0119008Y0062650D01*
X0118972Y0062680D01*
X0118938Y0062713D01*
X0118907Y0062749D01*
X0118879Y0062787D01*
X0118855Y0062828D01*
X0118834Y0062870D01*
X0118816Y0062914D01*
X0118803Y0062959D01*
X0118793Y0063006D01*
X0118787Y0063053D01*
X0118785Y0063100D01*
X0158785Y0063100D02*
X0158787Y0063147D01*
X0158793Y0063194D01*
X0158803Y0063241D01*
X0158816Y0063286D01*
X0158834Y0063330D01*
X0158855Y0063372D01*
X0158879Y0063413D01*
X0158907Y0063451D01*
X0158938Y0063487D01*
X0158972Y0063520D01*
X0159008Y0063550D01*
X0159047Y0063577D01*
X0159088Y0063601D01*
X0159131Y0063621D01*
X0159175Y0063637D01*
X0159221Y0063650D01*
X0159267Y0063659D01*
X0159315Y0063664D01*
X0159362Y0063665D01*
X0159409Y0063662D01*
X0159456Y0063655D01*
X0159502Y0063644D01*
X0159547Y0063630D01*
X0159591Y0063611D01*
X0159632Y0063589D01*
X0159672Y0063564D01*
X0159710Y0063535D01*
X0159745Y0063504D01*
X0159778Y0063469D01*
X0159807Y0063432D01*
X0159833Y0063393D01*
X0159856Y0063351D01*
X0159875Y0063308D01*
X0159891Y0063263D01*
X0159903Y0063217D01*
X0159911Y0063171D01*
X0159915Y0063124D01*
X0159915Y0063076D01*
X0159911Y0063029D01*
X0159903Y0062983D01*
X0159891Y0062937D01*
X0159875Y0062892D01*
X0159856Y0062849D01*
X0159833Y0062807D01*
X0159807Y0062768D01*
X0159778Y0062731D01*
X0159745Y0062696D01*
X0159710Y0062665D01*
X0159672Y0062636D01*
X0159633Y0062611D01*
X0159591Y0062589D01*
X0159547Y0062570D01*
X0159502Y0062556D01*
X0159456Y0062545D01*
X0159409Y0062538D01*
X0159362Y0062535D01*
X0159315Y0062536D01*
X0159267Y0062541D01*
X0159221Y0062550D01*
X0159175Y0062563D01*
X0159131Y0062579D01*
X0159088Y0062599D01*
X0159047Y0062623D01*
X0159008Y0062650D01*
X0158972Y0062680D01*
X0158938Y0062713D01*
X0158907Y0062749D01*
X0158879Y0062787D01*
X0158855Y0062828D01*
X0158834Y0062870D01*
X0158816Y0062914D01*
X0158803Y0062959D01*
X0158793Y0063006D01*
X0158787Y0063053D01*
X0158785Y0063100D01*
X0198785Y0063100D02*
X0198787Y0063147D01*
X0198793Y0063194D01*
X0198803Y0063241D01*
X0198816Y0063286D01*
X0198834Y0063330D01*
X0198855Y0063372D01*
X0198879Y0063413D01*
X0198907Y0063451D01*
X0198938Y0063487D01*
X0198972Y0063520D01*
X0199008Y0063550D01*
X0199047Y0063577D01*
X0199088Y0063601D01*
X0199131Y0063621D01*
X0199175Y0063637D01*
X0199221Y0063650D01*
X0199267Y0063659D01*
X0199315Y0063664D01*
X0199362Y0063665D01*
X0199409Y0063662D01*
X0199456Y0063655D01*
X0199502Y0063644D01*
X0199547Y0063630D01*
X0199591Y0063611D01*
X0199632Y0063589D01*
X0199672Y0063564D01*
X0199710Y0063535D01*
X0199745Y0063504D01*
X0199778Y0063469D01*
X0199807Y0063432D01*
X0199833Y0063393D01*
X0199856Y0063351D01*
X0199875Y0063308D01*
X0199891Y0063263D01*
X0199903Y0063217D01*
X0199911Y0063171D01*
X0199915Y0063124D01*
X0199915Y0063076D01*
X0199911Y0063029D01*
X0199903Y0062983D01*
X0199891Y0062937D01*
X0199875Y0062892D01*
X0199856Y0062849D01*
X0199833Y0062807D01*
X0199807Y0062768D01*
X0199778Y0062731D01*
X0199745Y0062696D01*
X0199710Y0062665D01*
X0199672Y0062636D01*
X0199633Y0062611D01*
X0199591Y0062589D01*
X0199547Y0062570D01*
X0199502Y0062556D01*
X0199456Y0062545D01*
X0199409Y0062538D01*
X0199362Y0062535D01*
X0199315Y0062536D01*
X0199267Y0062541D01*
X0199221Y0062550D01*
X0199175Y0062563D01*
X0199131Y0062579D01*
X0199088Y0062599D01*
X0199047Y0062623D01*
X0199008Y0062650D01*
X0198972Y0062680D01*
X0198938Y0062713D01*
X0198907Y0062749D01*
X0198879Y0062787D01*
X0198855Y0062828D01*
X0198834Y0062870D01*
X0198816Y0062914D01*
X0198803Y0062959D01*
X0198793Y0063006D01*
X0198787Y0063053D01*
X0198785Y0063100D01*
X0238785Y0063100D02*
X0238787Y0063147D01*
X0238793Y0063194D01*
X0238803Y0063241D01*
X0238816Y0063286D01*
X0238834Y0063330D01*
X0238855Y0063372D01*
X0238879Y0063413D01*
X0238907Y0063451D01*
X0238938Y0063487D01*
X0238972Y0063520D01*
X0239008Y0063550D01*
X0239047Y0063577D01*
X0239088Y0063601D01*
X0239131Y0063621D01*
X0239175Y0063637D01*
X0239221Y0063650D01*
X0239267Y0063659D01*
X0239315Y0063664D01*
X0239362Y0063665D01*
X0239409Y0063662D01*
X0239456Y0063655D01*
X0239502Y0063644D01*
X0239547Y0063630D01*
X0239591Y0063611D01*
X0239632Y0063589D01*
X0239672Y0063564D01*
X0239710Y0063535D01*
X0239745Y0063504D01*
X0239778Y0063469D01*
X0239807Y0063432D01*
X0239833Y0063393D01*
X0239856Y0063351D01*
X0239875Y0063308D01*
X0239891Y0063263D01*
X0239903Y0063217D01*
X0239911Y0063171D01*
X0239915Y0063124D01*
X0239915Y0063076D01*
X0239911Y0063029D01*
X0239903Y0062983D01*
X0239891Y0062937D01*
X0239875Y0062892D01*
X0239856Y0062849D01*
X0239833Y0062807D01*
X0239807Y0062768D01*
X0239778Y0062731D01*
X0239745Y0062696D01*
X0239710Y0062665D01*
X0239672Y0062636D01*
X0239633Y0062611D01*
X0239591Y0062589D01*
X0239547Y0062570D01*
X0239502Y0062556D01*
X0239456Y0062545D01*
X0239409Y0062538D01*
X0239362Y0062535D01*
X0239315Y0062536D01*
X0239267Y0062541D01*
X0239221Y0062550D01*
X0239175Y0062563D01*
X0239131Y0062579D01*
X0239088Y0062599D01*
X0239047Y0062623D01*
X0239008Y0062650D01*
X0238972Y0062680D01*
X0238938Y0062713D01*
X0238907Y0062749D01*
X0238879Y0062787D01*
X0238855Y0062828D01*
X0238834Y0062870D01*
X0238816Y0062914D01*
X0238803Y0062959D01*
X0238793Y0063006D01*
X0238787Y0063053D01*
X0238785Y0063100D01*
X0278785Y0063100D02*
X0278787Y0063147D01*
X0278793Y0063194D01*
X0278803Y0063241D01*
X0278816Y0063286D01*
X0278834Y0063330D01*
X0278855Y0063372D01*
X0278879Y0063413D01*
X0278907Y0063451D01*
X0278938Y0063487D01*
X0278972Y0063520D01*
X0279008Y0063550D01*
X0279047Y0063577D01*
X0279088Y0063601D01*
X0279131Y0063621D01*
X0279175Y0063637D01*
X0279221Y0063650D01*
X0279267Y0063659D01*
X0279315Y0063664D01*
X0279362Y0063665D01*
X0279409Y0063662D01*
X0279456Y0063655D01*
X0279502Y0063644D01*
X0279547Y0063630D01*
X0279591Y0063611D01*
X0279632Y0063589D01*
X0279672Y0063564D01*
X0279710Y0063535D01*
X0279745Y0063504D01*
X0279778Y0063469D01*
X0279807Y0063432D01*
X0279833Y0063393D01*
X0279856Y0063351D01*
X0279875Y0063308D01*
X0279891Y0063263D01*
X0279903Y0063217D01*
X0279911Y0063171D01*
X0279915Y0063124D01*
X0279915Y0063076D01*
X0279911Y0063029D01*
X0279903Y0062983D01*
X0279891Y0062937D01*
X0279875Y0062892D01*
X0279856Y0062849D01*
X0279833Y0062807D01*
X0279807Y0062768D01*
X0279778Y0062731D01*
X0279745Y0062696D01*
X0279710Y0062665D01*
X0279672Y0062636D01*
X0279633Y0062611D01*
X0279591Y0062589D01*
X0279547Y0062570D01*
X0279502Y0062556D01*
X0279456Y0062545D01*
X0279409Y0062538D01*
X0279362Y0062535D01*
X0279315Y0062536D01*
X0279267Y0062541D01*
X0279221Y0062550D01*
X0279175Y0062563D01*
X0279131Y0062579D01*
X0279088Y0062599D01*
X0279047Y0062623D01*
X0279008Y0062650D01*
X0278972Y0062680D01*
X0278938Y0062713D01*
X0278907Y0062749D01*
X0278879Y0062787D01*
X0278855Y0062828D01*
X0278834Y0062870D01*
X0278816Y0062914D01*
X0278803Y0062959D01*
X0278793Y0063006D01*
X0278787Y0063053D01*
X0278785Y0063100D01*
X0318785Y0063100D02*
X0318787Y0063147D01*
X0318793Y0063194D01*
X0318803Y0063241D01*
X0318816Y0063286D01*
X0318834Y0063330D01*
X0318855Y0063372D01*
X0318879Y0063413D01*
X0318907Y0063451D01*
X0318938Y0063487D01*
X0318972Y0063520D01*
X0319008Y0063550D01*
X0319047Y0063577D01*
X0319088Y0063601D01*
X0319131Y0063621D01*
X0319175Y0063637D01*
X0319221Y0063650D01*
X0319267Y0063659D01*
X0319315Y0063664D01*
X0319362Y0063665D01*
X0319409Y0063662D01*
X0319456Y0063655D01*
X0319502Y0063644D01*
X0319547Y0063630D01*
X0319591Y0063611D01*
X0319632Y0063589D01*
X0319672Y0063564D01*
X0319710Y0063535D01*
X0319745Y0063504D01*
X0319778Y0063469D01*
X0319807Y0063432D01*
X0319833Y0063393D01*
X0319856Y0063351D01*
X0319875Y0063308D01*
X0319891Y0063263D01*
X0319903Y0063217D01*
X0319911Y0063171D01*
X0319915Y0063124D01*
X0319915Y0063076D01*
X0319911Y0063029D01*
X0319903Y0062983D01*
X0319891Y0062937D01*
X0319875Y0062892D01*
X0319856Y0062849D01*
X0319833Y0062807D01*
X0319807Y0062768D01*
X0319778Y0062731D01*
X0319745Y0062696D01*
X0319710Y0062665D01*
X0319672Y0062636D01*
X0319633Y0062611D01*
X0319591Y0062589D01*
X0319547Y0062570D01*
X0319502Y0062556D01*
X0319456Y0062545D01*
X0319409Y0062538D01*
X0319362Y0062535D01*
X0319315Y0062536D01*
X0319267Y0062541D01*
X0319221Y0062550D01*
X0319175Y0062563D01*
X0319131Y0062579D01*
X0319088Y0062599D01*
X0319047Y0062623D01*
X0319008Y0062650D01*
X0318972Y0062680D01*
X0318938Y0062713D01*
X0318907Y0062749D01*
X0318879Y0062787D01*
X0318855Y0062828D01*
X0318834Y0062870D01*
X0318816Y0062914D01*
X0318803Y0062959D01*
X0318793Y0063006D01*
X0318787Y0063053D01*
X0318785Y0063100D01*
D17*
X0325350Y0069600D02*
X0325600Y0069350D01*
X0326101Y0069350D01*
X0326351Y0069600D01*
X0326823Y0069600D02*
X0327073Y0069350D01*
X0327574Y0069350D01*
X0327824Y0069600D01*
X0327824Y0069850D01*
X0327574Y0070101D01*
X0327073Y0070101D01*
X0326823Y0070351D01*
X0326823Y0070601D01*
X0327073Y0070851D01*
X0327574Y0070851D01*
X0327824Y0070601D01*
X0328297Y0070851D02*
X0328297Y0069350D01*
X0329297Y0069350D01*
X0329770Y0069350D02*
X0329770Y0070851D01*
X0330771Y0069350D01*
X0330771Y0070851D01*
X0331243Y0070601D02*
X0331243Y0070351D01*
X0331493Y0070101D01*
X0331994Y0070101D01*
X0332244Y0069850D01*
X0332244Y0069600D01*
X0331994Y0069350D01*
X0331493Y0069350D01*
X0331243Y0069600D01*
X0331243Y0070601D02*
X0331493Y0070851D01*
X0331994Y0070851D01*
X0332244Y0070601D01*
X0332716Y0070851D02*
X0332716Y0069350D01*
X0333717Y0069350D01*
X0334190Y0069350D02*
X0334190Y0069600D01*
X0335190Y0070601D01*
X0335190Y0070851D01*
X0334190Y0070851D01*
X0333717Y0070851D02*
X0332716Y0070851D01*
X0332716Y0070101D02*
X0333217Y0070101D01*
X0329297Y0070851D02*
X0328297Y0070851D01*
X0328297Y0070101D02*
X0328797Y0070101D01*
X0326351Y0070601D02*
X0326101Y0070851D01*
X0325600Y0070851D01*
X0325350Y0070601D01*
X0325350Y0069600D01*
X0353403Y0082250D02*
X0353403Y0083751D01*
X0354154Y0083751D01*
X0354404Y0083501D01*
X0354404Y0083001D01*
X0354154Y0082750D01*
X0353403Y0082750D01*
X0353904Y0082750D02*
X0354404Y0082250D01*
X0354877Y0083001D02*
X0355878Y0083001D01*
X0355627Y0083751D02*
X0355627Y0082250D01*
X0354877Y0083001D02*
X0355627Y0083751D01*
X0336824Y0097600D02*
X0336574Y0097350D01*
X0336073Y0097350D01*
X0335823Y0097600D01*
X0335823Y0097850D01*
X0336073Y0098101D01*
X0336574Y0098101D01*
X0336824Y0097850D01*
X0336824Y0097600D01*
X0336574Y0098101D02*
X0336824Y0098351D01*
X0336824Y0098601D01*
X0336574Y0098851D01*
X0336073Y0098851D01*
X0335823Y0098601D01*
X0335823Y0098351D01*
X0336073Y0098101D01*
X0335351Y0098601D02*
X0335101Y0098851D01*
X0334600Y0098851D01*
X0334350Y0098601D01*
X0334350Y0097600D01*
X0334600Y0097350D01*
X0335101Y0097350D01*
X0335351Y0097600D01*
X0341930Y0102500D02*
X0342180Y0102250D01*
X0342681Y0102250D01*
X0342931Y0102500D01*
X0343403Y0102250D02*
X0344404Y0102250D01*
X0343904Y0102250D02*
X0343904Y0103751D01*
X0343403Y0103251D01*
X0342931Y0103501D02*
X0342681Y0103751D01*
X0342180Y0103751D01*
X0341930Y0103501D01*
X0341930Y0102500D01*
X0344877Y0102500D02*
X0344877Y0102750D01*
X0345127Y0103001D01*
X0345627Y0103001D01*
X0345878Y0102750D01*
X0345878Y0102500D01*
X0345627Y0102250D01*
X0345127Y0102250D01*
X0344877Y0102500D01*
X0345127Y0103001D02*
X0344877Y0103251D01*
X0344877Y0103501D01*
X0345127Y0103751D01*
X0345627Y0103751D01*
X0345878Y0103501D01*
X0345878Y0103251D01*
X0345627Y0103001D01*
X0296824Y0098851D02*
X0296824Y0098601D01*
X0295823Y0097600D01*
X0295823Y0097350D01*
X0295351Y0097600D02*
X0295101Y0097350D01*
X0294600Y0097350D01*
X0294350Y0097600D01*
X0294350Y0098601D01*
X0294600Y0098851D01*
X0295101Y0098851D01*
X0295351Y0098601D01*
X0295823Y0098851D02*
X0296824Y0098851D01*
X0256824Y0098851D02*
X0256324Y0098601D01*
X0255823Y0098101D01*
X0256574Y0098101D01*
X0256824Y0097850D01*
X0256824Y0097600D01*
X0256574Y0097350D01*
X0256073Y0097350D01*
X0255823Y0097600D01*
X0255823Y0098101D01*
X0255351Y0098601D02*
X0255101Y0098851D01*
X0254600Y0098851D01*
X0254350Y0098601D01*
X0254350Y0097600D01*
X0254600Y0097350D01*
X0255101Y0097350D01*
X0255351Y0097600D01*
X0216824Y0097600D02*
X0216574Y0097350D01*
X0216073Y0097350D01*
X0215823Y0097600D01*
X0215351Y0097600D02*
X0215101Y0097350D01*
X0214600Y0097350D01*
X0214350Y0097600D01*
X0214350Y0098601D01*
X0214600Y0098851D01*
X0215101Y0098851D01*
X0215351Y0098601D01*
X0215823Y0098851D02*
X0215823Y0098101D01*
X0216324Y0098351D01*
X0216574Y0098351D01*
X0216824Y0098101D01*
X0216824Y0097600D01*
X0216824Y0098851D02*
X0215823Y0098851D01*
X0176824Y0098101D02*
X0175823Y0098101D01*
X0176574Y0098851D01*
X0176574Y0097350D01*
X0175351Y0097600D02*
X0175101Y0097350D01*
X0174600Y0097350D01*
X0174350Y0097600D01*
X0174350Y0098601D01*
X0174600Y0098851D01*
X0175101Y0098851D01*
X0175351Y0098601D01*
X0136824Y0098601D02*
X0136824Y0098351D01*
X0136574Y0098101D01*
X0136824Y0097850D01*
X0136824Y0097600D01*
X0136574Y0097350D01*
X0136073Y0097350D01*
X0135823Y0097600D01*
X0135351Y0097600D02*
X0135101Y0097350D01*
X0134600Y0097350D01*
X0134350Y0097600D01*
X0134350Y0098601D01*
X0134600Y0098851D01*
X0135101Y0098851D01*
X0135351Y0098601D01*
X0135823Y0098601D02*
X0136073Y0098851D01*
X0136574Y0098851D01*
X0136824Y0098601D01*
X0136574Y0098101D02*
X0136324Y0098101D01*
X0096824Y0098351D02*
X0096824Y0098601D01*
X0096574Y0098851D01*
X0096073Y0098851D01*
X0095823Y0098601D01*
X0095351Y0098601D02*
X0095101Y0098851D01*
X0094600Y0098851D01*
X0094350Y0098601D01*
X0094350Y0097600D01*
X0094600Y0097350D01*
X0095101Y0097350D01*
X0095351Y0097600D01*
X0095823Y0097350D02*
X0096824Y0098351D01*
X0096824Y0097350D02*
X0095823Y0097350D01*
X0088378Y0114750D02*
X0087377Y0114750D01*
X0088378Y0115751D01*
X0088378Y0116001D01*
X0088127Y0116251D01*
X0087627Y0116251D01*
X0087377Y0116001D01*
X0086904Y0116001D02*
X0086904Y0115501D01*
X0086654Y0115250D01*
X0085903Y0115250D01*
X0085903Y0114750D02*
X0085903Y0116251D01*
X0086654Y0116251D01*
X0086904Y0116001D01*
X0086404Y0115250D02*
X0086904Y0114750D01*
X0072250Y0123350D02*
X0070749Y0123350D01*
X0070749Y0124101D01*
X0070999Y0124351D01*
X0071499Y0124351D01*
X0071750Y0124101D01*
X0071750Y0123350D01*
X0071750Y0123850D02*
X0072250Y0124351D01*
X0072250Y0124823D02*
X0072250Y0125824D01*
X0072250Y0125324D02*
X0070749Y0125324D01*
X0071249Y0124823D01*
X0056324Y0098851D02*
X0055823Y0098351D01*
X0055351Y0098601D02*
X0055101Y0098851D01*
X0054600Y0098851D01*
X0054350Y0098601D01*
X0054350Y0097600D01*
X0054600Y0097350D01*
X0055101Y0097350D01*
X0055351Y0097600D01*
X0055823Y0097350D02*
X0056824Y0097350D01*
X0056324Y0097350D02*
X0056324Y0098851D01*
X0054940Y0070851D02*
X0055190Y0070601D01*
X0054190Y0069600D01*
X0054440Y0069350D01*
X0054940Y0069350D01*
X0055190Y0069600D01*
X0055190Y0070601D01*
X0054940Y0070851D02*
X0054440Y0070851D01*
X0054190Y0070601D01*
X0054190Y0069600D01*
X0053717Y0069350D02*
X0052716Y0069350D01*
X0052716Y0070851D01*
X0053717Y0070851D01*
X0053217Y0070101D02*
X0052716Y0070101D01*
X0052244Y0069850D02*
X0052244Y0069600D01*
X0051994Y0069350D01*
X0051493Y0069350D01*
X0051243Y0069600D01*
X0050771Y0069350D02*
X0050771Y0070851D01*
X0051243Y0070601D02*
X0051243Y0070351D01*
X0051493Y0070101D01*
X0051994Y0070101D01*
X0052244Y0069850D01*
X0052244Y0070601D02*
X0051994Y0070851D01*
X0051493Y0070851D01*
X0051243Y0070601D01*
X0050771Y0069350D02*
X0049770Y0070851D01*
X0049770Y0069350D01*
X0049297Y0069350D02*
X0048297Y0069350D01*
X0048297Y0070851D01*
X0049297Y0070851D01*
X0048797Y0070101D02*
X0048297Y0070101D01*
X0047824Y0069850D02*
X0047824Y0069600D01*
X0047574Y0069350D01*
X0047073Y0069350D01*
X0046823Y0069600D01*
X0046351Y0069600D02*
X0046101Y0069350D01*
X0045600Y0069350D01*
X0045350Y0069600D01*
X0045350Y0070601D01*
X0045600Y0070851D01*
X0046101Y0070851D01*
X0046351Y0070601D01*
X0046823Y0070601D02*
X0046823Y0070351D01*
X0047073Y0070101D01*
X0047574Y0070101D01*
X0047824Y0069850D01*
X0047824Y0070601D02*
X0047574Y0070851D01*
X0047073Y0070851D01*
X0046823Y0070601D01*
X0024850Y0064627D02*
X0024850Y0064127D01*
X0024600Y0063877D01*
X0024850Y0063404D02*
X0024850Y0062403D01*
X0024850Y0062904D02*
X0023349Y0062904D01*
X0023849Y0062403D01*
X0023599Y0061931D02*
X0023349Y0061681D01*
X0023349Y0061180D01*
X0023599Y0060930D01*
X0024600Y0060930D01*
X0024850Y0061180D01*
X0024850Y0061681D01*
X0024600Y0061931D01*
X0023849Y0063877D02*
X0024099Y0064127D01*
X0024099Y0064878D01*
X0023599Y0064878D02*
X0024600Y0064878D01*
X0024850Y0064627D01*
X0023849Y0063877D02*
X0023599Y0063877D01*
X0023349Y0064127D01*
X0023349Y0064627D01*
X0023599Y0064878D01*
X0085350Y0069600D02*
X0085600Y0069350D01*
X0086101Y0069350D01*
X0086351Y0069600D01*
X0086823Y0069600D02*
X0087073Y0069350D01*
X0087574Y0069350D01*
X0087824Y0069600D01*
X0087824Y0069850D01*
X0087574Y0070101D01*
X0087073Y0070101D01*
X0086823Y0070351D01*
X0086823Y0070601D01*
X0087073Y0070851D01*
X0087574Y0070851D01*
X0087824Y0070601D01*
X0088297Y0070851D02*
X0088297Y0069350D01*
X0089297Y0069350D01*
X0089770Y0069350D02*
X0089770Y0070851D01*
X0090771Y0069350D01*
X0090771Y0070851D01*
X0091243Y0070601D02*
X0091243Y0070351D01*
X0091493Y0070101D01*
X0091994Y0070101D01*
X0092244Y0069850D01*
X0092244Y0069600D01*
X0091994Y0069350D01*
X0091493Y0069350D01*
X0091243Y0069600D01*
X0091243Y0070601D02*
X0091493Y0070851D01*
X0091994Y0070851D01*
X0092244Y0070601D01*
X0092716Y0070851D02*
X0092716Y0069350D01*
X0093717Y0069350D01*
X0094190Y0069350D02*
X0095190Y0069350D01*
X0094690Y0069350D02*
X0094690Y0070851D01*
X0094190Y0070351D01*
X0093717Y0070851D02*
X0092716Y0070851D01*
X0092716Y0070101D02*
X0093217Y0070101D01*
X0089297Y0070851D02*
X0088297Y0070851D01*
X0088297Y0070101D02*
X0088797Y0070101D01*
X0086351Y0070601D02*
X0086101Y0070851D01*
X0085600Y0070851D01*
X0085350Y0070601D01*
X0085350Y0069600D01*
X0125350Y0069600D02*
X0125600Y0069350D01*
X0126101Y0069350D01*
X0126351Y0069600D01*
X0126823Y0069600D02*
X0127073Y0069350D01*
X0127574Y0069350D01*
X0127824Y0069600D01*
X0127824Y0069850D01*
X0127574Y0070101D01*
X0127073Y0070101D01*
X0126823Y0070351D01*
X0126823Y0070601D01*
X0127073Y0070851D01*
X0127574Y0070851D01*
X0127824Y0070601D01*
X0128297Y0070851D02*
X0128297Y0069350D01*
X0129297Y0069350D01*
X0129770Y0069350D02*
X0129770Y0070851D01*
X0130771Y0069350D01*
X0130771Y0070851D01*
X0131243Y0070601D02*
X0131243Y0070351D01*
X0131493Y0070101D01*
X0131994Y0070101D01*
X0132244Y0069850D01*
X0132244Y0069600D01*
X0131994Y0069350D01*
X0131493Y0069350D01*
X0131243Y0069600D01*
X0131243Y0070601D02*
X0131493Y0070851D01*
X0131994Y0070851D01*
X0132244Y0070601D01*
X0132716Y0070851D02*
X0132716Y0069350D01*
X0133717Y0069350D01*
X0134190Y0069350D02*
X0135190Y0070351D01*
X0135190Y0070601D01*
X0134940Y0070851D01*
X0134440Y0070851D01*
X0134190Y0070601D01*
X0133717Y0070851D02*
X0132716Y0070851D01*
X0132716Y0070101D02*
X0133217Y0070101D01*
X0134190Y0069350D02*
X0135190Y0069350D01*
X0129297Y0070851D02*
X0128297Y0070851D01*
X0128297Y0070101D02*
X0128797Y0070101D01*
X0126351Y0070601D02*
X0126101Y0070851D01*
X0125600Y0070851D01*
X0125350Y0070601D01*
X0125350Y0069600D01*
X0165350Y0069600D02*
X0165600Y0069350D01*
X0166101Y0069350D01*
X0166351Y0069600D01*
X0166823Y0069600D02*
X0167073Y0069350D01*
X0167574Y0069350D01*
X0167824Y0069600D01*
X0167824Y0069850D01*
X0167574Y0070101D01*
X0167073Y0070101D01*
X0166823Y0070351D01*
X0166823Y0070601D01*
X0167073Y0070851D01*
X0167574Y0070851D01*
X0167824Y0070601D01*
X0168297Y0070851D02*
X0168297Y0069350D01*
X0169297Y0069350D01*
X0169770Y0069350D02*
X0169770Y0070851D01*
X0170771Y0069350D01*
X0170771Y0070851D01*
X0171243Y0070601D02*
X0171243Y0070351D01*
X0171493Y0070101D01*
X0171994Y0070101D01*
X0172244Y0069850D01*
X0172244Y0069600D01*
X0171994Y0069350D01*
X0171493Y0069350D01*
X0171243Y0069600D01*
X0171243Y0070601D02*
X0171493Y0070851D01*
X0171994Y0070851D01*
X0172244Y0070601D01*
X0172716Y0070851D02*
X0172716Y0069350D01*
X0173717Y0069350D01*
X0174190Y0069600D02*
X0174440Y0069350D01*
X0174940Y0069350D01*
X0175190Y0069600D01*
X0175190Y0069850D01*
X0174940Y0070101D01*
X0174690Y0070101D01*
X0174940Y0070101D02*
X0175190Y0070351D01*
X0175190Y0070601D01*
X0174940Y0070851D01*
X0174440Y0070851D01*
X0174190Y0070601D01*
X0173717Y0070851D02*
X0172716Y0070851D01*
X0172716Y0070101D02*
X0173217Y0070101D01*
X0169297Y0070851D02*
X0168297Y0070851D01*
X0168297Y0070101D02*
X0168797Y0070101D01*
X0166351Y0070601D02*
X0166101Y0070851D01*
X0165600Y0070851D01*
X0165350Y0070601D01*
X0165350Y0069600D01*
X0205350Y0069600D02*
X0205600Y0069350D01*
X0206101Y0069350D01*
X0206351Y0069600D01*
X0206823Y0069600D02*
X0207073Y0069350D01*
X0207574Y0069350D01*
X0207824Y0069600D01*
X0207824Y0069850D01*
X0207574Y0070101D01*
X0207073Y0070101D01*
X0206823Y0070351D01*
X0206823Y0070601D01*
X0207073Y0070851D01*
X0207574Y0070851D01*
X0207824Y0070601D01*
X0208297Y0070851D02*
X0208297Y0069350D01*
X0209297Y0069350D01*
X0209770Y0069350D02*
X0209770Y0070851D01*
X0210771Y0069350D01*
X0210771Y0070851D01*
X0211243Y0070601D02*
X0211243Y0070351D01*
X0211493Y0070101D01*
X0211994Y0070101D01*
X0212244Y0069850D01*
X0212244Y0069600D01*
X0211994Y0069350D01*
X0211493Y0069350D01*
X0211243Y0069600D01*
X0211243Y0070601D02*
X0211493Y0070851D01*
X0211994Y0070851D01*
X0212244Y0070601D01*
X0212716Y0070851D02*
X0212716Y0069350D01*
X0213717Y0069350D01*
X0214190Y0070101D02*
X0215190Y0070101D01*
X0214940Y0070851D02*
X0214190Y0070101D01*
X0213717Y0070851D02*
X0212716Y0070851D01*
X0212716Y0070101D02*
X0213217Y0070101D01*
X0214940Y0069350D02*
X0214940Y0070851D01*
X0209297Y0070851D02*
X0208297Y0070851D01*
X0208297Y0070101D02*
X0208797Y0070101D01*
X0206351Y0070601D02*
X0206101Y0070851D01*
X0205600Y0070851D01*
X0205350Y0070601D01*
X0205350Y0069600D01*
X0245350Y0069600D02*
X0245600Y0069350D01*
X0246101Y0069350D01*
X0246351Y0069600D01*
X0246823Y0069600D02*
X0247073Y0069350D01*
X0247574Y0069350D01*
X0247824Y0069600D01*
X0247824Y0069850D01*
X0247574Y0070101D01*
X0247073Y0070101D01*
X0246823Y0070351D01*
X0246823Y0070601D01*
X0247073Y0070851D01*
X0247574Y0070851D01*
X0247824Y0070601D01*
X0248297Y0070851D02*
X0248297Y0069350D01*
X0249297Y0069350D01*
X0249770Y0069350D02*
X0249770Y0070851D01*
X0250771Y0069350D01*
X0250771Y0070851D01*
X0251243Y0070601D02*
X0251243Y0070351D01*
X0251493Y0070101D01*
X0251994Y0070101D01*
X0252244Y0069850D01*
X0252244Y0069600D01*
X0251994Y0069350D01*
X0251493Y0069350D01*
X0251243Y0069600D01*
X0251243Y0070601D02*
X0251493Y0070851D01*
X0251994Y0070851D01*
X0252244Y0070601D01*
X0252716Y0070851D02*
X0252716Y0069350D01*
X0253717Y0069350D01*
X0254190Y0069600D02*
X0254440Y0069350D01*
X0254940Y0069350D01*
X0255190Y0069600D01*
X0255190Y0070101D01*
X0254940Y0070351D01*
X0254690Y0070351D01*
X0254190Y0070101D01*
X0254190Y0070851D01*
X0255190Y0070851D01*
X0253717Y0070851D02*
X0252716Y0070851D01*
X0252716Y0070101D02*
X0253217Y0070101D01*
X0249297Y0070851D02*
X0248297Y0070851D01*
X0248297Y0070101D02*
X0248797Y0070101D01*
X0246351Y0070601D02*
X0246101Y0070851D01*
X0245600Y0070851D01*
X0245350Y0070601D01*
X0245350Y0069600D01*
X0285350Y0069600D02*
X0285600Y0069350D01*
X0286101Y0069350D01*
X0286351Y0069600D01*
X0286823Y0069600D02*
X0287073Y0069350D01*
X0287574Y0069350D01*
X0287824Y0069600D01*
X0287824Y0069850D01*
X0287574Y0070101D01*
X0287073Y0070101D01*
X0286823Y0070351D01*
X0286823Y0070601D01*
X0287073Y0070851D01*
X0287574Y0070851D01*
X0287824Y0070601D01*
X0288297Y0070851D02*
X0288297Y0069350D01*
X0289297Y0069350D01*
X0289770Y0069350D02*
X0289770Y0070851D01*
X0290771Y0069350D01*
X0290771Y0070851D01*
X0291243Y0070601D02*
X0291243Y0070351D01*
X0291493Y0070101D01*
X0291994Y0070101D01*
X0292244Y0069850D01*
X0292244Y0069600D01*
X0291994Y0069350D01*
X0291493Y0069350D01*
X0291243Y0069600D01*
X0291243Y0070601D02*
X0291493Y0070851D01*
X0291994Y0070851D01*
X0292244Y0070601D01*
X0292716Y0070851D02*
X0292716Y0069350D01*
X0293717Y0069350D01*
X0294190Y0069600D02*
X0294440Y0069350D01*
X0294940Y0069350D01*
X0295190Y0069600D01*
X0295190Y0069850D01*
X0294940Y0070101D01*
X0294190Y0070101D01*
X0294190Y0069600D01*
X0294190Y0070101D02*
X0294690Y0070601D01*
X0295190Y0070851D01*
X0293717Y0070851D02*
X0292716Y0070851D01*
X0292716Y0070101D02*
X0293217Y0070101D01*
X0289297Y0070851D02*
X0288297Y0070851D01*
X0288297Y0070101D02*
X0288797Y0070101D01*
X0286351Y0070601D02*
X0286101Y0070851D01*
X0285600Y0070851D01*
X0285350Y0070601D01*
X0285350Y0069600D01*
X0209850Y0121180D02*
X0209600Y0120930D01*
X0208599Y0120930D01*
X0208349Y0121180D01*
X0208349Y0121681D01*
X0208599Y0121931D01*
X0208849Y0122403D02*
X0208349Y0122904D01*
X0209850Y0122904D01*
X0209850Y0123404D02*
X0209850Y0122403D01*
X0209600Y0121931D02*
X0209850Y0121681D01*
X0209850Y0121180D01*
X0209850Y0123877D02*
X0209850Y0124878D01*
X0209850Y0124377D02*
X0208349Y0124377D01*
X0208849Y0123877D01*
X0197350Y0123877D02*
X0196349Y0124878D01*
X0196099Y0124878D01*
X0195849Y0124627D01*
X0195849Y0124127D01*
X0196099Y0123877D01*
X0195849Y0122904D02*
X0197350Y0122904D01*
X0197350Y0123404D02*
X0197350Y0122403D01*
X0197100Y0121931D02*
X0197350Y0121681D01*
X0197350Y0121180D01*
X0197100Y0120930D01*
X0196099Y0120930D01*
X0195849Y0121180D01*
X0195849Y0121681D01*
X0196099Y0121931D01*
X0196349Y0122403D02*
X0195849Y0122904D01*
X0197350Y0123877D02*
X0197350Y0124878D01*
X0187350Y0124627D02*
X0187100Y0124878D01*
X0186099Y0124878D01*
X0185849Y0124627D01*
X0185849Y0124127D01*
X0186099Y0123877D01*
X0186349Y0123877D01*
X0186599Y0124127D01*
X0186599Y0124878D01*
X0187350Y0124627D02*
X0187350Y0124127D01*
X0187100Y0123877D01*
X0187100Y0123404D02*
X0187350Y0123154D01*
X0187350Y0122654D01*
X0187100Y0122403D01*
X0186099Y0122403D01*
X0185849Y0122654D01*
X0185849Y0123154D01*
X0186099Y0123404D01*
X0177350Y0123404D02*
X0177350Y0122403D01*
X0177350Y0122904D02*
X0175849Y0122904D01*
X0176349Y0122403D01*
X0176099Y0121931D02*
X0175849Y0121681D01*
X0175849Y0121180D01*
X0176099Y0120930D01*
X0177100Y0120930D01*
X0177350Y0121180D01*
X0177350Y0121681D01*
X0177100Y0121931D01*
X0177100Y0123877D02*
X0176099Y0124878D01*
X0177100Y0124878D01*
X0177350Y0124627D01*
X0177350Y0124127D01*
X0177100Y0123877D01*
X0176099Y0123877D01*
X0175849Y0124127D01*
X0175849Y0124627D01*
X0176099Y0124878D01*
X0167350Y0124627D02*
X0167350Y0124127D01*
X0167100Y0123877D01*
X0167350Y0123404D02*
X0167350Y0122403D01*
X0167350Y0122904D02*
X0165849Y0122904D01*
X0166349Y0122403D01*
X0166099Y0121931D02*
X0165849Y0121681D01*
X0165849Y0121180D01*
X0166099Y0120930D01*
X0167100Y0120930D01*
X0167350Y0121180D01*
X0167350Y0121681D01*
X0167100Y0121931D01*
X0166099Y0123877D02*
X0165849Y0124127D01*
X0165849Y0124627D01*
X0166099Y0124878D01*
X0166349Y0124878D01*
X0166599Y0124627D01*
X0166850Y0124878D01*
X0167100Y0124878D01*
X0167350Y0124627D01*
X0166599Y0124627D02*
X0166599Y0124377D01*
X0150878Y0124001D02*
X0149877Y0124001D01*
X0150627Y0124751D01*
X0150627Y0123250D01*
X0149404Y0123250D02*
X0148403Y0123250D01*
X0148904Y0123250D02*
X0148904Y0124751D01*
X0148403Y0124251D01*
X0147931Y0124501D02*
X0147681Y0124751D01*
X0147180Y0124751D01*
X0146930Y0124501D01*
X0146930Y0123500D01*
X0147180Y0123250D01*
X0147681Y0123250D01*
X0147931Y0123500D01*
X0143297Y0123851D02*
X0142297Y0123851D01*
X0142297Y0123101D01*
X0142797Y0123351D01*
X0143047Y0123351D01*
X0143297Y0123101D01*
X0143297Y0122600D01*
X0143047Y0122350D01*
X0142547Y0122350D01*
X0142297Y0122600D01*
X0141824Y0122350D02*
X0140823Y0122350D01*
X0141324Y0122350D02*
X0141324Y0123851D01*
X0140823Y0123351D01*
X0140351Y0123601D02*
X0140101Y0123851D01*
X0139600Y0123851D01*
X0139350Y0123601D01*
X0139350Y0122600D01*
X0139600Y0122350D01*
X0140101Y0122350D01*
X0140351Y0122600D01*
X0155999Y0138350D02*
X0155749Y0138600D01*
X0155749Y0139101D01*
X0155999Y0139351D01*
X0156249Y0139823D02*
X0155749Y0140324D01*
X0157250Y0140324D01*
X0157250Y0140824D02*
X0157250Y0139823D01*
X0157000Y0139351D02*
X0157250Y0139101D01*
X0157250Y0138600D01*
X0157000Y0138350D01*
X0155999Y0138350D01*
X0155749Y0141297D02*
X0155749Y0142297D01*
X0155999Y0142297D01*
X0157000Y0141297D01*
X0157250Y0141297D01*
X0165749Y0140324D02*
X0167250Y0140324D01*
X0167250Y0140824D02*
X0167250Y0139823D01*
X0167000Y0139351D02*
X0167250Y0139101D01*
X0167250Y0138600D01*
X0167000Y0138350D01*
X0165999Y0138350D01*
X0165749Y0138600D01*
X0165749Y0139101D01*
X0165999Y0139351D01*
X0166249Y0139823D02*
X0165749Y0140324D01*
X0166499Y0141297D02*
X0166499Y0142047D01*
X0166750Y0142297D01*
X0167000Y0142297D01*
X0167250Y0142047D01*
X0167250Y0141547D01*
X0167000Y0141297D01*
X0166499Y0141297D01*
X0165999Y0141797D01*
X0165749Y0142297D01*
X0247999Y0166600D02*
X0248249Y0166350D01*
X0249250Y0166350D01*
X0249500Y0166600D01*
X0249500Y0167101D01*
X0249250Y0167351D01*
X0249500Y0167823D02*
X0248499Y0168824D01*
X0248249Y0168824D01*
X0247999Y0168574D01*
X0247999Y0168073D01*
X0248249Y0167823D01*
X0248249Y0167351D02*
X0247999Y0167101D01*
X0247999Y0166600D01*
X0249500Y0167823D02*
X0249500Y0168824D01*
X0249250Y0169297D02*
X0248249Y0170297D01*
X0249250Y0170297D01*
X0249500Y0170047D01*
X0249500Y0169547D01*
X0249250Y0169297D01*
X0248249Y0169297D01*
X0247999Y0169547D01*
X0247999Y0170047D01*
X0248249Y0170297D01*
X0278599Y0170154D02*
X0278849Y0170404D01*
X0279349Y0170404D01*
X0279600Y0170154D01*
X0279600Y0169403D01*
X0280100Y0169403D02*
X0278599Y0169403D01*
X0278599Y0170154D01*
X0278849Y0170877D02*
X0278599Y0171127D01*
X0278599Y0171627D01*
X0278849Y0171878D01*
X0279099Y0171878D01*
X0279349Y0171627D01*
X0279600Y0171878D01*
X0279850Y0171878D01*
X0280100Y0171627D01*
X0280100Y0171127D01*
X0279850Y0170877D01*
X0280100Y0170404D02*
X0279600Y0169904D01*
X0279349Y0171377D02*
X0279349Y0171627D01*
X0345749Y0154297D02*
X0346249Y0153797D01*
X0346249Y0153324D02*
X0345999Y0153324D01*
X0345749Y0153074D01*
X0345749Y0152573D01*
X0345999Y0152323D01*
X0345999Y0151851D02*
X0345749Y0151601D01*
X0345749Y0151100D01*
X0345999Y0150850D01*
X0347000Y0150850D01*
X0347250Y0151100D01*
X0347250Y0151601D01*
X0347000Y0151851D01*
X0347250Y0152323D02*
X0346249Y0153324D01*
X0347250Y0153324D02*
X0347250Y0152323D01*
X0347250Y0153797D02*
X0347250Y0154797D01*
X0347250Y0154297D02*
X0345749Y0154297D01*
D18*
X0350190Y0154300D02*
X0350410Y0154300D01*
X0352800Y0101910D02*
X0352800Y0101690D01*
X0337800Y0094410D02*
X0337800Y0094190D01*
X0297800Y0094410D02*
X0297800Y0094190D01*
X0257800Y0094410D02*
X0257800Y0094190D01*
X0217800Y0094410D02*
X0217800Y0094190D01*
X0177800Y0094410D02*
X0177800Y0094190D01*
X0137800Y0094410D02*
X0137800Y0094190D01*
X0097800Y0094410D02*
X0097800Y0094190D01*
X0057800Y0094410D02*
X0057800Y0094190D01*
X0020410Y0061800D02*
X0020190Y0061800D01*
X0142800Y0119190D02*
X0142800Y0119410D01*
X0147800Y0127690D02*
X0147800Y0127910D01*
X0162690Y0121800D02*
X0162910Y0121800D01*
X0172690Y0121800D02*
X0172910Y0121800D01*
X0182690Y0121800D02*
X0182910Y0121800D01*
X0192690Y0121800D02*
X0192910Y0121800D01*
X0205190Y0121800D02*
X0205410Y0121800D01*
X0170410Y0141800D02*
X0170190Y0141800D01*
X0160410Y0141800D02*
X0160190Y0141800D01*
D19*
X0075300Y0126800D03*
D20*
X0085300Y0119300D03*
X0352800Y0086800D03*
D21*
X0025300Y0081557D03*
D22*
X0252680Y0169300D02*
X0252920Y0169300D01*
D23*
X0352209Y0096662D03*
X0352209Y0091938D03*
D24*
X0352209Y0094300D03*
M02*
